<svg width="28" height="28" viewBox="0 0 28 28" fill="none" xmlns="http://www.w3.org/2000/svg">
<path fill-rule="evenodd" clip-rule="evenodd" d="M13.7089 5.25C13.6027 5.25 13.3414 5.27917 13.2026 5.55683L11.0722 9.81633C10.7351 10.4895 10.0852 10.9573 9.33389 11.0647L4.56455 11.7518C4.24955 11.7973 4.14222 12.0307 4.10955 12.1287C4.08039 12.2232 4.03372 12.4635 4.25072 12.6712L7.69939 15.9845C8.24889 16.513 8.49855 17.2748 8.36789 18.0203L7.55589 22.6987C7.50572 22.9915 7.68889 23.1618 7.77055 23.2202C7.85689 23.2855 8.08789 23.415 8.37372 23.2657L12.6379 21.0548C13.3099 20.7083 14.1102 20.7083 14.7799 21.0548L19.0429 23.2645C19.3299 23.4127 19.5609 23.2832 19.6484 23.2202C19.7301 23.1618 19.9132 22.9915 19.8631 22.6987L19.0487 18.0203C18.9181 17.2748 19.1677 16.513 19.7172 15.9845L23.1659 12.6712C23.3841 12.4635 23.3374 12.222 23.3071 12.1287C23.2756 12.0307 23.1682 11.7973 22.8532 11.7518L18.0839 11.0647C17.3337 10.9573 16.6839 10.4895 16.3467 9.81517L14.2141 5.55683C14.0764 5.27917 13.8151 5.25 13.7089 5.25ZM8.10539 25.0833C7.62355 25.0833 7.14522 24.9317 6.73572 24.633C6.02872 24.115 5.68222 23.2598 5.83272 22.3988L6.64472 17.7205C6.67505 17.5467 6.61555 17.3705 6.48722 17.2468L3.03855 13.9335C2.40389 13.3257 2.17639 12.4273 2.44472 11.5932C2.71539 10.7497 3.43172 10.1465 4.31489 10.0205L9.08422 9.33333C9.26855 9.30767 9.42722 9.1945 9.50655 9.0335L11.6381 4.77283C12.0312 3.98767 12.8246 3.5 13.7089 3.5C14.5932 3.5 15.3866 3.98767 15.7797 4.77283L17.9124 9.03233C17.9929 9.1945 18.1504 9.30767 18.3336 9.33333L23.1029 10.0205C23.9861 10.1465 24.7024 10.7497 24.9731 11.5932C25.2414 12.4273 25.0127 13.3257 24.3781 13.9335L20.9294 17.2468C20.8011 17.3705 20.7427 17.5467 20.7731 17.7193L21.5862 22.3988C21.7356 23.261 21.3891 24.1162 20.6809 24.633C19.9634 25.1592 19.0289 25.2303 18.2367 24.8173L13.9749 22.6088C13.8081 22.5225 13.6086 22.5225 13.4417 22.6088L9.17989 24.8185C8.83922 24.9958 8.47172 25.0833 8.10539 25.0833Z" fill="white"/>
</svg>
