<svg width="277" height="135" viewBox="0 0 277 135" fill="none" xmlns="http://www.w3.org/2000/svg">
<path d="M264.067 81.1771C263.575 88.0551 259.703 94.3915 252.821 99.9512C245.934 105.515 236.129 110.213 224.051 113.785C199.901 120.926 166.958 123.474 130.967 119.669C94.976 115.864 62.8896 106.441 40.1164 94.3391C28.7262 88.2863 19.7359 81.6004 13.7423 74.6751C7.75274 67.7546 4.83888 60.7008 5.33085 53.8229C5.82282 46.9449 9.69445 40.6085 16.5767 35.0488C23.4636 29.4853 33.2682 24.7865 45.3468 21.2149C69.4964 14.0738 102.439 11.5259 138.43 15.331C174.422 19.1361 206.508 28.5591 229.281 40.6609C240.671 46.7137 249.662 53.3996 255.655 60.3248C261.645 67.2454 264.559 74.2992 264.067 81.1771Z" stroke="#ffffff" stroke-width="3"/>
<path d="M273.149 60.9525C273.451 67.8482 270.343 74.7795 264.166 81.4511C257.984 88.1274 248.814 94.442 237.263 100.026C214.169 111.19 181.841 119.296 145.765 121.629C109.69 123.961 76.8365 120.068 52.8984 111.945C40.9257 107.881 31.2568 102.785 24.5277 96.9431C17.8033 91.1055 14.1083 84.614 13.8067 77.7184C13.5051 70.8227 16.613 63.8914 22.7903 57.2198C28.9719 50.5434 38.1417 44.2289 49.6925 38.6451C72.7868 27.4809 105.115 19.3745 141.191 17.0423C177.266 14.7101 210.119 18.6027 234.057 26.7263C246.03 30.7894 255.699 35.8861 262.428 41.7278C269.153 47.5654 272.848 54.0569 273.149 60.9525Z" stroke="#ffffff" stroke-width="3"/>
</svg>
