<svg width="373" height="340" viewBox="0 0 373 340" fill="none" xmlns="http://www.w3.org/2000/svg">
<mask id="mask0_495_11364" style="mask-type:alpha" maskUnits="userSpaceOnUse" x="0" y="0" width="373" height="340">
<rect width="373" height="340" fill="#D9D9D9"/>
</mask>
<g mask="url(#mask0_495_11364)">
<path fill-rule="evenodd" clip-rule="evenodd" d="M171.61 30.5123C163.738 34.5879 152.957 48.4374 144.499 65.3379C137.37 79.5845 133.458 92.158 132.456 104.045C131.646 113.664 132.442 138.466 134.005 152.304C134.446 156.212 134.343 158.789 133.744 158.789C133.198 158.789 130.8 160.461 128.416 162.505C124.378 165.965 123.495 166.253 115.586 166.689C107.842 167.116 106.662 166.911 102.209 164.364C99.5221 162.827 96.7851 161.164 96.1249 160.665C94.0972 159.134 95.7796 155.807 98.9299 155.113C103.925 154.015 115.635 142.222 115.635 138.291C115.635 137.815 114.245 139.619 112.546 142.301C107.16 150.806 96.5434 156.675 89.3901 155.103C85.6821 154.287 85.3494 152.502 88.9057 152.502C90.4991 152.502 92.1857 151.461 93.3523 149.758C94.386 148.249 96.2797 145.966 97.5614 144.686C99.4782 142.767 99.7303 141.799 98.9854 139.199C97.801 135.066 98.6945 130.701 101.246 128.145C105.448 123.938 99.5608 113.737 92.9306 113.737C91.3947 113.737 88.0331 112.717 85.4593 111.469C81.5682 109.583 80.1296 109.375 76.9102 110.236C73.5224 111.141 72.6875 110.966 70.2152 108.837C68.2158 107.115 66.0877 106.404 62.9353 106.404C51.7967 106.404 47.9339 122.097 58.0409 126.289C60.8856 127.47 61.2288 128.09 61.2288 132.058C61.2288 137.398 64.1437 141.601 69.3583 143.782C72.2973 145.012 72.8392 145.704 72.336 147.584C71.997 148.849 71.7134 150.237 71.7061 150.669C71.6695 152.689 65.3218 151.127 60.9662 148.026C55.7119 144.285 53.1464 141.367 50.1667 135.739C47.2298 130.195 47.4683 116.018 50.6176 108.911C56.9203 94.6819 72.0702 88.2312 89.8682 92.1957C103.355 95.2005 115.615 105.532 117.164 115.198C117.451 116.987 117.866 119.631 118.087 121.071C118.329 122.646 118.536 122.021 118.608 119.5C118.88 109.967 110.677 99.3766 98.6495 93.7316C91.514 90.3832 90.3725 90.1642 80.0616 90.1642C70.5908 90.1642 68.3748 90.51 63.993 92.6703C53.9887 97.6018 48.4864 105.576 46.4807 118.051C44.6267 129.578 49.4154 141.834 58.2281 148.119C60.3981 149.665 62.3138 151.874 62.4854 153.026C62.6737 154.285 63.7493 155.257 65.1806 155.46C67.3421 155.767 67.0733 156.24 62.2604 160.572C55.5706 166.595 48.6988 180.277 44.9646 195.009C41.7516 207.687 40.4626 220.454 42.282 221.58C43.2477 222.178 43.0573 226.219 41.4575 239.03C37.8458 267.967 36.5684 285.193 37.0203 298.844C37.2516 305.831 38.4935 306.487 54.6321 308.138L61.1137 308.803L61.5186 312.635L61.9235 316.468L62.0993 312.539L62.2751 308.61L68.8142 308.602C72.4113 308.598 78.6052 308.287 82.581 307.912L89.8075 307.228L89.0825 318.467C88.326 330.178 84.0834 369.281 82.0652 383.148C80.9342 390.921 80.8034 391.177 77.673 391.805C75.7981 392.18 74.1544 391.978 73.7495 391.323C73.3676 390.703 70.7624 373.779 67.9626 353.714C64.1071 326.088 62.6078 317.702 61.7886 319.163C61.1932 320.225 54.8204 326.228 47.6274 332.504C25.7029 351.63 25.4267 351.907 26.2124 353.923C26.6048 354.932 27.8174 355.756 28.9066 355.756C29.9957 355.756 30.8871 356.21 30.8871 356.764C30.8871 359.433 35.3871 369.376 36.5945 369.376C38.2131 369.376 39.2227 366.14 39.2426 360.888L39.2573 357.113L51.8564 351.59C58.7858 348.551 64.7035 346.313 65.0058 346.617C65.3093 346.921 66.705 355.583 68.107 365.869C71.5481 391.094 73.4544 401.944 74.6597 403.151C75.3053 403.798 76.362 403.464 77.6029 402.222C79.301 400.521 80.3462 400.399 86.1331 401.223C94.6089 402.431 96.8322 400.891 92.1062 397.086C90.3872 395.702 87.6271 394.008 85.974 393.322C83.1334 392.144 83.0005 391.81 83.5687 387.274C83.8993 384.633 85.4279 371.393 86.9669 357.852C88.5049 344.31 90.1957 333.065 90.7251 332.862C91.2545 332.659 93.662 330.989 96.0757 329.15C101.524 324.999 104.037 319.841 104.848 311.146C105.244 306.893 105.944 304.419 106.752 304.419C107.454 304.419 109.269 303.441 110.785 302.247C113.37 300.211 113.542 299.53 113.542 291.33C113.542 277.907 108.331 248.963 102.913 232.296C101.33 227.427 101.064 225.345 101.917 224.491C102.624 223.783 103.079 218.939 103.079 212.11C103.079 201.436 103.18 200.919 105.156 201.436C106.299 201.736 108.064 201.62 109.08 201.178C110.096 200.736 111.868 200.417 113.019 200.467C114.724 200.544 114.772 200.462 113.281 200.028C110.934 199.345 110.877 199.706 115.054 188.648C117.526 182.103 119.2 179.105 120.526 178.845C121.576 178.639 126.96 175.008 132.492 170.775C138.024 166.543 144.261 162.067 146.355 160.831C148.449 159.593 150.169 157.803 150.177 156.851C150.191 155.375 150.337 155.348 151.169 156.666C151.99 157.967 152.6 157.802 155.044 155.618C156.64 154.192 157.303 153.862 156.519 154.885C154.68 157.284 155.838 158.456 158.245 156.631C159.827 155.431 159.908 155.439 158.793 156.691C156.807 158.922 157.229 160.048 159.578 158.789C160.729 158.172 161.67 157.916 161.67 158.22C161.67 158.524 159.92 159.601 157.78 160.614C154.475 162.179 152.865 164.341 147.052 175.028C135.724 195.85 131.834 199.757 121.389 200.799L115.111 201.425L120.866 201.578C124.224 201.668 127.869 201.08 129.617 200.166C131.266 199.305 132.775 198.601 132.97 198.601C133.167 198.601 132.208 201.578 130.841 205.214C124.602 221.813 123.017 242.726 127.054 255.177C129.566 262.926 131.886 266.567 133.365 265.074C133.904 264.529 135.989 259.767 137.995 254.493C140.003 249.218 142.686 242.86 143.958 240.364C146.061 236.236 146.346 236.027 147.1 238.068C147.575 239.355 149.208 240.593 150.928 240.971C153.54 241.546 153.928 242.11 153.928 245.332C153.928 247.396 154.584 249.438 155.411 249.95C159.975 252.775 192.667 252.563 199.484 249.665C202.971 248.183 203.326 247.636 203.677 243.229C203.887 240.58 203.703 238.414 203.267 238.414C202.831 238.414 202.475 237.642 202.475 236.699C202.475 235.187 201.329 235.061 192.797 235.641C187.473 236.002 176.998 236.612 169.517 236.996C160.433 237.464 155.568 238.141 154.87 239.038C154.241 239.845 152.677 240.148 150.946 239.799C146.771 238.956 146.915 234.092 151.208 230.914C154.296 228.627 154.346 228.439 154.33 219.096C154.312 208.797 152.666 186.466 151.616 182.277C151.121 180.302 150.484 179.832 148.961 180.316C147.286 180.848 147.69 179.472 151.43 171.922C154.542 165.638 156.591 162.719 158.164 162.323C159.408 162.01 161.452 160.661 162.705 159.325C164.882 157.004 164.898 156.845 163.066 155.779C162.01 155.165 161.589 154.647 162.13 154.629C162.669 154.612 162.074 153.631 160.808 152.449C158.376 150.181 156.882 150.509 154.487 153.836C153.46 155.263 152.738 155.502 151.923 154.686C150.136 152.896 148.069 153.358 148.069 155.547C148.069 156.749 145.944 159.074 142.735 161.382C139.801 163.492 137.28 165.069 137.13 164.885C136.681 164.332 134.565 138.221 133.833 124.214C133.414 116.169 133.615 107.623 134.356 102.058C135.693 92.0218 138.35 81.9974 139.487 82.6962C139.891 82.9445 140.268 81.8979 140.324 80.3703C140.461 76.6258 147.726 61.6343 154.237 51.6591C163.436 37.5655 170.646 30.9691 176.852 30.9691C180.883 30.9691 189.766 39.9238 197.323 51.6057C203.334 60.8977 210.845 75.575 210.845 78.0297C210.845 78.6332 208.384 80.3766 205.375 81.9031C187.345 91.0527 168.453 92.619 150.544 86.4491C147.267 85.3197 144.385 84.5988 144.137 84.8461C143.89 85.0944 147.616 86.5832 152.417 88.1558C159.894 90.6043 162.949 91.0223 173.702 91.0684C184.794 91.1145 187.234 90.7824 194.628 88.2165C199.231 86.6198 204.978 84.1567 207.398 82.7444C211.708 80.2299 211.822 80.2194 212.897 82.231C213.501 83.3615 215.021 88.4376 216.276 93.5116C219.736 107.506 219.388 142.557 215.43 178.843L214.785 184.752L211.1 182.248C209.072 180.87 207.03 179.743 206.561 179.743C206.092 179.743 205.402 181.511 205.027 183.671C204.654 185.833 204.015 189.251 203.608 191.267C203.201 193.284 202.746 202.713 202.597 212.221C202.326 229.425 202.336 229.514 204.754 230.556C206.122 231.146 207.339 232.707 207.54 234.131C207.793 235.929 208.141 236.26 208.747 235.278C209.812 233.553 213.929 241.452 218.793 254.553C220.698 259.683 222.748 264.373 223.348 264.973C225.726 267.354 230.521 256.371 231.672 245.906L232.293 240.255L244.325 240.049C250.943 239.936 257.242 239.448 258.325 238.964C260.204 238.124 260.258 238.545 259.525 248.336C258.975 255.685 259.099 258.799 259.964 259.334C260.862 259.89 260.896 262.863 260.092 270.987C257.768 294.494 256.617 325.673 256.525 367.604C256.425 413.006 256.361 412.238 260.359 413.651C260.834 413.819 260.914 415.19 260.536 416.699C260 418.837 258.831 419.727 255.225 420.738C251.996 421.643 250.603 422.591 250.603 423.881C250.603 426.388 252.658 427 261.076 427C269.806 427 271.528 425.687 271.528 419.034C271.528 415.926 272.034 414.168 273.04 413.781C275.165 412.964 278.252 404.349 298.236 343.464C307.927 313.941 316.026 289.958 316.236 290.167C316.741 290.673 308.472 320.203 305.869 327.19L303.825 332.672L310.742 361.764C319.756 399.674 321.264 404.703 323.867 405.53C325.004 405.892 325.934 406.824 325.934 407.603C325.934 408.381 326.182 409.664 326.484 410.453C326.84 411.382 325.365 412.701 322.299 414.192C317.586 416.485 316.171 419.197 319.102 420.323C321.542 421.261 335.234 418.585 336.99 416.827C338.179 415.637 338.405 414.062 337.887 410.598C337.331 406.886 337.582 405.532 339.149 403.791C340.983 401.752 341.095 399.44 340.959 366.377C340.789 325.248 338.457 277.235 335.806 260.294C335.293 257.011 335.524 256.424 337.534 255.897C339.839 255.294 339.85 255.176 339.233 239.256C338.637 223.897 337.146 212.712 333.631 197.218C332.74 193.287 331.811 190.272 331.567 190.516C331.323 190.759 331.865 194.161 332.772 198.075C333.678 201.988 334.04 205.549 333.577 205.985C331.345 208.091 303.458 215.364 297.617 215.364C295.897 215.364 295.539 214.934 296.093 213.531C296.492 212.522 297.31 209.104 297.911 205.935C298.512 202.766 299.138 199.65 299.301 199.01C299.465 198.371 302.033 197.524 305.007 197.128C315.177 195.778 330.263 188.294 330.036 184.713C329.976 183.751 329.821 183.735 329.448 184.651C328.512 186.955 319.183 192.11 311.961 194.315C299.697 198.061 283.615 196.824 270.37 191.12C265.968 189.223 265.298 188.561 265.867 186.674C266.513 184.529 270.371 177.647 270.926 177.647C271.077 177.647 273.982 178.61 277.38 179.787C285.552 182.615 297.886 183.536 305.11 181.858C308.219 181.136 313.667 179.024 317.217 177.166L323.672 173.789L326.347 178.599C327.818 181.245 329.033 182.863 329.048 182.195C329.061 181.527 327.071 177.991 324.626 174.338C320.91 168.785 319.054 167.122 313.321 164.21L306.463 160.727L294.488 162.953C287.902 164.177 281.572 165.413 280.421 165.7C278.807 166.104 278.688 166.002 279.898 165.257C280.761 164.727 287.117 162.992 294.023 161.404C300.928 159.814 307.249 158.258 308.068 157.945C309.119 157.544 309.36 157.892 308.885 159.13C308.511 160.107 308.716 160.884 309.348 160.884C309.973 160.884 310.248 159.981 309.959 158.877C309.609 157.532 310.595 155.745 312.942 153.466C318.095 148.465 320.782 141.922 321.25 133.238L321.65 125.786L320.673 133.466C319.081 145.984 310.829 157.741 303.637 157.741C299.573 157.741 299.779 155.638 304.238 151.605C308.383 147.855 311.492 142.717 312.725 137.581C314.895 128.537 300.516 116.885 287.222 116.914C276.026 116.938 269.043 122.261 266.662 132.585C265.155 139.112 265.397 140.978 267.747 140.978C268.605 140.978 268.921 142.015 268.642 143.919C268.373 145.759 268.832 147.375 269.87 148.237C270.782 148.996 271.528 150.881 271.528 152.426C271.528 154.158 272.886 156.721 275.07 159.108C277.018 161.237 278.515 162.979 278.398 162.979C278.282 162.979 275.628 162.222 272.503 161.296C257.618 156.888 249.676 144.387 250.775 127.1C251.336 118.282 255.249 111.656 263.167 106.117C271.197 100.498 278.063 98.7323 289.727 99.2834C303.733 99.9456 311.912 104.681 317.399 115.309C318.59 117.614 319.584 119.128 319.61 118.672C319.741 116.323 314.987 109.298 310.723 105.54C292.601 89.566 257.346 98.1173 249.998 120.27C245.997 132.33 251.156 150.016 260.823 157.385C263.279 159.257 267.835 161.592 270.945 162.575C278.815 165.059 279.128 167.139 272.661 173.987C266.432 180.582 264.964 183.373 261.589 195.034C260.125 200.095 258.794 204.368 258.633 204.529C258.472 204.69 257.012 200.557 255.389 195.344C253.767 190.13 251.896 185.656 251.232 185.4C250.567 185.146 244.387 185.92 237.497 187.122C230.607 188.324 223.485 189.567 221.67 189.884C216.071 190.863 215.631 188.531 217.819 169.463C219.175 157.653 219.707 145.211 219.711 125.262L219.715 97.4981L216.206 87.0211C208.49 63.9853 193.448 39.0249 182.853 31.6711C178.226 28.4609 176.012 28.2325 171.61 30.5123ZM169.364 100.155C160.909 102.759 156.306 111.781 158.584 121.289C161.825 134.821 177.785 139.984 187.948 130.79C190.183 128.768 192.012 126.634 192.012 126.047C192.012 125.46 191.028 126.231 189.827 127.761C186.731 131.702 182.423 133.644 176.774 133.644C166.196 133.644 158.798 125.369 159.824 114.683C160.639 106.198 166.798 101.165 176.369 101.165C186.681 101.165 191.705 105.538 193.157 115.778L193.981 121.595L193.691 115.528C193.369 108.766 191.231 104.989 185.988 101.913C182.122 99.6459 173.858 98.7721 169.364 100.155ZM167.79 109.383C164.995 111.883 164.461 113.109 164.461 117.01C164.461 125.166 168.862 129.453 177.237 129.453C187.618 129.453 191.715 112.697 182.5 107.926C177.575 105.376 171.609 105.967 167.79 109.383ZM183.722 110.514C190.384 117.184 185.379 128.405 175.743 128.405C171.406 128.405 165.855 122.243 165.855 117.429C165.855 108.372 177.2 103.982 183.722 110.514ZM319.86 122.643C319.881 124.372 320.116 124.952 320.381 123.933C320.647 122.913 320.629 121.499 320.343 120.79C320.056 120.08 319.839 120.914 319.86 122.643ZM117.931 126.834C117.952 128.562 118.186 129.143 118.452 128.123C118.718 127.104 118.7 125.69 118.413 124.98C118.127 124.271 117.91 125.105 117.931 126.834ZM96.1814 130.637C96.3634 130.85 96.8165 133.736 97.1889 137.049C97.711 141.69 97.5489 143.073 96.4817 143.073C95.72 143.073 94.3107 144.723 93.3502 146.74C91.9377 149.706 91.0149 150.407 88.5196 150.407C86.4354 150.407 85.2343 151.037 84.819 152.347C84.2655 154.095 83.6597 154.184 78.7328 153.24C75.7227 152.664 73.0956 152.056 72.8926 151.892C72.6907 151.726 73.3257 149.174 74.3061 146.22C75.9393 141.295 75.9487 140.698 74.4118 138.999C72.0482 136.382 72.3318 135.41 75.2446 136.142C76.9322 136.566 77.9439 136.267 78.3436 135.226C78.669 134.375 79.6253 133.943 80.4675 134.267C81.383 134.619 82.6793 133.816 83.6911 132.269C85.1695 130.01 86.0452 129.719 90.6173 129.965C93.4967 130.121 96.0004 130.423 96.1814 130.637ZM116.764 132.159C116.814 133.38 117.062 133.628 117.395 132.793C117.698 132.037 117.66 131.132 117.313 130.785C116.965 130.437 116.719 131.055 116.764 132.159ZM91.5705 134.63C91.5705 135.172 92.0413 135.907 92.6168 136.263C93.1922 136.619 93.663 136.175 93.663 135.277C93.663 134.379 93.1922 133.644 92.6168 133.644C92.0413 133.644 91.5705 134.087 91.5705 134.63ZM278.636 143.775C279.084 146.737 275.053 150.114 272.774 148.685C270.257 147.104 269.981 143.216 272.228 140.988C273.841 139.39 274.474 139.3 276.236 140.416C277.387 141.145 278.467 142.656 278.636 143.775ZM286.56 140.363C287.429 140.028 288.98 140.224 290.005 140.8C291.561 141.671 291.181 141.96 287.715 142.55C285.43 142.938 282.792 143.465 281.853 143.72C279.777 144.283 278.249 140.95 280.068 139.825C280.776 139.387 282.17 139.466 283.167 139.999C284.163 140.533 285.689 140.697 286.56 140.363ZM292.453 144.583C292.453 147.341 294.798 147.612 296.711 145.073C299.168 141.81 300.358 143.09 298.414 146.905C297.142 149.401 297.111 150.605 298.229 154.343C299.494 158.578 299.448 158.828 297.315 159.311C285.476 161.99 278.192 161.627 276.343 158.265C275.709 157.112 274.602 155.792 273.882 155.331C271.594 153.865 272.471 151.382 275.67 150.265C277.374 149.67 279.037 148.328 279.369 147.283C279.765 146.032 281.657 145.03 284.905 144.351C291.933 142.883 292.453 142.899 292.453 144.583ZM88.4317 145.045C88.4317 145.621 88.9025 146.384 89.478 146.74C90.0534 147.096 90.5242 146.916 90.5242 146.34C90.5242 145.764 90.0534 145.001 89.478 144.645C88.9025 144.288 88.4317 144.469 88.4317 145.045ZM81.6142 155.167C94.1977 156.84 95.6049 157.193 94.4153 158.385C93.5521 159.249 66.2205 154.567 64.8907 153.329C64.2337 152.717 64.8186 152.567 66.4601 152.927C67.8988 153.242 74.7183 154.25 81.6142 155.167ZM170.493 154.916C164.989 159.657 167.455 170.324 174.607 172.71C179.4 174.31 184.521 172.733 186.827 168.947C191.678 160.979 187.142 152.502 178.027 152.502C174.596 152.502 172.525 153.166 170.493 154.916ZM185.258 156.122C192.581 163.454 183.549 175.665 174.333 170.893C165.192 166.159 168.157 153.55 178.41 153.55C181.56 153.55 183.369 154.229 185.258 156.122ZM174.749 156.898C171.927 158.501 171.121 159.86 171.102 163.059C171.085 166.187 174.997 170.313 177.984 170.313C180.86 170.313 184.702 167.396 184.617 165.277C184.561 163.889 184.308 163.996 183.451 165.769C181.011 170.82 173.179 168.834 173.179 163.165C173.179 161.565 173.744 159.69 174.435 158.998C176.516 156.914 181.265 157.504 183.059 160.07C184.346 161.909 184.688 162.031 184.688 160.652C184.688 158.68 180.857 155.629 178.439 155.677C177.56 155.695 175.899 156.244 174.749 156.898ZM280.596 156.344C280.212 156.728 279.898 157.529 279.898 158.125C279.898 158.781 280.386 158.719 281.136 157.968C281.817 157.286 282.131 156.485 281.834 156.187C281.537 155.889 280.979 155.96 280.596 156.344ZM82.6772 158.6C92.5801 160.203 95.0619 161.03 100.464 164.522C106.623 168.503 106.909 168.574 115.635 168.332C124.491 168.087 124.546 168.068 128.877 163.839C133.55 159.276 135.514 159.295 135.514 163.901C135.514 166.202 134.129 167.905 128.752 172.221C122.804 176.993 117.53 179.462 119.257 176.664C119.88 175.653 110.629 168.689 109.785 169.535C109.526 169.795 111.207 171.261 113.521 172.794C115.834 174.327 117.727 176.014 117.727 176.543C117.727 177.95 111.773 193.889 109.872 197.569C108.488 200.249 107.82 200.62 105.401 200.049C100.836 198.972 88.5499 193.584 84.9455 191.08L81.631 188.776L83.7235 191.217C85.7993 193.638 97.1691 199.647 99.6791 199.648C100.647 199.649 100.987 202.686 100.987 211.339V223.029L80.1118 222.331C68.6301 221.947 55.6208 221.326 51.2014 220.952L43.1661 220.272L43.751 212.318C45.3162 191.057 56.2057 164.559 65.7801 158.713C69.7329 156.3 68.5161 156.309 82.6772 158.6ZM312.855 165.14C317.257 167.146 319.279 168.637 321.565 171.562C322.786 173.123 322.474 173.577 318.949 175.376C311.855 178.994 303.704 180.865 294.97 180.88C285.354 180.897 272.574 178.123 272.574 176.018C272.574 175.263 274.613 172.971 277.106 170.926L281.636 167.208L290.01 167.855C296.498 168.356 299.616 168.092 303.857 166.682C310.082 164.611 310.422 163.353 304.329 164.935C298.342 166.49 287.609 167.576 288.608 166.525C290.006 165.054 303.209 162.181 306.055 162.729C307.493 163.006 310.554 164.091 312.855 165.14ZM254.454 197.554C256.285 203.028 257.784 208.685 257.786 210.126C257.789 211.567 256.237 208.031 254.337 202.268C249.295 186.974 249.837 187.817 245.479 188.472C243.406 188.784 239.355 189.279 236.478 189.573L231.247 190.106L237.524 188.682C240.977 187.898 245.45 187.334 247.464 187.429L251.126 187.6L254.454 197.554ZM283.873 197.463C286.923 198.089 291.277 198.601 293.551 198.601C298.172 198.601 298.478 199.367 296.583 206.197C295.632 209.629 295.094 210.126 292.332 210.126C288.733 210.126 269.704 205.466 264.625 203.34L261.253 201.93L262.818 195.706L264.383 189.484L271.356 192.905C275.191 194.786 280.824 196.837 283.873 197.463ZM229.959 190.907C229.251 191.194 227.838 191.212 226.82 190.946C225.802 190.68 226.382 190.445 228.108 190.424C229.834 190.403 230.667 190.62 229.959 190.907ZM250.022 194.672C253.219 203.121 255.782 212.693 255.024 213.357C254.607 213.725 246.366 215.572 236.714 217.462C227.06 219.352 219.364 221.103 219.613 221.351C219.861 221.599 226.758 220.569 234.939 219.062C243.121 217.555 250.004 216.511 250.234 216.742C250.466 216.974 246.523 217.983 241.474 218.983C236.425 219.985 230.645 221.497 228.631 222.342C226.617 223.189 222.522 224.031 219.531 224.214L214.093 224.55L211.016 216.028C207.784 207.08 204.567 196.723 204.567 195.267C204.567 194.796 205.626 194.418 206.921 194.426C208.803 194.44 208.962 194.641 207.715 195.43C206.359 196.289 206.475 197.348 208.607 203.534C209.954 207.448 212.193 213.007 213.582 215.888C216.464 221.872 216.168 220.778 211.205 207.104C209.243 201.698 207.858 197.053 208.128 196.781C208.826 196.082 241.037 190.441 245.023 190.32C247.992 190.23 248.512 190.683 250.022 194.672ZM223.661 191.961C222.943 192.252 221.766 192.252 221.046 191.961C220.327 191.671 220.915 191.433 222.354 191.433C223.792 191.433 224.381 191.671 223.661 191.961ZM218.43 193.009C217.711 193.3 216.534 193.3 215.814 193.009C215.096 192.718 215.684 192.481 217.122 192.481C218.561 192.481 219.15 192.718 218.43 193.009ZM213.199 194.056C212.48 194.348 211.303 194.348 210.583 194.056C209.864 193.766 210.452 193.528 211.891 193.528C213.33 193.528 213.919 193.766 213.199 194.056ZM279.548 209.62C283.481 210.455 288.465 211.145 290.622 211.156C293.142 211.167 294.546 211.663 294.546 212.54C294.546 215.033 288.662 223.245 284.03 227.215L279.465 231.128L270.036 221.937C264.85 216.882 260.418 212.649 260.187 212.531C259.956 212.414 260.083 210.212 260.468 207.637L261.169 202.955L266.783 205.53C269.871 206.945 275.615 208.786 279.548 209.62ZM336.072 216.674C336.738 222.28 336.694 224.799 335.931 224.809C335.208 224.82 335.228 225.091 335.989 225.595C336.629 226.019 337.481 230.215 337.884 234.919L338.617 243.472L332.014 244.076C322.573 244.94 280.669 246.795 270.609 246.795H262.112V242.572C262.112 240.061 262.642 238.219 263.42 238.03C264.139 237.855 267.788 236.631 271.528 235.311C276.853 233.431 281.735 232.746 294.023 232.154C307.842 231.489 336.558 227.118 333.599 226.13C333.032 225.941 326.72 226.756 319.573 227.941C312.426 229.127 300.974 230.394 294.125 230.756L281.674 231.416L286.62 226.849C289.342 224.338 292.214 221.033 293.003 219.504C294.271 217.048 295.242 216.65 301.353 216.079C309.704 215.297 319.65 212.88 327.77 209.659C331.076 208.347 334.08 207.562 334.445 207.914C334.81 208.266 335.543 212.209 336.072 216.674ZM269.131 223.172L277.935 232.028L270.808 234.093C257.563 237.932 258.167 237.983 256.856 232.923C256.22 230.468 255.262 226.811 254.727 224.794C253.224 219.133 253.484 217.46 255.867 217.46C257.036 217.46 258.264 216.753 258.594 215.888C258.926 215.024 259.451 214.317 259.762 214.317C260.074 214.317 264.289 218.302 269.131 223.172ZM254.504 215.997C254.157 216.345 253.254 216.383 252.5 216.08C251.665 215.746 251.913 215.497 253.132 215.447C254.234 215.402 254.852 215.649 254.504 215.997ZM253.143 223.922C253.538 226.9 254.55 230.991 255.395 233.013C257.352 237.707 256.408 238.376 247.809 238.398L241.353 238.414L240.497 231.342C239.223 220.822 239.051 221.273 244.848 219.925C247.726 219.256 250.608 218.664 251.253 218.608C251.899 218.553 252.748 220.94 253.143 223.922ZM238.414 227.675C238.779 230.988 239.391 234.832 239.773 236.217C240.447 238.656 240.327 238.715 235.894 238.119C230.527 237.399 228.631 235.288 228.631 230.032C228.631 224.601 230.768 222.383 236.591 221.772C237.251 221.703 238.035 224.242 238.414 227.675ZM223.138 227.591C225.85 228.086 226.539 228.716 226.539 230.707C226.539 233.184 226.507 233.19 222.615 231.571C220.458 230.674 217.75 228.957 216.599 227.757L214.507 225.572L217.122 226.272C218.561 226.657 221.269 227.25 223.138 227.591ZM338.489 248.763C338.489 250.997 337.827 253.375 337.018 254.048C335.094 255.646 317.823 256.947 286.437 257.853L261.065 258.586V253.38V248.175L290.099 247.394C306.067 246.963 322.193 246.254 325.934 245.816C338.99 244.287 338.489 244.17 338.489 248.763ZM151.545 259.109C145.502 264.535 139.699 272.647 139.699 275.668C139.699 278.664 142.95 279.816 149.086 278.992L153.115 278.451L149.545 283.134C147.581 285.71 145.681 289.549 145.322 291.665C144.736 295.12 144.034 295.818 138.474 298.491C131.817 301.69 127.504 306.781 126.141 313.048C125.655 315.286 124.886 316.324 123.917 316.052C123.102 315.823 119.61 315.507 116.158 315.348L109.88 315.059L115.635 315.796C118.8 316.201 122.418 317.107 123.674 317.81C126.837 319.577 127.144 319.456 127.144 316.434C127.144 309.901 135.114 300 141.504 298.596C146.735 297.447 147.023 297.188 147.023 293.631C147.023 289.828 151.945 281.391 155.701 278.757C159.041 276.414 157.211 275.822 150.774 277.16C144.556 278.453 140.745 277.891 140.745 275.683C140.745 273.548 145.681 266.682 151.531 260.677C157.787 254.258 157.793 253.498 151.545 259.109ZM207.66 260.981C214.898 267.894 219.334 275.383 217.362 277.358C216.352 278.369 214.536 278.388 209.043 277.446C201.191 276.099 199.903 276.435 203.432 278.911C207.453 281.731 211.891 289.725 211.891 294.147C211.891 297.765 212.148 298.133 214.676 298.133C216.209 298.133 219.714 299.58 222.465 301.347C227.797 304.773 231.77 311.147 231.77 316.275C231.77 319.192 233.6 319.978 235.638 317.938C236.269 317.306 239.305 316.386 242.386 315.894L247.987 315L242.756 315.394C239.879 315.611 236.532 316.097 235.318 316.474C233.38 317.075 233.027 316.631 232.421 312.839C231.536 307.296 224.934 299.94 218.706 297.559C214.9 296.103 214.071 295.266 213.519 292.313C213.157 290.381 211.34 286.539 209.48 283.775L206.101 278.75H212.396C218.193 278.75 218.719 278.557 219.037 276.309C219.228 274.954 218.205 272.087 216.736 269.865C213.743 265.335 203.899 255.177 202.503 255.177C201.997 255.177 204.318 257.789 207.66 260.981ZM166.991 261.087C164.64 263.761 162.717 266.877 162.717 268.011C162.717 269.742 163.292 270.007 166.294 269.656L169.871 269.238L167.2 273.801C164.008 279.256 164.925 281.217 169.865 279.492L172.987 278.402L174.102 284.743C176.876 300.509 184.19 299.815 186.34 283.583C186.896 279.396 187.423 278.25 188.59 278.698C193.707 280.663 195.151 280.563 195.151 278.24C195.151 276.97 194.177 274.562 192.987 272.887L190.823 269.845H193.972C195.703 269.845 197.416 269.365 197.778 268.778C198.576 267.485 195.06 261.57 191.832 258.775C190.453 257.58 190.869 258.46 192.845 260.916C194.688 263.209 196.197 265.972 196.197 267.057C196.197 268.745 195.668 268.931 192.535 268.342C188.076 267.504 187.927 268.459 191.642 274.08C193.165 276.384 194.15 278.53 193.831 278.849C193.513 279.167 191.752 278.652 189.919 277.703C188.086 276.753 186.392 276.17 186.156 276.407C185.92 276.643 185.237 279.625 184.639 283.032C183.261 290.882 181.589 295.175 180.098 294.69C178.112 294.044 176.338 289.202 175.641 282.527C174.927 275.693 174.715 275.475 170.608 277.349C166.659 279.151 166.253 277.74 169.364 273.032C170.887 270.727 172.133 268.555 172.133 268.204C172.133 267.852 170.25 267.884 167.948 268.273C165.646 268.663 163.763 268.573 163.763 268.074C163.763 266.846 166.647 262.612 169.873 259.106C171.331 257.522 172.241 256.225 171.894 256.225C171.548 256.225 169.341 258.412 166.991 261.087ZM104.126 308.035C104.126 317.468 99.3516 326.6 92.5896 330.102L89.7333 331.581L90.2648 319.834C90.5567 313.373 90.9051 307.955 91.039 307.794C91.3539 307.414 99.9228 305.73 102.295 305.582C103.571 305.501 104.126 306.244 104.126 308.035ZM249.361 316.659C250.115 316.962 251.018 316.924 251.365 316.577C251.713 316.229 251.096 315.981 249.993 316.026C248.774 316.077 248.526 316.325 249.361 316.659ZM63.7681 333.231C64.1678 337.264 64.7139 341.327 64.9807 342.259C65.4515 343.901 63.766 344.771 41.7903 354.246C38.5814 355.63 38.5604 355.616 36.3298 351.021L34.0918 346.407L47.8429 334.166C63.3057 320.402 62.499 320.449 63.7681 333.231ZM187.242 325.954C185.28 327.528 185.289 327.546 187.496 326.478C190.834 324.864 193.56 325.119 196.247 327.299C198.068 328.775 199.811 329.11 203.716 328.734C207.11 328.407 209.429 328.727 210.664 329.69C211.683 330.485 211.371 330.043 209.972 328.708C208.111 326.933 206.41 326.352 203.643 326.542C201.561 326.687 198.83 326.247 197.574 325.565C194.392 323.839 189.656 324.018 187.242 325.954ZM141.231 339.936C140.061 340.441 138.516 341.561 137.801 342.425C136.808 343.624 135.589 343.792 132.67 343.133C130.564 342.657 127.524 342.531 125.914 342.854C123.004 343.436 117.727 347.832 117.727 349.671C117.727 350.201 118.864 349.312 120.254 347.695C122.567 345.004 123.391 344.755 129.978 344.755C135.267 344.755 137.972 344.232 140.186 342.78C143.685 340.484 150.351 340.182 153.021 342.198C154.741 343.496 154.751 343.464 153.183 341.737C151.252 339.611 144.385 338.577 141.231 339.936ZM336.396 407.981C336.396 409.098 335.652 410.299 334.741 410.649C332.231 411.613 328.026 411.409 328.026 410.323C328.026 409.794 327.774 408.704 327.467 407.9C327.047 406.805 328.089 406.38 331.652 406.196C335.734 405.984 336.396 406.233 336.396 407.981ZM270.289 416.261C270.003 418.763 269.442 419.185 266.035 419.467C262.285 419.778 262.112 419.65 262.112 416.586C262.112 413.535 262.318 413.38 266.366 413.38C270.391 413.38 270.603 413.536 270.289 416.261Z" fill="black"/>
</g>
</svg>
