<svg width="880" height="244" viewBox="0 0 880 244" fill="none" xmlns="http://www.w3.org/2000/svg">
<path fill-rule="evenodd" clip-rule="evenodd" d="M681.615 6.75C681.882 10.463 682.453 15.75 682.883 18.5C683.556 22.798 683.683 22.072 683.783 13.332C683.898 3.305 683.434 0 681.907 0C681.479 0 681.348 3.037 681.615 6.75ZM746.773 11.5C745.521 13.542 739.786 35.191 740.348 35.752C740.668 36.073 742.506 35.852 744.432 35.261C746.357 34.67 747.933 34.325 747.933 34.494C747.933 34.663 745.194 39.572 741.847 45.402C738.5 51.233 735.917 56.473 736.109 57.047C736.3 57.62 739.767 52.423 743.814 45.497C747.861 38.57 750.935 32.667 750.646 32.379C750.358 32.09 748.416 32.325 746.332 32.9C744.248 33.475 742.467 33.845 742.376 33.723C742.284 33.6 743.508 29.003 745.097 23.506C747.662 14.628 748.49 8.697 746.773 11.5ZM806.455 22.125C799.51 35.013 799.515 35 800.668 35C801.698 35 813.966 13.972 813.966 12.206C813.966 9.224 812.031 11.78 806.455 22.125ZM619.906 19.191C619.982 21.704 623.629 38.093 624.251 38.715C624.596 39.059 625.954 38.331 627.269 37.095C628.585 35.86 629.88 35.221 630.149 35.675C630.417 36.129 631.829 40.438 633.288 45.25C634.746 50.063 636.424 54 637.015 54C637.606 54 637.833 53.331 637.519 52.513C637.205 51.695 635.741 47.082 634.267 42.263C631.08 31.849 630.24 30.679 628.155 33.75C627.314 34.987 626.289 36 625.876 36C625.463 36 624.318 32.156 623.331 27.457C622.345 22.758 621.162 18.682 620.703 18.398C620.243 18.114 619.885 18.471 619.906 19.191ZM550.379 31.25C551.539 35.08 558.035 47 558.96 47C560.276 47 560.171 46.703 555.611 37.515C551.657 29.545 548.839 26.171 550.379 31.25ZM690.868 47.542C689.98 48.612 689.269 48.766 688.544 48.042C687.009 46.507 682.923 46.775 682.279 48.453C681.83 49.622 681.348 49.673 679.809 48.712C678.32 47.783 677.457 47.793 675.91 48.759C674.816 49.442 672.806 50 671.443 50C667.47 50 666.681 52.907 667.026 66.275C667.255 75.139 667.013 78.459 666.114 78.759C663.502 79.629 665.218 88.453 668.789 92.5C669.76 93.6 671.072 96.327 671.707 98.56C672.341 100.793 673.994 103.684 675.379 104.984C679.168 108.542 678.534 109.727 672.144 111.042C665.295 112.451 653.265 116.733 646.57 120.145L641.755 122.598L636.047 119.77C628.683 116.122 620.711 114.027 614.137 114.012C608.08 113.998 607.03 112.921 604.444 104.068C602.364 96.945 602.441 93.959 604.951 84.438C607.648 74.205 606.564 67.703 601.406 63.176C591.828 54.771 572.789 58.062 565.438 69.393C563.286 72.709 562.838 74.573 562.838 80.2C562.838 85.578 562.524 87 561.337 87C558.073 87 560.305 97.787 563.757 98.689C564.941 98.998 565.883 100.418 566.269 102.474C567.202 107.444 572.14 113.613 576.279 114.978C578.241 115.626 579.847 116.706 579.847 117.378C579.847 118.051 577.708 119.639 575.094 120.906C559.722 128.361 545.358 139.011 536.913 149.217C524.13 164.664 517.648 187.772 522.357 201.11C525.311 209.482 533.112 214.937 542.185 214.978C546.399 214.997 546.954 215.232 546.368 216.75C545.043 220.177 544.443 243 545.677 243C546.42 243 546.846 240.774 546.874 236.75C546.921 230.067 548.333 216.164 549.036 215.461C549.27 215.228 552.848 214.39 556.987 213.598C567.356 211.615 578.404 207.79 591.045 201.806L601.741 196.743L606.3 199.621C608.808 201.205 610.86 202.848 610.861 203.272C610.862 203.697 612.776 206.128 615.115 208.674C619.654 213.616 627.611 217.974 632.124 217.99L634.875 218V231C634.875 239 635.26 244 635.875 244C636.491 244 636.876 239 636.876 231V218H640.196C647.71 218 658.754 213.369 673.236 204.146L681.081 199.149L685.742 201.147C705.252 209.507 730.028 215.894 746.08 216.7L757.734 217.285L758.447 229.142C759.43 245.506 761.306 244.87 760.815 228.34L760.439 215.68L764.666 214.265C773.479 211.315 782.673 200.122 784.598 190C785.792 183.722 786.965 183.694 801.198 189.599C814.59 195.154 831.73 200.989 834.739 201.015C838.677 201.05 838.873 201.967 837.942 216C837.373 224.562 837.4 229.822 838.014 230.435C838.634 231.055 838.979 230.812 838.979 229.754C838.979 223.025 841.372 202.376 842.213 201.857C842.787 201.502 844.961 200.939 847.044 200.606C851.293 199.927 856.35 196.135 858.47 192.037C864.905 179.598 856.339 153.044 840.443 136.154C830.197 125.268 821.06 119.308 803.598 112.119L800.733 110.94L803.398 108.471C807.338 104.821 809.106 99.654 809.081 91.857C809.069 88.075 809.713 83.129 810.513 80.865C811.311 78.601 811.965 75.628 811.965 74.259C811.965 71.826 811.908 71.808 809.436 73.427C808.044 74.338 806.498 74.831 805.999 74.523C805.501 74.215 804.393 71.559 803.539 68.62C801.725 62.385 795.611 56.031 789.476 54.007C780.16 50.934 765.799 56 757.215 65.386C750.876 72.319 749.71 76.368 748.972 94C748.477 105.852 747.971 109.368 746.205 113.25C745.016 115.862 743.531 118 742.906 118C742.281 118 738.002 116.671 733.396 115.046C728.79 113.421 721.397 111.522 716.968 110.825C711.927 110.033 708.913 109.096 708.913 108.324C708.913 107.644 709.985 105.509 711.296 103.578C712.608 101.647 713.99 98.416 714.368 96.397C714.748 94.379 715.938 91.536 717.016 90.081C719.661 86.503 720.575 80.495 718.798 78.355C717.741 77.083 717.499 73.731 717.764 64.049C718.055 53.421 717.857 51.195 716.519 50.085C715.643 49.358 714.024 49 712.921 49.288C711.818 49.576 710.641 49.368 710.305 48.825C709.969 48.282 708.646 48.101 707.364 48.423C706.082 48.744 704.724 48.506 704.344 47.893C703.941 47.241 702.264 47.005 700.299 47.324C698.453 47.623 696.683 47.448 696.365 46.934C695.468 45.482 692.287 45.834 690.868 47.542ZM849.072 60.373C847.416 62.778 843.823 67.368 841.085 70.574C838.348 73.78 836.302 76.715 836.538 77.097C836.773 77.478 838.833 77.371 841.114 76.858C843.396 76.346 845.706 76.074 846.247 76.255C846.788 76.435 842.864 80.093 837.527 84.383C832.191 88.674 828.053 92.413 828.333 92.692C828.991 93.351 851.986 75.794 851.986 74.633C851.986 74.149 849.509 73.958 846.483 74.208C843.456 74.459 840.98 74.517 840.98 74.337C840.98 74.157 843.118 71.348 845.733 68.095C851.428 61.005 854.473 56 853.091 56C852.536 56 850.727 57.968 849.072 60.373ZM709.195 65C709.439 65.275 709.897 67.522 710.213 69.993C710.771 74.344 710.736 74.419 709.1 72.36C705.371 67.664 699.917 67.122 696.325 71.09C694.09 73.558 690.382 73.522 687.175 71C683.902 68.427 679.861 68.455 676.531 71.073L673.895 73.145V69.631C673.895 66.319 674.139 66.061 678.147 65.129C682.364 64.148 708.344 64.04 709.195 65ZM680.398 76C677.467 81.783 675.104 82.83 677.405 77.327C679.146 73.162 680.729 71 682.038 71C682.53 71 681.793 73.25 680.398 76ZM803.55 73.498C804.593 77.649 796.317 84.374 793.274 81.849C791.407 80.3 775.947 79.356 775.947 80.79C775.947 82.466 787.155 90.885 790.306 91.577C793.639 92.309 796.192 90.347 796.449 86.858C796.54 85.624 797.205 84.418 797.926 84.177C798.728 83.91 798.956 84.196 798.511 84.914C798.112 85.56 798.282 86.686 798.89 87.417C799.497 88.148 799.713 89.479 799.369 90.373C799.006 91.319 799.248 92 799.946 92C800.606 92 801.371 91.145 801.644 90.099C801.918 89.054 803.227 87.991 804.553 87.738C806.879 87.293 806.963 87.483 806.963 93.171C806.963 99.747 805.163 105.039 802.218 107.119C800.644 108.232 800.125 110.214 799.553 117.319C798.464 130.839 798.191 131.099 791.513 124.947C783.598 117.655 778.948 110.792 778.948 106.401C778.948 100.86 777.48 96.421 774.458 92.832C770.994 88.718 771.483 86.4 775.727 86.814C779.422 87.174 779.819 86.097 776.947 83.5C774.393 81.19 774.378 79 776.916 79C778.191 79 778.696 78.507 778.349 77.604C777.967 76.608 779.625 75.623 784.134 74.167C792.308 71.529 793.614 71.255 798.689 71.116C802.413 71.014 802.998 71.3 803.55 73.498ZM701.909 72.443C701.909 73.614 697.598 80 696.808 80C695.445 80 695.713 78.829 697.896 75.25C699.563 72.517 701.909 70.876 701.909 72.443ZM590.27 74.607C591.141 74.941 591.853 76.27 591.853 77.562C591.853 79.507 591.21 80.007 588.101 80.476C586.038 80.788 580 82.078 574.683 83.344L565.018 85.644L564.416 82.635C563.687 78.988 564.007 78.665 570.342 76.672C577.709 74.353 587.079 73.383 590.27 74.607ZM705.161 78.986C702.519 83.771 700.909 85.249 700.909 82.886C700.909 80.815 705.27 74 706.596 74C707.492 74 707.034 75.591 705.161 78.986ZM693.905 78.577C693.905 81.197 694.687 82.936 696.83 85.077C698.438 86.685 700.443 88 701.285 88C704.468 88 707.874 85.6 709.474 82.23C711.702 77.537 712.88 79.523 712.9 88.007C712.918 95.644 711.702 100.51 709.052 103.41C707.816 104.762 706.99 107.46 706.711 111.052C706.254 116.929 703.805 121.368 696.53 129.5L692.953 133.5L690.93 131C684.083 122.541 681.598 117.916 681.142 112.783C680.763 108.537 680.022 106.813 677.366 104C673.833 100.259 672.461 96.165 671.449 86.334C670.704 79.115 672.026 77.368 674.418 82.407C676.66 87.13 680.59 88.451 685.284 86.06C688.751 84.293 688.802 84.297 689.101 86.374C689.267 87.532 690.108 88.614 690.971 88.778C692.295 89.03 692.468 88.105 692.092 82.788C691.847 79.33 691.142 76.169 690.524 75.765C689.87 75.337 690.34 75.024 691.654 75.015C693.572 75.002 693.905 75.53 693.905 78.577ZM504.809 77.781C504.809 78.211 507.397 81.03 510.562 84.046C525.715 98.488 526.247 98.738 525.908 91.25C525.777 88.363 525.902 86 526.185 86C526.469 86 529.937 89.938 533.893 94.75C540.332 102.581 544.549 106.669 542.281 102.88C539.567 98.346 525.533 82.059 524.754 82.54C524.239 82.858 523.818 85.39 523.818 88.167V93.216L514.933 85.108C506.298 77.23 504.809 76.152 504.809 77.781ZM684.9 78.05C684.9 78.627 684.152 80.539 683.239 82.3C681.237 86.154 680.151 84.218 681.92 79.949C683.11 77.079 684.9 75.938 684.9 78.05ZM807.911 81.183C806.959 84.499 804.962 87.305 804.962 85.325C804.962 82.076 806.384 78 807.518 78C808.511 78 808.605 78.765 807.911 81.183ZM717.882 82.309C717.862 83.514 717.203 85.625 716.417 87C715.02 89.443 714.986 89.395 714.951 84.917C714.932 82.396 715.204 80.046 715.555 79.694C716.654 78.596 717.919 80.019 717.882 82.309ZM669.858 86.372C669.823 90.455 669.806 90.473 668.392 88C667.606 86.625 666.946 84.207 666.926 82.628C666.896 80.186 667.116 79.942 668.392 81C669.296 81.75 669.879 83.886 669.858 86.372ZM802.548 83.745C801.456 84.837 800.707 83.1 801.491 81.293C802.235 79.58 802.289 79.581 802.704 81.328C802.943 82.334 802.873 83.421 802.548 83.745ZM593.004 85C594.209 88.458 596.308 88.89 597.856 86C598.445 84.9 599.639 84 600.51 84C601.867 84 602.002 85.036 601.456 91.25C600.892 97.673 601.157 99.458 603.777 106.9L606.735 115.299L604.169 118.66C601.544 122.101 591.554 130.069 586.759 132.547L584.083 133.931L582.876 125.715C581.301 114.992 580.992 114 579.23 114C575.954 114 571.956 110.858 570.037 106.777C567.082 100.494 566.488 98 567.945 98C568.626 98 570.007 97.255 571.013 96.345C572.731 94.792 572.843 94.819 572.843 96.786C572.843 99.192 574.325 100.439 575.973 99.421C576.745 98.944 576.587 98.435 575.473 97.812C574.542 97.291 573.844 95.636 573.844 93.95C573.844 92.328 573.394 91 572.843 91C572.293 91 571.843 90.1 571.843 89C571.843 85.665 573.454 86.756 574.708 90.94C576.172 95.823 578.633 96.758 583.618 94.323C586.999 92.672 587.381 92.077 587.67 88.016C588.127 81.586 591.206 79.845 593.004 85ZM788.315 84.5C787.706 86.086 785.952 86.581 785.952 85.167C785.952 84.109 787.046 83 788.088 83C788.529 83 788.631 83.675 788.315 84.5ZM578.768 87.146C577.427 89.652 576.425 88.899 577.327 86.061C577.692 84.911 578.409 84.23 578.921 84.546C579.482 84.892 579.421 85.928 578.768 87.146ZM584.849 84.966C584.849 86.616 581.522 93 580.662 93C579.425 93 579.675 91.429 581.533 87.534C583.13 84.188 584.849 82.856 584.849 84.966ZM792.941 85.25C792.918 87.085 791.168 89.546 790.417 88.796C789.543 87.922 790.856 84 792.022 84C792.535 84 792.949 84.563 792.941 85.25ZM564.282 90.25C563.438 92.994 563.016 93.511 562.247 92.742C561.384 91.88 562.797 88 563.974 88C564.549 88 564.68 88.956 564.282 90.25ZM568.092 93.042C567.15 95.439 566.144 96.704 565.606 96.166C564.456 95.017 567.446 87.638 568.737 88.436C569.287 88.776 569.021 90.677 568.092 93.042ZM699.908 91.955C699.908 92.48 698.22 93.212 696.156 93.583C691.093 94.492 688.524 95.93 691.904 95.964C696.17 96.006 701.909 93.993 701.909 92.453C701.909 91.654 701.459 91 700.909 91C700.358 91 699.908 91.43 699.908 91.955ZM787.953 95.883C787.953 96.991 788.881 98.015 790.204 98.37C793.548 99.265 795.153 99.126 794.456 98C794.116 97.45 792.965 97 791.896 97C790.828 97 789.954 96.325 789.954 95.5C789.954 94.675 789.504 94 788.954 94C788.403 94 787.953 94.848 787.953 95.883ZM584.849 98.319C584.849 99.044 583.386 100.365 581.598 101.255C579.067 102.513 578.796 102.886 580.374 102.936C582.965 103.018 586.85 100.323 586.85 98.443C586.85 97.649 586.4 97 585.85 97C585.3 97 584.849 97.593 584.849 98.319ZM723.92 114.181C733.143 116.357 747.978 122.871 755.518 128.057C767.04 135.98 776.767 148.591 780.966 161.052C784.33 171.03 784.91 170.543 769.694 170.52C762.402 170.509 752.947 170.876 748.683 171.335C741.348 172.125 740.929 172.064 740.929 170.197C740.929 167.768 736.646 152.896 734.433 147.642C731.525 140.739 731.699 144.589 734.728 154.159C737.951 164.345 739.388 171 738.368 171C738.01 171 736.349 169.85 734.678 168.445C721.135 157.055 694.969 154.403 660.888 160.965C655.661 161.972 651.226 162.646 651.033 162.465C650.381 161.848 653.093 154.522 655.585 150.171C656.948 147.791 657.822 145.601 657.525 145.306C656.533 144.313 651.064 154.077 649.903 158.917L648.752 163.711L643.064 164.974C636.68 166.392 622.382 171.425 613.46 175.397C610.211 176.843 607.35 177.822 607.101 177.573C605.952 176.425 610.19 160.751 613.421 154.204C619.446 141.992 632.556 129.65 647.381 122.232C654.73 118.555 668.935 113.491 674.521 112.557C678.613 111.872 678.655 111.896 679.297 115.313C680.032 119.231 686.298 129.291 690.276 132.938L692.935 135.377L696.991 131.438C702.406 126.18 708.913 116.342 708.913 113.411C708.913 110.699 709.23 110.715 723.92 114.181ZM780.391 114.917C784.443 120.76 795.501 131 797.76 131C799.846 131 800.21 129.873 801.554 119.25C801.919 116.363 802.72 114 803.332 114C805.797 114 822.898 123.311 829.338 128.16C833.116 131.004 838.644 136.284 841.622 139.894C846.894 146.281 855.98 162.341 854.921 163.399C854.631 163.689 852.205 163.268 849.528 162.463C846.853 161.658 843.006 161 840.979 161C837.567 161 837.209 160.714 836.133 157.123C834.954 153.19 826.082 138.804 824.069 137.561C822.343 136.494 822.784 138.493 824.858 141.128C827.498 144.482 832.608 153.266 833.435 155.87C834.074 157.882 833.654 157.785 827.788 154.563C812.614 146.225 799.888 144.612 780.398 148.553C777.804 149.078 777.173 148.79 776.19 146.634C774.244 142.366 760.946 129.127 754.79 125.329C751.591 123.356 749.251 121.294 749.59 120.746C751.236 118.085 766.56 112.7 777.061 111.094C777.4 111.042 778.897 112.762 780.391 114.917ZM622.869 117.071C627.771 118.108 638.877 122.95 638.877 124.051C638.877 124.427 637.028 125.957 634.768 127.452C628.411 131.657 618.715 142.13 614.483 149.363C610.782 155.688 610.547 155.884 607.506 155.205C605.775 154.818 597.156 154.515 588.351 154.531C574.599 154.557 571.433 154.868 565.883 156.74C562.33 157.939 559.26 158.757 559.062 158.559C558.864 158.361 559.968 155.792 561.515 152.849C565.198 145.845 565.138 146 564.164 146C563.701 146 561.525 149.488 559.328 153.75C557.131 158.012 554.684 161.909 553.89 162.408C553.095 162.908 550.619 164.985 548.387 167.024C545.467 169.691 543.063 170.917 539.819 171.391C537.339 171.753 532.901 173.166 529.955 174.53L524.6 177.01L525.285 174.255C526.532 169.245 531.775 159.261 536.365 153.158C544.482 142.366 558.706 131.089 573.732 123.537C579.878 120.447 580.282 120.684 581.247 127.952C582.385 136.53 583.198 136.704 592.615 130.388C597.162 127.338 602.772 122.65 605.082 119.97C609.171 115.225 609.402 115.109 613.824 115.608C616.322 115.889 620.393 116.548 622.869 117.071ZM872.496 119.616C862.765 125.355 858.77 128.114 859.351 128.695C860.043 129.386 880 117.898 880 116.808C880 115.459 878.754 115.925 872.496 119.616ZM500.008 134.189C500.538 135.889 517.334 144.332 519.026 143.748C519.735 143.503 515.655 140.957 509.957 138.09C504.26 135.223 499.783 133.468 500.008 134.189ZM813.215 150.568C819.213 152.018 825.43 154.821 830.381 158.31L833.288 160.358L825.378 162.488C821.028 163.66 814.907 165.848 811.777 167.352C805.386 170.423 791.633 179.133 788.203 182.282L785.952 184.349L785.937 178.424C785.92 171.606 783.976 162.557 781.075 155.791L779.062 151.099L781.076 150.46C788.648 148.058 803.03 148.106 813.215 150.568ZM609.341 157.146C609.583 157.388 608.899 160.422 607.819 163.888C604.975 173.022 604.403 182.198 606.163 190.5C606.98 194.35 607.581 197.577 607.5 197.671C607.418 197.765 602.401 194.47 596.35 190.348C578.912 178.468 561.338 171 550.822 171H547.438L550.71 167.626C552.509 165.77 556.463 162.997 559.495 161.464C568.783 156.767 573.682 156.003 592.123 156.371C601.351 156.555 609.099 156.904 609.341 157.146ZM716.336 161.488C723.231 163.321 732.835 168.211 735.86 171.429L737.969 173.673L732.196 174.956C717.669 178.186 699.314 186.49 676.896 199.975C658.897 210.802 653.767 213.306 644.947 215.562C625.622 220.507 609.795 208.208 607.318 186.321L606.644 180.368L614.006 177.283C634.043 168.885 655.415 163.015 675.043 160.518C688.61 158.793 707.898 159.246 716.336 161.488ZM853.2 165.488C856.418 167.088 857.02 167.95 857.696 171.918C859.044 179.853 858.494 188.335 856.4 191.89C852.222 198.984 843.428 201.339 831.475 198.564C825.754 197.236 792.634 184.762 790.994 183.318C789.259 181.79 810.279 169.211 820.405 165.719C827.641 163.222 829.557 162.972 838.979 163.288C846.633 163.544 850.493 164.142 853.2 165.488ZM778.811 172.661L784.176 173.305L783.752 182.403C782.909 200.477 774.193 210.971 757.057 214.542C748.089 216.411 736.381 215.266 720.008 210.919C706.99 207.462 683.9 199.198 683.9 197.996C683.9 196.717 711.558 183.414 721.038 180.133C728.873 177.422 744.86 173.625 752.435 172.676C757.768 172.008 773.295 171.999 778.811 172.661ZM560.357 174.547C570.719 177.245 588.705 186.403 597.353 193.385L600.352 195.806L594.351 198.502C571.865 208.605 556.34 213.247 544.792 213.32C535.482 213.38 530.566 211.234 526.442 205.311C524.033 201.852 523.442 199.821 523.045 193.642C522.352 182.845 523.221 179.363 527.115 177.334C535.752 172.834 549.387 171.691 560.357 174.547Z" fill="black"/>
<line x1="0.5" y1="242.5" x2="545.5" y2="242.5" stroke="black" stroke-linecap="round"/>
</svg>
