<svg width="322" height="356" viewBox="0 0 322 356" fill="none" xmlns="http://www.w3.org/2000/svg">
<path fill-rule="evenodd" clip-rule="evenodd" d="M66.5844 6.20822V12.9628L62.643 10.0572C57.3504 6.15529 56.5819 7.40014 61.6709 11.6319L65.716 14.9959L62.6789 18.1369C58.9119 22.0322 59.8906 23.6003 63.7651 19.8789L66.5844 17.1718V22.0747C66.5844 24.7714 67.0088 26.9776 67.5274 26.9776C68.046 26.9776 68.4703 25.0323 68.4703 22.6551V18.3335L70.9718 20.3052C74.4663 23.0615 75.0085 21.8582 71.7894 18.4904L69.1181 15.6954L73.0368 11.4325C75.1933 9.08831 76.9566 6.9332 76.9566 6.64302C76.9566 5.74979 73.7327 7.79052 71.8497 9.87567C69.0766 12.9476 68.4703 12.2954 68.4703 6.23847C68.4703 3.14948 68.046 0.360138 67.5274 0.0387628C66.9324 -0.329873 66.5844 1.94622 66.5844 6.20822ZM244.797 34.0733C233.495 36.8353 224.146 42.4007 219.608 49.0693C218.163 51.1932 214.534 55.3484 211.544 58.3022C200.483 69.2299 196.848 85.2561 201.965 100.535C203.375 104.747 204.183 108.845 203.891 110.31C203.103 114.253 205.035 124.084 207.589 129.136C208.865 131.66 209.908 133.897 209.908 134.109C209.908 134.32 207.767 134.699 205.15 134.95C201.829 135.271 199.621 136.119 197.842 137.762C196.118 139.353 194.163 140.131 191.801 140.165C187.07 140.232 180.698 143.932 177.926 148.219C176.673 150.16 175.09 151.747 174.41 151.747C173.73 151.747 171.455 152.436 169.355 153.278C165.486 154.83 160.877 160.863 160.877 164.378C160.877 165.254 159.922 166.373 158.755 166.864C153.822 168.938 148.619 175.617 148.619 179.875C148.619 180.882 146.802 182.913 144.354 184.643C139.79 187.868 138.246 190.648 138.246 195.647C138.246 198.212 137.751 198.984 135.511 199.914C131.991 201.376 129.268 204.313 127.499 208.554L126.092 211.933L120.619 211.505C117.485 211.262 113.812 210.27 112.027 209.187C109.966 207.936 107.566 207.369 104.955 207.518C98.987 207.857 96.013 207.688 88.2716 206.568C84.3821 206.004 79.5967 205.409 77.6374 205.243C75.6789 205.077 73.8044 204.671 73.4734 204.338C73.1415 204.006 72.093 203.734 71.1416 203.734C68.7041 203.734 68.9955 202.161 71.7705 200.339C73.067 199.487 74.1278 197.925 74.1278 196.868C74.1278 194.086 52.8263 154.514 49.9381 151.932C48.0447 150.239 46.8472 149.888 44.5503 150.356C40.705 151.14 25.3957 158.518 21.9258 161.26C17.8005 164.52 18.7453 169.242 25.8314 180.77C30.3169 188.067 31.2409 190.188 30.1952 190.784C28.184 191.929 28.5979 194.482 31.2626 197.363C33.5313 199.816 33.5567 199.953 31.7341 199.953C29.0713 199.953 29.2212 203.26 32.0047 205.903C36.493 210.166 46.5379 216.849 49.6722 217.658C52.1785 218.304 52.9771 219.045 53.1997 220.926C53.3581 222.265 54.7366 224.762 56.2642 226.478C57.7917 228.192 59.0411 230.355 59.0411 231.282C59.0411 233.353 64.1611 239.354 66.5873 240.126C67.5622 240.436 69.8837 242.817 71.7479 245.417C73.9864 248.541 76.4842 250.731 79.1102 251.874C81.2968 252.825 84.1463 254.759 85.4429 256.172C88.0152 258.974 93.9244 262.338 96.278 262.338C97.0917 262.338 99.1105 263.881 100.763 265.767C103.953 269.411 110.446 272.735 114.371 272.735C115.674 272.735 117.943 273.594 119.416 274.645C123.166 277.322 129.331 279.352 133.714 279.352C136.98 279.352 137.366 279.58 136.895 281.242C136.601 282.282 136.144 283.907 135.879 284.854C135.615 285.8 135.767 289.28 136.218 292.586C136.905 297.622 136.768 299.07 135.376 301.499C132.86 305.892 132.265 310.258 133.553 314.873C134.535 318.389 134.479 319.496 133.177 322.246C131.361 326.081 131.268 328.438 132.737 333.353C133.675 336.49 133.597 337.261 132.186 338.825C130 341.246 129.275 347.322 130.667 351.55C132.519 357.177 134.047 355.818 133.688 348.864C133.462 344.455 133.783 342.17 134.841 340.655C135.994 339.004 136.182 337.074 135.723 331.631C135.228 325.752 135.397 324.422 136.842 322.821C138.315 321.189 138.397 320.447 137.452 317.284C135.819 311.821 136.131 306.68 138.312 303.094C140.01 300.302 140.161 299.105 139.507 293.641C138.592 285.995 138.826 283.784 141.012 279.432C142.26 276.948 142.709 273.899 142.697 268.009C142.684 261.63 143.098 259.154 144.706 255.995C145.821 253.806 146.743 250.403 146.755 248.433C146.791 242.974 148.394 237.136 150.99 233.014C152.285 230.957 153.333 227.871 153.333 226.116C153.333 221.395 155.669 214.486 158.539 210.713C159.934 208.88 161.667 204.837 162.39 201.729C163.113 198.621 164.342 194.844 165.12 193.336C167.033 189.627 166.898 188.933 164.659 190.964C163.627 191.9 161.831 195.687 160.666 199.381C159.502 203.075 157.371 207.761 155.932 209.796C153.171 213.698 150.513 221.33 150.492 225.41C150.486 226.744 149.213 230.343 147.663 233.405C146.114 236.468 144.84 239.871 144.833 240.967C144.811 243.892 143.912 244.768 139.057 246.592C129.423 250.212 120.025 258.927 117.507 266.578C116.651 269.176 115.91 269.899 114.098 269.899C110.294 269.899 105.749 267.509 102.816 263.964C100.977 261.74 98.6871 260.263 95.9395 259.526C93.4907 258.87 90.05 256.812 87.4532 254.447C85.0506 252.26 81.508 249.751 79.5807 248.872C77.5648 247.953 75.0858 245.704 73.7469 243.578C72.4673 241.545 69.9073 238.944 68.0582 237.799C64.0423 235.311 61.8698 232.428 61.8698 229.586C61.8698 228.439 60.876 226.718 59.6624 225.761C57.7398 224.245 55.2694 220.734 55.2694 219.518C55.2694 219.293 56.9431 217.998 58.9892 216.641C61.0344 215.284 63.833 212.25 65.2078 209.899C67.897 205.298 68.4448 205.029 71.597 206.747C72.7295 207.365 75.0566 207.756 76.768 207.616C78.4794 207.476 80.3888 207.782 81.0111 208.296C82.6584 209.658 97.1087 210.826 104.798 210.22C107.556 210.003 109.402 210.497 111.544 212.026C113.713 213.575 115.832 214.131 119.555 214.131C123.814 214.131 125.173 214.592 128.131 217.036C131.816 220.08 132.687 219.439 130.147 215.552C127.397 211.346 130.961 204.882 137.775 201.721C140.254 200.57 140.664 199.81 141.089 195.582C141.63 190.21 142.644 188.6 147.312 185.708C149.215 184.529 150.721 182.707 151.035 181.206C152.182 175.726 154.264 172.629 158.457 170.165C161.878 168.156 162.938 166.891 163.755 163.848C165.051 159.025 168.644 155.665 173.307 154.918C176.208 154.453 177.471 153.554 179.521 150.493C182.634 145.848 187.325 142.934 192.063 142.704C194.134 142.604 196.874 141.559 198.736 140.16C202.764 137.134 205.469 136.326 208.986 137.101C211.441 137.64 211.794 138.13 211.794 140.983C211.794 150.683 219.781 157.927 234.424 161.508C251.287 165.631 271.07 165.957 280.628 162.269C286.958 159.826 294.586 154.163 297.129 150.018C298.917 147.105 299.258 146.965 303.687 147.334C307.632 147.664 308.805 148.247 311.23 151.077C312.81 152.921 316.137 155.37 318.625 156.521C321.866 158.02 323.656 159.611 324.939 162.134C326.009 164.236 327.899 166.14 329.629 166.858C332.716 168.14 337.203 172.852 337.203 174.812C337.203 175.461 338.23 176.96 339.485 178.141C343.339 181.772 344.092 184.777 342.599 190.591C341.336 195.513 341.375 195.857 343.678 200.036L346.068 204.372L343.906 209.961C342.717 213.034 341.856 216.4 341.993 217.44C342.99 224.998 342.307 229.992 339.749 233.867C338.093 236.373 337.32 238.533 337.676 239.657C338.552 242.426 336.558 248.457 333.097 253.507C330.971 256.609 329.742 259.732 329.286 263.194C328.445 269.573 326.708 273.086 321.951 278.034C318.838 281.271 318.097 282.81 317.487 287.319C316.925 291.467 316.107 293.374 313.964 295.522L311.171 298.321L305.959 295.93C298.734 292.614 293.517 292.07 286.412 293.896C279.74 295.609 273.637 299.439 269.432 304.553C265.305 309.572 261.004 318.077 260.272 322.666C259.773 325.795 259.162 326.758 257.397 327.202C253.577 328.163 249.039 326.725 245.026 323.282C242.909 321.466 239.764 319.71 238.037 319.38C233.485 318.512 230.211 316.65 228.422 313.912C227.559 312.592 224.845 310.55 222.392 309.374C219.287 307.886 217.304 306.101 215.869 303.504C214.491 301.01 212.355 299.033 209.432 297.543C205.977 295.783 204.609 294.342 202.917 290.68C200.144 284.681 198.948 283.306 195.099 281.694C192.918 280.781 191.464 279.258 190.451 276.829C189.64 274.883 186.428 270.829 183.311 267.82L177.645 262.348L180.476 259.115C182.033 257.337 183.774 254.464 184.346 252.73C185.351 249.677 185.542 249.579 190.339 249.633C193.064 249.664 196.599 250.381 198.196 251.227C200.567 252.485 201.825 252.582 205.06 251.759C208.26 250.945 209.331 251.018 210.643 252.147C213.226 254.369 215.178 254.73 218.95 253.687C221.916 252.865 223.015 253.015 225.877 254.627C228.422 256.061 230.278 256.41 233.246 256.011C236.051 255.634 237.9 255.929 239.558 257.017C240.847 257.864 243.295 258.559 244.999 258.56C246.703 258.562 249.509 259.427 251.237 260.483C254.133 262.253 254.352 262.271 254.065 260.716C253.894 259.788 252.164 258.249 250.218 257.298C246.135 255.297 245.456 252.03 248.568 249.358C249.966 248.158 250.454 246.569 250.454 243.223C250.454 238.695 251.595 236.74 255.581 234.44C256.8 233.737 257.331 231.998 257.574 227.911C257.867 222.967 258.3 221.935 261.417 218.735C264.464 215.607 265.026 214.317 265.666 208.987C266.592 201.276 268.329 198.607 274.163 195.932C278.168 194.094 278.921 193.3 279.754 190.028C281.981 181.276 285.527 176.805 291.132 175.682C294.694 174.967 294.591 173.487 290.979 173.487C286.33 173.487 279.965 180.069 278.095 186.809C276.897 191.127 276.12 192.371 274.339 192.819C273.104 193.13 270.416 194.905 268.365 196.762C264.474 200.285 262.726 204.509 262.718 210.41C262.713 212.954 261.993 214.456 259.767 216.554C256.23 219.889 254.226 224.26 254.226 228.643C254.226 231.073 253.622 232.269 251.789 233.473C248.828 235.419 246.689 240.206 247.315 243.491C247.606 245.01 247.222 246.373 246.286 247.151C245.397 247.891 244.797 249.868 244.797 252.055C244.797 256.188 243.452 256.739 239.579 254.195C237.86 253.067 236.164 252.834 233.056 253.301C229.895 253.777 228.255 253.538 226.425 252.336C224.584 251.127 222.833 250.877 219.223 251.305C215.692 251.724 213.854 251.479 212.153 250.361C210.445 249.24 208.586 248.994 204.931 249.408C201.38 249.811 199.498 249.582 198.178 248.589C197.095 247.776 194.206 247.208 191.106 247.2C188.222 247.191 185.268 246.807 184.539 246.344C183.672 245.793 182.996 242.784 182.578 237.615C182.228 233.277 181.252 228.402 180.408 226.783C178.686 223.474 173.79 220.748 169.571 220.748C165.972 220.748 164.032 222.839 166.063 224.529C167.156 225.439 167.244 226.033 166.43 227.017C165.226 228.471 166.8 231.145 168.86 231.145C169.495 231.145 170.757 231.969 171.666 232.976C173.096 234.56 173.167 235.274 172.184 238.256L171.049 241.704L168.504 239.261C165.994 236.85 162.414 236.032 161.421 237.644C161.141 238.098 162.213 240.273 163.804 242.476C165.396 244.677 167.315 248.56 168.068 251.103C168.901 253.915 170.328 256.312 171.712 257.22C172.963 258.042 175.25 260.958 176.794 263.702C178.339 266.445 181.329 270.061 183.441 271.737C185.551 273.413 187.278 275.504 187.278 276.385C187.278 278.972 189.96 282.074 193.967 284.123C196.892 285.618 198.199 287.159 199.991 291.219C201.6 294.867 203.187 296.888 205.347 298.039C208.547 299.745 211.362 302.435 215.894 308.12C217.372 309.973 219.201 311.489 219.958 311.489C220.716 311.489 223.636 313.669 226.446 316.333C230.427 320.108 232.54 321.362 236.01 322.012C238.559 322.489 241.494 323.833 242.866 325.152C246.185 328.338 251.918 330.568 256.024 330.271C258.152 330.117 261.222 330.875 264.066 332.255C268.197 334.259 269.085 334.375 272.775 333.385C275.034 332.779 278.855 332.284 281.265 332.284C286.283 332.284 293.336 328.71 294.295 325.682C294.621 324.655 296.77 322.979 299.072 321.958C301.375 320.937 303.258 319.654 303.258 319.107C303.258 318.559 304.725 316.483 306.518 314.493C310.008 310.62 311.744 306.993 311.744 303.571C311.744 302.31 312.887 300.6 314.557 299.362C318.182 296.676 319.967 293.137 320.774 287.036C321.288 283.152 321.971 281.747 324.069 280.249C327.512 277.791 331.44 269.657 332.171 263.469C332.489 260.775 333.396 258.036 334.186 257.383C335.461 256.328 335.559 257.105 335.059 264.269C334.734 268.903 333.626 274.668 332.458 277.798C330.791 282.265 330.532 284.393 331.026 289.571C331.466 294.191 331.197 297.42 330.025 301.564C328.642 306.457 328.215 311.555 327.691 329.448C327.477 336.737 329.243 355.946 330.131 355.999C332.119 356.117 332.851 349.231 331.83 340.028C330.453 327.623 331.008 309.592 332.982 302.509C334.133 298.385 334.397 295.127 333.951 290.567C333.447 285.413 333.715 283.221 335.452 278.279C337.075 273.657 337.608 269.853 337.754 261.865C337.887 254.593 338.419 250.366 339.522 247.805C340.389 245.79 340.987 242.812 340.851 241.188C340.693 239.3 341.559 236.603 343.254 233.713C345.634 229.653 345.859 228.546 345.451 222.843C345.119 218.189 345.471 215.04 346.773 211.046C348.699 205.131 348.408 202.015 345.545 197.907C344.151 195.907 343.985 194.871 344.739 192.883C345.262 191.505 345.689 188.532 345.689 186.276C345.689 182.971 345.047 181.402 342.389 178.213C340.574 176.035 339.089 173.705 339.089 173.035C339.089 171.482 332.386 165.375 329.766 164.541C328.672 164.193 327.529 162.914 327.225 161.698C326.499 158.801 323.426 155.979 318.956 154.108C316.972 153.277 313.797 150.969 311.897 148.977C309.381 146.34 307.35 145.175 304.416 144.685C301.279 144.16 300.077 143.409 298.984 141.291C298.212 139.794 296.715 138.105 295.657 137.538C293.836 136.561 294.013 136.203 298.992 130.812C301.885 127.68 305.3 123.043 306.582 120.507C307.864 117.971 309.763 115.44 310.801 114.883C317.089 111.511 320.55 92.7006 316.638 83.169C315.582 80.5961 314.214 76.1527 313.6 73.2934C309.424 53.887 294.938 39.3524 274.536 34.097C267.651 32.3228 252.011 32.3105 244.797 34.0733ZM270.693 35.9468C286.717 38.8079 299.594 48.0503 306.074 61.3382C309.005 67.3489 312.298 77.0743 311.402 77.0743C311.323 77.0743 309.84 76.6659 308.105 76.1668C305.798 75.5042 303.899 75.629 301.039 76.6338C297.294 77.9495 297.069 77.9193 295.714 75.9107C288.926 65.846 278.952 56.9004 268.792 51.7641C259.488 47.0607 252.941 45.5058 242.439 45.5058C234.399 45.5048 232.123 45.8725 226.988 47.9993L220.965 50.4928L224.159 47.1816C230.641 40.4611 246.326 34.8134 258.94 34.6575C261.274 34.6291 266.563 35.2085 270.693 35.9468ZM153.805 49.9162L152.862 56.3134L149.322 53.7802C147.375 52.386 145.491 51.5372 145.135 51.8936C144.78 52.2499 145.313 53.1214 146.318 53.8284C147.324 54.5364 149.208 55.9958 150.504 57.0715L152.862 59.0272L148.716 62.8704C143.765 67.4585 144.179 69.0909 149.233 64.914C153.191 61.6445 154.237 62.17 154.262 67.4415C154.271 69.4624 154.641 70.3433 155.308 69.9303C155.875 69.5787 156.182 67.641 155.989 65.621C155.798 63.602 155.808 61.9507 156.013 61.9507C156.217 61.9507 157.835 63.2268 159.606 64.7864C164.616 69.1958 165.531 68.1221 160.844 63.3345L156.646 59.047L161.254 54.8058C166.893 49.6146 166.308 48.072 160.506 52.8378C158.202 54.7302 156.088 56.2794 155.81 56.2794C155.533 56.2794 155.179 53.4088 155.027 49.8992L154.748 43.5189L153.805 49.9162ZM263.994 52.3416L268.211 54.2122L264.109 62.4054C259.942 70.729 256.741 82.1614 255.569 92.9067C255.215 96.1564 254.685 98.8143 254.392 98.8143C254.098 98.8143 252.682 97.6848 251.245 96.3048L248.632 93.7962L247.657 96.3672C246.167 100.298 246.504 108.878 248.477 117.138L250.256 124.591L242.705 124.073C238.552 123.788 234.754 123.154 234.267 122.665C233.779 122.175 232.909 117.742 232.333 112.812C231.456 105.296 231.548 102.145 232.902 93.3065C234.57 82.4138 235.981 77.0743 237.194 77.0743C237.579 77.0743 238.377 78.1376 238.967 79.4373C239.559 80.737 240.387 81.8004 240.808 81.8004C241.229 81.8004 243.374 76.5071 245.573 70.0371C247.772 63.568 250.448 56.2879 251.519 53.8596C253.376 49.6506 253.614 49.4691 256.621 49.9587C258.356 50.2404 261.673 51.3132 263.994 52.3416ZM304.885 80.6321C301.025 84.6719 299.211 90.6769 299.108 99.7596C299.039 105.875 299.428 108.548 300.735 110.954C302.749 114.657 302.484 115.199 299.072 114.341C294.782 113.261 293.353 109.841 293.39 100.746C293.445 87.3242 298.165 78.0195 304.921 78.0195H307.382L304.885 80.6321ZM314.121 84.3383C316.448 89.2544 315.759 101.567 312.821 107.574C309.068 115.248 305.364 115.637 302.698 108.638C299.551 100.379 302.519 85.3572 308.068 81.462C310.723 79.597 312.212 80.305 314.121 84.3383ZM53.0865 99.6499C52.7603 109.427 52.2237 118.131 51.8947 118.991C51.5656 119.851 51.7165 120.554 52.2294 120.554C53.7749 120.554 54.3349 116.149 54.9497 99.1886C55.3194 88.9576 55.1939 82.8108 54.6065 82.4469C54.0191 82.083 53.4618 88.381 53.0865 99.6499ZM0.23106 100.941C0.619544 101.591 3.97257 107.014 7.68202 112.993C11.3924 118.971 15.6063 125.902 17.0471 128.395C18.4888 130.889 19.8551 132.739 20.0852 132.51C21.4128 131.179 2.60439 99.7596 0.479992 99.7596C-0.0452156 99.7596 -0.15648 100.292 0.23106 100.941ZM291.943 109.813C291.943 110.602 293.183 112.491 294.699 114.011C296.844 116.161 298.307 116.774 301.299 116.774C303.413 116.774 305.144 117.055 305.144 117.399C305.144 119.109 298.861 127.49 294.431 131.689C284.38 141.218 274.074 144.458 253.754 144.479C234.28 144.499 220.999 140.979 213.975 133.938C210.423 130.377 207.539 123.146 206.571 115.377L205.87 109.761L210.205 113.586C230.889 131.837 266.549 131.366 285.649 112.591C290.552 107.77 291.943 107.157 291.943 109.813ZM97.6348 117.406C88.5507 124.948 72.787 141.398 75.6789 140.318C77.2875 139.717 103.687 113.938 102.694 113.938C102.209 113.938 99.9318 115.498 97.6348 117.406ZM220.232 143.171C225.167 150.119 238.362 153.914 257.997 154.032C270.121 154.106 270.984 153.983 276.125 151.453C279.093 149.991 282.488 147.513 283.669 145.945C289.576 138.097 293.438 136.541 296.268 140.87C298.524 144.322 297.374 147.12 291.476 152.524C283.131 160.169 270.737 163.79 257.056 162.582C231.627 160.337 216.581 153.809 214.276 144.023C212.861 138.011 216.224 137.53 220.232 143.171ZM233.482 145.801C237.868 146.927 243.766 147.384 254.226 147.407C268.189 147.438 273.095 146.757 281.099 143.675C282.595 143.098 282.421 143.555 280.256 145.887C276.164 150.295 270.713 151.747 258.262 151.747C246.205 151.747 235.459 149.892 228.06 146.536C223.041 144.258 221.351 142.519 225.231 143.623C226.398 143.955 230.111 144.935 233.482 145.801ZM49.2045 155.835C52.9621 160.555 71.465 195.319 70.9445 196.68C69.862 199.509 54.2378 209.405 50.8556 209.405C49.3554 209.405 47.6911 208.029 45.4536 204.938C41.3754 199.305 23.6033 168.968 22.8112 166.286C21.9409 163.344 26.3462 160.538 29.3258 162.138C31.0495 163.062 32.0292 162.971 34.6326 161.649C39.0492 159.404 41.1256 157.422 41.1256 155.45C41.1256 153.924 42.5154 153.096 45.5639 152.802C46.19 152.741 47.8288 154.106 49.2045 155.835ZM35.468 166.752C35.468 167.727 35.7396 169.885 36.0715 171.547C36.6024 174.212 36.956 174.5 39.0408 173.975C40.9351 173.499 42.1345 174.091 45.0387 176.933C49.1621 180.97 49.5015 181.994 46.7143 181.994C43.7789 181.994 44.6851 183.868 51.4741 191.839C57.621 199.055 59.5634 200.262 60.6139 197.517C60.9901 196.534 59.6172 194.431 56.5782 191.338C52.8018 187.495 52.2256 186.488 53.3845 185.754C54.1614 185.261 55.3288 184.852 55.9766 184.844C58.1689 184.817 57.1741 183.463 50.4086 177.259C44.2702 171.629 43.761 170.888 44.7596 169.019C45.7695 167.127 45.5743 166.885 42.3127 165.977C37.1295 164.534 35.468 164.722 35.468 166.752ZM82.0512 170.504C82.3218 170.942 87.9689 171.578 94.6005 171.918C101.233 172.257 109.841 172.759 113.731 173.034C123.984 173.757 119.174 172.056 107.309 170.762C95.8933 169.517 81.3515 169.368 82.0512 170.504ZM192.366 171.057C190.757 171.759 188.506 173.648 187.365 175.255C183.89 180.147 176.887 195.785 175.762 201.169C174.782 205.851 174.876 206.564 176.984 210.395C178.374 212.921 180.744 215.389 183.038 216.699C190.66 221.052 224.967 231.293 236.465 232.648C241.592 233.251 241.747 233.199 244.088 230.078C247.068 226.108 254.689 210.9 257.655 203.003C260.369 195.782 260.429 193.388 258.016 188.648C255.711 184.118 252.864 182.96 229.238 176.943C216.213 173.625 196.412 169.411 195.405 169.743C195.344 169.764 193.976 170.354 192.366 171.057ZM209.558 174.355C225.916 177.735 247.899 183.477 252.072 185.462C257.132 187.869 256.467 191.276 247.39 209.437L239.611 225.001L236.174 225.289C232.22 225.619 217.605 222.187 200.231 216.849C183.696 211.768 178.063 209.17 177.342 206.292C175.594 199.306 189.651 171.584 194.933 171.6C195.65 171.602 202.231 172.842 209.558 174.355ZM191.92 186.647C189.713 188.861 189.168 190.224 189.185 193.5C189.215 199.352 191.697 202.273 196.638 202.273C201.862 202.273 205.223 198.919 205.883 193.047C206.3 189.342 206.033 188.42 203.937 186.319C200.476 182.849 195.576 182.982 191.92 186.647ZM202.365 186.72C203.608 187.966 204.251 189.87 204.251 192.307C204.251 195.275 203.679 196.487 201.35 198.451C197.868 201.388 195.469 201.547 192.936 199.008C190.037 196.102 190.428 190.979 193.806 187.592C197.031 184.361 199.736 184.085 202.365 186.72ZM292.266 188.858C286.554 195.38 269.672 231.723 269.094 238.742C268.85 241.703 269.034 241.875 274.413 243.695C279.484 245.411 293.528 252.335 308.638 260.567C314.412 263.713 314.51 263.73 315.894 261.865C319.432 257.099 331.2 226.893 334.462 214.206C336.015 208.167 336.086 206.918 334.97 205.226C332.267 201.123 305.564 186.977 298.808 186.069C295.52 185.626 294.844 185.915 292.266 188.858ZM307.972 191.732C311.862 193.437 319.181 197.273 324.238 200.258C335.26 206.766 335.09 206.065 329.654 222.541C326.434 232.301 315.495 258.892 314.143 260.248C313.9 260.491 309.55 258.315 304.473 255.413C292.924 248.811 278.079 241.74 274.091 240.942C271.418 240.406 271.13 240.053 271.654 237.96C273.637 230.042 286.597 201.629 292.507 192.244C295.439 187.588 298.299 187.493 307.972 191.732ZM217.452 190.281C217.452 191.049 234.913 197.117 237.121 197.117C240.028 197.117 236.632 195.182 229.936 193.022C220.657 190.028 217.452 189.325 217.452 190.281ZM34.4421 194.518C35.1654 195.688 36.4251 197.675 37.2417 198.934L38.7268 201.224L36.2195 199.578C33.9565 198.091 30.7534 194.177 30.7534 192.897C30.7534 191.531 33.2842 192.644 34.4421 194.518ZM299.595 194.045C299.535 194.696 298.728 195.227 297.802 195.227C296.797 195.227 296.119 195.926 296.119 196.964C296.119 199.745 297.786 200.648 300.429 199.296C301.725 198.632 302.416 198.084 301.964 198.077C301.511 198.069 301.724 197.345 302.435 196.468C303.563 195.078 303.525 194.949 302.138 195.47C301.097 195.861 300.402 195.514 300.126 194.466C299.894 193.585 299.656 193.396 299.595 194.045ZM216.121 196.036C215.694 196.729 229.453 200.947 232.02 200.911C234.278 200.878 230.587 199.02 224.661 197.206C217.385 194.978 216.821 194.902 216.121 196.036ZM313.117 200.384C311.554 202.223 311.748 203.515 313.664 204.016C314.682 204.284 315.547 204.223 315.585 203.881C315.624 203.54 315.823 202.376 316.028 201.292C316.428 199.167 314.628 198.605 313.117 200.384ZM214.199 201.718C215.32 202.743 223.892 205.624 225.823 205.624C228.209 205.624 225.812 204.1 220.82 202.442C215.694 200.739 212.782 200.421 214.199 201.718ZM37.5406 203.567C39.4585 204.439 42.3259 206.959 43.9109 209.169C47.6129 214.325 49.9711 214.374 58.349 209.467C61.8415 207.42 64.6986 206.201 64.6986 206.755C64.6986 207.31 62.8448 209.622 60.5799 211.893C55.7427 216.741 52.1153 217.261 46.7058 213.88C44.8482 212.718 41.9299 210.918 40.2222 209.878C30.4526 203.931 28.5659 199.491 37.5406 203.567ZM296.315 207.009C289.115 209.582 284.399 216.303 284.399 223.993C284.399 236.06 295.378 244.74 306.777 241.684C315.616 239.314 320.597 232.957 320.59 224.056C320.583 216.517 316.774 210.861 309.387 207.422C304.927 205.345 301.292 205.23 296.315 207.009ZM311.961 209.92C319.087 214.626 321.702 226.328 317.143 233.109C309.442 244.565 293.467 244.032 287.464 232.119C281.044 219.381 290.683 205.384 304.672 207.127C306.747 207.386 310.027 208.642 311.961 209.92ZM295.7 211.532C290.658 214.093 288.023 218.31 287.938 223.948C287.769 235.135 299.749 242.245 309.289 236.62C314.427 233.59 316.671 229.122 316.201 222.854C315.781 217.236 312.691 213.021 307.295 210.707C303.067 208.893 300.539 209.073 295.7 211.532ZM323.059 211.817C323.059 212.57 323.028 213.484 322.989 213.848C322.951 214.213 323.821 214.845 324.923 215.253C326.104 215.691 326.705 215.637 326.388 215.122C326.091 214.641 326.546 213.856 327.399 213.377C328.694 212.651 328.464 212.337 326.005 211.478C323.589 210.634 323.059 210.695 323.059 211.817ZM303.686 216.258C302.925 219.773 301.855 220.713 298.587 220.734C296.363 220.747 296.416 220.602 299.957 216.967C301.983 214.887 303.8 213.186 303.995 213.186C304.19 213.186 304.052 214.569 303.686 216.258ZM307.298 218.991C308.861 225.007 308.56 225.998 304.898 226.919C302.195 227.6 301.616 226.508 302.9 223.154C303.437 221.754 303.692 221.758 305.965 223.213L308.444 224.801L306.207 222.355C304.357 220.33 304.083 219.312 304.618 216.451C304.974 214.549 305.411 213.143 305.59 213.326C305.768 213.509 306.536 216.058 307.298 218.991ZM301.79 223.82C300.862 226.845 300.658 226.92 298.549 225.007C295.908 222.611 296.185 221.693 299.549 221.693C302.114 221.693 302.368 221.934 301.79 223.82ZM175.67 224.483C178.841 226.421 180.663 230.81 180.672 236.534C180.675 238.198 181.143 241.73 181.71 244.384C182.869 249.804 182.516 251.967 179.731 256.491L177.803 259.624L174.111 256.693C171.327 254.483 170.063 252.534 168.971 248.764C168.173 246.015 166.662 242.987 165.613 242.035C162.789 239.474 163.299 238.286 166.298 240.439C167.724 241.461 169.952 244.031 171.249 246.149C172.545 248.266 173.818 250.008 174.077 250.02C174.337 250.032 174.549 246.179 174.549 241.457C174.549 233.264 174.43 232.77 171.956 230.637C170.53 229.406 169.363 228.121 169.363 227.78C169.363 226.487 174.622 228.476 176.223 230.374C177.143 231.466 178.127 232.126 178.409 231.844C179.405 230.846 176.452 227.406 173.632 226.278C172.062 225.651 169.94 224.575 168.917 223.888C167.171 222.714 167.227 222.638 169.86 222.642C171.401 222.644 174.016 223.472 175.67 224.483ZM299.486 231.25C299.486 232.752 299.263 233.981 298.991 233.981C298.384 233.981 296.864 230.069 296.127 226.614L295.583 224.056L297.534 226.288C298.608 227.515 299.486 229.748 299.486 231.25ZM305.615 230.651C301.538 234.174 300.42 234.638 300.443 232.799C300.468 230.834 301.698 229.59 304.672 228.526C309.379 226.842 309.558 227.244 305.615 230.651ZM277.904 233.949C276.595 234.816 277.065 237.884 278.428 237.359C279.119 237.094 279.685 237.359 279.685 237.949C279.685 239.346 280.712 238.314 280.96 236.667C281.066 235.97 281.468 234.893 281.853 234.275C282.561 233.141 279.505 232.888 277.904 233.949ZM310.355 246.227C310.049 246.724 309.17 246.89 308.403 246.595C307.414 246.215 307.177 246.502 307.591 247.582C307.997 248.64 307.641 249.113 306.423 249.133C304.797 249.16 304.787 249.229 306.302 250.114C307.199 250.638 308.26 251.087 308.66 251.111C309.06 251.136 309.866 251.553 310.45 252.04C311.168 252.638 311.676 252.303 312.012 251.015C312.286 249.964 312.098 249.104 311.592 249.104C311.087 249.104 310.943 248.254 311.273 247.214C311.893 245.254 311.329 244.647 310.355 246.227ZM143.904 249.142C143.904 250.203 142.976 252.861 141.841 255.05C140.212 258.191 139.766 260.722 139.719 267.064C139.687 271.483 139.237 275.411 138.718 275.793C136.577 277.368 128.601 276.469 123.573 274.084C118.04 271.46 117.613 270.474 120.005 265.835C123.832 258.415 130.661 252.208 138.614 248.921C143.64 246.844 143.904 246.856 143.904 249.142ZM52.4406 280.241C52.4406 283.91 52.2473 286.913 52.0106 286.913C51.7749 286.913 50.0183 285.85 48.1079 284.55C45.116 282.515 42.0685 281.48 42.0685 282.501C42.0685 282.673 44.1901 284.192 46.7831 285.876C49.3761 287.561 51.4977 289.207 51.4977 289.535C51.4977 289.863 50.1474 291.528 48.4973 293.234C44.8652 296.992 45.7138 298.691 49.4374 295.115C50.8867 293.724 52.3671 292.585 52.7282 292.585C53.0884 292.585 53.3835 294.473 53.3835 296.782C53.3835 299.091 53.8079 301.243 54.3265 301.564C54.9082 301.924 55.2694 300.306 55.2694 297.345V292.541L57.6559 294.108C61.0768 296.356 61.6426 295.004 58.4423 292.229L55.7408 289.886L58.9902 286.509C62.5299 282.831 62.1782 282.009 58.3556 285.023C57.0364 286.063 55.5909 286.913 55.1421 286.913C54.6933 286.913 54.3265 284.174 54.3265 280.825C54.3265 277.476 53.9021 274.474 53.3835 274.153C52.7886 273.784 52.4406 276.034 52.4406 280.241ZM304.709 298.474C308.978 300.554 309.005 300.596 308.382 304.375C307.588 309.185 306.541 311.178 304.134 312.47C303.083 313.034 301.824 314.552 301.332 315.846C300.837 317.153 299.034 318.786 297.273 319.524C295.53 320.254 293.383 321.955 292.501 323.304C289.934 327.231 285.458 329.441 280.061 329.444C277.416 329.446 273.923 329.912 272.3 330.479C269.888 331.323 268.698 331.193 265.795 329.771C261.104 327.474 260.787 324.537 264.399 316.878C272.848 298.964 289.812 291.22 304.709 298.474Z" fill="black"/>
</svg>
