<svg width="120" height="232" viewBox="0 0 120 232" fill="none" xmlns="http://www.w3.org/2000/svg">
<path fill-rule="evenodd" clip-rule="evenodd" d="M17.8948 0.739583C11.3972 2.38491 8.21857 4.53668 8.21857 7.28909C8.21857 10.5675 13.7774 14.2423 21.1275 15.8222C22.987 16.2222 24.5816 16.5984 24.6714 16.6583C24.7605 16.7182 24.1329 18.0149 23.276 19.541L21.7177 22.3142L15.7365 22.7546C9.76334 23.1943 5.03313 23.8268 2.00382 24.5901C0.518673 24.9638 0.370533 24.817 0.0170708 22.62C-0.891472 16.9647 -9.15506 13.5872 -21.9024 13.6606C-32.859 13.7242 -41.3709 16.3035 -45.8731 20.9257C-47.5967 22.6952 -48 23.5846 -48 25.6177C-48 27.7676 -47.6613 28.4172 -45.6352 30.1604C-43.1438 32.303 -39.4168 33.7783 -34.8113 34.445C-32.6389 34.7593 -31.5835 35.3582 -29.8936 37.2335C-28.0415 39.2892 -27.1434 39.743 -23.4391 40.4941C-21.0725 40.9743 -14.8977 41.6281 -9.71691 41.9474C-4.53611 42.2667 -0.157509 42.6673 0.0139961 42.838C0.186115 43.0086 0.00539398 46.2687 -0.386791 50.0823C-0.77898 53.8959 -1.01073 61.8327 -0.902538 67.7197L-0.705215 78.4236L-3.93799 82.9693C-5.71574 85.4691 -8.6178 90.3531 -10.3869 93.823C-13.0603 99.066 -13.8423 100.132 -15.0176 100.134C-20.507 100.145 -26.9326 108.71 -28.7853 118.486C-30.0854 125.345 -28.2333 140.346 -25.7455 143.109C-24.8548 144.098 -25.0251 144.655 -27.8934 150.143C-31.3886 156.829 -33.5819 163.293 -33.5819 166.905C-33.5819 169.21 -33.4473 169.377 -30.662 170.53L-27.7421 171.738L-27.7071 179.824C-27.6862 184.74 -27.3782 188.601 -26.9215 189.675C-25.863 192.167 -25.5464 191.428 -26.2877 188.198C-26.9375 185.369 -27.2571 173.153 -26.6965 172.596C-26.5219 172.423 -25.0983 172.827 -23.5332 173.495L-20.6865 174.708L-21.0627 178.286C-21.4758 182.219 -20.3342 190.418 -19.2837 191.064C-18.8386 191.338 -18.7827 191.087 -19.114 190.302C-19.8086 188.658 -20.325 175.369 -19.6949 175.369C-19.4097 175.369 -15.0926 176.922 -10.1005 178.82L-1.02487 182.271L-0.654812 184.478C0.763332 192.921 5.68165 198.534 13.6926 200.851C19.9811 202.67 26.5942 200.953 31.8444 196.137L34.6617 193.554L39.8874 194.586C42.7617 195.154 45.3872 195.45 45.7222 195.244C46.0566 195.038 46.3308 194.247 46.3308 193.485C46.3308 191.187 48.2573 180.606 48.7749 180.061C49.3023 179.505 54.1223 185.45 56.5012 189.589C57.3231 191.019 57.9986 191.939 58.0029 191.632C58.0152 190.716 54.9263 185.71 51.9972 181.897C49.0871 178.109 48.9199 176.973 50.6325 172.617L51.3536 170.782L56.4299 176.061C59.2219 178.965 62.6883 183.093 64.1322 185.236C65.5762 187.379 66.588 188.628 66.3802 188.013C65.5805 185.642 61.2787 179.903 56.6715 175.06C54.027 172.28 51.8632 169.685 51.8632 169.293C51.8632 168.699 53.4737 165.116 54.0307 164.473C54.1223 164.367 57.379 164.738 61.2683 165.299C67.7529 166.232 68.6166 166.236 71.6871 165.348C75.9433 164.117 80.0023 160.009 81.8698 155.043C87.2657 140.693 82.0308 116.908 72.8716 114.161L70.6119 113.483L70.454 106.351C70.296 99.2067 69.0333 89.9935 67.5334 85.033C66.8173 82.6659 66.845 82.3075 67.7996 81.6286C69.5546 80.3808 70.7988 77.9813 71.2334 75.0087C71.6883 71.8924 70.7884 61.3959 69.2848 52.2842L68.3018 46.3293L70.5326 43.8723C71.8106 42.4649 72.7634 40.7792 72.7634 39.9253C72.7634 38.2353 72.6989 38.2494 85.1247 37.1503C94.3325 36.3356 97.5394 35.3478 100.679 32.358C102.828 30.3115 103.792 29.8711 107.347 29.312C113.015 28.4209 117.908 26.1186 119.131 23.7656C120.585 20.9667 120.342 20.0352 117.428 17.2583C112.025 12.1064 100.941 9.27327 88.1312 9.76932C79.5892 10.1008 74.7785 11.4452 71.9047 14.3047C69.0635 17.1317 70.0396 21.1337 74.2185 23.7846L76.1443 25.0066L73.0708 24.7045C64.8883 23.9002 40.7553 20.5765 39.4128 20.0688C38.5768 19.752 37.734 19.0829 37.5404 18.5813C37.2668 17.8706 37.8944 17.5831 40.3767 17.2828C48.1884 16.3372 53.6913 14.375 54.9165 12.0979C57.2167 7.82122 53.3502 4.28224 43.5062 1.65461C37.0547 -0.0677897 23.0559 -0.567505 17.8948 0.739583ZM41.0479 2.01242C49.3951 3.67732 55.6314 7.69584 54.6485 10.7761C53.6237 13.9903 45.7437 16.3213 35.8806 16.328C25.5836 16.3347 17.9077 14.7512 12.7133 11.5486C7.15634 8.12215 8.32615 4.66391 15.8527 2.26625C21.2523 0.546303 33.0997 0.427032 41.0479 2.01242ZM15.1218 4.44555C12.7594 6.0921 12.3925 7.45057 13.8211 9.25737C15.1181 10.8984 18.6275 12.6948 20.4341 12.6428C20.9843 12.6269 20.0684 12.0838 18.3982 11.4348C16.7287 10.7859 14.9638 9.85862 14.477 9.37419C13.1221 8.02613 14.0417 5.64315 16.3549 4.50855C17.4583 3.96785 17.939 3.51829 17.4227 3.51095C16.9057 3.503 15.8705 3.92381 15.1218 4.44555ZM20.1538 5.63337C18.9582 6.82302 18.7541 7.40592 19.2262 8.28363C20.1102 9.92651 21.2087 10.6917 23.2827 11.1076C25.0347 11.4587 25.0494 11.4446 23.5993 10.8183C21.5597 9.93813 19.8981 8.38944 19.8981 7.36861C19.8981 6.91109 20.7974 5.99179 21.8959 5.3251C23.2766 4.48775 23.5526 4.1122 22.7903 4.11098C22.183 4.10975 20.9966 4.7948 20.1538 5.63337ZM46.3744 5.27066C50.8876 7.74049 51.0118 10.132 46.7322 12.1578C44.7934 13.0759 44.601 13.2765 45.9337 12.9915C52.2664 11.6373 52.1269 6.16672 45.7161 4.47491C44.6231 4.18682 44.813 4.41619 46.3744 5.27066ZM40.7984 5.00826C40.7984 5.16913 41.6282 5.72756 42.6425 6.24929C44.9544 7.43895 45.0104 9.10752 42.7962 10.8152L41.1057 12.1193L43.1349 11.14C46.6529 9.44331 46.4851 7.02547 42.7439 5.50675C41.6737 5.07249 40.7984 4.84801 40.7984 5.00826ZM28.9319 6.05357C26.6612 6.87745 26.998 8.48364 29.5971 9.22495C33.4304 10.3192 36.6392 7.27686 33.0745 5.92818C31.2365 5.23274 31.1904 5.23457 28.9319 6.05357ZM33.8865 7.6255C34.0636 8.1613 33.3075 8.39006 31.3576 8.39006C28.6781 8.39006 27.4622 7.79553 28.3449 6.91721C29.045 6.22055 33.6148 6.80467 33.8865 7.6255ZM99.0645 10.858C115.292 13.4783 123.758 21.0829 115.633 25.7437C111.81 27.9377 106.622 28.8227 97.9666 28.7585C89.097 28.6924 82.9296 27.3529 76.9877 24.2017C70.864 20.9545 69.4483 17.9666 72.6097 14.9659C76.732 11.0526 88.7312 9.18948 99.0645 10.858ZM76.9859 14.8185C76.0958 15.2992 75.1842 16.169 74.9598 16.7513C74.1379 18.8822 78.0045 22.2102 82.5988 23.3271C83.4441 23.5326 82.747 23.0512 81.0491 22.2579C75.4264 19.6303 74.3457 17.2283 77.8348 15.1114C80.1142 13.7285 79.4349 13.4942 76.9859 14.8185ZM-8.18013 16.3592C-0.648052 19.3251 1.01474 23.1846 -3.42717 27.389C-10.9746 34.533 -33.4436 36.3839 -43.244 30.6693C-49.4003 27.0795 -48.1623 22.0903 -40.152 18.2064C-33.6004 15.0295 -30.571 14.4894 -20.6729 14.7316C-13.1458 14.9157 -11.2027 15.1683 -8.18013 16.3592ZM83.023 15.4876C79.789 17.232 81.919 21.2151 86.5945 22.1662C88.1915 22.4909 88.1091 22.3845 85.9798 21.3735C81.1911 19.0988 80.8666 16.8803 85.0989 15.3585C86.4494 14.8729 86.7666 14.5915 85.9798 14.5775C85.3036 14.5652 83.9727 14.975 83.023 15.4876ZM108.724 16.0876C114.468 19.2462 114.82 22.6481 109.633 24.8862C108.18 25.5137 108.194 25.5278 109.954 25.1871C112.693 24.6562 114.82 22.3325 114.333 20.4028C113.898 18.6749 110.796 16.0907 108.417 15.4729C107.073 15.1237 107.111 15.2007 108.724 16.0876ZM105.825 17.5703C108.829 19.393 108.985 20.5282 106.526 22.6536L104.421 24.4727L106.573 23.2824C109.407 21.7142 109.758 19.4456 107.446 17.6357C106.536 16.9237 105.345 16.3427 104.799 16.3439C104.224 16.3451 104.657 16.862 105.825 17.5703ZM34.6998 17.5648C35.8979 17.5648 36.5353 17.9495 36.8205 18.8437C37.4537 20.8297 40.4572 21.6989 50.3811 22.7692C55.4224 23.313 63.1007 24.2727 67.4437 24.9008C71.7873 25.5296 75.7165 25.9009 76.1751 25.7253C76.6343 25.5504 78.613 26.0061 80.5727 26.7388C85.4382 28.5573 92.275 29.7946 97.5597 29.813L101.962 29.8283L99.4518 32.1874C96.4311 35.0254 94.3896 35.538 81.9159 36.59L72.9337 37.3478L70.7828 35.2077C69.5995 34.0303 67.0718 32.4369 65.165 31.6675C62.6778 30.6625 61.6986 29.942 61.6986 29.1151C61.6986 28.4814 61.2837 27.9627 60.7765 27.9627C60.2694 27.9627 59.8545 28.3756 59.8545 28.8802C59.8545 30.3182 58.1191 29.9536 57.8997 28.4692C57.6372 26.6954 56.3703 26.3584 55.8693 27.9291C55.3664 29.5065 54.322 29.5738 54.322 28.0282C54.322 26.315 52.4447 25.8159 52.0242 27.4171C51.7163 28.5866 51.353 28.6833 48.2388 28.4245C39.5579 27.7022 26.904 30.654 22.4602 34.4388C16.6199 39.4134 18.4861 44.1084 27.823 47.9305C29.7194 48.7061 31.877 49.3477 32.6184 49.3557C34.0064 49.371 35.8806 51.431 35.8806 52.9418C35.8806 53.8513 31.8401 53.6611 23.8937 52.3784C17.143 51.2885 15.2595 50.2744 12.832 46.4222L10.643 42.9481L12.658 42.6129C13.7664 42.4288 10.1088 42.0685 4.53029 41.8135C-16.2519 40.8624 -26.8594 39.5449 -28.7312 37.6824C-29.3705 37.0463 -29.8936 36.2909 -29.8936 36.0041C-29.8936 35.7172 -27.3352 35.319 -24.2075 35.1196C-14.8811 34.5251 -6.74723 31.7892 -2.22847 27.7273C-0.230656 25.9315 0.744274 25.5694 5.33679 24.921C8.23701 24.5112 13.1725 23.9962 16.3057 23.776L22.0017 23.3754L23.8698 20.0976L25.7379 16.8198L29.3629 17.1923C31.3564 17.3972 33.758 17.5648 34.6998 17.5648ZM-9.01183 18.4792C-3.95152 20.7918 -3.26365 23.6158 -6.99557 26.7535L-9.30075 28.6918L-7.30846 27.7028C-4.7193 26.4171 -3.21632 24.1228 -3.70194 22.1974C-4.14576 20.4383 -6.7921 18.4119 -9.33825 17.881C-11.0336 17.5274 -11.0133 17.5641 -9.01183 18.4792ZM91.4759 18.2351C90.785 19.3471 92.6691 20.6462 95.1058 20.7374C98.0582 20.8475 99.3786 19.6774 97.6956 18.4412C96.2909 17.4094 92.0753 17.2699 91.4759 18.2351ZM97.202 19.2468C97.3661 19.7447 96.8104 20.0113 95.6092 20.0113C93.2358 20.0113 91.7285 19.4297 92.1877 18.6902C92.701 17.8638 96.8989 18.3293 97.202 19.2468ZM-12.3792 20.1428C-9.31858 21.9276 -9.09666 22.9827 -11.2482 25.5265C-12.7456 27.2979 -12.7874 27.4502 -11.5985 26.8177C-10.0237 25.9786 -8.99339 24.2763 -8.99339 22.5124C-8.99339 21.1857 -10.7613 19.7918 -13.2964 19.1196C-14.3285 18.8455 -14.0273 19.1813 -12.3792 20.1428ZM-41.942 21.4793C-45.0457 24.5675 -44.5668 27.0593 -40.4771 29.0973C-37.5517 30.5549 -34.5673 31.2974 -35.1033 30.4338C-35.3209 30.0839 -35.908 29.7977 -36.409 29.7977C-37.9574 29.7977 -42.1117 27.4123 -42.8038 26.126C-43.6048 24.6366 -42.7706 22.7748 -40.4187 20.7979C-39.5323 20.0529 -39.0424 19.4339 -39.3295 19.4217C-39.6165 19.4095 -40.7925 20.3355 -41.942 21.4793ZM-35.2177 20.5832C-38.901 22.8182 -38.6195 26.189 -34.598 28.0056C-33.194 28.6398 -31.4919 29.1524 -30.8157 29.1438C-30.1395 29.1359 -30.9694 28.5927 -32.6598 27.9383C-35.5533 26.8171 -37.2702 25.3902 -37.2702 24.1057C-37.2702 23.795 -36.2479 22.609 -34.9988 21.4701C-32.406 19.1073 -32.4551 18.9073 -35.2177 20.5832ZM-26.7721 22.8604C-28.1614 23.8286 -28.1761 23.9112 -27.0985 24.6953C-25.6048 25.7822 -23.0396 25.737 -21.5587 24.5987C-20.3779 23.6904 -20.3779 23.672 -21.5587 22.7637C-23.1158 21.5667 -24.9649 21.601 -26.7721 22.8604ZM-22.1814 23.3203C-21.0676 24.1308 -21.1321 24.2085 -23.2535 24.6042C-25.5101 25.0256 -26.8201 24.6898 -26.8201 23.6898C-26.8201 23.2017 -25.6165 22.7032 -24.0176 22.5289C-23.6598 22.4897 -22.833 22.8463 -22.1814 23.3203ZM11.1483 28.9212C10.7137 29.3542 11.8226 33.5666 12.5787 34.3544C13.7356 35.56 14.3227 33.8125 13.6489 31.1702C13.0514 28.8288 12.1005 27.9737 11.1483 28.9212ZM7.36965 30.8681C7.99051 33.4516 8.7841 34.6908 9.81866 34.6908C10.4272 34.6908 10.6473 34.3122 10.4408 33.6205C10.2649 33.0314 9.93976 31.7935 9.71785 30.8681C9.45229 29.7598 8.91381 29.186 8.1405 29.186C7.1711 29.186 7.03648 29.4796 7.36965 30.8681ZM59.1051 30.6986C71.8008 33.7526 75.4134 40.4764 66.9962 45.3849C62.1424 48.215 55.5933 49.5153 46.0234 49.5483C36.1044 49.5826 30.9955 48.6027 25.2719 45.5671C19.0449 42.2643 18.4664 38.4519 23.6282 34.7312C26.8296 32.4235 31.6563 30.6099 36.6343 29.8442C41.7395 29.0588 54.2692 29.5353 59.1051 30.6986ZM3.56396 30.6099C3.07219 31.884 4.39444 34.6908 5.48616 34.6908C6.27669 34.6908 6.38734 34.2969 6.04372 32.703C5.80767 31.6094 5.49293 30.509 5.34356 30.2564C4.91141 29.5249 3.90512 29.7249 3.56396 30.6099ZM62.7221 34.3177C68.5028 37.0145 69.1901 40.5608 64.4697 43.3322C61.851 44.8693 61.7213 45.2307 64.0818 44.4117C68.0381 43.0392 69.8128 39.0262 67.5593 36.549C66.43 35.3068 63.5839 33.8437 61.0839 33.2198C60.2386 33.0094 60.9757 33.503 62.7221 34.3177ZM27.228 34.8578C26.0877 35.6218 24.7384 36.9857 24.2294 37.8879C23.3786 39.3956 23.405 39.6623 24.5558 41.1963C26.0305 43.1615 29.211 44.9194 32.2053 45.4234C33.8957 45.7084 33.5915 45.4644 30.7558 44.2601C23.4874 41.1725 22.8543 38.4298 28.5176 34.5697C29.3555 33.9991 29.8743 33.5171 29.6708 33.4994C29.4673 33.4822 28.3676 34.0933 27.228 34.8578ZM34.6512 34.5098C33.2528 35.0156 30.3482 37.8763 30.3482 38.7467C30.3482 40.3278 33.2153 42.7144 36.1683 43.5915C39.6027 44.6118 39.269 43.7946 35.8014 42.693C30.9636 41.1566 30.3538 37.8261 34.476 35.4493C36.6583 34.1905 36.74 33.7532 34.6512 34.5098ZM59.0861 35.8976C62.2776 37.3393 62.5942 39.3198 60.0143 41.7003C59.0879 42.5548 58.6213 43.2539 58.9773 43.2539C59.3332 43.2539 60.4022 42.4459 61.3531 41.4587C63.6337 39.0898 63.1739 36.8212 60.16 35.5679C56.9979 34.2535 56.074 34.5373 59.0861 35.8976ZM42.7962 37.82C40.9791 39.6776 42.3069 40.8073 46.3056 40.8073C48.8308 40.8073 50.2539 39.7284 49.4449 38.4268C48.7355 37.2842 43.7637 36.8304 42.7962 37.82ZM48.6943 38.6739C49.8832 39.8562 44.9421 40.6752 43.2572 39.5748C42.4378 39.039 42.4378 38.902 43.2572 38.3387C44.1602 37.7179 47.9696 37.9521 48.6943 38.6739ZM5.95827 44.3243C5.14193 47.4467 5.37429 73.394 6.2312 74.8858C6.72789 75.7501 6.86497 77.1477 6.60863 78.7416C6.25087 80.9686 6.03818 81.2206 4.66122 81.0555C3.81046 80.9533 2.53432 80.0927 1.82494 79.1428C0.603504 77.5073 0.534657 76.6767 0.534657 63.5459C0.534657 55.9174 0.762104 48.0932 1.03996 46.1592L1.54524 42.6423H3.97152C6.31542 42.6423 6.38303 42.6997 5.95827 44.3243ZM11.9044 46.454C14.1837 49.8499 14.421 50.5392 14.0842 52.7772C13.4768 56.8055 14.4112 58.3279 18.18 59.4533C19.97 59.9885 22.6102 60.5904 24.0474 60.7916C25.4846 60.9935 26.6637 61.3268 26.6686 61.5336C26.6729 61.7403 26.8438 62.5287 27.0472 63.2853C27.3177 64.2878 27.1542 64.6615 26.4454 64.6615C24.8779 64.6615 21.3654 68.124 20.7427 70.2832C20.2215 72.0924 19.7893 72.3811 15.9701 73.4674C12.6181 74.4216 11.5681 74.5127 10.7635 73.9212C10.209 73.5139 8.99434 72.8545 8.06489 72.4563L6.37443 71.7334V61.8675C6.37443 56.441 6.55331 49.8958 6.77215 47.322C7.28421 41.2905 8.32123 41.115 11.9044 46.454ZM67.8113 50.1349C69.1255 56.4532 69.6388 60.536 70.0458 67.8959C70.6408 78.6486 69.8657 80.1129 61.8744 83.3442C59.9337 84.1296 58.2519 84.6782 58.1376 84.5645C58.0232 84.4507 58.2236 83.2709 58.5832 81.943C59.1174 79.9673 59.6922 79.3239 61.7416 78.404C65.452 76.7397 66.0034 75.5929 65.9905 69.5712C65.9788 64.33 64.6904 53.7828 63.6239 50.201C63.1278 48.5342 63.2274 48.1942 64.3732 47.6431C66.6845 46.5299 67.129 46.8516 67.8113 50.1349ZM62.8543 51.0524C64.1286 56.0214 64.9535 62.8131 65.015 68.8348C65.0721 74.4283 64.943 75.2491 63.882 76.0247C63.1782 76.5397 62.1658 76.7299 61.4232 76.4865C58.6422 75.5751 55.5951 76.6687 54.322 79.0352C53.8131 79.982 52.7926 80.5533 51.1433 80.8157C47.7723 81.3521 47.2909 80.8359 48.8394 78.344C50.6393 75.4461 50.3393 69.0947 48.3009 66.9356C47.318 65.8946 46.9455 64.7435 46.9455 62.7477C46.9455 60.2038 47.109 59.9176 49.097 58.9738C51.053 58.0459 51.2503 57.7163 51.2675 55.3437C51.2909 52.1974 52.8185 50.8316 57.6194 49.6627C62.2045 48.5465 62.2119 48.5483 62.8543 51.0524ZM39.6747 50.5851C41.0971 50.5967 41.6731 52.7216 43.8707 66.0604C46.4549 81.7448 46.8877 82.6971 51.0081 81.7723C52.8135 81.3674 53.1221 81.4408 52.8277 82.2048C52.6322 82.7106 52.3039 83.7944 52.0974 84.6128C51.6099 86.5444 50.1242 87.2924 46.774 87.2924C42.1009 87.2924 41.7309 86.3731 39.2671 68.6372C37.6725 57.1548 36.9472 53.0886 36.105 50.905C35.7393 49.9569 35.9009 49.8462 37.1599 50.1814C37.978 50.3991 39.1097 50.5808 39.6747 50.5851ZM50.9411 51.8432C47.4434 53.4776 43.2664 54.0391 42.5841 52.9668C41.3577 51.0408 42.0112 50.7551 47.7139 50.7252L53.4 50.6952L50.9411 51.8432ZM18.4677 52.0524C19.7942 52.5179 23.4942 53.2219 26.6901 53.6158C37.0615 54.896 36.4954 54.7186 36.4954 56.6881C36.4954 57.6545 36.6632 58.8802 36.8685 59.4124C37.1906 60.2479 36.5286 60.38 32.0166 60.38C26.9599 60.38 18.2568 58.9964 16.0562 57.8429C15.2521 57.4215 14.9804 56.5113 14.9804 54.2421C14.9804 52.5717 15.222 51.2053 15.5177 51.2053C15.8133 51.2053 17.1411 51.5864 18.4677 52.0524ZM50.3264 55.7737C50.3264 57.3878 49.9926 57.7126 47.3241 58.6986C45.6724 59.3084 44.1959 59.6833 44.0428 59.5304C43.8897 59.3781 43.5406 58.2668 43.267 57.06C42.8251 55.1107 42.9167 54.836 44.0895 54.5889C44.8149 54.436 45.9619 54.1901 46.6381 54.0415C49.3828 53.4403 50.3264 53.8831 50.3264 55.7737ZM45.9435 61.7562C46.5631 64.0572 46.3781 65.2732 45.4087 65.2732C44.9016 65.2732 44.4829 64.7918 44.478 64.2028C44.4737 63.6138 44.3028 62.5128 44.0994 61.7562C43.8356 60.777 43.9942 60.38 44.6508 60.38C45.1579 60.38 45.7394 60.9996 45.9435 61.7562ZM37.1101 61.859C37.1101 61.9996 37.2779 62.5501 37.4832 63.0822C37.8041 63.9147 37.1709 64.0499 32.9448 64.0499C28.5496 64.0499 27.9988 63.9208 27.7111 62.8266C27.4099 61.6797 27.6927 61.6033 32.2502 61.6033C34.9229 61.6033 37.1101 61.7183 37.1101 61.859ZM37.8096 66.8023C38.066 67.8115 38.6616 71.4581 39.1331 74.9066L39.9906 81.176H34.8805H29.7704L31.2887 78.9496C32.7991 76.736 33.1298 75.1904 32.8409 71.7052C32.6534 69.4415 31.1935 66.546 30.012 66.0952C28.056 65.3484 30.0581 64.6163 33.5921 64.7869C37.19 64.96 37.3633 65.0426 37.8096 66.8023ZM47.787 67.4213C49.1308 68.7583 49.6945 73.5188 48.8437 76.344C48.4491 77.6559 47.8977 78.7294 47.6198 78.7294C47.1299 78.7294 45.1001 69.7333 45.1007 67.5668C45.1013 66.2518 46.5336 66.1741 47.787 67.4213ZM27.1517 69.677C28.34 70.8593 28.0381 73.0949 26.6304 73.5396C24.1101 74.3359 22.3994 70.915 24.6621 69.6036C26.0588 68.7944 26.2708 68.8005 27.1517 69.677ZM10.0922 75.4424C10.4143 76.2846 10.6774 82.5986 10.6774 89.4729V101.972L8.6796 101.963C5.12226 101.946 4.90957 101.51 5.36016 95.1496C5.5833 92.0058 6.20477 86.956 6.74203 83.9284C7.27929 80.9007 7.56759 77.1134 7.38256 75.5115C7.06229 72.7456 7.10716 72.6325 8.27635 73.2551C8.95315 73.6154 9.77011 74.6002 10.0922 75.4424ZM20.6776 75.2124C20.8448 76.3054 20.8712 77.3202 20.7354 77.4669C20.6001 77.6131 18.6275 78.3367 16.3518 79.075L12.2142 80.4163L11.6843 78.3165C11.3929 77.1611 11.2897 76.0816 11.455 75.917C11.7243 75.6485 19.0148 73.3867 19.9823 73.271C20.1975 73.2454 20.5104 74.1194 20.6776 75.2124ZM61.0839 77.4651C61.0839 77.7789 60.5331 78.2095 59.86 78.4217C57.77 79.0817 55.3695 89.8344 54.33 103.195C53.5758 112.887 53.5758 113.593 54.322 113.593C54.6601 113.593 54.9368 113.043 54.9368 112.37C54.9368 110.756 55.4722 110.8 65.6942 113.254C73.7943 115.198 74.417 115.454 76.2888 117.606C79.1122 120.852 81.8421 128.353 82.7218 135.283C84.0354 145.631 81.7899 156.028 77.1851 160.92C73.5177 164.817 69.187 165.63 59.3651 164.264C55.0634 163.666 54.3349 163.403 54.7105 162.581C55.3498 161.185 55.2164 159.206 54.1106 153.656C53.4891 150.538 53.1276 145.412 53.1141 139.525L53.0926 130.286L48.6359 128.987C28.916 123.237 -18.8774 113.765 -22.0517 114.977C-24.3649 115.861 -25.0755 127.094 -23.417 136.559C-22.5958 141.244 -22.5878 142.062 -23.3562 142.826C-24.1245 143.591 -24.3637 143.516 -25.188 142.259C-26.6897 139.967 -27.4286 135.891 -27.8343 127.661C-28.1288 121.674 -27.9966 119.188 -27.2233 116.202C-25.823 110.795 -23.6752 106.907 -20.4572 103.956C-17.9922 101.695 -14.9149 100.158 -14.2264 100.843C-14.0931 100.976 -14.5258 102.288 -15.1879 103.76C-15.8499 105.231 -16.2488 106.578 -16.0737 106.753C-15.6802 107.143 -16.2378 108.146 -11.0127 97.6488C-6.76014 89.1053 -0.879795 79.341 0.0127678 79.341C0.246357 79.341 0.915783 79.771 1.49976 80.297C2.49683 81.1949 2.41568 81.5007 0.158455 85.3431C-2.16209 89.2931 -7.21442 100.672 -8.03997 103.807C-8.39282 105.147 -8.34364 105.211 -7.64225 104.319C-7.20212 103.759 -6.56528 102.877 -6.22718 102.357C-5.67517 101.509 -4.55025 101.532 4.83765 102.584C17.2426 103.973 25.2756 105.144 36.4419 107.19C40.9766 108.021 44.9507 108.7 45.2729 108.7C45.6306 108.7 45.6878 110.312 45.4198 112.829C45.1782 115.1 45.1309 116.812 45.3147 116.634C45.4984 116.456 46.7635 110.813 48.1257 104.095C51.511 87.4001 54.038 79.8536 56.9143 77.8492C58.4142 76.8033 61.0839 76.5574 61.0839 77.4651ZM22.357 79.3251C22.357 80.8555 26.5364 81.9998 33.4009 82.3479L40.4486 82.7051L41.0356 84.7467C41.8809 87.6894 43.8443 88.7616 47.5793 88.3218C50.7936 87.9426 50.9884 88.12 50.051 90.5721C49.7307 91.4106 48.7515 95.4769 47.8749 99.6073C46.9983 103.738 46.2029 107.197 46.107 107.292C46.0111 107.387 41.1119 106.664 35.2204 105.684C29.329 104.705 21.7423 103.573 18.3613 103.17C14.9804 102.767 11.9861 102.229 11.7077 101.976C11.4286 101.722 11.3966 97.0023 11.6358 91.4877L12.071 81.4616L16.1379 80.1625C20.7673 78.6841 22.357 78.47 22.357 79.3251ZM5.50645 84.7816C5.29438 85.9945 4.82166 90.1519 4.45591 94.0205C4.08954 97.8892 3.71211 101.138 3.61621 101.239C3.52032 101.341 1.35407 101.236 -1.19822 101.006L-5.83807 100.587L-4.60803 97.4568C-3.06879 93.541 0.403111 86.3866 2.00935 83.8226C2.94618 82.3271 3.53016 81.9619 4.55857 82.2292C5.71485 82.5301 5.84086 82.869 5.50645 84.7816ZM66.2173 83.4745C67.5009 85.5419 70.4331 111.834 69.4852 112.777C69.329 112.933 68.2041 112.875 66.9864 112.647L64.7722 112.234L64.7451 103.892C64.7193 95.8414 64.1476 88.7506 63.252 85.3596C62.9139 84.0782 63.0626 83.6709 63.9509 83.4427C65.7446 82.9821 65.9124 82.9846 66.2173 83.4745ZM62.5961 85.9927C63.7142 89.498 64.1691 111.758 63.1223 111.758C62.9852 111.758 61.0876 111.312 58.9053 110.766C54.338 109.625 54.5698 110.32 55.5576 100.749C56.7317 89.3751 57.4601 86.0104 58.8715 85.4422C60.9818 84.5938 62.2076 84.7749 62.5961 85.9927ZM-6.22718 113.326C17.3329 117.335 24.2146 118.761 46.8797 124.33C48.7029 124.778 49.9477 124.904 49.6459 124.61C47.7735 122.785 -10.2708 111.04 -16.6724 111.19C-17.6897 111.214 -12.989 112.175 -6.22718 113.326ZM71.0422 117.294C67.6865 118.633 58.625 125.847 58.625 127.178C58.625 127.5 60.2583 126.293 62.2549 124.495C64.2515 122.698 67.6343 120.197 69.7716 118.939C73.5189 116.733 73.9972 116.114 71.0422 117.294ZM28.3793 124.514C29.0088 124.911 28.9559 125.199 28.1303 125.88C25.374 128.155 24.6117 134.677 26.5942 139.02C28.5201 143.24 33.9787 146.727 38.4108 146.57C39.2241 146.541 38.5079 146.182 36.8027 145.762C29.8669 144.057 26.6157 140.595 26.1676 134.439C25.9094 130.879 27.2353 126.969 29.2276 125.416C30.4257 124.483 34.0912 125.585 33.6443 126.744C33.3751 127.442 33.0247 127.493 32.0528 126.975C31.1043 126.47 30.6808 126.509 30.2794 127.139C29.5128 128.343 29.6063 128.75 30.8093 129.447C31.4012 129.79 31.5949 130.079 31.2396 130.089C30.8849 130.099 30.288 129.803 29.9136 129.431C29.4157 128.935 29.0512 129.09 28.557 130.009C28.0185 131.01 28.0836 131.379 28.8772 131.82C29.7065 132.282 29.7489 132.606 29.1286 133.759C28.5121 134.905 28.5594 135.315 29.4034 136.143C30.347 137.067 30.4798 137.066 31.1769 136.132C31.8617 135.216 32.2231 135.3 35.1362 137.05C37.8115 138.657 38.2891 139.207 38.0186 140.366C37.592 142.195 39.2308 142.834 40.7775 141.442C41.517 140.776 42.404 140.542 43.216 140.799C44.9833 141.356 45.6337 139.526 44.1024 138.302C43.007 137.425 43.015 137.411 44.2684 138.013C45.2858 138.501 45.772 138.424 46.3965 137.674C47.077 136.858 47.0358 136.579 46.1402 135.927C45.2569 135.285 45.188 134.854 45.7363 133.419C46.1009 132.465 46.2343 131.032 46.0332 130.236C45.7099 128.952 45.8292 128.836 47.0752 129.216C49.3287 129.904 50.019 130.741 50.019 132.786C50.019 137.869 47.3487 142.311 42.983 144.492C41.3104 145.327 40.3183 146.01 40.7775 146.01C41.2366 146.01 42.8048 145.315 44.2629 144.465C47.7471 142.434 50.1069 138.422 50.5803 133.726C50.8587 130.962 51.1268 130.26 51.7556 130.649C52.3777 131.035 52.4674 132.19 52.1349 135.544C51.5749 141.204 49.5205 144.242 44.8008 146.392C40.4633 148.368 34.6531 148.495 31.1013 146.692C23.9688 143.072 21.0415 133.307 24.9836 126.285C26.2917 123.955 26.9507 123.611 28.3793 124.514ZM70.6636 126.744C71.8364 132.636 72.3196 136.86 72.729 144.787L73.1863 153.656L73.2822 145.902C73.3874 137.403 72.5341 129.664 71.1725 126.769L70.2978 124.909L70.6636 126.744ZM1.80035 127.92C2.81217 128.659 2.98737 129.518 2.95294 133.578C2.91975 137.574 3.0058 138.011 3.47421 136.224C3.7828 135.047 3.90451 132.914 3.74407 131.484C3.42073 128.608 3.60454 128.415 5.25012 129.897C6.70208 131.204 6.76477 136.529 5.38351 141.159C3.27443 148.228 -1.89223 156.567 -5.55961 158.823C-7.6945 160.135 -10.8375 160.519 -10.8375 159.467C-10.8375 159.13 -11.4738 158.855 -12.2514 158.855C-13.029 158.855 -14.0531 158.511 -14.527 158.09C-15.2549 157.445 -15.2678 157.485 -14.6119 158.352C-14.1846 158.916 -12.6546 159.778 -11.2113 160.267C-9.07146 160.993 -8.25758 161.017 -6.79272 160.398C-4.68917 159.51 0.272793 154.385 1.71429 151.611C2.26631 150.549 3.13551 149.68 3.64633 149.68C4.15716 149.68 10.091 151.057 16.8325 152.74C30.1398 156.063 49.3299 160.067 51.9806 160.074C52.8904 160.077 53.7805 160.313 53.9587 160.601C54.1376 160.888 53.5205 162.922 52.5879 165.121C50.9835 168.906 50.828 169.071 49.6877 168.221C48.1067 167.043 43.8719 164.866 43.8719 165.232C43.8719 165.389 45.4087 166.532 47.2873 167.773C49.8088 169.439 50.595 170.287 50.2938 171.017C50.0695 171.561 49.6096 172.969 49.2722 174.146C48.3495 177.362 48.1854 177.443 46.2699 175.617C45.2962 174.689 44.3575 174.071 44.1836 174.243C44.0102 174.417 44.8026 175.404 45.9453 176.439L48.0231 178.319L46.8797 183.726C46.2515 186.699 45.7283 189.957 45.7173 190.966C45.6804 194.355 45.1235 194.64 40.2365 193.771C37.8428 193.345 35.7669 192.808 35.6237 192.576C35.4799 192.345 35.885 190.65 36.5236 188.809C37.951 184.695 38.0321 180.29 36.7591 176.025C35.411 171.509 30.173 166.233 25.2535 164.436C15.9904 161.053 6.1101 164.823 1.61963 173.454C0.515602 175.576 -0.387413 178.113 -0.387413 179.093C-0.387413 180.207 -0.707676 180.874 -1.24309 180.874C-1.91805 180.874 -12.7935 176.934 -19.0009 174.441C-19.6298 174.188 -19.9759 173.577 -19.8148 173.004C-19.6611 172.454 -19.3857 171.042 -19.2025 169.865C-18.9075 167.969 -18.9708 168.032 -19.7582 170.412C-20.2469 171.891 -20.7565 173.21 -20.8905 173.343C-21.0246 173.476 -22.2755 173.131 -23.6697 172.576C-26.5582 171.426 -26.7506 170.638 -25.306 165.862C-24.8112 164.226 -24.5051 162.789 -24.6262 162.669C-24.8874 162.409 -26.5871 167.034 -27.0844 169.357L-27.4335 170.99L-29.9576 170.004C-31.3462 169.461 -32.6273 168.641 -32.8043 168.182C-33.7872 165.633 -25.9103 146.305 -22.7199 143.438C-21.6423 142.47 -21.3178 142.465 -18.1963 143.362C-16.3466 143.894 -14.7864 144.364 -14.7299 144.406C-14.6733 144.448 -15.0188 145.988 -15.4983 147.826C-16.4437 151.452 -16.6177 155.079 -15.8997 156.189C-15.6513 156.573 -15.4079 154.922 -15.3594 152.519C-15.2124 145.246 -11.1308 136.137 -5.26455 129.991C-2.28257 126.866 -0.400318 126.314 1.80035 127.92ZM36.7935 129.481C36.9976 129.81 36.7966 130.778 36.3466 131.632C35.6446 132.966 35.3778 133.076 34.4637 132.411C33.4857 131.7 33.4783 131.523 34.3672 130.261C35.4079 128.782 36.2009 128.527 36.7935 129.481ZM-5.80672 132.809C-8.34978 135.554 -11.2863 140.767 -12.6528 144.964C-13.2656 146.847 -13.2527 147.466 -12.5833 148.269C-12.1303 148.812 -11.8401 149.731 -11.9391 150.311C-12.2206 151.964 -10.0704 152.439 -9.07207 150.943C-8.60797 150.249 -7.86786 149.68 -7.42649 149.68C-6.17678 149.68 -4.15068 146.732 -3.7044 144.267C-3.48249 143.039 -3.10014 141.76 -2.85487 141.423C-1.93588 140.163 -1.77052 138.082 -2.53891 137.447C-2.97597 137.087 -3.19111 136.247 -3.01653 135.583C-2.77126 134.65 -2.97167 134.416 -3.89312 134.556C-5.48646 134.798 -9.03458 138.464 -8.64731 139.468C-8.25328 140.489 -10.5099 145.59 -11.8414 146.689C-12.7536 147.443 -12.8144 147.373 -12.4266 146.006C-11.2887 141.996 -6.99128 134.389 -4.69901 132.329C-3.33988 131.107 -2.47005 130.108 -2.76635 130.108C-3.06202 130.108 -4.43037 131.323 -5.80672 132.809ZM-0.486996 133.794C-0.142143 139.829 -4.34432 149.839 -9.0186 154.115C-12.4389 157.244 -14.2068 156.035 -13.6449 150.95L-13.3357 148.151L-13.9861 150.846C-14.4447 152.748 -14.4428 153.962 -13.9793 154.975C-11.156 161.141 0.116653 145.047 0.443066 134.382C0.493469 132.739 0.258038 131.117 -0.0800552 130.779C-0.49007 130.369 -0.625923 131.373 -0.486996 133.794ZM42.1993 132.096C42.3505 132.516 42.0874 133.622 41.6147 134.552C40.8568 136.047 40.5967 136.162 39.3943 135.54C38.645 135.153 37.9412 134.759 37.8293 134.665C37.718 134.572 38.0955 133.783 38.6684 132.913C39.7632 131.251 41.7333 130.795 42.1993 132.096ZM57.714 140.2C57.8806 148.748 59.2723 159.083 60.4151 160.254C60.6739 160.52 60.5226 159.006 60.0801 156.89C59.3701 153.499 58.4683 144.736 57.7638 134.389C57.6378 132.539 57.6151 135.154 57.714 140.2ZM1.48501 141.267C0.001091 146.197 -3.55379 152.299 -6.85849 155.587C-8.66513 157.385 -9.65974 158.598 -9.069 158.284C-6.90091 157.129 -2.85548 152.113 -0.812176 148.047C1.43276 143.579 2.97998 139.37 2.53862 138.932C2.38986 138.784 1.91592 139.835 1.48501 141.267ZM-4.6904 139.858C-4.6904 140.58 -5.8891 141.352 -6.32985 140.914C-6.76998 140.475 -5.99421 139.282 -5.26884 139.282C-4.95042 139.282 -4.6904 139.541 -4.6904 139.858ZM-6.53454 144.806C-6.53454 145.49 -6.96115 146.212 -7.48304 146.411C-8.76103 146.899 -8.9479 146.573 -8.32705 144.94C-7.67483 143.225 -6.53454 143.14 -6.53454 144.806ZM26.5401 165.674C30.1564 167.416 33.4464 170.725 35.3133 174.499C37.3566 178.63 37.3904 186.054 35.384 189.879C32.3602 195.643 27.6447 199.298 21.9193 200.314C15.7556 201.409 9.77564 199.575 5.43945 195.261C1.9485 191.787 0.631168 188.724 0.334877 183.388C0.0422745 178.112 0.756573 175.292 3.25354 171.861C8.64088 164.462 18.555 161.827 26.5401 165.674ZM14.6731 167.41C13.7356 167.86 13.976 167.918 15.6861 167.653C21.7146 166.718 28.7057 170.177 31.4289 175.442C33.4642 179.377 33.4642 185.43 31.4289 189.365C27.756 196.466 18.6834 199.306 11.4298 195.624C8.79456 194.286 5.49231 190.879 4.8358 188.82C4.6059 188.1 4.28441 187.643 4.12151 187.805C3.05252 188.869 8.13681 194.572 11.9068 196.54C15.0486 198.179 21.864 198.079 25.165 196.345C36.6208 190.327 36.622 174.391 25.1674 168.52C22.4615 167.133 16.5485 166.507 14.6731 167.41ZM10.9848 168.74C8.04522 170.351 3.85226 175.279 3.94016 177.021C3.95369 177.29 4.40304 176.685 4.93907 175.675C6.36828 172.983 7.59095 171.719 10.6442 169.772C13.2727 168.096 13.5186 167.352 10.9848 168.74ZM12.899 172.438L11.1249 173.08L11.5177 177.7C11.8663 181.803 11.7716 182.468 10.6731 183.631C9.61151 184.755 9.53283 185.215 10.1143 186.875C10.6823 188.497 10.9737 188.711 11.9234 188.205C13.5703 187.328 13.6551 187.39 14.1081 189.792C14.335 190.996 14.9042 192.128 15.3732 192.307C16.326 192.671 27.6115 188.403 28.7856 187.235C29.5829 186.441 29.3395 182.917 28.4494 182.37C28.1599 182.192 26.1645 182.745 24.0155 183.601C19.3209 185.47 19.5059 185.458 19.1002 183.912C18.8728 183.047 19.225 182.375 20.2577 181.701C21.7607 180.721 22.1301 178.705 21.224 176.423C20.8355 175.445 20.672 175.428 19.5772 176.251C17.8954 177.516 17.4405 177.426 17.4306 175.828C17.4067 171.863 16.4551 171.151 12.899 172.438ZM2.84106 182.403C2.84782 183.749 2.97384 184.227 3.12075 183.466C3.26767 182.706 3.26214 181.605 3.10846 181.02C2.95478 180.435 2.8343 181.058 2.84106 182.403ZM63.9718 193.348C53.6655 197.143 48.6421 208.623 52.9998 218.424C54.7185 222.289 57.6593 225.255 61.8351 227.331C64.9787 228.893 66.3028 229.194 70.0415 229.194C73.8742 229.194 75.044 228.914 78.377 227.197C83.1281 224.75 86.3535 220.778 87.8251 215.56C90.1715 207.239 85.89 198.157 77.7592 194.209C74.2492 192.505 67.4197 192.078 63.9718 193.348ZM77.9811 195.217C88.6667 200.419 91.0647 214.624 82.7224 223.304C75.9673 230.332 64.2128 230.432 57.2659 223.52C53.8063 220.077 52.2086 216.157 52.2259 211.151C52.256 202.597 57.4829 195.803 65.6942 193.645C68.9319 192.795 74.4557 193.502 77.9811 195.217ZM-25.4105 195.789C-31.1563 197.663 -36.5307 203.392 -37.9101 209.115C-39.9491 217.571 -35.5797 226.58 -27.535 230.51C-23.468 232.497 -16.0337 232.497 -11.9668 230.51C-8.35163 228.744 -4.52259 224.924 -2.73132 221.296C-0.807262 217.399 -0.763 209.929 -2.63972 205.861C-4.28899 202.287 -7.941 198.616 -11.6059 196.851C-15.1848 195.128 -21.8175 194.617 -25.4105 195.789ZM-11.767 197.664C-5.484 200.723 -1.99489 206.412 -1.99489 213.597C-1.99489 220.859 -5.47662 226.463 -11.9551 229.629C-16.4173 231.809 -22.498 231.952 -26.9117 229.982C-30.5483 228.358 -34.5636 224.375 -36.2436 220.722C-38.1339 216.615 -38.073 209.709 -36.1139 205.952C-33.5235 200.984 -29.191 197.441 -24.0539 196.092C-20.8162 195.241 -15.2924 195.948 -11.767 197.664ZM64.7168 197.004C58.6926 199.147 54.871 204.713 55.0271 211.118L55.1169 214.821L55.5293 210.539C55.9861 205.804 57.0249 203.391 59.6461 200.985C62.7264 198.156 64.6099 197.305 68.8858 196.81C72.8194 196.355 72.8864 196.323 69.9972 196.272C68.3068 196.243 65.9303 196.572 64.7168 197.004ZM76.3871 198.389C78.3499 199.362 80.3465 200.974 81.426 202.456C82.4089 203.807 83.2135 204.707 83.2135 204.456C83.2135 202.514 76.3742 196.777 74.0592 196.777C73.5521 196.777 74.5996 197.503 76.3871 198.389ZM-25.3571 199.715C-26.75 200.286 -28.5923 201.323 -29.451 202.021C-31.2478 203.48 -34.2095 207.633 -34.1696 208.637C-34.1542 209.01 -33.609 208.312 -32.9574 207.085C-32.3064 205.858 -30.6473 203.895 -29.2709 202.723C-18.9899 193.967 -2.96429 203.535 -5.92168 216.664C-8.50654 228.142 -22.7249 231.862 -31.0087 223.228L-33.2069 220.937L-31.664 223.078C-28.3765 227.638 -21.1444 229.689 -14.9088 227.83C-8.44937 225.904 -3.75174 217.81 -5.16988 211.05C-7.13819 201.671 -16.8353 196.226 -25.3571 199.715ZM64.19 200.714C63.6368 201.377 63.6282 201.938 64.1562 203.007L64.8545 204.423L63.7228 203.031C62.7332 201.813 62.4492 201.742 61.4527 202.467C60.5276 203.141 60.4415 203.534 60.9941 204.562C61.5695 205.632 61.4398 205.98 60.1495 206.821C58.4056 207.958 58.3386 208.277 59.5164 209.823C60.1643 210.674 60.6401 210.797 61.5013 210.339C62.4701 209.822 63.0073 210.306 65.2043 213.671C67.6097 217.354 67.7019 217.652 66.6433 218.31C65.7194 218.884 65.6315 219.273 66.1633 220.434C66.9163 222.079 67.0263 222.098 69.0751 220.951C70.4595 220.175 70.7047 220.209 71.5487 221.294C72.3614 222.338 72.6362 222.388 73.624 221.669C74.61 220.952 74.658 220.641 73.9812 219.36C73.2036 217.887 73.2066 217.886 74.4951 219.023C76.2722 220.593 77.9418 219.913 77.4174 217.834C77.1248 216.675 77.426 215.796 78.5817 214.429C81.1032 211.447 80.2303 207.557 76.7591 206.309C75.703 205.929 74.8258 205.124 74.7059 204.423C74.2855 201.965 72.6663 200.906 69.9038 201.283C68.0695 201.533 67.1376 201.377 66.5997 200.733C65.6604 199.607 65.117 199.602 64.19 200.714ZM-23.6721 202.778C-24.695 204.65 -27.4348 211.918 -27.4348 212.759C-27.4348 213.125 -26.9522 213.255 -26.359 213.05C-25.3343 212.695 -25.3343 212.717 -26.359 213.511C-26.951 213.969 -27.4348 214.5 -27.4348 214.691C-27.4348 215.172 -20.8709 217.573 -19.5572 217.573C-18.969 217.573 -17.1125 216.363 -15.4313 214.885L-12.3743 212.197L-14.5258 211.523L-16.6773 210.849L-14.626 211.148L-12.5753 211.447L-15.0323 208.546C-16.3841 206.951 -18.4827 204.697 -19.6962 203.538C-21.8821 201.45 -21.903 201.444 -21.9638 202.927L-22.0247 204.423L-22.4624 202.894L-22.9 201.364L-23.6721 202.778ZM-21.4954 206.716C-21.6657 207.137 -21.8052 206.793 -21.8052 205.952C-21.8052 205.111 -21.6657 204.767 -21.4954 205.187C-21.3245 205.608 -21.3245 206.296 -21.4954 206.716ZM70.5634 206.774C70.4078 207.178 69.6843 207.878 68.9547 208.331C67.8027 209.047 67.5242 209.014 66.8345 208.075C65.902 206.806 66.2432 206.055 68.0621 205.368C69.538 204.81 71.0029 205.634 70.5634 206.774ZM84.0041 210.233C83.9444 219.261 78.3137 225.147 69.6899 225.196C66.3901 225.215 65.1815 224.919 62.7485 223.496C61.1281 222.548 58.9846 220.649 57.9845 219.275C56.9844 217.902 56.1662 217.113 56.1662 217.521C56.1662 217.93 57.6187 219.701 59.3934 221.456C63.8237 225.838 68.0264 227.013 73.6855 225.45C80.8106 223.483 86.0437 215.429 84.5671 208.704C84.06 206.395 84.0287 206.48 84.0041 210.233ZM-18.6321 210.325C-16.7738 210.412 -16.7609 210.429 -18.3678 210.671C-19.5824 210.855 -20.0816 211.302 -20.1418 212.262C-20.2224 213.542 -20.2371 213.539 -20.4984 212.175C-20.6957 211.143 -21.0534 210.858 -21.7979 211.14C-22.621 211.452 -22.672 211.376 -22.056 210.759C-21.6331 210.335 -21.2502 209.425 -21.204 208.735C-21.1284 207.601 -21.0946 207.613 -20.8537 208.857C-20.649 209.914 -20.1338 210.255 -18.6321 210.325ZM-34.7142 210.845C-34.7142 211.686 -34.5747 212.03 -34.4044 211.61C-34.2335 211.189 -34.2335 210.501 -34.4044 210.08C-34.5747 209.66 -34.7142 210.004 -34.7142 210.845ZM75.1024 211.244C75.3563 213.005 71.7061 215.745 70.8351 214.449C69.0499 211.791 69.061 211.617 71.0883 210.614C73.5877 209.378 74.8627 209.578 75.1024 211.244ZM-35.3289 213.903C-35.3289 214.744 -35.1894 215.089 -35.0191 214.668C-34.8482 214.248 -34.8482 213.559 -35.0191 213.139C-35.1894 212.718 -35.3289 213.062 -35.3289 213.903ZM-16.2163 216.913C-17.9916 218.555 -19.4435 219.719 -19.4435 219.498C-19.4435 219.007 -26.7936 216.12 -27.1471 216.472C-27.2854 216.609 -25.3325 218.765 -22.8066 221.261C-19.2861 224.74 -18.2043 225.518 -18.1711 224.592C-18.128 223.4 -18.1206 223.4 -17.6203 224.607C-17.1887 225.646 -16.8605 225.277 -15.4405 222.16C-13.1894 217.218 -12.0282 213.901 -12.555 213.914C-12.7935 213.92 -14.441 215.269 -16.2163 216.913ZM-19.6384 215.853C-19.8345 216.341 -19.9802 216.196 -20.0097 215.483C-20.0361 214.838 -19.891 214.478 -19.6869 214.681C-19.4829 214.884 -19.4607 215.412 -19.6384 215.853ZM-34.8021 216.706C-34.7966 217.351 -34.512 218.292 -34.1683 218.796C-33.7128 219.466 -33.6557 219.219 -33.9569 217.879C-34.4628 215.63 -34.8144 215.142 -34.8021 216.706ZM-18.4219 222.619C-18.5921 223.04 -18.7317 222.696 -18.7317 221.855C-18.7317 221.014 -18.5921 220.67 -18.4219 221.09C-18.251 221.511 -18.251 222.199 -18.4219 222.619Z" fill="#121A17"/>
</svg>
