<svg width="378" height="183" viewBox="0 0 378 183" fill="none" xmlns="http://www.w3.org/2000/svg">
<path d="M355.386 82.8568C355.74 90.4365 351.537 98.1022 343.097 105.504C334.671 112.893 322.211 119.841 306.565 125.946C275.289 138.151 231.604 146.863 182.937 149.138C134.271 151.413 89.9633 146.813 57.6846 137.58C41.5374 132.96 28.484 127.205 19.4058 120.634C10.3121 114.053 5.41168 106.812 5.05737 99.2327C4.70306 91.6529 8.90669 83.9872 17.3468 76.5857C25.7725 69.1968 38.2321 62.2489 53.8779 56.1436C85.1546 43.939 128.84 35.2262 177.506 32.9513C226.172 30.6765 270.48 35.2761 302.759 44.5099C318.906 49.129 331.959 54.8843 341.038 61.455C350.131 68.037 355.032 75.2771 355.386 82.8568Z" stroke="#3FB488" stroke-width="3"/>
<path d="M364.524 58.9583C365.932 66.4146 362.838 74.5915 355.512 83.0974C348.199 91.5887 336.829 100.206 322.187 108.433C292.918 124.878 250.874 139.596 203 148.634C155.126 157.671 110.61 159.293 77.3588 154.65C60.7253 152.327 46.9971 148.447 37.0915 143.207C27.1689 137.957 21.307 131.47 19.8995 124.014C18.492 116.558 21.5858 108.381 28.9116 99.8751C36.2249 91.3837 47.5943 82.7666 62.2361 74.5397C91.5059 58.0939 133.55 43.376 181.424 34.3387C229.298 25.3014 273.814 23.6791 307.065 28.3227C323.698 30.6456 337.426 34.5249 347.332 39.7659C357.255 45.0157 363.116 51.502 364.524 58.9583Z" stroke="#3FB488" stroke-width="3"/>
</svg>
