<svg width="346" height="336" viewBox="0 0 308 300" fill="none" xmlns="http://www.w3.org/2000/svg">
<mask id="mask0_495_11053" style="mask-type:alpha" maskUnits="userSpaceOnUse" x="0" y="0" width="345" height="336">
<rect width="345" height="336" rx="2" fill="white"/>
</mask>
<g mask="url(#mask0_495_11053)">
<path fill-rule="evenodd" clip-rule="evenodd" d="M281.335 18.03C279.801 24.8433 279.223 31.4196 280.248 30.3904C281.005 29.6317 283.707 13.3487 283.288 12.0854C283.086 11.4805 282.207 14.1552 281.335 18.03ZM251.653 19.107C253.275 24.6025 258.041 36.3131 258.865 36.8243C260.369 37.757 259.892 36.1631 255.853 26.7516C251.905 17.5542 250.37 14.7591 251.653 19.107ZM204.271 24.8404C202.94 25.8916 201.094 26.7516 200.171 26.7516C199.247 26.7516 197.747 27.4281 196.836 28.2547C195.321 29.6317 195.131 29.5983 194.581 27.8572C194.25 26.8108 192.765 25.5313 191.281 25.0115C187.854 23.8122 184.526 25.3526 182.817 28.9294C182.081 30.4707 180.804 31.5295 179.68 31.5295C178.638 31.5295 176.733 32.5854 175.448 33.8754C172.033 37.3021 172.192 43.177 175.797 46.7948C178.452 49.4599 178.466 49.5354 176.988 53.1724C176.164 55.1963 174.643 58.1089 173.607 59.6455C172.409 61.4228 171.77 63.8567 171.851 66.3345C172.038 72.0565 169.706 82.2831 166.477 89.8991C162.203 99.9795 161.391 103.708 162.642 107.512C163.93 111.429 168.863 115.967 173.505 117.505C177.3 118.761 178.054 120.398 174.838 120.398C171.177 120.398 160.44 123.423 154.544 126.115C145.804 130.106 137.579 136.781 130.801 145.384C121.177 157.599 108.613 183.839 104.144 201.058C103.302 204.305 101.283 208.196 98.82 211.323C93.0035 218.709 87.2727 230.857 81.7913 247.422C79.1263 255.475 76.9459 262.734 76.9459 263.553C76.9459 264.372 76.0452 266.909 74.9455 269.191C73.4231 272.346 73.2022 273.651 74.02 274.64C74.8503 275.644 74.4104 277.049 72.1015 280.778C70.3867 283.546 68.9005 287.449 68.6243 289.906C67.8226 297.041 70.1116 302.233 71.7597 297.022L72.4138 294.951L74.1971 297.26C75.5587 299.024 76.1709 299.276 76.7879 298.324C77.2325 297.64 78.1999 297.21 78.9378 297.368C79.8784 297.572 80.3031 296.661 80.3612 294.313C80.445 290.948 83.0966 283.802 84.263 283.802C84.6067 283.802 85.6636 284.505 86.609 285.364C88.2143 286.823 88.5599 286.751 91.7515 284.308C93.6338 282.868 95.4067 281.078 95.6932 280.33C95.9789 279.583 99.2685 276.998 103.004 274.587C106.738 272.177 111.58 268.748 113.763 266.97C115.946 265.19 117.874 263.736 118.047 263.738C118.221 263.739 118.468 270.048 118.596 277.758C118.825 291.619 120.738 312.061 122.715 321.789C123.359 324.956 124.391 327.16 125.51 327.762C126.57 328.331 138.227 328.714 154.481 328.714C179.752 328.714 181.68 328.596 181.676 327.042C181.674 326.123 180.581 319.78 179.248 312.947C177.914 306.115 176.637 297.085 176.41 292.88L175.995 285.235L177.854 293.836C182.541 315.532 184.833 324.586 186.174 326.707L187.623 329L220.855 328.477C246.665 328.071 254.431 327.667 255.628 326.67C256.982 325.543 257.092 323.526 256.531 310.089C255.678 289.681 253.597 266.027 249.807 233.634C248.086 218.918 246.748 206.785 246.834 206.673C246.921 206.56 249.757 207.626 253.135 209.043C258.167 211.154 260.755 211.623 267.438 211.638C274.658 211.654 276.249 211.323 281.244 208.768C287.521 205.556 292.237 199.674 294.129 192.694C296.733 183.095 294.172 152.542 288.911 130.432C287.661 125.176 286.353 119.264 286.006 117.293C285.617 115.084 284.843 113.709 283.99 113.709C282.502 113.709 282.117 110.225 283.385 108.223C283.797 107.572 287.54 106.057 291.7 104.859L299.267 102.679L299.009 96.0109C298.676 87.3696 294.61 62.3058 292.347 54.9411L290.586 49.2077L283.802 49.3348C276.724 49.4666 265.615 52.32 261.896 54.9612C259.064 56.9737 259.119 60.6956 262.181 74.0527C266.051 90.9387 265.95 90.2106 264.341 89.5904C263.556 89.2884 262.376 89.3744 261.719 89.7815C260.813 90.3444 261.119 91.6411 262.996 95.1805C264.354 97.7424 265.469 100.702 265.472 101.757C265.476 102.812 266.159 104.966 266.99 106.542C268.277 108.983 268.343 110.403 267.434 116.098C265.891 125.76 263.593 135.424 261.472 141.172L259.625 146.177L253.104 140.545C240.15 129.355 227.761 122.278 217.622 120.275C211.105 118.988 211.163 119.301 214.874 105.615C217.452 96.1036 217.463 96.0855 220.558 95.9288C224.508 95.73 227.181 93.2981 227.946 89.2063C228.676 85.2989 226.38 81.2195 223.449 81.2195C222.032 81.2195 221.63 80.7886 222.043 79.7078C222.361 78.8765 222.621 77.81 222.621 77.3389C222.621 76.8669 224.321 75.6103 226.398 74.5467C230.351 72.5228 232.142 70.1893 232.142 67.0655C232.142 66.044 232.959 64.6183 233.958 63.8968C236.976 61.7172 237.32 58.6163 234.82 56.1155C233.549 54.8446 232.744 53.0443 232.914 51.8585C233.078 50.728 232.337 48.9258 231.268 47.8527C229.869 46.4489 229.475 45.1512 229.861 43.2181C230.32 40.9133 229.778 40.0045 226.032 36.8005C223.632 34.7479 221.669 32.3159 221.669 31.3976C221.669 29.4626 218.212 26.7516 215.744 26.7516C214.814 26.7516 213.195 25.8916 212.148 24.8404C211.1 23.7893 209.445 22.9293 208.468 22.9293C207.491 22.9293 205.603 23.7893 204.271 24.8404ZM40.8651 29.0182C40.6671 36.3303 44.6546 58.6497 45.9047 57.224C46.0837 57.0195 45.0459 49.7571 43.5977 41.0853C42.1505 32.4134 40.9204 26.9828 40.8651 29.0182ZM305.78 34.2577C300.734 38.2902 297.312 41.8459 297.924 42.4193C298.139 42.6209 301.294 40.0379 304.936 36.68C312.353 29.8391 312.757 28.6799 305.78 34.2577ZM77.0402 40.8464C69.3889 51.2927 64.7701 58.7119 66.2555 58.1691C66.7982 57.9703 70.818 52.4328 75.1883 45.8632C85.0418 31.0526 84.7391 31.5295 84.2601 31.5295C84.0421 31.5295 80.7925 35.7226 77.0402 40.8464ZM204.741 39.09C206.69 39.5449 210.169 41.0251 212.473 42.3791L216.661 44.8426L215.64 48.6802C214.748 52.0371 214.87 52.8551 216.615 55.2249C218.091 57.2288 218.369 58.364 217.682 59.5939C217.012 60.796 217.231 61.9666 218.474 63.8318C219.418 65.249 220.203 67.572 220.216 68.9939C220.238 71.2615 219.955 71.508 217.919 70.9958C216.643 70.6738 214.072 68.8228 212.207 66.8811C209.474 64.0383 207.335 62.9565 201.198 61.3177C197.009 60.1978 190.154 58.8065 185.964 58.2236C181.775 57.6416 178.229 57.0482 178.085 56.9049C177.479 56.3028 181.977 47.115 183.886 45.0557C188.745 39.8153 197.325 37.3614 204.741 39.09ZM242.14 48.7538C248.283 51.695 254.24 53.4629 252.613 51.8623C251.394 50.663 239.166 45.8383 237.606 45.9415C236.958 45.9836 238.998 47.2497 242.14 48.7538ZM12.289 59.2412C17.6419 65.8108 22.4511 71.3522 22.9766 71.5558C24.8999 72.2992 17.2382 62.5389 9.99726 55.0214L2.55736 47.2965L12.289 59.2412ZM185.497 49.007C184.192 49.6692 182.964 51.0605 182.768 52.0983C182.418 53.9493 182.449 53.9512 184.4 52.1891C185.834 50.8933 187.193 50.5531 189.271 50.9707C192.501 51.6186 193.133 50.2789 190.312 48.7633C188.069 47.5593 188.378 47.544 185.497 49.007ZM276.892 52.5522C276.892 53.0778 276.464 53.5078 275.94 53.5078C275.416 53.5078 274.988 53.0778 274.988 52.5522C274.988 52.0266 275.416 51.5966 275.94 51.5966C276.464 51.5966 276.892 52.0266 276.892 52.5522ZM203.102 54.4634C202.779 54.9889 203.261 55.4189 204.175 55.4189C205.089 55.4189 206.826 56.3525 208.036 57.4935C210.81 60.1089 211.963 59.1256 209.874 55.9263C208.269 53.4667 204.251 52.599 203.102 54.4634ZM287.497 56.1356C289.112 60.2264 293.923 84.7256 294.612 92.3664L295.232 99.2341L291.45 100.257C286.436 101.612 278.017 103.198 275.841 103.198C274.481 103.198 273.579 101.46 271.746 95.3143C269.045 86.2526 265.906 71.7096 264.973 63.9341C264.348 58.7157 264.395 58.5676 267.042 57.4925C270.779 55.9741 280.621 53.6836 283.819 53.5871C285.852 53.5259 286.7 54.1136 287.497 56.1356ZM185.486 64.9776C182.817 68.3584 178.556 70.7588 177.357 69.5548C177.123 69.3197 178.461 67.3331 180.331 65.14C182.643 62.4291 184.496 61.1524 186.118 61.1524H188.504L185.486 64.9776ZM208.126 67.9265C208.271 68.6747 207.125 70.7894 205.58 72.6251C203.049 75.6332 202.623 75.8186 201.276 74.5018C199.922 73.1774 200.059 72.7025 202.738 69.4411C205.674 65.8663 207.622 65.3187 208.126 67.9265ZM302.123 66.8859C301.751 67.4908 303.912 67.8013 308.018 67.7316C314.001 67.6303 314.208 67.5605 310.692 66.8314C305.447 65.742 302.817 65.7592 302.123 66.8859ZM102.653 72.0603C90.9498 76.6519 83.8897 79.9935 83.0662 81.3313C82.5891 82.1054 82.8005 82.3099 83.6927 81.9362C86.1368 80.9128 106.881 71.6361 109.794 70.2648C115.048 67.7899 110.838 68.8486 102.653 72.0603ZM282.001 70.2189C281.27 72.132 283.366 80.6328 285.106 82.8144C286.392 84.4255 286.458 84.3309 285.94 81.6104C285.551 79.5683 285.83 78.2792 286.847 77.4326C288.595 75.9772 288.788 71.5625 287.175 69.9437C285.59 68.3527 282.655 68.5084 282.001 70.2189ZM46.9635 71.6485C45.6953 73.7087 43.5701 82.2745 44.1109 83.1517C44.427 83.6658 45.2782 84.0863 46.0019 84.0863C46.7255 84.0863 47.5576 84.4761 47.8509 84.953C48.1451 85.4289 47.5262 85.5942 46.4779 85.319C44.9583 84.9195 44.4556 85.3964 44.0043 87.662C43.2502 91.4442 35.5504 97.214 29.5596 98.4849C27.0822 99.0105 11.5587 99.818 -4.93681 100.279C-27.5964 100.913 -36.316 101.499 -40.6015 102.675C-43.7216 103.532 -46.4713 104.43 -46.7113 104.671C-47.8738 105.837 -45.6487 105.683 -37.7851 104.052C-31.1869 102.684 -24.9448 102.267 -10.6496 102.241C6.11259 102.213 19.6213 101.386 29.5977 99.7788C31.5715 99.4615 35.3105 97.7348 37.9059 95.944C42.5123 92.7639 47.6414 91.6669 48.8363 93.6057C49.1477 94.1112 48.1746 94.8642 46.6731 95.278C45.1726 95.6918 42.479 97.7252 40.689 99.7969C38.6629 102.14 38.0621 103.325 39.099 102.932C40.2891 102.482 40.7537 102.772 40.7261 103.944C40.7033 104.918 37.5975 107.631 33.1015 110.604C25.7559 115.461 25.3008 115.62 18.8035 115.62C10.2163 115.62 3.87415 117.221 2.20412 119.811C1.48812 120.922 0.6036 124.522 0.238936 127.811L-0.423742 133.789L-5.77468 137.048C-13.9887 142.052 -26.6138 147.967 -33.7386 150.149C-37.2729 151.233 -40.1654 152.507 -40.1654 152.981C-40.1654 154.296 -38.7458 154.054 -30.8241 151.385C-23.0319 148.76 -10.6924 142.818 -5.06726 138.981C-3.1811 137.695 -1.41681 136.643 -1.14546 136.642C-0.8741 136.642 -0.774125 146.687 -0.923609 158.965L-1.19401 181.29L-6.88581 181.887C-13.0994 182.539 -19.5929 185.355 -20.5298 187.804C-23.2376 194.887 -14.0087 201.852 7.91687 209.276L18.3902 212.822L15.0578 214.24C13.225 215.02 9.48692 216.233 6.75052 216.937C2.58116 218.01 1.38625 218.007 -0.63321 216.922C-2.60506 215.862 -4.20844 215.838 -9.46417 216.784C-18.6474 218.437 -24.8067 220.626 -25.8664 222.614C-26.371 223.56 -28.4019 224.629 -30.3804 224.989C-36.7654 226.152 -43.6302 228.389 -45.4916 229.914C-47.2654 231.368 -47.2635 231.388 -45.4021 230.778C-42.4039 229.796 -28.5286 225.84 -25.7588 225.176C-23.4832 224.632 -23.0757 224.993 -21.3286 229.106C-19.4729 233.471 -13.5059 251.962 -13.5059 253.346C-13.5059 253.718 -19.6119 258.645 -27.0737 264.296C-34.5365 269.946 -40.8205 274.713 -41.0385 274.886C-41.2566 275.06 -41.2204 275.417 -40.9595 275.68C-40.6977 275.942 -35.8056 272.709 -30.0891 268.494L-19.6947 260.831L-19.1063 275.423C-18.7836 283.448 -18.4617 293.971 -18.3922 298.809L-18.2666 307.605L-14.9341 308.126C-13.1013 308.413 -10.1668 308.87 -8.41397 309.141C-5.58807 309.579 -5.21579 309.983 -5.13867 312.695C-5.01584 317.045 -2.67266 318.483 3.08293 317.741C9.60403 316.901 11.5483 315.707 10.8618 312.963C10.3591 310.949 10.7647 310.64 15.3015 309.575C18.0475 308.931 21.6875 307.836 23.3889 307.141C26.2329 305.98 26.4833 306.024 26.4833 307.684C26.4833 308.677 26.8756 309.734 27.3554 310.031C28.4075 310.683 38.044 308.763 39.2123 307.668C41.8106 305.23 30.8545 272.568 19.7365 249.607C15.592 241.048 12.2014 233.682 12.2014 233.239C12.2014 232.795 15.1302 229.692 18.7102 226.344C27.6211 218.009 33.6223 215.776 43.6215 217.081C47.5491 217.593 56.7609 217.852 64.0922 217.657C75.1816 217.361 78.1818 216.957 81.9398 215.251C87.2688 212.833 89.2521 209.579 87.6069 205.954C86.4348 203.373 80.5354 198.727 74.5656 195.684C72.4709 194.616 70.6362 193.639 70.4886 193.511C70.341 193.384 73.8201 185.374 78.2189 175.712C85.8026 159.056 92.1799 142.417 92.1799 139.286C92.1799 134.539 78.8444 126.722 63.1401 122.264C58.9508 121.076 54.988 119.443 54.3329 118.634C52.9181 116.889 52.7277 106.434 54.0949 105.587C54.6186 105.262 55.047 103.331 55.047 101.294C55.047 98.3989 55.4736 97.4577 57.0037 96.9703C59.403 96.2059 58.9898 94.4467 56.1106 93.1643C54.4072 92.4065 54.0711 91.6659 54.4815 89.5809C54.809 87.9191 54.591 86.953 53.8893 86.953C53.278 86.953 53.5065 86.416 54.3948 85.7585C55.506 84.9367 56.1544 82.7064 56.4676 78.6185C56.8637 73.4593 56.6828 72.5419 55.0966 71.6905C52.7724 70.4416 47.7223 70.4158 46.9635 71.6485ZM190.249 71.4726C190.249 71.8931 189.869 72.6451 189.403 73.1449C188.939 73.6447 188.275 74.9959 187.928 76.1492C187.051 79.0647 190.897 81.6534 194.158 80.3442C196.437 79.4297 196.437 79.4297 193.79 79.3686C192.309 79.3351 190.89 78.649 190.57 77.8139C189.896 76.0499 191.687 71.6638 193.082 71.6638C193.615 71.6638 196.671 73.5988 199.872 75.9639C206.387 80.7771 207.971 81.1039 211.455 78.3528C212.874 77.2329 215.318 76.4417 217.36 76.4417C220.532 76.4417 220.786 76.6347 220.195 78.5917C219.355 81.3724 216.162 84.8679 212.909 86.566C208.626 88.803 202.124 88.1618 191.406 84.4475C182.983 81.5291 180.635 81.08 176.416 81.5769L171.413 82.1675L172.509 77.2128L173.605 72.2591L180.096 72.0469C183.667 71.9304 186.84 71.5806 187.149 71.271C187.977 70.4397 190.249 70.5868 190.249 71.4726ZM277.221 72.3804C277.472 73.3007 278.187 76.3098 278.808 79.0695C279.867 83.7681 281.653 85.9602 281.653 82.5612C281.653 79.6992 278.664 70.7082 277.713 70.7082C277.191 70.7082 276.969 71.4602 277.221 72.3804ZM286.069 72.1416C286.37 72.9299 286.334 74.3155 285.988 75.2204C285.449 76.6299 285.232 76.6643 284.473 75.4593C283.281 73.5692 283.321 70.7082 284.539 70.7082C285.079 70.7082 285.768 71.3532 286.069 72.1416ZM54.4929 72.2438C56.9532 73.1917 56.2086 74.5305 53.2209 74.5305C49.6752 74.5305 47.291 73.6179 47.968 72.519C48.5707 71.5405 52.2621 71.3847 54.4929 72.2438ZM274.277 76.1569C274.538 81.6973 273.935 81.6448 272.037 75.9639C271.033 72.9557 270.692 72.5849 270.437 74.2209C270.016 76.9271 273.985 86.1799 275.358 85.6916C276.656 85.2291 276.438 76.8678 275.041 73.5548C274.194 71.5453 274.078 71.939 274.277 76.1569ZM53.8569 75.7374C54.5586 75.4947 55.047 76.1435 55.047 77.3179C55.047 78.8172 54.4453 79.3084 52.6039 79.3084C49.2572 79.3084 46.4417 77.6476 47.0578 76.0355C47.4215 75.0866 48.3003 74.9108 50.1169 75.4259C51.5194 75.8224 53.2028 75.9629 53.8569 75.7374ZM247.122 78.1225C244.103 79.984 241.824 81.6992 242.06 81.9353C242.629 82.5067 251.883 77.4221 253.222 75.8033C254.901 73.7727 253.02 74.4885 247.122 78.1225ZM-16.7479 82.1474C-14.6228 84.221 8.4015 92.2976 8.38436 90.9626C8.3796 90.5966 2.52879 88.2746 -4.6169 85.8015C-11.7626 83.3295 -17.2211 81.6849 -16.7479 82.1474ZM225.747 85.3744C226.35 87.1929 226.302 88.8623 225.602 90.4055C224.501 92.8298 220.218 95.3707 219.109 94.2584C218.525 93.6726 220.324 84.7246 221.405 82.8392C222.313 81.2539 224.876 82.7494 225.747 85.3744ZM265.588 92.3425C266.306 93.2044 267.967 96.9665 269.278 100.704L271.661 107.498L276.657 107.457C279.405 107.435 281.647 107.65 281.639 107.935C281.527 112.428 279.582 113.437 273.421 112.2C270.524 111.618 268.664 108.295 266.493 99.8237C265.95 97.7052 264.868 95.1251 264.088 94.0902C261.613 90.8049 262.979 89.213 265.588 92.3425ZM57.9034 95.1872C57.9034 95.3879 57.0465 95.5532 55.9992 95.5532C54.9518 95.5532 54.0949 95.1633 54.0949 94.6875C54.0949 94.2106 54.9518 94.0463 55.9992 94.3205C57.0465 94.5957 57.9034 94.9856 57.9034 95.1872ZM186.904 98.4199C188.253 98.4199 190.844 97.7969 192.66 97.0353C196.365 95.4815 197.078 96.5709 193.845 98.8433C191.308 100.627 183.59 100.811 181.519 99.1366C179.892 97.8208 178.688 95.0515 179.423 94.3148C179.68 94.0558 180.916 94.8738 182.17 96.1323C183.424 97.3908 185.554 98.4199 186.904 98.4199ZM52.9924 98.9799C52.1469 99.8285 50.4854 100.323 49.2181 100.102L46.954 99.7071L49.3343 98.6464C50.6435 98.0626 52.3421 97.558 53.1085 97.5246C54.2796 97.4739 54.2615 97.7071 52.9924 98.9799ZM53.6189 102.242C53.2951 102.768 51.8774 103.191 50.4683 103.184C48.4641 103.172 48.2175 102.967 49.3343 102.242C51.2157 101.022 54.3701 101.022 53.6189 102.242ZM53.1428 105.109C52.3573 105.618 50.8577 106.035 49.8104 106.035C48.2336 106.035 48.1518 105.876 49.3343 105.109C50.1198 104.6 51.6194 104.183 52.6667 104.183C54.2434 104.183 54.3253 104.342 53.1428 105.109ZM38.4839 112.186C36.8043 116.22 35.1657 117.092 31.54 115.878L28.9169 115.001L34.0746 111.515C36.911 109.598 39.3874 108.186 39.5779 108.377C39.7683 108.568 39.276 110.282 38.4839 112.186ZM210.168 116.712L208.496 125.448L201.99 132.084C193.027 141.228 184.659 147.66 183.386 146.382C181.723 144.714 179.675 135.666 179.11 127.491L178.576 119.772L186.641 120.197C196.542 120.718 201.51 118.86 207.597 112.354C209.838 109.96 211.71 107.995 211.756 107.988C211.802 107.981 211.088 111.907 210.168 116.712ZM80.2783 109.689C81.1772 110.543 105.642 114.777 108.474 114.567C111.081 114.374 101.356 112.401 82.6587 109.33C80.5421 108.982 79.6737 109.113 80.2783 109.689ZM48.8582 114.422C49.3819 115.241 50.5597 116.587 51.4766 117.412C53.5341 119.264 53.6998 121.773 51.7146 121.008C50.9291 120.706 50.2864 120.875 50.2864 121.383C50.2864 123.162 46.4589 126.132 44.1671 126.132C41.4355 126.132 37.5908 121.723 38.2192 119.311C38.521 118.152 38.2211 117.838 37.1919 118.234C34.4307 119.297 37.3537 115.682 40.8128 113.755C44.3471 111.788 47.3329 112.035 48.8582 114.422ZM41.704 114.483C38.8895 116.771 38.8895 121.159 41.704 123.447C42.8741 124.397 44.2328 125.176 44.7222 125.176C46.1875 125.176 50.2864 120.601 50.2864 118.965C50.2864 117.329 46.1875 112.754 44.7222 112.754C44.2328 112.754 42.8741 113.532 41.704 114.483ZM283.68 115.503C284.008 115.831 284.563 117.711 284.913 119.682L285.548 123.265L280.981 123.242C276.424 123.219 269.584 121.983 268.61 121.004C268.326 120.72 268.374 118.989 268.717 117.157L269.34 113.826L276.21 114.367C279.989 114.665 283.35 115.176 283.68 115.503ZM47.392 117.008C48.7592 118.661 47.929 121.913 45.9438 122.677C45.1668 122.976 43.6739 122.362 42.6256 121.31C41.1156 119.794 40.9299 119.008 41.7287 117.51C42.9122 115.291 45.7629 115.037 47.392 117.008ZM31.6981 117.525L34.5335 117.532L31.9494 120.124C29.8681 122.213 28.6361 122.664 25.6093 122.445C21.3723 122.138 17.9142 123.596 17.9142 125.687C17.9142 127.497 17.7142 127.469 13.6487 125.061C10.48 123.185 10.0991 123.149 8.52052 124.583C7.58268 125.435 6.32777 126.132 5.7327 126.132C4.20168 126.132 2.57735 122.734 3.25812 120.954C4.2807 118.28 13.1288 116.539 22.6748 117.133C26.0787 117.344 30.1395 117.521 31.6981 117.525ZM42.2553 118.387C41.6183 119.421 44.3852 120.628 45.6277 119.857C46.1123 119.556 46.2627 118.91 45.9609 118.421C45.264 117.289 42.9446 117.267 42.2553 118.387ZM279.748 118.965C279.748 119.841 280.209 120.403 280.772 120.215C281.335 120.027 281.796 119.464 281.796 118.965C281.796 118.466 281.335 117.903 280.772 117.715C280.209 117.527 279.748 118.089 279.748 118.965ZM65.1824 124.327C79.7813 128.838 90.2757 134.975 90.2757 139.001C90.2757 141.937 88.1876 142.612 86.9308 140.08C86.3919 138.996 84.681 137.671 83.13 137.137C81.578 136.602 79.5519 135.413 78.6274 134.493C77.6343 133.505 75.4854 132.815 73.3754 132.806C71.4122 132.799 67.956 132.146 65.6956 131.356C63.4353 130.567 61.2606 130.121 60.8636 130.368C60.4665 130.613 59.2154 128.902 58.0824 126.563C55.6421 121.52 55.8697 121.448 65.1824 124.327ZM227.408 134.059C229.855 138.965 231.19 142.942 231.19 145.325V149.009L221.907 153.576C215.823 156.57 212.511 158.755 212.296 159.917C212.113 160.909 213.205 163.013 214.777 164.695C218.263 168.425 219.086 170.658 217.838 172.998C217.304 173.997 211.893 181.598 205.812 189.891C190.67 210.54 182.609 222.645 184.004 222.645C184.537 222.645 188.231 217.708 207.722 190.947C216.447 178.967 220.717 172.296 220.717 170.643C220.717 169.173 219.375 166.692 217.384 164.481C215.551 162.445 214.052 160.491 214.052 160.142C214.052 159.791 218.229 157.478 223.335 155.002C232.482 150.565 232.623 150.445 232.916 146.867C233.305 142.144 231.036 135.428 226.951 129.201C225.154 126.461 224.103 124.221 224.618 124.221C227.655 124.221 245.923 136.106 254.391 143.592L259.027 147.69L254.657 157.258C252.254 162.52 249.632 168.691 248.83 170.97C246.591 177.339 245.325 186.755 246.36 189.346C247.222 191.505 247.258 191.482 247.332 188.722C247.505 182.295 250.393 172.472 255.883 159.644C259.075 152.187 263.199 141.076 265.049 134.95C266.9 128.824 268.565 123.66 268.75 123.472C268.937 123.286 271.566 123.593 274.594 124.155C277.621 124.717 281.459 125.176 283.122 125.176H286.147L288.179 135.449C293.399 161.835 294.378 187.224 290.51 195.956C284.524 209.472 268.563 214.035 252.945 206.695C245.76 203.317 236.345 195.485 229.762 187.409C227.144 184.197 224.656 181.566 224.233 181.562C222.358 181.546 227.605 188.405 235.535 196.336L244.164 204.967L246.769 226.467C250.809 259.814 252.098 273.101 252.118 281.633L252.137 289.496L248.462 291.379C237.081 297.206 212.571 302.193 197.39 301.771L186.916 301.48L185.291 298.136C181.79 290.935 178.847 276.535 176.859 256.894L174.847 237.009L178.878 224.81C188.148 196.751 200.156 166.425 213.323 137.816C219.809 123.726 220.104 123.276 221.835 124.848C222.82 125.744 225.329 129.889 227.408 134.059ZM25.8701 127.062C24.3734 129.606 24.0354 129.756 22.6472 128.496C21.7941 127.721 20.5944 127.087 19.9812 127.087C18.7606 127.087 18.4978 125.865 19.5014 124.858C19.8499 124.507 21.8027 124.221 23.8393 124.221H27.543L25.8701 127.062ZM166.695 128.282C165.494 135.004 165.868 188.659 167.195 200.189C167.86 205.97 169.44 216.936 170.704 224.556C171.969 232.177 173.747 246.058 174.658 255.402C176.49 274.215 176.571 273.447 170.798 291.925L167.812 301.48L161.019 301.759C153.354 302.075 132.46 298.244 125.858 295.313L121.867 293.541L121.168 286.999C120.784 283.402 120.731 274.007 121.052 266.124C122.287 235.782 127.596 206.234 137.077 176.934C139.176 170.45 140.686 164.939 140.434 164.685C139.817 164.067 135.041 176.691 130.879 189.939C124.961 208.776 120.719 230.966 119.238 250.835C118.807 256.626 118.093 260.027 117.052 261.249C115.272 263.337 103.614 272.113 99.1704 274.71L96.1626 276.466L90.6689 271.552C87.6468 268.848 83.7517 266.166 82.0122 265.59C80.2736 265.014 78.8502 264.119 78.8502 263.601C78.8502 263.084 80.8325 256.56 83.2547 249.103C88.1143 234.145 92.5255 224.636 99.2961 214.519C102.394 209.888 104.923 204.314 107.521 196.381C111.844 183.189 121.305 163.285 128.194 152.888C134.034 144.076 142.248 135.621 149.693 130.759C156.541 126.287 158.678 126.004 153.85 130.207C149.694 133.826 147.416 137.917 148.098 140.537C148.365 141.56 150.277 143.743 152.347 145.389L156.111 148.38L151.757 152.817C148.434 156.203 147.403 157.97 147.403 160.279C147.403 163.753 165.644 218.847 166.22 217.113C166.639 215.851 156.725 182.783 152.185 170.299C150.602 165.949 149.307 161.515 149.307 160.447C149.307 159.38 151.45 156.233 154.068 153.456C156.686 150.677 158.829 148.149 158.829 147.839C158.829 147.527 156.901 145.884 154.544 144.185C147.892 139.39 148.77 136.262 158.917 128.606C166.389 122.969 167.653 122.916 166.695 128.282ZM12.6775 132.583C32.0608 142.392 74.3828 149.081 86.8842 144.311C88.8208 143.571 89.3235 143.67 89.3235 144.794C89.3235 146.571 77.0183 175.489 69.5022 191.378C65.7385 199.335 63.002 203.894 61.3282 204.994C57.5416 207.484 36.8881 206.509 24.5048 203.256C15.3006 200.838 4.97671 196.277 2.82871 193.68C0.0599344 190.331 -0.635115 160.508 1.41671 133.089L2.00418 125.235L5.43658 127.945C7.32464 129.436 10.5828 131.522 12.6775 132.583ZM13.2069 126.16C14.7293 126.978 14.8483 127.45 13.9114 128.955C12.886 130.603 12.5461 130.643 10.1448 129.397C8.44529 128.515 7.70074 127.52 8.05112 126.602C8.68809 124.938 10.6228 124.772 13.2069 126.16ZM49.0963 131.124C55.7659 133.033 55.9992 133.199 55.9858 136.066C55.9792 137.697 55.7297 139.943 55.4317 141.056C54.9061 143.021 54.7033 143.044 48.5421 141.863C39.9816 140.223 29.9738 137.603 29.1207 136.779C27.9258 135.625 30.2423 129.15 31.9847 128.77C34.9239 128.128 42.0524 129.108 49.0963 131.124ZM21.7227 131.878V134.758L18.2008 133.28C13.9505 131.498 13.7439 131.315 14.5427 130.018C14.8874 129.457 16.644 128.998 18.4464 128.998C21.4551 128.998 21.7227 129.234 21.7227 131.878ZM65.3281 132.48C68.2568 133.267 67.6532 135.838 64.3303 136.731C62.4336 137.239 61.7119 137.083 61.7119 136.16C61.7119 135.461 61.452 134.208 61.134 133.377C60.5113 131.748 61.6776 131.498 65.3281 132.48ZM34.5764 133.776C34.2526 134.302 34.8449 134.732 35.8922 134.732C36.9395 134.732 38.0364 135.122 38.3296 135.598C38.6229 136.074 39.7197 136.239 40.7661 135.964C41.8125 135.689 42.6694 135.854 42.6694 136.329C42.6694 137.335 50.135 137.805 51.607 136.892C52.1554 136.552 49.1905 135.511 45.0183 134.577C36.076 132.577 35.3495 132.521 34.5764 133.776ZM77.898 136.041C77.898 136.893 76.3204 137.53 73.3754 137.865C68.3073 138.442 67.9045 138.3 68.7053 136.206C69.4555 134.245 77.898 134.093 77.898 136.041ZM67.7722 139.58C71.654 142.643 71.0342 144.288 65.9965 144.288C62.4079 144.288 61.7119 143.991 61.7119 142.455C61.7119 137.397 63.7704 136.42 67.7722 139.58ZM83.09 138.708C85.6255 139.867 86.3719 142.807 84.3249 143.573C83.6612 143.822 82.4511 142.599 81.5885 140.808C79.8375 137.171 79.8109 137.209 83.09 138.708ZM79.6119 140.656C82.0255 143.079 80.861 144.288 76.1128 144.288C71.7968 144.288 71.4712 144.12 71.4712 141.899C71.4712 139.784 71.873 139.51 74.9703 139.51C76.8945 139.51 78.9835 140.026 79.6119 140.656ZM34.9106 146.278C31.0459 147.766 30.0671 151.252 31.2211 159.418C33.0492 172.349 36.532 175.21 41.7106 168.035C45.8609 162.285 49.5352 154.321 49.1724 151.863C48.5098 147.374 40.3558 144.181 34.9106 146.278ZM45.6001 149.61C48.0489 151.835 47.9328 152.889 44.4699 159.844C41.485 165.84 38.2801 170.088 36.7424 170.088C35.2429 170.088 33.3205 163.982 32.6416 157.063C32.0123 150.656 32.0989 150.195 34.2279 148.657C36.9776 146.669 42.9094 147.167 45.6001 149.61ZM-0.754129 184.023C-0.436119 184.854 -0.176191 186.595 -0.176191 187.892C-0.176191 191.77 2.4412 195.668 6.73242 198.181C19.5185 205.668 51.7508 210.917 61.0359 207.023C63.2715 206.086 64.7321 204.396 66.4049 200.812C67.6684 198.105 69.327 195.889 70.0897 195.889C72.2615 195.889 80.9401 201.188 83.9678 204.362C87.7316 208.308 86.9213 211.326 81.4771 213.649C74.4009 216.669 44.1833 216.529 31.521 213.419C29.532 212.93 29.4996 212.778 30.9164 210.607C32.3341 208.436 32.3075 208.311 30.4203 208.311C29.3235 208.311 26.7128 208.999 24.6181 209.84C20.9695 211.305 20.4402 211.263 12.0358 208.844C1.09489 205.694 -10.999 200.068 -15.6644 195.956C-22.3236 190.088 -19.7185 185.326 -8.83767 183.479C-2.14233 182.342 -1.37682 182.393 -0.754129 184.023ZM-11.3637 189.832C-15.394 191.465 -8.47205 197.612 1.93562 201.643C5.97644 203.209 9.60784 204.489 10.003 204.489C10.3991 204.489 5.96597 202.14 0.152293 199.27C-11.496 193.519 -13.2793 191.655 -8.47015 190.26C-5.82134 189.49 -5.73089 189.371 -7.79319 189.361C-9.10236 189.356 -10.7086 189.568 -11.3637 189.832ZM75.4435 203.788C83.4556 208.367 79.9651 210.194 61.7119 210.973C51.9479 211.389 49.659 211.712 52.1907 212.317C58.1376 213.738 75.8662 211.847 79.6661 209.386C81.7065 208.065 80.086 204.842 76.5289 203.147C71.8235 200.907 71.1237 201.319 75.4435 203.788ZM27.3992 212.154C25.5864 213.741 24.7457 214.979 25.5312 214.907C28.8189 214.601 32.1961 215.055 32.1961 215.803C32.1961 216.245 30.5394 217.154 28.5151 217.825C26.4414 218.512 21.7284 221.888 17.7228 225.556L10.6133 232.066L6.54867 225.862C4.31308 222.449 2.63543 219.533 2.82014 219.381C3.00486 219.229 5.22997 218.595 7.76453 217.973C10.2991 217.35 16.0832 215.147 20.6182 213.076C30.5622 208.536 31.7095 208.379 27.3992 212.154ZM0.168478 219.796C7.44557 228.475 21.199 254.573 28.8331 274.188C33.3862 285.887 39.1218 305.916 38.1725 306.801C37.766 307.18 35.3933 307.914 32.8997 308.433C28.6684 309.312 28.339 309.24 27.9458 307.339C24.5057 290.718 15.2616 259.917 12.667 256.429C11.9415 255.455 14.0638 263.042 17.3819 273.291C20.7001 283.539 24.0621 294.824 24.8533 298.368L26.2919 304.811L18.5902 307.185C14.3542 308.491 10.8218 309.461 10.7399 309.342C10.658 309.222 10.0772 304.18 9.44979 298.136C8.43863 288.404 5.34137 270.355 4.056 266.704C3.04961 263.845 2.83728 266.401 3.74466 270.45C5.42325 277.941 9.34125 306.092 9.34315 310.678C9.34506 314.864 9.18796 315.129 6.36967 315.695C1.72044 316.628 -1.76053 316.401 -2.79834 315.097C-3.32106 314.441 -4.03706 309.388 -4.38934 303.869C-5.25673 290.29 -7.4847 272.909 -9.84121 261.346C-13.4917 243.438 -20.6031 224.105 -23.8279 223.325C-25.6674 222.88 -17.8819 218.877 -15.1103 218.844C-12.8518 218.816 -7.31713 230.666 -2.50318 245.832C-0.541807 252.016 1.21677 256.922 1.40434 256.734C2.09939 256.036 -4.14369 236.64 -7.80557 228.122C-9.89072 223.27 -11.5979 219.008 -11.5998 218.651C-11.6017 217.931 -8.67962 217.242 -4.78352 217.042C-3.03447 216.952 -1.5006 217.805 0.168478 219.796ZM2.68018 236.979C4.78628 241.183 6.70386 244.623 6.94189 244.623C7.57601 244.623 3.8075 236.056 1.58524 232.446C-1.78052 226.982 -1.26923 229.094 2.68018 236.979ZM182.183 243.051C180.249 244.471 180.529 247.337 182.74 248.734C185.021 250.175 187.392 248.843 187.392 246.121C187.392 243.058 184.498 241.352 182.183 243.051ZM-10.7362 266.841C-8.42349 279.123 -5.88894 298.66 -5.88894 304.202V307.951L-10.3068 307.344C-12.7357 307.009 -15.3512 306.736 -16.1186 306.736C-17.2754 306.736 -17.4087 305.474 -16.905 299.33C-16.5699 295.258 -16.7165 284.614 -17.2306 275.68C-18.1571 259.553 -18.1485 259.422 -16.0729 257.784C-14.9227 256.876 -13.7068 256.123 -13.3707 256.111C-13.0356 256.1 -11.8492 260.928 -10.7362 266.841ZM83.4108 268.456C85.3532 269.476 88.8713 272.018 91.2278 274.105L95.5123 277.899L92.2475 281.311L88.9836 284.723L83.6441 279.724C80.7078 276.974 77.5124 274.278 76.5441 273.733C74.876 272.795 74.8665 272.581 76.3651 269.672C78.2151 266.081 78.7207 265.994 83.4108 268.456ZM79.8023 271.38C79.8023 271.905 80.2307 272.335 80.7544 272.335C81.2781 272.335 81.7065 271.905 81.7065 271.38C81.7065 270.854 81.2781 270.424 80.7544 270.424C80.2307 270.424 79.8023 270.854 79.8023 271.38ZM185.526 271.811C183.624 274.112 185.224 277.113 188.352 277.113C191.609 277.113 192.54 275.92 191.748 272.758C191.077 270.076 187.421 269.519 185.526 271.811ZM80.3802 279.124L83.4299 282.09L81.4447 285.466C80.3536 287.322 79.1348 290.396 78.7378 292.294C78.2922 294.429 78.2179 293.284 78.5445 289.297C78.9063 284.869 78.7388 282.847 78.0085 282.847C77.3677 282.847 76.9459 284.744 76.9459 287.624C76.9459 292.849 75.1359 294.32 74.8893 289.297L74.737 286.191L74.3514 289.315C74.14 291.033 73.5782 292.198 73.1041 291.903C72.629 291.609 71.9577 292.502 71.6112 293.887C70.6248 297.833 69.1918 294.584 69.904 290.013C70.421 286.692 75.6986 276.261 76.9002 276.184C77.1373 276.17 78.7035 277.492 80.3802 279.124ZM75.9938 295.86C75.9938 296.648 75.5653 297.027 75.0417 296.702C74.518 296.378 74.0895 295.467 74.0895 294.678C74.0895 293.89 74.518 293.511 75.0417 293.836C75.5653 294.161 75.9938 295.071 75.9938 295.86Z" fill="#121A17"/>
</g>
</svg>
