<svg width="290" height="310" viewBox="0 0 290 310" fill="none" xmlns="http://www.w3.org/2000/svg">
<mask id="mask0_495_11035" style="mask-type:alpha" maskUnits="userSpaceOnUse" x="0" y="0" width="290" height="310">
<rect x="0.5" y="0.5" width="289" height="309" rx="1.5" fill="white" stroke="black"/>
</mask>
<g mask="url(#mask0_495_11035)">
<path fill-rule="evenodd" clip-rule="evenodd" d="M130.748 252.625C130.431 252.625 126.575 254.98 120.949 258.546V255.792L130.348 249.92L130.513 236.031C130.77 214.411 133.767 200.647 139.455 194.959C141.271 193.143 143.412 191.657 144.213 191.657C145.326 191.657 144.494 188.286 140.699 177.415C137.964 169.581 135.391 162.807 134.98 162.359C134.696 162.05 129.017 163.122 120.949 164.948V163.316C127.636 161.746 132.802 160.497 133.572 160.229C134.291 159.98 133.321 155.898 130.824 148.655C125.588 133.475 125.756 130.809 132.199 126.882C135.105 125.11 197.277 102.91 204.195 101.174C207.963 100.229 212.691 102.364 214.476 105.817C215.28 107.373 218.38 115.676 221.362 124.269C224.344 132.861 227.001 140.108 227.265 140.373C227.375 140.483 229.166 140.308 232.082 139.926C232.314 139.926 241.64 138.638 253.14 137.05L253.141 137.05C272.071 134.435 296.889 131.008 296.724 131.173C296.459 131.438 290.875 132.346 284.314 133.192C270.046 135.03 228.583 141.723 227.996 142.284C227.502 142.756 233.877 161.813 234.927 162.998C235.327 163.452 238.437 163.276 241.835 162.607C258.711 159.287 261.969 169.151 247.754 180.525C244.5 183.13 242.324 185.595 242.614 186.35C242.89 187.07 243.449 187.66 243.855 187.66C244.262 187.66 250.847 184.775 258.49 181.249C274.593 173.819 297.83 164.153 296.372 165.491C295.823 165.993 289.752 168.791 282.881 171.706C266.654 178.593 243.902 189.366 243.902 190.164C243.902 192.301 246.667 194.913 252.212 198.013C255.701 199.964 260.43 203.595 262.722 206.082C267.042 210.769 267.903 214.049 265.725 217.537C264.742 219.112 265.127 220.094 268.202 223.847C276.486 233.957 277.213 243.803 269.847 246.141C267.922 246.752 267.98 246.967 270.984 250.389C281.094 261.904 281.556 277.561 271.802 278.115C269.925 278.222 267.714 278.589 266.889 278.93C266.065 279.271 264.21 279.982 262.767 280.508C260.801 281.224 259.966 282.405 259.439 285.213C258.388 290.816 255.192 296.984 250.682 302.106L246.657 306.679L249.702 313.883C251.376 317.846 253.898 323.673 255.308 326.835C256.716 329.996 257.494 332.582 257.036 332.582C256.577 332.582 253.409 326.718 249.994 319.551L243.786 306.519L248.489 301.31C253.186 296.109 257.866 287.665 257.884 284.358C257.89 283.396 257.68 282.609 257.42 282.609C257.158 282.609 242.429 287.584 224.687 293.666C190.858 305.261 188.228 305.79 184.554 301.73C183.643 300.725 178.929 288.478 174.075 274.515L165.252 249.127L161.35 247.856L157.448 246.586L157.338 233.364C157.167 212.656 152.873 197.406 146.594 195.198C138.956 192.512 134.334 204.808 133.248 230.702C131.936 261.983 140.619 285.955 159.725 303.8C165.335 309.039 173.99 314.841 180.476 317.711C184.352 319.425 184.952 320.185 186.845 325.791C188.128 329.59 188.577 332.337 188.008 332.905C187.439 333.474 186.352 331.452 185.189 327.668C183.329 321.607 183.191 321.451 176.764 318.217C154.691 307.111 137.462 284.021 132.762 259.243C132.071 255.603 131.166 252.625 130.748 252.625ZM249.567 137.291C269.148 134.094 229.132 139.926 232.082 139.926C236.195 139.388 242.544 138.438 249.567 137.291ZM211.744 104.454C214.108 106.476 269.888 266.101 269.888 270.845C269.888 272.482 268.926 274.659 267.639 275.938C265.242 278.319 199.394 301.634 195.133 301.61C193.871 301.604 191.837 300.587 190.614 299.35C187.957 296.666 132.92 137.992 132.946 133.094C132.955 131.263 133.805 129.223 135.028 128.097C137.776 125.566 201.409 102.894 206.061 102.788C208.184 102.74 210.551 103.434 211.744 104.454ZM172.192 117.209C154.466 123.484 139.061 129.1 137.961 129.69C136.86 130.279 135.96 131.656 135.96 132.75C135.96 134.37 183.277 272.926 190.126 291.358C192.562 297.918 194.453 299.061 199.577 297.068C201.928 296.153 202.391 295.769 200.768 296.082C199.307 296.363 197.508 296.815 196.77 297.086C196.032 297.358 194.824 297.195 194.086 296.724C192.972 296.014 173.853 242.666 174.429 241.876C174.75 241.437 243.331 216.859 245.26 216.493C246.833 216.194 248.375 219.864 255.993 242.022C260.887 256.255 264.891 269.153 264.891 270.685C264.891 273.132 264.253 273.706 259.643 275.413C256.758 276.482 253.351 277.679 252.072 278.075C250.794 278.47 249.929 278.974 250.149 279.194C250.839 279.885 263.3 275.418 265.14 273.822C266.102 272.987 266.889 271.712 266.889 270.988C266.889 268.337 211.307 108.906 209.702 106.953C209.138 106.266 207.719 105.725 206.55 105.752C205.38 105.778 189.919 110.933 172.192 117.209ZM205.842 116.948C211.619 128.931 214.3 139.385 214.364 150.18C214.446 163.942 212.462 167.398 193.931 185.757C185.684 193.926 178.937 201.027 178.937 201.535C178.937 203.13 199.758 204.061 207.196 202.799C215.609 201.371 224.814 197.236 231.598 191.836C236.323 188.076 236.841 187.881 237.401 189.647C238.211 192.196 233.515 196.479 224.912 201.037C214.322 206.649 207.511 207.972 192.493 207.33C175.893 206.621 173.885 207.343 170.233 215.317C167.862 220.498 167.514 220.848 166.651 218.914C166.126 217.735 165.975 215.659 166.316 214.297C167.75 208.584 177.939 195.622 191.644 182.081C208.999 164.93 210.46 162.358 210.333 149.18C210.263 141.832 209.657 138.447 207.029 130.69C205.26 125.468 202.448 118.773 200.783 115.81C198.384 111.546 198.032 110.25 199.09 109.58C201.406 108.111 201.779 108.518 205.842 116.948ZM184.036 134.946C185.904 136.187 188.474 139.224 189.747 141.692C191.756 145.588 191.983 147.107 191.462 153.178C190.151 168.458 188.626 180.663 188.027 180.663C186.54 180.663 163.675 160.279 161.903 157.374C159.242 153.01 159.261 144.321 161.941 139.926C166.349 132.697 177.03 130.29 184.036 134.946ZM171.34 143.017C165.96 147.644 168.878 155.677 175.938 155.677C183.953 155.677 186.502 145.086 179.28 141.794C175.757 140.189 174.38 140.401 171.34 143.017ZM253.885 165.159C254.639 166.067 254.853 167.719 254.434 169.406C253.632 172.639 243.087 183.282 241.936 182.022C241.504 181.549 240.13 178.015 238.882 174.167C237.634 170.319 236.42 166.644 236.183 166.001C235.283 163.552 251.896 162.761 253.885 165.159ZM260.107 205.716C265.043 210.425 266.054 213.602 263.899 217.63C263.01 219.292 256.273 222.358 255.417 221.491C255.032 221.103 246.9 197.696 246.9 196.98C246.9 195.748 255.899 201.701 260.107 205.716ZM266.349 223.774C270.437 228.633 272.886 234.172 272.886 238.557C272.886 243.045 271.101 244.629 266.044 244.629C263.152 244.629 262.969 244.33 259.494 233.956C257.529 228.085 256.027 223.233 256.158 223.172C257.041 222.759 262.516 220.835 263.053 220.748C263.416 220.69 264.9 222.051 266.349 223.774ZM225.486 235.966C217.281 238.837 210.361 241.808 210.108 242.567C209.823 243.421 210.177 243.758 211.034 243.452C211.795 243.178 219.5 240.52 228.154 237.545C242.571 232.589 246.738 230.549 242.153 230.69C241.191 230.72 233.69 233.094 225.486 235.966ZM164.508 246.29C164.473 246.379 163.181 246.209 161.638 245.912C159.707 245.541 159.006 244.92 159.389 243.92C159.696 243.121 159.974 240.592 160.006 238.3L160.066 234.135L162.318 240.131C163.556 243.43 164.542 246.201 164.508 246.29ZM226.473 243.578C218.812 246.149 212.342 248.859 212.095 249.598C211.82 250.422 212.184 250.746 213.032 250.432C213.794 250.151 220.265 247.999 227.411 245.65C234.557 243.303 240.781 241.039 241.24 240.619C243.63 238.442 239.019 239.366 226.473 243.578ZM187.489 243.852C182.592 250.844 189.47 262.071 197.034 259.434C202.271 257.608 203.513 249.668 199.337 244.706C196.022 240.765 189.957 240.328 187.489 243.852ZM241.403 246.246C221.389 252.988 213.854 255.959 214.679 256.783C215.507 257.612 247.259 247.327 249.236 245.589C251.285 243.789 247.838 244.078 241.403 246.246ZM269.168 250.466C276.859 260.55 279.362 271.189 274.895 274.806C272.949 276.382 269.888 277.271 269.888 276.261C269.888 276.068 270.351 274.583 270.916 272.96C271.783 270.475 271.309 268.161 267.918 258.329C265.703 251.905 263.891 246.42 263.891 246.139C263.891 244.544 265.922 246.209 269.168 250.466ZM228.472 258.514C222.459 260.566 217.347 262.827 217.11 263.537C217.086 263.61 217.061 263.68 217.037 263.746C216.944 264.006 216.871 264.209 216.942 264.324C217.189 264.729 219.206 264.052 228.314 260.996C228.971 260.776 229.665 260.543 230.398 260.298C235.835 258.475 240.461 256.453 240.677 255.803C241.211 254.199 240.919 254.264 228.472 258.514ZM241.903 261.75C224.266 267.65 218.778 269.878 219.678 270.778C220.221 271.321 226.571 269.609 235.491 266.516C236.164 266.283 236.808 266.06 237.425 265.846C249.033 261.823 250.899 261.177 250.936 260.437C250.944 260.295 250.884 260.15 250.813 259.977C250.793 259.929 250.772 259.879 250.752 259.827C250.557 259.321 246.575 260.187 241.903 261.75ZM195.377 263.676C193 266.301 192.279 276.16 193.894 283.94C194.54 287.055 195.209 289.605 195.38 289.605C195.55 289.605 198.779 288.47 202.555 287.083L205.83 285.881C208.85 284.772 211.955 283.632 213.647 283.011L217.874 281.46L215.254 276.287C208.699 263.342 200.427 258.095 195.377 263.676ZM241.591 281.792C238.396 282.905 235.956 283.991 236.17 284.205C236.625 284.659 248.899 280.622 248.899 280.018C248.899 279.366 247.759 279.643 241.591 281.792ZM220.103 289.288C217.732 290.126 215.969 290.989 216.185 291.205C216.641 291.662 225.912 288.617 225.912 288.012C225.912 287.386 224.774 287.636 220.103 289.288Z" fill="#121A17"/>
<path fill-rule="evenodd" clip-rule="evenodd" d="M73.1847 7.87617C68.5002 9.09052 66.1384 10.6557 62.3995 15.0243C49.0376 30.6339 56.5026 68.2167 74.7728 77.3208C80.8825 80.3652 84.2347 80.5801 91.5858 78.3972C98.3431 76.3903 104.703 70.2256 107.053 63.4043C113.657 44.2426 106.197 19.2501 91.2589 10.4968C86.7494 7.85318 78.104 6.59986 73.1847 7.87617ZM277.575 9.58625C271.38 13.1144 268.631 15.8149 266.471 20.4944C264.226 25.3568 263.992 36.1829 265.971 43.6139C270.505 60.6388 286.183 75.9955 298.991 75.9545C303.515 75.9406 311.614 71.8038 315.268 67.642C318.65 63.7911 321.551 55.8024 321.551 50.3463C321.551 38.6906 315.275 24.7661 306.191 16.2697C296.133 6.85972 286.368 4.57995 277.575 9.58625ZM83.1793 10.8656C94.2853 15.9238 102.121 31.6894 102.121 48.9791C102.121 60.309 100.194 66.8285 95.0809 72.8032C81.3702 88.8206 59.1072 70.5025 57.0163 41.4831C55.3762 18.7183 67.9964 3.95029 83.1793 10.8656ZM291.501 13.1923C298.124 16.3746 305.837 24.7371 309.972 33.2145C318.147 49.9795 316.171 67.5531 305.499 72.9971C300.023 75.7906 295.702 75.4628 288.439 71.7028C274.644 64.5627 264.704 46.1106 265.755 29.5985C266.75 13.9849 278.1 6.75178 291.501 13.1923ZM68.5851 17.2851C58.9413 23.7806 56.5826 42.6015 63.5468 57.4835C70.619 72.5953 82.7065 77.2109 91.044 67.9818C102.414 55.3966 98.0743 27.1828 83.2942 17.5999C78.2379 14.3207 73.1467 14.2118 68.5851 17.2851ZM84.5036 19.7278C92.5222 26.1893 97.9103 42.8264 95.7575 54.4761C91.9695 74.9651 75.6303 77.6116 65.9765 59.2985C57.761 43.7129 59.489 24.1124 69.6575 17.562C73.4295 15.1313 79.987 16.0888 84.5036 19.7278ZM275.808 18.2236C272.369 19.8817 269.502 25.3348 268.875 31.4105C267.77 42.1167 272.774 54.1653 281.793 62.5158C291.017 71.0552 299.102 72.1536 305.308 65.71C313.169 57.5464 311.417 40.5786 301.408 27.9144C295.663 20.6473 289.482 16.9793 283.126 17.0642C280.347 17.1012 277.054 17.6229 275.808 18.2236ZM290.403 19.9107C295.598 22.5613 302.233 30.0492 305.379 36.8106C307.381 41.1143 308.094 44.4115 308.337 50.4782C308.727 60.214 306.924 64.5587 301.368 67.2752C288.599 73.5159 270.151 53.8145 270.197 33.9871C270.213 26.9159 272.051 22.1765 275.793 19.5559C278.835 17.424 285.864 17.5949 290.403 19.9107ZM193.484 22.7802C189.782 24.7031 187.118 27.0579 184.875 30.3891C183.089 33.0416 181.626 35.6992 181.626 36.2949C181.626 36.8896 182.913 35.3774 184.484 32.9337C191.572 21.9116 201.402 18.2926 211.271 23.071C225.771 30.0902 231.246 55.1048 221.608 70.3016C211.014 87.0056 192.076 84.9207 182.892 66.0419C180.522 61.1685 180.18 59.2545 180.155 50.7231C180.134 43.3911 179.914 41.7809 179.269 44.2266C177.846 49.6127 179.245 60.3689 182.23 67.0213C188.063 80.0194 200.803 85.8122 214.929 81.8894C231.995 77.1499 238.409 47.9856 226.261 30.3591C219.195 20.1056 204.966 16.8154 193.484 22.7802ZM71.4216 22.5913C71.0928 22.9201 71.0578 23.7986 71.3436 24.5432C71.6295 25.2888 71.1487 26.9189 70.2752 28.1663C68.2933 30.9957 68.2473 35.6192 70.1643 39.2933C71.2857 41.4451 71.3646 42.5235 70.5001 43.9088C68.9939 46.3205 70.1323 48.9791 72.6729 48.9791C74.401 48.9791 74.6189 49.4088 74.0652 51.7276C73.7034 53.2398 73.0207 55.2337 72.547 56.1592C71.3526 58.4929 71.4816 59.1486 73.6394 61.7362C75.1846 63.5882 75.9492 63.8211 77.8541 63.0195C79.1334 62.4808 82.0499 61.5693 84.3337 60.9936C86.6184 60.4179 89.4919 59.1336 90.7202 58.1391C92.8811 56.3891 92.897 56.2451 91.224 53.6905C89.6618 51.3078 89.284 51.1819 87.336 52.3952C86.1497 53.1338 83.8849 54.0393 82.3037 54.4081C79.91 54.9648 79.5332 54.8039 80.055 53.4457C80.3988 52.5481 80.6806 50.7261 80.6806 49.3968C80.6806 47.9146 81.2603 46.9801 82.1798 46.9801C83.9499 46.9801 83.9668 46.8682 82.7115 43.566C82.1078 41.9788 81.2133 41.2252 80.3328 41.563C79.5312 41.8709 78.0071 40.9404 76.8027 39.4102C73.3026 34.9596 74.449 30.7219 78.5588 32.9217C80.1119 33.7532 80.7696 33.5004 82.0209 31.5904C83.4601 29.3946 83.4111 29.0858 81.3093 27.1118C80.0679 25.9464 78.5678 24.992 77.9751 24.992C77.3814 24.992 76.6378 24.3173 76.321 23.4928C75.7533 22.0136 72.582 21.4299 71.4216 22.5913ZM285.053 31.6404L285.769 39.2873L280.257 36.1769L274.744 33.0656L273.732 35.9711C272.764 38.7466 272.929 38.9984 277.396 41.576C283.324 44.9962 283.051 44.6994 281.731 46.2885C280.891 47.302 280.937 48.0945 281.912 49.4298C283.043 50.975 283.506 51.0359 285.349 49.8856C288.281 48.0536 289.354 49.5178 286.681 51.7026C284.636 53.3727 284.604 53.6106 286.129 55.7734C287.472 57.6764 288.009 57.8543 289.263 56.8128C290.531 55.7614 291.229 56.1112 293.552 58.9567C296.295 62.3169 296.359 62.3369 298.944 60.6428C302.075 58.5919 302.097 58.366 299.605 54.2762L297.655 51.0789L300.344 49.119C303.002 47.183 303.012 47.135 301.136 45.0632C299.36 43.1002 299.082 43.0672 296.815 44.5524C293.322 46.8412 292.547 45.2171 295.865 42.5655L298.663 40.3287L296.729 37.94C295.144 35.982 294.527 35.7742 293.309 36.7836C292.06 37.8211 291.723 37.5172 291.195 34.8776C290.851 33.1506 290.568 29.9953 290.568 27.8654C290.568 24.1964 290.404 23.9925 287.452 23.9925H284.336L285.053 31.6404ZM197.118 27.4846C181.613 32.9217 178.861 61.9421 192.78 73.208C196.569 76.2744 202.593 77.6876 207.078 76.5622C211.506 75.4508 217.351 69.2691 219.563 63.3563C226.931 43.6649 213.263 21.8227 197.118 27.4846ZM210.658 30.3751C212.588 31.6864 215.503 35.1725 217.136 38.1209C219.776 42.8863 220.106 44.4255 220.106 51.9774C220.106 59.5154 219.773 61.0725 217.158 65.794C213.206 72.9282 209.502 75.4648 203.037 75.4648C199.013 75.4648 197.199 74.8821 194.277 72.6543C181.635 63.0115 182.008 37.8201 194.909 29.9543C199.459 27.1798 206.222 27.3607 210.658 30.3751ZM197.154 37.1254C195.702 38.8505 194.264 41.5131 193.958 43.0412C193.581 44.9242 192.603 46.0186 190.921 46.4414C189.214 46.8702 188.625 47.5438 189.031 48.6033C189.356 49.4498 189.622 50.5412 189.622 51.028C189.622 51.5157 190.297 51.6556 191.121 51.3398C192.071 50.975 192.62 51.3528 192.62 52.3702C192.62 53.2538 191.915 53.9764 191.051 53.9764C188.633 53.9764 189.664 58.408 192.167 58.7668C193.291 58.9277 195.031 60.5818 196.033 62.4428C198.44 66.9124 202.343 68.5435 206.974 67.0153C211.347 65.5721 212.687 63.98 211.937 61.1135C211.511 59.4884 210.897 59.0616 209.73 59.5834C206.502 61.0246 202.181 60.5558 201.817 58.7238C201.573 57.4935 202.104 56.9748 203.61 56.9748C205.26 56.9748 205.679 56.458 205.434 54.726C205.215 53.1868 204.433 52.4772 202.955 52.4772C199.665 52.4772 199.051 51.1579 201.997 50.4183C205.194 49.6167 205.699 45.9807 202.615 45.9807C198.361 45.9807 200.988 41.4691 205.613 40.8294C207.613 40.5526 208.175 39.835 208.425 37.2354C208.737 34.0081 208.71 33.9871 204.266 33.9871C200.48 33.9871 199.39 34.4689 197.154 37.1254ZM143.565 40.9724C134.479 50.6502 125.308 72.2905 125.858 82.7529L126.156 88.4038L131.052 90.2169L135.947 92.0309L140.636 87.1645C149.225 78.2543 161.207 49.3229 159.353 41.9728C158.64 39.1423 153.993 35.986 150.54 35.986C149.08 35.986 146.544 37.7991 143.565 40.9724ZM152.633 41.2332C152.621 47.0211 146.907 63.1584 141.553 72.5254C136.816 80.8129 130.272 88.3279 128.345 87.6932C126.552 87.1035 126.405 79.0529 128.095 73.9656C129.261 70.4515 129.441 70.2326 128.915 72.9661C127.843 78.5342 128.051 83.2386 129.389 83.6954C131.607 84.453 136.689 77.6696 142.106 66.7245C149.688 51.3997 152.461 39.9839 148.598 39.9839C147.359 39.9839 143.27 43.9408 139.819 48.4793C138.565 50.1284 137.989 50.5422 138.538 49.3998C140.382 45.5629 148.809 36.9855 150.736 36.9855C152.313 36.9855 152.64 37.7171 152.633 41.2332ZM148.271 47.9946C146.836 54.0403 140.95 68.6635 139.621 69.485C139.157 69.7719 139.199 68.5385 139.713 66.7455C140.228 64.9515 140.662 61.4573 140.68 58.9807C140.708 55.0208 140.872 54.688 142.04 56.2252C144.053 58.8767 144.646 58.364 144.646 53.9764C144.646 49.3379 143.877 49.041 140.679 52.4442C139.04 54.1883 138.236 56.456 137.931 60.19C137.341 67.4121 136.836 68.8694 135.597 66.9414C134.208 64.7796 132.894 67.2502 133.442 70.9902C133.83 73.6318 135.651 75.3489 135.651 73.0731C135.651 72.5824 136.353 71.9117 137.209 71.5829C139.255 70.7973 135.303 78.0024 131.97 81.1338L129.654 83.3096V79.1058C129.654 73.9016 132.719 64.5837 137.312 55.8164C141.341 48.1285 147.533 40.4716 148.743 41.682C149.199 42.1377 148.987 44.9792 148.271 47.9946ZM135.467 56.479C134.84 57.8563 134.139 58.7938 133.909 58.5639C133.441 58.0971 135.468 53.9764 136.165 53.9764C136.409 53.9764 136.095 55.1028 135.467 56.479ZM131.775 64.6456C130.597 66.6715 130.313 66.0229 131.277 63.5102C131.619 62.6167 132.111 62.096 132.368 62.3539C132.626 62.6107 132.359 63.6422 131.775 64.6456ZM42.5172 79.0319C52.3958 80.9758 59.3031 88.6757 63.4169 102.328C65.5448 109.39 65.5328 123.039 63.3909 130.119C59.7259 142.239 50.6558 149.337 41.8595 146.968C29.895 143.747 21.6594 128.844 21.5714 110.255C21.5045 96.1527 26.3479 85.3045 34.7144 80.8169C37.0501 79.5646 37.5628 78.9629 36.2965 78.9629C35.2641 78.9629 32.2997 81.0998 29.709 83.7104C20.8908 92.5986 17.7615 107.582 21.6374 122.354C26.5997 141.261 37.0671 150.577 50.4459 147.992C62.8362 145.598 68.916 138.435 71.6945 122.956C74.4919 107.369 67.5067 87.6043 56.7985 80.8129C52.8846 78.3313 51.3944 77.9775 45.2537 78.0734C38.5413 78.1773 38.4104 78.2233 42.5172 79.0319ZM34.2646 86.225C23.9621 92.0639 20.6329 114.158 27.7671 129.336C31.9408 138.215 40.7321 144.141 47.2906 142.495C51.9611 141.322 57.3162 135.038 59.2172 128.497C61.7858 119.661 60.9512 106.307 57.3392 98.4524C54.1249 91.4632 50.4899 87.2655 45.9813 85.3365C41.5217 83.4285 38.8411 83.6314 34.2646 86.225ZM47.9642 87.8192C54.1359 91.3652 58.7044 101.408 59.4201 113C60.3036 127.336 55.5771 138.164 47.2346 140.918C40.8341 143.03 33.507 137.868 28.8095 127.937C26.4788 123.008 26.2099 121.25 26.2099 110.946C26.2099 100.4 26.4318 99.0321 28.8965 94.3606C33.6099 85.4264 39.9905 83.2376 47.9642 87.8192ZM42.1693 101.082L40.4223 108.21L37.1021 104.33C35.2751 102.197 33.7639 100.114 33.7439 99.7018C33.6639 98.1056 30.7215 99.0571 29.6721 101.018C28.5167 103.178 28.7426 103.686 33.7549 110.196C35.5129 112.479 35.6029 112.945 34.2886 112.945C33.2671 112.945 32.7064 113.83 32.7064 115.443C32.7064 117.553 33.1732 117.942 35.7048 117.942C37.3539 117.942 38.7032 118.392 38.7032 118.941C38.7032 119.491 37.8307 119.941 36.7633 119.941C34.2996 119.941 33.6499 121.008 34.3895 123.84C34.8433 125.575 35.4869 125.959 37.214 125.525C39.1849 125.03 39.5268 125.438 40.0885 128.949C40.6272 132.315 41.0989 132.934 43.1308 132.934C47.7533 132.934 48.468 132.147 47.6944 127.913C46.9048 123.596 47.1826 122.939 49.8052 122.939C52.148 122.939 53.0195 121.366 52.2889 118.455C51.7602 116.352 51.3544 116.181 48.6968 116.942C46.3631 117.612 45.6994 117.486 45.6994 116.373C45.6994 115.587 46.487 114.937 47.4485 114.929C50.9096 114.898 52.187 113.316 50.9466 110.596C50.1121 108.764 49.2675 108.247 47.7553 108.642C45.2827 109.289 45.2867 109.845 47.7124 102.107C49.9042 95.1152 49.6963 93.9549 46.2481 93.9549C44.1863 93.9549 43.7135 94.7804 42.1693 101.082Z" fill="#121A17"/>
</g>
</svg>
