<svg width="347" height="382" viewBox="0 0 347 382" fill="none" xmlns="http://www.w3.org/2000/svg">
<mask id="mask0_495_10992" style="mask-type:alpha" maskUnits="userSpaceOnUse" x="0" y="0" width="347" height="382">
<rect x="0.5" y="0.5" width="346" height="381" rx="1.5" fill="white" stroke="black"/>
</mask>
<g mask="url(#mask0_495_10992)">
<path fill-rule="evenodd" clip-rule="evenodd" d="M221.957 136.74C222.865 136.977 224.35 136.977 225.259 136.74C226.167 136.504 225.424 136.311 223.608 136.311C221.792 136.311 221.048 136.504 221.957 136.74ZM212.685 139.789C201.478 146.198 194.197 159.891 194.197 174.557C194.197 183.031 195.824 188.013 200.22 192.991C204.549 197.894 212.238 201.186 219.461 201.227C241.603 201.355 257.753 164.267 243.67 145.635C241.377 142.601 231.38 137.011 228.325 137.054C227.546 137.065 228.608 137.856 230.683 138.81C237.369 141.887 240.828 147.279 242.061 156.545C244.917 178.007 225.606 202.495 209.276 198.118C203.987 196.7 198.816 191.285 196.707 184.956C194.142 177.254 195.044 165.556 198.827 157.497C202.513 149.645 209.405 142.144 215.589 139.255C218.183 138.043 219.669 137.051 218.891 137.051C218.113 137.051 215.32 138.283 212.685 139.789ZM219.007 141.775C211.494 143.455 202.353 153.317 199.532 162.785C197.887 168.309 197.727 177.375 199.183 182.602C200.479 187.259 205.182 192.036 209.691 193.277C223.077 196.962 237.8 179.891 237.738 160.76C237.694 147.5 229.689 139.385 219.007 141.775ZM229.401 144.314C231.007 145.26 233.213 148.052 234.619 150.916C236.779 155.318 237.006 156.725 236.622 163.325C236.063 172.967 232.235 181.129 225.396 187.258C220.325 191.804 216.397 193.127 210.702 192.207C202.327 190.851 197.508 179.715 200.029 167.541C203.751 149.564 218.504 137.897 229.401 144.314ZM219.834 148.538C219.834 149.244 218.345 150.359 216.523 151.015C212.598 152.431 209.954 156.765 210.85 160.32C211.182 161.637 212.701 164.525 214.229 166.737C217.085 170.876 217.91 175.507 215.825 175.704C213.515 175.923 211.793 175.403 210.238 174.019C208.818 172.753 208.494 172.867 206.982 175.169C205.322 177.693 205.334 177.749 207.852 179.751C209.253 180.865 210.401 182.493 210.401 183.37C210.401 184.262 211.387 185.209 212.647 185.524C214.429 185.97 215.793 185.214 219.25 181.864C224.898 176.391 225.136 172.725 220.33 165.204C218.528 162.383 217.042 159.321 217.029 158.4C216.987 155.556 219.749 155.41 222.573 158.106L225.199 160.615L227.469 158.779L229.74 156.943L227.41 154.466C226.127 153.104 225.066 151.057 225.051 149.918C225.029 148.369 224.372 147.774 222.429 147.551C220.719 147.355 219.834 147.691 219.834 148.538ZM140.237 196.889C125.986 198.892 113.596 207.372 108.427 218.657C98.6429 240.021 108.619 266.897 130.042 276.892C144.185 283.489 158.923 280.904 172.802 269.389C182.482 261.358 187.192 251.443 187.192 239.098C187.192 219.147 171.439 199.782 153.191 197.301C150.878 196.987 148.137 196.608 147.099 196.459C146.061 196.31 142.974 196.504 140.237 196.889ZM162.019 201.329C185.783 212.422 193.697 245.228 177.059 263.677C171.67 269.653 167.339 272.44 160.257 274.493C138.351 280.842 114.172 263.957 110.753 239.925C109.04 227.885 112.561 216.476 120.511 208.311C128.492 200.115 134.782 197.691 147.099 198.067C154.353 198.289 156.526 198.765 162.019 201.329ZM141.419 204.455C123.378 206.736 112.386 225.674 118.185 244.484C126.933 272.862 163.228 278.028 176.651 252.807C178.876 248.627 179.155 247.057 179.163 238.685C179.173 229.927 178.956 228.824 176.073 222.981C169.531 209.721 156.189 202.588 141.419 204.455ZM159.382 208.572C165.616 211.612 172.451 218.85 175.649 225.798C178.916 232.893 179.128 243.93 176.127 250.621C171.307 261.362 161.558 267.758 149.909 267.82C130.432 267.923 115.343 249.263 118.526 229.008C118.989 226.062 120.401 221.895 121.663 219.747C124.825 214.366 131.92 208.378 137.108 206.712C143.342 204.711 153.145 205.529 159.382 208.572ZM140.16 212.033C137.396 212.825 137.054 213.256 137.47 215.427C137.792 217.101 137.248 218.848 135.808 220.782C132.812 224.8 132.201 228.227 133.801 232.045C135.344 235.724 138.236 237.458 145.684 239.168C152.998 240.846 154.174 241.625 154.174 244.79C154.174 248.075 153.499 248.558 147.759 249.376C143.445 249.992 143.326 250.097 143.326 253.288V256.569L148.652 256.848C152.968 257.074 154.067 257.468 154.45 258.926C154.9 260.645 155.095 260.658 158.777 259.217C162.109 257.912 162.556 257.406 162.072 255.484C161.753 254.218 162.211 251.797 163.136 249.854C166.895 241.957 162.099 235.151 150.643 232.127C144.664 230.548 140.967 228.538 140.967 226.864C140.967 226.464 141.679 225.427 142.549 224.56C143.775 223.338 145.115 223.113 148.502 223.561C152.803 224.13 152.9 224.084 154.507 220.722C155.406 218.843 155.921 217.085 155.651 216.816C155.38 216.546 153.06 216.125 150.495 215.879C146.551 215.501 145.745 215.087 145.268 213.193C144.648 210.73 144.677 210.737 140.16 212.033Z" fill="#121A17"/>
<path fill-rule="evenodd" clip-rule="evenodd" d="M38.4933 17.4284C38.7337 17.6593 47.8441 21.1783 58.7397 25.2481C69.6352 29.3178 79.4114 33.5099 80.4649 34.5633C82.2123 36.3098 82.275 37.1636 81.1777 44.2486C79.6329 54.2265 74.7511 69.1604 70.7493 76.1555C69.0269 79.1655 64.8307 84.2093 61.4236 87.3635C54.256 93.9991 47.3237 96.7342 33.1809 98.5026C21.4858 99.9647 19.3851 100.479 20.1355 101.693C21.073 103.211 34.7967 102.883 42.9895 101.148C57.5754 98.0574 66.273 91.196 73.6997 76.9206C80.6896 63.4864 86.7503 37.5859 83.9284 33.2068C82.3534 30.7632 61.711 22.3583 49.4453 19.1664C41.6214 17.1305 37.5109 16.4783 38.4933 17.4284ZM115.224 41.6274C106.602 42.3789 96.815 43.0258 93.4758 43.0645C89.1719 43.1146 87.6209 43.4867 88.1487 44.3406C88.6995 45.231 93.9596 45.3188 108.329 44.675C133.651 43.5411 138.898 43.7563 147.271 46.273C164.972 51.5938 175.647 68.2376 175.78 90.7236C175.838 100.475 175.608 101.683 172.507 107.943C170.673 111.646 169.364 114.868 169.6 115.105C170.966 116.471 175.43 111.416 177.322 106.36C184.511 87.1462 174.166 56.6951 157.09 46.8019C147.164 41.0515 136.688 39.7577 115.224 41.6274ZM137.678 71.0898C135.87 73.389 135.55 74.7937 136.074 78.1444C137.145 84.9806 142.073 94.1642 151.124 106.191C155.811 112.416 159.921 118.611 160.259 119.956C161.773 125.99 158.796 128.009 151.791 125.697C149.792 125.038 141.38 119.672 133.096 113.774C117.049 102.349 112.463 99.9595 100.07 96.5701C90.6643 93.9991 69.6676 89.9116 69.0478 90.5313C67.9745 91.6037 78.4728 95.5156 87.5394 97.4219C107.176 101.549 112.799 104.107 129.274 116.403C142.947 126.609 150.875 130.927 155.938 130.927C160.955 130.927 163.249 129.61 164.813 125.832C166.586 121.553 163.975 115.976 154.399 103.585C145.644 92.2569 139.785 81.2756 139.785 76.1952C139.785 69.7008 144.37 70.5494 151.215 78.3106C156.713 84.5417 160.71 92.353 163.834 102.969C167.501 115.431 169.719 112.896 166.386 100.054C160.529 77.4922 144.981 61.8058 137.678 71.0898ZM171.34 298.199C153.148 300.203 149.191 301.564 149.191 305.815C149.191 310.516 158.299 316.529 169.065 318.935C171.642 319.511 181.276 320.952 190.474 322.137C199.671 323.323 209.032 324.598 211.277 324.971C214.186 325.454 215.149 325.308 214.63 324.467C213.33 322.364 203.5 320.134 188.459 318.53C168.493 316.4 159.37 313.835 154.193 308.895C149.073 304.012 151.883 302.896 173.338 301.298C210.625 298.521 215.014 299.366 243.898 314.874C252.012 319.23 263.183 324.356 268.72 326.265C274.749 328.343 278.788 330.3 278.788 331.144C278.788 336.748 257.428 369.218 253.742 369.218C252.728 369.218 249.523 368.767 246.617 368.215C237.066 366.404 224.786 365.122 205.925 363.965C195.702 363.338 183.97 362.136 179.853 361.294C175.735 360.453 159.509 355.124 143.796 349.452C109.982 337.247 110.025 337.261 110.99 338.823C112.675 341.548 145.973 356.338 161.388 361.208C175.216 365.576 184.359 366.995 209.344 368.65C232.862 370.208 250.578 372.014 251.513 372.949C251.772 373.208 250.819 374.709 249.395 376.283C244.157 382.077 244.094 382.275 246.649 385.08C247.942 386.5 252.739 392.228 257.307 397.808C264.969 407.166 272.045 413.934 273.084 412.895C273.32 412.657 269.067 406.849 263.632 399.986C258.196 393.123 252.788 386.244 251.613 384.699L249.476 381.892L255.389 375.293C265.304 364.229 271.381 355.598 276.584 345.191C279.317 339.724 281.839 334.15 282.187 332.805C282.661 330.979 283.327 330.52 284.814 330.993C297.796 335.113 327.683 339.561 325.296 337.018C324.721 336.404 314.407 333.727 302.374 331.067C274.431 324.888 261.402 320.523 246.185 312.242C232.995 305.064 222.204 300.11 215.557 298.181C208.679 296.184 189.557 296.192 171.34 298.199ZM93.5374 307.564C89.2524 310.234 93.0128 315.664 101.144 318.547C103.715 319.459 116.165 322.753 128.811 325.867C141.457 328.983 155.478 332.956 159.97 334.697C169.225 338.286 169.048 338.245 169.048 336.774C169.048 333.88 146.49 325.847 126.839 321.74C110.801 318.389 97.6521 314.382 95.9433 312.324C94.9557 311.133 95.171 310.589 97.0177 309.6C99.711 308.159 104.731 308.594 128.686 312.351C152.186 316.036 153.089 314.561 130.378 309.587C118.859 307.065 96.3248 305.827 93.5374 307.564ZM94.8438 320.946C94.8438 322.488 99.3902 326.059 104.773 328.743C107.647 330.175 118.981 334.223 129.959 337.736C140.938 341.249 153.359 345.54 157.56 347.273C161.761 349.006 165.47 350.151 165.801 349.82C167.921 347.7 151.226 340.525 124.63 332.125C116.008 329.402 105.779 325.575 101.898 323.621C98.0179 321.668 94.8438 320.464 94.8438 320.946Z" fill="#121A17"/>
</g>
</svg>
