<svg width="314" height="340" viewBox="0 0 314 340" fill="none" xmlns="http://www.w3.org/2000/svg">
<mask id="mask0_495_11022" style="mask-type:alpha" maskUnits="userSpaceOnUse" x="0" y="0" width="314" height="340">
<rect x="0.5" y="0.5" width="313" height="339" rx="1.5" fill="white" stroke="black"/>
</mask>
<g mask="url(#mask0_495_11022)">
<path fill-rule="evenodd" clip-rule="evenodd" d="M292.528 8.88505C291.573 11.8018 291.08 12.1942 288.365 12.1942C279.587 12.1942 276.03 23.4426 282.579 30.4895L284.494 32.549L281.859 41.39C280.409 46.2521 278.749 50.2301 278.167 50.2301C276.442 50.2301 272.261 45.4895 271.698 42.8947C270.798 38.747 270.564 38.5364 270.489 41.8074C270.43 44.4041 271.168 45.7075 274.542 48.9656C277.333 51.6606 278.515 53.4854 278.196 54.6051C277.92 55.569 278.17 55.4085 278.792 54.2201C279.607 52.6662 280.435 52.2952 282.272 52.6644C287.63 53.7396 293.418 48.4814 293.425 42.5301C293.429 39.4251 291.13 34.5333 288.758 32.6037C287.101 31.2548 287.125 30.9487 289.548 22.6327C290.923 17.9144 292.542 14.0524 293.147 14.0514C295.495 14.0477 299.199 18.4117 299.882 21.988L300.581 25.6459L300.687 22.3739C300.811 18.5248 298.951 15.5042 295.275 13.5885C292.861 12.3305 292.705 11.9539 293.475 9.24871C294.645 5.13619 293.856 4.83283 292.528 8.88505ZM290.182 15.0552C287.304 24.1968 285.404 29.0543 284.654 29.1925C284.164 29.2825 283.047 27.8817 282.172 26.0782C279.303 20.1687 282.999 13.2944 289.118 13.159C290.4 13.1302 290.649 13.5737 290.182 15.0552ZM290.015 37.5484C292.266 41.9206 291.541 46.6195 288.208 49.2625C285.55 51.3684 280.07 51.9111 280.768 49.9982C281.002 49.3608 282.329 45.3735 283.719 41.1386C285.109 36.9027 286.696 33.5889 287.246 33.7735C287.794 33.9581 289.041 35.6568 290.015 37.5484ZM118.171 44.7149C105.987 45.2149 99.6322 45.8272 99.1922 46.5443C98.8286 47.1371 98.2681 50.1587 97.9468 53.2572C97.6256 56.3567 97.192 59.0646 96.9831 59.2752C96.775 59.4858 95.6364 59.1259 94.4545 58.4755C93.1355 57.7501 89.2778 57.3345 84.4802 57.4013C75.1135 57.5302 62.8205 60.5267 49.4146 65.9473L40.081 69.7212L32.1354 66.9761C22.3609 63.6002 -4.55478 56.4847 -5.87474 56.9281C-6.40494 57.1062 -0.893119 58.8642 6.37405 60.8347C26.6163 66.323 36.6587 69.6748 37.2119 71.1276C37.7927 72.6509 23.0292 134.542 21.6779 136.252C21.0529 137.042 16.2434 137.478 5.91565 137.68L-8.94822 137.971L7.06441 137.934L23.077 137.898L24.351 133.492C25.0524 131.068 25.8541 129.085 26.1349 129.085C26.4147 129.085 30.0266 129.995 34.1605 131.107C44.121 133.788 55.2284 133.772 62.849 131.067C65.8866 129.989 67.3363 129.32 66.0707 129.581C52.2442 132.44 45.3811 132.346 30.5642 129.098L25.8937 128.074L32.8654 99.3771L39.8371 70.6814L49.0419 67.4168C69.7913 60.0573 88.2569 56.8567 94.6276 59.5164C97.1883 60.5851 97.4617 61.0499 97.019 63.5937C96.7447 65.1726 96.2393 69.1098 95.8951 72.3419L95.2701 78.219L92.4065 77.7236C83.1013 76.1112 81.9075 76.5686 90.5867 78.4203C102.791 81.0243 115.575 84.6517 121.307 87.1361C126.067 89.2002 131.425 93.45 131.425 95.1626C131.425 100.006 119.596 102.514 99.2079 101.991C90.8545 101.778 85.7799 101.758 87.932 101.946C92.3402 102.332 92.296 102.194 91.2595 112.18L90.676 117.812L86.2466 118.427C80.339 119.246 72.376 116.928 69.8133 113.644C66.3487 109.206 67.8196 104.795 73.8947 101.409C75.4798 100.526 75.5139 100.379 74.1396 100.354C73.2615 100.339 71.2106 101.526 69.5832 102.991C66.1498 106.084 65.5331 111.08 68.2172 114.069C69.7287 115.753 69.7287 115.99 68.2172 118.643C66.8135 121.108 66.7693 121.886 67.8454 125.171C68.8542 128.253 69.8861 129.318 73.7815 131.3C84.0596 136.531 93.7844 136.536 98.5893 131.313L100.74 128.976L127.818 128C149.448 127.22 223.287 127.528 235.404 128.449C237.638 128.618 237.722 128.35 241.28 109.603C243.264 99.1433 245.027 90.4248 245.196 90.229C245.973 89.3282 257.207 94.4761 263.382 98.5617C275.131 106.335 282.721 116.881 285.202 128.882C286.774 136.484 285.822 150.453 283.26 157.38C279.329 168.007 272.694 176.127 263.508 181.552C258.438 184.547 248.191 188.458 245.415 188.458C243.481 188.458 243.436 187.666 245.133 183.495C245.856 181.718 233.077 189.527 225.816 195.298L222.176 198.191L228.389 199.326C234.089 200.367 252.007 202.236 252.007 201.789C252.007 201.684 250.47 200.64 248.59 199.469L245.173 197.341L250.687 196.216C274.216 191.417 289.22 177.454 294.912 155.061C296.97 146.965 296.942 130.621 294.858 122.665C290.216 104.951 277.429 91.6568 255.9 82.1617C251.481 80.2126 247.736 78.5372 247.58 78.4388C247.422 78.3396 248.724 70.8038 250.472 61.6928C252.22 52.5818 253.453 44.919 253.213 44.6639C252.469 43.8753 137.564 43.918 118.171 44.7149ZM312.298 48.3747C311.892 49.6633 310.906 50.2301 309.067 50.2301C304.102 50.2301 301.493 58.2668 305.322 61.7605C306.986 63.2783 307.01 63.6568 305.734 68.1663C303.569 75.8125 303.79 75.4711 301.738 74.3634C300.723 73.817 299.637 72.3373 299.322 71.0766C299.009 69.8158 298.404 68.7842 297.979 68.7842C296.492 68.7842 299.186 74.4627 301.352 75.8932C302.572 76.6985 303.26 77.8043 302.909 78.3943C302.513 79.0613 302.803 79.0261 303.692 78.3015C304.469 77.6679 305.363 77.4109 305.68 77.7301C306.766 78.8247 311.599 76.0815 312.639 73.7799C314.195 70.34 313.913 68.2341 311.523 65.4343C309.437 62.9897 309.411 62.7587 310.708 58.1926C311.445 55.5996 312.405 53.0902 312.841 52.618C313.895 51.4769 317.145 54.478 317.645 57.0524C317.964 58.6982 318.052 58.6147 318.156 56.5747C318.24 54.9169 317.444 53.3926 315.734 51.9361C314.297 50.7125 313.322 49.0584 313.5 48.1428C313.931 45.9135 313.018 46.0907 312.298 48.3747ZM221.606 51.0177L229.404 51.6216L230.162 55.5059C231.049 60.0406 236.02 65.0734 239.613 65.0734C242.503 65.0734 242.511 64.7784 239.115 86.1545C235.331 109.972 235.746 108.522 232.302 109.972C228.1 111.742 223.026 116.464 221.23 120.277L219.704 123.519L171.192 123.527C144.51 123.531 120.609 123.783 118.078 124.086L113.475 124.637L110.534 120.412C107.743 116.402 101.863 112.386 98.7844 112.386C97.2841 112.386 97.0282 110.613 97.8962 106.24L98.4255 103.573L108.252 103.537C123.929 103.479 132.345 100.44 132.345 94.836C132.345 93.4222 131.588 91.5742 130.663 90.7309C129.535 89.7012 129.11 88.3133 129.373 86.5117C129.902 82.8742 127.148 77.3516 123.983 75.7012C120.096 73.676 119.7 74.074 123.221 76.4656C124.933 77.6289 126.853 79.6124 127.486 80.8722C129.021 83.9318 129.04 88.6306 127.513 87.9562C119.388 84.3678 114.204 82.505 108.643 81.1737C101.229 79.4009 101.495 79.8536 102.571 70.8279C103.113 66.2748 103.399 65.8118 106.462 64.5214C111.276 62.4943 113.875 59.6426 114.996 55.159L115.984 51.2005L131.759 50.924C163.097 50.3739 213.976 50.4277 221.606 51.0177ZM310.621 52.4529C310.351 53.1654 309.62 55.4577 308.998 57.5488C308.101 60.5694 307.615 61.1371 306.632 60.3142C304.927 58.8893 305.08 54.9011 306.918 52.8546C308.716 50.8526 311.339 50.5678 310.621 52.4529ZM-13.2625 55.5022C-12.5988 55.7703 -11.8045 55.7369 -11.4989 55.4289C-11.1933 55.1209 -11.7363 54.902 -12.7065 54.9419C-13.7789 54.9864 -13.997 55.2063 -13.2625 55.5022ZM-9.58058 56.4299C-8.91692 56.698 -8.12255 56.6646 -7.81695 56.3566C-7.51135 56.0487 -8.05443 55.8297 -9.02462 55.8696C-10.097 55.9141 -10.3151 56.134 -9.58058 56.4299ZM162.549 58.2854C163.212 58.5535 164.007 58.5201 164.312 58.2121C164.618 57.9041 164.075 57.6851 163.105 57.725C162.032 57.7696 161.814 57.9894 162.549 58.2854ZM172.846 58.944C172.846 59.1444 173.489 59.5572 174.275 59.8615C175.094 60.1779 175.463 60.022 175.141 59.4969C174.6 58.6147 172.846 58.1926 172.846 58.944ZM153.956 63.3358C145.711 70.9958 141.254 84.9263 143.321 96.5801C145.984 111.6 155.937 120.092 167.186 116.943C173.255 115.245 181.037 107.279 183.882 99.8558C186.172 93.8786 187.466 79.3276 186.042 75.5639C185.555 74.2771 185.272 77.3543 185.272 83.929C185.272 93.7692 185.113 94.656 182.305 100.407C177.15 110.966 170.446 116.252 162.209 116.252C157.301 116.252 153.536 114.3 149.924 109.884C145.465 104.431 144.046 98.8316 144.464 88.3356C144.779 80.4306 145.198 78.5418 147.823 73.1667C149.676 69.3733 152.442 65.5892 155.061 63.2671C157.391 61.1993 159.023 59.5071 158.687 59.5071C158.352 59.5071 156.222 61.2299 153.956 63.3358ZM178.495 62.7578C179.831 64.2867 181.78 67.2071 182.827 69.248C183.874 71.289 184.749 72.6295 184.772 72.226C184.865 70.5524 181.125 64.4462 178.688 62.294L176.068 59.9775L178.495 62.7578ZM310.855 67.7043C311.683 69.7193 311.683 70.8957 310.854 72.7279C309.909 74.8198 306.563 76.7652 305.593 75.7865C305.055 75.2447 308.416 65.0734 309.133 65.0734C309.485 65.0734 310.26 66.2571 310.855 67.7043ZM165.904 69.9438C165.61 71.0914 164.053 72.6574 162.444 73.4227C156.594 76.2058 155.717 82.4011 160.537 86.9023C162.815 89.0304 162.853 89.2651 161.924 95.2832C161.398 98.6888 160.772 101.671 160.533 101.913C159.488 102.966 156.14 100.895 154.863 98.4049C153.244 95.2488 152.561 94.888 153.252 97.5542C153.74 99.4319 158.506 104.037 159.962 104.037C160.393 104.037 160.934 104.767 161.166 105.66C161.567 107.207 161.592 107.207 161.694 105.66C161.765 104.568 162.566 104.037 164.143 104.037C165.432 104.037 167.503 103.012 168.745 101.759C172.298 98.1795 171.507 92.8461 166.811 88.7299C164.801 86.9672 164.742 86.5729 165.64 80.8444C166.16 77.5278 166.72 74.6714 166.885 74.4979C167.87 73.457 171.36 75.9016 172.431 78.3813C173.401 80.6291 173.703 80.8638 173.731 79.3962C173.773 77.154 170.944 73.8226 168.273 72.9681C166.827 72.5062 166.527 71.854 166.961 70.1127C167.27 68.8714 167.279 67.8565 166.98 67.8565C166.682 67.8565 166.197 68.7963 165.904 69.9438ZM116.024 74.0656C116.92 74.3013 118.162 74.2855 118.785 74.0313C119.409 73.7771 118.676 73.5851 117.157 73.6036C115.638 73.6222 115.128 73.83 116.024 74.0656ZM205.629 75.3598C202.392 77.9258 200.437 81.9038 200.562 85.6684C200.655 88.4896 200.725 88.4107 201.454 84.6665C202.487 79.3675 204.517 76.358 208.123 74.7762C209.73 74.0721 210.377 73.4793 209.559 73.4589C208.742 73.4394 206.973 74.2948 205.629 75.3598ZM217.489 75.1316C221.491 77.5965 222.59 79.2673 223.505 84.2695L224.321 88.7299L223.988 84.1229C223.706 80.2367 223.138 79.04 220.355 76.4693C218.54 74.7939 216.532 73.4246 215.892 73.4264C215.252 73.4283 215.97 74.1955 217.489 75.1316ZM164.231 80.3805C163.74 83.6971 163.014 86.4106 162.62 86.4106C161.418 86.4106 159.039 82.4038 159.039 80.3805C159.039 77.7551 161.567 74.3504 163.515 74.3504C164.975 74.3504 165.042 74.9135 164.231 80.3805ZM76.9443 75.9118C77.6079 76.1799 78.4023 76.1465 78.7079 75.8385C79.0135 75.5305 78.4704 75.3115 77.5003 75.3514C76.4279 75.396 76.2097 75.6158 76.9443 75.9118ZM321.963 85.4384C321.204 85.8642 319.455 86.6601 318.077 87.2075C315.128 88.3792 313.79 92.3117 315.435 94.9687C316.321 96.3973 316.232 97.569 314.985 100.859C314.129 103.117 313.051 104.965 312.589 104.965C312.127 104.965 311.164 103.607 310.449 101.95C309.435 99.5989 309.141 99.3669 309.113 100.897C309.093 101.976 309.891 103.903 310.887 105.179C311.883 106.456 312.464 107.736 312.177 108.024C311.674 108.531 312.18 108.467 317.499 107.345C320.752 106.66 322.311 102.444 320.566 99.0543C319.516 97.0124 319.55 96.1023 320.798 92.899C322.394 88.805 323.642 88.5749 325.401 92.0501C326.463 94.1449 326.54 94.1653 326.552 92.3525C326.559 91.2838 325.765 89.6789 324.786 88.7864C323.809 87.894 323.232 86.5767 323.504 85.8595C324.065 84.3891 323.911 84.3465 321.963 85.4384ZM319.496 91.4731C317.955 94.7303 316.441 95.0447 316.441 92.1076C316.441 90.2086 318.155 88.266 319.832 88.266C320.729 88.266 320.648 89.0379 319.496 91.4731ZM169.164 96.4901C169.164 99.6128 167.583 101.778 164.659 102.657C162.477 103.312 162.462 103.273 163.1 98.3437C163.454 95.6069 163.991 92.3563 164.293 91.1196L164.842 88.8709L167.003 91.4035C168.191 92.796 169.164 95.0846 169.164 96.4901ZM319.03 102.414C318.808 104.733 318.259 105.497 316.654 105.727C314.573 106.025 314.571 106.015 316.134 102.712C318.088 98.5812 319.41 98.4448 319.03 102.414ZM79.1875 100.965C80.0739 101.199 81.5227 101.199 82.4092 100.965C83.2956 100.733 82.5702 100.541 80.7983 100.541C79.0264 100.541 78.3011 100.733 79.1875 100.965ZM75.2755 118.522C78.1851 119.555 81.0284 119.827 84.8291 119.439L90.2406 118.884L89.6147 124.462L88.9878 130.041L94.3284 129.494L99.6681 128.949L97.0852 131.336C94.9948 133.269 93.5801 133.724 89.6588 133.724C76.9194 133.724 66.1996 126.322 68.8321 119.344C69.8594 116.621 69.9045 116.616 75.2755 118.522ZM-15.6217 137.146C-14.7353 137.38 -13.2864 137.38 -12.4 137.146C-11.5136 136.913 -12.2389 136.722 -14.0108 136.722C-15.7828 136.722 -16.5081 136.913 -15.6217 137.146ZM71.1333 143.615C58.9591 145.094 53.184 146.079 53.184 146.673C53.184 147.057 54.5307 147.766 56.1756 148.249L59.1671 149.127L51.343 153.236C41.1534 158.587 30.798 168.679 26.6255 177.326C20.3524 190.325 19.5442 205.149 24.223 221.42C27.2919 232.093 30.277 237.564 36.9882 244.819C46.0052 254.566 59.1643 260.804 77.5113 264.029C82.0262 264.822 85.8462 265.598 85.999 265.751C86.1509 265.905 86.7603 271.224 87.3521 277.573C87.9449 283.92 88.6794 289.392 88.986 289.73C89.2925 290.07 97.2058 290.816 106.572 291.388C128.684 292.741 159.212 295.535 183.335 298.414C202.401 300.69 209.784 301.229 200.921 299.697C195.774 298.807 148.487 293.289 146.011 293.289C144.915 293.289 144.314 292.362 144.056 290.274L143.685 287.259L143.538 290.377C143.397 293.364 143.265 293.473 140.399 292.967C138.754 292.677 130.573 291.953 122.22 291.358C113.866 290.765 106.938 290.2 106.823 290.104C106.352 289.712 98.963 206.95 99.3625 206.547C99.8366 206.07 108.219 206.766 145.049 210.344C158.366 211.638 169.964 212.553 170.823 212.378C173.574 211.82 93.546 204.252 84.7103 204.237C81.0441 204.229 80.7983 204.392 80.7983 206.808C80.7983 209.528 84.1038 243.97 84.9359 249.919L85.4228 253.398H81.8771C76.6166 253.398 64.8971 250.129 57.9318 246.719C50.2201 242.943 40.6471 233.574 37.2662 226.494C31.7083 214.851 30.3654 199.595 33.888 188.101C37.3895 176.676 46.6965 165.913 58.8302 159.257L63.5385 156.675L63.1482 160.043C62.9337 161.894 63.0386 163.41 63.3811 163.41C63.8965 163.41 70.211 156.537 80.2157 145.088L82.04 143.001L77.9669 143.14C75.7274 143.216 72.6521 143.43 71.1333 143.615ZM91.3507 206.316C91.5532 206.955 93.2146 224.175 95.0418 244.584C96.8689 264.994 98.6004 283.467 98.8903 285.635L99.4168 289.578H94.7279C90.6032 289.578 89.9874 289.327 89.6174 287.491C89.3855 286.342 87.7028 269.54 85.8784 250.151C84.054 230.762 82.3143 212.706 82.0134 210.027L81.4657 205.157H86.2236C89.2188 205.157 91.1178 205.586 91.3507 206.316ZM136.259 213.97C136.269 216.011 136.458 216.736 136.678 215.582C136.898 214.428 136.889 212.758 136.659 211.872C136.429 210.985 136.249 211.929 136.259 213.97ZM105.841 217.65C106.073 220.472 106.493 223.012 106.773 223.295C107.054 223.578 111.162 223.892 115.903 223.992L124.521 224.175L124.336 220.123C124.234 217.894 123.991 215.91 123.796 215.712C123.432 215.347 116.671 214.11 109.447 213.089L105.418 212.519L105.841 217.65ZM174.457 213.233C175.596 213.454 177.459 213.454 178.599 213.233C179.739 213.012 178.806 212.831 176.528 212.831C174.25 212.831 173.317 213.012 174.457 213.233ZM182.752 214.162C183.897 214.384 185.554 214.375 186.434 214.144C187.314 213.912 186.377 213.73 184.352 213.74C182.327 213.75 181.607 213.94 182.752 214.162ZM191.037 215.09C192.182 215.312 193.838 215.303 194.718 215.071C195.598 214.839 194.661 214.657 192.636 214.668C190.611 214.678 189.891 214.868 191.037 215.09ZM197.929 216.001C198.815 216.235 200.264 216.235 201.151 216.001C202.037 215.768 201.312 215.577 199.54 215.577C197.768 215.577 197.043 215.768 197.929 216.001ZM205.293 216.929C206.179 217.162 207.628 217.162 208.515 216.929C209.401 216.696 208.676 216.505 206.904 216.505C205.132 216.505 204.406 216.696 205.293 216.929ZM212.674 217.86C213.57 218.096 214.812 218.08 215.436 217.826C216.059 217.571 215.326 217.379 213.807 217.398C212.288 217.416 211.779 217.624 212.674 217.86ZM137.475 226.03C138.259 240.287 138.771 242.87 141.058 244.104C142.471 244.866 143.089 246.013 143.024 247.758C142.945 249.901 142.526 250.302 140.36 250.304C138.793 250.305 137.948 249.886 138.197 249.234C138.421 248.644 137.817 247.666 136.855 247.061C135.789 246.39 135.106 246.325 135.106 246.896C135.106 247.41 135.521 247.831 136.027 247.831C136.533 247.831 136.947 248.919 136.947 250.25C136.947 251.918 137.34 252.517 138.21 252.18C139.611 251.638 140.126 254.76 141.196 270.299C141.538 275.259 142.079 279.152 142.399 278.953C142.72 278.754 144.006 279.383 145.258 280.353C146.559 281.361 146.994 282.124 146.275 282.136C145.479 282.149 145.191 282.829 145.491 283.984C146.174 286.618 142.459 286.055 140.508 283.228C139.641 281.972 138.758 281.455 138.421 282.004C138.101 282.527 138.259 283.218 138.774 283.539C139.288 283.859 139.709 284.89 139.709 285.829C139.709 287.229 140.379 287.512 143.421 287.398C146.559 287.28 147.098 286.972 146.901 285.403C146.774 284.383 147.04 282.947 147.494 282.211C148.006 281.382 147.957 280.753 147.366 280.554C143.664 279.31 143.162 277.869 141.924 264.921C141.245 257.818 140.675 251.732 140.659 251.397C140.643 251.062 141.519 251.023 142.606 251.309C144.357 251.77 144.513 251.55 143.969 249.367C143.606 247.908 143.738 246.904 144.294 246.904C145.939 246.904 145.3 244.892 143.505 244.419C140.755 243.695 139.761 240.688 138.344 228.813C137.072 218.149 137.035 218.032 137.475 226.03ZM219.118 218.788C220.013 219.023 221.256 219.008 221.879 218.753C222.502 218.499 221.769 218.307 220.251 218.326C218.732 218.344 218.222 218.552 219.118 218.788ZM219.354 236.931L219.691 253.398L217.209 253.413C214.91 253.428 204.588 255.409 200.101 256.696C198.812 257.065 199.101 256.648 200.96 255.455C209.492 249.983 212.428 240.455 208.2 231.966C206.841 229.239 200.93 223.711 199.371 223.711C198.808 223.711 199.745 224.66 201.453 225.821C208.651 230.709 210.933 239.872 206.925 247.79C201.092 259.314 184.181 259.314 178.348 247.79C174.823 240.826 176.805 231.167 182.709 226.544C184.119 225.44 184.439 224.938 183.421 225.429C176.965 228.543 173.661 239.484 176.851 247.18C179.546 253.681 188.643 258.838 195.245 257.606C197.813 257.126 197.636 257.343 193.751 259.441C191.326 260.749 188.885 262.83 188.328 264.064C185.383 270.578 198.269 276.56 215.293 276.583L220.46 276.59L221.107 287.491C221.463 293.486 221.968 299.293 222.232 300.395C222.57 301.814 222.217 302.528 221.02 302.839C220.09 303.081 220.78 303.32 222.552 303.372C224.324 303.423 225.315 303.159 224.755 302.784C224.166 302.39 223.46 297.269 223.084 290.655C222.725 284.36 222.207 278.619 221.933 277.899C221.572 276.952 222.196 276.59 224.19 276.59H226.945L227.331 289.81C227.583 298.465 227.381 303.265 226.745 303.712C226.153 304.126 226.347 304.398 227.243 304.407C228.541 304.419 228.66 302.818 228.268 290.506L227.824 276.59L233.702 276.45C236.935 276.373 232.596 275.976 224.059 275.567C198.102 274.323 187.84 270.991 189.892 264.476C191.285 260.052 205.861 255.777 228.995 253.008C238.83 251.831 239.143 251.734 233.425 251.641L227.271 251.542L226.899 248.527C226.534 245.558 226.526 245.566 226.381 248.991C226.245 252.205 226.024 252.47 223.472 252.47H220.711L220.608 245.28C220.552 241.326 220.17 234.124 219.761 229.277C219.165 222.225 219.084 223.754 219.354 236.931ZM188.322 223.417C188.986 223.685 189.78 223.652 190.086 223.344C190.391 223.036 189.848 222.817 188.878 222.857C187.806 222.901 187.587 223.121 188.322 223.417ZM188.276 230.729C186.89 231.487 185.497 233.146 185.181 234.415C184.866 235.684 183.928 237.122 183.098 237.61C182.198 238.14 182.054 238.509 182.741 238.526C184.096 238.559 184.323 241.337 182.971 241.337C182.134 241.337 182.848 242.291 187.302 247.121C189.286 249.272 194.098 250.086 198.364 248.991C201.781 248.114 201.75 248.099 196.571 248.087C191.43 248.075 186.653 246.155 186.653 244.099C186.653 243.601 189.449 243.144 192.866 243.083C197.668 242.998 198.452 242.812 196.318 242.265C194.799 241.875 191.797 241.507 189.645 241.447C182.955 241.259 185.311 239.488 192.406 239.372C197.427 239.29 198.396 239.087 196.318 238.554C194.799 238.165 191.797 237.796 189.645 237.736C185.187 237.612 184.877 236.878 187.82 233.429C189.374 231.608 191.199 230.794 194.954 230.246L200 229.509L195.398 229.43C192.866 229.387 189.661 229.971 188.276 230.729ZM225.327 232.789C225.315 234.674 225.533 234.79 227.299 233.838C233.138 230.688 252.371 235.385 272.418 244.857L282.242 249.499L282.902 254C283.265 256.475 285.285 269.622 287.393 283.216L291.225 307.932L281.249 309.042C275.762 309.653 269.112 309.857 266.472 309.496C261.309 308.789 250.156 305.603 249.002 304.506C248.614 304.137 248.94 302.537 249.726 300.949C251.149 298.073 250.834 293.815 249.12 292.747C248.657 292.459 249.361 290.925 250.684 289.34C252.553 287.101 252.971 285.822 252.556 283.611C252.001 280.661 247.106 275.662 244.772 275.662C244.045 275.662 244.852 276.614 246.566 277.779C252.708 281.95 252.25 288.204 245.545 291.723C243.025 293.046 240.869 293.319 235.439 293.008C230.515 292.725 229.195 292.859 230.836 293.475C233.981 294.656 241.761 294.571 245.027 293.319C248.218 292.095 249.21 293.108 249.232 297.613C249.259 303.157 239.923 308.137 229.518 308.128C224.661 308.125 219.294 305.688 218.28 303.024C217.95 302.159 216.667 301.686 214.859 301.764C212.418 301.871 212.317 301.957 214.21 302.315C215.443 302.549 217.543 303.918 218.876 305.356C223.552 310.4 233.541 311.131 242.824 307.107L247.062 305.269L255.64 308.166C265.242 311.407 273.38 311.912 284.505 309.954C287.949 309.347 290.987 309.073 291.255 309.343C291.523 309.614 291.973 311.571 292.256 313.695C292.628 316.485 293.308 317.76 294.71 318.295C297.096 319.203 321.783 321.169 328.541 320.988C331.592 320.907 329.786 320.581 323.804 320.134C318.489 319.737 309.722 318.909 304.322 318.296L294.506 317.18L293.534 311.618C292.999 308.559 290.644 293.527 288.301 278.216C284.801 255.353 284.262 250.235 285.282 249.59C286.457 248.85 307.08 243.733 320.122 240.947C323.413 240.244 325.424 239.627 324.591 239.575C322.5 239.447 292.151 245.612 286.634 247.288L282.139 248.651L272.363 243.71C254.369 234.615 239.414 230.479 230.474 232.127C227.929 232.597 226.48 232.472 226.021 231.746C225.614 231.1 225.335 231.519 225.327 232.789ZM0.425925 236.188C-1.50616 236.882 -3.94634 238.22 -4.99661 239.162C-7.46073 241.369 -10.2829 247.578 -10.3087 250.846C-10.3206 252.32 -10.838 253.398 -11.5338 253.398C-12.1966 253.398 -13.5423 254.03 -14.5254 254.803C-16.2163 256.133 -16.1703 256.177 -13.6822 255.605C-11.9057 255.197 -10.7901 255.419 -10.2442 256.287C-8.95098 258.346 -9.23264 258.878 -12.4 260.345L-15.3916 261.732L-11.9398 261.462C-10.0408 261.314 -8.48798 261.476 -8.48798 261.823C-8.48798 262.17 -7.18918 263.734 -5.60228 265.297C-0.917972 269.913 8.76821 270.819 17.4262 267.45C21.8574 265.726 20.9875 264.796 16.1302 266.066C9.71814 267.743 3.05481 267.638 -0.786343 265.801C-5.47802 263.557 -6.9158 259.891 -3.10411 259.891C-0.634465 259.891 12.683 256.002 12.683 255.28C12.683 254.653 3.18183 255.94 -4.57595 257.62C-7.16709 258.182 -7.5675 258.02 -7.5675 256.415C-7.5675 254.982 -6.76208 254.433 -4.01354 253.989C1.59033 253.087 12.4455 249.352 10.3818 249.036C9.36928 248.882 4.91693 249.51 0.486677 250.433L-7.5675 252.11V249.644C-7.5675 246.786 -4.45445 241.811 -1.09839 239.308C0.181078 238.353 4.32323 237.003 8.10639 236.308L14.9842 235.044L9.46133 234.984C6.42376 234.952 2.35801 235.493 0.425925 236.188ZM327.256 239.168C327.889 239.426 328.925 239.426 329.557 239.168C330.191 238.911 329.672 238.701 328.407 238.701C327.141 238.701 326.624 238.911 327.256 239.168ZM129.123 247.831C130.039 248.852 131.308 249.687 131.941 249.687C132.836 249.687 132.858 250.189 132.037 251.94C130.915 254.337 126.822 255.833 126.822 253.847C126.822 253.214 126.201 252.178 125.441 251.542C124.488 250.744 124.061 250.709 124.061 251.429C124.061 252.001 124.475 252.47 124.981 252.47C125.487 252.47 125.902 253.514 125.902 254.789C125.902 257.133 127.155 257.889 128.205 256.177C128.519 255.665 129.851 255.518 131.163 255.85C133.318 256.395 133.496 256.242 132.987 254.278C132.676 253.081 132.887 251.537 133.455 250.847C134.26 249.871 134.061 249.48 132.56 249.085C131.499 248.804 130.408 247.991 130.137 247.276C129.864 246.561 129.15 245.976 128.549 245.976C127.898 245.976 128.13 246.725 129.123 247.831ZM149.528 246.595C149.19 246.934 148.92 247.665 148.927 248.218C148.936 248.77 149.301 248.651 149.739 247.954C150.391 246.918 150.852 247.002 152.257 248.418C154.178 250.354 154.113 254.755 152.174 254.005C151.517 253.751 150.514 254.011 149.946 254.583C149.183 255.352 148.914 255.092 148.914 253.583C148.914 252.461 148.475 251.542 147.939 251.542C147.403 251.542 147.26 251.06 147.62 250.471C148.044 249.78 147.872 249.653 147.134 250.112C146.311 250.625 146.272 251.106 146.993 251.832C147.543 252.387 147.993 253.852 147.993 255.088C147.993 256.972 148.215 257.15 149.362 256.191C150.176 255.511 151.715 255.295 153.155 255.659C155.377 256.221 155.532 256.08 155.004 253.964C154.689 252.694 154.845 251.396 155.353 251.08C156.702 250.241 156.483 248.759 155.009 248.759C154.312 248.759 153.226 248.133 152.596 247.367C151.348 245.853 150.48 245.634 149.528 246.595ZM126.421 249.415C125.922 250.737 126.027 250.844 126.936 249.934C127.566 249.304 127.849 248.556 127.565 248.271C127.282 247.985 126.767 248.5 126.421 249.415ZM157.294 259.196C159.633 261.409 159.945 266.007 157.697 265.138C157.04 264.883 156.037 265.143 155.469 265.716C154.706 266.485 154.437 266.224 154.437 264.716C154.437 263.593 153.997 262.675 153.462 262.675C152.926 262.675 152.782 262.192 153.143 261.603C153.567 260.913 153.395 260.786 152.657 261.244C151.834 261.757 151.795 262.239 152.515 262.965C153.066 263.52 153.516 264.671 153.516 265.524C153.516 266.734 154.334 267.053 157.244 266.976C160.607 266.888 160.921 266.679 160.462 264.833C160.182 263.709 160.368 262.529 160.876 262.213C162.225 261.373 162.006 259.891 160.532 259.891C159.835 259.891 158.749 259.265 158.118 258.5C157.488 257.735 156.549 257.108 156.031 257.108C155.513 257.108 156.08 258.047 157.294 259.196ZM124.075 259.66C124.087 261.022 124.226 261.063 124.946 259.917C125.68 258.748 125.89 258.781 126.411 260.149C126.746 261.028 127.647 261.747 128.414 261.747C129.492 261.747 129.571 262.036 128.76 263.021C128.183 263.722 127.93 264.87 128.197 265.572C128.531 266.448 127.956 266.849 126.372 266.849C125.101 266.849 124.061 266.328 124.061 265.69C124.061 265.052 123.602 264.53 123.042 264.53C122.481 264.53 122.27 263.882 122.571 263.09C122.886 262.262 122.732 261.892 122.206 262.219C121.703 262.533 121.559 263.91 121.884 265.282C122.731 268.86 123.162 269.377 124.421 268.324C125.035 267.811 126.396 267.617 127.444 267.894C129.036 268.313 129.431 267.884 129.826 265.304C130.213 262.772 129.859 261.838 127.871 260.157C124.909 257.653 124.056 257.541 124.075 259.66ZM128.663 271.767C128.663 272.207 129.713 273.133 130.997 273.825C132.373 274.567 133.127 275.613 132.838 276.376C132.567 277.087 132.345 278.286 132.345 279.04C132.345 279.794 131.912 280.141 131.384 279.812C130.856 279.483 129.82 279.718 129.083 280.334C127.981 281.257 127.743 281.105 127.743 279.486C127.743 278.404 127.225 277.505 126.592 277.488C125.89 277.471 126.068 276.979 127.052 276.227C127.939 275.548 128.663 274.662 128.663 274.257C128.663 273.852 127.825 274.284 126.8 275.218C125.53 276.377 125.237 277.219 125.88 277.867C126.398 278.389 126.822 279.568 126.822 280.487C126.822 282.291 128.2 282.734 129.125 281.226C129.506 280.604 130.269 280.605 131.425 281.229C133.312 282.246 134.752 281.047 133.701 279.332C133.374 278.8 133.616 277.746 134.238 276.991C134.86 276.236 135.206 275.522 135.008 275.405C134.809 275.288 133.3 274.242 131.655 273.081C130.01 271.919 128.663 271.328 128.663 271.767ZM155.357 272.934C155.357 273.474 155.679 273.716 156.073 273.47C156.467 273.225 157.813 273.817 159.065 274.787C160.366 275.795 160.802 276.558 160.082 276.57C159.286 276.583 158.998 277.263 159.298 278.418C159.981 281.052 156.266 280.488 154.315 277.662C153.448 276.406 152.565 275.889 152.228 276.438C151.908 276.961 152.066 277.651 152.581 277.972C153.095 278.292 153.516 279.324 153.516 280.263C153.516 281.663 154.186 281.946 157.228 281.832C160.366 281.714 160.905 281.406 160.709 279.837C160.581 278.817 160.815 277.433 161.231 276.76C161.646 276.088 161.84 275.441 161.662 275.32C159.425 273.799 156.237 271.952 155.849 271.952C155.579 271.952 155.357 272.394 155.357 272.934ZM29.9539 278.97C27.2569 280.445 24.6492 284.656 24.6492 287.535C24.6492 288.503 23.7168 289.748 22.5781 290.302L20.5071 291.308L22.5781 291.37C25.0542 291.446 25.2632 293.041 23.0384 294.879C21.5454 296.113 21.5794 296.177 23.5051 295.762C24.8241 295.478 26.0014 295.907 26.7267 296.938C28.5152 299.476 31.5371 300.711 35.9573 300.711C40.371 300.711 45.8202 299.149 45.8202 297.885C45.8202 297.451 44.5499 297.542 42.998 298.088C39.3207 299.38 31.3494 298.584 29.5222 296.743C28.2262 295.436 28.4296 295.204 31.6623 294.299C33.6275 293.749 35.6728 293.297 36.2095 293.294C36.7452 293.292 37.9878 292.637 38.9709 291.84C40.8975 290.277 40.3351 290.29 30.4988 292.025C25.1684 292.967 27.5726 290.972 33.3357 289.672C40.1583 288.134 41.2988 286.299 34.9024 287.154C32.2882 287.504 29.5333 288.028 28.7803 288.319C26.6043 289.161 27.1041 285.402 29.5498 282.537C31.0668 280.759 33.2741 279.688 37.1438 278.852L42.5985 277.674L37.5359 277.633C34.7266 277.611 31.3521 278.205 29.9539 278.97ZM73.8947 292.057C67.7809 293.413 64.2297 296.848 64.2297 301.406C64.2297 302.351 63.7327 303.623 63.1252 304.236C62.2664 305.101 62.3685 305.349 63.5854 305.349C64.446 305.349 65.1502 305.766 65.1502 306.277C65.1502 306.787 64.736 307.204 64.2297 307.204C63.7235 307.204 63.3093 307.609 63.3093 308.103C63.3093 308.597 63.9462 308.756 64.724 308.454C65.5028 308.153 66.9718 308.666 67.989 309.594C70.4172 311.809 74.9975 311.615 79.5051 309.107C81.7888 307.836 82.26 307.334 80.7983 307.732C76.3414 308.944 70.4936 309.25 69.5703 308.32C68.9389 307.683 70.0849 306.703 73.1068 305.295C78.3333 302.859 76.5218 301.629 71.0827 303.919C65.9179 306.094 66.31 305.06 71.5963 302.565C77.4202 299.815 77.5481 298.53 71.8237 300.281C69.4194 301.017 67.3483 301.622 67.2213 301.628C67.0943 301.634 66.9912 300.84 66.9912 299.865C66.9912 297.728 71.9728 293.289 74.3715 293.289C75.315 293.289 76.3432 292.871 76.6562 292.361C77.2453 291.4 76.9857 291.371 73.8947 292.057ZM207.134 301.35C208.02 301.583 209.469 301.583 210.355 301.35C211.241 301.117 210.517 300.926 208.745 300.926C206.973 300.926 206.247 301.117 207.134 301.35Z" fill="#121A17"/>
</g>
</svg>
