<svg width="367" height="334" viewBox="0 0 367 334" fill="none" xmlns="http://www.w3.org/2000/svg">
<path fill-rule="evenodd" clip-rule="evenodd" d="M215.169 1.62503C213.487 2.54028 212.296 2.70615 211.908 2.0792C211.573 1.53518 209.825 1.09089 208.022 1.09089C205.45 1.09089 203.981 1.93998 201.182 5.04314C199.222 7.21623 197.618 9.93729 197.618 11.0895C197.618 12.3365 195.808 14.7801 193.142 17.1309C188.235 21.4574 185.349 26.318 184.273 32.0622C183.772 34.7418 182.904 36.0451 181.189 36.6987C178.946 37.5537 178.821 38.0049 179.094 44.2793C179.344 49.9762 179.692 51.0849 181.476 51.8699C183.378 52.7071 183.522 53.3716 183.081 59.2748C182.715 64.1768 182.052 66.3637 180.365 68.2288C171.992 77.4889 171.02 94.5123 178.318 104.09L181.536 108.313L173.336 110.437C155.813 114.975 135.383 127.522 116.454 145.373C108.807 152.585 105.397 155.202 104.499 154.547C98.2822 150.014 76.4116 130.087 72.8677 125.728C68.6644 120.559 68.4121 119.92 68.9069 115.692C70.6404 100.859 70.7045 96.8611 69.2075 96.8611C68.1618 96.8611 67.2433 94.6189 66.0735 89.2094C63.458 77.1167 60.7458 68.5655 59.0901 67.1882C57.8375 66.1475 56.1986 66.2354 49.981 67.6729C41.7096 69.5864 34.6602 72.3213 33.6086 74.0254C32.8123 75.3148 37.9873 95.1126 42.0161 106.193C43.586 110.511 46.0508 115.75 47.4936 117.835C50.8128 122.633 52.1649 130.239 50.1131 132.559C47.3684 135.662 49.3109 141.605 53.4737 142.841C53.6018 142.879 54.8229 147.322 56.1858 152.714C62.5552 177.908 71.3322 199.034 79.8067 209.572C84.4751 215.375 92.2035 221.124 97.9816 223.087C105.623 225.684 117.313 223.803 124.934 218.751C127.652 216.949 128.742 216.592 128.343 217.632C128.021 218.474 126.542 226.189 125.056 234.776C121.916 252.928 121.067 278.867 123.564 280.414C124.392 280.929 124.654 282.026 124.251 283.298C123.189 286.647 123.466 315.006 124.63 322.193C125.722 328.932 127.377 334.419 128.099 333.694C128.318 333.475 127.865 329.081 127.093 323.93C124.821 308.769 124.797 308.876 130.988 306.306C135.774 304.318 141.117 300.231 138.886 300.262C138.396 300.269 135.334 301.627 132.081 303.281L126.168 306.286L125.889 294.743C125.737 288.395 125.818 282.993 126.072 282.739C126.325 282.486 131.107 284.052 136.699 286.219C148.819 290.918 164.037 294.624 180.865 296.974C198.445 299.428 245.754 299.385 261.184 296.899C281.427 293.638 280.046 293.596 280.776 297.499C281.367 300.655 284.281 327.842 284.324 330.61C284.335 331.289 284.835 331.844 285.434 331.844C286.724 331.844 285.959 318.933 283.768 303.705C282.448 294.533 282.467 293.743 284.043 292.586C285.585 291.452 285.729 288.722 285.622 262.473C285.516 236.247 284.31 213.068 282.725 206.742L282.116 204.308L286.386 206.49C290.623 208.656 300.643 212.378 302.238 212.378C302.694 212.378 303.069 211.664 303.069 210.791C303.069 209.684 303.59 209.406 304.793 209.872C310.185 211.957 320.41 213.494 328.894 213.494C337.185 213.494 339.373 213.131 344.07 210.977C363.3 202.157 370.298 184.788 365.58 157.581C363.823 147.443 360.446 134.874 356.65 124.337C355.216 120.357 353.993 115.324 353.933 113.152C353.847 110.078 353.337 108.989 351.633 108.24C350.429 107.711 349.007 106.156 348.475 104.784C347.943 103.413 346.115 98.6008 344.412 94.0887C340.318 83.24 335.642 78.102 329.865 78.102C325.057 78.102 319.875 82.0661 316.808 88.0888C313.422 94.7384 315.169 100.81 320.467 100.81C322.764 100.81 326.721 104.683 326.721 106.931C326.721 107.784 325.562 109.242 324.147 110.172C321.849 111.68 321.641 112.292 322.209 115.857C322.699 118.922 322.12 122.062 319.722 129.337C318.003 134.554 316.464 138.98 316.3 139.173C316.136 139.365 312.317 137.304 307.811 134.592C296.455 127.756 283.892 121.599 270.546 116.325C257.526 111.179 249.658 108.969 238.517 107.323L230.633 106.159L230.855 101.683C231.012 98.5248 232.251 95.1748 235.071 90.2954C237.546 86.0124 239.504 81.0245 240.217 77.1799L241.369 70.9755L245.515 71.5452C251.336 72.344 252.115 71.0693 251.278 62.1242C250.727 56.2348 250.123 54.3846 248.009 52.1118C245.586 49.5082 245.413 48.6946 245.373 39.7702C245.322 28.4318 243.975 23.0568 240.483 20.2627C238.207 18.4411 238.09 18.063 239.449 16.9335C242.701 14.2292 240.208 9.97679 235.369 9.97679C234.38 9.97679 232.991 9.04772 232.284 7.91131C231.211 6.18942 230.21 5.90211 226.277 6.1835C221.94 6.49352 221.646 6.37701 222.646 4.73312C223.517 3.30348 223.351 2.66073 221.822 1.52432C219.469 -0.223238 218.541 -0.208427 215.169 1.62503ZM222.256 13.9083C225.58 14.8314 225.705 15.0368 225.705 19.5627C225.705 23.9583 225.887 24.292 228.535 24.7698C230.707 25.1618 231.624 26.081 232.477 28.7241C233.171 30.8695 234.333 32.3051 235.561 32.5322C239.091 33.1868 239.995 34.7536 239.995 40.2106C239.995 43.1311 239.76 45.5204 239.471 45.5204C239.182 45.5204 237.408 44.8767 235.529 44.0898C233.291 43.1528 232.111 41.9966 232.111 40.7398C232.111 38.0029 230.023 37.4303 218.01 36.8714C207.779 36.3956 207.334 36.4587 206.809 38.4709C206.371 40.1513 205.605 40.5176 202.928 40.3271C201.094 40.1967 199.592 39.5501 199.591 38.8905C199.588 36.9179 196.095 35.6472 190.674 35.6472H185.572L186.248 31.9447C187.719 23.8931 193.543 17.1309 201.447 14.3013C205.688 12.7828 217.409 12.5616 222.256 13.9083ZM33.4086 22.5651C33.6865 23.515 35.0711 29.8466 36.4854 36.6345C37.9006 43.4223 39.432 50.3089 39.8893 51.938C40.6876 54.7854 40.7241 54.8012 40.8206 52.3665C41.0453 46.7042 35.3461 20.8373 33.8737 20.8373C33.3406 20.8373 33.1316 21.6153 33.4086 22.5651ZM81.7955 23.3056C77.9017 32.6487 70.2817 51.2459 69.8609 52.4316C69.5721 53.2462 70.2028 52.9342 71.2623 51.7385C73.8157 48.8575 83.527 25.1065 83.0165 22.9887C82.6726 21.5581 82.505 21.6015 81.7955 23.3056ZM205.89 46.095C206.219 46.954 206.488 48.4824 206.488 49.4924C206.488 52.1098 207.4 52.4405 217.578 53.5098C227.583 54.5623 231.126 54.1456 231.126 51.9192C231.126 50.3869 233.887 50.0344 237.754 51.0731C239.641 51.5796 239.793 51.9528 238.839 53.7379C237.75 55.7767 237.776 55.7836 240.307 54.1229C243.505 52.0229 245.324 51.9864 247.317 53.9827C249.114 55.7846 249.412 61.3175 247.711 61.3175C245.648 61.3175 242.952 64.5263 242.952 66.9818V69.3771L239.633 67.3224C235.079 64.5026 234.015 64.6843 228.541 69.2161C225.809 71.4781 222.711 73.1743 221.288 73.1852C219.923 73.197 214.663 71.0861 209.599 68.4954C201.558 64.3832 199.622 63.7858 194.324 63.7858C190.986 63.7858 187.369 64.1146 186.285 64.5165C184.422 65.2076 184.332 64.8956 184.644 58.8394L184.975 52.4316H190.39H195.804L195.14 55.4598C194.435 58.6735 196.615 62.3049 199.249 62.3049C201.209 62.3049 200.86 60.9838 198.513 59.5157C196.201 58.0693 196.353 56.5399 199.55 49.0678C201.562 44.3642 204.669 42.9079 205.89 46.095ZM-7.36914 54.7775C-7.36914 54.9819 -2.82394 57.0345 2.7324 59.339C8.28874 61.6443 14.9755 64.6122 17.593 65.9352C20.2105 67.2583 22.8714 68.1626 23.5061 67.9454C24.945 67.4508 17.6866 63.7157 5.04245 58.4444C-3.69415 54.8012 -7.36914 53.7161 -7.36914 54.7775ZM105.965 67.0934C101.358 69.1589 94.348 72.0843 90.3872 73.5959C86.4264 75.1065 83.4038 76.5628 83.6719 76.8303C85.0092 78.1701 114.835 66.0211 114.835 64.1363C114.835 63.0375 115.54 62.8025 105.965 67.0934ZM249.669 66.5099C249.922 68.6988 249.587 69.2161 247.914 69.2161C245.621 69.2161 244.393 67.0884 245.307 64.7001C246.263 62.2051 249.319 63.4729 249.669 66.5099ZM58.4249 71.562C60.1604 75.376 64.745 96.9895 64.8209 101.712C64.8771 105.221 64.3962 106.495 62.3502 108.258C59.647 110.588 50.6788 113.211 48.4062 112.337C46.0518 111.432 36.2163 78.5552 37.3861 75.5014C38.0149 73.8605 41.0936 73.7331 42.6409 75.2832C44.4789 77.1246 52.2753 74.4943 53.5969 71.5887C54.9727 68.5645 57.057 68.5536 58.4249 71.562ZM196.416 85.2601C198.561 87.7185 201.906 87.3996 205.469 84.3972C209.623 80.8942 210.776 82.4492 206.719 86.0825C202.443 89.9084 198.409 89.9064 194.586 86.0766C192.723 84.2106 191.719 82.2043 191.745 80.3995L191.784 77.6084L193.346 80.5703C194.205 82.1994 195.587 84.3093 196.416 85.2601ZM53.6659 81.1894C52.8134 82.7859 52.8301 83.4671 53.7368 84.0279C54.5124 84.5088 54.6928 85.8436 54.2542 87.8459C53.6885 90.4258 53.2933 90.7713 51.8141 89.9785C50.8443 89.4582 49.7701 89.3131 49.4272 89.6557C49.0852 89.9983 48.8053 93.7116 48.8053 97.9077C48.8053 103.777 49.1463 105.667 50.2836 106.104C51.5115 106.576 51.7618 105.488 51.7618 99.6711C51.7618 93.6533 51.9639 92.8378 53.1968 93.8636C55.5137 95.7899 56.6894 94.1213 56.6894 88.9043C56.6894 86.2208 57.1231 84.0259 57.6542 84.0259C58.2406 84.0259 58.1785 83.0594 57.4956 81.5576C56.1228 78.5384 55.1333 78.4436 53.6659 81.1894ZM336.782 84.174C339.233 86.8319 341.709 91.4388 344.296 98.1545C347.776 107.19 348.017 108.381 346.755 110.31C345.836 111.715 344.695 112.277 343.431 111.945C342.373 111.668 340.421 112.155 339.093 113.027C337.443 114.11 336.47 114.272 336.018 113.54C335.655 112.951 334.133 112.648 332.637 112.869C329.039 113.398 327.321 110.84 328.749 107.078C329.593 104.855 329.464 104.228 327.998 103.418C327.024 102.882 324.723 100.853 322.883 98.9108C321.004 96.9273 319.814 96.168 320.169 97.18C320.643 98.5307 320.371 98.898 319.079 98.6521C313.917 97.6727 319.069 84.1197 325.874 80.7757C330.169 78.6658 332.322 79.3362 336.782 84.174ZM12.8339 100.684C-1.82265 106.591 -4.41259 107.819 -4.41259 108.868C-4.41259 110.027 -4.45595 110.04 3.01919 106.645C6.71488 104.965 13.3178 102.273 17.6916 100.66C25.5727 97.7547 28.9264 95.8521 26.0891 95.8955C25.3027 95.9074 19.3384 98.0627 12.8339 100.684ZM68.0032 111.758C67.74 122.282 67.3645 125.027 65.9838 126.556C63.7388 129.041 54.7805 134.77 54.1409 134.131C53.8649 133.853 53.1721 130.575 52.6015 126.845C52.0309 123.115 50.9429 119.362 50.184 118.504C48.1923 116.253 48.4111 115.914 52.3246 115.179C54.2601 114.815 56.445 114.286 57.1802 114.003C58.1293 113.639 58.3609 114.085 57.9805 115.542C57.6749 116.716 57.9164 117.595 58.5452 117.595C59.1513 117.595 59.646 116.996 59.646 116.262C59.646 115.529 60.9754 112.975 62.6006 110.585C64.2247 108.196 66.0164 104.575 66.5801 102.538C67.1448 100.502 67.7686 98.8358 67.9667 98.8358C68.1658 98.8358 68.1815 104.65 68.0032 111.758ZM228.169 108.125C227.73 114.649 227.251 116.055 223.734 121.153C221.566 124.296 217.59 128.447 214.896 130.377C210.663 133.411 209.242 133.886 204.394 133.886C199.628 133.886 198.218 133.435 195 130.873C190.741 127.486 187.247 121.103 186.288 114.961L185.646 110.846L191.879 112.822C203.066 116.372 215.363 113.364 223.734 105.029C225.903 102.871 227.898 101.039 228.169 100.958C228.44 100.877 228.44 104.101 228.169 108.125ZM81.8221 104.764C83.2619 107.097 111.43 119.361 112.617 118.172C113.504 117.282 113.036 117.036 102.516 112.872C97.0956 110.725 90.0797 107.792 86.9251 106.353C83.7694 104.914 81.4742 104.198 81.8221 104.764ZM352.386 111.227C353.43 112.488 353.378 113.032 352.09 114.324C351.23 115.186 349.826 115.621 348.972 115.292C347.123 114.582 346.892 111.06 348.649 110.35C350.668 109.533 351.059 109.625 352.386 111.227ZM328.231 113.745C328.592 114.886 328.474 116.233 327.97 116.739C326.439 118.272 323.764 116.551 323.764 114.034C323.764 110.992 327.287 110.764 328.231 113.745ZM344.953 116.608C344.953 118.537 344.388 119.141 342.369 119.376C339.386 119.723 337.836 117.175 339.676 114.954C341.566 112.672 344.953 113.733 344.953 116.608ZM336.031 116.335C336.795 118.327 334.14 120.695 332.046 119.889C331.285 119.597 330.663 118.295 330.663 116.996C330.663 115.162 331.191 114.633 333.021 114.633C334.345 114.633 335.665 115.38 336.031 116.335ZM355.184 126.234C358.941 136.77 361.423 146.496 363.715 159.671C367.612 182.069 360.761 200.714 345.968 207.964C336.439 212.635 322.315 212.981 308.242 208.891L303.069 207.386L303.088 196.8C303.121 179.218 307.805 142.141 310.311 139.63C310.63 139.31 311.984 139.766 313.322 140.644L315.752 142.239L313.827 148.923C311.433 157.239 310.326 168.977 311.705 171.444C312.499 172.866 312.868 171.553 313.4 165.422C314.215 156.031 314.68 154.034 320.614 134.504C323.15 126.155 325.8 119.104 326.503 118.834C327.205 118.563 328.575 119.063 329.545 119.944C331.552 121.762 336.129 122.081 337.122 120.471C337.599 119.698 338.084 119.698 338.856 120.471C340.546 122.164 343.99 121.727 345.939 119.57C346.919 118.483 348.708 117.595 349.912 117.595C351.774 117.595 352.565 118.891 355.184 126.234ZM30.7989 128.702C23.6234 138.267 17.9783 147.215 19.1186 147.215C19.6261 147.215 22.5285 143.549 25.5678 139.069C28.6062 134.59 32.6813 128.814 34.6227 126.234C36.5652 123.654 37.7064 121.544 37.1604 121.544C36.6145 121.544 33.7515 124.765 30.7989 128.702ZM71.4722 126.978C71.4722 130.029 53.8935 142.117 51.5588 140.672C49.6775 139.507 51.1114 137.7 55.2831 135.981C57.7577 134.962 62.0792 132.008 64.8879 129.416C69.8825 124.809 71.4722 124.22 71.4722 126.978ZM79.0951 134.71C82.2202 137.607 88.768 143.493 93.6463 147.792C98.5246 152.09 106.38 159.605 111.103 164.493C120.98 174.713 122.921 174.569 113.448 164.319L107.135 157.487L108.921 155.114C110.516 152.995 110.892 152.896 112.434 154.174C115.551 156.759 126.565 170.955 130.845 177.906C133.151 181.651 135.269 184.72 135.549 184.724C135.83 184.729 137.95 180.624 140.26 175.6C144.754 165.826 152.102 153.613 152.967 154.48C153.256 154.771 151.045 159.807 148.053 165.674C141.015 179.473 135.849 191.905 132.543 202.998C130.071 211.288 129.57 212.134 125.074 215.607C119.011 220.292 111.294 222.671 104.45 221.963C88.4191 220.305 75.4891 205.03 65.4152 175.847C62.6577 167.859 55.4989 142.037 55.973 141.784C59.8184 139.733 66.7939 134.72 68.9699 132.445C70.5487 130.793 72.1946 129.443 72.6272 129.443C73.0598 129.443 75.9701 131.813 79.0951 134.71ZM254.55 138.612C256.793 156.402 265.649 179.776 273.839 189.516C278.604 195.184 277.321 197.314 272.453 191.819C262.54 180.628 251.822 150.206 251.822 133.263C251.822 126.269 253.379 129.321 254.55 138.612ZM52.2546 134.379C52.5897 134.922 52.3936 135.367 51.82 135.367C51.2464 135.367 50.7763 134.922 50.7763 134.379C50.7763 133.836 50.9715 133.392 51.2109 133.392C51.4504 133.392 51.9195 133.836 52.2546 134.379ZM215.816 152.677C236.855 158.167 250.836 176.239 250.836 197.942C250.836 215.513 242.246 230.513 227.169 239.273C216.409 245.525 199.758 246.716 187.661 242.097C175.519 237.462 164.763 226.748 160.129 214.672C157.44 207.665 156.469 194.658 158.138 188.016C164.76 161.669 190.303 146.02 215.816 152.677ZM198.247 159.261C177.86 161.892 162.681 180.93 164.417 201.687C165.591 215.716 173.811 227.611 186.62 233.82C193.672 237.238 194.786 237.482 203.531 237.517C212.024 237.551 213.5 237.266 219.421 234.456C230.677 229.113 237.087 221.982 240.945 210.512C245.703 196.362 241.638 180.611 230.297 169.248C222.324 161.261 210.733 157.649 198.247 159.261ZM210.002 161.123C227.651 164.361 239.848 178.248 240.791 196.177C241.321 206.239 239.469 212.996 234.142 220.45C217.699 243.454 182.446 240.345 169.517 214.749C166.806 209.381 166.575 208.105 166.575 198.555C166.575 189.393 166.879 187.538 169.196 182.585C174.233 171.821 184.091 163.925 195.647 161.399C202.675 159.864 203.099 159.856 210.002 161.123ZM199.5 170.982C191.512 177.379 184.807 183.572 184.807 184.553C184.807 184.975 186.584 187.058 188.757 189.184L192.706 193.048L198.69 187.163L204.674 181.277L210.383 187.605L216.092 193.933L218.927 191.908C220.487 190.794 222.613 188.942 223.65 187.791C225.515 185.724 225.509 185.668 223.18 182.995C217.554 176.539 212.645 171.536 209.313 168.863L205.733 165.99L199.5 170.982ZM175.735 192.308L172.116 195.933L175.179 200.206C176.863 202.556 178.499 204.478 178.815 204.476C179.129 204.475 181.382 202.736 183.821 200.612L188.256 196.75L184.36 192.715C182.218 190.497 180.214 188.682 179.909 188.682C179.603 188.682 177.725 190.313 175.735 192.308ZM199.586 194.115L196.24 197.575L200.025 201.459L203.811 205.343L207.596 202.196C209.677 200.465 211.388 198.581 211.398 198.008C211.42 196.708 205.269 190.657 203.925 190.657C203.379 190.657 201.426 192.214 199.586 194.115ZM224.966 194.89C222.933 196.634 221.271 198.527 221.271 199.095C221.271 199.664 223.043 201.863 225.21 203.983L229.148 207.835L232.601 204.482C234.499 202.639 236.053 200.732 236.053 200.248C236.053 198.804 230.716 191.685 229.648 191.702C229.106 191.711 226.998 193.146 224.966 194.89ZM186.902 205.395L182.591 209.187L191.65 219.175C196.632 224.668 201.164 229.162 201.721 229.162C203.705 229.162 223.242 213.983 223.242 212.441C223.242 212.003 221.518 209.699 219.411 207.322L215.58 202.998L210.108 208.182C207.098 211.032 204.248 213.365 203.775 213.365C203.303 213.365 200.726 210.702 198.049 207.448C195.373 204.194 192.74 201.547 192.198 201.567C191.656 201.585 189.273 203.308 186.902 205.395ZM251.822 306.032C251.822 307.26 258.184 312.287 262.618 314.561C266.722 316.665 278.431 317.866 278.431 316.182C278.431 315.504 276.576 315.05 273.749 315.038C268.82 315.015 262.266 312.522 257.27 308.769C252.93 305.509 251.822 304.952 251.822 306.032Z" fill="#121A17"/>
</svg>
