<svg width="315" height="286" viewBox="0 0 315 286" fill="none" xmlns="http://www.w3.org/2000/svg">
<mask id="mask0_495_11009" style="mask-type:alpha" maskUnits="userSpaceOnUse" x="0" y="0" width="315" height="286">
<rect x="0.5" y="0.5" width="314" height="285" rx="1.5" fill="white" stroke="black"/>
</mask>
<g mask="url(#mask0_495_11009)">
<path fill-rule="evenodd" clip-rule="evenodd" d="M170.758 13.5704C156.991 15.4475 143.039 20.1566 138.406 24.4894C135.47 27.235 134.148 30.1829 133.472 35.4922C132.499 43.1323 133.71 49.8923 136.653 53.2496C138.422 55.2693 138.893 56.3732 138.173 56.8191C137.436 57.2756 137.272 60.0373 137.614 66.2551C138.315 79.0003 138.418 78.8291 131.742 76.096C124.404 73.0927 109.455 72.325 100.924 74.5141C90.6113 77.1607 84.2028 80.9433 75.9381 89.2603C64.7893 100.481 59.9136 111.629 59.9412 125.834C59.9635 137.088 63.4228 147.967 69.5332 155.998L71.764 158.93L66.9587 163.243L62.1534 167.556V177.294C62.1534 184.775 62.4881 187.544 63.5973 189.238C65.0216 191.415 65.805 201.146 65.4267 211.962L65.2691 216.463L53.4739 216.537C27.2192 216.7 7.26001 224.959 3.90929 237.046C2.64342 241.614 2.70752 249.225 4.04994 253.726C5.56595 258.808 11.2561 264.19 19.1166 267.977C29.1821 272.827 36.0331 274.15 51.6018 274.251L65.0848 274.338L65.5477 277.762C65.8032 279.645 65.5896 282.398 65.0741 283.879C63.8697 287.339 64.7768 298.421 66.4762 301.019C68.8165 304.597 86.5209 310.522 98.8742 311.862L104.438 312.466L104.458 319.708C104.48 327.999 106.064 332.454 110.61 337.007C116.245 342.651 126.404 347.125 139.601 349.774C149.27 351.715 170.81 351.28 179.352 348.971C191.75 345.62 200.413 339.934 204.142 332.702C206.685 327.771 208.152 316.223 206.845 311.423C204.562 303.031 192.072 293.853 178.189 290.366C172.424 288.918 172.258 288.796 171.903 285.746L171.538 282.613L175.501 283.157C177.68 283.456 184.361 283.701 190.348 283.701H201.231L203.099 288.832C207.594 301.18 214.804 306.433 230.223 308.591C239.432 309.881 243.837 308.251 251.302 300.794C254.575 297.524 258.045 293.705 259.013 292.309L260.772 289.769L267.842 290.862C277.872 292.412 299.868 292.237 310.112 290.526C319.546 288.951 329.259 286.168 334.319 283.589C340.837 280.268 340.483 283.528 340.755 224.361L341 171.208L338.89 168.696C336.962 166.4 336.78 165.375 336.78 156.758C336.78 147.397 336.761 147.309 333.887 144.024C323.168 131.763 282.508 126.594 253.905 133.854C250.281 134.774 246.508 135.783 245.521 136.097C243.738 136.664 243.726 136.377 243.74 94.7808L243.754 52.8929L241.752 50.7573C239.952 48.8392 239.749 47.7201 239.745 39.7625C239.741 29.5489 238.533 26.6116 232.854 23.0207C228.103 20.0166 218.125 16.5514 209.348 14.8572C200.303 13.1112 179.267 12.4094 170.758 13.5704ZM209.927 16.4997C228.293 20.5793 237.968 26.5243 237.968 33.731C237.968 38.1735 235.748 41.3988 230.498 44.584C220.543 50.6253 206.241 53.6428 187.672 53.6197C157.788 53.5831 135.595 45.3589 135.595 34.3205C135.595 24.7997 147.987 18.3081 171.947 15.2763C180.616 14.1795 202.681 14.8902 209.927 16.4997ZM168.367 19.7723C152.653 22.2476 141.826 27.3535 141.826 32.2883C141.826 36.7281 150.796 42.1844 163.191 45.284C168.538 46.6206 172.971 46.9354 185.446 46.8641C199.302 46.7847 202.008 46.5128 209.915 44.4092C224.465 40.5392 230.444 35.477 227.234 29.7478C225.552 26.7463 217.979 22.9182 209.927 20.9992C202.701 19.2774 176.429 18.5016 168.367 19.7723ZM207.701 22.0738C211.373 22.8023 216.982 24.6856 220.164 26.2585C225.278 28.7865 225.982 29.4464 226.223 31.9334C226.583 35.6464 222.969 38.4473 213.877 41.5023C203.589 44.9594 195.523 45.9028 180.995 45.3491C162.317 44.6366 147.573 40.2271 144.474 34.4257C138.996 24.1728 178.947 16.3677 207.701 22.0738ZM193.903 22.4313C193.601 22.9218 193.58 23.6904 193.857 24.1398C194.148 24.6116 189.748 25.0922 183.45 25.2777C173.496 25.5692 172.41 25.4453 171.08 23.8572C169.851 22.3894 169.153 22.2512 166.629 22.9762C164.983 23.4488 163.636 24.4225 163.636 25.1394C163.636 26.9139 162.313 27.7513 159.482 27.7682C157.264 27.7807 157.109 28.0446 157.109 31.7942V35.8069H160.817C163.967 35.8069 164.89 36.2635 166.934 38.8289C168.715 41.0653 170.518 42.1345 173.865 42.9388C178.95 44.1604 185.679 43.5113 188.809 41.4969C189.925 40.7791 191.213 40.4233 191.671 40.7077C192.13 40.9913 194.729 41.2499 197.448 41.2829C203.076 41.3498 206.527 39.6154 206.969 36.498C207.167 35.0989 207.947 34.3864 209.482 34.2027C213.975 33.6642 214.128 33.3797 211.964 29.5864C210.175 26.4485 209.532 26.0106 206.691 26.0053C204.226 25.9999 203.108 25.4667 201.997 23.7689C200.913 22.1103 199.759 21.5396 197.496 21.5396C195.822 21.5396 194.206 21.9409 193.903 22.4313ZM201.47 24.6606C202.176 26.5216 202.9 26.8899 205.846 26.8899C207.788 26.8899 209.624 27.2911 209.927 27.7816C210.254 28.3112 209.212 28.6733 207.361 28.6733C205.648 28.6733 203.998 29.0745 203.695 29.565C203.36 30.1089 204.708 30.4567 207.151 30.4567C211.262 30.4567 213.237 31.632 210.739 32.5923C209.968 32.8893 208.436 33.1318 207.335 33.1318C205.846 33.1318 205.352 33.6329 205.405 35.0936C205.45 36.3295 204.653 37.478 203.25 38.2012C200.836 39.4442 194.055 39.6573 191.299 38.5757C190.162 38.1298 189.078 38.4107 188.079 39.4112C183.857 43.6406 169.916 41.9098 167.256 36.8253C166.215 34.8359 165.556 34.5585 162.396 34.7868C159.549 34.9928 158.74 34.7404 158.74 33.6454C158.74 32.6003 159.653 32.2401 162.301 32.2401C164.259 32.2401 165.862 31.8388 165.862 31.3484C165.862 30.858 164.059 30.4567 161.856 30.4567C156.845 30.4567 156.624 29.0977 161.508 28.3157C164.516 27.8333 165.088 27.4329 164.73 26.0579C164.385 24.74 164.883 24.2968 167.081 23.9651C168.613 23.7332 169.975 23.7947 170.105 24.1024C171.06 26.3513 172.308 26.5439 183.498 26.1747C192.651 25.8733 195.247 25.5238 194.909 24.641C194.29 23.027 195.146 22.4313 198.079 22.4313C199.974 22.4313 200.84 23.0002 201.47 24.6606ZM189.428 29.6042C188.554 31.0211 191.428 34.818 193.832 35.4226C196.121 35.9986 199.69 34.5478 199.69 33.0417C199.69 30.1544 197.736 28.6733 193.925 28.6733C191.768 28.6733 189.744 29.0924 189.428 29.6042ZM172.093 31.3484C172.093 34.1492 175.997 37.5903 179.175 37.5903C182.845 37.5903 185.655 34.7458 184.659 32.0386C184.001 30.2498 183.218 29.9796 178.003 29.7469C172.517 29.5026 172.093 29.6176 172.093 31.3484ZM183.499 33.3922C183.726 35.3102 183.334 35.8569 181.372 36.35C178.006 37.1962 174.377 35.7311 174.041 33.3904C173.799 31.7024 174.253 31.4135 177.602 31.1201C182.947 30.6529 183.186 30.7447 183.499 33.3922ZM198.492 31.8326C199.202 33.6847 198.606 34.1234 195.245 34.2188C192.7 34.291 190.839 32.9963 190.801 31.1255C190.773 29.762 197.952 30.4219 198.492 31.8326ZM145.297 47.3527C169.473 59.5745 219.015 57.6421 234.678 43.8662L237.968 40.9726V45.4534C237.968 49.6097 237.698 50.167 234.253 53.1203C229.507 57.19 218.99 61.25 208.421 63.094C201.914 64.2292 196.598 64.4334 183.666 64.0473C166.438 63.5319 159.712 62.4681 149.617 58.6623C138.169 54.3455 134.725 50.6449 134.71 42.6383L134.705 40.1067L137.508 42.4698C139.05 43.769 142.555 45.967 145.297 47.3527ZM145.029 62.7329C154.725 67.8459 171.701 70.7163 192.081 70.6887C212.45 70.6602 229.008 67.7086 237.737 62.5501C239.389 61.5737 240.918 60.7747 241.135 60.7747C241.352 60.7747 241.529 63.2037 241.529 66.1722V71.5688L235.798 74.2555C228.806 77.5325 217.16 80.0106 202.36 81.3696C175.757 83.8128 143.765 77.9579 140.138 69.9834C139.038 67.5659 138.785 59.5664 139.823 60.0364C140.19 60.2031 142.533 61.4158 145.029 62.7329ZM126.283 76.3956C140.577 80.0418 152.142 89.4912 158.761 102.931C162.435 110.392 162.633 111.202 163.009 120.336C163.494 132.133 162.344 138.063 157.808 147.139C149.473 163.82 133.574 173.776 113.78 174.708C90.6541 175.797 71.4506 163.177 64.2462 142.157C61.2632 133.452 61.297 120.019 64.3255 110.755C66.9311 102.783 73.5845 92.5007 79.3316 87.5616C84.793 82.8694 94.0235 78.0399 100.561 76.4545C107.547 74.7602 119.765 74.7326 126.283 76.3956ZM142.668 79.4658C144.016 80.4279 148.084 82.1819 151.708 83.3643C163.465 87.2013 170.265 87.9753 191.678 87.9156C215.044 87.8496 225.2 86.2374 235.52 80.9558L241.529 77.8812V82.3165C241.529 84.7554 241.148 87.4635 240.683 88.3347C239.473 90.5978 230.455 94.417 221.325 96.5312C209.881 99.1814 180.551 99.9126 167.634 97.8697L158.295 96.393L153.687 91.222C151.153 88.3775 146.847 84.5101 144.118 82.6278C141.388 80.7445 139.156 78.8692 139.156 78.4608C139.156 77.3185 139.994 77.5584 142.668 79.4658ZM100.877 84.7509C88.7143 88.694 79.7366 95.9276 74.2824 106.177C59.2291 134.469 78.9203 166.972 111.114 166.972C135.282 166.972 154.319 148.281 154.279 124.592C154.238 100.785 136.058 82.9318 112.04 83.1155C108.592 83.1414 103.571 83.877 100.877 84.7509ZM123.546 86.2178C131.143 88.2 136.87 91.6456 142.259 97.4756C147.988 103.675 151.22 110.207 152.487 118.152C155.965 139.958 139.804 161.438 117.094 165.194C90.6888 169.563 67.3602 146.35 71.521 119.85C75.3328 95.5753 99.5089 79.9464 123.546 86.2178ZM108.385 95.594C100.898 104.346 90.2873 119.519 90.2339 121.549C90.1992 122.86 104.206 133.713 109.4 136.4C110.917 137.186 112.979 136.564 120.973 132.913C135.579 126.24 134.817 127.532 130.308 117.077C125.55 106.046 116.692 89.0908 115.473 88.6842C114.97 88.5157 111.78 91.6251 108.385 95.594ZM113.378 104.857C112.814 110.255 112.274 114.707 112.178 114.749C112.083 114.791 108.199 115.879 103.548 117.166C98.8964 118.455 94.3235 119.804 93.3861 120.166C91.2923 120.973 93.9496 116.922 105.712 101.378C115.021 89.0757 115.027 89.0784 113.378 104.857ZM131.525 123.808C131.934 126.22 131.59 126.485 122.523 130.774C117.339 133.226 112.842 135.336 112.533 135.461C111.953 135.696 112.996 116.999 113.595 116.399C113.778 116.217 117.655 117.884 122.21 120.105C126.766 122.326 130.667 123.969 130.88 123.756C131.092 123.543 127.333 121.388 122.526 118.967C117.718 116.546 113.798 114.2 113.814 113.753C114 108.357 115.426 93.1285 115.803 92.5052C116.424 91.4815 130.946 120.397 131.525 123.808ZM242.409 98.8952C242.381 106.093 241.458 108.041 237.007 110.301C231.847 112.92 222.245 115.572 212.597 117.041C204.51 118.275 179.455 118.583 172.093 117.541L167.197 116.848L165.337 111.027L163.475 105.207L165.782 105.783C167.049 106.099 176.299 106.571 186.336 106.83C200.193 107.189 206.728 106.975 213.488 105.942C223.992 104.336 236.062 100.694 238.997 98.2433C241.814 95.8928 242.421 96.0087 242.409 98.8952ZM241.516 118.959C241.508 121.533 241.208 124.063 240.848 124.579C238.44 128.034 226.876 132.339 214.676 134.321C206.104 135.714 183.903 136.142 174.005 135.106L168.532 134.532V129.033V123.534L175.432 124.331C185.278 125.468 209.188 124.405 219.274 122.381C228.794 120.47 237.27 117.531 238.886 115.581C240.811 113.259 241.529 114.183 241.516 118.959ZM111.833 122.971C111.568 126.772 111.098 131.197 110.789 132.805L110.224 135.727L101.069 129.087C96.0327 125.434 92.3045 122.204 92.7825 121.908C93.9362 121.193 109.933 116.178 111.268 116.112C112.021 116.075 112.178 117.991 111.833 122.971ZM89.7416 127.798C91.2469 132.973 107.192 159.754 108.769 159.754C109.978 159.754 119.588 149.208 125.58 141.306C130.863 134.339 133.399 130.328 132.519 130.328C132.263 130.328 127.076 132.811 120.994 135.846L109.935 141.364L99.5347 133.539C91.3386 127.372 89.2636 126.156 89.7416 127.798ZM102.016 136.901L108.889 142.136L108.8 147.601C108.622 158.588 108.286 158.452 99.9869 144.05C95.8253 136.828 92.2662 130.526 92.0793 130.044C91.7018 129.076 92.1345 129.375 102.016 136.901ZM301.618 133.117C316.836 135.328 330.184 140.708 333.347 145.904C341.554 159.384 318.695 171.336 284.704 171.336C249.426 171.336 225.488 158.969 234.63 145.468C241.795 134.887 273.535 129.035 301.618 133.117ZM127.06 137.239C119.012 147.239 110.381 157.087 109.998 156.704C109.771 156.476 109.864 153.131 110.206 149.269L110.826 142.248L119.872 137.677C124.848 135.164 129.267 133.083 129.693 133.055C130.119 133.026 128.935 134.908 127.06 137.239ZM240.213 138.574C237.092 140.324 232.797 144.707 231.771 147.189C230.843 149.432 229.876 149.986 224.762 151.212C210.642 154.593 191.237 155.88 175.274 154.493C168.945 153.943 163.603 153.33 163.404 153.131C163.205 152.932 163.941 150.298 165.04 147.277C166.784 142.488 167.276 141.858 168.898 142.345C169.921 142.653 177.568 143.128 185.891 143.403C208.657 144.152 231.706 140.419 238.858 134.825L241.084 133.083L241.379 135.419C241.566 136.894 241.137 138.056 240.213 138.574ZM273.131 136.569C256.699 137.818 242.619 142.423 239.789 147.473C238.557 149.673 238.597 150.061 240.293 152.357C243.11 156.164 247.334 158.65 255.239 161.151C265.653 164.446 279.267 165.683 291.158 164.413C311.793 162.21 325.208 156.505 325.208 149.934C325.208 141.19 299.416 134.571 273.131 136.569ZM300.448 138.774C309.205 140.096 318.841 143.39 321.798 146.07C322.695 146.882 323.427 148.674 323.427 150.051C323.427 157.345 299.102 164.238 277.582 163.041C260.708 162.103 245.345 157.454 241.946 152.256C240.544 150.114 240.54 149.784 241.885 147.728C247.054 139.825 277.044 135.24 300.448 138.774ZM290.662 140.565C290.897 141.788 289.396 142.047 280.003 142.403C270.832 142.752 268.99 142.603 268.558 141.478C268.25 140.672 266.926 140.142 265.247 140.15C261.679 140.168 260.014 141.229 260.71 143.044C261.13 144.141 260.571 144.556 258.291 144.837L255.327 145.201L258.665 145.344C261.671 145.473 262.004 145.265 262.004 143.258C262.004 141.393 262.426 141.028 264.579 141.028C266.047 141.028 267.375 141.603 267.667 142.366C268.086 143.461 270.298 143.703 279.863 143.703C290.798 143.703 291.577 143.589 292.012 141.92C292.674 139.388 296.963 139.528 298.818 142.143L300.241 144.149L299.497 141.92C298.865 140.027 298.122 139.65 294.571 139.417C291.135 139.192 290.438 139.396 290.662 140.565ZM304.667 143.548C308.424 144.68 307.942 146.379 303.864 146.379C301.633 146.379 300.394 146.731 300.727 147.27C301.03 147.761 303.056 148.162 305.231 148.162C310.028 148.162 310.52 149.727 305.846 150.115C302.99 150.351 302.547 150.673 302.777 152.341C303.23 155.623 296.462 157.697 290.111 156.224C287.208 155.55 286.246 155.705 284.427 157.138C279.711 160.854 266.374 158.605 264.241 153.735C263.527 152.106 262.648 151.729 259.567 151.729C257.48 151.729 255.772 151.327 255.772 150.837C255.772 150.347 257.15 149.945 258.835 149.945C260.521 149.945 262.146 149.544 262.449 149.054C262.784 148.51 261.441 148.162 259.005 148.162C255.951 148.162 254.917 147.795 254.605 146.601C254.381 145.743 254.251 146.847 254.317 149.054L254.437 153.066L258.58 153.335C262.12 153.564 262.803 153.919 263.267 155.771C264.155 159.318 268.575 161.046 276.818 161.07C282.536 161.087 284.437 160.756 285.818 159.506C287.27 158.192 288.012 158.088 290.143 158.903C292.815 159.923 299.501 159.344 302.285 157.851C303.231 157.344 303.843 155.978 303.843 154.373C303.843 151.954 304.104 151.729 306.906 151.729C308.591 151.729 310.154 151.427 310.38 151.06C310.606 150.693 309.895 148.786 308.8 146.824C307.422 144.353 306.149 143.202 304.658 143.077L302.508 142.898L304.667 143.548ZM271.128 147.008C268.554 147.505 268.588 149.22 271.235 152.303C274.961 156.642 283.522 154.848 281.834 150.082C280.556 146.477 277.873 145.706 271.128 147.008ZM286.664 146.941C286.009 147.597 287.636 150.982 289.066 151.938C290.55 152.931 295.648 152.748 296.307 151.678C296.627 151.16 296.643 149.755 296.343 148.557C295.859 146.625 295.314 146.379 291.512 146.379C289.155 146.379 286.973 146.632 286.664 146.941ZM295.386 149.512C295.386 151.619 291.137 152.485 289.101 150.792C287.186 149.2 287.54 148.324 290.267 147.901C294.253 147.282 295.386 147.639 295.386 149.512ZM280.534 150.614C280.285 152.791 279.843 153.097 276.615 153.334C272.685 153.622 270.297 151.929 271.223 149.511C271.591 148.551 273.048 148.162 276.278 148.162C280.703 148.162 280.809 148.223 280.534 150.614ZM230.758 163.509C230.842 166.669 230.676 166.865 227.083 167.834C216.727 170.628 210.513 171.493 197.412 171.963C179.141 172.621 167.642 171.766 167.642 169.751C167.642 168.962 165.627 166.421 163.164 164.105C160.692 161.779 159.093 159.641 159.594 159.331C160.093 159.022 162.797 159.193 165.602 159.713C180.21 162.418 209.572 161.622 223.47 158.145C229.4 156.661 229.522 156.666 230.09 158.417C230.409 159.397 230.709 161.689 230.758 163.509ZM236.022 160.772C240.426 164.645 247.442 167.579 258.443 170.146C284.506 176.23 318.222 172.227 331.662 161.455L335 158.779V163.2C335 167.09 334.653 167.915 332.107 170.072C322.32 178.363 303.115 182.67 279.808 181.801C265.336 181.261 255.868 179.562 245.89 175.713C236.485 172.085 232.903 168.679 232.152 162.652C231.832 160.078 231.855 157.971 232.203 157.971C232.552 157.971 234.27 159.232 236.022 160.772ZM74.7595 162.037C75.0782 162.868 74.3518 164.412 72.9515 165.875C69.7005 169.275 69.9204 172.339 73.653 175.621C82.2889 183.217 107.744 187.404 127.138 184.42C145.588 181.582 156.07 176.619 156.07 170.721C156.07 169.299 155.609 167.675 155.047 167.112C154.277 166.34 154.392 165.525 155.512 163.812C156.331 162.561 157.392 161.538 157.871 161.538C158.349 161.538 160.343 163.143 162.301 165.104C166.981 169.792 167.24 174.17 163.115 178.877C149.346 194.585 93.1119 196.444 70.4599 181.94C65.3634 178.676 63.4887 175.95 63.4887 171.8C63.4887 169.228 64.2454 167.866 67.4714 164.635C71.6242 160.475 73.8569 159.679 74.7595 162.037ZM81.8785 168.799C87.306 173.722 96.5686 178.453 104.338 180.27C110.605 181.736 121.432 181.755 127.583 180.311C134.29 178.737 146.061 173.156 150.021 169.674C153.251 166.833 153.301 166.822 154.297 168.687C157.754 175.156 140.863 182.143 118.453 183.515C88.9974 185.317 63.0979 174.498 74.9839 165.356C75.761 164.758 76.4927 164.256 76.6094 164.241C76.7269 164.225 79.0975 166.276 81.8785 168.799ZM235.463 174.267C234.945 174.893 234.396 177.4 234.242 179.84L233.962 184.276L229.31 185.769C218.852 189.124 207.773 190.428 189.323 190.473C172.902 190.514 171.232 190.374 169.516 188.819C168.265 187.686 167.647 186.054 167.656 183.915C167.679 178.574 167.985 178.442 177.909 179.5C193.376 181.147 218.117 178.961 229.511 174.938C235.216 172.925 236.716 172.755 235.463 174.267ZM245.81 181.98C256.724 186.289 267.409 187.75 288.265 187.787C312.867 187.83 325.867 185.593 335.159 179.717L338.561 177.566V182.789C338.561 186.634 338.15 188.383 337.003 189.418C330.023 195.714 296.654 200.823 274.959 198.915C257.075 197.343 242.168 193.337 238.308 189.065C237.301 187.95 236.601 185.38 236.347 181.869L235.953 176.408L238.591 178.289C240.042 179.324 243.291 180.985 245.81 181.98ZM74.4853 185.959C77.2076 187.249 83.7595 189.404 89.0437 190.749C98.0214 193.033 99.8196 193.188 116.456 193.106C132.561 193.027 135.074 192.802 142.796 190.742C151.984 188.291 158.663 185.281 162.97 181.65C164.457 180.397 165.819 179.372 165.997 179.372C166.174 179.372 166.177 181.277 166.003 183.607C165.799 186.324 165.017 188.568 163.824 189.863C148.248 206.782 84.1627 206.743 66.3818 189.804C63.8848 187.425 63.4887 186.448 63.4887 182.671V178.295L66.5118 180.954C68.1747 182.417 71.7631 184.668 74.4853 185.959ZM234.668 196.051C234.182 201.416 234.079 201.602 230.876 202.886C221.517 206.636 197.782 209.291 182.108 208.339L172.093 207.731L172.092 202.245L172.091 196.76L188.318 197.023C206.577 197.32 220.1 195.805 229.308 192.432C232.357 191.316 234.924 190.432 235.01 190.469C235.096 190.506 234.942 193.018 234.668 196.051ZM338.165 204.907C337.441 207.797 328.474 211.829 317.641 214.134C299.795 217.933 264.327 217.466 259.85 213.375C256.507 210.319 248.085 206.998 240.416 205.711L237.078 205.15V200.249V195.347L240.983 197.64C250.325 203.124 275.501 206.839 295.8 205.73C314.643 204.701 331.944 200.675 336.279 196.312L338.116 194.464L338.394 198.674C338.547 200.989 338.443 203.794 338.165 204.907ZM79.385 203.405C90.6656 207.212 100.185 208.341 120.907 208.331C136.579 208.323 142.003 207.993 148.058 206.677C156.548 204.833 166.126 201.265 167.705 199.358C169.411 197.3 170.313 197.905 170.313 201.107C170.313 208.483 169.558 209.741 163.465 212.507C140.29 223.033 89.69 222.38 71.7213 211.323C68.7507 209.495 68.4364 208.76 67.4812 201.391L66.9249 197.105L70.4785 199.351C72.4325 200.587 76.4402 202.411 79.385 203.405ZM246.156 209.348C252.168 212.43 258.287 222.193 260.303 231.922C262.02 240.207 260.875 258.559 258.048 268.063C245.991 308.596 213.617 318.124 203.027 284.256C200.119 274.955 200.324 258.974 203.508 246.954C206.216 236.724 212.335 224.4 217.814 218.137C221.764 213.622 228.861 209.076 233.907 207.831C237.268 207.002 242.952 207.707 246.156 209.348ZM216.403 217.562C214.71 219.439 212.606 222.192 211.729 223.681C210.216 226.246 209.759 226.415 202.908 226.95C193.71 227.667 184.844 227.665 177.212 226.942L171.203 226.374L171.216 223.159C171.243 215.858 170.096 216.29 189.733 216.185C199.371 216.133 209.259 215.702 211.707 215.224C219.655 213.677 219.828 213.764 216.403 217.562ZM231.859 215.249C230.212 215.798 226.807 218.133 224.292 220.438C208.882 234.562 201.738 268.342 210.407 286.098C217.973 301.601 230.671 301.129 241.478 284.944C249.259 273.29 252.458 261.881 252.576 245.358C252.635 237.136 252.254 232.911 251.122 229.251C247.52 217.604 240.372 212.408 231.859 215.249ZM339.261 219.105C338.762 225.13 337.494 226.513 329.659 229.579C319.581 233.523 310.306 234.866 289.995 235.322L271.251 235.743L269.743 230.309C268.913 227.32 268.235 224.725 268.235 224.541C268.235 224.356 274.745 224.394 282.701 224.624C304.731 225.26 326.711 221.671 335.445 216.009C336.914 215.058 338.466 214.249 338.894 214.213C339.321 214.178 339.487 216.379 339.261 219.105ZM78.7583 220.76C100.497 228.07 136.997 228.529 156.915 221.743C160.444 220.541 164.722 218.696 166.423 217.644L169.513 215.73L169.246 221.373C168.996 226.627 168.776 227.152 166.064 228.978C161.608 231.979 153.242 234.488 142.35 236.09C128.507 238.127 100.59 237.402 88.0013 234.679C71.2254 231.049 67.0495 228.077 67.0495 219.763V214.919L69.5759 216.721C70.9655 217.711 75.0969 219.53 78.7583 220.76ZM242.108 217.651C243.949 218.776 245.935 221.447 247.894 225.432L250.876 231.499L250.842 244.893C250.804 259.811 249.724 265.307 244.706 276.122C240.519 285.145 235.494 291.063 229.543 293.979C224.586 296.409 224.57 296.41 220.525 294.863C215.621 292.987 211.869 288.204 209.714 281.083C207.588 274.057 207.881 258.794 210.322 249.371C216.379 225.991 231.332 211.069 242.108 217.651ZM65.2691 219.881V222.047L54.8092 222.033C34.0738 222.006 20.338 226.314 14.7715 234.588C11.4867 239.469 12.027 243.189 16.6659 247.642C24.116 254.792 40.5731 259.251 57.1255 258.602L65.1551 258.288L65.7151 261.277C66.0222 262.921 66.0471 264.493 65.7694 264.771C65.4925 265.049 59.5576 265.286 52.5819 265.296C37.9141 265.32 31.1094 263.98 20.897 259.06C12.8941 255.204 7.00452 249.594 5.6434 244.531C1.5645 229.36 21.9715 217.945 53.4739 217.777L65.2691 217.715V219.881ZM65.3358 224.559C65.9323 225.156 66.0988 226.662 65.7471 228.266L65.1543 230.968L59.4053 228.8C56.2433 227.608 53.4819 226.632 53.2692 226.632C53.0573 226.632 50.6039 229.458 47.8185 232.911C41.9512 240.185 41.9013 239.775 49.7146 248.437L54.5039 253.746L59.2362 251.781C61.8383 250.701 64.2854 249.816 64.6727 249.816C65.0599 249.816 65.2522 251.322 65.0999 253.16L64.824 256.504L55.6113 256.759C33.0563 257.383 14.5276 249.961 14.5276 240.3C14.5276 232.677 24.9465 226.126 40.4868 223.978C48.1256 222.923 64.0744 223.295 65.3358 224.559ZM227.851 224.653C227.629 225.014 227.166 226.81 226.822 228.646C226.25 231.697 225.947 231.982 223.268 231.982C220.782 231.982 220.19 232.408 219.361 234.79C217.917 238.939 218.16 240.633 220.278 241.187C221.719 241.565 222.061 242.177 221.709 243.744C221.453 244.876 220.302 250.54 219.151 256.329C217.343 265.424 216.845 266.797 215.484 266.441C213.735 265.982 212.679 267.51 211.751 271.844C211.178 274.518 211.329 274.75 214.094 275.468C216.933 276.205 217.048 276.406 217.048 280.593C217.048 284.828 217.136 284.972 220.164 285.734C226.712 287.383 227.56 287.136 228.659 283.255C229.598 279.945 229.908 279.681 232.979 279.593C237.608 279.459 242.044 275.015 243.886 268.665C245.286 263.842 245.009 257.663 243.3 255.601C242.776 254.969 243.151 253.245 244.332 250.854C246.989 245.476 246.937 238.914 244.214 236.01C243.057 234.776 241.353 233.766 240.429 233.766C238.947 233.766 238.819 233.301 239.338 229.832C239.831 226.537 239.66 225.766 238.28 225.081C236.255 224.076 228.407 223.754 227.851 224.653ZM231.292 229.594C231.292 234.814 232.835 235.074 233.818 230.021C234.686 225.562 235.323 224.654 236.9 225.631C237.757 226.16 237.837 227.256 237.219 230.008C236.33 233.974 236.572 234.657 238.869 234.657C239.691 234.657 241.075 235.446 241.946 236.409C244.219 238.925 243.519 247.548 240.722 251.483C238.734 254.279 238.719 254.427 240.281 256.155C243.54 259.762 241.281 271.811 236.621 275.686C235.809 276.362 233.488 277.137 231.464 277.409C227.962 277.881 227.75 278.087 227.038 281.695C226.456 284.647 225.895 285.485 224.503 285.485C223.226 285.485 222.84 285.038 223.153 283.924C224.658 278.572 224.726 276.568 223.403 276.568C222.521 276.568 221.789 277.889 221.301 280.357C220.202 285.923 217.939 285.506 217.939 279.737C217.939 275.77 217.715 275.274 215.713 274.792C213.871 274.35 213.488 273.727 213.488 271.177C213.488 268.48 213.792 268.062 215.934 267.815C217.606 267.622 218.508 266.917 218.788 265.585C219.012 264.514 220.15 258.513 221.315 252.249L223.435 240.86L221.307 240.325C219.452 239.859 219.256 239.434 219.777 237.001C220.63 233.014 220.907 232.751 223.958 233.051C226.43 233.293 226.777 233.013 227.476 230.199C228.715 225.222 229.002 224.678 230.18 225.083C230.854 225.315 231.292 227.09 231.292 229.594ZM34.3346 233.284C27.8468 236.428 22.5394 239.367 22.5394 239.813C22.5394 240.612 44.8274 251.639 46.2775 251.559C46.6861 251.536 41.8123 248.963 35.4473 245.842L23.8747 240.166L31.1575 240.087L38.4411 240.008L43.1752 245.483C45.7799 248.495 47.8105 251.304 47.6876 251.725C47.5657 252.146 48.1033 252.492 48.8832 252.492C49.882 252.492 49.2535 251.24 46.7565 248.256C44.8069 245.926 42.3669 243.256 41.3325 242.322C40.2989 241.387 39.4533 240.238 39.4533 239.768C39.4533 239.297 41.4562 236.596 43.9043 233.766C46.3523 230.935 48.3553 228.373 48.3553 228.071C48.3553 226.81 45.5102 227.868 34.3346 233.284ZM42.8538 233.745L38.118 239.074L31.4414 239.049L24.7649 239.023L35.4473 233.799C41.3227 230.925 46.4582 228.539 46.8597 228.495C47.2612 228.451 45.4586 230.814 42.8538 233.745ZM59.311 236.373L60.9187 239.116H52.3238H43.728L48.455 233.651L53.181 228.185L55.4422 230.908C56.6849 232.405 58.4261 234.864 59.311 236.373ZM62.2985 230.763C64.9611 231.877 65.2691 232.375 65.2691 235.561C65.2691 240.841 62.7658 240.331 58.719 234.225C56.9359 231.536 55.4769 229.101 55.4769 228.815C55.4769 228.23 57.8982 228.921 62.2985 230.763ZM337.21 242.701C333.513 246.793 318.697 250.809 300.869 252.553C291.144 253.505 272.321 253.452 271.583 252.471C271.407 252.237 271.415 249.826 271.6 247.113L271.938 242.18L287.668 242.113C309.47 242.021 327.278 238.791 335.078 233.511L338.116 231.454L338.386 236.277C338.581 239.77 338.257 241.541 337.21 242.701ZM204.734 238.772L202.966 244.224L195.959 244.765C192.104 245.063 185.158 245.057 180.522 244.752L172.093 244.197L172.092 238.758V233.32H189.297H206.502L204.734 238.772ZM80.0803 239.981C89.3294 242.842 100.51 244.481 114.675 245.052C136.21 245.92 153.402 243.277 165.194 237.285L170.313 234.684V239.188C170.313 241.665 169.92 244.427 169.44 245.327C168.313 247.436 157.603 251.853 148.503 253.962C142.58 255.335 137.712 255.607 119.571 255.583C100.293 255.556 96.6763 255.317 88.4143 253.526C76.6637 250.977 70.0228 248.054 68.8254 244.901C68.3385 243.617 67.9397 240.599 67.9397 238.193V233.819L71.1863 236.026C72.9729 237.241 76.9743 239.02 80.0803 239.981ZM228.263 241.924C226.858 245.961 227.045 249.533 228.694 250.167C233.15 251.88 237.078 248.991 237.078 243.998C237.078 241.445 236.65 240.693 234.795 239.985C230.831 238.476 229.306 238.929 228.263 241.924ZM60.7745 240.676C60.7513 241.045 59.4214 243.897 57.8199 247.016L54.908 252.686L49.8508 246.917C47.0698 243.744 44.7945 240.891 44.7945 240.577C44.7945 240.265 48.3998 240.008 52.8063 240.008C57.2128 240.008 60.7985 240.308 60.7745 240.676ZM65.9875 243.797C65.7347 247.307 65.4186 247.733 61.7083 249.557C59.505 250.64 57.4834 251.543 57.2163 251.563C56.9484 251.583 57.9499 249 59.4418 245.823C61.6175 241.186 62.5593 240.042 64.2071 240.026C66.0756 240.009 66.2367 240.35 65.9875 243.797ZM236.188 243.721C236.188 246.949 234.486 248.925 231.706 248.925C228.801 248.925 228.619 248.342 229.988 243.407C230.867 240.236 230.993 240.152 233.544 241.042C235.267 241.644 236.188 242.576 236.188 243.721ZM336.331 262.822C333.416 265.151 325.025 268.138 316.306 269.951C308.444 271.586 268.235 272.863 268.235 271.479C268.235 271.008 268.671 268.45 269.204 265.793L270.172 260.963L287.675 260.896C310.645 260.809 327.321 257.876 335.445 252.495L338.116 250.726L338.389 255.844C338.637 260.459 338.434 261.142 336.331 262.822ZM80.1479 257.708C94.1045 261.458 103.352 262.605 119.571 262.602C140.603 262.598 156.359 259.747 165.63 254.267C167.283 253.291 168.812 252.492 169.028 252.492C169.246 252.492 169.423 254.837 169.423 257.704C169.423 263.688 168.637 264.738 161.929 267.71C147.058 274.299 111.13 275.72 86.7755 270.681C79.7803 269.233 69.5563 265.091 68.416 263.242C68.0554 262.658 67.5418 259.771 67.2756 256.829L66.7913 251.478L70.0041 253.662C71.7702 254.863 76.3352 256.684 80.1479 257.708ZM200.254 255.878C199.954 257.694 199.705 260.283 199.699 261.632L199.69 264.084L188.785 264.074C182.786 264.069 176.365 263.814 174.515 263.507L171.151 262.95L171.351 257.498L171.55 252.046L186.174 252.311L200.799 252.576L200.254 255.878ZM224.766 258.956C223.342 263.666 222.907 267.215 223.613 268.361C223.977 268.951 225.976 269.5 228.056 269.582C232.945 269.774 235.654 267.303 235.654 262.651C235.654 258.656 232.872 256.058 228.592 256.058C226.039 256.058 225.526 256.447 224.766 258.956ZM233.289 258.915C234.883 260.239 234.672 264.988 232.934 266.911C231.118 268.921 225.505 269.176 225.505 267.248C225.505 266.537 225.946 263.896 226.485 261.378C227.417 257.029 227.582 256.832 229.818 257.393C231.113 257.719 232.675 258.404 233.289 258.915ZM337.497 278.102C333.737 285.959 295.949 292.214 270.939 289.119C266.305 288.546 262.383 287.945 262.222 287.784C262.061 287.623 262.841 285.255 263.955 282.521L265.98 277.55L269.556 277.922C294.334 280.497 323.379 277.157 334.098 270.501L338.116 268.007L338.387 271.842C338.536 273.95 338.135 276.767 337.497 278.102ZM199.357 270.642C199.418 270.714 199.651 273.073 199.874 275.886L200.279 281.002L197.252 281.571C194.533 282.082 173.184 281.24 172.093 280.579C171.848 280.431 171.779 277.96 171.938 275.09L172.229 269.871L185.736 270.192C193.166 270.368 199.295 270.57 199.357 270.642ZM85.0218 277.846C110.892 284.387 145.578 282.86 163.452 274.395L169.499 271.53L169.238 276.933C168.978 282.323 168.967 282.343 164.999 284.531C161.691 286.356 159.216 286.84 150.311 287.405C143.223 287.853 136.961 288.85 131.798 290.351C125.892 292.067 121.954 292.618 115.598 292.618C97.9083 292.618 76.1625 288.204 70.232 283.408C67.9806 281.587 67.5747 280.563 67.2338 275.843L66.8394 270.384L71.7862 273.068C74.5076 274.543 80.463 276.694 85.0218 277.846ZM86.0321 296.177C89.8627 297.141 97.3511 298.403 102.674 298.981L112.349 300.032L109.284 303.619C107.598 305.593 106.218 307.712 106.218 308.331C106.218 310.315 104.855 310.427 96.3255 309.144C86.3099 307.638 74.7052 304.103 70.5275 301.283C67.8889 299.503 67.4171 298.607 66.8999 294.388C66.5723 291.72 66.4726 289.265 66.6783 288.931C66.8839 288.598 69.7557 289.697 73.0601 291.374C76.3637 293.052 82.2016 295.213 86.0321 296.177ZM172.08 290.44C186.898 293.255 197.099 298.668 202.739 306.706C210.649 317.978 201.248 332.361 181.986 338.456C162.527 344.614 140.924 343.342 123.357 335.006C111.877 329.557 104.923 320.173 106.623 312.422C108.812 302.441 121.19 293.665 137.821 290.305C145.604 288.733 163.466 288.803 172.08 290.44ZM140.046 294.801C123.566 298.347 114.675 305.12 114.675 314.13C114.675 317.898 115.087 318.815 118.232 322.04C122.392 326.307 128.173 329.233 137.926 332.006C147.001 334.587 165.582 334.793 175.209 332.421C187.586 329.372 195.919 324.074 197.927 317.978C199.858 312.118 194.855 304.974 185.493 300.221C174.244 294.511 153.11 291.991 140.046 294.801ZM171.018 296.664C183.591 299.176 195.068 306.352 196.657 312.698C198.659 320.685 189.171 328.176 172.861 331.486C163.933 333.298 145.276 332.783 136.986 330.495C124.612 327.078 116.011 320.475 116.011 314.39C116.011 306.426 123.243 300.407 136.93 296.983C144.998 294.965 161.729 294.808 171.018 296.664ZM136.226 300.396C135.326 300.618 134.405 301.922 134.112 303.391C133.648 305.712 133.231 305.994 130.251 305.994C126.003 305.994 125.129 307.164 125.255 312.682L125.358 317.14L129.28 317.586C132.591 317.962 133.252 318.368 133.526 320.192C133.974 323.174 135.444 324.731 139.601 326.625C144.13 328.689 153.341 328.823 157.091 326.881C159.385 325.693 160.489 325.64 164.237 326.541C172.087 328.427 178.558 326.178 179.654 321.183C180.17 318.827 180.632 318.478 183.228 318.478C187.145 318.478 190.233 315.556 188.339 313.641C187.973 313.27 187.631 312.3 187.581 311.487C187.296 306.839 187.339 306.886 183.332 306.886C179.673 306.886 179.396 306.71 178.747 303.988C178.132 301.413 178.013 301.321 177.675 303.161C177.004 306.809 177.975 307.777 182.303 307.777C185.295 307.777 186.336 308.122 186.336 309.115C186.336 310.106 185.298 310.452 182.331 310.452C179.364 310.452 178.325 310.799 178.325 311.79C178.325 312.8 179.412 313.128 182.776 313.128C186.688 313.128 187.227 313.351 187.227 314.979C187.227 316.57 186.752 316.796 183.864 316.587C179.686 316.285 178.325 317.084 178.325 319.837C178.325 323.904 170.13 325.914 163.652 323.436C159.812 321.966 159.63 321.976 157.749 323.731C155.407 325.916 149.587 326.919 144.367 326.035C139.993 325.295 134.705 320.72 134.705 317.675C134.705 316.023 134.182 315.803 130.254 315.803C126.965 315.803 125.803 315.466 125.803 314.514C125.803 313.613 127.054 313.144 129.962 312.954C135.607 312.585 136.298 310.452 130.773 310.452C127.325 310.452 126.693 310.184 126.693 308.718C126.693 307.282 127.419 306.936 130.921 306.712C134.794 306.463 135.174 306.233 135.431 303.988C135.676 301.861 136.106 301.535 138.673 301.535C141.096 301.535 141.736 301.944 142.198 303.788L142.762 306.04L156.315 305.794C169.494 305.555 169.876 305.495 170.145 303.595C170.335 302.259 171.176 301.528 172.816 301.277L175.209 300.911L172.742 300.777C170.97 300.681 170.017 301.209 169.363 302.65C168.481 304.591 168.047 304.656 156.03 304.656C144.959 304.656 143.609 304.492 143.608 303.149C143.607 302.319 143.306 301.472 142.939 301.265C141.592 300.509 137.777 300.014 136.226 300.396ZM142.693 310.927C140.823 313.184 143.011 318.987 146.146 320.081C151.628 321.996 156.07 319.041 156.07 313.479C156.07 310.255 154.691 309.593 147.944 309.573C145.319 309.565 143.415 310.056 142.693 310.927ZM163.318 310.205C161.487 310.551 161.288 310.963 161.762 313.425C162.351 316.479 165.162 319.37 167.543 319.37C170.293 319.37 172.983 316.725 172.983 314.021C172.983 312.607 172.683 311.278 172.316 311.068C171.058 310.35 165.418 309.809 163.318 310.205ZM154.759 314.683C153.852 318.305 152.623 319.37 149.348 319.37C145.869 319.37 143.607 317.412 143.607 314.402C143.607 312.327 143.854 312.236 149.489 312.236H155.373L154.759 314.683ZM172.093 313.841C172.093 316.237 170.3 317.586 167.114 317.586C164.337 317.586 163.191 316.393 163.191 313.5C163.191 312.577 164.393 312.236 167.642 312.236C171.335 312.236 172.093 312.51 172.093 313.841Z" fill="#121A17"/>
</g>
</svg>
