<svg width="139" height="34" viewBox="0 0 139 34" fill="none" xmlns="http://www.w3.org/2000/svg">
<path d="M6.78835 30H0.856534L9.89489 3.81818H17.0284L26.054 30H20.1222L13.5639 9.80114H13.3594L6.78835 30ZM6.41761 19.7088H20.429V24.0298H6.41761V19.7088ZM35.4247 30.3196C33.9332 30.3196 32.5824 29.9361 31.3722 29.169C30.1705 28.3935 29.2159 27.2557 28.5085 25.7557C27.8097 24.2472 27.4602 22.3977 27.4602 20.2074C27.4602 17.9574 27.8224 16.0866 28.5469 14.5952C29.2713 13.0952 30.2344 11.9744 31.4361 11.233C32.6463 10.483 33.9716 10.108 35.4119 10.108C36.5114 10.108 37.4276 10.2955 38.1605 10.6705C38.902 11.0369 39.4986 11.4972 39.9503 12.0511C40.4105 12.5966 40.7599 13.1335 40.9986 13.6619H41.1648V3.81818H46.598V30H41.2287V26.8551H40.9986C40.7429 27.4006 40.3807 27.9418 39.9119 28.4787C39.4517 29.0071 38.8509 29.446 38.1094 29.7955C37.3764 30.1449 36.4815 30.3196 35.4247 30.3196ZM37.1506 25.9858C38.0284 25.9858 38.7699 25.7472 39.375 25.2699C39.9886 24.7841 40.4574 24.1065 40.7812 23.2372C41.1136 22.3679 41.2798 21.3494 41.2798 20.1818C41.2798 19.0142 41.1179 18 40.794 17.1392C40.4702 16.2784 40.0014 15.6136 39.3878 15.1449C38.7741 14.6761 38.0284 14.4418 37.1506 14.4418C36.2557 14.4418 35.5014 14.6847 34.8878 15.1705C34.2741 15.6562 33.8097 16.3295 33.4943 17.1903C33.179 18.0511 33.0213 19.0483 33.0213 20.1818C33.0213 21.3239 33.179 22.3338 33.4943 23.2116C33.8182 24.081 34.2827 24.7628 34.8878 25.2571C35.5014 25.7429 36.2557 25.9858 37.1506 25.9858Z" fill="#5F5F5F"/>
<path d="M51.2756 3.81818H58.1023L65.3125 21.4091H65.6193L72.8295 3.81818H79.6562V30H74.2869V12.9588H74.0696L67.294 29.8722H63.6378L56.8622 12.8949H56.6449V30H51.2756V3.81818ZM84.1147 30V10.3636H89.5607V30H84.1147ZM86.8505 7.83239C86.0408 7.83239 85.3462 7.56392 84.7667 7.02699C84.1957 6.48153 83.9102 5.82954 83.9102 5.07102C83.9102 4.32102 84.1957 3.67756 84.7667 3.14062C85.3462 2.59517 86.0408 2.32244 86.8505 2.32244C87.6602 2.32244 88.3505 2.59517 88.9215 3.14062C89.5011 3.67756 89.7908 4.32102 89.7908 5.07102C89.7908 5.82954 89.5011 6.48153 88.9215 7.02699C88.3505 7.56392 87.6602 7.83239 86.8505 7.83239ZM99.3693 18.6477V30H93.9233V10.3636H99.1136V13.8281H99.3438C99.7784 12.6861 100.507 11.7827 101.53 11.1179C102.553 10.4446 103.793 10.108 105.25 10.108C106.614 10.108 107.803 10.4062 108.817 11.0028C109.831 11.5994 110.619 12.4517 111.182 13.5597C111.744 14.6591 112.026 15.9716 112.026 17.4972V30H106.58V18.4688C106.588 17.267 106.281 16.3295 105.659 15.6562C105.037 14.9744 104.18 14.6335 103.089 14.6335C102.357 14.6335 101.709 14.7912 101.146 15.1065C100.592 15.4219 100.158 15.8821 99.8423 16.4872C99.5355 17.0838 99.3778 17.804 99.3693 18.6477ZM126.762 10.3636V14.4545H114.937V10.3636H126.762ZM117.622 5.65909H123.068V23.9659C123.068 24.4687 123.145 24.8608 123.298 25.142C123.451 25.4148 123.664 25.6065 123.937 25.7173C124.218 25.8281 124.542 25.8835 124.909 25.8835C125.164 25.8835 125.42 25.8622 125.676 25.8196C125.931 25.7685 126.127 25.7301 126.264 25.7045L127.12 29.7571C126.848 29.8423 126.464 29.9403 125.97 30.0511C125.475 30.1705 124.875 30.2429 124.167 30.2685C122.855 30.3196 121.704 30.1449 120.716 29.7443C119.735 29.3437 118.973 28.7216 118.427 27.8778C117.882 27.0341 117.613 25.9687 117.622 24.6818V5.65909Z" fill="#3FB488"/>
<path d="M133.493 30.3324C132.65 30.3324 131.925 30.0341 131.32 29.4375C130.723 28.8324 130.425 28.108 130.425 27.2642C130.425 26.429 130.723 25.7131 131.32 25.1165C131.925 24.5199 132.65 24.2216 133.493 24.2216C134.311 24.2216 135.027 24.5199 135.641 25.1165C136.255 25.7131 136.561 26.429 136.561 27.2642C136.561 27.8267 136.417 28.3423 136.127 28.8111C135.846 29.2713 135.475 29.642 135.015 29.9233C134.554 30.196 134.047 30.3324 133.493 30.3324Z" fill="white"/>
</svg>
