<svg width="203" height="206" viewBox="0 0 203 206" fill="none" xmlns="http://www.w3.org/2000/svg">
<path fill-rule="evenodd" clip-rule="evenodd" d="M146.379 0.961576C133.636 1.31779 132.307 1.59629 131.693 4.03692C131.167 6.12727 131.844 19.5826 132.541 20.8811C132.872 21.497 133.631 22.2618 134.228 22.5802C135.605 23.3153 186.032 22.2742 189.984 21.429C191.612 21.0808 192.882 20.4612 193.206 19.8568C193.501 19.3079 193.742 15.1995 193.742 10.7273C193.742 3.31531 193.646 2.50033 192.659 1.51641C191.62 0.479603 190.923 0.440743 174.932 0.532496C165.777 0.585389 152.929 0.77807 146.379 0.961576ZM192.228 1.94657C192.984 2.70056 193.574 16.1516 192.958 18.5987C192.776 19.3208 192.01 20.1401 191.245 20.4299C189.825 20.968 163.625 21.9509 147.792 22.0599C138.995 22.1203 138.909 22.1096 137.556 20.7602C136.362 19.5702 136.138 18.7363 135.763 14.1011C135.141 6.40253 135.193 4.00346 136.006 2.89487C136.676 1.98111 138.279 1.87965 157.793 1.51263C185.543 0.991801 191.343 1.06466 192.228 1.94657ZM134.946 3.27051C134.404 4.88267 134.677 14.6463 135.351 17.6995C135.645 19.0304 136.276 20.5498 136.753 21.076C137.88 22.3168 137.506 22.6315 135.526 22.1079C133.085 21.4635 132.648 19.88 132.53 11.2687C132.434 4.28951 132.524 3.42919 133.415 2.77936C134.868 1.71989 135.41 1.89368 134.946 3.27051ZM144.009 5.10773C136.365 8.98888 141.467 21.0625 149.412 17.8927C152.973 16.4721 154.723 12.9116 153.708 9.15188C152.581 4.97928 148.013 3.07459 144.009 5.10773ZM148.925 6.91041C148.389 7.84845 147.549 8.53066 146.92 8.53767C145.547 8.55225 144.798 9.05419 144.059 10.4558C142.549 13.3191 147.016 15.9465 149.156 13.454C150.013 12.4561 151.14 12.5343 152.512 13.6872C152.995 14.0925 151.306 16.1721 149.908 16.8931C147.267 18.2549 145.149 17.9386 143.077 15.8731C141.538 14.3381 141.24 13.6537 141.256 11.6902C141.29 7.46093 143.382 5.34899 147.572 5.31337L149.847 5.29448L148.925 6.91041ZM162.753 6.77332C164.614 6.8791 167.659 6.8791 169.519 6.77332C171.38 6.66807 169.858 6.58172 166.136 6.58172C162.415 6.58172 160.893 6.66807 162.753 6.77332ZM42.2974 9.85676C39.8995 12.8959 39.7907 14.7645 40.7504 36.4527C41.244 47.6104 41.5428 56.8445 41.414 56.9724C41.2852 57.1009 34.7675 57.4344 26.9301 57.7135C19.0928 57.9931 11.3642 58.4551 9.75604 58.7411C5.37212 59.5199 2.23696 61.5763 0.92487 64.5329C-0.145805 66.9471 -0.155007 67.4603 0.40523 93.4038C0.966549 119.363 0.997402 119.859 2.22722 122.302C2.9152 123.669 4.16883 125.285 5.0127 125.895C6.51857 126.981 7.05174 126.999 33.2952 126.843C48.0064 126.755 60.0431 126.884 60.0431 127.129C60.0431 127.374 59.1889 129.594 58.1453 132.061C57.1017 134.529 54.0331 142.412 51.3261 149.579L46.4047 162.609L48.041 163.971L49.6768 165.333L48.755 168.691C47.2648 174.118 42.7678 177.848 36.2219 179.086C34.6462 179.384 33.0278 179.9 32.6261 180.232C31.6166 181.068 31.713 182.533 32.8432 183.538C33.6865 184.288 43.0281 186.642 45.1603 186.642C45.6188 186.642 47.123 185.609 48.5033 184.348C50.9851 182.079 51.0089 182.071 50.63 183.601C49.5447 187.99 49.5561 188.085 51.2585 188.676L52.865 189.235L55.6759 182.676C57.2224 179.069 59.0698 175.024 59.7822 173.688L61.077 171.259L61.1013 175.645C61.1327 181.29 61.5852 183.483 62.7826 183.795C63.4954 183.981 63.7899 184.742 63.9545 186.827C64.3404 191.703 60.7879 196.863 54.8461 200.058C52.0222 201.577 51.2255 203.233 52.5522 204.827C53.1546 205.551 54.1598 205.631 59.1029 205.349C62.3138 205.166 65.423 204.759 66.0114 204.445C66.5998 204.131 67.7511 202.608 68.569 201.06L70.057 198.246L70.2183 201.619L70.379 204.992H72.1599H73.9407L74.7056 198.65C75.1256 195.163 75.4347 191.823 75.3914 191.229C75.2382 189.129 76.4415 184.744 77.3438 184.113C77.8472 183.761 78.5623 182.122 78.9331 180.47C79.3038 178.818 79.7953 177.466 80.0248 177.466C80.2549 177.466 81.8809 177.96 83.6391 178.563C94.0156 182.122 107.523 183.069 117.731 180.953L119.395 180.607L121.663 188.483C125.363 201.329 127.303 205.57 128.808 204.096C129.299 203.615 129.185 200.747 128.315 191.718C127.693 185.254 127.24 179.909 127.308 179.841C127.378 179.772 129.046 179.111 131.018 178.372L134.601 177.027L136.387 182.936C137.706 187.298 138.384 188.803 138.982 188.688C139.657 188.556 139.769 187.369 139.665 181.453L139.54 174.376L141.684 172.683C144.133 170.749 144.61 170.65 145.618 171.86C146.267 172.64 146.524 172.515 148.083 170.665L149.822 168.599L149.724 171.262C149.631 173.8 149.7 173.938 151.187 174.211L152.748 174.498L150.654 175.847C149.502 176.59 148.474 177.634 148.372 178.167C148.074 179.709 150.34 186.468 151.666 187.994C152.611 189.081 153.866 189.578 157.415 190.272C163.267 191.415 169.838 190.676 177.99 187.956C186.386 185.155 189.012 182.736 189.711 177.155C190.197 173.28 189.744 172.18 187.487 171.758C186.462 171.566 185.623 171.305 185.623 171.177C185.623 171.049 187.342 168.83 189.444 166.245C193.466 161.297 193.503 161.177 192.325 156.957C191.953 155.625 191.963 155.62 193.082 156.605C194.465 157.822 195.068 157.497 196.456 154.784L197.53 152.684L195.636 151.177C194.595 150.348 193.742 149.514 193.742 149.324C193.742 149.134 194.412 148.814 195.231 148.613C196.049 148.412 197.267 147.895 197.937 147.462C199.13 146.693 199.155 146.465 199.155 136.403C199.155 126.693 198.697 124.056 197.819 128.721C196.872 133.752 191.853 140.327 187.14 142.708C185.73 143.42 184.462 144.003 184.321 144.003C184.181 144.003 184.199 143.193 184.36 142.203C184.623 140.583 184.485 140.333 182.973 139.709C182.049 139.327 181.292 138.833 181.292 138.61C181.292 138.388 182.143 137.628 183.183 136.922L185.074 135.638L185.047 127.812C185.032 123.507 184.846 119.017 184.636 117.833L184.253 115.68L182.797 118.103C180.755 121.502 177.551 124.75 174.023 127.001C172.365 128.059 171.008 129.183 171.008 129.499C171.008 129.815 171.531 130.807 172.171 131.702L173.333 133.33L170.854 133.134C168.538 132.95 168.321 133.047 167.582 134.593C167.146 135.504 166.915 136.901 167.067 137.698C167.294 138.88 167.145 139.146 166.258 139.146C165.528 139.146 165.05 139.626 164.803 140.607C164.437 142.062 164.427 142.056 162.815 139.473C161.923 138.045 161.074 136.997 160.927 137.143C160.781 137.289 161.402 138.61 162.308 140.079L163.956 142.749L163.311 147.159C162.527 152.524 163.037 155.476 165.75 161.278C166.791 163.503 167.762 165.808 167.909 166.402C168.136 167.322 168.185 167.338 168.239 166.509C168.273 165.974 167.327 163.255 166.136 160.465C164.247 156.039 163.971 154.871 163.971 151.293C163.971 149.038 164.362 145.639 164.841 143.739C165.543 140.955 165.936 140.253 166.871 140.12C167.803 139.988 168.032 139.584 168.036 138.066C168.046 134.503 168.576 133.851 171.223 134.149C174.239 134.488 174.745 133.681 172.97 131.36L171.591 129.558L174.683 127.648C178.054 125.564 180.412 123.297 182.592 120.045L183.999 117.946L184.002 121.394C184.003 123.291 184.154 127.151 184.338 129.971L184.671 135.098L181.899 136.696C180.374 137.574 179.127 138.448 179.127 138.637C179.127 138.827 180.102 139.42 181.292 139.955C183.091 140.764 183.458 141.192 183.458 142.483C183.458 143.41 183.108 144.171 182.591 144.369C181.866 144.646 181.784 145.26 182.093 148.13C182.295 150.016 182.353 151.559 182.221 151.559C182.089 151.559 181.301 150.581 180.47 149.385L178.959 147.211L177.74 148.353C174.707 151.194 171.166 159.92 170.776 165.516C170.638 167.487 170.652 168.493 170.805 167.751C170.959 167.009 171.414 164.789 171.817 162.817C172.556 159.195 175.61 152.377 177.559 149.996L178.617 148.703L180.538 150.941C181.595 152.172 182.705 153.179 183.004 153.179C183.356 153.179 183.415 151.74 183.17 149.131C182.837 145.595 182.901 145.083 183.67 145.083C187.218 145.083 194.461 139.031 196.73 134.173L198.062 131.32L198.067 139.212L198.072 147.104L195.264 147.882C193.719 148.311 192.376 148.9 192.278 149.191C192.181 149.482 193.05 150.432 194.208 151.301L196.315 152.881L195.47 154.649C194.425 156.834 193.945 156.861 192.769 154.801C190.955 151.622 190.678 153.128 191.904 159.516C192.199 161.056 191.861 161.759 189.08 165.379C185.295 170.306 181.879 173.411 179.316 174.255C178.279 174.596 177.322 174.767 177.189 174.634C176.682 174.129 178.665 170.411 181.205 167.107C184.679 162.588 185.472 160.976 186.095 157.163C187.016 151.533 188.393 149.159 192.242 146.567C194.491 145.053 194.618 144.599 192.488 145.687C190.725 146.589 187.804 149.465 186.896 151.192C186.457 152.029 185.749 154.531 185.322 156.753C184.423 161.439 184.183 161.953 181.128 165.734C178.131 169.444 177.261 170.848 176.469 173.257C175.798 175.301 175.479 175.502 171.955 176.094C170.316 176.37 169.925 176.27 169.925 175.576C169.925 175.103 169.365 174.181 168.68 173.527C167.994 172.874 165.774 169.91 163.744 166.942C161.714 163.973 159.1 160.398 157.934 158.996L155.814 156.448L156.949 154.23C158.715 150.778 160.118 144.482 160.216 139.572C160.363 132.243 157.365 124.973 153.372 122.972C152.503 122.536 151.717 122.138 151.624 122.085C151.532 122.033 152.666 120.785 154.143 119.312C156.1 117.362 157.09 115.81 157.787 113.606L158.744 110.579L177.828 110.425C196.128 110.277 196.975 110.225 198.439 109.156C199.279 108.544 200.454 107.086 201.049 105.918C202.097 103.864 202.127 102.904 201.963 76.6C201.778 46.7274 201.737 46.3502 198.547 44.4708C197.013 43.5673 195.217 43.4993 174.611 43.5673C162.358 43.6078 151.481 43.7892 150.439 43.9705C148.391 44.3273 145.099 45.8326 142.733 47.4944L141.253 48.5344L141.11 64.29L140.966 80.0462L138.801 77.7944C137.61 76.5558 136.027 75.4623 135.283 75.3651C134.1 75.2102 133.948 74.9539 134.08 73.3358C134.456 68.7174 130.683 55.5978 128.25 53.06L126.697 51.4408L126.369 34.7094C125.944 12.9731 125.898 12.5608 123.646 10.3155L121.859 8.53281H82.6003H43.3415L42.2974 9.85676ZM121.516 9.86269C124.664 11.1742 124.816 12.0961 125.198 32.2877L125.541 50.3754L121.345 50.4153C118.757 50.4396 116.216 50.8126 114.714 51.3885C109.884 53.2397 110.383 54.9085 110.383 36.9314V20.9465H108.682H106.981L107.377 37.9871C107.744 53.7649 107.703 55.105 106.829 56.0679C106.31 56.64 105.197 57.1079 104.355 57.1079C102.51 57.1079 102.318 56.5072 102.129 50.0915L101.993 45.5039H100.099H98.2041L98.3995 51.3059L98.5949 57.1079H96.6403H94.6857V48.4723V39.8368H93.0619H91.438V48.4723V57.1079H89.0022H86.5664L86.5615 44.2895C86.5593 37.2396 86.4034 30.1962 86.2156 28.6375C85.8789 25.8412 85.8502 25.804 84.0331 25.804H82.1922L82.2636 41.5909L82.3351 57.3778L79.85 57.5424L77.3644 57.707V49.5815V41.4559H75.7405H74.1167V49.5518V57.6476H71.9515H69.7863V43.8847V30.1217H67.54H65.2931L65.6796 43.8847L66.0655 57.6476H63.0543H60.0431V37.6423V17.6363L58.5545 17.8074L57.066 17.978L56.9242 38.1037L56.7823 58.2295L81.147 58.0735L105.512 57.9175L105.512 59.5637C105.512 60.4688 105.804 61.5013 106.161 61.8575C106.666 62.361 100.068 62.5051 76.4675 62.5051H46.1249L45.7806 50.2264C45.5911 43.4729 45.2777 31.4511 45.0834 23.5101L44.7305 9.07254H82.1754C113.826 9.07254 119.913 9.19506 121.516 9.86269ZM44.3424 36.2503C44.6785 50.4564 44.836 62.1964 44.6926 62.3389C44.5492 62.4819 44.0598 62.0313 43.6041 61.3377C42.9551 60.3484 42.5956 56.307 41.9374 42.598C40.7904 18.7152 40.8305 14.8233 42.2557 11.7712C42.8793 10.4353 43.4666 9.58528 43.5608 9.88212C43.655 10.179 44.0068 22.0448 44.3424 36.2503ZM148.795 10.1282C149.991 10.8828 148.881 13.6089 147.286 13.8367C145.01 14.1611 143.59 11.7998 145.134 10.2599C145.904 9.49244 147.685 9.42822 148.795 10.1282ZM163.861 11.0938C166.332 11.1937 170.229 11.1931 172.522 11.0922C174.815 10.9913 172.794 10.9098 168.031 10.9103C163.267 10.9108 161.391 10.9934 163.861 11.0938ZM159.641 15.0095C159.641 15.628 165.214 15.641 172.09 15.0397C176.311 14.67 175.987 14.6301 168.166 14.5534C162.787 14.5005 159.641 14.6689 159.641 15.0095ZM85.624 41.5887C85.933 57.0534 85.8762 57.6163 83.9952 57.6395C83.4761 57.6455 83.3186 55.1498 83.3186 46.9363C83.3186 41.0447 83.1606 34.0013 82.9668 31.2843L82.6155 26.3437H83.9671H85.3187L85.624 41.5887ZM68.8894 36.7334C69.0821 40.0732 69.2412 46.1451 69.2423 50.2264L69.245 57.6476H67.8918H66.5386V44.1546C66.5386 31.3933 66.5927 30.6615 67.5384 30.6615C68.4309 30.6615 68.576 31.3151 68.8894 36.7334ZM197.501 44.8384C198.229 45.2059 199.263 46.2535 199.798 47.1673C200.694 48.6979 200.782 50.9869 200.91 76.3113C201.049 103.714 201.046 103.8 199.86 106.011C199.166 107.305 198.039 108.475 197.154 108.823C196.182 109.205 189.016 109.475 177.233 109.575L158.829 109.731L158.446 105.953C158.235 103.875 157.592 100.82 157.018 99.1632L155.973 96.1515L175.805 96.3992C189.602 96.5719 195.758 96.831 196.034 97.252C196.253 97.585 196.396 91.4208 196.353 83.5544C196.302 74.5172 196.153 71.0398 195.946 74.1092C195.766 76.7808 195.425 79.2706 195.189 79.6414C194.388 80.9016 191.859 80.3997 190.19 78.6488C186.166 74.4293 183.538 74.5647 178.668 79.2425C175.856 81.9438 174.991 82.4749 173.399 82.4749C169.134 82.4749 165.975 79.4174 164.732 74.086C162.028 62.4922 161.865 62.1041 158.935 60.3225C156.85 59.0552 155.249 58.9916 153.118 60.0904L151.521 60.9135V58.7411C151.521 57.5462 151.3 56.5682 151.031 56.5682C150.752 56.5682 150.633 59.759 150.755 63.9894C150.872 68.0713 151.074 75.2691 151.201 79.9852L151.435 88.5598L148.494 85.6636L145.553 82.7674L145.695 65.0035L145.838 47.2391L147.364 46.1013C148.707 45.1002 149.874 44.928 157.107 44.6608C173.987 44.0385 196.109 44.1357 197.501 44.8384ZM101.394 46.6276C101.575 47.0971 101.723 49.6473 101.723 52.2947C101.723 57.0691 101.712 57.1079 100.369 57.1079H99.0161V51.4408C99.0161 46.24 99.1005 45.7737 100.041 45.7737C100.604 45.7737 101.213 46.158 101.394 46.6276ZM144.852 64.6673C144.905 74.1648 144.783 81.9276 144.581 81.9179C144.379 81.9087 143.787 81.5784 143.267 81.1839C142.402 80.5292 142.319 79.0736 142.319 64.4962C142.319 49.8557 142.398 48.4804 143.267 47.9758C143.787 47.673 144.336 47.4199 144.485 47.4123C144.633 47.4048 144.799 55.1698 144.852 64.6673ZM126.481 52.5964C128.763 54.2841 130.124 57.1592 131.753 63.7363C132.878 68.2753 133.159 70.4337 132.905 72.5877C132.577 75.3673 132.605 75.4439 134.061 75.7494C134.882 75.9216 135.919 76.2541 136.365 76.4883C137.344 77.0021 138.894 79.5944 138.472 80.0143C138.307 80.1789 136.669 80.4698 134.833 80.6614L131.494 81.0096V83.5587C131.494 86.8062 130.122 88.6143 126.418 90.2507C123.528 91.5271 122.391 92.5521 121.48 94.704C120.942 95.9723 120.918 95.9615 118.104 93.2629C113.027 88.3941 113.504 86.3048 119.913 85.3392L124.186 84.6959L119.585 84.9236C117.055 85.0489 114.435 85.3063 113.764 85.4957C112.711 85.7931 112.391 85.4957 111.425 83.3169C110.168 80.4844 109.418 76.8138 110.165 77.1576C112.918 78.4232 113.617 79.0261 113.918 80.3905C114.234 81.8283 114.438 81.9352 116.854 81.9352C118.281 81.9352 120.515 81.5612 121.817 81.1035C124.548 80.1449 128.246 77.7324 128.246 76.9104C128.246 76.6022 127.695 76.8661 127.021 77.497C125.205 79.1982 120.97 80.9027 117.731 81.2363C115.149 81.5018 114.846 81.4198 114.574 80.3835C114.246 79.1313 114.779 78.9446 116.325 79.7698C117.154 80.2124 117.777 79.8081 119.998 77.3853C122.532 74.6198 125.03 70.3355 124.971 68.8528C124.956 68.4783 124.431 69.2279 123.804 70.5179C122.35 73.5106 121.993 72.8538 121.555 66.3755C121.368 63.6057 120.974 60.934 120.68 60.4385C120.29 59.7817 120.236 60.0499 120.482 61.4257L120.818 63.3147L119.254 61.8791C115.208 58.1631 109.832 56.9946 107.374 59.297C105.744 60.8239 105.587 59.765 107.082 57.3211C110.115 52.3621 122.187 49.4217 126.481 52.5964ZM173.444 51.7107L166.948 52.0334L173.985 52.1338C177.855 52.1889 181.387 51.9984 181.834 51.7107C182.466 51.3032 182.346 51.2098 181.292 51.2875C180.548 51.3431 177.016 51.5331 173.444 51.7107ZM169.655 54.949C167.509 55.4936 174.135 55.5055 179.398 54.9668C182.98 54.6004 182.862 54.5782 177.233 54.5583C173.958 54.5464 170.548 54.7223 169.655 54.949ZM41.8974 59.7504C42.6357 63.1005 43.2912 63.278 55.7609 63.5031L67.0799 63.7071V73.6305V83.5544L62.0729 83.5603C56.6005 83.5668 53.0063 84.0002 53.0063 84.6538C53.0063 85.608 65.0468 112.038 66.2544 113.735L67.5676 115.58L65.7835 117.412C64.8021 118.419 63.319 120.662 62.4881 122.396L60.9768 125.548L53.3381 125.858C49.1366 126.03 38.3671 126.314 29.4055 126.492C15.661 126.764 12.81 126.688 11.1791 126.008C7.49885 124.476 7.66611 125.698 6.65714 92.8867C5.79433 64.8038 5.79487 63.0368 6.66851 61.7074C7.17787 60.9324 8.2139 60.0634 8.97062 59.7763C10.2957 59.2738 25.467 58.4378 36.3188 58.2689L41.5531 58.1874L41.8974 59.7504ZM53.6932 58.5614C54.2199 58.6985 54.9506 58.6893 55.3171 58.5414C55.6835 58.3935 55.2527 58.2818 54.3595 58.2926C53.4664 58.3034 53.1665 58.4243 53.6932 58.5614ZM168.041 58.7109C167.813 59.0784 169.571 59.2668 173.231 59.2668C176.276 59.2668 178.665 59.1783 178.541 59.0704C177.924 58.5333 168.354 58.2057 168.041 58.7109ZM158.998 61.6934C160.96 63.339 161.941 65.6944 163.158 71.6804C164.224 76.9239 164.879 78.393 167.035 80.3894C171.535 84.555 174.366 84.4071 179.194 79.7542C182.103 76.9508 182.801 76.538 184.63 76.538C186.343 76.538 187.183 76.9546 189.194 78.8026C191.14 80.5918 192.047 81.0565 193.512 81.015L195.366 80.9626V88.1954V95.4283H175.465H155.563L153.882 92.5947L152.202 89.7612L151.919 76.1272L151.636 62.4938L153.005 61.4198C154.856 59.9684 157.062 60.0688 158.998 61.6934ZM5.27198 62.5607C4.85086 63.7665 4.8698 70.8293 5.34181 87.7928C6.2122 119.101 6.49476 123.091 7.98385 125.1L9.14925 126.672L7.39655 126.084C5.01866 125.287 4.38968 124.725 3.14092 122.284C2.14602 120.34 2.02802 118.351 1.46995 94.182C1.1403 79.8767 1.03746 67.2833 1.24207 66.1974C1.57875 64.4093 4.36857 60.886 5.44736 60.886C5.67308 60.886 5.59405 61.6394 5.27198 62.5607ZM117.919 62.5381L120.512 63.651L120.854 67.8004C121.042 70.0829 121.334 72.4415 121.504 73.0411C121.706 73.7562 121.24 74.9188 120.154 76.4144C118.834 78.2305 118.161 78.6968 116.858 78.6968C113.24 78.6968 110.084 76.3809 108.478 72.5472C107.306 69.7515 107.146 62.6304 108.24 61.9406C109.69 61.0263 115.184 61.3653 117.919 62.5381ZM106.746 67.6417C106.964 70.5227 107.439 72.388 108.384 74.0736C109.275 75.6631 109.536 76.6275 109.172 76.9902C108.808 77.3529 108.898 78.3207 109.444 79.9177L110.259 82.3033L107.832 84.6829C106.497 85.9918 105.026 87.7912 104.563 88.6817L103.72 90.3004L102.724 87.3772C100.882 81.9767 102.128 82.286 83.9952 82.7297L68.1625 83.1172V73.3509V63.5846H87.3004H106.438L106.746 67.6417ZM18.499 65.2658C17.5311 65.8838 16.7398 66.5256 16.7398 66.6923C16.7398 66.8591 18.0708 68.3865 19.6969 70.0866L22.6545 73.1782L25.0822 69.0703C27.8476 64.3909 27.754 64.1405 23.2353 64.1416C21.1448 64.1421 19.7342 64.4773 18.499 65.2658ZM108.759 66.5531C108.759 67.2952 109.003 67.9024 109.301 67.9024C109.598 67.9024 109.842 67.2952 109.842 66.5531C109.842 65.811 109.598 65.2038 109.301 65.2038C109.003 65.2038 108.759 65.811 108.759 66.5531ZM115.796 66.2514C115.796 67.3254 116.502 68.0983 117.015 67.5866C117.439 67.1635 116.83 65.2038 116.274 65.2038C116.012 65.2038 115.796 65.6749 115.796 66.2514ZM36.2263 68.4421C35.1935 68.7719 35.5783 68.8782 37.8501 68.8901C39.4875 68.8987 41.3144 68.6974 41.9098 68.4421C43.3394 67.8295 38.1441 67.8295 36.2263 68.4421ZM111.807 69.1168C111.338 70.8622 111.384 71.1407 112.142 71.1407C112.533 71.1407 112.819 70.4569 112.819 69.5216C112.819 67.6125 112.27 67.3934 111.807 69.1168ZM25.6023 72.7507L23.0886 76.5196L19.404 73.2624L15.7194 70.0051L14.7408 71.4937C13.3719 73.5765 13.4417 77.6492 14.8788 79.5685C18.4687 84.3629 24.0656 85.098 28.3591 81.3388C30.5941 79.3828 31.5733 76.6853 31.2112 73.4837C30.9606 71.2649 29.6203 68.9818 28.5686 68.9818C28.3196 68.9818 26.9843 70.6776 25.6023 72.7507ZM37.3088 70.601C35.5199 71.172 43.4476 71.172 45.6989 70.601C46.8486 70.3095 46.0577 70.186 42.9924 70.1789C40.6107 70.1735 38.0531 70.3635 37.3088 70.601ZM115.635 74.1259C115.101 74.8589 114.9 75.4585 115.191 75.4585C115.862 75.4585 117.42 73.9225 117.42 73.2613C117.42 72.3762 116.635 72.7567 115.635 74.1259ZM147.122 85.3695C153.707 91.6486 157.758 100.255 157.732 107.908C157.72 111.394 157.472 112.501 156.101 115.173C153.14 120.946 149.595 122.248 134.111 123.245L128.339 123.616L127.956 120.562C127.746 118.882 127.666 117.416 127.778 117.304C127.89 117.193 131.46 115.636 135.711 113.845C140.429 111.858 143.803 110.727 144.369 110.943C144.879 111.138 144.032 110.016 142.487 108.449C140.037 105.966 137.751 102.157 135.319 96.5077C134.799 95.2977 134.773 95.3538 135.067 97.0474C135.583 100.018 138.282 105.193 140.646 107.746L142.807 110.079L141.074 110.802C140.122 111.2 136.497 112.728 133.019 114.199L126.697 116.872L125.171 115.869C122.968 114.421 121.706 114.611 118.864 116.818L116.342 118.778L113.768 116.442C112.353 115.158 110.967 113.73 110.687 113.27C110.409 112.81 108.769 107.701 107.044 101.916L103.909 91.3976L105.658 88.4998C106.619 86.9055 108.115 85.0024 108.982 84.27L110.557 82.9385L111.256 84.5955C111.761 85.7942 112.316 86.253 113.259 86.253C114.339 86.253 114.521 86.4726 114.318 87.5332C113.97 89.3467 115.275 91.5563 118.432 94.5005C121.488 97.3513 122.292 97.6217 122.292 95.8012C122.292 93.9402 123.36 92.8122 126.909 90.9254C130.53 89.0007 132.576 86.4289 132.576 83.8021C132.576 82.0766 132.627 82.0415 135.958 81.4565C137.818 81.1299 139.419 80.6264 139.515 80.3371C139.779 79.5501 143.83 82.2299 147.122 85.3695ZM100.824 91.2454C106.517 109.952 107.54 113.528 107.311 113.914C107.179 114.136 103.806 114.319 99.8161 114.319C93.674 114.319 92.1216 114.143 89.6988 113.171C85.3154 111.412 77.5555 111.163 73.1867 112.641C67.894 114.43 67.3516 114.291 65.5426 110.675C61.8153 103.225 53.9633 85.119 54.3097 84.773C54.6432 84.4411 80.6398 83.3352 93.6605 83.0988L98.3194 83.0146L100.824 91.2454ZM100.67 84.6905C101.191 85.6604 104.353 95.758 108.691 110.305L109.828 114.118L119.306 122.638C124.518 127.324 128.643 131.385 128.472 131.662C128.122 132.227 127.35 131.585 116.487 121.7C111.36 117.033 108.61 114.136 108.255 113.022C106.411 107.245 99.5574 84.3812 99.5574 84.0077C99.5574 83.2192 100.039 83.515 100.67 84.6905ZM40.4927 87.4674C40.457 87.8387 40.4797 88.4961 40.542 88.9289C40.759 90.4315 36.6046 102.932 35.7835 103.246C34.7659 103.635 29.7308 102.004 29.7308 101.284C29.7308 100.189 27.295 101.096 27.1293 102.254C26.889 103.933 25.1606 105.312 23.8247 104.889C23.2125 104.695 21.6065 103.434 20.2544 102.086C18.2132 100.05 17.66 99.7482 16.9904 100.303C16.5471 100.67 16.2477 101.245 16.3252 101.582C16.5233 102.443 11.4952 110.361 10.5117 110.737C9.52978 111.113 9.44317 112.489 10.3796 112.832C11.5439 113.259 12.4094 112.657 12.4094 111.42C12.4094 109.775 16.8172 102.766 17.994 102.541C19.1702 102.315 23.5996 105.578 23.9714 106.944C24.3346 108.279 26.2064 107.885 26.2319 106.469C26.2703 104.369 28.0863 102.773 30.3305 102.869C31.766 102.93 35.1437 104.506 35.1437 105.116C35.1437 105.428 35.6308 105.683 36.2263 105.683C37.2163 105.683 37.5773 105.098 37.3505 103.862C37.2006 103.045 41.775 89.7779 42.331 89.4168C43.0173 88.9705 47.425 92.1629 47.8792 93.4356C48.3009 94.6171 50.5656 94.474 50.5808 93.2651C50.5862 92.8176 51.1621 91.5293 51.8604 90.4029C52.5587 89.2765 53.0079 88.2338 52.8591 88.0853C52.7102 87.9369 52.0709 88.6504 51.4382 89.6716C50.8054 90.6922 49.8278 91.6475 49.2654 91.7938C48.0389 92.1138 43.4574 89.1081 43.0817 87.7372C42.7878 86.6648 40.5907 86.4359 40.4927 87.4674ZM24.0472 88.4119C22.5955 89.0336 27.5624 89.0574 30.5427 88.4426C32.4935 88.0405 32.3328 87.9941 28.9188 87.972C26.8349 87.959 24.6426 88.1566 24.0472 88.4119ZM76.3646 89.3564C75.7481 90.5303 76.4339 92.4652 77.6291 92.9223C79.8089 93.7567 81.6374 90.7294 79.9626 89.0595C79.0029 88.1026 76.9341 88.2732 76.3646 89.3564ZM79.5296 90.5389C79.5296 91.9924 78.5054 92.4798 77.5192 91.4958C76.5324 90.5125 77.0212 89.4913 78.4789 89.4913C79.1582 89.4913 79.5296 89.8616 79.5296 90.5389ZM26.6183 90.4321C24.2816 90.5427 22.694 90.8541 22.694 91.2017C22.694 91.5671 23.3257 91.6594 24.3855 91.4478C25.316 91.2622 27.63 91.1105 29.5278 91.1105C31.4672 91.1105 32.9785 90.8741 32.9785 90.5708C32.9785 90.2739 32.4302 90.0791 31.7606 90.1385C31.091 90.1973 28.7765 90.3295 26.6183 90.4321ZM23.2353 93.2278C23.2353 93.6823 31.3065 93.3995 31.851 92.9256C31.975 92.8182 30.0869 92.7297 27.656 92.7297C25.2245 92.7297 23.2353 92.9536 23.2353 93.2278ZM47.3227 97.0474C47.1138 97.3842 48.0692 97.5629 49.8619 97.5235C52.307 97.469 52.4932 97.3977 51.1118 97.0474C48.7241 96.4419 47.6984 96.4419 47.3227 97.0474ZM34.6024 108.921C34.6024 109.218 35.7597 109.444 37.1735 109.423C39.1081 109.395 39.4767 109.271 38.6621 108.921C37.1492 108.273 34.6024 108.273 34.6024 108.921ZM22.694 111.08C22.694 111.707 25.0627 111.707 27.0243 111.08C28.089 110.74 27.7718 110.637 25.5358 110.595C23.966 110.565 22.694 110.782 22.694 111.08ZM113.432 119.851C116.385 122.597 120.591 126.482 122.778 128.486L126.753 132.129L121.952 132.154L117.149 132.178L119.72 134.477C122.271 136.757 122.949 138.066 121.579 138.066C121.187 138.066 116.768 134.182 111.758 129.435C106.747 124.688 100.948 119.648 98.8699 118.235L95.0922 115.668L97.7305 115.348C99.1817 115.172 102.1 114.99 104.216 114.943L108.063 114.858L113.432 119.851ZM9.1617 115.944C9.1617 116.282 10.0391 116.356 11.4622 116.139C14.6147 115.658 14.6937 115.398 11.6879 115.398C10.2984 115.398 9.1617 115.644 9.1617 115.944ZM124.79 116.578C125.649 117.227 126.39 117.773 126.438 117.792C126.486 117.811 126.696 118.737 126.904 119.85C127.257 121.734 127.196 121.868 126.005 121.801C125.302 121.761 124.301 121.909 123.78 122.129C122.695 122.588 122.519 121.863 123.482 120.903C123.95 120.437 123.959 120.256 123.514 120.256C123.174 120.256 122.746 120.498 122.562 120.795C122.098 121.544 120.668 121.474 120.668 120.703C120.668 120.355 121.094 119.585 121.615 118.992C122.406 118.092 122.278 118.119 120.842 119.157C119.183 120.356 117.42 120.369 117.42 119.181C117.42 118.644 122.092 115.398 122.866 115.398C123.065 115.398 123.931 115.929 124.79 116.578ZM31.8959 117.026C30.5562 117.239 34.5753 117.29 40.8272 117.14C47.0792 116.991 52.2956 116.78 52.4201 116.673C52.8325 116.316 34.3729 116.633 31.8959 117.026ZM120.13 121.2C120.137 122.01 123.233 123.375 123.985 122.9C125.194 122.136 127.022 122.349 127.386 123.294C127.679 124.054 128.508 124.139 133.477 123.919L139.231 123.664L136.851 124.873C135.542 125.537 133.351 127.065 131.983 128.268L129.497 130.455L124.27 125.845C121.396 123.311 119.044 121.137 119.044 121.016C119.044 120.895 119.287 120.795 119.585 120.795C119.883 120.795 120.128 120.978 120.13 121.2ZM152.567 123.744C158.066 126.579 160.78 138.172 158.24 147.974C156.2 155.848 149.478 165.658 142.514 170.924C138.852 173.694 131.507 177.61 128.7 178.29C127.27 178.636 127.256 178.61 126.891 174.949C126.322 169.24 125.921 168.046 124.509 167.842C122.821 167.597 120.535 168.616 118.86 170.359L117.468 171.809L118.312 175.499C118.777 177.534 118.949 179.393 118.694 179.643C118.44 179.892 116.04 180.387 113.36 180.741C107.539 181.512 97.7013 181.136 91.9793 179.923C87.6354 179.003 81.1464 177.03 80.4747 176.426C80.1743 176.155 84.6735 155.204 85.2045 154.401C85.2505 154.33 87.0985 154.608 89.3107 155.017C93.582 155.808 103.346 156.666 103.346 156.251C103.346 156.115 102.025 155.359 100.408 154.571C96.7102 152.766 92.3879 148.151 89.5738 143.002C85.4145 135.392 81.855 132.577 76.3257 132.527C69.8361 132.468 66.4249 136.499 63.8635 147.251C62.7923 151.748 61.1257 164.138 61.1257 167.603C61.1257 168.563 60.3424 170.933 59.3854 172.868C57.9537 175.764 57.4027 176.398 56.273 176.447C52.4444 176.613 50.3345 175.77 49.1745 173.609C48.6852 172.697 48.7566 171.779 49.5117 169.291C50.0395 167.554 50.6381 166.132 50.8422 166.132C51.0463 166.132 52.629 166.618 54.3595 167.211C59.4693 168.964 59.288 169.125 59.694 162.489C60.5373 148.705 63.5539 136.812 67.2184 132.822C69.0253 130.855 73.1645 129.784 77.6491 130.122C84.2464 130.619 87.4627 133.042 91.6578 140.673C95.7905 148.189 100.063 152.379 105.842 154.579C108.074 155.429 108.366 155.428 110.67 154.551C116.417 152.362 122.925 145.311 127.332 136.496C130.293 130.573 132.603 128.125 137.681 125.529C142.526 123.051 149.582 122.206 152.567 123.744ZM180.751 125.377C180.751 128.496 178.193 133.945 174.87 137.903C173.176 139.923 171.257 142.439 170.607 143.494C169.138 145.879 167.747 151.072 167.8 153.967C167.834 155.757 168.005 155.374 168.761 151.829C169.893 146.514 171.382 143.51 174.933 139.373C178.329 135.416 180.725 130.44 181.133 126.495C181.304 124.844 181.288 123.494 181.098 123.494C180.907 123.494 180.751 124.341 180.751 125.377ZM140.264 126.759C137.992 127.668 135.246 130.111 133.876 132.442C133.131 133.708 131.469 137.512 130.182 140.896C128.895 144.279 127.236 148.002 126.496 149.168C124.533 152.263 120.476 155.777 117.074 157.33C113.386 159.014 113.595 159.535 117.383 158.1C123.486 155.788 127.585 150.868 130.738 142.07C131.793 139.126 133.413 135.302 134.337 133.573C135.96 130.538 139.163 127.272 140.516 127.272C140.877 127.272 141.323 127.029 141.507 126.732C141.896 126.106 141.896 126.106 140.264 126.759ZM162.929 167.191C164.99 170.297 166.677 173.135 166.677 173.498C166.677 173.861 166.44 174.781 166.15 175.542C165.442 177.398 163.681 177.355 157.937 175.344C155.45 174.473 152.719 173.612 151.868 173.43C150.336 173.101 150.324 173.069 150.689 170.155C151.134 166.606 150.61 166.429 148.295 169.344C147.208 170.712 146.31 171.365 145.79 171.167C144.707 170.752 144.789 170.616 148.605 166.483L151.914 162.9L156.724 168.664C159.371 171.834 161.832 174.808 162.195 175.272C162.557 175.737 162.862 175.865 162.871 175.557C162.881 175.25 160.574 172.145 157.746 168.659C154.918 165.173 152.604 162.141 152.604 161.923C152.604 161.704 153.253 160.572 154.047 159.408L155.49 157.291L157.334 159.417C158.349 160.587 160.866 164.085 162.929 167.191ZM126.991 186.093C127.939 195.44 128.588 203.211 128.436 203.364C127.426 204.37 123.714 193.707 120.375 180.217L118.318 171.904L120.078 170.336C121.387 169.17 122.276 168.811 123.553 168.935L125.269 169.101L126.991 186.093ZM51.4035 176.667C52.2555 177.107 53.9151 177.466 55.0914 177.466H57.2305L54.903 182.618C53.6234 185.452 52.4233 187.778 52.236 187.786C50.9581 187.845 50.8487 187.206 51.626 184.23C52.8206 179.657 52.0206 179.289 48.7025 182.888L46.0074 185.811L40.5512 184.883C34.7117 183.889 32.9785 183.253 32.9785 182.101C32.9785 180.938 34.2435 180.205 37.2179 179.642C40.8013 178.965 43.6144 177.499 45.9132 175.112L47.752 173.204L48.8032 174.536C49.3813 175.269 50.5515 176.228 51.4035 176.667ZM188.042 180.013C186.874 183.064 184.144 185.066 178.679 186.881C169.625 189.887 160.269 190.691 155.04 188.912C152.818 188.155 152.16 187.623 151.365 185.933C150.833 184.801 150.247 183.12 150.062 182.199C149.762 180.702 149.836 180.57 150.759 180.965C155.94 183.18 169.441 183.318 176.15 181.224C180.38 179.904 185.2 177.612 187.248 175.947L188.6 174.849L188.778 176.236C188.877 176.999 188.546 178.698 188.042 180.013ZM75.012 187.942C74.5833 190.804 74.2704 191.502 73.197 191.99C71.2245 192.886 68.6274 192.693 66.6739 191.505C65.0316 190.506 64.9147 190.238 64.9147 187.459V184.483H70.2226H75.5305L75.012 187.942ZM68.694 193.386C69.5536 193.574 71.1726 193.476 72.2914 193.168C73.4108 192.86 74.3786 192.662 74.442 192.728C74.5275 192.818 73.2658 202.96 73.0671 203.778C73.0487 203.852 72.6687 203.913 72.2221 203.913C71.6608 203.913 71.4102 203.35 71.4102 202.091C71.4102 199.266 70.7877 196.834 70.1203 197.052C69.788 197.161 68.8472 198.633 68.0309 200.324C67.1329 202.181 66.0622 203.576 65.3245 203.85C64.6522 204.099 61.7676 204.47 58.9134 204.674C54.7493 204.971 53.5974 204.893 53.0848 204.277C52.1034 203.098 52.8136 202.062 55.4952 200.763C58.718 199.202 63.1008 195.069 63.9155 192.822L64.565 191.031L65.8479 192.037C66.5532 192.591 67.8339 193.198 68.694 193.386Z" fill="black"/>
</svg>
