<svg width="403" height="206" viewBox="0 0 403 206" fill="none" xmlns="http://www.w3.org/2000/svg">
<path fill-rule="evenodd" clip-rule="evenodd" d="M346.379 0.961576C333.636 1.31779 332.307 1.59629 331.693 4.03692C331.167 6.12727 331.844 19.5826 332.541 20.8811C332.872 21.497 333.631 22.2618 334.228 22.5802C335.605 23.3153 386.032 22.2742 389.984 21.429C391.612 21.0808 392.882 20.4612 393.206 19.8568C393.501 19.3079 393.742 15.1995 393.742 10.7273C393.742 3.31531 393.646 2.50033 392.659 1.51641C391.62 0.479603 390.923 0.440743 374.932 0.532496C365.777 0.585389 352.929 0.77807 346.379 0.961576ZM392.228 1.94657C392.984 2.70056 393.574 16.1516 392.958 18.5987C392.776 19.3208 392.01 20.1401 391.245 20.4299C389.825 20.968 363.625 21.9509 347.792 22.0599C338.995 22.1203 338.909 22.1096 337.556 20.7602C336.362 19.5702 336.138 18.7363 335.763 14.1011C335.141 6.40253 335.193 4.00346 336.006 2.89487C336.676 1.98111 338.279 1.87965 357.793 1.51263C385.543 0.991801 391.343 1.06466 392.228 1.94657ZM334.946 3.27051C334.404 4.88267 334.677 14.6463 335.351 17.6995C335.645 19.0304 336.276 20.5498 336.753 21.076C337.88 22.3168 337.506 22.6315 335.526 22.1079C333.085 21.4635 332.648 19.88 332.53 11.2687C332.434 4.28951 332.524 3.42919 333.415 2.77936C334.868 1.71989 335.41 1.89368 334.946 3.27051ZM344.009 5.10773C336.365 8.98888 341.467 21.0625 349.412 17.8927C352.973 16.4721 354.723 12.9116 353.708 9.15188C352.581 4.97928 348.013 3.07459 344.009 5.10773ZM348.925 6.91041C348.389 7.84845 347.549 8.53066 346.92 8.53767C345.547 8.55225 344.798 9.05419 344.059 10.4558C342.549 13.3191 347.016 15.9465 349.156 13.454C350.013 12.4561 351.14 12.5343 352.512 13.6872C352.995 14.0925 351.306 16.1721 349.908 16.8931C347.267 18.2549 345.149 17.9386 343.077 15.8731C341.538 14.3381 341.24 13.6537 341.256 11.6902C341.29 7.46093 343.382 5.34899 347.572 5.31337L349.847 5.29448L348.925 6.91041ZM362.753 6.77332C364.614 6.8791 367.659 6.8791 369.519 6.77332C371.38 6.66807 369.858 6.58172 366.136 6.58172C362.415 6.58172 360.893 6.66807 362.753 6.77332ZM242.297 9.85676C239.899 12.8959 239.791 14.7645 240.75 36.4527C241.244 47.6104 241.543 56.8445 241.414 56.9724C241.285 57.1009 234.767 57.4344 226.93 57.7135C219.093 57.9931 211.364 58.4551 209.756 58.7411C205.372 59.5199 202.237 61.5763 200.925 64.5329C199.854 66.9471 199.845 67.4603 200.405 93.4038C200.967 119.363 200.997 119.859 202.227 122.302C202.915 123.669 204.169 125.285 205.013 125.895C206.519 126.981 207.052 126.999 233.295 126.843C248.006 126.755 260.043 126.884 260.043 127.129C260.043 127.374 259.189 129.594 258.145 132.061C257.102 134.529 254.033 142.412 251.326 149.579L246.405 162.609L248.041 163.971L249.677 165.333L248.755 168.691C247.265 174.118 242.768 177.848 236.222 179.086C234.646 179.384 233.028 179.9 232.626 180.232C231.617 181.068 231.713 182.533 232.843 183.538C233.687 184.288 243.028 186.642 245.16 186.642C245.619 186.642 247.123 185.609 248.503 184.348C250.985 182.079 251.009 182.071 250.63 183.601C249.545 187.99 249.556 188.085 251.258 188.676L252.865 189.235L255.676 182.676C257.222 179.069 259.07 175.024 259.782 173.688L261.077 171.259L261.101 175.645C261.133 181.29 261.585 183.483 262.783 183.795C263.495 183.981 263.79 184.742 263.954 186.827C264.34 191.703 260.788 196.863 254.846 200.058C252.022 201.577 251.225 203.233 252.552 204.827C253.155 205.551 254.16 205.631 259.103 205.349C262.314 205.166 265.423 204.759 266.011 204.445C266.6 204.131 267.751 202.608 268.569 201.06L270.057 198.246L270.218 201.619L270.379 204.992H272.16H273.941L274.706 198.65C275.126 195.163 275.435 191.823 275.391 191.229C275.238 189.129 276.442 184.744 277.344 184.113C277.847 183.761 278.562 182.122 278.933 180.47C279.304 178.818 279.795 177.466 280.025 177.466C280.255 177.466 281.881 177.96 283.639 178.563C294.016 182.122 307.523 183.069 317.731 180.953L319.395 180.607L321.663 188.483C325.363 201.329 327.303 205.57 328.808 204.096C329.299 203.615 329.185 200.747 328.315 191.718C327.693 185.254 327.24 179.909 327.308 179.841C327.378 179.772 329.046 179.111 331.018 178.372L334.601 177.027L336.387 182.936C337.706 187.298 338.384 188.803 338.982 188.688C339.657 188.556 339.769 187.369 339.665 181.453L339.54 174.376L341.684 172.683C344.133 170.749 344.61 170.65 345.618 171.86C346.267 172.64 346.524 172.515 348.083 170.665L349.822 168.599L349.724 171.262C349.631 173.8 349.7 173.938 351.187 174.211L352.748 174.498L350.654 175.847C349.502 176.59 348.474 177.634 348.372 178.167C348.074 179.709 350.34 186.468 351.666 187.994C352.611 189.081 353.866 189.578 357.415 190.272C363.267 191.415 369.838 190.676 377.99 187.956C386.386 185.155 389.012 182.736 389.711 177.155C390.197 173.28 389.744 172.18 387.487 171.758C386.462 171.566 385.623 171.305 385.623 171.177C385.623 171.049 387.342 168.83 389.444 166.245C393.466 161.297 393.503 161.177 392.325 156.957C391.953 155.625 391.963 155.62 393.082 156.605C394.465 157.822 395.068 157.497 396.456 154.784L397.53 152.684L395.636 151.177C394.595 150.348 393.742 149.514 393.742 149.324C393.742 149.134 394.412 148.814 395.231 148.613C396.049 148.412 397.267 147.895 397.937 147.462C399.13 146.693 399.155 146.465 399.155 136.403C399.155 126.693 398.697 124.056 397.819 128.721C396.872 133.752 391.853 140.327 387.14 142.708C385.73 143.42 384.462 144.003 384.321 144.003C384.181 144.003 384.199 143.193 384.36 142.203C384.623 140.583 384.485 140.333 382.973 139.709C382.049 139.327 381.292 138.833 381.292 138.61C381.292 138.388 382.143 137.628 383.183 136.922L385.074 135.638L385.047 127.812C385.032 123.507 384.846 119.017 384.636 117.833L384.253 115.68L382.797 118.103C380.755 121.502 377.551 124.75 374.023 127.001C372.365 128.059 371.008 129.183 371.008 129.499C371.008 129.815 371.531 130.807 372.171 131.702L373.333 133.33L370.854 133.134C368.538 132.95 368.321 133.047 367.582 134.593C367.146 135.504 366.915 136.901 367.067 137.698C367.294 138.88 367.145 139.146 366.258 139.146C365.528 139.146 365.05 139.626 364.803 140.607C364.437 142.062 364.427 142.056 362.815 139.473C361.923 138.045 361.074 136.997 360.927 137.143C360.781 137.289 361.402 138.61 362.308 140.079L363.956 142.749L363.311 147.159C362.527 152.524 363.037 155.476 365.75 161.278C366.791 163.503 367.762 165.808 367.909 166.402C368.136 167.322 368.185 167.338 368.239 166.509C368.273 165.974 367.327 163.255 366.136 160.465C364.247 156.039 363.971 154.871 363.971 151.293C363.971 149.038 364.362 145.639 364.841 143.739C365.543 140.955 365.936 140.253 366.871 140.12C367.803 139.988 368.032 139.584 368.036 138.066C368.046 134.503 368.576 133.851 371.223 134.149C374.239 134.488 374.745 133.681 372.97 131.36L371.591 129.558L374.683 127.648C378.054 125.564 380.412 123.297 382.592 120.045L383.999 117.946L384.002 121.394C384.003 123.291 384.154 127.151 384.338 129.971L384.671 135.098L381.899 136.696C380.374 137.574 379.127 138.448 379.127 138.637C379.127 138.827 380.102 139.42 381.292 139.955C383.091 140.764 383.458 141.192 383.458 142.483C383.458 143.41 383.108 144.171 382.591 144.369C381.866 144.646 381.784 145.26 382.093 148.13C382.295 150.016 382.353 151.559 382.221 151.559C382.089 151.559 381.301 150.581 380.47 149.385L378.959 147.211L377.74 148.353C374.707 151.194 371.166 159.92 370.776 165.516C370.638 167.487 370.652 168.493 370.805 167.751C370.959 167.009 371.414 164.789 371.817 162.817C372.556 159.195 375.61 152.377 377.559 149.996L378.617 148.703L380.538 150.941C381.595 152.172 382.705 153.179 383.004 153.179C383.356 153.179 383.415 151.74 383.17 149.131C382.837 145.595 382.901 145.083 383.67 145.083C387.218 145.083 394.461 139.031 396.73 134.173L398.062 131.32L398.067 139.212L398.072 147.104L395.264 147.882C393.719 148.311 392.376 148.9 392.278 149.191C392.181 149.482 393.05 150.432 394.208 151.301L396.315 152.881L395.47 154.649C394.425 156.834 393.945 156.861 392.769 154.801C390.955 151.622 390.678 153.128 391.904 159.516C392.199 161.056 391.861 161.759 389.08 165.379C385.295 170.306 381.879 173.411 379.316 174.255C378.279 174.596 377.322 174.767 377.189 174.634C376.682 174.129 378.665 170.411 381.205 167.107C384.679 162.588 385.472 160.976 386.095 157.163C387.016 151.533 388.393 149.159 392.242 146.567C394.491 145.053 394.618 144.599 392.488 145.687C390.725 146.589 387.804 149.465 386.896 151.192C386.457 152.029 385.749 154.531 385.322 156.753C384.423 161.439 384.183 161.953 381.128 165.734C378.131 169.444 377.261 170.848 376.469 173.257C375.798 175.301 375.479 175.502 371.955 176.094C370.316 176.37 369.925 176.27 369.925 175.576C369.925 175.103 369.365 174.181 368.68 173.527C367.994 172.874 365.774 169.91 363.744 166.942C361.714 163.973 359.1 160.398 357.934 158.996L355.814 156.448L356.949 154.23C358.715 150.778 360.118 144.482 360.216 139.572C360.363 132.243 357.365 124.973 353.372 122.972C352.503 122.536 351.717 122.138 351.624 122.085C351.532 122.033 352.666 120.785 354.143 119.312C356.1 117.362 357.09 115.81 357.787 113.606L358.744 110.579L377.828 110.425C396.128 110.277 396.975 110.225 398.439 109.156C399.279 108.544 400.454 107.086 401.049 105.918C402.097 103.864 402.127 102.904 401.963 76.6C401.778 46.7274 401.737 46.3502 398.547 44.4708C397.013 43.5673 395.217 43.4993 374.611 43.5673C362.358 43.6078 351.481 43.7892 350.439 43.9705C348.391 44.3273 345.099 45.8326 342.733 47.4944L341.253 48.5344L341.11 64.29L340.966 80.0462L338.801 77.7944C337.61 76.5558 336.027 75.4623 335.283 75.3651C334.1 75.2102 333.948 74.9539 334.08 73.3358C334.456 68.7174 330.683 55.5978 328.25 53.06L326.697 51.4408L326.369 34.7094C325.944 12.9731 325.898 12.5608 323.646 10.3155L321.859 8.53281H282.6H243.342L242.297 9.85676ZM321.516 9.86269C324.664 11.1742 324.816 12.0961 325.198 32.2877L325.541 50.3754L321.345 50.4153C318.757 50.4396 316.216 50.8126 314.714 51.3885C309.884 53.2397 310.383 54.9085 310.383 36.9314V20.9465H308.682H306.981L307.377 37.9871C307.744 53.7649 307.703 55.105 306.829 56.0679C306.31 56.64 305.197 57.1079 304.355 57.1079C302.51 57.1079 302.318 56.5072 302.129 50.0915L301.993 45.5039H300.099H298.204L298.4 51.3059L298.595 57.1079H296.64H294.686V48.4723V39.8368H293.062H291.438V48.4723V57.1079H289.002H286.566L286.561 44.2895C286.559 37.2396 286.403 30.1962 286.216 28.6375C285.879 25.8412 285.85 25.804 284.033 25.804H282.192L282.264 41.5909L282.335 57.3778L279.85 57.5424L277.364 57.707V49.5815V41.4559H275.741H274.117V49.5518V57.6476H271.951H269.786V43.8847V30.1217H267.54H265.293L265.68 43.8847L266.065 57.6476H263.054H260.043V37.6423V17.6363L258.555 17.8074L257.066 17.978L256.924 38.1037L256.782 58.2295L281.147 58.0735L305.512 57.9175L305.512 59.5637C305.512 60.4688 305.804 61.5013 306.161 61.8575C306.666 62.361 300.068 62.5051 276.467 62.5051H246.125L245.781 50.2264C245.591 43.4729 245.278 31.4511 245.083 23.5101L244.73 9.07254H282.175C313.826 9.07254 319.913 9.19506 321.516 9.86269ZM244.342 36.2503C244.679 50.4564 244.836 62.1964 244.693 62.3389C244.549 62.4819 244.06 62.0313 243.604 61.3377C242.955 60.3484 242.596 56.307 241.937 42.598C240.79 18.7152 240.83 14.8233 242.256 11.7712C242.879 10.4353 243.467 9.58528 243.561 9.88212C243.655 10.179 244.007 22.0448 244.342 36.2503ZM348.795 10.1282C349.991 10.8828 348.881 13.6089 347.286 13.8367C345.01 14.161 343.59 11.7998 345.134 10.2599C345.904 9.49244 347.685 9.42822 348.795 10.1282ZM363.861 11.0938C366.332 11.1937 370.229 11.1931 372.522 11.0922C374.815 10.9913 372.794 10.9098 368.031 10.9103C363.267 10.9108 361.391 10.9934 363.861 11.0938ZM359.641 15.0095C359.641 15.628 365.214 15.641 372.09 15.0397C376.311 14.67 375.987 14.6301 368.166 14.5534C362.787 14.5005 359.641 14.6689 359.641 15.0095ZM285.624 41.5887C285.933 57.0534 285.876 57.6163 283.995 57.6395C283.476 57.6455 283.319 55.1498 283.319 46.9363C283.319 41.0447 283.161 34.0013 282.967 31.2843L282.615 26.3437H283.967H285.319L285.624 41.5887ZM268.889 36.7334C269.082 40.0732 269.241 46.1451 269.242 50.2264L269.245 57.6476H267.892H266.539V44.1546C266.539 31.3933 266.593 30.6615 267.538 30.6615C268.431 30.6615 268.576 31.3151 268.889 36.7334ZM397.501 44.8384C398.229 45.2059 399.263 46.2535 399.798 47.1673C400.694 48.6979 400.782 50.9869 400.91 76.3113C401.049 103.714 401.046 103.8 399.86 106.011C399.166 107.305 398.039 108.475 397.154 108.823C396.182 109.205 389.016 109.475 377.233 109.575L358.829 109.731L358.446 105.953C358.235 103.875 357.592 100.82 357.018 99.1632L355.973 96.1515L375.805 96.3992C389.602 96.5719 395.758 96.831 396.034 97.252C396.253 97.585 396.396 91.4208 396.353 83.5544C396.302 74.5172 396.153 71.0398 395.946 74.1092C395.766 76.7808 395.425 79.2706 395.189 79.6414C394.388 80.9016 391.859 80.3997 390.19 78.6488C386.166 74.4293 383.538 74.5647 378.668 79.2425C375.856 81.9438 374.991 82.4749 373.399 82.4749C369.134 82.4749 365.975 79.4174 364.732 74.086C362.028 62.4922 361.865 62.1041 358.935 60.3225C356.85 59.0552 355.249 58.9916 353.118 60.0904L351.521 60.9135V58.7411C351.521 57.5462 351.3 56.5682 351.031 56.5682C350.752 56.5682 350.633 59.759 350.755 63.9894C350.872 68.0713 351.074 75.2691 351.201 79.9852L351.435 88.5598L348.494 85.6636L345.553 82.7674L345.695 65.0035L345.838 47.2391L347.364 46.1013C348.707 45.1002 349.874 44.928 357.107 44.6608C373.987 44.0385 396.109 44.1357 397.501 44.8384ZM301.394 46.6276C301.575 47.0971 301.723 49.6473 301.723 52.2947C301.723 57.0691 301.712 57.1079 300.369 57.1079H299.016V51.4408C299.016 46.24 299.101 45.7737 300.041 45.7737C300.604 45.7737 301.213 46.158 301.394 46.6276ZM344.852 64.6673C344.905 74.1648 344.783 81.9276 344.581 81.9179C344.379 81.9087 343.787 81.5784 343.267 81.1839C342.402 80.5292 342.319 79.0736 342.319 64.4962C342.319 49.8557 342.398 48.4804 343.267 47.9758C343.787 47.673 344.336 47.4199 344.485 47.4123C344.633 47.4048 344.798 55.1698 344.852 64.6673ZM326.481 52.5964C328.763 54.2841 330.124 57.1592 331.753 63.7363C332.878 68.2753 333.159 70.4337 332.905 72.5877C332.577 75.3673 332.605 75.4439 334.061 75.7494C334.882 75.9216 335.919 76.2541 336.365 76.4883C337.344 77.0021 338.894 79.5944 338.472 80.0143C338.307 80.1789 336.669 80.4698 334.833 80.6614L331.494 81.0096V83.5587C331.494 86.8062 330.122 88.6143 326.418 90.2507C323.528 91.5272 322.391 92.5521 321.48 94.704C320.942 95.9723 320.918 95.9615 318.104 93.2629C313.027 88.3941 313.504 86.3048 319.913 85.3392L324.186 84.6959L319.585 84.9236C317.055 85.0489 314.435 85.3063 313.764 85.4957C312.711 85.7931 312.391 85.4957 311.425 83.3169C310.168 80.4844 309.418 76.8138 310.165 77.1576C312.918 78.4232 313.617 79.0261 313.918 80.3905C314.234 81.8283 314.438 81.9352 316.854 81.9352C318.281 81.9352 320.515 81.5612 321.817 81.1035C324.548 80.1449 328.246 77.7324 328.246 76.9104C328.246 76.6022 327.695 76.8661 327.021 77.497C325.205 79.1982 320.97 80.9027 317.731 81.2363C315.149 81.5018 314.846 81.4198 314.574 80.3835C314.246 79.1313 314.779 78.9446 316.325 79.7698C317.154 80.2124 317.777 79.8081 319.998 77.3853C322.532 74.6198 325.03 70.3355 324.971 68.8528C324.956 68.4783 324.431 69.2279 323.804 70.5179C322.35 73.5106 321.993 72.8538 321.555 66.3755C321.368 63.6056 320.974 60.934 320.68 60.4385C320.29 59.7817 320.236 60.0499 320.482 61.4257L320.818 63.3147L319.254 61.8791C315.208 58.1631 309.832 56.9946 307.374 59.297C305.744 60.8239 305.587 59.765 307.082 57.3211C310.115 52.3621 322.187 49.4217 326.481 52.5964ZM373.444 51.7107L366.948 52.0334L373.985 52.1338C377.855 52.1889 381.387 51.9984 381.834 51.7107C382.466 51.3032 382.346 51.2098 381.292 51.2875C380.548 51.3431 377.016 51.5331 373.444 51.7107ZM369.655 54.949C367.509 55.4936 374.135 55.5055 379.398 54.9668C382.98 54.6004 382.862 54.5782 377.233 54.5583C373.958 54.5464 370.548 54.7223 369.655 54.949ZM241.897 59.7504C242.636 63.1005 243.291 63.278 255.761 63.5031L267.08 63.7071V73.6305V83.5544L262.073 83.5603C256.6 83.5668 253.006 84.0002 253.006 84.6538C253.006 85.608 265.047 112.038 266.254 113.735L267.568 115.58L265.783 117.412C264.802 118.419 263.319 120.662 262.488 122.396L260.977 125.548L253.338 125.858C249.137 126.03 238.367 126.314 229.405 126.492C215.661 126.764 212.81 126.688 211.179 126.008C207.499 124.476 207.666 125.698 206.657 92.8867C205.794 64.8038 205.795 63.0368 206.669 61.7074C207.178 60.9324 208.214 60.0634 208.971 59.7763C210.296 59.2738 225.467 58.4378 236.319 58.2689L241.553 58.1874L241.897 59.7504ZM253.693 58.5614C254.22 58.6985 254.951 58.6893 255.317 58.5414C255.684 58.3935 255.253 58.2818 254.36 58.2926C253.466 58.3034 253.167 58.4243 253.693 58.5614ZM368.041 58.7109C367.813 59.0784 369.571 59.2668 373.231 59.2668C376.276 59.2668 378.665 59.1783 378.541 59.0704C377.924 58.5333 368.354 58.2057 368.041 58.7109ZM358.998 61.6934C360.96 63.339 361.941 65.6944 363.158 71.6804C364.224 76.9239 364.879 78.393 367.035 80.3894C371.535 84.555 374.366 84.4071 379.194 79.7542C382.103 76.9508 382.801 76.538 384.63 76.538C386.343 76.538 387.183 76.9546 389.194 78.8026C391.14 80.5918 392.047 81.0565 393.512 81.015L395.366 80.9626V88.1954V95.4283H375.465H355.563L353.882 92.5947L352.202 89.7612L351.919 76.1272L351.636 62.4938L353.005 61.4198C354.856 59.9684 357.062 60.0688 358.998 61.6934ZM205.272 62.5607C204.851 63.7665 204.87 70.8293 205.342 87.7928C206.212 119.101 206.495 123.091 207.984 125.1L209.149 126.672L207.397 126.084C205.019 125.287 204.39 124.725 203.141 122.284C202.146 120.34 202.028 118.351 201.47 94.182C201.14 79.8767 201.037 67.2833 201.242 66.1974C201.579 64.4093 204.369 60.886 205.447 60.886C205.673 60.886 205.594 61.6394 205.272 62.5607ZM317.919 62.5381L320.512 63.651L320.854 67.8004C321.042 70.0829 321.334 72.4415 321.504 73.0411C321.706 73.7562 321.24 74.9188 320.154 76.4144C318.834 78.2305 318.161 78.6968 316.858 78.6968C313.24 78.6968 310.084 76.3809 308.478 72.5472C307.306 69.7515 307.146 62.6304 308.24 61.9406C309.69 61.0263 315.184 61.3653 317.919 62.5381ZM306.746 67.6417C306.964 70.5227 307.439 72.388 308.384 74.0736C309.275 75.6631 309.536 76.6275 309.172 76.9902C308.808 77.3529 308.898 78.3207 309.444 79.9177L310.259 82.3033L307.832 84.6829C306.497 85.9918 305.026 87.7912 304.563 88.6817L303.72 90.3004L302.724 87.3772C300.882 81.9767 302.128 82.286 283.995 82.7297L268.162 83.1172V73.3509V63.5846H287.3H306.438L306.746 67.6417ZM218.499 65.2658C217.531 65.8838 216.74 66.5255 216.74 66.6923C216.74 66.8591 218.071 68.3865 219.697 70.0866L222.654 73.1782L225.082 69.0703C227.848 64.3909 227.754 64.1405 223.235 64.1416C221.145 64.1421 219.734 64.4773 218.499 65.2658ZM308.759 66.5531C308.759 67.2952 309.003 67.9024 309.301 67.9024C309.598 67.9024 309.842 67.2952 309.842 66.5531C309.842 65.811 309.598 65.2038 309.301 65.2038C309.003 65.2038 308.759 65.811 308.759 66.5531ZM315.796 66.2514C315.796 67.3254 316.502 68.0983 317.015 67.5866C317.439 67.1635 316.83 65.2038 316.274 65.2038C316.012 65.2038 315.796 65.6749 315.796 66.2514ZM236.226 68.4421C235.193 68.7719 235.578 68.8782 237.85 68.8901C239.488 68.8987 241.314 68.6974 241.91 68.4421C243.339 67.8295 238.144 67.8295 236.226 68.4421ZM311.807 69.1168C311.338 70.8622 311.384 71.1407 312.142 71.1407C312.533 71.1407 312.819 70.4569 312.819 69.5216C312.819 67.6125 312.27 67.3934 311.807 69.1168ZM225.602 72.7507L223.089 76.5196L219.404 73.2624L215.719 70.0051L214.741 71.4937C213.372 73.5765 213.442 77.6492 214.879 79.5685C218.469 84.3629 224.066 85.098 228.359 81.3388C230.594 79.3828 231.573 76.6853 231.211 73.4837C230.961 71.2649 229.62 68.9818 228.569 68.9818C228.32 68.9818 226.984 70.6776 225.602 72.7507ZM237.309 70.601C235.52 71.172 243.448 71.172 245.699 70.601C246.849 70.3095 246.058 70.186 242.992 70.1789C240.611 70.1735 238.053 70.3635 237.309 70.601ZM315.635 74.1259C315.101 74.8589 314.9 75.4585 315.191 75.4585C315.862 75.4585 317.42 73.9225 317.42 73.2613C317.42 72.3762 316.635 72.7567 315.635 74.1259ZM347.122 85.3695C353.707 91.6486 357.758 100.255 357.732 107.908C357.72 111.394 357.472 112.501 356.101 115.173C353.14 120.946 349.595 122.248 334.111 123.245L328.339 123.616L327.956 120.562C327.746 118.882 327.666 117.416 327.778 117.304C327.89 117.193 331.46 115.636 335.711 113.845C340.429 111.858 343.803 110.727 344.369 110.943C344.879 111.138 344.032 110.016 342.487 108.449C340.037 105.966 337.751 102.157 335.319 96.5077C334.799 95.2977 334.773 95.3538 335.067 97.0474C335.583 100.018 338.282 105.193 340.646 107.746L342.807 110.079L341.074 110.802C340.122 111.2 336.497 112.728 333.019 114.199L326.697 116.872L325.171 115.869C322.968 114.421 321.706 114.611 318.864 116.818L316.342 118.778L313.768 116.442C312.353 115.158 310.967 113.73 310.687 113.27C310.409 112.81 308.769 107.701 307.044 101.916L303.909 91.3976L305.658 88.4998C306.619 86.9055 308.115 85.0024 308.982 84.27L310.557 82.9385L311.256 84.5955C311.761 85.7942 312.316 86.253 313.259 86.253C314.339 86.253 314.521 86.4726 314.318 87.5332C313.97 89.3467 315.275 91.5563 318.432 94.5005C321.488 97.3513 322.292 97.6217 322.292 95.8012C322.292 93.9403 323.36 92.8122 326.909 90.9254C330.53 89.0007 332.576 86.4289 332.576 83.8021C332.576 82.0766 332.627 82.0415 335.958 81.4565C337.818 81.1299 339.419 80.6264 339.515 80.3371C339.779 79.5502 343.83 82.2299 347.122 85.3695ZM300.824 91.2454C306.517 109.952 307.54 113.528 307.311 113.914C307.179 114.136 303.806 114.319 299.816 114.319C293.674 114.319 292.122 114.143 289.699 113.171C285.315 111.412 277.555 111.163 273.187 112.641C267.894 114.43 267.352 114.291 265.543 110.675C261.815 103.225 253.963 85.119 254.31 84.773C254.643 84.4411 280.64 83.3352 293.661 83.0988L298.319 83.0146L300.824 91.2454ZM300.67 84.6905C301.191 85.6604 304.353 95.758 308.691 110.305L309.828 114.118L319.306 122.638C324.518 127.324 328.643 131.385 328.472 131.662C328.122 132.227 327.35 131.585 316.487 121.7C311.36 117.033 308.61 114.136 308.255 113.022C306.411 107.245 299.557 84.3812 299.557 84.0077C299.557 83.2192 300.039 83.515 300.67 84.6905ZM240.493 87.4674C240.457 87.8387 240.48 88.4961 240.542 88.9289C240.759 90.4315 236.605 102.932 235.783 103.246C234.766 103.635 229.731 102.004 229.731 101.284C229.731 100.189 227.295 101.096 227.129 102.254C226.889 103.933 225.161 105.312 223.825 104.889C223.213 104.695 221.607 103.434 220.254 102.086C218.213 100.05 217.66 99.7482 216.99 100.303C216.547 100.67 216.248 101.245 216.325 101.582C216.523 102.443 211.495 110.361 210.512 110.737C209.53 111.113 209.443 112.489 210.38 112.832C211.544 113.259 212.409 112.657 212.409 111.42C212.409 109.775 216.817 102.766 217.994 102.541C219.17 102.315 223.6 105.578 223.971 106.944C224.335 108.279 226.206 107.885 226.232 106.469C226.27 104.369 228.086 102.773 230.331 102.869C231.766 102.93 235.144 104.506 235.144 105.116C235.144 105.428 235.631 105.683 236.226 105.683C237.216 105.683 237.577 105.098 237.351 103.862C237.201 103.045 241.775 89.7779 242.331 89.4168C243.017 88.9705 247.425 92.1629 247.879 93.4356C248.301 94.6171 250.566 94.474 250.581 93.2651C250.586 92.8176 251.162 91.5293 251.86 90.4029C252.559 89.2765 253.008 88.2338 252.859 88.0853C252.71 87.9369 252.071 88.6504 251.438 89.6716C250.805 90.6922 249.828 91.6475 249.265 91.7938C248.039 92.1138 243.457 89.1081 243.082 87.7372C242.788 86.6648 240.591 86.4359 240.493 87.4674ZM224.047 88.4119C222.595 89.0336 227.562 89.0574 230.543 88.4426C232.494 88.0405 232.333 87.9941 228.919 87.972C226.835 87.959 224.643 88.1566 224.047 88.4119ZM276.365 89.3564C275.748 90.5303 276.434 92.4652 277.629 92.9223C279.809 93.7567 281.637 90.7294 279.963 89.0595C279.003 88.1026 276.934 88.2732 276.365 89.3564ZM279.53 90.5389C279.53 91.9924 278.505 92.4798 277.519 91.4958C276.532 90.5125 277.021 89.4913 278.479 89.4913C279.158 89.4913 279.53 89.8616 279.53 90.5389ZM226.618 90.4321C224.282 90.5427 222.694 90.8541 222.694 91.2017C222.694 91.5671 223.326 91.6594 224.386 91.4478C225.316 91.2621 227.63 91.1105 229.528 91.1105C231.467 91.1105 232.979 90.8741 232.979 90.5708C232.979 90.2739 232.43 90.0791 231.761 90.1385C231.091 90.1973 228.776 90.3295 226.618 90.4321ZM223.235 93.2278C223.235 93.6823 231.306 93.3995 231.851 92.9256C231.975 92.8182 230.087 92.7297 227.656 92.7297C225.225 92.7297 223.235 92.9536 223.235 93.2278ZM247.323 97.0474C247.114 97.3842 248.069 97.5629 249.862 97.5235C252.307 97.469 252.493 97.3977 251.112 97.0474C248.724 96.4419 247.698 96.4419 247.323 97.0474ZM234.602 108.921C234.602 109.218 235.76 109.444 237.174 109.423C239.108 109.395 239.477 109.271 238.662 108.921C237.149 108.273 234.602 108.273 234.602 108.921ZM222.694 111.08C222.694 111.707 225.063 111.707 227.024 111.08C228.089 110.74 227.772 110.637 225.536 110.595C223.966 110.565 222.694 110.782 222.694 111.08ZM313.432 119.851C316.385 122.597 320.591 126.482 322.778 128.486L326.753 132.129L321.952 132.154L317.149 132.178L319.72 134.477C322.271 136.757 322.949 138.066 321.579 138.066C321.187 138.066 316.768 134.182 311.758 129.435C306.747 124.688 300.948 119.648 298.87 118.235L295.092 115.668L297.73 115.348C299.182 115.172 302.1 114.99 304.216 114.943L308.063 114.858L313.432 119.851ZM209.162 115.944C209.162 116.282 210.039 116.356 211.462 116.139C214.615 115.658 214.694 115.398 211.688 115.398C210.298 115.398 209.162 115.644 209.162 115.944ZM324.79 116.578C325.649 117.227 326.39 117.773 326.438 117.792C326.486 117.811 326.696 118.737 326.904 119.85C327.257 121.734 327.196 121.868 326.005 121.801C325.302 121.761 324.301 121.909 323.78 122.129C322.695 122.588 322.519 121.863 323.482 120.903C323.95 120.437 323.959 120.256 323.514 120.256C323.174 120.256 322.746 120.498 322.562 120.795C322.098 121.544 320.668 121.474 320.668 120.703C320.668 120.355 321.094 119.585 321.615 118.992C322.406 118.092 322.278 118.119 320.842 119.157C319.183 120.356 317.42 120.369 317.42 119.181C317.42 118.644 322.092 115.398 322.866 115.398C323.065 115.398 323.931 115.929 324.79 116.578ZM231.896 117.026C230.556 117.238 234.575 117.29 240.827 117.14C247.079 116.991 252.296 116.78 252.42 116.673C252.833 116.316 234.373 116.633 231.896 117.026ZM320.13 121.2C320.137 122.01 323.233 123.375 323.985 122.9C325.194 122.136 327.022 122.349 327.386 123.294C327.679 124.054 328.508 124.139 333.477 123.919L339.231 123.664L336.851 124.873C335.542 125.537 333.351 127.065 331.983 128.268L329.497 130.455L324.27 125.845C321.396 123.311 319.044 121.137 319.044 121.016C319.044 120.895 319.287 120.795 319.585 120.795C319.883 120.795 320.128 120.978 320.13 121.2ZM352.567 123.744C358.066 126.579 360.78 138.172 358.24 147.974C356.2 155.848 349.478 165.658 342.514 170.924C338.852 173.694 331.507 177.61 328.7 178.29C327.27 178.636 327.256 178.61 326.891 174.949C326.322 169.24 325.921 168.046 324.509 167.842C322.821 167.597 320.535 168.616 318.86 170.359L317.468 171.809L318.312 175.499C318.777 177.534 318.949 179.393 318.694 179.643C318.44 179.892 316.04 180.387 313.36 180.741C307.539 181.512 297.701 181.136 291.979 179.923C287.635 179.003 281.146 177.03 280.475 176.426C280.174 176.155 284.673 155.204 285.204 154.401C285.25 154.33 287.098 154.608 289.311 155.017C293.582 155.808 303.346 156.666 303.346 156.251C303.346 156.115 302.025 155.359 300.408 154.571C296.71 152.766 292.388 148.151 289.574 143.002C285.414 135.392 281.855 132.577 276.326 132.527C269.836 132.468 266.425 136.499 263.864 147.251C262.792 151.748 261.126 164.138 261.126 167.603C261.126 168.563 260.342 170.933 259.385 172.868C257.954 175.764 257.403 176.398 256.273 176.447C252.444 176.613 250.334 175.77 249.174 173.609C248.685 172.697 248.757 171.779 249.512 169.291C250.039 167.554 250.638 166.132 250.842 166.132C251.046 166.132 252.629 166.618 254.36 167.211C259.469 168.964 259.288 169.125 259.694 162.489C260.537 148.705 263.554 136.812 267.218 132.822C269.025 130.855 273.165 129.784 277.649 130.122C284.246 130.619 287.463 133.042 291.658 140.673C295.791 148.189 300.063 152.379 305.842 154.579C308.074 155.429 308.366 155.428 310.67 154.551C316.418 152.362 322.925 145.311 327.332 136.496C330.293 130.573 332.603 128.125 337.681 125.529C342.526 123.051 349.582 122.206 352.567 123.744ZM380.751 125.377C380.751 128.496 378.193 133.945 374.87 137.903C373.176 139.923 371.257 142.439 370.607 143.494C369.138 145.879 367.747 151.072 367.8 153.967C367.834 155.757 368.005 155.374 368.761 151.829C369.893 146.514 371.382 143.51 374.933 139.373C378.329 135.416 380.725 130.44 381.133 126.495C381.304 124.844 381.288 123.494 381.098 123.494C380.907 123.494 380.751 124.341 380.751 125.377ZM340.264 126.759C337.992 127.668 335.246 130.111 333.876 132.442C333.131 133.708 331.469 137.512 330.182 140.896C328.895 144.279 327.236 148.002 326.496 149.168C324.533 152.263 320.476 155.777 317.074 157.33C313.386 159.014 313.595 159.535 317.383 158.1C323.486 155.788 327.585 150.868 330.738 142.07C331.793 139.126 333.413 135.302 334.337 133.573C335.96 130.538 339.163 127.272 340.516 127.272C340.877 127.272 341.323 127.029 341.507 126.732C341.896 126.106 341.896 126.106 340.264 126.759ZM362.929 167.191C364.99 170.297 366.677 173.135 366.677 173.498C366.677 173.861 366.44 174.781 366.15 175.542C365.442 177.398 363.681 177.355 357.937 175.344C355.45 174.473 352.719 173.612 351.868 173.43C350.336 173.101 350.324 173.069 350.689 170.155C351.134 166.606 350.61 166.429 348.295 169.344C347.208 170.712 346.31 171.365 345.79 171.167C344.707 170.752 344.789 170.616 348.605 166.483L351.914 162.9L356.724 168.664C359.371 171.834 361.832 174.808 362.195 175.272C362.557 175.737 362.862 175.865 362.871 175.557C362.881 175.25 360.574 172.145 357.746 168.659C354.918 165.173 352.604 162.141 352.604 161.923C352.604 161.704 353.253 160.572 354.047 159.408L355.49 157.291L357.334 159.417C358.349 160.587 360.866 164.085 362.929 167.191ZM326.991 186.093C327.939 195.44 328.588 203.211 328.436 203.364C327.426 204.37 323.714 193.707 320.375 180.217L318.318 171.904L320.078 170.336C321.387 169.17 322.276 168.811 323.553 168.935L325.269 169.101L326.991 186.093ZM251.404 176.667C252.256 177.107 253.915 177.466 255.091 177.466H257.231L254.903 182.618C253.623 185.452 252.423 187.778 252.236 187.786C250.958 187.845 250.849 187.206 251.626 184.23C252.821 179.657 252.021 179.289 248.702 182.888L246.007 185.811L240.551 184.883C234.712 183.889 232.979 183.253 232.979 182.101C232.979 180.938 234.244 180.205 237.218 179.642C240.801 178.964 243.614 177.499 245.913 175.112L247.752 173.204L248.803 174.536C249.381 175.269 250.552 176.228 251.404 176.667ZM388.042 180.013C386.874 183.064 384.144 185.066 378.679 186.881C369.625 189.887 360.269 190.691 355.04 188.912C352.818 188.155 352.16 187.623 351.365 185.933C350.833 184.801 350.247 183.12 350.062 182.199C349.762 180.702 349.836 180.57 350.759 180.965C355.94 183.18 369.441 183.318 376.15 181.224C380.38 179.904 385.2 177.612 387.248 175.947L388.6 174.849L388.778 176.236C388.877 176.999 388.546 178.698 388.042 180.013ZM275.012 187.942C274.583 190.804 274.27 191.502 273.197 191.99C271.225 192.886 268.627 192.693 266.674 191.505C265.032 190.506 264.915 190.238 264.915 187.459V184.483H270.223H275.531L275.012 187.942ZM268.694 193.386C269.554 193.574 271.173 193.476 272.291 193.168C273.411 192.86 274.379 192.662 274.442 192.728C274.527 192.818 273.266 202.96 273.067 203.778C273.049 203.852 272.669 203.913 272.222 203.913C271.661 203.913 271.41 203.35 271.41 202.091C271.41 199.266 270.788 196.834 270.12 197.052C269.788 197.161 268.847 198.633 268.031 200.324C267.133 202.181 266.062 203.576 265.324 203.85C264.652 204.099 261.768 204.47 258.913 204.674C254.749 204.971 253.597 204.893 253.085 204.277C252.103 203.098 252.814 202.062 255.495 200.763C258.718 199.202 263.101 195.069 263.915 192.822L264.565 191.031L265.848 192.037C266.553 192.591 267.834 193.198 268.694 193.386Z" fill="black"/>
<line x1="229.037" y1="182" x2="0.0371094" y2="182" stroke="#121A17"/>
<circle r="3.5" transform="matrix(-1 0 0 1 231.537 182)" fill="#121A17"/>
</svg>
