<svg width="433" height="392" viewBox="0 0 433 392" fill="none" xmlns="http://www.w3.org/2000/svg">
<path fill-rule="evenodd" clip-rule="evenodd" d="M295.74 2.26232C294.167 3.49371 292.233 4.26632 291.441 3.98101C288.803 3.03151 284.625 5.46461 275.988 12.9796C265.416 22.1802 263.22 26.744 264.342 37.1897C265.052 43.8077 264.844 44.7994 261.552 50.5409C257.188 58.1518 257.014 63.1698 260.855 70.7316C264.882 78.6609 264.708 85.0632 260.33 90.1759C258.468 92.3488 256.924 94.6814 256.898 95.3582C256.842 96.8178 266.529 101.441 270.474 101.838C272.734 102.065 273.441 101.395 274.398 98.1211L275.567 94.1268L276.218 98.1211C276.778 101.57 277.258 102.071 279.727 101.789C281.3 101.609 284.747 100.677 287.388 99.72C291.269 98.3117 292.691 98.2444 294.802 99.3719C296.239 100.139 300.383 100.739 304.012 100.705C307.64 100.671 310.609 101.102 310.609 101.665C310.609 102.226 309.65 102.686 308.476 102.686C305.779 102.686 300.315 106.907 300.315 108.991C300.315 109.856 298.088 112.093 295.367 113.961C280.41 124.23 269.665 142.12 263.758 166.595C261.864 174.441 260.032 182.757 259.687 185.076C259.271 187.874 258.324 189.523 256.87 189.984C254.119 190.855 252.808 194.726 254.554 196.825C255.584 198.063 255.309 199.18 253.309 201.88C251.162 204.777 250.95 205.801 252.016 208.133C253.252 210.842 252.716 211.286 233.363 223.554L213.438 236.185L189.38 231.976C166.121 227.908 164.991 227.815 155.327 229.198C149.83 229.985 144.175 230.912 142.759 231.26C140.386 231.844 140.187 231.505 140.196 226.918C140.201 224.183 140.528 219.266 140.922 215.993C141.63 210.108 141.697 210.024 146.917 208.341C149.82 207.405 156.571 205.562 161.918 204.244C183.002 199.049 211.331 190.147 211.957 188.52C213.111 185.52 201.497 98.1371 197.758 81.6805L195.967 73.7992L162.071 74.5193C98.4791 75.8694 17.1094 82.3778 13.0375 86.4406C11.7782 87.6971 16.677 136.345 21.2533 168.029C24.6847 191.786 28.601 212.088 32.4246 225.939L34.472 233.357L39.0036 232.993C41.4971 232.793 53.5731 230.349 65.8402 227.561C78.1072 224.773 89.3643 222.215 90.8558 221.877C93.2188 221.341 93.4842 221.599 92.9215 223.886C92.5657 225.328 91.9241 229.196 91.4952 232.48C91.0651 235.764 90.1364 239.143 89.4295 239.99C88.7226 240.835 79.5129 243.455 68.9627 245.81C51.8963 249.619 20.3554 258.389 19.0561 259.685C17.4765 261.26 20.6357 260.994 27.599 258.965C39.5618 255.479 85.5715 244.207 87.8579 244.202C89.322 244.2 89.8596 245.122 89.8596 247.639C89.8596 251.712 93.9005 254.659 103.268 257.419C109.076 259.129 109.597 259.083 122.14 255.717C129.234 253.812 139.671 250.809 145.333 249.041C155.196 245.961 155.627 245.687 155.627 242.51C155.627 239.444 155.083 239.019 148.478 236.911C144.547 235.656 141.33 234.279 141.33 233.852C141.33 233.424 146.541 232.264 152.91 231.272L164.492 229.47L186.867 233.435C199.174 235.615 209.451 237.608 209.706 237.862C210.694 238.847 203.324 241.762 201.226 241.215C199.836 240.853 197.384 241.924 194.661 244.083C190.59 247.312 189.71 247.526 180.872 247.453C169.654 247.36 165.381 249.122 162.59 254.99C161.532 257.214 160.169 259.035 159.559 259.035C157.664 259.035 154.14 265.938 154.783 268.392C155.778 272.186 164.633 275.451 173.927 275.451C183.576 275.451 188.975 273.053 190.747 267.984C192.043 264.275 191.816 264.303 202.852 266.535C205.451 267.06 207.221 266.77 208.571 265.597C209.652 264.659 214.115 263.555 218.535 263.133C230.676 261.973 252.881 257.245 264.35 253.378L274.592 249.924L294.432 253.834C305.344 255.984 314.511 257.982 314.803 258.275C315.095 258.566 313.447 260.241 311.139 261.997C308.355 264.115 305.36 265.271 302.239 265.43C299.049 265.592 296.911 266.439 295.596 268.058C294.53 269.372 292.676 270.447 291.475 270.447C290.275 270.447 286.497 271.273 283.081 272.283C274.685 274.763 268.274 281.301 268.326 287.328C268.367 292.139 269.848 294.439 274.121 296.321C276.706 297.46 278.719 296.958 289.562 292.47C296.419 289.632 312.582 284.581 325.478 281.245C338.374 277.909 353.397 273.646 358.862 271.77C368.558 268.441 368.973 268.396 376.019 269.945C379.99 270.818 392.999 273.605 404.929 276.139C416.858 278.674 427.02 281.148 427.509 281.637C428 282.126 420.298 286.292 410.395 290.894C381.121 304.499 323.935 334.268 303.363 346.612C297.672 350.027 295.987 350.52 291.926 349.966C289.305 349.607 223.853 333.631 146.477 314.463C69.0999 295.295 4.63418 279.337 3.21818 279.002C-0.384732 278.148 -0.155976 281.038 4.0417 289.42C8.29656 297.915 12.9803 302.461 19.867 304.78L25.236 306.589L26.6588 331.411C27.4412 345.064 28.5918 357.859 29.2163 359.846C30.3704 363.515 30.1325 350.688 28.4923 320.946C27.9078 310.34 28.0645 308.108 29.3936 308.108C30.2777 308.108 40.7708 310.9 52.7107 314.315C91.9229 325.526 290.534 381.433 293.167 381.999C295.723 382.55 295.741 382.46 295.83 368.441C295.935 352.164 297.423 353.613 298.624 371.161C299.129 378.551 299.841 382.288 300.741 382.288C301.486 382.288 317.781 372.986 336.949 361.618C390.231 330.018 416.129 314.955 417.174 314.955C417.697 314.955 418.125 332.447 418.125 353.824C418.125 379.446 418.515 392.452 419.268 391.988C419.995 391.539 420.412 376.941 420.412 351.949V312.617L425.582 309.506C431.69 305.831 432.978 302.469 432.987 290.173C432.995 280.457 433.584 280.963 417.988 277.253L406.988 274.635L405.701 262.025L404.414 249.415L408.354 245.381C410.521 243.161 413.123 239.36 414.136 236.932C415.151 234.505 417.492 231.25 419.339 229.698C423.012 226.616 423.632 223.566 421.026 221.409C419.562 220.196 419.578 219.68 421.158 217.275C422.805 214.767 422.801 214.28 421.116 211.713C420.004 210.021 419.268 206.498 419.267 202.869C419.266 191.017 416.897 171.541 414.074 160.158C405.635 126.135 391.547 109.083 368.37 104.837C364.596 104.147 360.383 103.379 359.011 103.131C357.637 102.883 356.172 101.608 355.754 100.296C354.695 96.9662 347.907 94.2455 344.799 95.9048C342.039 97.3782 342.203 97.5071 340.517 92.5302C338.757 87.3285 338.843 86.7088 341.337 86.7088C342.51 86.7088 344.797 85.668 346.418 84.3955C348.038 83.1242 351.259 81.2937 353.575 80.3282C357.612 78.6449 357.76 78.3858 357.178 74.0526C356.844 71.567 355.187 66.8925 353.495 63.6651C350.616 58.1712 350.5 57.3883 351.676 51.4231C353.089 44.2562 352.448 41.0379 347.925 32.6156C346.273 29.5412 344.923 25.7922 344.923 24.2846C344.923 19.3328 341.589 14.7257 336.321 12.401C333.567 11.1856 330.182 8.60413 328.798 6.66633C325.176 1.59127 320.279 -0.0292732 308.644 0.00039884C300.428 0.020941 298.079 0.432926 295.74 2.26232ZM286.624 12.4649C285.969 13.686 284.94 14.9882 284.339 15.3591C281.8 16.926 280.946 24.0838 282.76 28.6065C284.697 33.4373 288.754 35.334 297.17 35.3466C304.275 35.358 306.034 38.1449 306.034 49.3974C306.034 57.8186 306.365 59.3147 308.992 62.8069C313.376 68.6317 313.883 70.6722 312.743 77.9213C312.174 81.5436 312.134 86.1576 312.654 88.1753C313.87 92.8874 317.131 93.3645 325.855 90.1074L332.341 87.6857L332.458 81.7764C332.573 75.9071 332.582 75.8945 333.687 79.8614C334.3 82.0583 335.496 85.3964 336.344 87.2794C337.193 89.1625 338.475 92.6112 339.192 94.9428C339.911 97.2743 341.834 100.152 343.468 101.339L346.437 103.497L342.752 111.366C340.725 115.694 335.962 124.541 332.166 131.025C328.37 137.511 324.109 146.234 322.697 150.411C320.191 157.823 320.093 157.938 318.604 155.168C315.736 149.83 310.487 130.654 309.821 123.08C309.341 117.611 309.675 113.996 311.027 110.038C312.055 107.026 312.897 103.424 312.897 102.034C312.897 100.644 313.669 99.211 314.612 98.8492C318.079 97.522 316.368 95.987 312.619 97.0598C307.217 98.605 298.524 98.3585 294.154 96.5371C285.333 92.8589 277.419 81.1442 274.512 67.4574C272.37 57.3792 272.436 56.3977 275.438 53.5013L278.011 51.0191L275.438 51.6388C273.021 52.2208 272.864 51.899 272.864 46.3732C272.864 40.9968 273.217 40.2094 276.937 37.2467C280.897 34.0935 280.99 33.8424 280.28 28.1169C279.471 21.5936 280.809 16.8278 284.578 12.8141C287.539 9.66092 288.188 9.55022 286.624 12.4649ZM174.594 30.8513C169.612 41.5503 167.396 47.1104 164.648 55.8043C162.332 63.1333 164.146 60.5472 166.771 52.7766C167.995 49.1566 171.507 40.5757 174.577 33.7078C177.648 26.8387 179.994 21.0538 179.79 20.8518C179.588 20.6498 177.249 25.1497 174.594 30.8513ZM129.982 33.7363C130.037 35.0658 130.308 35.3363 130.673 34.4268C131.004 33.6028 130.962 32.6179 130.583 32.239C130.203 31.8601 129.933 32.5335 129.982 33.7363ZM131.126 38.3012C131.181 39.6308 131.452 39.9012 131.817 38.9917C132.147 38.1677 132.106 37.1828 131.727 36.8039C131.347 36.4251 131.077 37.0984 131.126 38.3012ZM213.96 46.0776C207.669 51.3409 200.978 57.3701 199.091 59.4768C194.998 64.044 196.28 63.0306 212.244 49.0904C225.416 37.588 226.607 36.4924 225.928 36.5015C225.637 36.5049 220.251 40.8142 213.96 46.0776ZM132.272 41.7957C132.114 44.0142 136.898 58.6813 138.174 59.8899C139.009 60.6819 139.106 60.3316 138.49 58.7487C138.001 57.4933 136.423 52.8713 134.983 48.4776C133.544 44.0839 132.324 41.0767 132.272 41.7957ZM291.175 45.9555C289.608 46.7463 288.165 48.408 287.968 49.6474C287.735 51.1195 287.941 51.4254 288.562 50.5318C290.158 48.2345 294.953 46.9814 298.028 48.0588L300.887 49.0608L298.187 46.7714C295.025 44.0918 294.896 44.077 291.175 45.9555ZM334.562 48.3988C336.366 50.566 336.444 55.9355 334.719 59.1504C333.707 61.038 332.5 61.6428 330.263 61.3849C327.525 61.0688 327.155 60.497 326.837 56.0645C326.319 48.8645 331.047 44.1729 334.562 48.3988ZM106.718 61.3164C110.086 64.6123 113.719 67.3056 114.791 67.3033C115.974 67.301 115.169 66.363 112.735 64.9102C110.533 63.5955 106.901 60.901 104.662 58.9221C102.424 56.9444 103.349 58.0206 106.718 61.3164ZM294.596 61.6017C294.596 62.8571 295.111 63.8842 295.74 63.8842C296.369 63.8842 296.884 62.8571 296.884 61.6017C296.884 60.3464 296.369 59.3193 295.74 59.3193C295.111 59.3193 294.596 60.3464 294.596 61.6017ZM278.3 63.0351C277.62 64.8805 278.485 67.3079 279.822 67.3079C281.173 67.3079 281.193 63.0762 279.847 62.2465C279.283 61.8985 278.588 62.2534 278.3 63.0351ZM286.101 66.452C284.181 75.7313 285.347 79.8785 289.434 78.3128C291.777 77.4169 291.635 75.5111 289.241 75.7085C287.631 75.8409 287.365 74.8948 287.611 69.8757C287.91 63.7575 287.059 61.8288 286.101 66.452ZM196.126 82.4292C197.457 89.8301 209.482 176.678 210.15 183.713L210.528 187.708L201.012 190.892C172.629 200.387 41.2603 231.847 36.9265 230.188C35.2143 229.533 28.7199 196.977 23.558 163.171C18.9921 133.271 14.0544 88.8395 15.1787 87.7701C17.3919 85.6657 84.0629 79.8637 132.179 77.5892C167.757 75.9082 171.282 75.7667 183.813 75.5168L194.843 75.2965L196.126 82.4292ZM303.206 80.141C301.979 80.8258 298.897 82.0355 296.357 82.8298C290.941 84.5222 294.481 84.9547 300.247 83.3045C302.403 82.6882 304.336 82.3504 304.541 82.5559C304.747 82.7613 303.639 84.8075 302.078 87.1014C299.154 91.4004 299.702 92.819 302.917 89.2743C307.428 84.3008 307.638 77.6657 303.206 80.141ZM224.254 84.5587C219.221 86.444 214.589 88.5062 213.96 89.1419C212.853 90.2615 223.525 86.5319 231.688 82.9473C238.509 79.9516 233.876 80.9559 224.254 84.5587ZM157.915 83.3559C149.736 83.8375 130.483 84.7995 115.128 85.4922C76.435 87.2372 31.3598 91.0215 24.3781 93.1111C23.1177 93.4877 22.3776 94.8435 22.3788 96.771C22.3845 105.204 38.6536 210.16 41.3839 219.377C41.7087 220.475 42.9714 221.374 44.1895 221.374C48.9053 221.374 151.625 197.941 179.431 190.521C198.504 185.432 201.951 183.983 201.944 181.051C201.927 172.848 192.402 101.388 189.787 89.8472L188.042 82.1439L180.413 82.3116C176.216 82.4029 166.093 82.8731 157.915 83.3559ZM187.063 86.0914C187.652 87.6343 190.725 108.049 193.894 131.455C197.064 154.862 199.919 175.921 200.239 178.254L200.821 182.495L191.377 185.357C178.687 189.205 149.036 196.26 92.9832 208.771C67.3374 214.496 45.6502 219.449 44.7912 219.777C42.6649 220.592 41.4845 214.048 29.8374 136.886C26.3935 114.071 23.8108 95.1676 24.099 94.88C25.841 93.1431 86.4785 88.6592 142.473 86.1268C176.647 84.5816 184.013 84.1193 185.68 83.4175C185.852 83.3445 186.475 84.5485 187.063 86.0914ZM147.419 92.8532C126.41 99.6869 117.012 121.767 127.177 140.412C130.113 145.798 138.851 153.932 141.787 154.013C142.353 154.029 140.734 152.536 138.188 150.695C118.172 136.228 120.197 106.954 141.95 96.3362C162.132 86.484 185.062 100.674 185.158 123.075C185.215 136.412 178.123 147.532 166.078 152.989C163.476 154.168 162.009 155.144 162.821 155.158C165.624 155.205 172.797 150.797 177.017 146.435C191.997 130.946 188.591 105.515 170.199 95.5271C163.32 91.7918 154.034 90.702 147.419 92.8532ZM43.0972 98.977C43.0057 100.74 42.2474 101.545 40.677 101.545C37.9617 101.545 37.821 103.34 39.7311 113.682C40.892 119.969 41.4067 120.946 43.5593 120.946C44.989 120.946 46.6006 122.037 47.351 123.513L48.656 126.081L48.3838 123.257C48.2065 121.419 48.7578 120.303 49.9588 120.064C51.3896 119.779 51.9787 120.996 52.5735 125.471C53.596 133.165 54.2628 134.64 56.7174 134.64C57.8554 134.64 59.0461 135.283 59.3641 136.067C59.7084 136.92 59.9771 136.689 60.0309 135.496C60.1624 132.585 63.4176 133.05 64.0341 136.067C64.3224 137.48 65.4296 143.77 66.4944 150.047C68.8414 163.879 69.0702 164.528 71.4172 164.031C72.4386 163.815 73.9507 164.688 74.7765 165.972C76.2634 168.284 76.2726 168.283 75.7602 165.813C75.4594 164.363 75.8929 163.07 76.7953 162.724C78.7695 161.968 79.1172 162.607 80.1386 168.877C81.208 175.445 82.7533 178.345 84.7697 177.572C85.6493 177.236 86.88 177.838 87.5068 178.911C88.5762 180.739 88.6483 180.74 88.6815 178.92C88.6998 177.853 89.5713 176.502 90.6167 175.918C92.297 174.98 92.3633 174.088 91.1886 168.253C89.5073 159.897 89.5141 159.748 91.5752 159.748C92.6424 159.748 93.2909 160.825 93.2909 162.601C93.2909 164.17 93.7164 165.454 94.2368 165.454C94.7572 165.454 94.9665 163.985 94.7023 162.191C94.3111 159.531 94.7172 158.796 96.9018 158.213C100.864 157.154 101.289 157.272 101.377 159.462C101.452 161.296 101.525 161.289 102.28 159.378C103.624 155.977 105.138 157.034 106.409 162.258C107.308 165.954 108.095 167.082 109.597 166.83C110.75 166.636 111.591 167.21 111.591 168.189C111.591 169.122 112.161 170.235 112.858 170.665C113.702 171.185 113.877 170.669 113.383 169.116C112.975 167.835 113.139 166.481 113.747 166.105C114.357 165.73 115.501 168.317 116.3 171.88C117.289 176.289 118.385 178.501 119.761 178.861C120.869 179.15 122.273 180.745 122.883 182.406C123.98 185.392 123.993 185.382 124.083 181.526C124.199 176.48 125.567 177.902 127.094 184.657C127.841 187.961 128.857 189.869 129.766 189.672C130.572 189.497 131.506 190.396 131.84 191.669C132.712 195 134.254 194.53 133.603 191.131C133.255 189.315 133.577 188.278 134.491 188.278C135.558 188.278 135.742 186.595 135.213 181.716C134.532 175.453 134.58 175.284 136.271 178.007C137.952 180.715 138.015 180.73 137.506 178.294C136.474 173.359 138.789 174.658 140.07 179.733C140.876 182.924 142.003 184.855 143.061 184.855C143.996 184.855 144.794 185.497 144.833 186.281C144.873 187.066 145.372 186.553 145.94 185.14C147.079 182.312 149.278 181.829 151.395 183.942C152.462 185.006 152.788 184.817 152.858 183.086C152.926 181.402 153.228 181.625 154.097 183.999C154.895 186.177 156.048 187.137 157.87 187.137C163.752 187.137 164.982 179.393 159.336 177.895C157.498 177.408 156.454 177.495 156.83 178.104C157.186 178.678 156.916 179.148 156.231 179.148C154.928 179.148 154.554 178.353 153.413 173.157C153.034 171.431 152.005 170.019 151.125 170.019C150.247 170.019 149.268 169.377 148.95 168.592C148.605 167.74 148.336 167.97 148.283 169.163C148.141 172.3 145.905 171.495 145.905 168.307C145.905 166.738 144.857 164.408 143.576 163.13C141.483 161.042 141.071 160.984 139.492 162.56C137.213 164.833 135.993 164.772 134.559 162.315C133.518 160.532 133.39 160.593 133.358 162.886C133.339 164.299 132.742 165.454 132.033 165.454C131.163 165.454 130.989 166.982 131.497 170.154C132.127 174.089 131.966 174.746 130.499 174.184C129.536 173.815 128.748 174.012 128.748 174.619C128.748 175.227 128.27 175.725 127.686 175.725C127.101 175.725 126.022 172.84 125.288 169.312C124.317 164.645 123.362 162.746 121.776 162.332C120.578 162.02 119.598 161.31 119.598 160.755C119.598 160.202 119.099 159.748 118.49 159.748C117.881 159.748 117.679 160.518 118.04 161.459C118.403 162.401 118.172 163.171 117.528 163.171C116.884 163.171 115.628 160.989 114.737 158.321C113.846 155.653 112.433 153.471 111.599 153.471C110.764 153.471 109.412 151.417 108.595 148.906L107.108 144.341L107.735 149.191C108.517 155.245 106.487 155.682 105.09 149.762C104.356 146.651 103.408 145.385 101.615 145.127C100.26 144.931 98.9206 143.904 98.6404 142.845C98.2801 141.479 98.0925 141.666 97.9987 143.485C97.9232 144.948 97.1283 146.053 96.1503 146.053C95.2067 146.053 94.4347 146.823 94.4347 147.765C94.4347 149.833 91.4288 150.056 90.6167 148.05C90.253 147.15 90.0071 147.314 89.9499 148.498C89.9007 149.53 89.0841 150.67 88.1347 151.034C86.9887 151.473 86.5094 152.948 86.705 155.436C86.9761 158.873 86.7073 159.205 83.3915 159.526C79.3962 159.913 79.4626 160.076 76.125 141.518C74.5844 132.947 73.285 130.076 70.9471 130.076C70.0253 130.076 69.2715 129.305 69.2715 128.364C69.2715 127.422 68.8048 126.652 68.2352 126.652C67.6645 126.652 67.4803 127.73 67.8269 129.05C68.3222 130.942 67.9985 131.361 66.2897 131.035C64.9709 130.784 64.0044 129.513 63.8157 127.782C62.9441 119.753 62.219 117.522 60.4816 117.522C59.4785 117.522 57.9161 116.624 57.009 115.525C55.4466 113.634 55.394 113.637 56.0208 115.608C56.5092 117.145 56.1649 117.588 54.6963 117.306C53.2723 117.032 52.4808 115.322 51.8975 111.248C50.4941 101.461 50.0194 100.404 47.0296 100.404C45.3688 100.404 44.0683 99.6104 43.7526 98.4064C43.3592 96.9034 43.1967 97.0449 43.0972 98.977ZM351.661 98.8469C354 100.481 354.233 101.299 353.533 105.409C353.093 107.992 352.809 112.842 352.902 116.187C353.062 121.947 352.787 122.573 347.745 127.951C343.727 132.237 342.576 134.247 343.051 136.142C343.877 139.421 343.29 140.123 335.486 145.212C331.803 147.613 328.91 150.342 328.91 151.413C328.91 152.956 329.519 152.759 332.055 150.391C333.784 148.776 336.868 146.615 338.907 145.588C343.56 143.247 346.495 138.927 345.519 135.857C344.955 134.086 345.946 132.464 349.713 128.994C354.374 124.7 354.653 124.086 354.8 117.847C355.119 104.336 355.045 104.426 364.485 106.12C395.501 111.685 414.3 143.01 416.641 193.027L417.317 207.476L414.575 207.945L411.834 208.413L414.74 209.639C416.339 210.313 418.34 211.699 419.187 212.718C420.491 214.285 420.44 214.887 418.854 216.634C416.529 219.198 416.489 220.688 418.696 222.515C421.05 224.464 420.847 226.767 418.195 228.184C416.5 229.089 413.61 228.576 405.9 226.006C400.357 224.159 391.406 222.013 386.011 221.239C377.309 219.992 375.563 220.056 370.57 221.807C360.46 225.35 360.936 225.333 360.936 222.145C360.936 220.54 361.48 218.891 362.147 218.48C362.812 218.069 363.052 216.347 362.679 214.653C361.756 210.458 365.518 207.096 373.546 204.944C378.729 203.554 379.18 203.251 376.165 203.19C374.161 203.149 371.22 203.608 369.629 204.212C366.097 205.552 366.14 205.615 362.58 193.749C357.652 177.319 356.97 162.514 360.346 145.247C360.777 143.048 360.391 143.476 359.107 146.623C357.985 149.371 357.011 156.021 356.66 163.336C356.047 176.088 357.575 186.059 362.196 199.458L364.384 205.803L361.948 208.389C360.17 210.278 359.713 211.777 360.257 213.938C360.723 215.792 360.368 217.802 359.308 219.313C358.054 221.099 357.921 222.301 358.796 223.93C359.445 225.142 359.807 226.271 359.598 226.437C359.39 226.603 356.127 228.362 352.348 230.345C346.012 233.67 336.84 240.465 323.914 251.405L318.771 255.759L306.087 253.237C295.658 251.165 293.498 250.391 293.936 248.883C295.709 242.786 296.649 233.69 295.798 230.876C295.262 229.102 292.277 222.258 289.164 215.668C276.073 187.951 275.646 180.711 285.368 151.38C291.445 133.047 292.845 125.407 287.342 140.605C274.113 177.139 273.561 187.665 283.72 209.604C285.928 214.371 287.734 218.444 287.734 218.657C287.734 218.868 285.289 217.492 282.301 215.597C275.486 211.276 266.182 208.518 260.088 209.012C253.674 209.531 251.75 206.747 255.655 202.6C258.102 200.002 258.229 199.404 256.874 196.881C255.113 193.595 256.784 190.561 260.355 190.561C261.5 190.561 262.753 190.047 263.142 189.42C263.531 188.792 263.259 188.278 262.537 188.278C260.888 188.278 261.73 182.571 265.652 167.166C271.54 144.034 282.773 125.264 296.613 115.432L300.313 112.803L301.486 115.883C302.42 118.332 302.186 119.943 300.344 123.739C297.388 129.831 297.415 133.555 300.441 137.393C302.507 140.013 302.693 141.083 301.743 144.824C300.382 150.17 302.063 154.837 306.646 158.434C311.45 162.205 311.459 160.392 306.663 155.096C303.489 151.591 302.581 149.756 303.116 147.934C305.175 140.918 305.093 138.601 302.708 136.447C299.691 133.723 299.651 129.136 302.594 123.502C304.508 119.836 304.663 118.588 303.562 115.679C301.731 110.838 303.104 106.314 306.677 105.419C308.269 105.021 309.806 104.929 310.092 105.214C310.379 105.499 309.846 108.258 308.908 111.342C307.971 114.427 307.197 118.555 307.19 120.514C307.173 125.442 312.08 144.276 315.668 153.05C318.222 159.297 318.699 162.403 319.062 175.154C319.501 190.594 323.207 208.537 328.724 221.945C331.929 229.731 331.757 227.207 328.358 216.592C321.292 194.517 319.009 170.908 322.606 157.126C324.543 149.707 328.696 141.102 337.823 125.589C341.306 119.67 345.125 112.283 346.309 109.173C348.445 103.561 348.444 103.5 346.11 101.021C342.293 96.9662 346.572 95.2909 351.661 98.8469ZM145.905 99.8752C133.197 105.557 126.168 120.595 130.348 133.153C136.457 151.504 160.427 156.576 173.082 142.195C178.225 136.351 180.246 130.896 180.056 123.374L179.893 116.951L179.108 124.369C178.298 132.027 175.214 139.46 171.434 142.871C170.243 143.945 166.767 145.928 163.71 147.277C147.649 154.367 130.575 142.865 130.627 124.993C130.695 101.638 157.446 90.7396 173.588 107.491L177.206 111.245L174.323 107.311C172.737 105.147 169.453 102.348 167.025 101.091C161.274 98.1131 151.148 97.53 145.905 99.8752ZM49.0277 104.219C49.3526 105.062 49.9816 108.657 50.4266 112.207L51.2341 118.663H47.6712C45.7119 118.663 43.7229 118.688 43.2516 118.72C42.4853 118.772 39.7094 107.715 39.5835 104.113C39.5138 102.117 48.258 102.216 49.0277 104.219ZM147.842 107.536C146.328 109.576 144.115 112.955 142.923 115.044L140.758 118.845L143.458 121.036C144.943 122.242 146.521 123.228 146.965 123.228C147.408 123.228 148.928 121.174 150.343 118.663C151.756 116.153 153.108 114.098 153.347 114.098C153.585 114.098 155.685 115.219 158.012 116.59L162.244 119.081L164.407 116.417C165.595 114.952 166.388 113.189 166.167 112.499C165.678 110.978 154.013 103.827 152.018 103.827C151.236 103.827 149.357 105.497 147.842 107.536ZM159.344 108.426C165.852 112.15 166.126 112.602 163.794 115.784C162.287 117.84 162.114 117.829 158.226 115.431C156.019 114.071 153.895 112.957 153.506 112.957C153.117 112.957 151.456 114.984 149.812 117.462C147.194 121.409 146.556 121.799 144.649 120.611C143.453 119.865 142.473 118.876 142.473 118.411C142.473 116.553 150.642 104.97 151.945 104.979C152.711 104.986 156.042 106.537 159.344 108.426ZM167.743 118.315C166.489 121.061 166.621 121.603 168.969 123.37C171.866 125.551 173.877 124.698 175.131 120.759C175.604 119.27 175.13 117.951 173.746 116.903C170.652 114.565 169.312 114.88 167.743 118.315ZM173.235 117.948C174.72 119.734 173.767 123.237 171.803 123.211C168.682 123.169 167.366 121.301 168.703 118.808C170.215 115.988 171.416 115.76 173.235 117.948ZM61.265 120.215C61.265 121.07 61.583 124.084 61.9719 126.914C62.6673 131.977 62.6216 132.068 59.1582 132.575C56.0391 133.031 55.5679 132.724 55.02 129.871C54.6803 128.1 54.113 125.151 53.7596 123.317C53.214 120.493 53.5216 119.905 55.7612 119.478C60.5845 118.559 61.265 118.651 61.265 120.215ZM152.172 121.713C150.255 124.632 150.276 124.778 152.913 126.801C156.448 129.514 156.725 129.475 159.047 125.937C160.672 123.463 160.745 122.76 159.464 121.905C154.646 118.685 154.167 118.672 152.172 121.713ZM157.179 121.961C158.152 122.578 158.444 123.847 157.96 125.368C157.059 128.199 156.399 128.303 153.456 126.08C151.66 124.724 151.536 124.138 152.738 122.693C154.4 120.696 155.016 120.594 157.179 121.961ZM136.486 126.215C135.275 128.867 135.434 129.455 137.904 131.452C140.686 133.698 140.69 133.698 142.725 131.191C145.357 127.948 145.303 125.88 142.549 124.409C139.168 122.604 137.972 122.961 136.486 126.215ZM142.432 126.032C143.523 127.343 143.472 128.185 142.193 130.007C140.804 131.986 140.275 132.105 138.522 130.825C137.097 129.785 136.715 128.577 137.264 126.85C138.174 123.988 140.435 123.631 142.432 126.032ZM160.774 129.505C157.908 134.133 157.71 134.182 153.911 131.217C152.339 129.989 150.438 128.973 149.687 128.959C148.182 128.932 144.761 133.293 144.761 135.238C144.761 135.916 148.141 138.241 152.272 140.406L159.783 144.341L162.999 140.557C164.768 138.474 167.161 135.017 168.317 132.875C170.376 129.061 170.373 128.941 168.171 127.281C164.791 124.731 163.489 125.123 160.774 129.505ZM167.467 128.161C168.417 129.302 167.733 131.248 164.661 136.149C162.426 139.713 160.214 142.629 159.746 142.629C158.224 142.629 145.905 135.636 145.905 134.773C145.905 134.312 146.608 132.975 147.467 131.803C148.985 129.732 149.153 129.742 153.252 132.155C155.573 133.522 157.841 134.64 158.292 134.64C158.741 134.64 160.08 132.843 161.266 130.646C163.545 126.424 165.403 125.678 167.467 128.161ZM73.2118 134.926C73.5149 136.339 74.5878 141.859 75.5955 147.194C76.6043 152.529 77.6726 157.748 77.97 158.791C78.6494 161.171 71.7787 163.089 70.421 160.899C69.0965 158.759 65.5668 135.855 66.2782 134.007C67.3339 131.26 72.5725 131.954 73.2118 134.926ZM103.614 148.98C105.401 153.673 104.949 154.953 101.215 155.772C97.0414 156.686 97.2221 156.84 96.267 151.564C95.6436 148.122 95.8724 147.281 97.5458 146.846C101.618 145.789 102.518 146.105 103.614 148.98ZM95.5785 154.478C95.5785 158.298 90.1032 159.437 88.7604 155.897C87.5182 152.621 88.2377 151.759 92.2146 151.759C94.9963 151.759 95.5785 152.229 95.5785 154.478ZM113.407 159.302C113.959 162.24 113.728 163.708 112.6 164.42C109.696 166.255 108.421 165.486 107.66 161.44C106.777 156.743 107.475 155.183 110.464 155.183C112.048 155.183 112.84 156.291 113.407 159.302ZM150.194 156.008C152.238 156.261 155.585 156.261 157.629 156.008C159.672 155.756 158 155.548 153.911 155.548C149.822 155.548 148.15 155.756 150.194 156.008ZM89.5416 167.451C90.2061 171.059 90.6408 174.136 90.5069 174.287C90.3743 174.436 88.6769 174.877 86.737 175.264C83.2405 175.961 83.1982 175.911 81.8817 169.586C80.3399 162.177 80.826 160.889 85.1609 160.889C88.1199 160.889 88.4138 161.329 89.5416 167.451ZM124.015 169.639C124.731 173.195 125.157 176.266 124.96 176.461C124.764 176.657 123.401 176.956 121.931 177.126C119.568 177.4 119.095 176.73 117.856 171.355C116.521 165.569 116.571 165.227 118.883 164.295C120.22 163.757 121.628 163.283 122.014 163.243C122.399 163.204 123.299 166.081 124.015 169.639ZM144.183 166.88C147.148 179.36 146.914 183.64 143.342 182.273C142.03 181.77 139.042 170.193 139.042 165.608C139.042 163.121 143.557 164.238 144.183 166.88ZM137.898 167.643C137.898 168.847 138.211 170.644 138.593 171.637C139.111 172.986 138.566 173.442 136.439 173.442C134.239 173.442 133.452 172.727 132.989 170.307C132.396 167.211 133.624 165.506 136.469 165.471C137.256 165.462 137.898 166.439 137.898 167.643ZM152.543 176.431C152.811 179.18 152.377 180.125 150.64 180.578C149.028 181 148.204 180.475 147.735 178.731C146.407 173.793 146.914 172.123 149.622 172.507C151.568 172.783 152.28 173.74 152.543 176.431ZM133.75 182.209C134.378 186.374 134.166 187.079 132.095 187.735C129.084 188.688 129.114 188.728 128.169 182.393C127.482 177.786 127.658 177.013 129.492 176.598C132.368 175.946 132.915 176.667 133.75 182.209ZM161.918 182.506C161.918 185.131 156.607 186.422 155.684 184.022C154.751 181.594 154.832 181.441 157.629 180.387C160.768 179.203 161.918 179.772 161.918 182.506ZM138.398 219.947C137.481 232.55 138.471 235.28 144.706 237.333C147.316 238.192 149.663 239.238 149.923 239.657C150.518 240.617 113.203 251.059 109.2 251.052C107.57 251.048 103.71 250.281 100.621 249.347C94.0206 247.348 93.2737 247.266 95.5785 248.794C96.5221 249.42 99.5256 250.511 102.252 251.219C106.844 252.412 109.374 254.781 107.767 256.384C106.898 257.25 93.7072 252.352 92.2832 250.635C91.5958 249.805 92.0613 244.126 93.5654 234.974L95.9273 220.614L117.198 215.354C128.898 212.46 138.618 210.063 138.797 210.027C138.977 209.991 138.797 214.456 138.398 219.947ZM276.296 214.612C286.475 219.415 290.336 222.589 292.905 228.274L295.094 233.117L290.082 237.423C287.326 239.792 280.91 243.814 275.822 246.361C261.466 253.55 228.359 261.301 211.958 261.312C205.508 261.317 203.15 259.883 207.669 258.704C211.851 257.613 210.24 249.905 205.831 249.905C203 249.905 202.174 248.324 204.315 247.004C204.988 246.589 205.261 245.532 204.923 244.653C204.506 243.569 206.598 241.905 211.422 239.483C215.333 237.518 226.77 230.665 236.835 224.252C246.901 217.84 255.908 212.298 256.852 211.938C261.458 210.18 269.14 211.236 276.296 214.612ZM388.142 223.696C392.096 224.337 399.43 226.152 404.44 227.732C415.03 231.07 415.393 231.9 409.904 240.168C400.303 254.632 375.223 266.329 327.02 278.826L307.403 283.912L306.85 279.177C305.684 269.202 306.227 267.461 311.753 263.479C314.584 261.437 321.737 255.692 327.648 250.71C339.476 240.743 349.59 233.902 360.936 228.199C372.965 222.151 375.75 221.69 388.142 223.696ZM122.457 237.298C110.879 239.364 97.3445 242.918 98.1177 243.688C98.8176 244.388 132.668 237.183 133.838 236.087C134.435 235.528 134.692 235.111 134.41 235.162C134.127 235.214 128.748 236.175 122.457 237.298ZM292.557 245.512C291.576 249.191 291.349 249.322 286.495 248.996C280.821 248.616 278.356 247.069 281.725 246.002C282.95 245.614 285.962 243.796 288.416 241.961C293.363 238.263 294.281 239.051 292.557 245.512ZM155.055 242.433C155.055 243.345 153.382 244.572 151.338 245.158C149.294 245.745 139.49 248.593 129.553 251.489C119.617 254.383 110.958 256.752 110.311 256.752C109.665 256.752 109.303 255.905 109.506 254.871C109.775 253.503 113.779 251.961 124.173 249.225C132.036 247.153 141.558 244.457 145.333 243.231C153.878 240.457 155.055 240.36 155.055 242.433ZM203.094 245.439C203.094 245.969 202.031 246.968 200.733 247.661C198.956 248.611 197.938 248.562 196.612 247.465C195.053 246.173 195.143 245.772 197.406 243.944C199.359 242.366 200.326 242.187 201.526 243.179C202.388 243.894 203.094 244.911 203.094 245.439ZM196.175 249.267C196.937 250.183 198.391 250.593 199.46 250.193C201.125 249.572 201.173 249.729 199.82 251.388C197.91 253.731 199.006 259.035 201.4 259.035C203.756 259.035 203.526 261.042 201.092 261.726C192.146 264.239 188.058 263.727 190.742 260.431C192.037 258.842 191.934 258.731 189.94 259.57C188.682 260.098 184.565 260.651 180.79 260.797C177.016 260.942 172.441 261.647 170.623 262.362C165.855 264.241 165.549 262.967 169.737 258.657C173.953 254.317 173.559 253.102 168.416 254.574C164.004 255.837 164.205 255.835 164.205 254.601C164.205 251.752 170.951 249.441 181.362 248.724C187.338 248.31 192.808 247.894 193.518 247.798C194.227 247.701 195.423 248.362 196.175 249.267ZM207.669 254.348C207.669 256.482 205.583 257.893 202.428 257.893C200.785 257.893 200.168 254.345 201.569 252.948C201.988 252.53 203.532 252.187 205.001 252.187C206.856 252.187 207.669 252.846 207.669 254.348ZM403.286 263.119C403.618 268.719 403.809 273.452 403.712 273.637C403.543 273.958 379.833 268.758 375.369 267.419C373.782 266.943 375.136 265.965 380.516 263.697C384.529 262.004 390.645 258.762 394.105 256.492C397.565 254.221 400.911 252.493 401.54 252.651C402.169 252.809 402.955 257.519 403.286 263.119ZM167.058 259.043C162.647 263.635 164.345 265.744 170.878 263.791C177.008 261.958 177.065 261.984 176.221 266.167C174.728 273.565 174.505 273.873 170.705 273.809C165.328 273.717 156.855 270.155 156.4 267.795C155.79 264.636 159.011 260.72 164.415 258.052C170.811 254.892 170.981 254.956 167.058 259.043ZM189.156 266.14C189.443 268.626 188.754 269.713 185.724 271.556C183.639 272.824 180.607 273.864 178.986 273.866C176.053 273.871 176.045 273.846 177.222 268.112L178.404 262.352L183.6 262.691C188.308 262.997 188.831 263.321 189.156 266.14ZM207.097 264.741C206.708 265.368 205.421 265.882 204.238 265.882C203.054 265.882 201.767 265.368 201.378 264.741C200.964 264.073 202.151 263.6 204.238 263.6C206.324 263.6 207.511 264.073 207.097 264.741ZM304.318 270.323C304.318 273.825 301.059 276.039 298.382 274.353C295.609 272.608 295.364 270.984 297.547 268.807C300.325 266.035 304.318 266.928 304.318 270.323ZM212.63 279.516C182.634 294.259 181.854 296.097 202.298 303.856C219.678 310.452 218.721 310.496 232.062 302.462C246.14 293.984 261.358 283.163 263.043 280.433C263.925 279.002 263.919 277.873 263.021 276.453C261.608 274.219 244.376 268.283 239.123 268.221C237.026 268.198 226.716 272.592 212.63 279.516ZM247.525 273.427C251.082 274.438 254.363 275.603 254.816 276.016C255.269 276.43 248.835 281.001 240.518 286.174C232.202 291.347 223.739 296.643 221.711 297.943L218.026 300.304L215.42 297.545C212.332 294.276 206.476 292.058 203.189 292.917C201.897 293.253 199.932 293.161 198.822 292.712C197.344 292.114 202.277 289.172 217.214 281.742C228.44 276.158 238.398 271.588 239.341 271.588C240.286 271.588 243.968 272.416 247.525 273.427ZM295.167 273.868C295.566 275.121 297.145 276.461 298.676 276.845C302.532 277.81 302.673 284.489 298.885 286.803C294.152 289.695 277.475 295.969 276.666 295.163C276.226 294.724 277.636 292.8 279.799 290.888C284.183 287.008 282.318 287.603 276.551 291.924C271.052 296.042 270.602 293.968 275.798 288.454C280.073 283.919 278.718 284.268 273.15 289.137C268.934 292.823 269.889 288.507 274.226 284.277C276.232 282.319 277.418 280.718 276.862 280.718C276.305 280.718 274.405 282.098 272.641 283.784C268.592 287.654 268.44 285.494 272.429 280.765C276.008 276.521 280.493 274.057 286.963 272.78C294.115 271.369 294.384 271.404 295.167 273.868ZM237.585 280.693C232.677 283.858 230.545 284.724 230.545 283.551C230.545 282.137 229.616 282.221 224.728 284.073C221.53 285.286 218.281 286.036 217.508 285.741C215.677 285.039 211.681 289.366 213.261 290.34C214.717 291.238 220.413 289.892 219.742 288.808C219.47 288.371 220.784 287.434 222.66 286.728C225.785 285.55 226.014 285.628 225.372 287.645C224.987 288.856 225.205 289.848 225.857 289.848C228.195 289.848 246.602 278.289 245.948 277.233C245.045 275.776 245.502 275.587 237.585 280.693ZM305.48 279.659C306.203 282.941 305.594 285.224 304.33 283.964C304.022 283.656 303.443 281.772 303.043 279.779C302.094 275.038 304.437 274.922 305.48 279.659ZM261.939 279.889C261.17 281.889 258.409 283.807 235.785 298.069C227.03 303.588 219.631 307.87 219.345 307.584C217.764 306.007 221.717 302.861 237.021 293.517C246.355 287.819 255.757 281.843 257.913 280.239C262.099 277.124 263.034 277.043 261.939 279.889ZM204.968 299.133C212.87 302.003 217.963 304.462 217.963 305.41C217.963 307.482 217.379 307.413 208.155 304.249C194.835 299.678 190.512 297.658 190.512 296C190.512 293.847 190.273 293.795 204.968 299.133Z" fill="#121A17"/>
</svg>
