<svg width="223" height="201" viewBox="0 0 223 201" fill="none" xmlns="http://www.w3.org/2000/svg">
<path fill-rule="evenodd" clip-rule="evenodd" d="M154.273 1.04237C153.627 1.31903 151.725 1.56352 150.048 1.58633C144.781 1.6571 141.363 3.70662 140.707 7.18857C140.402 8.80174 139.985 9.16321 137.61 9.87329C135.118 10.6173 134.783 10.9366 133.983 13.3254C133.497 14.773 132.531 16.4166 131.836 16.9776C129.708 18.6943 129.2 21.0783 130.508 23.2162C131.125 24.2257 131.63 26.0577 131.63 27.2865C131.63 29.5531 132.973 31.4575 134.571 31.4575C135.005 31.4575 135.825 31.8751 136.392 32.3858C137.17 33.0859 138.676 33.3105 142.525 33.3L147.627 33.2859L147.229 35.4425C146.748 38.0476 146.653 38.143 143.687 39.0701C140.057 40.2036 137.088 41.8408 134.585 44.0891C131.883 46.5177 128.935 50.9302 128.37 53.3915C128.124 54.4654 128.691 53.7378 129.833 51.5145C131.691 47.8963 136.102 43.3258 139.346 41.6577C140.957 40.8289 140.961 40.8312 142.415 43.9885C143.215 45.7269 144.404 47.4342 145.058 47.7822C145.968 48.266 146.415 49.4475 146.959 52.8043L147.671 57.1934H153.126H158.581L158.911 55C159.093 53.7939 159.408 51.5742 159.612 50.0675C159.816 48.5613 160.321 47.1997 160.734 47.0418C161.148 46.8838 161.809 45.4169 162.203 43.7815L162.921 40.8078L165.178 42.0695C168.325 43.8289 171.839 47.5483 173.939 51.3443C174.918 53.1137 175.722 54.1665 175.725 53.684C175.734 52.0743 172.374 46.9628 169.689 44.5015C166.929 41.9718 164.019 40.2902 160.367 39.1163C158.569 38.5384 158.133 38.0588 157.636 36.1128C157.206 34.4271 157.228 33.7732 157.718 33.7088C158.088 33.6597 159.846 33.5515 161.625 33.4672C167.002 33.2128 170.091 32.5677 171.33 31.4405C175.799 27.3749 175.86 27.2947 175.471 26.0144C175.257 25.3084 174.866 22.9664 174.6 20.8093C174.189 17.4601 173.764 16.4447 171.695 13.86C170.362 12.1954 169.271 10.1967 169.271 9.4194C169.271 7.58279 166.755 5.29581 163.891 4.52841C162.645 4.19501 161.625 3.66509 161.625 3.35099C161.625 2.51984 158.003 0.455121 156.626 0.500744C155.979 0.522386 154.92 0.765707 154.273 1.04237ZM53.3318 5.1952C52.8883 5.47479 51.9485 5.70758 51.2433 5.71285C50.0976 5.72045 47.4339 7.91736 45.2736 10.6366C44.3302 11.8239 43.8574 20.7467 44.6584 22.2359C44.9643 22.8038 45.523 23.2688 45.8994 23.2688C46.4093 23.2688 46.404 23.0893 45.8788 22.5669C44.8778 21.5714 44.9872 19.1745 46.0335 19.1745C46.7052 19.1745 46.8804 19.9898 46.8304 22.8921C46.7587 27.083 48.3643 30.7673 50.8357 32.0822C51.6226 32.5016 52.2278 33.3555 52.2243 34.0422C52.2114 36.5093 51.4774 39.6134 50.9792 39.3075C49.4659 38.3775 50.8486 39.6959 53.4776 41.6893L56.4883 43.9733L54.8074 45.3058L53.1265 46.6388L50.3434 43.9125C48.092 41.7068 47.6932 41.0277 48.2561 40.3533C48.6384 39.8948 47.2416 40.4627 45.1513 41.6144C40.9102 43.9523 36.6656 47.8068 35.4028 50.467C34.9382 51.4461 34.8982 51.7187 35.3134 51.0835C37.172 48.2391 41.5683 44.0868 44.0421 42.8404L46.7575 41.4717L49.6194 44.3611C51.1927 45.9497 52.9489 47.25 53.5206 47.25C54.9915 47.25 55.3873 49.4469 54.9056 54.9374L54.4939 59.6284L57.9205 59.2148C59.8049 58.9879 61.3846 58.7685 61.4305 58.7288C61.5099 58.6592 61.1199 56.2417 60.1848 51.008C59.7684 48.6766 59.8319 48.5567 63.1226 45.4514C65.3475 43.3527 66.9008 42.3327 67.7095 42.438C69.6645 42.6936 74.3979 45.9872 76.9422 48.8614C78.2308 50.3178 79.2853 51.3291 79.2853 51.1092C79.2853 50.0651 73.4592 44.6939 70.5238 43.0316C68.7111 42.0051 66.8784 40.8236 66.4515 40.406C66.0239 39.9878 65.5075 39.6462 65.3046 39.6462C65.1011 39.6462 65.2364 39.9463 65.6057 40.3136C66.108 40.8131 65.6751 41.6904 63.8801 43.8072L61.484 46.6335L59.7366 45.3964L57.9899 44.1587L60.743 41.8185C62.2568 40.5317 63.2478 39.3186 62.9444 39.1239C62.6409 38.9285 62.2092 37.5323 61.9857 36.0215C61.5981 33.4082 61.6616 33.2315 63.2867 32.3957C65.4681 31.2744 66.7114 29.3688 67.5854 25.8091C67.9677 24.2509 68.5617 22.6202 68.9058 22.185C69.2498 21.7498 69.5792 19.2675 69.638 16.6687C69.7233 12.9095 69.5004 11.4771 68.5476 9.65863C67.8889 8.40225 66.9255 7.24589 66.4068 7.08972C65.8886 6.93355 65.0046 6.56213 64.443 6.26383C63.8813 5.96553 62.772 5.72162 61.978 5.72162C61.1841 5.72162 60.3895 5.48883 60.2124 5.20398C59.7978 4.53719 54.3881 4.52958 53.3318 5.1952ZM148.28 10.6822C147.83 13.4389 149.162 15.3024 152.484 16.564C153.954 17.122 155.156 17.7754 155.156 18.0158C155.156 18.2562 155.685 18.5907 156.332 18.7592C157.189 18.982 157.508 19.557 157.508 20.8801C157.508 21.9715 157.978 23.0945 158.685 23.697C159.331 24.2479 159.861 25.0452 159.861 25.4692C159.861 26.7081 157.599 30.7638 156.598 31.3206C155.77 31.7821 155.779 32.1857 156.691 35.4501C157.648 38.8706 157.826 39.1016 159.958 39.6725C161.199 40.0042 162.213 40.3498 162.213 40.4399C162.213 40.53 161.809 41.9572 161.315 43.6113C160.507 46.3171 160.197 46.6797 158.228 47.2237C155.402 48.0039 148.186 48.008 145.942 47.2307C144.585 46.7598 143.964 45.9772 143.139 43.6926C142.555 42.0794 142.263 40.5744 142.489 40.3487C142.716 40.1235 143.861 39.6702 145.034 39.3415C147.013 38.7881 147.228 38.5015 147.988 35.4039C148.791 32.1313 148.778 32.0272 147.334 30.321C146.523 29.363 145.392 27.3591 144.82 25.8681C144.247 24.3772 143.008 22.3915 142.067 21.4556C140.199 19.5974 140.18 18.3942 142.017 18.1228C142.878 17.9959 143.475 17.0682 144.233 14.6771C145.11 11.9099 147.326 8.64615 148.329 8.64615C148.484 8.64615 148.463 9.56212 148.28 10.6822ZM62.2051 11.3478C63.9036 12.7692 65.758 15.5498 65.758 16.6752C65.758 16.9407 64.7564 17.063 63.5319 16.9471C61.8798 16.7904 60.9323 17.0624 59.856 18.0023L58.4063 19.2681L59.8607 18.3439C62.0133 16.9758 64.9152 17.153 66.0186 18.72C68.1383 21.7293 66.3074 25.2505 62.6768 25.1475C60.4459 25.0844 58.7233 23.3127 58.6539 21.0105C58.6286 20.1618 58.4739 19.7962 58.311 20.1981C57.9128 21.1784 56.3478 21.1345 56.3478 20.1425C56.3478 18.1328 51.6291 16.1294 49.5806 17.2694C48.8348 17.6847 49.2483 17.8128 51.1962 17.7695C54.4228 17.6988 55.7596 18.7188 55.7596 21.2509C55.7596 23.3291 53.5988 25.6084 51.6285 25.6084C50.0029 25.6084 48.005 23.6619 48.0056 22.0791C48.0073 18.4773 48.6466 14.9585 49.5477 13.591C52.1567 9.63055 58.7556 8.46132 62.2051 11.3478ZM68.6988 20.0863C68.6988 20.935 68.4441 21.4269 68.1106 21.2216C67.7871 21.0228 67.5225 20.3495 67.5225 19.7249C67.5225 19.1002 67.7871 18.5896 68.1106 18.5896C68.4341 18.5896 68.6988 19.2634 68.6988 20.0863ZM151.252 20.5917C151.303 22.0598 151.65 22.9892 152.215 23.1723C152.913 23.3993 152.954 23.2864 152.414 22.633C152.039 22.1786 151.605 21.0169 151.451 20.0518C151.239 18.7264 151.19 18.8586 151.252 20.5917ZM50.9074 19.5617C51.3121 19.7243 51.9737 19.7243 52.3778 19.5617C52.7824 19.3997 52.4513 19.2669 51.6426 19.2669C50.8339 19.2669 50.5034 19.3997 50.9074 19.5617ZM62.0821 19.5617C62.4868 19.7243 63.1485 19.7243 63.5525 19.5617C63.9571 19.3997 63.626 19.2669 62.8173 19.2669C62.0086 19.2669 61.6781 19.3997 62.0821 19.5617ZM51.6426 21.8411C51.6426 22.3423 51.9114 22.5874 52.2402 22.3856C52.5689 22.1832 52.686 21.7732 52.4995 21.4737C51.9955 20.6625 51.6426 20.8134 51.6426 21.8411ZM62.2757 21.8551C62.3039 22.5365 62.4433 22.6751 62.6309 22.209C62.8009 21.7867 62.7797 21.2819 62.5844 21.0877C62.3892 20.8935 62.2504 21.2386 62.2757 21.8551ZM56.8565 24.4316C56.7636 25.7149 56.9418 27.0181 57.2523 27.3281C57.6146 27.689 57.7528 26.7964 57.6364 24.8492L57.4552 21.8065L58.9674 23.6625C60.8706 25.9986 63.489 26.6566 65.5457 25.3166L67.0502 24.3363L66.625 26.2881C66.0503 28.9266 64.3759 31.158 62.3427 31.9956L60.6606 32.6887L61.354 36.359L62.048 40.0293L59.8254 41.8852C58.6033 42.9053 57.4376 43.7405 57.2353 43.7405C57.0324 43.7405 55.8031 42.8901 54.5022 41.8507C52.2178 40.0246 52.1508 39.872 52.5119 37.3177C52.7177 35.8642 53.0165 34.2276 53.1765 33.6813C53.3753 33.0017 52.886 32.3893 51.6262 31.7418C50.4987 31.1615 49.353 29.8473 48.6684 28.3481C47.1257 24.9686 47.171 24.1251 48.8331 25.2826C50.7634 26.6279 53.2388 26.4139 54.9039 24.7574C55.6979 23.9678 56.3478 23.0466 56.3478 22.7102C56.3478 22.3739 56.5001 22.099 56.6865 22.099C56.8736 22.099 56.9494 23.1489 56.8565 24.4316ZM152.873 26.4636C151.428 26.9836 151.139 27.2766 151.815 27.5345C152.328 27.7305 153.352 27.3871 154.098 26.7683C155.634 25.4944 155.594 25.4844 152.873 26.4636ZM58.1122 29.4589C56.7248 30.2245 56.713 30.2707 57.9022 30.2789C58.5956 30.2836 59.3149 29.8929 59.5014 29.4103C59.6872 28.9278 59.7819 28.5587 59.7113 28.5903C59.6402 28.6219 58.9209 29.0126 58.1122 29.4589ZM175.787 55.7797C175.815 56.4611 175.955 56.5997 176.142 56.1335C176.312 55.7112 176.291 55.2065 176.096 55.0123C175.901 54.8181 175.762 55.1632 175.787 55.7797ZM127.559 56.3646C127.588 57.046 127.727 57.1846 127.915 56.7184C128.085 56.2961 128.063 55.7914 127.868 55.5972C127.673 55.403 127.534 55.7481 127.559 56.3646ZM94.2829 63.284C75.5365 66.9104 60.9088 81.3494 56.9 100.184C56.4889 102.114 56.1766 106.326 56.2054 109.543C56.3936 130.415 70.2491 146.637 92.7344 152.31C99.2627 153.957 108.505 154.166 114.574 152.804C116.676 152.333 119.072 151.793 119.897 151.605C121.12 151.326 121.53 151.554 122.117 152.836C122.69 154.087 123.119 154.337 124.219 154.062C125.454 153.754 126.05 154.41 129.792 160.185C132.097 163.742 133.983 166.893 133.983 167.185C133.983 167.478 132.954 168.238 131.698 168.876C126.064 171.734 124.196 175.793 127.366 178.287C128.672 179.314 129.497 179.499 131.654 179.248L134.325 178.938L134.105 180.809C133.811 183.309 135.533 184.863 138.594 184.863H140.877L140.224 186.588C139.633 188.147 139.728 188.448 141.22 189.725C143.117 191.348 144.389 191.472 147.195 190.306L149.194 189.475L152.859 193.883C158.105 200.189 160.708 201.477 164.969 199.871C169.936 198 170.721 194.82 167.857 188.17C167.278 186.825 169.969 185.709 174.858 185.266L178.975 184.892L175.276 184.798C172.619 184.73 170.942 185.025 169.323 185.846L167.07 186.989L158.799 176.341C152.598 168.359 150.771 165.64 151.503 165.479C152.04 165.361 152.751 165.718 153.082 166.273C155.977 171.113 160.297 174.931 163.684 175.64C165.041 175.924 164.838 175.722 162.802 174.765C159.594 173.258 157.434 171.272 155.152 167.734L153.431 165.068L147.17 164.081C140.551 163.036 138.076 161.996 136.173 159.457C133.487 155.874 137.244 152.672 143.328 153.357C146.943 153.764 151.16 154.907 153.772 156.188C155.181 156.879 155.968 156.89 158.685 156.253L161.919 155.495L158.899 155.78C156.559 156.001 154.684 155.667 150.578 154.299C147.663 153.328 144.258 152.529 143.012 152.524C140.346 152.514 140.005 152.316 137.933 149.568C136.714 147.953 136.516 147.323 137.058 146.784C137.6 146.245 137.521 145.689 136.713 144.328L135.668 142.568L138.795 139.121C140.515 137.226 142.423 134.796 143.035 133.721C144.413 131.304 143.786 131.947 140.421 136.401C124.43 157.569 89.6131 158.595 69.3075 138.495C62.3639 131.622 58.8362 124.606 57.5117 115.034C54.6692 94.4999 67.1455 73.5345 86.5224 66.2811C99.2763 61.5071 117.19 62.292 129.277 68.1545C134.688 70.779 141.7 77.4598 144.287 82.4561C145.235 84.2868 146.114 85.6819 146.24 85.5567C146.366 85.4315 145.474 83.5592 144.257 81.3962C139.638 73.1812 130.9 66.9268 120.161 64.1485C114.085 62.5769 100.317 62.1165 94.2829 63.284ZM97.2237 72.2243C75.0548 75.1483 60.5894 98.9306 68.083 120.133C72.3511 132.211 83.6476 140.948 98.3817 143.569C109.651 145.574 121.77 141.853 129.787 133.926C133.249 130.503 138.14 122.973 138.084 121.155C138.075 120.88 137.039 122.585 135.781 124.943C132.497 131.094 130.908 132.653 130.197 130.424C129.486 128.194 123.653 123.189 119.284 121.059C116.855 119.875 114.78 118.708 114.672 118.465C114.564 118.223 113.836 118.024 113.055 118.024C112.273 118.024 111.633 117.91 111.633 117.77C111.633 117.631 112.472 116.174 113.498 114.534C114.843 112.381 115.439 110.619 115.637 108.207C115.834 105.793 116.309 104.39 117.344 103.159C118.313 102.007 118.659 101.059 118.409 100.234C117.916 98.5983 117.875 93.4518 118.343 91.9953C118.788 90.6144 116.833 87.1599 115.306 86.6259C114.741 86.4288 113.618 85.6783 112.809 84.9589C110.834 83.2024 102.585 82.3824 100.753 83.7616C100.106 84.2483 98.8393 84.6553 97.9382 84.6653C96.1944 84.6852 93.4007 86.2024 93.4007 87.1301C93.4007 87.436 92.7079 88.5894 91.8616 89.6937C90.6506 91.2724 90.4177 92.0433 90.7694 93.3102C91.0146 94.1958 91.2446 96.8524 91.2793 99.2148C91.3369 103.164 91.4728 103.613 92.9596 104.794C94.2077 105.784 94.577 106.579 94.577 108.272C94.577 110.586 96.2109 114.363 97.7689 115.648C98.8593 116.549 99.0069 118.609 97.9812 118.609C97.5889 118.609 98.5446 119.898 100.104 121.473L102.942 124.337L99.698 125.275C97.9141 125.791 96.1644 126.212 95.8098 126.212C94.9546 126.212 95.0346 124.088 95.9897 121.428L96.7626 119.276L93.8207 120.429C89.3631 122.177 85.9607 124.33 82.2301 127.765L78.8519 130.875L77.0286 127.472C74.4843 122.725 73.4039 118.078 73.4039 111.882C73.4039 105.502 74.4608 101.025 77.2997 95.3837C83.1541 83.7487 94.3229 76.8158 108.398 76.0789C114.596 75.7542 122.402 76.8229 126.612 78.5723C129.684 79.8486 133.749 84.3377 136.119 89.0708C137.247 91.3227 137.992 92.5071 137.774 91.7029C136.107 85.5456 130.323 79.2567 123.203 75.8589C116.112 72.4753 106.023 71.0633 97.2237 72.2243ZM118.577 74.7371C120.616 75.4536 122.204 76.1099 122.106 76.1947C122.007 76.2801 119.941 75.9981 117.515 75.5682C97.8336 72.0822 80.1858 82.4251 74.0173 101.061C70.1485 112.752 72.8928 125.315 81.2721 134.274C84.4016 137.619 84.6104 137.975 82.8706 136.993C81.769 136.372 79.0942 134.136 76.9251 132.025C58.0104 113.613 67.9812 80.5154 94.4488 73.8591C99.7286 72.5314 113.75 73.0414 118.577 74.7371ZM181.045 78.2951C175.666 80.7213 174.532 82.7643 174.331 90.3915C174.189 95.8001 174.241 96.0563 175.847 97.8754C176.762 98.9118 177.917 100.908 178.413 102.311C178.91 103.715 180.119 105.859 181.1 107.075C182.493 108.802 182.804 109.648 182.52 110.933C182.134 112.679 179.91 114.645 177.494 115.376C171.965 117.047 165.054 122.696 161.975 128.062C160.603 130.451 160.745 130.322 164.314 125.928C165.878 124.003 167.93 121.765 168.872 120.956C171.121 119.026 176.317 116.298 177.774 116.282C178.407 116.275 180.493 117.363 182.41 118.7C185.349 120.751 186.068 121.025 186.994 120.45C188.031 119.806 188.094 120.035 188.135 124.599C188.159 127.256 188.407 130.614 188.686 132.061C189.056 133.981 189.16 132.533 189.069 126.708C188.96 119.775 189.05 118.875 189.755 119.875C190.737 121.269 191.305 121.08 195.422 117.989C198.479 115.693 198.731 115.61 200.708 116.26C204.592 117.534 210.119 122.127 214.453 127.68L215.818 129.429L214.747 127.442C212.605 123.468 206.636 118.245 201.182 115.574C196.786 113.422 195.875 112.72 194.965 110.79C193.92 108.573 193.923 108.501 195.092 107.264C196.431 105.847 198.09 101.603 198.09 99.5974C198.09 98.8727 198.461 97.9737 198.915 97.5993C199.369 97.225 200.187 95.1012 200.735 92.8803C201.558 89.5405 201.614 88.3057 201.063 85.7468C200.152 81.5243 199.105 80.1486 195.546 78.5004C191.515 76.6339 184.933 76.5409 181.045 78.2951ZM196.042 88.3397C196.27 90.0283 196.626 91.721 196.833 92.1C197.197 92.7692 197.444 92.8727 198.678 92.8727C199.541 92.8727 199.395 95.8464 198.479 96.9208C198.047 97.4291 197.378 99.3084 196.992 101.097C196.606 102.886 195.642 105.3 194.848 106.461C193.481 108.462 193.451 108.681 194.278 110.647C194.757 111.789 195.149 112.858 195.149 113.023C195.149 113.482 189.423 116.269 188.48 116.269C187.319 116.269 182.201 113.962 182.255 113.463C182.28 113.237 182.633 112.133 183.041 111.01C183.738 109.089 183.684 108.872 182.138 107.333C181.233 106.434 179.925 104.148 179.23 102.253C178.536 100.358 177.334 98.2164 176.56 97.4929C175.786 96.7699 175.153 95.5334 175.153 94.745C175.153 93.4699 175.344 93.3494 176.884 93.6559C178.57 93.991 178.625 93.9279 178.975 91.2431C179.692 85.7333 179.645 85.8117 182.076 86.1428C183.282 86.3071 186.254 86.2135 188.68 85.9351C196.18 85.0724 195.574 84.8747 196.042 88.3397ZM146.352 86.7312C146.352 87.0529 146.608 87.7109 146.922 88.1934C147.235 88.676 147.492 88.8076 147.492 88.4859C147.492 88.1642 147.235 87.5062 146.922 87.0236C146.608 86.5411 146.352 86.4095 146.352 86.7312ZM148.144 92.6288C148.173 93.3102 148.312 93.4488 148.5 92.9827C148.67 92.5604 148.648 92.0556 148.453 91.8614C148.258 91.6672 148.119 92.0123 148.144 92.6288ZM181.034 92.2878C181.034 92.6095 181.696 92.8727 182.504 92.8727C183.313 92.8727 183.975 92.6095 183.975 92.2878C183.975 91.9661 183.313 91.7029 182.504 91.7029C181.696 91.7029 181.034 91.9661 181.034 92.2878ZM192.356 92.1059C192.921 92.2533 193.848 92.2533 194.414 92.1059C194.98 91.9591 194.517 91.8386 193.385 91.8386C192.253 91.8386 191.79 91.9591 192.356 92.1059ZM106.07 92.9125C106.284 93.2564 106.857 93.3851 107.344 93.1991C107.832 93.0137 109.246 93.1336 110.488 93.4658C112.521 94.0103 112.796 94.3168 113.252 96.5424C113.717 98.8101 113.9 99.0037 115.467 98.8873C116.993 98.7738 118.068 99.4658 118.094 100.578C118.099 100.795 117.467 101.723 116.691 102.641C115.914 103.559 114.99 105.373 114.639 106.672C113.895 109.42 112.235 111.048 109.104 112.104C105.989 113.153 101.711 113.077 100.853 111.957C100.474 111.462 99.4933 110.811 98.6734 110.508C97.853 110.206 96.662 108.975 96.0268 107.773C95.391 106.57 94.143 104.851 93.2537 103.954C90.8552 101.533 91.304 99.5991 94.2635 99.5991C95.1663 99.5991 95.5157 99.0499 95.8521 97.1045C96.4208 93.8144 96.8184 93.2225 97.8753 94.0946C98.534 94.6385 98.9369 94.5917 99.7344 93.8799C100.354 93.3266 101.358 93.0873 102.301 93.2693C103.153 93.4336 104.028 93.2798 104.247 92.9277C104.752 92.1141 105.57 92.1076 106.07 92.9125ZM138.146 94.3835C138.174 95.0649 138.314 95.2035 138.501 94.7374C138.671 94.3151 138.65 93.8103 138.455 93.6161C138.26 93.4219 138.121 93.767 138.146 94.3835ZM148.779 95.2123C148.779 96.0166 148.913 96.3459 149.075 95.9435C149.239 95.5416 149.239 94.8836 149.075 94.4812C148.913 94.0794 148.779 94.4081 148.779 95.2123ZM192.528 94.5871C192.342 94.8865 192.459 95.2965 192.787 95.4989C193.116 95.7007 193.385 95.4556 193.385 94.9544C193.385 93.9267 193.032 93.7758 192.528 94.5871ZM187.293 95.8943C187.037 96.4301 186.914 97.6145 187.018 98.5264C187.167 99.8173 187.535 100.208 188.68 100.292C189.488 100.351 189.701 100.269 189.153 100.109C188.467 99.9091 188.093 99.0522 187.957 97.3689C187.817 95.6411 187.621 95.2071 187.293 95.8943ZM19.3466 96.6126C18.9154 97.1291 18.1156 97.5519 17.5692 97.5519C16.3882 97.5519 14.0015 99.6325 14.0015 100.662C14.0015 101.06 13.4722 101.837 12.8252 102.388C12.1783 102.939 11.6531 103.721 11.6578 104.126C11.6713 105.226 13.064 108.999 13.7945 109.913C14.3262 110.579 14.4044 113.133 13.9645 115.441C13.628 117.205 14.2044 118.168 16.06 118.938C17.1922 119.409 18.1185 120.004 18.1185 120.259C18.1185 120.515 18.5284 121.235 19.029 121.86C19.8512 122.885 19.8512 122.813 19.029 121.124C18.5284 120.094 18.0879 118.646 18.0503 117.907C18.0003 116.916 17.9115 116.831 17.7133 117.585C17.3992 118.779 17.2457 118.811 15.7271 118.003C15.0537 117.645 14.5897 116.782 14.5897 115.889C14.5897 114.414 14.6226 114.401 16.06 115.338C16.8687 115.865 17.5304 116.044 17.5304 115.737C17.5304 115.43 17.0399 115.023 16.4405 114.834C15.6207 114.575 15.3654 113.952 15.4113 112.32C15.4642 110.415 15.6513 110.149 16.9422 110.139C18.0232 110.13 18.6302 109.636 19.2342 108.272C19.6859 107.252 20.5658 106.285 21.1892 106.122C21.8126 105.96 22.4666 105.281 22.6419 104.614C22.8172 103.947 23.3447 103.401 23.8141 103.401C24.8827 103.401 28.7051 107.372 28.7051 108.483C28.7051 108.935 29.3908 109.938 30.2289 110.71C31.0671 111.483 31.5946 112.368 31.4023 112.679C31.2094 112.989 31.7811 113.771 32.6721 114.417C34.2366 115.55 34.293 115.778 34.316 121.048C34.333 125.161 34.5242 126.466 35.0905 126.346C35.9263 126.168 38.6559 123.264 38.6847 122.52C38.6953 122.26 39.3652 120.655 40.1733 118.956C41.8377 115.457 42.7752 109.068 41.7195 108.419C41.3548 108.195 41.0561 107.246 41.0561 106.311C41.0561 105.211 40.4332 103.978 39.2916 102.816C38.3212 101.829 37.5272 100.785 37.5272 100.496C37.5272 100.207 36.9438 99.7863 36.2315 99.5611C35.5187 99.3365 34.5553 98.7744 34.0913 98.3129C33.5608 97.7853 32.3139 97.5309 30.7342 97.6274C29.2579 97.7175 27.8205 97.4508 27.2512 96.9805C25.7261 95.7218 20.3011 95.4691 19.3466 96.6126ZM138.734 96.7231C138.762 97.4045 138.902 97.5432 139.089 97.077C139.259 96.6547 139.238 96.1499 139.043 95.9557C138.848 95.7615 138.709 96.1066 138.734 96.7231ZM149.389 99.0142C149.401 99.9793 149.532 100.303 149.682 99.7342C149.831 99.1651 149.821 98.3755 149.66 97.9795C149.499 97.5835 149.377 98.0491 149.389 99.0142ZM109.484 98.8001C110.263 99.2499 110.754 99.2453 111.219 98.7826C111.693 98.3117 111.398 98.1415 110.133 98.1544C108.612 98.1702 108.532 98.2497 109.484 98.8001ZM139.412 99.8916C139.412 101.018 139.533 101.478 139.681 100.915C139.829 100.352 139.829 99.4313 139.681 98.868C139.533 98.3047 139.412 98.7656 139.412 99.8916ZM98.2529 99.1248C98.8193 99.2722 99.745 99.2722 100.311 99.1248C100.878 98.9779 100.414 98.8575 99.2822 98.8575C98.15 98.8575 97.6865 98.9779 98.2529 99.1248ZM104.362 101.148C103.645 103.501 104.113 105.41 105.458 105.62C106.208 105.737 106.382 105.63 105.939 105.324C105.557 105.06 105.152 103.664 105.039 102.222C104.856 99.8793 104.784 99.7646 104.362 101.148ZM108.955 100.527C108.738 100.877 108.854 101.456 109.214 101.814C109.695 102.292 109.869 102.123 109.869 101.178C109.869 99.7658 109.563 99.5482 108.955 100.527ZM99.2822 101.354C99.2822 101.836 99.5468 102.231 99.8703 102.231C100.194 102.231 100.458 101.836 100.458 101.354C100.458 100.871 100.194 100.476 99.8703 100.476C99.5468 100.476 99.2822 100.871 99.2822 101.354ZM140.069 107.495C140.069 110.23 140.171 111.349 140.294 109.981C140.419 108.614 140.419 106.377 140.294 105.01C140.171 103.642 140.069 104.761 140.069 107.495ZM149.909 103.742C149.937 104.423 150.076 104.562 150.264 104.096C150.434 103.674 150.413 103.169 150.218 102.975C150.022 102.78 149.884 103.126 149.909 103.742ZM187.364 103.815C188.095 103.954 189.154 103.949 189.716 103.803C190.278 103.657 189.68 103.542 188.386 103.548C187.092 103.555 186.632 103.675 187.364 103.815ZM150.031 107.788C150.035 109.396 150.149 109.985 150.285 109.096C150.419 108.207 150.416 106.891 150.276 106.171C150.137 105.452 150.026 106.179 150.031 107.788ZM106.591 109.53C105.968 109.999 105.722 110.387 106.046 110.392C106.92 110.406 108.414 109.362 108.044 108.996C107.868 108.82 107.214 109.061 106.591 109.53ZM19.8829 109.835C19.8829 110.568 20.507 110.568 21.6474 109.835C22.3608 109.376 22.2761 109.266 21.2063 109.259C20.4787 109.254 19.8829 109.513 19.8829 109.835ZM20.4711 112.175C20.4711 112.496 20.7357 112.76 21.0592 112.76C21.3827 112.76 21.6474 112.496 21.6474 112.175C21.6474 111.853 21.3827 111.59 21.0592 111.59C20.7357 111.59 20.4711 111.853 20.4711 112.175ZM25.2821 114.368C25.1839 117.212 25.2738 117.434 26.4995 117.371C27.4459 117.322 27.5388 117.229 26.8242 117.042C26.1084 116.854 25.7638 116.004 25.6067 114.039L25.3879 111.297L25.2821 114.368ZM139.369 114.514C139.369 115.318 139.502 115.648 139.665 115.245C139.829 114.844 139.829 114.186 139.665 113.783C139.502 113.381 139.369 113.71 139.369 114.514ZM197.502 115.116C197.502 115.681 191.834 119.778 191.052 119.778C190.484 119.778 189.002 117.484 189.367 117.173C189.474 117.082 191.006 116.196 192.77 115.204C195.148 113.867 196.176 113.563 196.74 114.029C197.159 114.374 197.502 114.864 197.502 115.116ZM184.256 115.513C187.465 117.079 188.208 118.259 186.841 119.618C186.238 120.218 184.806 119.501 179.332 115.865C179.091 115.705 180.436 113.929 180.799 113.929C180.914 113.929 182.47 114.642 184.256 115.513ZM138.467 118.097C137.977 120.535 138.452 121.007 138.982 118.609C139.205 117.597 139.265 116.649 139.115 116.499C138.965 116.35 138.674 117.069 138.467 118.097ZM105.468 119.193C106.627 119.193 108.355 118.792 109.31 118.301C110.884 117.491 111.045 117.496 111.045 118.349C111.045 118.866 110.147 120.386 109.049 121.727C107.952 123.068 106.96 124.67 106.844 125.286C106.483 127.215 105.283 126.962 103.795 124.642C103.008 123.415 101.67 121.772 100.823 120.993C99.9756 120.212 99.2822 119.108 99.2822 118.537C99.2822 117.579 99.4404 117.565 101.322 118.346C102.443 118.812 104.31 119.193 105.468 119.193ZM148.733 118.95C148.761 119.631 148.9 119.77 149.088 119.303C149.258 118.881 149.237 118.376 149.041 118.182C148.846 117.988 148.707 118.333 148.733 118.95ZM114.17 119.411C114.34 119.853 114.665 121.445 114.892 122.95C115.292 125.603 115.263 125.677 113.91 125.398C113.143 125.24 111.528 124.952 110.322 124.759L108.128 124.409L110.028 121.519C111.895 118.678 113.56 117.831 114.17 119.411ZM28.3763 120.052C27.7488 120.525 27.5329 120.92 27.8981 120.929C28.2628 120.94 28.8903 120.553 29.2932 120.071C30.2231 118.957 29.8431 118.949 28.3763 120.052ZM148.144 121.289C148.173 121.971 148.312 122.109 148.5 121.643C148.67 121.221 148.648 120.716 148.453 120.522C148.258 120.328 148.119 120.673 148.144 121.289ZM32.1151 123.147C30.73 124.624 30.6677 124.911 31.3252 126.797C31.8087 128.185 32.4604 128.906 33.3473 129.036C35.1993 129.307 34.7835 131.875 32.6297 133.466C30.4501 135.075 24.1499 135.148 20.9534 133.6C18.6449 132.482 16.9805 129.509 18.3085 128.875C18.689 128.694 18.2067 128.692 17.2363 128.873C11.7378 129.894 4.36245 134.94 2.19632 139.163C0.450127 142.568 0.864178 142.66 2.8027 139.299C3.75372 137.65 5.64401 135.487 7.0038 134.493C9.43635 132.714 9.50164 132.701 11.1896 133.689C12.1324 134.241 13.3181 135.147 13.8245 135.702C14.6602 136.618 14.6561 136.845 13.7851 138.167C13.2569 138.969 12.8252 139.974 12.8252 140.402C12.8252 141.6 19.9765 147.269 21.4892 147.269C22.2232 147.269 22.8236 147.194 22.8236 147.102C22.8236 147.01 21.9391 143.883 20.8587 140.153L18.8931 133.372L21.2998 134.458C23.9523 135.656 28.9139 135.908 31.3952 134.97C32.2698 134.639 33.0832 134.465 33.2026 134.585C33.322 134.703 32.6239 137.466 31.6505 140.724C30.6777 143.982 29.8814 146.787 29.8814 146.958C29.8814 147.129 30.6089 147.258 31.4987 147.246C32.6068 147.23 34.223 146.234 36.6315 144.081L40.1468 140.938L39.0781 138.709L38.0095 136.48L39.6798 135.151C40.5985 134.42 41.6313 133.821 41.9753 133.819C43.0058 133.814 45.593 136.834 47.4886 140.254C49.5147 143.91 49.8729 143.81 48.1096 140.079C45.6118 134.795 41.4719 131.189 35.5022 129.098C31.7569 127.787 30.783 125.739 32.8591 123.541C33.5961 122.761 34.0683 121.993 33.909 121.834C33.749 121.675 32.942 122.267 32.1151 123.147ZM146.701 125.358C146.133 126.828 146.3 127.208 146.993 126.022C147.337 125.435 147.494 124.831 147.342 124.681C147.191 124.53 146.902 124.835 146.701 125.358ZM190.298 124.799C189.729 125.364 190.488 126.797 191.355 126.797C192.485 126.797 193.041 125.636 192.275 124.875C191.795 124.397 191.618 124.449 191.612 125.072C191.605 125.723 191.493 125.749 191.13 125.18C190.871 124.773 190.496 124.602 190.298 124.799ZM106.083 127.967C106.392 127.967 106.976 127.441 107.38 126.797C108.364 125.23 111.276 125.154 110.779 126.708C109.895 129.481 108.692 137.163 108.692 140.046V143.249L106.781 143.065L104.87 142.882L104.453 138.317C104.224 135.806 103.522 131.942 102.893 129.731C102.263 127.519 101.903 125.556 102.092 125.368C102.281 125.18 103.13 125.688 103.978 126.497C104.828 127.306 105.775 127.967 106.083 127.967ZM21.1057 126.553C21.1339 127.235 21.2733 127.373 21.4609 126.907C21.6309 126.485 21.6097 125.98 21.4145 125.786C21.2192 125.592 21.0804 125.937 21.1057 126.553ZM144.978 129.437C144.44 130.559 144.122 131.477 144.269 131.477C144.672 131.477 146.457 127.895 146.188 127.628C146.061 127.501 145.516 128.315 144.978 129.437ZM19.773 128.367C20.197 128.536 20.7046 128.515 20.8998 128.32C21.0951 128.126 20.7481 127.988 20.1282 128.013C19.443 128.041 19.3036 128.18 19.773 128.367ZM159.861 131.477C159.514 132.12 159.364 132.646 159.526 132.646C159.687 132.646 160.103 132.12 160.449 131.477C160.795 130.833 160.946 130.307 160.784 130.307C160.622 130.307 160.207 130.833 159.861 131.477ZM190.738 130.892C190.246 131.684 190.91 132.646 191.949 132.646C192.416 132.646 192.797 132.12 192.797 131.477C192.797 130.266 191.378 129.862 190.738 130.892ZM203.696 141.197C197.712 142.27 196.55 143.004 196.731 145.587C196.808 146.673 197.985 156.467 199.347 167.351C201.457 184.21 201.699 187.219 200.986 187.667C200.476 187.988 200.418 188.198 200.837 188.204C201.215 188.208 201.698 188.994 201.909 189.948C202.222 191.365 202.691 191.769 204.455 192.142C206.815 192.641 222.519 192.781 222.98 192.307C223.136 192.146 222.373 180.696 221.283 166.863C220.193 153.03 219.293 141.384 219.283 140.981C219.256 139.969 209.805 140.1 203.696 141.197ZM136.335 145.448C136.335 146.406 128.217 151.876 125.032 153.064C123.671 153.571 123.3 153.471 122.54 152.393C121.673 151.162 121.777 151.058 126.214 148.759C128.725 147.457 131.69 145.683 132.802 144.816C134.917 143.168 136.335 143.422 136.335 145.448ZM0.000785517 145.807C0.0125484 146.772 0.144292 147.096 0.29368 146.527C0.443069 145.958 0.43307 145.168 0.271919 144.772C0.110768 144.376 -0.0109773 144.842 0.000785517 145.807ZM193.238 147.656C193.643 147.819 194.304 147.819 194.708 147.656C195.113 147.494 194.782 147.361 193.973 147.361C193.164 147.361 192.834 147.494 193.238 147.656ZM190.922 148.253C191.346 148.422 191.854 148.401 192.049 148.207C192.245 148.013 191.898 147.875 191.278 147.9C190.592 147.928 190.453 148.067 190.922 148.253ZM185.151 149.217C182.667 149.859 182.493 150.034 182.323 152.078L182.141 154.255L174.089 154.436L166.036 154.616L174.076 154.745L182.117 154.873L182.466 158.528C183.768 172.145 184.632 180.653 184.929 182.763L185.273 185.21L183.007 185.443L180.74 185.676L182.945 185.775C184.64 185.85 185.151 186.117 185.151 186.926C185.151 188.829 186.403 189.387 190.415 189.272L194.267 189.161L190.738 188.947C188.797 188.83 186.999 188.525 186.742 188.272C186.332 187.866 184.176 168.33 183.085 155.132L182.696 150.42L186.423 149.495C188.473 148.986 189.621 148.562 188.974 148.551C188.327 148.541 186.607 148.841 185.151 149.217ZM162.949 155.276C163.514 155.423 164.441 155.423 165.007 155.276C165.573 155.129 165.11 155.008 163.978 155.008C162.846 155.008 162.383 155.129 162.949 155.276ZM143.262 167.482C143.981 167.982 144.569 168.944 144.569 169.619C144.569 172.219 136.46 177.848 131.579 178.636C129.261 179.01 126.337 177.175 126.337 175.347C126.337 172.338 135.331 166.904 140.762 166.631C141.418 166.598 142.543 166.981 143.262 167.482ZM150.333 174.292C151.536 175.488 151.125 176.779 148.833 178.993C146.315 181.427 140.933 184.104 138.541 184.112C136.856 184.118 134.571 182.336 134.571 181.016C134.571 179.842 138.067 176.806 141.334 175.142C144.514 173.522 149.121 173.087 150.333 174.292ZM166.771 176.342C167.5 176.482 168.69 176.482 169.418 176.342C170.146 176.203 169.55 176.089 168.095 176.089C166.639 176.089 166.043 176.203 166.771 176.342ZM192.34 178.01C189.755 179.81 191.384 184.118 194.649 184.118C195.706 184.118 198.107 181.495 198.067 180.383C198.054 180.025 197.665 180.424 197.202 181.27C196.09 183.305 194.706 183.762 193.008 182.656C190.572 181.068 191.564 178.269 194.561 178.269C195.402 178.269 196.408 178.585 196.796 178.971C197.345 179.517 197.502 179.514 197.502 178.956C197.502 178.563 196.823 177.984 195.993 177.67C194.023 176.925 193.878 176.938 192.34 178.01ZM155.626 180.726C156.014 181.112 156.332 181.879 156.332 182.431C156.332 183.979 151.283 188.038 147.696 189.372C144.939 190.398 144.249 190.463 142.905 189.825C139.289 188.107 141.16 184.58 147.216 181.702C150.913 179.945 154.43 179.537 155.626 180.726ZM195.59 188.625C196.319 188.765 197.509 188.765 198.237 188.625C198.965 188.486 198.369 188.372 196.914 188.372C195.458 188.372 194.862 188.486 195.59 188.625Z" fill="#121A17"/>
</svg>
