<svg width="364" height="380" viewBox="0 0 364 380" fill="none" xmlns="http://www.w3.org/2000/svg">
<path fill-rule="evenodd" clip-rule="evenodd" d="M201.323 0.313673C200.222 0.590673 186.758 3.94767 171.402 7.77367C156.048 11.5997 129.254 18.5117 111.861 23.1347C94.4689 27.7567 67.4322 34.7607 51.7803 38.6987C16.5969 47.5517 12.5311 48.8097 8.04997 52.2257C3.772 55.4857 0.732891 61.6847 0.714879 67.1867C0.706873 69.3867 2.06381 77.9037 3.72897 86.1137C13.5548 134.558 31.0549 190.951 52.9361 244.687C58.4239 258.162 62.9381 269.862 62.9691 270.687C63.0001 271.512 62.2226 275.995 61.2409 280.65C59.1774 290.438 59.5727 304.306 62.1975 314.187C68.7161 338.733 88.2226 360.309 112.856 370.22C119.842 373.031 121.48 374.12 122.521 376.646C123.211 378.318 124.224 379.687 124.773 379.687C126.071 379.687 126.035 379.254 124.422 375.405C123.287 372.699 121.781 371.661 114.954 368.879C95.3465 360.889 79.7887 346.686 70.5673 328.359C60.5614 308.472 59.938 284.996 68.8411 263.42C74.8313 248.905 88.0005 232.658 97.8433 227.64C101.968 225.537 107.252 225.06 108.266 226.698C108.609 227.254 107.26 230.391 105.267 233.669C96.072 248.795 85.6118 273.86 81.6791 290.187C79.2374 300.326 79.2464 300.526 82.1994 301.266C83.5524 301.606 85.2415 302.598 85.952 303.472C87.0728 304.851 86.9797 304.956 85.2425 304.261C80.8455 302.502 79.7387 302.452 79.7387 304.014C79.7387 305.85 83.4613 308.687 85.871 308.687C87.6142 308.687 94.6 299.834 101.475 288.915L105.424 282.642L108.092 289.415C109.559 293.139 111.845 297.973 113.17 300.157L115.58 304.127L113.617 308.157L111.654 312.187L114.683 308.687C116.348 306.762 117.723 304.856 117.738 304.452C117.753 304.048 116.393 301.489 114.716 298.766C107.902 287.7 103.104 268.4 105.145 260.272C106.693 254.109 112.59 252.014 119.066 255.324C135.563 263.757 150.246 291.014 153.738 319.691C154.965 329.763 154.513 338.143 152.179 348.584C150.256 357.185 151.079 357.469 153.305 348.973C154.308 345.141 155.287 336.901 155.554 330.046L156.026 317.905L160.073 317.258C162.3 316.903 164.493 316.982 164.945 317.434C166.803 319.291 167.82 329.062 166.761 334.894C166.18 338.101 166.045 341.279 166.462 341.956C168.563 345.369 191.2 377.384 192.391 378.627C193.149 379.42 194.007 379.831 194.297 379.541C194.587 379.251 188.711 370.388 181.24 359.845C173.404 348.787 167.798 339.938 167.991 338.933C168.254 337.57 174.771 335.315 197.834 328.606C234.111 318.053 295.746 298.228 302.013 295.096C307.112 292.547 311.564 287.873 312.521 284.063C313.603 279.752 311.997 273.766 304.92 255.744C297.695 237.345 275.875 179.75 275.875 179.077C275.875 178.863 277.154 178.687 278.717 178.687C283.792 178.687 296.755 174.846 305.5 170.751L314.043 166.75L338.097 178.777C351.327 185.391 362.403 190.552 362.71 190.245C363.478 189.478 365.083 190.386 338.223 176.401L314.011 163.794L304.566 168.6C295.747 173.087 281.885 177.687 277.184 177.687C275.435 177.687 274.134 175.03 268.491 159.937C261.459 141.131 258.442 131.775 259.171 131.046C259.415 130.801 261.216 130.342 263.17 130.025C266.377 129.505 267.499 130.047 274.641 135.568C278.994 138.933 282.885 141.687 283.285 141.687C283.686 141.687 280.269 138.521 275.692 134.651L267.369 127.615L260.364 128.371C239.996 130.57 220.834 128.377 217.381 123.45C215.042 120.112 215.478 118.085 219.497 113.641C228.13 104.092 247.885 97.8447 283.88 93.2837C285.807 93.0397 283.19 93.0277 278.066 93.2567C272.942 93.4857 264.218 94.5967 258.68 95.7237C253.142 96.8517 248.489 97.6427 248.34 97.4807C247.803 96.8977 241.851 76.9347 241.851 75.7197C241.851 74.7667 244.026 74.6337 251.108 75.1517C289.133 77.9347 314.192 87.5237 334.761 107.161L342.673 114.716L352.804 116.523C358.376 117.518 362.935 118.017 362.935 117.633C362.935 117.249 358.769 116.136 353.679 115.159C344.563 113.41 344.321 113.288 337.811 107.187C314.947 85.7627 288.875 75.3487 254.607 73.9507L240.844 73.3897L237.765 63.2877C221.34 9.39867 219.797 5.20167 215.346 2.28667C212.657 0.526673 204.844 -0.573327 201.323 0.313673ZM212.046 7.64167C213.83 9.04367 215.693 13.0747 218.635 21.8917C224.01 37.9977 241.851 96.8527 241.851 98.4747C241.851 99.5487 236.896 102.266 236.397 101.465C236.302 101.312 234.072 94.4877 231.442 86.3007C226.693 71.5177 223.959 66.6867 220.34 66.6867C216.873 66.6867 106.469 95.7177 55.2217 110.106C25.5001 118.45 25.7933 118.171 29.692 134.422C32.0146 144.102 39.2987 166.882 41.4491 171.187C43.9229 176.141 46.8239 178.687 49.9941 178.687C54.9745 178.687 120.899 160.252 188.283 140.017L223.276 129.509L230.603 130.598C234.633 131.197 241.197 131.687 245.189 131.687H252.447L255.28 140.437C258.568 150.595 290.335 235.261 298.969 256.877C308.618 281.036 308.777 284.378 300.505 289.125C298.241 290.424 279.277 296.961 258.363 303.651C207.964 319.773 210.867 318.876 190.315 324.692C180.409 327.496 171.515 330.022 170.552 330.306C169.138 330.723 168.793 330.184 168.756 327.504C168.732 325.68 168.07 322.387 167.284 320.187C166.291 317.404 166.19 316.073 166.953 315.812C169.414 314.971 171.803 311.512 171.803 308.791C171.803 304.948 166.884 300.675 156.941 295.879C146.285 290.739 145.632 289.677 152.078 287.955C160.243 285.773 163.825 280.028 160.225 274.891C158.258 272.084 150.559 268.133 144.156 266.643C136.035 264.754 136.146 264.869 139.577 261.903C144.062 258.025 144.67 254.413 141.354 251.342C138.64 248.828 132.037 246.687 126.996 246.687C125.404 246.687 123.87 246.454 123.585 246.17C123.301 245.885 124.307 242.153 125.822 237.876C127.336 233.599 129.734 224.946 131.152 218.648C133.677 207.427 133.69 207.157 131.842 205.31C128.89 202.359 125.815 203.954 120.267 211.313C117.515 214.963 114.99 218.376 114.656 218.897C114.319 219.421 111.86 218.502 109.152 216.84C106.459 215.188 101.435 212.616 97.9864 211.124L91.717 208.413L95.8689 200.8C98.1525 196.613 101.13 191.275 102.483 188.937C103.838 186.6 104.566 184.69 104.101 184.693C103.635 184.697 102.523 185.934 101.627 187.443C93.6604 200.868 89.4104 207.155 88.4187 206.981C87.7723 206.867 82.1064 205.166 75.828 203.2C69.5486 201.234 63.9498 199.78 63.3844 199.968C62.82 200.156 67.9565 202.269 74.8003 204.664C81.644 207.059 87.4331 209.17 87.6652 209.356C87.8964 209.543 85.9921 214.081 83.4333 219.441C78.8701 229 75.7359 236.943 75.7359 238.951C75.7359 239.508 78.9792 233.376 82.9439 225.325C86.9087 217.274 90.6233 210.693 91.1997 210.701C92.9979 210.726 112.764 220.53 112.73 221.381C112.713 221.824 112.108 222.962 111.389 223.91C110.287 225.359 109.602 225.454 107.092 224.507C104.533 223.542 103.284 223.756 98.3706 226.004C92.1143 228.866 81.4149 238.437 76.4634 245.601L73.4133 250.015L71.2078 247.453C69.9949 246.044 67.6313 241.583 65.9551 237.539C61.361 226.457 59.6638 222.857 60.3673 225.687C61.6061 230.672 68.661 245.983 70.7355 248.19L72.8609 250.451L70.045 256.016C68.4969 259.077 66.9568 261.605 66.6226 261.634C64.9815 261.777 45.1347 211.854 37.4234 188.187C27.4514 157.578 15.1139 111.391 16.761 110.836C17.3664 110.632 17.1883 110.005 16.3327 109.336C14.7436 108.093 8.22409 80.2337 7.14434 70.0737C6.26073 61.7577 8.08699 58.2997 15.0148 55.1697C22.7912 51.6577 200.367 5.78567 206.442 5.72067C208.156 5.70167 210.679 6.56667 212.046 7.64167ZM209.642 21.3697C210.363 21.6587 211.227 21.6227 211.559 21.2907C211.891 20.9587 211.301 20.7227 210.246 20.7657C209.08 20.8137 208.843 21.0507 209.642 21.3697ZM155.604 30.3697C156.326 30.6587 157.189 30.6227 157.522 30.2907C157.854 29.9587 157.264 29.7227 156.209 29.7657C155.043 29.8137 154.806 30.0507 155.604 30.3697ZM151.602 31.3697C152.323 31.6587 153.187 31.6227 153.519 31.2907C153.851 30.9587 153.261 30.7227 152.206 30.7657C151.04 30.8137 150.803 31.0507 151.602 31.3697ZM147.599 32.3697C148.32 32.6587 149.184 32.6227 149.516 32.2907C149.848 31.9587 149.258 31.7227 148.203 31.7657C147.037 31.8137 146.8 32.0507 147.599 32.3697ZM143.596 33.3697C144.318 33.6587 145.181 33.6227 145.513 33.2907C145.846 32.9587 145.255 32.7227 144.2 32.7657C143.035 32.8137 142.797 33.0507 143.596 33.3697ZM139.593 34.3697C140.315 34.6587 141.178 34.6227 141.511 34.2907C141.843 33.9587 141.252 33.7227 140.198 33.7657C139.032 33.8137 138.795 34.0507 139.593 34.3697ZM135.59 35.3697C136.312 35.6587 137.176 35.6227 137.508 35.2907C137.84 34.9587 137.25 34.7227 136.195 34.7657C135.029 34.8137 134.792 35.0507 135.59 35.3697ZM203.638 35.3697C204.359 35.6587 205.223 35.6227 205.555 35.2907C205.887 34.9587 205.297 34.7227 204.242 34.7657C203.076 34.8137 202.839 35.0507 203.638 35.3697ZM128.586 37.3697C129.307 37.6587 130.171 37.6227 130.503 37.2907C130.835 36.9587 130.245 36.7227 129.19 36.7657C128.024 36.8137 127.787 37.0507 128.586 37.3697ZM124.583 38.3697C125.304 38.6587 126.168 38.6227 126.5 38.2907C126.832 37.9587 126.242 37.7227 125.187 37.7657C124.021 37.8137 123.784 38.0507 124.583 38.3697ZM120.58 39.3697C121.302 39.6587 122.165 39.6227 122.497 39.2907C122.83 38.9587 122.239 38.7227 121.184 38.7657C120.019 38.8137 119.782 39.0507 120.58 39.3697ZM194.131 43.5547C184.672 46.1247 176.604 48.5557 176.202 48.9567C174.644 50.5147 179.95 49.5117 196.169 45.1847C205.441 42.7107 213.209 40.6867 213.43 40.6867C213.651 40.6867 213.832 40.2367 213.832 39.6867C213.832 38.2547 213.149 38.3887 194.131 43.5547ZM116.577 40.3697C117.299 40.6587 118.162 40.6227 118.495 40.2907C118.827 39.9587 118.236 39.7227 117.182 39.7657C116.016 39.8137 115.779 40.0507 116.577 40.3697ZM110.26 41.6867C108.998 42.2287 108.814 42.5457 109.76 42.5457C110.585 42.5457 112.161 42.1597 113.262 41.6867C114.524 41.1447 114.708 40.8277 113.762 40.8277C112.937 40.8277 111.361 41.2137 110.26 41.6867ZM105.57 43.3697C106.291 43.6587 107.155 43.6227 107.487 43.2907C107.819 42.9587 107.229 42.7227 106.174 42.7657C105.008 42.8137 104.771 43.0507 105.57 43.3697ZM101.567 44.3697C102.288 44.6587 103.152 44.6227 103.484 44.2907C103.816 43.9587 103.226 43.7227 102.171 43.7657C101.005 43.8137 100.768 44.0507 101.567 44.3697ZM167.613 44.3697C168.334 44.6587 169.198 44.6227 169.53 44.2907C169.862 43.9587 169.272 43.7227 168.217 43.7657C167.051 43.8137 166.814 44.0507 167.613 44.3697ZM97.5641 45.3697C98.2856 45.6587 99.1492 45.6227 99.4814 45.2907C99.8136 44.9587 99.2232 44.7227 98.1685 44.7657C97.0027 44.8137 96.7655 45.0507 97.5641 45.3697ZM113.575 45.3697C114.297 45.6587 115.16 45.6227 115.493 45.2907C115.825 44.9587 115.234 44.7227 114.18 44.7657C113.014 44.8137 112.777 45.0507 113.575 45.3697ZM163.61 45.3697C164.331 45.6587 165.195 45.6227 165.527 45.2907C165.859 44.9587 165.269 44.7227 164.214 44.7657C163.049 44.8137 162.811 45.0507 163.61 45.3697ZM93.5613 46.3697C94.2828 46.6587 95.1464 46.6227 95.4786 46.2907C95.8109 45.9587 95.2205 45.7227 94.1657 45.7657C92.9999 45.8137 92.7628 46.0507 93.5613 46.3697ZM159.607 46.3697C160.329 46.6587 161.192 46.6227 161.524 46.2907C161.857 45.9587 161.266 45.7227 160.212 45.7657C159.046 45.8137 158.809 46.0507 159.607 46.3697ZM155.604 47.3697C156.326 47.6587 157.189 47.6227 157.522 47.2907C157.854 46.9587 157.264 46.7227 156.209 46.7657C155.043 46.8137 154.806 47.0507 155.604 47.3697ZM86.5564 48.3697C87.2779 48.6587 88.1415 48.6227 88.4738 48.2907C88.806 47.9587 88.2156 47.7227 87.1609 47.7657C85.9951 47.8137 85.7579 48.0507 86.5564 48.3697ZM151.602 48.3697C152.323 48.6587 153.187 48.6227 153.519 48.2907C153.851 47.9587 153.261 47.7227 152.206 47.7657C151.04 47.8137 150.803 48.0507 151.602 48.3697ZM82.5537 49.3697C83.2752 49.6587 84.1388 49.6227 84.471 49.2907C84.8032 48.9587 84.2128 48.7227 83.1581 48.7657C81.9923 48.8137 81.7551 49.0507 82.5537 49.3697ZM147.599 49.3697C148.32 49.6587 149.184 49.6227 149.516 49.2907C149.848 48.9587 149.258 48.7227 148.203 48.7657C147.037 48.8137 146.8 49.0507 147.599 49.3697ZM191.974 52.1857C185.18 54.0297 179.364 55.7977 179.048 56.1127C177.463 57.6967 180.298 57.4127 188.876 55.1267C194.071 53.7427 200.01 52.1597 202.074 51.6097C204.138 51.0597 205.826 50.1767 205.826 49.6477C205.826 48.3887 206.232 48.3147 191.974 52.1857ZM78.5509 50.3697C79.2724 50.6587 80.136 50.6227 80.4682 50.2907C80.8004 49.9587 80.21 49.7227 79.1553 49.7657C77.9895 49.8137 77.7523 50.0507 78.5509 50.3697ZM140.594 51.3697C141.315 51.6587 142.179 51.6227 142.511 51.2907C142.844 50.9587 142.253 50.7227 141.198 50.7657C140.033 50.8137 139.795 51.0507 140.594 51.3697ZM71.546 52.3697C72.2675 52.6587 73.1311 52.6227 73.4634 52.2907C73.7956 51.9587 73.2052 51.7227 72.1504 51.7657C70.9846 51.8137 70.7475 52.0507 71.546 52.3697ZM136.591 52.3697C137.313 52.6587 138.176 52.6227 138.508 52.2907C138.841 51.9587 138.25 51.7227 137.196 51.7657C136.03 51.8137 135.793 52.0507 136.591 52.3697ZM35.1488 53.7827C34.2662 55.2087 37.1872 58.1277 38.6142 57.2457C40.5215 56.0687 39.8941 52.6867 37.7686 52.6867C36.6998 52.6867 35.521 53.1797 35.1488 53.7827ZM67.5433 53.3697C68.2648 53.6587 69.1283 53.6227 69.4606 53.2907C69.7928 52.9587 69.2024 52.7227 68.1477 52.7657C66.9819 52.8137 66.7447 53.0507 67.5433 53.3697ZM132.588 53.3697C133.31 53.6587 134.173 53.6227 134.506 53.2907C134.838 52.9587 134.248 52.7227 133.193 52.7657C132.027 52.8137 131.79 53.0507 132.588 53.3697ZM146.285 56.7267C124.216 62.5637 123.679 62.7317 124.24 63.6377C124.735 64.4387 157.653 56.3837 160.673 54.7227C164.506 52.6137 158.863 53.4007 146.285 56.7267ZM63.5405 54.3697C64.262 54.6587 65.1256 54.6227 65.4578 54.2907C65.79 53.9587 65.1996 53.7227 64.1449 53.7657C62.9791 53.8137 62.7419 54.0507 63.5405 54.3697ZM126.271 54.6867C125.009 55.2287 124.825 55.5457 125.771 55.5457C126.596 55.5457 128.172 55.1597 129.273 54.6867C130.535 54.1447 130.719 53.8277 129.773 53.8277C128.948 53.8277 127.372 54.2137 126.271 54.6867ZM26.806 55.6017C24.8536 56.8367 26.2036 59.6867 28.7413 59.6867C30.3304 59.6867 30.7657 59.1567 30.5246 57.5147C30.1573 55.0207 28.8164 54.3317 26.806 55.6017ZM56.5356 56.3697C57.2571 56.6587 58.1207 56.6227 58.4529 56.2907C58.7852 55.9587 58.1948 55.7227 57.14 55.7657C55.9742 55.8137 55.7371 56.0507 56.5356 56.3697ZM82.1694 57.7597C82.1694 58.8197 82.5226 59.6867 82.9549 59.6867C83.3872 59.6867 83.7415 59.0387 83.7415 58.2457C83.7415 57.4527 83.3872 56.5867 82.9549 56.3187C82.5226 56.0517 82.1694 56.7007 82.1694 57.7597ZM121.581 56.3697C122.302 56.6587 123.166 56.6227 123.498 56.2907C123.83 55.9587 123.24 55.7227 122.185 55.7657C121.019 55.8137 120.782 56.0507 121.581 56.3697ZM220.65 56.3697C221.371 56.6587 222.235 56.6227 222.567 56.2907C222.899 55.9587 222.309 55.7227 221.254 55.7657C220.088 55.8137 219.851 56.0507 220.65 56.3697ZM52.5328 57.3697C53.2543 57.6587 54.1179 57.6227 54.4502 57.2907C54.7824 56.9587 54.192 56.7227 53.1373 56.7657C51.9714 56.8137 51.7343 57.0507 52.5328 57.3697ZM117.578 57.3697C118.299 57.6587 119.163 57.6227 119.495 57.2907C119.828 56.9587 119.237 56.7227 118.182 56.7657C117.017 56.8137 116.779 57.0507 117.578 57.3697ZM216.647 57.3697C217.368 57.6587 218.232 57.6227 218.564 57.2907C218.896 56.9587 218.306 56.7227 217.251 56.7657C216.085 56.8137 215.848 57.0507 216.647 57.3697ZM17.0592 59.1797C16.713 60.0827 16.9091 61.3007 17.4955 61.8867C19.0206 63.4107 21.9086 62.0177 21.5103 59.9517C21.067 57.6497 17.8608 57.0937 17.0592 59.1797ZM111.261 58.6867C109.999 59.2287 109.815 59.5457 110.76 59.5457C111.586 59.5457 113.162 59.1597 114.263 58.6867C115.525 58.1447 115.709 57.8277 114.763 57.8277C113.937 57.8277 112.361 58.2137 111.261 58.6867ZM212.644 58.3697C213.365 58.6587 214.229 58.6227 214.561 58.2907C214.894 57.9587 214.303 57.7227 213.248 57.7657C212.083 57.8137 211.845 58.0507 212.644 58.3697ZM45.528 59.3697C46.2495 59.6587 47.1131 59.6227 47.4453 59.2907C47.7775 58.9587 47.1871 58.7227 46.1324 58.7657C44.9666 58.8137 44.7294 59.0507 45.528 59.3697ZM56.3775 60.5157C51.8554 65.5087 57.6934 71.9137 63.7937 68.6517C64.8584 68.0817 65.729 66.8567 65.729 65.9287C65.729 64.5747 65.4208 64.6807 64.1709 66.4637C61.414 70.3987 55.722 68.8117 55.722 64.1087C55.722 61.5267 57.2991 60.0477 60.7255 59.4187L63.2273 58.9587L60.6305 58.8227C59.2025 58.7477 57.2881 59.5097 56.3775 60.5157ZM64.292 60.3937C63.7496 61.8187 63.8637 61.9337 64.8524 60.9537C65.5369 60.2747 65.8441 59.4677 65.5359 59.1607C65.2276 58.8527 64.6683 59.4077 64.292 60.3937ZM208.641 59.3697C209.363 59.6587 210.226 59.6227 210.559 59.2907C210.891 58.9587 210.3 58.7227 209.246 58.7657C208.08 58.8137 207.843 59.0507 208.641 59.3697ZM106.57 60.3697C107.292 60.6587 108.155 60.6227 108.488 60.2907C108.82 59.9587 108.229 59.7227 107.175 59.7657C106.009 59.8137 105.772 60.0507 106.57 60.3697ZM204.638 60.3697C205.36 60.6587 206.223 60.6227 206.556 60.2907C206.888 59.9587 206.298 59.7227 205.243 59.7657C204.077 59.8137 203.84 60.0507 204.638 60.3697ZM73.7345 61.0647C73.7345 61.2717 74.5221 62.0597 75.4858 62.8147C77.0729 64.0577 77.1079 64.0227 75.864 62.4367C74.5561 60.7707 73.7345 60.2417 73.7345 61.0647ZM102.568 61.3697C103.289 61.6587 104.153 61.6227 104.485 61.2907C104.817 60.9587 104.227 60.7227 103.172 60.7657C102.006 60.8137 101.769 61.0507 102.568 61.3697ZM200.636 61.3697C201.357 61.6587 202.221 61.6227 202.553 61.2907C202.885 60.9587 202.295 60.7227 201.24 60.7657C200.074 60.8137 199.837 61.0507 200.636 61.3697ZM34.5203 62.3697C35.2418 62.6587 36.1054 62.6227 36.4377 62.2907C36.7699 61.9587 36.1795 61.7227 35.1248 61.7657C33.959 61.8137 33.7218 62.0507 34.5203 62.3697ZM96.2502 62.6867C94.9883 63.2287 94.8042 63.5457 95.7498 63.5457C96.5754 63.5457 98.1515 63.1597 99.2523 62.6867C100.514 62.1447 100.698 61.8277 99.7526 61.8277C98.927 61.8277 97.3509 62.2137 96.2502 62.6867ZM196.633 62.3697C197.354 62.6587 198.218 62.6227 198.55 62.2907C198.882 61.9587 198.292 61.7227 197.237 61.7657C196.071 61.8137 195.834 62.0507 196.633 62.3697ZM139.28 66.4787C125.443 70.1957 125.08 70.3297 126.088 71.3377C126.788 72.0367 151.732 65.8617 153.127 64.6437C155.319 62.7307 151.202 63.2757 139.28 66.4787ZM192.63 63.3697C193.352 63.6587 194.215 63.6227 194.547 63.2907C194.88 62.9587 194.289 62.7227 193.234 62.7657C192.069 62.8137 191.832 63.0507 192.63 63.3697ZM91.5599 64.3697C92.2814 64.6587 93.145 64.6227 93.4772 64.2907C93.8095 63.9587 93.2191 63.7227 92.1643 63.7657C90.9985 63.8137 90.7614 64.0507 91.5599 64.3697ZM188.627 64.3697C189.349 64.6587 190.212 64.6227 190.545 64.2907C190.877 63.9587 190.286 63.7227 189.232 63.7657C188.066 63.8137 187.829 64.0507 188.627 64.3697ZM85.2425 65.6867C83.9807 66.2287 83.7965 66.5457 84.7422 66.5457C85.5678 66.5457 87.1439 66.1597 88.2446 65.6867C89.5065 65.1447 89.6906 64.8277 88.745 64.8277C87.9194 64.8277 86.3433 65.2137 85.2425 65.6867ZM184.625 65.3697C185.346 65.6587 186.21 65.6227 186.542 65.2907C186.874 64.9587 186.284 64.7227 185.229 64.7657C184.063 64.8137 183.826 65.0507 184.625 65.3697ZM44.7144 66.7177C44.7144 67.2507 45.3899 67.6867 46.2155 67.6867C47.041 67.6867 47.7165 67.5097 47.7165 67.2937C47.7165 67.0777 47.041 66.6417 46.2155 66.3247C45.3899 66.0087 44.7144 66.1857 44.7144 66.7177ZM180.622 66.3697C181.343 66.6587 182.207 66.6227 182.539 66.2907C182.871 65.9587 182.281 65.7227 181.226 65.7657C180.06 65.8137 179.823 66.0507 180.622 66.3697ZM80.5523 67.3697C81.2738 67.6587 82.1374 67.6227 82.4696 67.2907C82.8018 66.9587 82.2114 66.7227 81.1567 66.7657C79.9909 66.8137 79.7537 67.0507 80.5523 67.3697ZM176.619 67.3697C177.34 67.6587 178.204 67.6227 178.536 67.2907C178.869 66.9587 178.278 66.7227 177.223 66.7657C176.058 66.8137 175.82 67.0507 176.619 67.3697ZM40.4615 68.3487C41.1499 68.6267 42.2757 68.6267 42.9632 68.3487C43.6517 68.0717 43.0883 67.8447 41.7123 67.8447C40.3364 67.8447 39.774 68.0717 40.4615 68.3487ZM74.2349 68.6867C72.973 69.2287 72.7889 69.5457 73.7345 69.5457C74.5601 69.5457 76.1362 69.1597 77.237 68.6867C78.4988 68.1447 78.683 67.8277 77.7373 67.8277C76.9118 67.8277 75.3357 68.2137 74.2349 68.6867ZM88.3757 72.2567C72.2415 76.6607 70.9676 77.1157 72.4166 77.9657C73.2982 78.4827 108.472 69.3067 109.483 68.2967C111.014 66.7657 102.954 68.2787 88.3757 72.2567ZM172.616 68.3697C173.338 68.6587 174.201 68.6227 174.534 68.2907C174.866 67.9587 174.275 67.7227 173.221 67.7657C172.055 67.8137 171.818 68.0507 172.616 68.3697ZM223.117 68.9367C224.953 70.3177 228.512 79.2837 231.651 90.4367C233.263 96.1657 233.409 97.6867 232.346 97.6867C231.605 97.6867 221.621 96.0797 210.157 94.1147C188.734 90.4437 182.678 90.2327 178.435 93.0107C177.114 93.8757 171.851 100.795 166.738 108.386C157.275 122.439 149.685 132.788 146.535 135.937C145.571 136.899 143.529 137.687 141.995 137.687C139.279 137.687 118.721 131.073 101.936 124.798C92.7878 121.379 86.2572 120.853 81.7681 123.172C78.746 124.734 65.3757 139.052 50.2182 156.96L41.212 167.6L37.5374 156.393C35.517 150.23 32.6841 140.354 31.2431 134.447C28.4241 122.895 28.6202 121.08 32.9913 118.254C36.2095 116.174 214.964 67.8477 219.895 67.7257C220.753 67.7037 222.203 68.2497 223.117 68.9367ZM44.5863 70.4367C43.3425 72.0227 43.3775 72.0577 44.9646 70.8147C46.6317 69.5077 47.1611 68.6867 46.3375 68.6867C46.1304 68.6867 45.3419 69.4737 44.5863 70.4367ZM162.499 70.4057C159.308 71.2417 156.894 72.1217 157.134 72.3617C157.584 72.8107 169.971 69.8347 170.719 69.0977C171.458 68.3687 168.439 68.8487 162.499 70.4057ZM69.5446 70.3697C70.2661 70.6587 71.1297 70.6227 71.462 70.2907C71.7942 69.9587 71.2038 69.7227 70.1491 69.7657C68.9832 69.8137 68.7461 70.0507 69.5446 70.3697ZM63.2273 71.6867C61.9654 72.2287 61.7813 72.5457 62.7269 72.5457C63.5525 72.5457 65.1286 72.1597 66.2293 71.6867C67.4912 71.1447 67.6753 70.8277 66.7297 70.8277C65.9041 70.8277 64.328 71.2137 63.2273 71.6867ZM58.537 73.3697C59.2585 73.6587 60.1221 73.6227 60.4543 73.2907C60.7866 72.9587 60.1962 72.7227 59.1414 72.7657C57.9756 72.8137 57.7385 73.0507 58.537 73.3697ZM153.603 73.3697C154.324 73.6587 155.188 73.6227 155.52 73.2907C155.853 72.9587 155.262 72.7227 154.207 72.7657C153.042 72.8137 152.804 73.0507 153.603 73.3697ZM149.6 74.3697C150.322 74.6587 151.185 74.6227 151.518 74.2907C151.85 73.9587 151.259 73.7227 150.205 73.7657C149.039 73.8137 148.802 74.0507 149.6 74.3697ZM51.5321 75.3697C52.2536 75.6587 53.1172 75.6227 53.4495 75.2907C53.7817 74.9587 53.1913 74.7227 52.1366 74.7657C50.9708 74.8137 50.7336 75.0507 51.5321 75.3697ZM145.597 75.3697C146.319 75.6587 147.183 75.6227 147.515 75.2907C147.847 74.9587 147.257 74.7227 146.202 74.7657C145.036 74.8137 144.799 75.0507 145.597 75.3697ZM15.1939 76.6867C15.5342 77.2367 16.2627 77.6867 16.813 77.6867C17.3634 77.6867 17.5355 77.2367 17.1953 76.6867C16.8551 76.1367 16.1266 75.6867 15.5762 75.6867C15.0258 75.6867 14.8537 76.1367 15.1939 76.6867ZM137.279 77.2247C133.332 78.5887 133.325 78.5997 136.778 78.0177C140.86 77.3297 145.034 75.8067 142.782 75.8267C141.957 75.8347 139.48 76.4627 137.279 77.2247ZM86.8076 80.7277C74.388 84.1617 72.7999 84.7567 74.424 85.3657C75.835 85.8957 99.8266 79.7827 101.204 78.5427C102.964 76.9577 97.3719 77.8067 86.8076 80.7277ZM130.587 79.3697C131.309 79.6587 132.172 79.6227 132.504 79.2907C132.837 78.9587 132.246 78.7227 131.191 78.7657C130.026 78.8137 129.788 79.0507 130.587 79.3697ZM126.584 80.3697C127.306 80.6587 128.169 80.6227 128.502 80.2907C128.834 79.9587 128.243 79.7227 127.189 79.7657C126.023 79.8137 125.786 80.0507 126.584 80.3697ZM122.581 81.3697C123.303 81.6587 124.167 81.6227 124.499 81.2907C124.831 80.9587 124.241 80.7227 123.186 80.7657C122.02 80.8137 121.783 81.0507 122.581 81.3697ZM36.7089 86.3467C19.8842 90.9407 18.9465 91.2697 19.9182 92.2407C20.7138 93.0357 56.7227 83.5307 56.7227 82.5247C56.7227 81.1167 53.8598 81.6637 36.7089 86.3467ZM114.263 83.2247C110.316 84.5887 110.309 84.5997 113.762 84.0177C117.844 83.3297 122.018 81.8067 119.766 81.8267C118.941 81.8347 116.464 82.4627 114.263 83.2247ZM107.571 85.3697C108.293 85.6587 109.156 85.6227 109.488 85.2907C109.821 84.9587 109.23 84.7227 108.175 84.7657C107.01 84.8137 106.772 85.0507 107.571 85.3697ZM103.568 86.3697C104.29 86.6587 105.153 86.6227 105.486 86.2907C105.818 85.9587 105.227 85.7227 104.173 85.7657C103.007 85.8137 102.77 86.0507 103.568 86.3697ZM97.2509 87.6867C95.989 88.2287 95.8049 88.5457 96.7505 88.5457C97.5761 88.5457 99.1522 88.1597 100.253 87.6867C101.515 87.1447 101.699 86.8277 100.753 86.8277C99.9277 86.8277 98.3516 87.2137 97.2509 87.6867ZM92.5606 89.3697C93.2821 89.6587 94.1457 89.6227 94.4779 89.2907C94.8102 88.9587 94.2198 88.7227 93.165 88.7657C91.9992 88.8137 91.7621 89.0507 92.5606 89.3697ZM88.5578 90.3697C89.2793 90.6587 90.1429 90.6227 90.4752 90.2907C90.8074 89.9587 90.217 89.7227 89.1623 89.7657C87.9964 89.8137 87.7593 90.0507 88.5578 90.3697ZM82.2404 91.6867C80.9786 92.2287 80.7944 92.5457 81.7401 92.5457C82.5657 92.5457 84.1418 92.1597 85.2425 91.6867C86.5044 91.1447 86.6885 90.8277 85.7429 90.8277C84.9173 90.8277 83.3412 91.2137 82.2404 91.6867ZM34.026 95.0507C23.4777 98.0077 19.4419 99.6867 22.8853 99.6867C25.4601 99.6867 48.1578 93.5637 49.1675 92.5967C50.8777 90.9597 45.525 91.8277 34.026 95.0507ZM291.135 92.3757C292.098 92.6277 293.675 92.6277 294.638 92.3757C295.6 92.1247 294.813 91.9187 292.887 91.9187C290.96 91.9187 290.173 92.1247 291.135 92.3757ZM77.5502 93.3697C78.2717 93.6587 79.1353 93.6227 79.4675 93.2907C79.7998 92.9587 79.2093 92.7227 78.1546 92.7657C76.9888 92.8137 76.7516 93.0507 77.5502 93.3697ZM214.332 96.0487C236.354 99.6917 238.205 100.637 230.625 104.366C215.825 111.647 210.762 121.282 218.996 126.492L222.174 128.502L215.251 130.545C143.043 151.856 52.9821 177.687 50.8907 177.687C49.7849 177.687 48.1778 177.417 47.3182 177.088C45.1247 176.247 41.4231 169.964 42.2927 168.557C42.69 167.916 47.9306 161.767 53.9388 154.893C79.2704 125.913 82.7218 122.683 88.3627 122.691C89.9488 122.693 97.1008 124.765 104.256 127.296C127.849 135.641 138.038 138.687 142.361 138.687C146.141 138.687 147.048 138.2 150.293 134.437C152.307 132.099 158.848 122.935 164.827 114.071C170.806 105.207 177.108 96.7687 178.83 95.3207C183.094 91.7357 188.993 91.8567 214.332 96.0487ZM73.5474 94.3697C74.2689 94.6587 75.1325 94.6227 75.4647 94.2907C75.797 93.9587 75.2066 93.7227 74.1518 93.7657C72.986 93.8137 72.7489 94.0507 73.5474 94.3697ZM66.5426 96.3697C67.2641 96.6587 68.1276 96.6227 68.4599 96.2907C68.7921 95.9587 68.2017 95.7227 67.147 95.7657C65.9812 95.8137 65.744 96.0507 66.5426 96.3697ZM62.5398 97.3697C63.2613 97.6587 64.1249 97.6227 64.4571 97.2907C64.7893 96.9587 64.1989 96.7227 63.1442 96.7657C61.9784 96.8137 61.7412 97.0507 62.5398 97.3697ZM56.2224 98.6867C54.9605 99.2287 54.7764 99.5457 55.722 99.5457C56.5476 99.5457 58.1237 99.1597 59.2245 98.6867C60.4864 98.1447 60.6705 97.8277 59.7248 97.8277C58.8993 97.8277 57.3232 98.2137 56.2224 98.6867ZM51.5321 100.37C52.2536 100.659 53.1172 100.623 53.4495 100.291C53.7817 99.9587 53.1913 99.7227 52.1366 99.7657C50.9708 99.8137 50.7336 100.051 51.5321 100.37ZM44.5273 102.37C45.2488 102.659 46.1124 102.623 46.4446 102.291C46.7768 101.959 46.1864 101.723 45.1317 101.766C43.9659 101.814 43.7287 102.051 44.5273 102.37ZM40.5245 103.37C41.246 103.659 42.1096 103.623 42.4418 103.291C42.7741 102.959 42.1837 102.723 41.1289 102.766C39.9631 102.814 39.7259 103.051 40.5245 103.37ZM136.278 103.842C131.028 106.711 130.034 113.703 134.304 117.713C139.865 122.933 148.787 119.169 148.787 111.602C148.787 105.235 141.734 100.86 136.278 103.842ZM147.18 108.869C148.52 112.675 147.144 116.45 143.782 118.188C141.156 119.544 140.399 119.554 137.328 118.272C131.331 115.768 131.156 107.691 137.046 105.216C141.154 103.49 145.884 105.195 147.18 108.869ZM33.5196 105.37C34.2411 105.659 35.1047 105.623 35.437 105.291C35.7692 104.959 35.1788 104.723 34.1241 104.766C32.9583 104.814 32.7211 105.051 33.5196 105.37ZM233.595 137.349C234.284 137.627 235.41 137.627 236.097 137.349C236.786 137.072 236.222 136.845 234.846 136.845C233.47 136.845 232.908 137.072 233.595 137.349ZM245.46 138.839C246.502 140.298 247.555 141.298 247.799 141.061C248.045 140.825 247.192 139.631 245.904 138.409L243.564 136.187L245.46 138.839ZM229.656 138.37C230.377 138.659 231.241 138.623 231.573 138.291C231.905 137.959 231.315 137.723 230.26 137.766C229.094 137.814 228.857 138.051 229.656 138.37ZM225.653 139.37C226.374 139.659 227.238 139.623 227.57 139.291C227.903 138.959 227.312 138.723 226.257 138.766C225.092 138.814 224.854 139.051 225.653 139.37ZM218.648 141.37C219.37 141.659 220.233 141.623 220.565 141.291C220.898 140.959 220.307 140.723 219.253 140.766C218.087 140.814 217.85 141.051 218.648 141.37ZM236.638 148.963C234.659 152.386 231.592 158.112 229.822 161.687C228.052 165.262 226.478 168.328 226.324 168.501C226.171 168.674 222.942 167.254 219.15 165.346C211.134 161.311 199.64 156.536 199.142 157.033C198.953 157.222 204.658 160.231 211.819 163.72C218.98 167.209 224.839 170.39 224.839 170.79C224.839 171.19 222.847 176.617 220.411 182.852C215.944 194.289 214.232 199.687 215.074 199.687C215.326 199.687 218.149 193.415 221.347 185.748L227.162 171.81L231.254 173.88C233.505 175.019 239.468 178.366 244.504 181.319C249.541 184.271 254.019 186.687 254.456 186.687C255.772 186.687 243.646 178.466 236.018 174.187C232.097 171.987 228.878 169.804 228.865 169.337C228.852 168.869 231.547 162.835 234.853 155.927C238.161 149.02 240.723 143.227 240.55 143.054C240.377 142.881 238.616 145.54 236.638 148.963ZM250.888 150.187C250.888 150.737 251.325 151.862 251.858 152.687C252.392 153.512 252.828 153.737 252.828 153.187C252.828 152.637 252.392 151.512 251.858 150.687C251.325 149.862 250.888 149.637 250.888 150.187ZM170.051 156.376C171.015 156.628 172.59 156.628 173.554 156.376C174.517 156.125 173.729 155.919 171.803 155.919C169.876 155.919 169.088 156.125 170.051 156.376ZM176.619 156.37C177.34 156.659 178.204 156.623 178.536 156.291C178.869 155.959 178.278 155.723 177.223 155.766C176.058 155.814 175.82 156.051 176.619 156.37ZM165.611 157.37C166.333 157.659 167.196 157.623 167.529 157.291C167.861 156.959 167.27 156.723 166.216 156.766C165.05 156.814 164.813 157.051 165.611 157.37ZM182.012 161.165C183.209 163.628 184.36 165.472 184.569 165.262C185.023 164.81 180.979 156.687 180.301 156.687C180.044 156.687 180.814 158.702 182.012 161.165ZM160.608 158.37C161.329 158.659 162.193 158.623 162.525 158.291C162.857 157.959 162.267 157.723 161.212 157.766C160.046 157.814 159.809 158.051 160.608 158.37ZM253.891 158.187C253.891 158.737 254.327 159.862 254.86 160.687C255.394 161.512 255.83 161.737 255.83 161.187C255.83 160.637 255.394 159.512 254.86 158.687C254.327 157.862 253.891 157.637 253.891 158.187ZM156.605 159.37C157.327 159.659 158.19 159.623 158.522 159.291C158.855 158.959 158.264 158.723 157.209 158.766C156.044 158.814 155.807 159.051 156.605 159.37ZM171.797 164.937C170.119 167.824 166.913 174.012 164.672 178.687C162.43 183.362 160.488 187.302 160.356 187.443C160.224 187.584 155.399 185.476 149.635 182.759C133.759 175.275 131.537 175.706 146.335 183.398L159.395 190.187L155.203 201.187C148.821 217.937 148.975 221.001 155.417 205.437C158.547 197.875 161.627 191.687 162.26 191.687C162.893 191.687 169.128 195.02 176.114 199.094C183.098 203.168 188.81 206.205 188.805 205.844C188.795 205.096 175.801 196.432 168.3 192.172C165.548 190.61 163.123 189.2 162.91 189.039C162.464 188.703 164.784 183.218 171.2 169.437C173.697 164.074 175.538 159.687 175.292 159.687C175.047 159.687 173.473 162.05 171.797 164.937ZM149.6 161.37C150.322 161.659 151.185 161.623 151.518 161.291C151.85 160.959 151.259 160.723 150.205 160.766C149.039 160.814 148.802 161.051 149.6 161.37ZM132.525 167.259C128.646 169.362 129.085 170.088 133.026 168.086C136.798 166.168 137.466 165.672 136.195 165.727C135.69 165.749 134.038 166.438 132.525 167.259ZM126.265 171.693C125.266 172.797 124.634 173.877 124.859 174.095C125.085 174.313 126.08 173.41 127.069 172.089C129.252 169.171 128.767 168.932 126.265 171.693ZM186.283 171.521C188.241 177.879 191.676 187.061 191.742 186.112C191.837 184.728 187.022 170.549 186.193 169.775C185.846 169.451 185.887 170.237 186.283 171.521ZM123.848 177.27C123.896 178.435 124.134 178.672 124.453 177.875C124.742 177.153 124.706 176.29 124.374 175.958C124.041 175.626 123.805 176.216 123.848 177.27ZM105.256 177.178C105.807 177.362 107.509 177.788 109.04 178.126C110.697 178.492 112.619 180.044 113.789 181.964C114.871 183.737 115.758 184.59 115.76 183.86C115.767 181.347 110.063 176.683 107.085 176.766C105.529 176.809 104.706 176.995 105.256 177.178ZM95.7498 178.815C63.3583 187.584 52.6019 192.034 52.783 196.592C52.827 197.682 53.1202 197.509 53.7127 196.044C55.1787 192.412 70.1431 186.494 92.7477 180.606C98.5267 179.1 102.354 177.868 101.254 177.868C100.153 177.868 97.6762 178.294 95.7498 178.815ZM260.943 179.27C260.991 180.435 261.229 180.672 261.548 179.875C261.837 179.153 261.801 178.29 261.469 177.958C261.137 177.626 260.9 178.216 260.943 179.27ZM125.85 185.27C125.898 186.435 126.135 186.672 126.454 185.875C126.743 185.153 126.707 184.29 126.375 183.958C126.043 183.626 125.807 184.216 125.85 185.27ZM263.002 186.608C262.927 187.94 262.094 189.965 261.152 191.108C259.481 193.134 259.496 193.133 261.739 191.072C263.295 189.642 263.894 188.184 263.589 186.572L263.138 184.187L263.002 186.608ZM192.896 192.27C192.944 193.435 193.181 193.672 193.501 192.875C193.79 192.153 193.754 191.29 193.422 190.958C193.089 190.626 192.853 191.216 192.896 192.27ZM193.897 196.27C193.945 197.435 194.182 197.672 194.501 196.875C194.791 196.153 194.755 195.29 194.422 194.958C194.09 194.626 193.854 195.216 193.897 196.27ZM131.9 199.054C129.531 201.573 129.721 203.687 132.315 203.687C133.757 203.687 135.278 199.69 134.605 197.67C134.402 197.062 133.191 197.681 131.9 199.054ZM203.848 198.069C203.771 201.016 210.084 207.765 211.548 206.302C211.786 206.064 211.134 205.601 210.097 205.272C209.061 204.944 207.237 202.99 206.042 200.931C204.848 198.872 203.861 197.584 203.848 198.069ZM194.898 200.27C194.946 201.435 195.183 201.672 195.502 200.875C195.791 200.153 195.755 199.29 195.423 198.958C195.091 198.626 194.855 199.216 194.898 200.27ZM52.8781 201.687C52.8781 203.062 53.1052 203.625 53.3824 202.937C53.6606 202.25 53.6606 201.125 53.3824 200.437C53.1052 199.75 52.8781 200.312 52.8781 201.687ZM232.345 201.687C231.083 202.229 230.899 202.546 231.844 202.546C232.67 202.546 234.246 202.16 235.347 201.687C236.609 201.145 236.793 200.828 235.847 200.828C235.021 200.828 233.445 201.214 232.345 201.687ZM239.498 208.674C217.863 215.484 216.003 216.19 217.024 217.21C217.655 217.841 262.963 203.808 264.317 202.562C266.438 200.609 260.381 202.101 239.498 208.674ZM195.772 206.654C195.394 210.379 194.754 211.501 191.919 213.404C190.048 214.66 189.029 215.687 189.651 215.687C190.274 215.687 192.176 214.444 193.877 212.926C196.538 210.55 196.917 209.608 196.598 206.176L196.226 202.187L195.772 206.654ZM227.654 203.37C228.376 203.659 229.239 203.623 229.572 203.291C229.904 202.959 229.314 202.723 228.259 202.766C227.093 202.814 226.856 203.051 227.654 203.37ZM214.582 206.349C215.271 206.627 216.397 206.627 217.084 206.349C217.773 206.072 217.209 205.845 215.833 205.845C214.457 205.845 213.895 206.072 214.582 206.349ZM54.8004 209.27C54.8484 210.435 55.0856 210.672 55.4048 209.875C55.694 209.153 55.658 208.29 55.3258 207.958C54.9935 207.626 54.7574 208.216 54.8004 209.27ZM236.159 220.043C220.775 224.928 214.299 227.743 221.68 226.337C228.231 225.089 253.86 216.565 253.86 215.634C253.86 214.373 254.59 214.191 236.159 220.043ZM137.823 218.987C137.728 220.713 140.905 225.683 142.727 226.657C143.786 227.224 146.146 227.626 147.97 227.551C150.586 227.443 150.759 227.331 148.787 227.021C142.743 226.07 141.726 225.49 139.84 221.922C138.756 219.868 137.848 218.547 137.823 218.987ZM188.314 223.645C183.361 225.227 172.652 228.604 164.517 231.15C156.382 233.695 149.957 236.152 150.24 236.61C150.932 237.73 197.098 223.352 197.595 221.861C198.08 220.411 198.977 220.238 188.314 223.645ZM244.353 227.874C232.245 231.724 222.15 235.057 221.92 235.281C221.691 235.504 221.755 235.939 222.063 236.246C222.753 236.936 267.998 222.942 269.32 221.63C271.289 219.678 265.856 221.036 244.353 227.874ZM160.608 224.37C161.329 224.659 162.193 224.623 162.525 224.291C162.857 223.959 162.267 223.723 161.212 223.766C160.046 223.814 159.809 224.051 160.608 224.37ZM152.602 226.37C153.324 226.659 154.187 226.623 154.52 226.291C154.852 225.959 154.261 225.723 153.207 225.766C152.041 225.814 151.804 226.051 152.602 226.37ZM169.301 239.92C160.495 242.68 153.103 245.107 152.872 245.313C152.643 245.519 152.759 245.99 153.13 246.36C153.98 247.211 187.814 236.628 187.814 235.512C187.814 234.226 186.373 234.569 169.301 239.92ZM177.849 247.648C166.039 251.381 156.188 254.999 155.959 255.686C155.716 256.411 156.121 256.727 156.917 256.439C157.674 256.165 168.308 252.846 180.549 249.064C200.443 242.917 206.401 240.51 201.073 240.774C200.109 240.821 189.659 243.915 177.849 247.648ZM273.686 242.37C274.408 242.659 275.271 242.623 275.604 242.291C275.936 241.959 275.345 241.723 274.291 241.766C273.125 241.814 272.888 242.051 273.686 242.37ZM256.674 247.37C257.396 247.659 258.26 247.623 258.592 247.291C258.924 246.959 258.334 246.723 257.279 246.766C256.113 246.814 255.876 247.051 256.674 247.37ZM137.709 250.44C143.816 253.426 142.841 259.537 135.664 263.246C133.261 264.487 132.845 264.387 130.658 262.037C129.346 260.628 126.396 258.177 124.102 256.59C120.073 253.802 119.973 253.601 121.1 250.584L122.268 247.462L128.202 248.078C131.466 248.417 135.744 249.48 137.709 250.44ZM276.327 250.12C274.314 253.19 275.851 256.687 279.212 256.687C283.752 256.687 285.781 250.774 281.945 248.722C279.074 247.187 278.09 247.431 276.327 250.12ZM282.691 253.005C282.229 256.24 277.501 256.069 277.039 252.8C276.852 251.487 277.279 250.056 277.985 249.62C280.022 248.362 283.042 250.534 282.691 253.005ZM262.897 254.629C261.116 257.955 263.25 260.876 267.185 260.495C270.1 260.213 270.371 259.889 270.371 256.687C270.371 253.485 270.1 253.161 267.185 252.879C264.797 252.647 263.723 253.086 262.897 254.629ZM269.37 256.673C269.37 259.72 266.082 260.7 264.252 258.199C262.412 255.686 263.661 253.525 266.746 253.883C268.793 254.12 269.37 254.734 269.37 256.673ZM249.892 258.621C249.322 259.685 248.856 261.025 248.856 261.598C248.856 263.277 253.428 265.79 255.229 265.099C257.417 264.26 258.405 260.045 256.851 258.174C255.104 256.071 251.121 256.327 249.892 258.621ZM256.361 260.687C256.361 262.641 255.788 263.253 253.737 263.491C250.708 263.842 249.134 261.262 251.003 259.012C252.922 256.701 256.361 257.776 256.361 260.687ZM236.647 263.229C235.659 265.396 235.792 266.077 237.551 267.834C240.14 270.422 243.595 269.558 244.462 266.107C245.772 260.892 238.87 258.351 236.647 263.229ZM243.245 263.996C244.129 265.438 243.971 266.088 242.464 267.207C238.985 269.789 235.048 265.885 238.078 262.858C239.684 261.253 241.858 261.732 243.245 263.996ZM148.569 269.828C155.906 272.213 160.795 275.922 160.795 279.102C160.795 281.708 157.494 285.099 153.475 286.62C148.189 288.622 147.096 288.046 143.77 281.504C142.041 278.104 139.245 273.317 137.558 270.866L134.491 266.411L138.386 267.097C140.529 267.475 145.112 268.704 148.569 269.828ZM213.832 270.407C204.829 273.065 204.162 273.357 205.057 274.251C205.803 274.997 223.905 270.021 225.219 268.708C226.837 267.091 223.253 267.626 213.832 270.407ZM217.894 277.588C212.697 279.099 208.245 280.936 208 281.67C207.709 282.544 208.095 282.798 209.116 282.407C209.976 282.077 215.217 280.549 220.762 279.011C226.306 277.473 230.844 275.871 230.844 275.451C230.844 274.198 227.857 274.691 217.894 277.588ZM176.498 281.135C170.549 282.969 165.408 284.744 165.073 285.078C163.831 286.32 165.564 286.666 168.388 285.741C169.991 285.216 175.243 283.612 180.058 282.176C184.875 280.741 188.814 279.143 188.814 278.626C188.814 277.344 188.741 277.359 176.498 281.135ZM182.31 287.514C165.976 292.462 166.167 292.388 167.122 293.343C167.739 293.96 194.709 286.351 197.699 284.717C198.458 284.303 198.683 283.739 198.199 283.465C197.716 283.191 190.566 285.013 182.31 287.514ZM219.836 285.386C211.69 287.736 207.65 289.687 210.931 289.687C212.716 289.687 228.764 285.098 229.48 284.383C231.024 282.84 227.326 283.225 219.836 285.386ZM223.019 292.685C217.891 294.228 213.425 295.76 213.096 296.089C211.414 297.769 214.439 297.372 223.902 294.669C229.644 293.029 234.455 291.687 234.594 291.687C234.733 291.687 234.846 291.237 234.846 290.687C234.846 289.29 233.607 289.499 223.019 292.685ZM162.433 299.983C174.089 307.414 172.961 314.267 159.763 316.188L155.23 316.848L152.786 306.518C151.442 300.836 150.186 295.627 149.992 294.941C149.568 293.433 156.675 296.313 162.433 299.983ZM180.862 296.096C176.763 297.346 173.212 298.962 172.97 299.687C172.703 300.488 173.074 300.799 173.918 300.479C174.681 300.189 179.246 298.752 184.061 297.287C188.877 295.822 192.817 294.412 192.817 294.155C192.817 293.143 187.967 293.931 180.862 296.096ZM188.814 302.325C178.102 305.605 173.433 307.687 176.787 307.687C178.92 307.687 202.201 300.542 203.274 299.558C205.097 297.889 200.313 298.804 188.814 302.325ZM221.399 301.582C218.131 302.535 215.255 303.92 215.009 304.66C214.7 305.582 215.098 305.799 216.269 305.35C217.21 304.989 220.874 303.923 224.412 302.981C227.95 302.039 230.844 300.913 230.844 300.478C230.844 299.312 228.073 299.636 221.399 301.582ZM184.877 313.054C179.133 314.838 174.254 316.836 174.035 317.493C173.816 318.151 174.237 318.488 174.971 318.244C175.705 317.999 180.934 316.401 186.59 314.692C192.247 312.983 196.611 311.157 196.288 310.636C195.965 310.114 195.615 309.715 195.51 309.748C195.405 309.782 190.62 311.269 184.877 313.054Z" fill="#121A17"/>
</svg>
