<svg width="216" height="224" viewBox="0 0 216 224" fill="none" xmlns="http://www.w3.org/2000/svg">
<path fill-rule="evenodd" clip-rule="evenodd" d="M54.4935 1.78527C51.6297 3.20417 48.7989 7.05802 48.1752 10.3871C47.3673 14.6974 50.2935 20.1922 54.5553 22.3686C56.4652 23.3439 57.7515 23.5536 60.677 23.3675C65.1136 23.0848 68.0627 21.101 70.1621 16.988C75.1753 7.16522 64.5134 -3.17944 54.4935 1.78527ZM63.7003 2.0085C70.7576 4.95999 72.7264 13.0817 67.8267 19.0313C64.6441 22.8963 59.9639 23.9117 55.2367 21.7631C48.7118 18.7968 47.0625 9.94001 52.0781 4.80449C55.5868 1.21217 59.5291 0.263284 63.7003 2.0085ZM54.4847 7.28125C54.5818 7.92915 54.4635 9.21377 54.2222 10.1356C53.9498 11.1746 54.044 12.1258 54.4688 12.6388C55.3037 13.6454 54.3523 13.7491 53.3632 12.759C52.8142 12.2094 52.6571 12.3302 52.6571 13.3026C52.6571 15.1609 55.3861 18.0635 57.7462 18.7161C61.6626 19.7981 63.9186 17.9292 65.1507 12.5823L65.965 9.04826L64.3663 7.723C62.3911 6.08498 60.8135 6.03845 59.4237 7.57575C58.0628 9.08065 57.4708 9.05709 55.7268 7.4285C54.3735 6.1645 54.3158 6.15743 54.4847 7.28125ZM105.025 7.86436C101.128 9.13896 96.8862 12.6795 94.7862 16.4108C93.1016 19.4041 92.9628 20.0762 92.9657 25.2458C92.968 30.174 93.1563 31.1989 94.5461 33.8394C98.5367 41.424 107.449 45.1093 115.872 42.6579C123.936 40.3113 128.253 34.9538 128.955 26.4238C129.54 19.3317 125.476 12.2677 118.876 8.90336C115.204 7.03151 108.996 6.56561 105.025 7.86436ZM63.2484 8.75376C63.2484 9.07771 62.9836 9.34276 62.66 9.34276C62.3363 9.34276 62.0716 9.07771 62.0716 8.75376C62.0716 8.4298 62.3363 8.16475 62.66 8.16475C62.9836 8.16475 63.2484 8.4298 63.2484 8.75376ZM73.8396 12.2878C74.3251 12.6017 75.9137 12.8444 77.37 12.8261C79.3853 12.802 79.7366 12.673 78.8411 12.2878C77.1282 11.5509 72.7005 11.5509 73.8396 12.2878ZM85.9019 13.4658C86.102 13.7897 87.7724 14.0283 89.6141 13.9959C92.1784 13.9511 92.6179 13.8268 91.4917 13.4658C89.3141 12.7678 85.4706 12.7678 85.9019 13.4658ZM115.305 14.2639C117.093 15.5726 116.055 17.1353 113.693 16.6917C111.153 16.2152 109.699 17.7737 109.29 21.4132L108.986 24.1067L111.345 23.7291C112.73 23.5077 113.856 23.599 114.073 23.9512C114.818 25.1581 113.721 26.2943 111.461 26.6559L109.144 27.027V31.7319C109.144 36.0081 109.039 36.4369 107.994 36.4369C106.414 36.4369 106.055 34.0873 106.298 25.3636C106.468 19.261 106.67 18.0252 107.729 16.5987C109.901 13.6761 113.139 12.6783 115.305 14.2639ZM171.925 21.7684C163.405 23.7751 153.315 32.1819 149.68 40.3025C144.026 52.9372 146.707 67.0102 156.657 76.9161C163.876 84.1019 173.015 87.6294 182.575 86.9185C197.994 85.7723 211.212 73.5847 213.386 58.5086C215.617 43.0402 204.546 26.749 188.618 22.0629C185.122 21.0345 175.743 20.8684 171.925 21.7684ZM190.638 23.9653C195.472 25.7259 201.671 30.0857 204.791 33.9189C213.622 44.7707 214.72 60.1148 207.443 70.9819C206.173 72.8767 204.096 75.4371 202.827 76.6716L200.519 78.9152L200.196 72.5734C199.974 68.2218 200.134 64.9758 200.705 62.2305C201.656 57.6681 201.176 55.7461 198.329 52.7122C196.945 51.2379 196.454 51.0695 194.469 51.3869C191.703 51.8299 191.244 50.7779 192.836 47.6509C194.678 44.0321 193.912 40.696 190.8 38.7935C189.736 38.1432 187.949 37.6461 186.813 37.6844C185.68 37.7227 183.43 37.5654 181.812 37.3357C179.278 36.9764 178.686 37.0924 177.546 38.1733C176.817 38.863 176.222 40.0445 176.222 40.7979C176.222 41.5512 176.817 42.9253 177.546 43.8507C178.465 45.0192 178.96 46.6201 179.164 49.0839C179.351 51.3428 179.722 52.6344 180.182 52.6344C180.581 52.6344 181.303 53.2005 181.786 53.8926C182.271 54.584 183.335 55.3179 184.152 55.5235C185.983 55.9835 185.999 56.8511 184.214 59.0357L182.833 60.725L181.559 59.3302C178.618 56.1101 177.699 55.3079 176.264 54.7042C175.432 54.3543 173.888 52.7511 172.834 51.1425C171.077 48.4602 170.726 48.2169 168.616 48.2169C164.624 48.2169 164.191 48.6451 165.908 50.8975C166.726 51.9718 167.396 53.3418 167.396 53.9432C167.396 54.544 167.947 56.086 168.62 57.3694C169.301 58.667 169.919 61.1067 170.013 62.8666C170.14 65.245 170.861 67.3731 172.914 71.4325L175.647 76.8342L174.661 80.9319C174.119 83.1854 173.631 85.0967 173.575 85.1786C173.333 85.5308 166.394 82.8373 164.147 81.5191C153.272 75.1396 147.361 64.4463 148.181 52.6344C149.154 38.6121 158.406 26.9062 171.515 23.1119C175.673 21.9085 186.29 22.3821 190.638 23.9653ZM25.3752 26.18C18.2372 27.9099 10.0355 33.6132 5.83193 39.7706C-5.4207 56.255 0.131478 77.9769 18.0019 87.3768C29.2934 93.3163 42.2453 92.5629 52.4741 85.373C67.805 74.5948 71.2689 55.9046 60.83 40.2813C52.9801 28.5331 38.8537 22.9146 25.3752 26.18ZM39.8305 27.0664C45.395 28.2132 51.3655 31.5817 55.8933 36.1288C68.7723 49.0633 68.6987 69.1218 55.7286 81.2676C52.1923 84.579 43.8169 89.4471 41.6557 89.4471C41.1173 89.4471 40.889 88.4676 40.889 86.1552V82.8632L42.6995 84.3882C45.2379 86.5262 47.0684 86.3478 49.6939 83.7043C52.2587 81.1221 54.1393 76.4849 55.0731 70.4382C55.7062 66.3405 57.2867 62.2458 58.5329 61.4748C59.269 61.0195 59.3278 56.655 58.6035 56.2073C58.314 56.0283 58.5505 54.3573 59.1295 52.4913C60.1757 49.1169 60.1751 49.0981 58.9424 48.6316C58.2611 48.3736 56.5382 48.2411 55.1149 48.3371L52.5259 48.5114L50.5288 54.107C49.4309 57.1845 48.3835 60.166 48.2011 60.7332C47.9352 61.5631 48.2229 61.764 49.6757 61.764C52.0958 61.764 52.0722 63.3354 49.5962 67.1604L47.7122 70.0713L46.7607 66.6539C45.0102 60.3645 42.7231 57.1097 37.947 54.1123L35.8876 52.82L37.6528 53.1969C38.6237 53.4043 39.887 53.7135 40.4601 53.8843C42.1717 54.3932 44.6377 48.3029 44.6801 43.4643C44.7831 31.6071 32.5054 24.1026 26.1772 32.1548C23.0416 36.1447 22.3472 41.7803 24.4267 46.3669C25.9077 49.6347 25.8883 49.9839 24.2243 49.9839C23.4729 49.9839 21.5535 50.4216 19.9583 50.957C15.8436 52.3376 9.06521 59.3249 5.78074 65.5713L3.32886 70.2338L2.29563 66.7352C0.271518 59.8815 1.21649 50.9676 4.69337 44.1192C8.8728 35.8862 17.4394 29.2434 26.7156 27.0429C29.7876 26.3143 36.2365 26.3261 39.8305 27.0664ZM130.326 32.2709C130.326 32.5283 131.806 33.3063 133.615 33.999C137.376 35.4397 137.387 35.4421 137.387 34.7241C137.387 34.4296 135.799 33.6521 133.857 32.9953C131.915 32.3392 130.326 32.0129 130.326 32.2709ZM86.9316 34.065C85.5559 34.6899 84.4309 35.4792 84.4309 35.819C84.4309 36.6613 84.4162 36.666 88.0143 34.6805C91.5623 32.7232 90.8174 32.2997 86.9316 34.065ZM141.212 36.8969C142.157 37.9147 147.901 39.9838 148.243 39.4296C148.415 39.1522 147.285 38.509 145.734 38.0007C144.182 37.493 142.397 36.8939 141.768 36.6701C140.966 36.385 140.799 36.4534 141.212 36.8969ZM76.6345 39.1804C75.4213 39.6846 74.428 40.3373 74.428 40.6306C74.428 41.206 78.4768 39.684 79.4 38.7623C80.2062 37.9571 79.2235 38.1055 76.6345 39.1804ZM43.1079 39.8607C43.2462 40.2754 42.9861 40.4244 42.4701 40.2259C41.7957 39.9674 41.5039 40.5994 41.1779 43.0237C40.4895 48.1433 38.3995 50.5729 34.6831 50.5729C32.2566 50.5729 32.9279 52.7222 35.7405 53.9591C37.7499 54.8426 37.7728 55.4622 35.8511 56.9754C33.4063 58.9008 30.6973 59.5611 28.1089 58.8631C25.8571 58.2565 22.8074 55.5842 21.537 53.1051C20.9268 51.9141 21.0522 51.7592 23.0845 51.1943C24.3013 50.8562 25.7335 50.5782 26.2672 50.5765C27.7329 50.5712 28.9456 45.084 27.9094 43.1456C27.2957 41.9977 27.2904 41.5706 27.8824 40.9899C28.469 40.4144 28.8879 40.5982 29.9224 41.8852C31.7076 44.1057 33.4787 43.9508 37.9876 41.1783C41.8205 38.8218 42.6878 38.5985 43.1079 39.8607ZM67.8085 43.545C66.5952 44.1864 65.602 44.9774 65.602 45.3037C65.602 45.6294 66.6593 45.2919 67.9509 44.5533C69.243 43.8147 70.3021 43.0113 70.3045 42.7687C70.3104 42.2038 70.398 42.1761 67.8085 43.545ZM35.0515 44.4373C35.0797 45.1235 35.2192 45.2631 35.4069 44.7936C35.5769 44.3684 35.5557 43.8601 35.3604 43.6645C35.165 43.469 35.0262 43.8165 35.0515 44.4373ZM185.636 44.9774C185.636 45.5376 186.199 45.8609 187.176 45.8609C188.501 45.8609 188.677 46.0665 188.434 47.3334C188.264 48.2258 188.425 48.8059 188.842 48.8059C189.904 48.8059 191.363 50.1477 191.758 51.4882C192.039 52.4413 191.56 53.0892 189.503 54.5405C187.286 56.1049 186.785 56.2562 186.192 55.54C185.807 55.0759 185.054 54.696 184.518 54.696C182.717 54.696 180.517 51.437 180.218 48.3259L179.941 45.4339L182.053 44.8384C185.122 43.9732 185.636 43.9932 185.636 44.9774ZM39.1238 45.5664C39.1238 46.0523 39.228 46.4499 39.3551 46.4499C39.4821 46.4499 39.7387 46.0523 39.9252 45.5664C40.1112 45.0805 40.007 44.6829 39.694 44.6829C39.3804 44.6829 39.1238 45.0805 39.1238 45.5664ZM117.97 44.9945C117.97 45.3338 121.5 52.4813 121.865 52.8801C121.988 53.0149 122.252 52.9625 122.451 52.7628C122.649 52.5638 121.842 50.6642 120.657 48.5421C118.715 45.0664 117.97 44.0827 117.97 44.9945ZM37.188 46.4499C37.0191 47.0978 37.1203 47.6279 37.4139 47.6279C37.7069 47.6279 37.947 47.0978 37.947 46.4499C37.947 45.802 37.8452 45.2719 37.7216 45.2719C37.5975 45.2719 37.3574 45.802 37.188 46.4499ZM180.929 46.0924C180.929 46.2196 181.326 46.4764 181.812 46.6631C182.297 46.8493 182.694 46.745 182.694 46.4317C182.694 46.1177 182.297 45.8609 181.812 45.8609C181.326 45.8609 180.929 45.9652 180.929 46.0924ZM32.6514 47.6415C32.6514 47.9784 33.0597 48.4107 33.5593 48.6027C34.9397 49.1328 35.1015 48.5603 33.8017 47.7481C33.0733 47.2928 32.6514 47.2539 32.6514 47.6415ZM181.261 47.8005C181.482 48.3813 181.811 48.7082 181.992 48.5267C182.174 48.3459 181.993 47.8706 181.59 47.4707C181.009 46.8934 180.942 46.9612 181.261 47.8005ZM59.023 49.7106C59.1266 49.7978 58.8942 50.9287 58.5064 52.2239C57.9468 54.0922 57.4591 54.6477 56.144 54.9109C55.2319 55.0935 54.1758 55.8239 53.7962 56.5336C53.2055 57.6386 53.2979 57.9702 54.437 58.8302C55.1761 59.3879 55.5844 60.133 55.3549 60.5053C54.9213 61.2074 49.1267 61.4642 49.1267 60.7809C49.1267 60.5636 50.0699 57.8153 51.2232 54.673L53.3202 48.9591L56.0775 49.2553C57.5944 49.4185 58.9201 49.6229 59.023 49.7106ZM172.939 52.7817C175.129 56.1531 175.373 56.8128 174.547 57.1209C174.004 57.3241 173.366 57.1291 173.103 56.6791C172.844 56.2362 172.315 55.8751 171.927 55.8763C171.538 55.8775 169.972 54.4857 168.447 52.784C166.104 50.1683 165.831 49.6276 166.682 49.2889C169.379 48.2181 170.314 48.74 172.939 52.7817ZM184.455 51.7592C183.968 52.671 183.997 52.9095 184.581 52.7899C185.907 52.519 186.851 50.5729 185.657 50.5729C185.345 50.5729 184.804 51.1066 184.455 51.7592ZM196.802 52.3323C199.612 53.8378 201.428 60.3557 199.758 62.942C199.251 63.7271 199.187 63.7271 199.186 62.942C199.183 61.5036 195.988 54.7289 195.305 54.7119C194.055 54.6801 188.595 56.5148 188.716 56.9253C188.784 57.1568 188.139 58.5392 187.283 59.997C186.427 61.4548 185.327 64.1972 184.84 66.0914C184.352 67.9856 183.823 69.6655 183.665 69.8239C183.506 69.9823 182.923 69.4181 182.367 68.5693C181.393 67.0827 181.415 66.8924 182.941 63.296C184.676 59.2107 185.951 57.7971 191.177 54.1682C194.955 51.5442 195.188 51.4682 196.802 52.3323ZM19.3952 54.0528C20.0019 55.9658 24.7609 59.8862 27.311 60.5742C30.5672 61.4518 33.3469 60.8304 36.9114 58.4291L39.8887 56.4235L41.3286 57.7688C43.1497 59.4692 45.175 63.3726 44.6648 64.1989C43.7487 65.6832 37.0161 69.4134 34.0577 70.076C27.9194 71.4513 19.8895 68.8656 14.3149 63.7195C11.706 61.3105 11.4441 61.1738 12.5868 62.8165C17.1069 69.3144 29.6652 72.9904 37.3521 70.0666L40.3006 68.9451V72.3501V75.7551L37.2115 77.0993C32.9903 78.9369 25.0109 78.9564 20.2949 77.1405C15.0805 75.1332 15.1246 75.1932 16.6244 72.1022C18.059 69.1471 17.9272 68.3679 16.4703 71.188C15.9684 72.1599 15.2193 72.955 14.8057 72.955C13.4329 72.955 9.34764 69.5088 8.20673 67.3884C7.097 65.3251 7.09759 65.2703 8.24615 63.1322C8.88575 61.9413 10.4686 59.7967 11.763 58.3672L14.1167 55.7685L16.5315 58.0721C20.6015 61.9542 23.8589 63.1988 30.0036 63.2188C34.579 63.2341 35.7711 63.015 38.7719 61.6085C40.6825 60.7126 42.1288 59.8639 41.987 59.7219C41.8452 59.58 40.283 60.1802 38.5154 61.0554C35.8317 62.3848 34.5254 62.6475 30.5931 62.6469C25.0115 62.6463 20.6968 60.9488 17.0834 57.3323L14.8569 55.103L16.252 54.0292C18.049 52.6462 18.951 52.6527 19.3952 54.0528ZM172.056 56.7869C172.578 56.463 172.723 56.8688 172.586 58.2712C172.308 61.112 171.421 60.9429 169.602 57.701C167.513 53.9768 167.552 52.6633 169.676 55.2278C170.713 56.4783 171.607 57.0643 172.056 56.7869ZM57.8356 58.0545C57.9751 59.9298 57.622 61.0177 56.1769 63.1611C54.5988 65.5012 54.1805 65.7987 53.2049 65.2762C51.9339 64.5953 51.9286 64.5818 52.4259 63.2848C52.6224 62.7724 53.3744 62.353 54.0963 62.353C54.9148 62.353 55.6544 61.8158 56.0581 60.9294C56.6094 59.7184 56.5135 59.362 55.4173 58.5474C54.1381 57.5962 54.1416 57.5915 55.8933 57.886C56.8642 58.0497 57.2978 58.0291 56.8565 57.8406C56.1793 57.5514 56.1793 57.4118 56.8565 56.9418C57.4067 56.5602 57.216 56.5113 56.2487 56.7857C55.0007 57.1397 54.9336 57.0796 55.6603 56.2592C56.9201 54.8385 57.6409 55.4334 57.8356 58.0545ZM178.35 56.8493C180.435 58.442 180.886 60.5112 179.263 61.0466C178.728 61.2233 178.541 60.8663 178.674 59.921C178.79 59.1046 178.568 58.5345 178.134 58.531C177.73 58.5274 177.465 58.3537 177.546 58.1446C177.626 57.9355 177.189 57.2069 176.572 56.5248C175.025 54.8138 175.891 54.9722 178.35 56.8493ZM197.106 59.6978C198.767 63.0268 198.879 63.7012 199.082 71.5632L199.297 79.8988L196.634 81.4608C191.357 84.5566 187.599 85.5426 180.929 85.5821L174.751 85.6186L174.938 83.8516C175.04 82.8797 175.384 81.0809 175.702 79.854L176.279 77.6241L178.7 79.6985C185.372 85.4154 193.773 81.2187 196.799 70.6568C197.117 69.5494 197.107 68.832 196.775 68.832C196.474 68.832 196.228 69.3103 196.228 69.8946C196.228 71.9043 193.178 77.0786 190.784 79.1295C187.557 81.8943 185.235 82.2707 181.769 80.5915C177.413 78.4805 172.124 70.7192 171.064 64.8804C170.538 61.9801 170.573 61.8453 172.046 61.1679C173.509 60.4947 173.791 60.6932 178.663 65.8263C181.462 68.7755 183.882 71.188 184.042 71.188C184.202 71.188 184.784 69.3439 185.336 67.0903C186.578 62.0184 189.501 56.9589 191.52 56.387C194.471 55.5512 195.275 56.0283 197.106 59.6978ZM175.991 58.4838C175.71 59.6018 175.986 60.169 177.25 61.0719C178.141 61.708 179.19 63.0834 179.58 64.1277C180.268 65.9648 180.179 65.9235 176.852 62.8642C174.96 61.1255 173.383 59.4115 173.346 59.0563C173.31 58.7006 173.875 58.1222 174.604 57.7705C176.422 56.8929 176.393 56.8782 175.991 58.4838ZM177.693 59.997C177.893 60.3209 177.792 60.586 177.468 60.586C177.144 60.586 176.716 60.3209 176.516 59.997C176.316 59.673 176.417 59.408 176.741 59.408C177.064 59.408 177.493 59.673 177.693 59.997ZM126.767 63.9551C127.695 66.1314 128.737 68.0068 129.082 68.1223C129.427 68.2377 128.882 66.4566 127.871 64.1642C126.86 61.8724 125.818 59.997 125.556 59.997C125.294 59.997 125.839 61.7781 126.767 63.9551ZM182.38 61.1426C182.569 61.4489 182.356 62.5756 181.906 63.6458L181.089 65.5925L180.334 63.9904C179.724 62.6946 179.722 62.2152 180.326 61.4872C181.18 60.4564 181.883 60.3386 182.38 61.1426ZM44.3265 72.8013C42.9214 74.2597 42.3041 75.1803 42.9549 74.8475C43.6057 74.5147 44.6401 73.6878 45.2526 73.0098C46.6118 71.5067 47.3391 71.4389 47.4297 72.8078C47.4944 73.7896 47.5109 73.7896 47.7669 72.8078C48.1305 71.4148 48.6701 71.509 50.3035 73.2495C51.0637 74.0594 51.9557 74.722 52.2864 74.722C52.6171 74.722 52.0416 73.848 51.0072 72.7795C49.1573 70.8694 48.6218 69.2137 49.6486 68.5787C49.9351 68.4015 50.5094 68.6653 50.9237 69.1654C51.3385 69.6655 52.2293 70.3593 52.903 70.7074C53.8315 71.1874 53.7115 70.8965 52.4058 69.5035C50.437 67.4037 50.623 66.6992 52.8754 67.7265C54.6624 68.5416 54.7112 69.0052 53.5332 74.0041C52.5582 78.1447 50.8984 81.7406 49.3791 83.0028C48.4747 83.7544 48.4023 83.7191 48.693 82.6689C49.5686 79.5024 49.7239 78.0187 49.3756 76.1592C48.9766 74.03 47.9499 73.3556 47.9499 75.2227C47.9499 77.5628 42.7042 83.2096 41.5739 82.0858C41.3592 81.8719 41.0508 78.7361 40.889 75.1173L40.5948 68.5375L42.9484 66.7204L45.302 64.9028L46.0917 67.5262L46.8807 70.1496L44.3265 72.8013ZM92.928 65.5737C92.3002 66.0496 91.2034 66.4471 90.4915 66.4572C89.7795 66.4678 88.9851 66.8335 88.7262 67.2706C88.1043 68.3208 85.5236 68.9186 84.458 68.2595C83.4112 67.6122 81.4889 68.5505 81.4889 69.7085C81.4889 70.1679 80.4297 71.3954 79.1353 72.4367C77.8414 73.4781 76.9152 74.4629 77.0776 74.6254C77.24 74.788 76.9429 75.3965 76.4174 75.9778C75.892 76.5586 75.6207 77.4474 75.8143 77.9527C76.0138 78.4728 75.6607 79.3781 75.0029 80.0366C74.3633 80.6769 73.8396 81.644 73.8396 82.1853C73.8396 82.7266 73.3989 83.6578 72.8599 84.2539C71.9991 85.2057 71.9661 85.7476 72.591 88.7173C72.9823 90.5768 73.4625 92.8928 73.659 93.8646C74.0815 95.9585 77.799 99.5874 79.1058 99.1815C79.6072 99.0255 80.4062 99.1421 80.8805 99.4401C81.4353 99.7882 82.0432 99.7329 82.5815 99.2858C83.4812 98.5384 86.7845 98.1638 86.7845 98.8093C86.7845 99.0231 86.3862 99.7676 85.899 100.464C85.4118 101.16 84.8916 103.381 84.7433 105.399C84.4656 109.173 85.1058 111.118 87.52 113.837C88.0866 114.474 88.5497 115.194 88.5497 115.434C88.5497 115.675 89.0793 116.041 89.7265 116.247C90.8174 116.593 90.9033 117.138 90.9033 123.689V130.756L88.8975 132.65C87.7942 133.692 84.2856 135.833 81.1011 137.41C76.2533 139.809 74.488 141.1 70.2557 145.342C67.2213 148.384 64.354 151.939 63.0801 154.237C60.3499 159.166 57.0548 169.096 56.0934 175.294C55.625 178.313 55.0672 180.153 54.6212 180.153C53.6009 180.153 53.4144 180.624 52.9495 184.365C52.5841 187.306 52.6642 187.733 53.638 188.043C54.4376 188.297 54.923 189.355 55.4055 191.897C56.9001 199.768 61.6391 206.227 67.3036 208.11L70.1656 209.062L69.8861 215.37C69.7226 219.058 69.8591 222.29 70.2145 223.151C70.6799 224.276 70.8317 222.806 70.8605 216.915L70.8976 209.208L73.2606 209.115C76.6575 208.982 79.2853 207.705 82.651 204.554C88.7527 198.84 96.0836 187.461 100.887 176.245C102.83 171.711 103.029 171.47 105.44 170.757C106.828 170.347 108.607 170.173 109.395 170.371C111.216 170.829 113.851 169.848 113.851 168.712C113.851 168.234 114.314 167.579 114.881 167.257C115.75 166.763 115.796 166.484 115.175 165.469C114.152 163.796 114.22 163.661 116.092 163.661C118.344 163.661 120.037 162.353 119.522 161.01C119.153 160.047 118.526 159.992 112.277 160.366C108.514 160.591 104.615 161.131 103.612 161.566C102.609 162.002 96.0136 167.191 88.9557 173.1L76.122 183.842L66.3034 182.145L56.4847 180.448L56.6859 178.092C57.0972 173.27 60.2599 162.462 62.7053 157.522C67.1418 148.56 73.3354 142.237 81.7595 138.07C84.0861 136.92 86.1684 135.978 86.3873 135.978C86.6056 135.978 86.7845 136.654 86.7845 137.48C86.7845 139.739 88.1208 141.895 91.4594 145.021C97.2093 150.404 103.134 151.559 106.828 148.016C107.771 147.113 108.695 145.889 108.883 145.299C109.198 144.304 109.365 144.333 111.148 145.694C112.207 146.503 113.926 147.462 114.968 147.826C116.638 148.409 117.031 148.329 118.275 147.159C120.203 145.346 120.691 141.645 119.527 137.671C119.025 135.954 118.678 134.483 118.758 134.404C119.047 134.115 125.658 136.037 128.355 137.194C132.915 139.151 138.906 143.472 142.367 147.301C144.159 149.283 145.625 151.124 145.625 151.393C145.625 151.662 144.896 151.885 144.007 151.89C141.533 151.904 141.049 152.47 139.226 157.475C137.453 162.344 137.274 162.333 136.489 157.29C136.272 155.891 135.955 154.885 135.786 155.055C135.617 155.224 135.786 157.464 136.161 160.033C136.742 164.01 136.706 165.046 135.923 167.006C134.858 169.672 128.561 189.58 128.561 190.283C128.561 190.543 131.443 190.756 134.965 190.756C141.031 190.756 141.386 190.823 141.701 192.027C141.884 192.727 142.329 199.154 142.69 206.311C143.56 223.563 144.372 227.321 144.299 213.753L144.242 203.471L145.963 203.02C148.997 202.226 152.113 199.065 154.234 194.629C155.624 191.723 156.622 190.365 157.531 190.144C158.557 189.894 159.215 188.732 160.614 184.697C161.594 181.877 162.705 179.568 163.085 179.567C163.465 179.566 164.626 178.848 165.665 177.972C169.203 174.993 170.22 169.88 167.869 166.889L166.579 165.246L168.76 159.005C169.959 155.573 170.937 152.566 170.933 152.323C170.93 152.08 165.498 151.881 158.864 151.881C152.23 151.881 146.802 151.655 146.802 151.378C146.802 151.1 145.175 149.097 143.187 146.924C137.35 140.548 129.418 135.821 121.795 134.175C119.853 133.756 117.341 132.93 116.214 132.339C115.086 131.749 113.828 131.266 113.419 131.266C112.968 131.266 112.681 130.511 112.69 129.352C112.703 127.763 113.104 127.192 115.047 125.992C116.335 125.197 118.115 123.497 119.003 122.214C120.354 120.262 120.647 119.152 120.799 115.414C120.898 112.956 120.75 108.43 120.468 105.355C120.006 100.312 120.06 99.6775 121.018 98.8759C121.983 98.0689 122.006 97.7738 121.267 95.6599C120.819 94.3794 119.953 92.9216 119.344 92.4204C118.734 91.9192 118.324 91.0639 118.432 90.5203C118.69 89.2221 111.803 84.559 110.322 85.029C109.715 85.2222 109.149 85.0084 108.96 84.5148C108.56 83.4717 109.109 81.2011 109.761 81.2011C110.735 81.2011 110.958 78.8097 110.13 77.2324C109.66 76.3377 108.991 74.884 108.642 74.0023C108.254 73.0234 107.426 72.2777 106.516 72.088C105.696 71.9166 104.337 71.6327 103.497 71.4566C102.221 71.1898 102.028 70.9012 102.327 69.7079C102.602 68.61 102.35 68.0592 101.236 67.3289C100.439 66.8058 99.314 66.4695 98.7356 66.5814C98.1566 66.6928 97.2169 66.317 96.6467 65.7462C95.384 64.4822 94.4285 64.4381 92.928 65.5737ZM8.11494 68.7596C8.94518 70.0153 10.6351 71.6516 11.8707 72.3955C13.1058 73.14 14.2114 73.8191 14.3267 73.9057C14.4426 73.9923 13.6836 75.5567 12.6404 77.382L10.7433 80.701L9.18407 79.2055C8.32618 78.3833 6.75102 76.267 5.68307 74.5029L3.74075 71.2952L4.96933 68.8856C5.64423 67.5604 6.28912 66.476 6.40092 66.476C6.5133 66.476 7.2847 67.5038 8.11494 68.7596ZM16.462 76.2322C18.4732 77.7542 24.9662 79.4341 28.8362 79.4341C30.8767 79.4341 34.2136 78.9146 36.2512 78.2796C38.2889 77.6453 40.0094 77.1811 40.0747 77.2489C40.14 77.3172 40.0488 80.1898 39.8723 83.6325L39.5504 89.893L36.5425 90.2411C32.7432 90.6811 26.632 89.8205 22.4614 88.2585C19.2269 87.0469 12.5309 83.0335 11.8178 81.8784C11.4582 81.2965 14.3673 75.3163 14.9993 75.3381C15.1611 75.344 15.8195 75.7463 16.462 76.2322ZM133.268 77.1994C133.268 78.5617 135.596 83.5571 136.23 83.5571C136.535 83.5571 136.116 82.0463 135.301 80.1998C133.636 76.4302 133.268 75.8883 133.268 77.1994ZM48.2811 80.8636C48.0723 82.2577 47.5509 83.8781 47.122 84.4653C46.4318 85.4101 46.1311 85.4448 44.4983 84.7681C42.2223 83.8239 42.2094 83.5188 44.3788 81.9132C45.3274 81.2111 46.5818 79.8263 47.1667 78.8356C48.4271 76.6993 48.8025 77.3826 48.2811 80.8636ZM156.216 81.6664C154.389 84.3805 154.229 84.7369 154.843 84.728C155.501 84.718 158.098 80.6621 157.868 80.0024C157.769 79.7162 157.025 80.4648 156.216 81.6664ZM102.563 81.816C105.57 82.5104 108.231 84.1178 107.532 84.8175C107.259 85.0908 106.187 84.9937 105.15 84.602C103.543 83.9953 102.997 84.0477 101.458 84.9571C100.465 85.545 98.9957 86.0974 98.1937 86.1858C97.3917 86.2736 96.1342 86.9109 95.3993 87.6018C94.665 88.2927 93.76 88.8581 93.3893 88.8581C93.0181 88.8581 91.8483 90.1834 90.7886 91.8031C88.6615 95.0562 88.2179 95.3071 87.6671 93.5701C86.3779 89.5048 93.9342 81.6045 99.4352 81.2659C99.7588 81.2464 101.166 81.4938 102.563 81.816ZM16.7645 82.9834C17.2499 83.3056 19.4623 84.1308 21.6806 84.8175C26.2825 86.2412 30.7167 86.111 34.882 84.4288C38.1871 83.0947 37.7728 82.7814 34.1483 83.8734C30.1754 85.0702 24.2048 84.9342 20.2949 83.5571C16.7215 82.299 15.4135 82.0863 16.7645 82.9834ZM141.212 83.8922C136.576 86.3012 134.088 90.8201 134.579 95.9385C135.092 101.286 140.256 105.91 145.734 105.93C149.374 105.942 151.344 105.138 154 102.554C161.383 95.3742 156.414 82.9598 146.161 82.9716C144.41 82.974 142.183 83.388 141.212 83.8922ZM150.183 84.463C152.978 85.6321 154.314 86.8714 155.69 89.5708C160.106 98.2309 151.121 108.157 142.231 104.438C137.73 102.557 135.454 99.1439 135.454 94.2811C135.454 86.8154 143.301 81.5845 150.183 84.463ZM195.351 91.8031C195.963 95.6599 196.972 96.9463 196.505 93.2756C196.299 91.6559 195.86 90.0656 195.53 89.7416C195.123 89.3417 195.065 90.0031 195.351 91.8031ZM142.38 90.6392C141.66 91.8055 143.747 100.638 144.743 100.638C145.637 100.638 152.686 95.4496 152.686 94.7911C152.686 94.3747 143.969 90.0361 143.133 90.0361C142.924 90.0361 142.585 90.3076 142.38 90.6392ZM172.748 96.0734C170.736 103.05 170.667 103.382 171.384 102.7C172.148 101.972 175.119 91.2141 174.556 91.2141C174.332 91.2141 173.519 93.4011 172.748 96.0734ZM26.5826 94.6009C25.5899 99.31 25.524 100.049 26.096 100.049C26.7709 100.049 27.5976 95.4738 27.2275 93.7863C27.058 93.0153 26.865 93.2585 26.5826 94.6009ZM115.5 96.1606C118.984 97.9641 119.153 98.5048 119.55 109.078L119.918 118.858L118.379 121.186C116.642 123.812 113.823 126.105 111.203 127.021C110.2 127.372 109.882 127.659 110.468 127.686C111.18 127.718 111.497 128.218 111.497 129.309C111.497 130.363 112.122 131.408 113.382 132.461C114.909 133.737 115.254 134.445 115.205 136.2C115.134 138.692 113.906 140.831 111.72 142.264C108.557 144.339 99.1945 142.825 94.2637 139.441C90.3273 136.739 89.4247 134.352 91.2729 131.529C92.0572 130.33 92.1825 128.899 91.9648 123.616L91.6994 117.166L93.6547 116.237C94.7303 115.726 95.6106 115.006 95.6106 114.638C95.6106 114.268 96.186 113.354 96.8892 112.604C98.1013 111.313 98.2254 111.294 99.2769 112.247C100.1 112.992 100.635 113.096 101.347 112.646C102.652 111.822 103.034 110.549 101.838 111.008C101.245 111.236 100.906 111.047 100.906 110.487C100.906 110.003 100.511 108.849 100.027 107.921C99.544 106.993 99.1469 104.948 99.1445 103.378C99.1416 100.956 99.4117 100.269 100.921 98.857C104.277 95.7194 111.918 94.3058 115.5 96.1606ZM54.1281 99.8501C49.9234 102.069 47.3974 106.039 47.3744 110.466C47.3579 113.593 48.1935 115.802 50.194 117.921C55.5061 123.545 64.2251 123.024 68.4657 116.829C71.3624 112.597 71.3948 108.472 68.5669 104.008C65.6779 99.449 58.6976 97.4387 54.1281 99.8501ZM63.0989 100.366C65.8938 101.535 67.2301 102.774 68.6064 105.474C71.9008 111.936 67.4137 120.436 60.3499 121.116C56.49 121.487 53.7245 120.455 51.2567 117.72C46.1976 112.115 47.7504 104.079 54.5423 100.714C57.535 99.2304 60.1316 99.125 63.0989 100.366ZM115.698 102.355C116.462 102.975 117.191 103.378 117.319 103.252C117.749 102.825 116.066 101.227 115.185 101.227C114.588 101.227 114.752 101.586 115.698 102.355ZM105.761 102.206C105.356 102.37 105.025 102.92 105.025 103.429C105.025 104.26 105.13 104.263 106.055 103.457C106.621 102.963 107.482 102.413 107.967 102.234C108.583 102.008 108.494 101.909 107.673 101.909C107.026 101.909 106.165 102.043 105.761 102.206ZM58.5629 104.614C58.5747 105.504 58.9265 108.004 59.3455 110.167C60.204 114.606 59.8015 115.952 57.6167 115.952C56.6182 115.952 55.9422 115.468 55.4597 114.408C54.8265 113.018 54.916 112.736 56.3546 111.588C58.091 110.202 58.4558 108.884 57.1031 108.884C55.382 108.884 53.0496 111.561 53.0496 113.536C53.0496 117.417 57.9845 119.464 60.9336 116.806C62.0727 115.78 62.171 115.255 61.858 111.871C61.5891 108.963 61.6685 108.245 62.2016 108.779C63.0442 109.622 65.0136 109.7 65.0136 108.889C65.0136 108.568 64.4687 107.972 63.8032 107.564C63.1377 107.156 62.0568 105.961 61.4019 104.908C59.9233 102.532 58.5329 102.389 58.5629 104.614ZM198.169 104.761C198.349 105.571 198.679 107.496 198.901 109.039C199.278 111.656 200.346 113.559 200.346 111.614C200.346 109.953 198.97 104.464 198.406 103.878C198.041 103.497 197.957 103.81 198.169 104.761ZM106.79 105.904C106.79 106.895 107.055 107.706 107.379 107.706C107.702 107.706 107.967 107.059 107.967 106.268C107.967 105.477 107.702 104.667 107.379 104.467C107.036 104.254 106.79 104.853 106.79 105.904ZM115.969 104.666C115.37 105.636 116.175 107.971 116.87 107.276C117.192 106.953 117.207 106.16 116.908 105.35C116.572 104.44 116.252 104.207 115.969 104.666ZM25.4164 106.133C24.6856 108.039 24.3031 112.418 24.8674 112.418C25.1904 112.418 25.64 110.938 25.8653 109.129C26.2672 105.91 26.0524 104.474 25.4164 106.133ZM145.693 111.24C145.665 112.698 145.9 114.288 146.213 114.774C146.926 115.877 146.926 112.289 146.213 110.062C145.823 108.841 145.734 109.043 145.693 111.24ZM112.869 111.404C113.436 112.304 113.741 113.298 113.547 113.613C113.352 113.928 113.474 114.185 113.816 114.185C114.92 114.185 114.48 112.047 113.139 110.89L111.838 109.768L112.869 111.404ZM167.569 113.889C166.886 115.994 166.555 117.858 166.834 118.03C167.318 118.33 168.122 115.998 168.932 111.945C169.546 108.871 168.9 109.793 167.569 113.889ZM44.1252 117.839C42.8308 118.525 42.0688 119.186 42.4324 119.31C43.0473 119.519 47.3615 117.302 47.3615 116.777C47.3615 116.312 46.4412 116.613 44.1252 117.839ZM19.8053 118.361C13.5847 121.524 11.786 130.588 16.3473 135.789C22.1201 142.371 32.0736 141.102 35.6581 133.328C37.8793 128.51 36.3536 122.804 31.8941 119.252C28.8479 116.827 23.587 116.439 19.8053 118.361ZM105.025 117.643C105.025 119.319 109.768 120.859 110.63 119.463C110.871 119.072 110.502 118.977 109.609 119.201C108.668 119.438 107.689 119.142 106.618 118.299C105.742 117.609 105.025 117.314 105.025 117.643ZM71.486 118.252C71.486 118.818 76.3121 122.431 77.0694 122.431C77.8514 122.431 76.6163 121.196 74.1038 119.466C72.664 118.474 71.486 117.928 71.486 118.252ZM37.6528 121.253C35.3468 122.782 36.7525 122.783 39.2568 121.256C40.3165 120.609 40.786 120.081 40.3006 120.081C39.8152 120.082 38.6237 120.609 37.6528 121.253ZM32.6514 122.266C33.0891 122.658 32.9303 131.898 32.4531 133.77L32.0406 135.389H25.3587H18.6768L18.309 133.549C18.1066 132.536 17.9413 129.503 17.9413 126.808V121.907L20.7362 121.714C23.9554 121.494 32.2148 121.876 32.6514 122.266ZM201.89 125.671C202.086 127.614 202.511 129.47 202.836 129.794C203.23 130.187 203.29 129.429 203.015 127.507C202.369 122.981 201.472 121.517 201.89 125.671ZM27.4616 124.346C27.5852 125.215 28.0542 125.671 28.8267 125.671C29.5993 125.671 30.0683 125.215 30.1918 124.346C30.346 123.258 30.1006 123.02 28.8267 123.02C27.5529 123.02 27.3075 123.258 27.4616 124.346ZM82.0773 125.822C82.0773 126.392 87.4247 129.644 87.7789 129.29C88.0443 129.023 83.0434 125.376 82.4127 125.376C82.2279 125.376 82.0773 125.577 82.0773 125.822ZM147.416 127.143C147.402 129.175 148.014 131.266 148.621 131.266C149.181 131.266 148.683 127.939 147.916 126.554C147.55 125.893 147.424 126.042 147.416 127.143ZM162.706 127.391C161.999 129.254 161.201 134.051 161.67 133.622C162.148 133.185 163.859 126.351 163.564 126.056C163.424 125.916 163.038 126.517 162.706 127.391ZM20.9727 127.562C19.0557 127.809 19.0128 127.874 19.3858 129.983C20.1678 134.404 19.896 134.211 25.3505 134.211C30.2124 134.211 30.3407 134.175 30.9297 132.625C31.261 131.752 31.4528 130.228 31.3563 129.238L31.1804 127.438L27.0615 127.374C24.7962 127.338 22.056 127.423 20.9727 127.562ZM27.5687 129.794C28.1171 131.225 27.3316 132.444 25.8612 132.444C24.4626 132.444 23.4028 130.66 24.116 129.505C24.6809 128.59 27.1875 128.801 27.5687 129.794ZM204.065 139.421C204.429 141.244 204.393 141.279 202.212 141.279C199.24 141.279 194.206 143.867 192.292 146.38C187.499 152.669 189.279 161.843 196.068 165.838C201.396 168.973 209.001 167.72 212.918 163.059C214.964 160.625 216.417 155.541 215.892 152.649C214.992 147.689 212.485 144.515 207.842 142.459C205.636 141.482 205.054 140.929 205.054 139.814C205.054 139.038 204.748 138.215 204.373 137.983C203.887 137.682 203.799 138.092 204.065 139.421ZM149.173 143.709C149.146 146.063 149.827 148.936 150.413 148.936C151.001 148.936 150.439 144.405 149.683 143.046C149.319 142.392 149.186 142.564 149.173 143.709ZM156.872 145.255C155.787 147.9 155.092 150.703 155.522 150.703C155.742 150.703 156.479 149.113 157.159 147.169C158.383 143.671 158.152 142.132 156.872 145.255ZM202.406 148.936C202.406 150.769 202.602 151.031 204.171 151.292C205.446 151.505 205.936 151.914 205.936 152.765C205.936 153.663 205.483 153.986 204.024 154.127C202.24 154.3 202.112 154.459 202.112 156.518C202.112 157.731 202.509 159.239 202.995 159.868C203.862 160.99 203.899 160.986 205.038 159.64C206.235 158.226 208.006 158.095 208.436 159.388C208.571 159.792 207.857 160.945 206.852 161.952C205.38 163.425 204.712 163.708 203.421 163.402C200.867 162.797 199.758 161.003 199.758 157.475C199.758 155.252 199.506 154.266 198.875 154.024C198.39 153.838 197.993 153.271 197.993 152.765C197.993 152.258 198.39 151.692 198.875 151.506C199.454 151.283 199.758 150.364 199.758 148.832C199.758 146.749 199.9 146.519 201.082 146.686C202.167 146.841 202.406 147.247 202.406 148.936ZM110.531 148.347C110.7 149.157 111.02 151.477 111.243 153.501C111.467 155.526 111.898 157.182 112.202 157.182C112.505 157.182 112.625 156.718 112.468 156.152C112.311 155.585 112.017 153.661 111.815 151.876C111.613 150.092 111.173 148.237 110.837 147.753C110.364 147.073 110.294 147.207 110.531 148.347ZM164.748 154.78C165.434 155.048 161.629 155.417 155.628 155.665C148.376 155.964 145.094 156.32 144.531 156.868C144.091 157.297 141.254 164.368 138.226 172.582C135.199 180.796 132.712 187.081 132.701 186.551C132.67 185.122 141.398 160.215 142.881 157.502C143.636 156.119 144.752 155.005 145.625 154.763C147.653 154.2 163.299 154.214 164.748 154.78ZM183.718 158.336C181.249 158.816 180.121 159.542 181.861 159.532C184.129 159.519 187.402 158.782 187.402 158.283C187.402 157.711 186.905 157.718 183.718 158.336ZM157.099 160.414C157.099 161.713 155.269 162.36 154.31 161.4C153.321 160.41 154.297 158.846 155.772 159.055C156.64 159.179 157.099 159.649 157.099 160.414ZM173.663 160.196C172.095 160.438 170.639 160.822 170.427 161.05C170.023 161.487 176.31 160.825 176.751 160.384C177.303 159.831 176.396 159.775 173.663 160.196ZM118.235 161.851C117.928 162.151 115.69 162.783 113.263 163.254C110.691 163.753 109.6 164.139 110.65 164.18C112.634 164.257 114.986 165.667 114.291 166.363C114.048 166.605 112.857 166.513 111.644 166.158C109.922 165.654 109.675 165.665 110.519 166.207C113.044 167.829 113.421 168.23 113.024 168.873C112.793 169.246 111.495 169.525 110.139 169.493C108.033 169.442 107.888 169.365 109.144 168.962L110.615 168.491L109.109 168.432C108.281 168.4 107.09 168.763 106.461 169.238C105.049 170.307 103.158 170.38 102.135 169.404C101.505 168.803 101.436 168.912 101.763 169.994C102.207 171.466 95.8653 185.275 91.8165 191.655C88.5462 196.808 83.3812 202.973 80.4756 205.194C71.2824 212.221 59.6803 206.054 56.5117 192.456L55.6674 188.833L59.3108 189.229C61.3149 189.447 64.6541 189.837 66.7317 190.094L70.5098 190.563L75.2636 186.164C80.6457 181.185 99.9683 164.893 102.327 163.346C103.18 162.786 104.731 162.125 105.775 161.877C108.566 161.214 118.91 161.192 118.235 161.851ZM166.916 166.999C168.25 168.208 168.352 172.432 167.105 174.846C166.283 176.439 164.127 178.386 163.187 178.386C162.593 178.386 163.721 174.717 164.454 174.263C164.8 174.049 164.437 173.549 163.614 173.108C162.201 172.351 161.206 170.839 161.758 170.287C161.909 170.136 162.776 170.527 163.684 171.158C166.701 173.25 167.13 173.229 164.748 171.105C163.454 169.951 162.196 168.997 161.953 168.985C161.446 168.959 161.34 167.195 161.845 167.195C162.028 167.195 163.046 167.858 164.107 168.668C167.146 170.988 167.373 170.383 164.454 167.744L161.806 165.351L163.827 165.691C164.938 165.878 166.328 166.467 166.916 166.999ZM115.028 177.405C115.028 178.513 115.594 178.947 116.557 178.577C117.808 178.097 117.543 176.619 116.205 176.619C115.557 176.619 115.028 176.973 115.028 177.405ZM111.944 196.204C111.775 204.059 111.862 210.885 112.138 211.371C112.424 211.874 112.646 205.737 112.657 197.087C112.666 188.745 112.579 181.921 112.462 181.921C112.346 181.921 112.113 188.348 111.944 196.204ZM115.91 187.222C115.367 188.101 116.123 188.989 117.416 188.989C118.166 188.989 118.558 188.584 118.558 187.811C118.558 186.561 116.589 186.123 115.91 187.222ZM155.039 190.478C155.039 191.383 151.421 197.758 150.1 199.179C148.862 200.512 145.334 202.536 144.249 202.536C144.119 202.536 143.831 200.879 143.61 198.854C143.39 196.83 143.058 194.191 142.875 192.989L142.54 190.806L147.466 190.606C150.175 190.496 152.987 190.352 153.715 190.287C154.444 190.221 155.039 190.307 155.039 190.478ZM116.572 199.472C116.107 200.225 117.186 201.548 117.904 201.104C118.849 200.519 118.709 199.002 117.71 199.002C117.244 199.002 116.732 199.213 116.572 199.472Z" fill="#121A17"/>
</svg>
