<svg width="433" height="194" viewBox="0 0 433 194" fill="none" xmlns="http://www.w3.org/2000/svg">
<path fill-rule="evenodd" clip-rule="evenodd" d="M147.824 11.5779C123.06 36.7743 66.0349 97.1087 64.8018 99.4158C64.0767 100.773 58.1839 104.591 51.5501 108L39.6039 114.138L20.3971 113.014C3.18595 112.006 -1.30181 112.179 0.303468 113.786C0.579498 114.063 8.17373 114.641 17.1775 115.071C26.1824 115.5 34.4407 116.311 35.529 116.873C36.9273 117.593 37.5223 119.298 37.554 122.67C37.5778 125.297 39.0371 135.791 40.7962 145.991L43.9943 164.536L38.7724 166.76C26.6463 171.925 11.4895 179.467 11.4895 180.336C11.4895 181.986 13.6321 181.361 21.4164 177.444C25.601 175.337 33.8604 171.57 39.7713 169.072C49.5217 164.95 51.9868 164.404 66.3562 163.188C75.067 162.452 88.4805 160.858 96.1629 159.648L110.132 157.448L116.684 164.261C121.515 169.284 124.087 171.108 126.472 171.204C131.365 171.402 133.985 170.974 136.666 169.542C139.691 167.926 227.04 75.4602 229.957 70.787C232.5 66.712 232.674 62.1781 230.451 57.8709C228.746 54.5699 175.962 3.83479 171.719 1.41884C170.39 0.661866 167.038 0.0250138 164.27 0.00235008C159.369 -0.0361783 158.944 0.262984 147.824 11.5779ZM171.564 4.43538C173.431 5.6445 181.067 12.4969 188.534 19.6609L202.109 32.688L149.225 85.728L96.3406 138.769L85.9498 128.361L75.5591 117.953L85.3005 113.227C96.4605 107.813 100.305 104.418 99.2049 100.948C97.758 96.3823 85.5335 95.8236 71.5103 99.6833C69.3676 100.273 67.423 100.563 67.1877 100.328C66.9535 100.092 73.0341 93.6037 80.6996 85.9071C88.3662 78.2105 109.027 56.5292 126.613 37.7262C144.199 18.9243 159.217 3.2852 159.986 2.97357C163.121 1.7044 168.37 2.36731 171.564 4.43538ZM229.354 61.8314C229.767 64.0366 229.373 66.6622 228.326 68.6668C226.705 71.7694 141.765 162.716 136.674 166.8C135.202 167.979 132.24 168.767 129.22 168.783C124.371 168.807 123.901 168.483 114.902 158.905L105.599 149.001L143.107 112.212C163.736 91.9776 187.996 68.1466 197.018 59.2534L213.422 43.0828L221.053 50.6672C226.186 55.7688 228.904 59.4234 229.354 61.8314ZM96.2354 101.263C98.1427 103.564 95.2806 105.988 85.2507 110.566C79.7674 113.07 74.3418 116.742 69.6946 121.097C65.7702 124.774 60.7406 128.385 58.5187 129.119C54.1724 130.556 52.7357 133.238 57.0232 131.91C62.0393 130.356 67.544 127.027 70.8349 123.558L74.1823 120.029L85.1998 131.024C91.26 137.071 95.9593 142.436 95.6437 142.948C95.3281 143.459 93.7975 143.878 92.242 143.878C90.6446 143.878 89.7181 144.371 90.1129 145.011C90.4975 145.634 92.7148 146.144 95.0407 146.144C98.4741 146.144 100.09 146.985 103.626 150.613C107.938 155.037 107.955 155.088 105.27 155.687C98.1291 157.278 87.261 158.667 68.6187 160.37C57.4191 161.393 47.9108 162.444 47.4888 162.703C46.3802 163.384 45.8734 161.172 42.5859 141.317C38.3561 115.768 37.7271 117.615 53.3466 109.718C67.0157 102.805 77.1621 99.9405 88.5608 99.7762C92.7205 99.715 95.3801 100.231 96.2354 101.263Z" fill="#121A17"/>
<line x1="211" y1="35.5" x2="433" y2="35.5" stroke="#121A17"/>
<circle cx="211.5" cy="35.5" r="3.5" fill="#121A17"/>
</svg>
