<svg width="398" height="242" viewBox="0 0 398 242" fill="none" xmlns="http://www.w3.org/2000/svg">
<path fill-rule="evenodd" clip-rule="evenodd" d="M310.131 0.81682C291.774 5.38604 282.459 26.2145 291.114 43.3424C300.292 61.5071 325.689 64.7412 339.364 49.4876C349.85 37.7899 349.506 19.8673 338.585 8.91523C331.251 1.55988 320.005 -1.64112 310.131 0.81682ZM324.772 2.18121C335.349 4.94377 343.605 14.151 345.514 25.316C348.705 43.9797 331.987 60.9794 313.394 57.9766C301.728 56.0928 292.07 47.2705 289.518 36.1687C287.971 29.4391 289.272 21.1718 292.84 15.0668C296.178 9.35303 304.141 3.33658 310.288 1.88425C314.117 0.978687 320.683 1.11379 324.772 2.18121ZM309.496 6.90974C302.382 9.27656 296.311 15.4453 294.252 22.3973C292.316 28.9382 293.35 37.0889 296.824 42.6541C299.055 46.2286 304.457 50.6996 308.414 52.2482C313.45 54.2174 320.814 54.2091 325.881 52.2285C330.696 50.3453 336.299 45.1439 338.758 40.2746C340.479 36.8633 340.632 36.0151 340.632 29.8693C340.632 23.8649 340.454 22.8134 338.891 19.6252C333.564 8.75336 320.69 3.18491 309.496 6.90974ZM326.473 8.9643C331.576 11.3483 335.957 15.6703 338.146 20.4797C339.682 23.856 339.944 25.2178 339.888 29.5506C339.765 39.1562 335.373 46.3178 327.101 50.4014C323.214 52.3209 322.37 52.4923 316.817 52.4923C311.468 52.4923 310.344 52.2845 307.12 50.6965C302.457 48.3997 298.301 44.2225 296.062 39.5799C294.544 36.4338 294.294 35.1229 294.272 30.1879C294.253 26.0667 294.569 23.6597 295.396 21.6357C297.923 15.4447 302.77 10.6569 309.084 8.11482C313.548 6.31772 321.658 6.7141 326.473 8.9643ZM308.997 16.941C306.301 20.3459 304.095 23.3188 304.095 23.5482C304.095 24.3715 309.31 27.4056 310.162 27.078C310.94 26.7785 314.194 22.6974 315.496 20.3892C315.874 19.7182 316.834 20.2019 319.599 22.4604C321.583 24.0822 323.586 25.4084 324.049 25.4084C325.194 25.4084 328.472 20.5581 328.058 19.4767C327.614 18.3162 316.229 10.7512 314.926 10.7512C314.361 10.7512 311.693 13.5367 308.997 16.941ZM321.34 15.3714C324.58 17.5623 327.306 19.6411 327.4 19.9916C327.493 20.3421 326.76 21.6083 325.77 22.8058L323.971 24.9827L320.07 21.9716C317.923 20.316 315.922 19.1128 315.622 19.2989C315.322 19.485 313.988 21.2222 312.657 23.1601C311.327 25.0974 309.928 26.6727 309.549 26.66C309.171 26.6472 308.026 25.9532 307.007 25.1171L305.153 23.5979L306.323 21.7944C308.325 18.7088 314.378 11.3885 314.928 11.3885C315.215 11.3885 318.101 13.1811 321.34 15.3714ZM241.346 23.8254C227.559 26.8295 217.514 39.6061 217.554 54.0855C217.58 63.3934 220.667 70.6519 227.293 76.9902C232.995 82.4445 240.167 85.2664 248.403 85.2963C257.225 85.3275 264.709 82.261 270.726 76.1483C280.162 66.5619 282.4 52.3948 276.407 40.1834C272.238 31.6893 264.573 25.871 254.849 23.8197C249.474 22.686 246.572 22.6872 241.346 23.8254ZM329.062 25.4957L327.322 28.1321L329.794 30.2752C331.153 31.4541 332.493 32.4183 332.772 32.4183C333.379 32.4183 336.502 27.9224 336.502 27.0481C336.502 25.9622 333.125 22.8593 331.944 22.8593C331.308 22.8593 330.029 24.0293 329.062 25.4957ZM334.13 25.2542L335.809 27.0111L334.505 29.0778C333.787 30.214 332.997 31.1438 332.75 31.1438C332.503 31.1438 331.399 30.4766 330.296 29.6609L328.292 28.1779L329.878 25.8373C330.751 24.55 331.686 23.4966 331.958 23.4966C332.229 23.4966 333.207 24.2874 334.13 25.2542ZM257.211 25.3988C270.841 29.6207 280.004 43.3526 278.425 57.189C276.459 74.4201 261.658 86.1834 244.682 84.0078C224.333 81.3994 212.505 59.4468 221.488 40.9628C227.892 27.7892 243.281 21.0839 257.211 25.3988ZM314.612 26.9028C313.72 28.0747 312.991 29.3505 312.991 29.7373C312.991 30.5409 316.903 33.6929 317.9 33.6929C318.262 33.6929 319.336 32.6713 320.286 31.4229C321.973 29.2039 321.985 29.123 320.839 27.8523C320.193 27.1373 318.893 26.1521 317.949 25.662C316.314 24.8138 316.155 24.8731 314.612 26.9028ZM319.199 27.5305L321.206 29.0159L319.481 31.0597L317.757 33.1034L315.702 31.6453C314.572 30.8436 313.643 30.0114 313.637 29.796C313.62 29.1842 316.205 26.0456 316.726 26.0456C316.983 26.0456 318.095 26.7141 319.199 27.5305ZM299.987 29.0612C299.101 30.3695 298.376 31.7887 298.376 32.215C298.376 33.0811 302.246 36.2419 303.306 36.2419C303.679 36.2419 304.864 35.0426 305.939 33.5762C307.809 31.0265 307.846 30.8577 306.79 29.6876C305.786 28.575 302.723 26.6829 301.925 26.6829C301.746 26.6829 300.874 27.7529 299.987 29.0612ZM304.998 29.4531L306.854 30.9431L305.091 33.2608C303.212 35.7308 302.376 35.7289 300.138 33.2474C299.115 32.1143 299.124 31.9327 300.294 30.0024C301.771 27.5674 302.537 27.4782 304.998 29.4531ZM242.14 29.5245C240.393 30.0337 238.781 30.4632 238.559 30.4785C238.336 30.4938 236.42 31.6683 234.3 33.0881C227.012 37.9689 223.292 45.2083 223.185 54.7227C223.102 62.1169 224.82 66.4504 229.823 71.4682C240.236 81.9105 255.645 82.0928 265.762 71.8939C278.209 59.3455 274.587 38.5246 258.657 31.0488C253.68 28.7126 247.032 28.0989 242.14 29.5245ZM258.269 32.0366C263.019 34.4856 267.641 39.0236 270.004 43.5603C271.857 47.1137 272.003 47.86 272.004 53.7668C272.005 59.3487 271.794 60.5913 270.302 63.7834C267.925 68.872 263.462 73.4297 258.424 75.9176C254.594 77.8084 253.728 77.983 248.19 77.983C242.707 77.983 241.739 77.7925 237.867 75.9527C232.741 73.5177 228.587 69.436 226.132 64.4207C224.521 61.1298 224.348 60.1287 224.348 54.0855C224.348 48.213 224.549 46.9653 225.994 43.8892C228.908 37.6828 233.472 33.5406 240.125 31.0654C245.125 29.2046 253.663 29.6615 258.269 32.0366ZM322.689 33.9178C321.661 35.0929 320.366 36.7033 319.812 37.4967L318.804 38.9389L314.993 35.9972C312.896 34.3792 310.875 33.0556 310.501 33.0556C310.128 33.0556 308.939 34.2747 307.859 35.764L305.896 38.4724L308.649 40.9392C312.808 44.666 318.628 48.459 319.832 48.227C320.42 48.113 323.165 45.3198 325.932 42.0188L330.963 36.017L328.658 33.8993C327.39 32.7344 325.95 31.7811 325.457 31.7811C324.964 31.7811 323.719 32.7427 322.689 33.9178ZM327.737 34.2626L329.796 36.1068L325.007 41.7505C322.373 44.8546 319.881 47.3941 319.468 47.3941C319.055 47.3941 316.023 45.4282 312.731 43.0257L306.744 38.6565L308.438 36.1986C309.369 34.847 310.296 33.7305 310.497 33.7171C310.698 33.7037 312.557 34.9757 314.628 36.5434C316.698 38.1117 318.59 39.4021 318.831 39.4111C319.073 39.4206 320.499 37.851 322 35.9233C323.501 33.9956 324.943 32.4183 325.204 32.4183C325.466 32.4183 326.606 33.2481 327.737 34.2626ZM248.265 35.9188C247.487 38.076 247.409 38.1181 245.754 37.2743C241.853 35.2848 241.232 35.3402 240.221 37.7676C238.944 40.8309 238.999 41.0686 241.187 41.9774C242.235 42.4126 243.093 42.8651 243.093 42.9817C243.093 43.0989 241.993 45.7168 240.648 48.7993C239.303 51.8818 238.013 55.1841 237.781 56.1381C237.403 57.6937 237.192 57.8084 235.737 57.2533C233.266 56.3114 232.561 56.4892 231.758 58.2576C230.559 60.8953 230.867 61.544 233.905 62.7848C236.291 63.7592 236.722 64.1836 236.396 65.2377C235.304 68.7624 235.354 69.1231 237.036 69.8916C239.407 70.975 239.558 70.9132 240.779 68.345C241.383 67.0749 242.031 66.1904 242.219 66.379C242.407 66.5676 242.252 67.3011 241.874 68.0091C240.633 70.3333 241.05 71.7563 243.188 72.5038C245.806 73.4189 245.564 73.5304 246.656 70.9087C247.577 68.6974 247.697 68.6317 249.96 69.1084C255.262 70.2256 258.893 68.8369 260.879 64.9311C262.452 61.8397 262.471 60.6716 260.994 58.2309C259.848 56.3388 259.851 56.3127 261.392 55.0968C262.246 54.4232 263.353 52.8938 263.851 51.6989C264.662 49.7533 264.637 49.2824 263.615 47.1857C262.987 45.8985 261.545 44.2715 260.41 43.5705C258.997 42.6981 258.446 41.9442 258.663 41.1808C258.837 40.5671 259.15 39.5137 259.358 38.8394C259.643 37.9192 259.254 37.3623 257.801 36.609C256.737 36.0565 255.696 35.6047 255.49 35.6047C255.283 35.6047 254.549 36.8231 253.859 38.3131C252.706 40.7984 252.626 40.0891 253.644 36.4127C253.958 35.2777 253.694 34.8591 252.337 34.3416C249.672 33.3252 249.123 33.538 248.265 35.9188ZM252.13 35.1605C253.127 35.5161 253.143 35.7774 252.316 38.1263C251.818 39.5436 251.517 40.7028 251.648 40.7028C251.778 40.7028 252.309 40.866 252.827 41.0654C253.486 41.3191 253.993 40.7449 254.516 39.1536C255.264 36.8811 256.479 36.319 258.232 37.4336C258.923 37.8733 258.901 38.3825 258.105 40.2918C257.138 42.6127 257.139 42.6165 259.045 43.6049C262.13 45.2045 263.427 46.8779 263.427 49.2569C263.427 51.632 260.841 55.36 259.194 55.36C258.455 55.36 258.536 55.7232 259.568 57.0392C262.11 60.2797 260.758 65.8756 256.956 67.8466C255.013 68.8548 251.861 68.8261 248.398 67.7695C247.253 67.4203 246.896 67.7249 246.205 69.6405C245.379 71.9309 244.252 72.4433 242.494 71.3274C241.746 70.8533 241.717 70.4378 242.335 69.0772C243.357 66.8276 243.289 65.5563 242.148 65.5563C241.629 65.5563 240.786 66.56 240.274 67.7867C239.259 70.2249 238.812 70.4269 237.14 69.2015C236.223 68.5291 236.147 68.0741 236.701 66.611C237.72 63.9242 237.6 63.6967 234.471 62.3508C231.946 61.2662 231.624 60.9151 232 59.6654C232.689 57.382 233.37 56.9799 235.163 57.7988C236.063 58.2099 237.033 58.5463 237.319 58.5463C237.605 58.5463 238.485 56.7543 239.275 54.5634C240.064 52.3731 241.515 48.7866 242.499 46.5944L244.288 42.6076L242.261 41.574C241.146 41.0055 240.152 40.4709 240.051 40.3855C239.95 40.3001 240.211 39.4761 240.63 38.5546C241.48 36.6817 242.651 36.4886 244.999 37.8351C247.344 39.1791 247.832 39.0204 249.018 36.5268C249.61 35.2809 250.307 34.3767 250.565 34.5168C250.824 34.6564 251.528 34.9464 252.13 35.1605ZM248.551 46.4803C247.983 47.9052 247.666 49.3123 247.848 49.6067C248.419 50.5327 253.765 52.0883 255.138 51.7282C256.517 51.3669 257.459 49.0039 256.855 47.4241C256.464 46.4038 251.94 43.8892 250.495 43.8892C249.995 43.8892 249.12 45.0554 248.551 46.4803ZM254.531 46.4C256.82 48.0301 256.691 50.5148 254.304 50.7889C252.059 51.0463 248.812 49.7648 248.812 48.6215C248.812 48.1544 249.146 47.0379 249.554 46.1406C250.379 44.3238 251.713 44.3932 254.531 46.4ZM359.186 53.4667C351.317 55.4626 342.922 62.3566 339.2 69.8776C329.871 88.7293 341.252 111.046 362.028 114.643C374.096 116.732 388.448 109.658 394.235 98.7694C397.91 91.8544 398.906 84.5157 397.172 77.1386C394.631 66.328 387.474 58.2137 377.328 54.6418C373.133 53.1652 362.969 52.5069 359.186 53.4667ZM244.693 55.5544C242.716 60.2976 242.779 60.8316 245.429 61.8856C250.376 63.8529 251.804 63.8879 253.599 62.0876C255.245 60.4377 255.304 58.7579 253.786 56.8486C253.018 55.8845 247.844 53.4482 246.563 53.4482C246.017 53.4482 245.175 54.3958 244.693 55.5544ZM372.722 54.4035C380.696 55.476 389.945 62.7453 393.773 70.9489C403.17 91.0891 388.678 113.989 366.534 113.989C352.372 113.989 339.191 102.403 337.184 88.1914C334.813 71.3975 345.967 56.5523 362.81 54.0855C366.013 53.6164 367.137 53.6527 372.722 54.4035ZM250.765 55.7175C253.148 56.9315 254.014 58.236 253.782 60.2606C253.608 61.783 253.253 62.0825 251.412 62.2584C250.22 62.3725 248.018 61.9959 246.518 61.4211C244.004 60.4581 243.838 60.2555 244.395 58.8242C244.727 57.9702 245.285 56.5358 245.635 55.6359C246.314 53.8898 247.207 53.9045 250.765 55.7175ZM360.487 59.2384C348.301 62.1182 339.568 75.1918 341.581 87.5421C344.887 107.826 368.882 116.013 383.735 101.925C391.663 94.4061 393.716 83.201 389.042 72.9626C384.226 62.412 371.974 56.523 360.487 59.2384ZM377.691 62.3489C382.342 64.8483 385.954 68.6846 388.442 73.7637C390.003 76.9513 390.196 78.0493 390.196 83.7318C390.196 89.6584 390.046 90.4231 388.116 94.3564C383.256 104.255 372.539 109.737 362.186 107.619C354.187 105.983 347.899 101.077 344.314 93.6751C342.783 90.5149 342.575 89.3372 342.558 83.7184C342.542 78.445 342.783 76.8149 343.955 74.2677C346.819 68.0442 350.828 64.3264 357.894 61.3439C361.125 59.9795 362.377 59.8049 367.638 59.984C373.079 60.1695 374.071 60.4033 377.691 62.3489ZM367.639 65.1198C365.752 66.6919 361.831 70.6493 358.926 73.9153L353.645 79.8534L358.576 84.8572C361.289 87.609 363.963 90.1134 364.519 90.4225C365.194 90.7966 367.738 90.2893 372.145 88.9013L378.758 86.8181L378.634 84.631C378.485 82.0042 373.128 65.0828 371.922 63.4291C371.123 62.3323 370.864 62.4349 367.639 65.1198ZM369.527 69.4156C368.838 72.3751 368.136 75.4008 367.967 76.1388C367.7 77.3043 366.902 77.5841 361.886 78.2717C358.71 78.707 356.005 78.9548 355.873 78.8229C355.741 78.691 358.9 75.1676 362.893 70.9935C366.885 66.8187 370.293 63.5451 370.466 63.719C370.639 63.8924 370.216 66.4555 369.527 69.4156ZM375.119 74.6374C376.828 79.9821 378.128 84.4781 378.009 84.6278C377.889 84.7776 377.008 84.1747 376.051 83.2877C375.094 82.4012 372.932 80.7456 371.247 79.6087C369.563 78.4718 368.301 77.2107 368.444 76.8066C368.587 76.402 369.243 73.5623 369.903 70.4951C370.562 67.4286 371.306 64.919 371.557 64.919C371.808 64.919 373.41 69.292 375.119 74.6374ZM285.032 76.2713C273.778 79.2219 264.805 89.2576 262.662 101.292C262.261 103.543 261.873 105.472 261.8 105.577C261.728 105.683 259.133 105.33 256.034 104.794C247.919 103.388 232.281 102.302 227.521 102.814C225.001 103.084 222.641 103.782 221.352 104.637C216.369 107.944 209.308 128.03 204.735 151.906C202.347 164.365 199.685 187.442 200.03 192.676C200.671 202.381 204.533 206.999 217.554 213.629C239.225 224.661 268.143 234.65 293.328 239.8C306.328 242.459 310.182 242.632 314.102 240.729C316.009 239.803 317.565 239.488 319.043 239.728C321.872 240.189 325.377 239.18 327.036 237.428C327.767 236.657 329.053 234.482 329.895 232.594C331.484 229.026 336.645 213.364 337.43 209.724C337.768 208.16 338.413 207.416 340.013 206.746C342.604 205.66 343.994 203.09 346.238 195.24C349.484 183.882 350.096 176.466 348.006 173.803C346.821 172.291 346.826 172.104 348.377 161.768C350.172 149.803 350.561 139.646 349.355 136.24C348.311 133.292 345.259 130.187 341.615 128.367C340.026 127.573 334.72 125.536 329.823 123.84L320.922 120.755L322.403 116.326C324.396 110.366 324.442 102.511 322.518 96.7378C318.928 85.9635 310.422 78.4412 299.115 76.0374C293.648 74.8751 290.136 74.9337 285.032 76.2713ZM300.6 77.2572C310.406 79.8885 317.833 86.7875 321.331 96.5154C323.298 101.984 323.303 110.311 321.343 116.06C319.601 121.172 315.487 127.011 311.456 130.099L308.545 132.328L304.637 131.341L300.73 130.353L304.16 128.614C308.341 126.494 313.844 120.807 315.528 116.867C317.755 111.655 318.283 106.624 317.164 101.245C315.381 92.6676 309.694 85.8227 301.772 82.7179C297.101 80.8877 288.769 80.7163 284.396 82.3598C277.396 84.9911 271.505 90.9272 269.025 97.848C266.505 104.877 267.663 114.693 271.678 120.348C273.245 122.555 272.995 122.643 269.02 121.284C266.264 120.342 266.065 120.107 264.838 116.345C262.868 110.306 262.555 106.064 263.68 100.684C266.03 89.4462 272.954 81.5281 283.616 77.8842C288.587 76.1853 295.634 75.9253 300.6 77.2572ZM366.361 83.7465C365.751 86.741 365.145 89.2933 365.016 89.4175C364.885 89.5418 362.556 87.5363 359.839 84.9605L354.9 80.2766L356.98 79.891C360.621 79.2155 365.379 78.454 366.442 78.3769C367.383 78.308 367.376 78.7662 366.361 83.7465ZM373.804 82.4369C376.696 84.5545 378.24 86.0566 377.716 86.2433C374.159 87.5134 366.205 89.8228 366.021 89.638C365.818 89.4341 367.343 81.72 367.979 79.7355C368.364 78.5311 368.656 78.6662 373.804 82.4369ZM302.956 84.3481C307.712 86.6843 311.945 91.0113 314.435 96.0834C316.31 99.9032 316.486 100.779 316.486 106.328C316.486 111.577 316.256 112.887 314.783 116.039C312.464 121.001 307.93 125.693 303.208 128.018L299.329 129.927L287.573 126.647C280.171 124.581 275.278 122.877 274.361 122.046C273.56 121.319 271.987 118.857 270.866 116.573C268.983 112.739 268.828 111.935 268.828 106.036C268.828 100.447 269.04 99.1971 270.525 96.0203C273.427 89.8114 279.931 84.5112 286.777 82.7766C288.089 82.4439 291.467 82.2699 294.286 82.3891C298.281 82.5586 300.191 82.9901 302.956 84.3481ZM353.047 82.1648C352.937 83.7955 361.021 104.43 361.77 104.43C362.905 104.43 376.76 91.7111 377.864 89.6552C378.33 88.7866 377.207 88.9988 371.961 90.7705C368.397 91.9743 365.097 92.9588 364.627 92.9588C364.157 92.9588 361.364 90.4499 358.422 87.3827C355.479 84.3162 353.061 81.9679 353.047 82.1648ZM362.759 98.2482C362.215 100.632 361.687 102.496 361.584 102.39C361.263 102.062 354.929 85.9533 354.929 85.4658C354.929 85.2116 356.913 87.0087 359.337 89.4596L363.746 93.9147L362.759 98.2482ZM287.416 88.1099C286.93 88.5974 285.888 91.7123 285.102 95.0325L283.671 101.069L281.18 101.817C278.57 102.601 278.186 103.276 277.881 107.616C277.716 109.961 277.649 109.931 281.517 109.308C282.113 109.212 282.111 111.995 281.513 115.263C281.353 116.139 281.449 117.209 281.726 117.639C282.433 118.737 291.788 119.351 299.249 118.791C306.141 118.272 306.141 118.272 307.034 112.677L307.435 110.165H299.728C295.371 110.165 292.021 109.906 292.021 109.569C292.021 107.502 293.382 105.879 295.698 105.183C298.873 104.229 299.379 103.578 299.935 99.7292L300.384 96.6225L297.416 97.0686C294.739 97.4713 294.479 97.4006 294.768 96.3523C296.33 90.6774 296.6 88.3355 295.756 87.7989C294.341 86.8997 288.401 87.1215 287.416 88.1099ZM295.578 89.6132C295.39 90.2269 294.818 92.5491 294.306 94.7751L293.376 98.8211L294.763 98.4342C299.205 97.1954 299.014 97.1654 298.967 99.1034C298.891 102.179 298.092 103.291 295.18 104.369C292.957 105.193 292.262 105.823 291.802 107.431C290.725 111.199 291.11 111.38 299.362 110.973L306.781 110.606L306.31 112.775C305.133 118.199 306.113 117.812 293.551 117.812H282.341L282.795 112.95L283.249 108.088L280.963 108.518C278.757 108.933 278.677 108.883 278.677 107.06C278.677 104.061 279.277 103.214 281.9 102.505C284.083 101.916 284.432 101.541 285.02 99.1531C285.385 97.674 286.14 94.6718 286.699 92.4809L287.715 88.498H291.817C295.431 88.498 295.879 88.6311 295.578 89.6132ZM374.906 91.7442C371.746 95.0828 363.165 102.705 362.884 102.423C362.738 102.276 363.043 100.287 363.562 98.0028L364.507 93.8491L370.362 91.8672C373.582 90.7768 376.342 89.8592 376.494 89.8286C376.647 89.798 375.932 90.6602 374.906 91.7442ZM242.14 104.434C245.635 104.769 251.569 105.512 255.325 106.087L262.156 107.13V108.966C262.156 109.976 261.941 110.797 261.68 110.789C261.418 110.782 257.772 110.188 253.578 109.47C244.957 107.993 226.796 107.164 225.318 108.18C223.623 109.344 226.89 111.788 235.065 115.471C256.324 125.05 289.39 135.188 317.565 140.767C330.911 143.41 333.35 144.188 335.566 146.507C337.295 148.318 337.473 148.924 337.667 153.7C337.874 158.782 335.735 174.954 334.732 175.89C334.137 176.445 324.03 174.906 315.219 172.918C302.744 170.105 301.792 170.492 299.061 179.497C296.058 189.396 295.579 192.577 296.747 194.843C297.289 195.896 298.378 197.213 299.166 197.772C301.159 199.184 313.211 202.945 320.993 204.582L327.481 205.947L326.536 209.197C323.831 218.503 319.123 231.942 317.591 234.731C315.302 238.895 312.44 240.805 308.491 240.805C304.686 240.805 286.048 237.024 275.451 234.1C257.071 229.032 237.055 221.483 220.479 213.369C203.938 205.273 201.434 202.163 201.517 189.824C201.553 184.61 204.021 161.414 204.619 160.675C204.688 160.59 207.086 161.311 209.949 162.276L215.155 164.03L218.945 171.871C221.03 176.184 224.337 182.442 226.295 185.779C230.305 192.612 231.072 193.151 240.255 195.595L245.358 196.953L246.758 202.382C248.156 207.805 248.156 207.811 246.896 209.418C245.283 211.473 245.298 213.065 246.944 214.716C248.678 216.454 251.196 216.105 252.831 213.899C253.919 212.431 254.002 211.913 253.369 210.52C252.958 209.615 251.815 208.592 250.83 208.248C249.202 207.679 248.925 207.113 247.813 202.08L246.588 196.539L238.776 193.978L230.964 191.417L228.38 186.956C224.94 181.016 217.04 165.947 217.04 165.326C217.04 164.846 217.944 164.996 222.923 166.306C225.049 166.865 225.562 167.433 227.601 171.494C228.861 174.002 230.61 177.197 231.489 178.594C232.774 180.634 232.947 181.359 232.371 182.283C230.78 184.84 232.613 188.549 235.468 188.549C236.167 188.549 237.311 187.976 238.01 187.275C240.519 184.758 239.035 181.244 235.273 180.796C233.72 180.611 233.047 179.735 230.084 174.051C228.211 170.459 226.726 167.524 226.784 167.53C229.114 167.772 236.481 170.266 236.856 170.939C238.496 173.877 245.207 182.284 246.692 183.26C247.651 183.891 250.974 185.267 254.077 186.319L259.717 188.23L261.491 192.404C263.238 196.514 263.247 196.6 262.075 198.051C258.495 202.484 264.129 208.167 268.546 204.58C271.51 202.173 269.624 196.838 265.729 196.612C264.346 196.532 263.897 196.023 263.107 193.647C261.184 187.865 260.405 187.16 253.25 184.725L246.694 182.495L241.756 175.773L236.818 169.049L227.088 166.293C221.737 164.777 214.642 162.641 211.321 161.546C205.452 159.609 205.279 159.496 205.086 157.482C204.976 156.343 205.038 155.411 205.223 155.411C205.407 155.411 209.786 156.819 214.953 158.539C220.12 160.26 228.183 162.626 232.871 163.797L241.394 165.926L245.785 171.878C250.645 178.463 250.203 178.181 262.871 182.768C269.749 185.259 270.258 185.559 270.258 187.12C270.258 189.176 273.025 191.735 275.247 191.735C277.262 191.735 279.948 189.071 279.948 187.071C279.948 186.226 279.355 184.779 278.631 183.856C277.042 181.828 273.826 181.586 271.678 183.331C270.29 184.458 270.123 184.43 264.393 182.118C261.167 180.816 256.908 179.239 254.928 178.613C251.547 177.544 251.059 177.116 246.901 171.568C242.083 165.139 241.746 164.873 237.057 163.769C235.309 163.358 227.517 161.11 219.741 158.773C205.387 154.46 204.653 154.077 206.163 151.688C206.6 150.997 208.038 151.261 213.62 153.056C225.083 156.744 227.346 157.097 230.536 155.696C232.026 155.042 234.311 153.85 235.615 153.047L237.986 151.586L243.241 153.104C246.13 153.938 249.352 154.814 250.401 155.049C251.979 155.404 252.949 156.556 256.039 161.746L259.771 168.015L266.59 170.121C272.604 171.979 273.487 172.437 274.076 174.002C275.446 177.64 280.392 177.983 282.156 174.56C284.598 169.825 278.85 165.964 274.9 169.686L273.276 171.215L267.236 169.208C263.914 168.104 260.885 166.997 260.505 166.747C259.701 166.219 253.895 156.35 253.895 155.512C253.895 155.201 256.161 153.626 258.931 152.011L263.968 149.077L270.21 150.904C273.644 151.91 277.24 152.911 278.201 153.128C279.172 153.348 279.948 153.956 279.948 154.497C279.948 155.906 282.848 158.597 284.368 158.597C286.193 158.597 288.209 156.366 288.209 154.346C288.209 150.685 284.235 149.045 281.532 151.592L280.175 152.871L273.23 150.648C269.411 149.425 265.595 148.42 264.75 148.413C263.905 148.406 260.834 149.692 257.925 151.269C255.016 152.846 252.133 154.13 251.519 154.123C250.904 154.115 247.684 153.301 244.364 152.313L238.327 150.518L232.828 153.259L227.329 156L216.943 152.899C208.043 150.242 206.586 149.629 206.768 148.622C206.884 147.975 207.17 147.273 207.403 147.061C207.636 146.849 211.851 147.79 216.77 149.151L225.715 151.625L230.918 148.738C233.78 147.151 236.474 145.852 236.907 145.853C237.339 145.853 240.619 146.578 244.196 147.464L250.699 149.074L253.31 147.738C254.746 147.004 257.76 145.273 260.008 143.893C263.965 141.465 264.148 141.418 265.694 142.434C268.906 144.544 272.96 140.567 270.865 137.36C268.851 134.277 264.545 135.036 264.186 138.538C264.015 140.205 263.225 140.881 257.686 144.1C254.218 146.115 250.925 147.764 250.37 147.764C249.815 147.764 246.5 147.037 243.005 146.148L236.65 144.533L231.035 147.542L225.42 150.551L219.801 148.843C216.71 147.904 212.68 146.798 210.845 146.385C208.75 145.913 207.509 145.298 207.509 144.734C207.509 141.848 212.867 123.657 216.486 114.253C219.138 107.364 220.813 105.214 224.148 104.423C227.123 103.717 234.7 103.721 242.14 104.434ZM257.55 116.262C263.527 117.879 265.315 118.68 264.585 119.412C264.118 119.881 250.586 115.402 249.775 114.509C249.315 114.005 249.451 113.914 250.242 114.194C250.854 114.409 254.142 115.34 257.55 116.262ZM341.14 129.358C349.922 133.778 350.708 138.687 346.59 163.377C344.414 176.428 344.222 177.078 342.563 177.078C341.109 177.078 341.107 177.066 341.934 173.095C345.012 158.311 345.731 143.452 343.602 138.626C341.582 134.046 335.858 130.638 324.111 127.021C320.965 126.053 318.298 125.187 318.182 125.097C318.067 125.006 318.444 124.211 319.021 123.329L320.069 121.725L329.27 124.869C334.331 126.6 339.672 128.619 341.14 129.358ZM321.244 134.21C325.966 135.518 329.267 136.698 328.578 136.833C327.019 137.138 310.449 133.029 310.449 132.338C310.449 131.435 312.515 131.793 321.244 134.21ZM269.418 137.294C270.607 138.487 270.71 140.205 269.654 141.264C268.092 142.83 264.698 141.39 264.698 139.161C264.698 138.685 265.147 137.845 265.696 137.294C266.246 136.744 267.083 136.293 267.557 136.293C268.031 136.293 268.869 136.744 269.418 137.294ZM286.812 153.872C287.045 156.278 285.656 157.619 283.494 157.074C281.626 156.603 280.883 154.682 281.862 152.849C282.4 151.841 283.071 151.561 284.597 151.71C286.341 151.879 286.647 152.178 286.812 153.872ZM280.584 170.068C281.283 170.769 281.855 171.709 281.855 172.157C281.855 173.724 279.867 175.804 278.369 175.804C275.071 175.804 273.626 171.648 276.277 169.786C278.144 168.475 279.054 168.534 280.584 170.068ZM316.602 174.508C325.796 176.463 339.22 178.353 343.909 178.353H346.589L346.232 175.963C345.884 173.642 345.908 173.606 347.066 174.714C348.832 176.404 348.404 181.937 345.714 192.192C342.242 205.43 341.609 206.189 334.652 205.489C325.278 204.545 307.553 200.339 301.345 197.585C297.777 196.002 296.837 194.347 297.354 190.56C298.071 185.313 301.059 175.255 302.295 173.924C303.928 172.167 305.981 172.251 316.602 174.508ZM309.444 180.245C308.717 180.54 307.358 181.691 306.425 182.802C301.906 188.19 306.765 196.945 313.754 196.005C318.335 195.389 321.251 192.038 321.251 187.389C321.251 185.151 318.921 181.527 316.784 180.442C315.008 179.541 311.417 179.444 309.444 180.245ZM317.638 182.441C321.811 186.319 320.01 193.293 314.476 194.686C310.591 195.664 306.001 192.171 306.001 188.237C306.001 183.613 308.579 180.938 313.057 180.916C315.282 180.905 316.379 181.27 317.638 182.441ZM237.342 182.457C237.76 182.961 238.009 184.18 237.897 185.165C237.726 186.659 237.356 186.988 235.669 187.152C234.135 187.301 233.471 187.022 232.923 185.994C231.446 183.225 235.375 180.079 237.342 182.457ZM277.883 184.593C278.945 185.948 278.884 187.332 277.688 189.044C276.453 190.813 274.009 190.878 272.323 189.186C270.586 187.444 270.729 185.71 272.741 184.123C274.574 182.677 276.521 182.855 277.883 184.593ZM310.767 184.213C307.928 185.827 307.691 189.06 310.263 191.088C313.229 193.428 317.015 191.609 317.015 187.843C317.015 184.446 313.721 182.533 310.767 184.213ZM315.109 186.041C317.005 188.757 314.08 192.069 311.165 190.504C309.655 189.694 309.31 186.76 310.576 185.49C311.759 184.304 314.093 184.587 315.109 186.041ZM267.875 198.745C270.183 201.06 268.9 204.64 265.762 204.64C263.465 204.64 262.156 203.413 262.156 201.262C262.156 197.779 265.461 196.324 267.875 198.745ZM336.096 208.782C335.098 212.86 329.575 229.917 328.27 232.953C327.491 234.768 326.358 236.702 325.753 237.252C324.438 238.445 319.38 239.187 318.168 238.364C316.739 237.395 318.397 235.07 320.517 235.07C321.487 235.07 322.764 234.712 323.355 234.273C324.933 233.105 328.359 224.77 331.15 215.313C333.368 207.795 333.729 207.03 335.059 207.03C336.34 207.03 336.471 207.252 336.096 208.782ZM251.626 209.943C252.175 210.494 252.625 211.477 252.625 212.128C252.625 213.393 251.04 215.314 249.996 215.314C248.299 215.314 246.906 213.881 246.906 212.138C246.906 209.319 249.705 208.017 251.626 209.943Z" fill="#121A17"/>
<line x1="198.003" y1="183.5" x2="0.00251791" y2="184.5" stroke="#121A17"/>
<circle r="3.5" transform="matrix(-1 0 0 1 197.5 183.5)" fill="#121A17"/>
</svg>
