<svg width="198" height="242" viewBox="0 0 198 242" fill="none" xmlns="http://www.w3.org/2000/svg">
<path fill-rule="evenodd" clip-rule="evenodd" d="M110.131 0.81682C91.7743 5.38604 82.4595 26.2145 91.1141 43.3424C100.292 61.5071 125.689 64.7412 139.364 49.4876C149.85 37.7899 149.506 19.8673 138.585 8.91523C131.251 1.55988 120.005 -1.64112 110.131 0.81682ZM124.772 2.18121C135.349 4.94377 143.605 14.151 145.514 25.316C148.705 43.9797 131.987 60.9794 113.394 57.9766C101.728 56.0928 92.0698 47.2705 89.5179 36.1687C87.9706 29.4391 89.272 21.1718 92.8399 15.0668C96.1785 9.35303 104.141 3.33658 110.288 1.88425C114.117 0.978687 120.683 1.11379 124.772 2.18121ZM109.496 6.90974C102.382 9.27656 96.3113 15.4453 94.2525 22.3973C92.3157 28.9382 93.3502 37.0889 96.8241 42.6541C99.0551 46.2286 104.457 50.6996 108.414 52.2482C113.45 54.2174 120.814 54.2091 125.881 52.2285C130.696 50.3453 136.299 45.1439 138.758 40.2746C140.479 36.8633 140.632 36.0151 140.632 29.8693C140.632 23.8649 140.454 22.8134 138.891 19.6252C133.564 8.75336 120.69 3.18491 109.496 6.90974ZM126.473 8.9643C131.576 11.3483 135.957 15.6703 138.146 20.4797C139.682 23.856 139.944 25.2178 139.888 29.5506C139.765 39.1562 135.373 46.3178 127.101 50.4014C123.214 52.3209 122.37 52.4923 116.817 52.4923C111.468 52.4923 110.344 52.2845 107.12 50.6965C102.457 48.3997 98.3008 44.2225 96.0616 39.5799C94.5442 36.4338 94.2944 35.1229 94.2716 30.1879C94.2531 26.0667 94.5689 23.6597 95.3956 21.6357C97.9234 15.4447 102.77 10.6569 109.084 8.11482C113.548 6.31772 121.658 6.7141 126.473 8.9643ZM108.997 16.941C106.301 20.3459 104.095 23.3188 104.095 23.5482C104.095 24.3715 109.31 27.4056 110.162 27.078C110.94 26.7785 114.194 22.6974 115.496 20.3892C115.874 19.7182 116.834 20.2019 119.599 22.4604C121.583 24.0822 123.586 25.4084 124.049 25.4084C125.194 25.4084 128.472 20.5581 128.058 19.4767C127.614 18.3162 116.229 10.7512 114.926 10.7512C114.361 10.7512 111.693 13.5367 108.997 16.941ZM121.34 15.3714C124.58 17.5623 127.306 19.6411 127.4 19.9916C127.493 20.3421 126.76 21.6083 125.77 22.8058L123.971 24.9827L120.07 21.9716C117.923 20.316 115.922 19.1128 115.622 19.2989C115.322 19.485 113.988 21.2222 112.657 23.1601C111.327 25.0974 109.928 26.6727 109.549 26.66C109.171 26.6472 108.026 25.9532 107.007 25.1171L105.153 23.5979L106.323 21.7944C108.325 18.7088 114.378 11.3885 114.928 11.3885C115.215 11.3885 118.101 13.1811 121.34 15.3714ZM41.3463 23.8254C27.5593 26.8295 17.5138 39.6061 17.5544 54.0855C17.5805 63.3934 20.6668 70.6519 27.2931 76.9902C32.9948 82.4445 40.167 85.2664 48.4028 85.2963C57.2252 85.3275 64.7087 82.261 70.7256 76.1483C80.1618 66.5619 82.3997 52.3948 76.407 40.1834C72.2379 31.6893 64.5733 25.871 54.8486 23.8197C49.4735 22.686 46.5721 22.6872 41.3463 23.8254ZM129.062 25.4957L127.322 28.1321L129.794 30.2752C131.153 31.4541 132.493 32.4183 132.772 32.4183C133.379 32.4183 136.502 27.9224 136.502 27.0481C136.502 25.9622 133.125 22.8593 131.944 22.8593C131.308 22.8593 130.029 24.0293 129.062 25.4957ZM134.13 25.2542L135.809 27.0111L134.505 29.0778C133.787 30.214 132.997 31.1438 132.75 31.1438C132.503 31.1438 131.399 30.4766 130.296 29.6609L128.292 28.1779L129.878 25.8373C130.751 24.55 131.686 23.4966 131.958 23.4966C132.229 23.4966 133.207 24.2874 134.13 25.2542ZM57.2105 25.3988C70.8406 29.6207 80.0042 43.3526 78.4251 57.189C76.4591 74.4201 61.6579 86.1834 44.6817 84.0078C24.3332 81.3994 12.5046 59.4468 21.4884 40.9628C27.8917 27.7892 43.2812 21.0839 57.2105 25.3988ZM114.612 26.9028C113.72 28.0747 112.991 29.3505 112.991 29.7373C112.991 30.5409 116.903 33.6929 117.9 33.6929C118.262 33.6929 119.336 32.6713 120.286 31.4229C121.973 29.2039 121.985 29.123 120.839 27.8523C120.193 27.1373 118.893 26.1521 117.949 25.662C116.314 24.8138 116.155 24.8731 114.612 26.9028ZM119.199 27.5305L121.206 29.0159L119.481 31.0597L117.757 33.1034L115.702 31.6453C114.572 30.8436 113.643 30.0114 113.637 29.796C113.62 29.1842 116.205 26.0456 116.726 26.0456C116.983 26.0456 118.095 26.7141 119.199 27.5305ZM99.9873 29.0612C99.1008 30.3695 98.3758 31.7887 98.3758 32.215C98.3758 33.0811 102.246 36.2419 103.306 36.2419C103.679 36.2419 104.864 35.0426 105.939 33.5762C107.809 31.0265 107.846 30.8577 106.79 29.6876C105.786 28.575 102.723 26.6829 101.925 26.6829C101.746 26.6829 100.874 27.7529 99.9873 29.0612ZM104.998 29.4531L106.854 30.9431L105.091 33.2608C103.212 35.7308 102.376 35.7289 100.138 33.2474C99.1148 32.1143 99.1237 31.9327 100.294 30.0024C101.771 27.5674 102.537 27.4782 104.998 29.4531ZM42.14 29.5245C40.3925 30.0337 38.7811 30.4632 38.5587 30.4785C38.3363 30.4938 36.4198 31.6683 34.3 33.0881C27.0116 37.9689 23.2924 45.2083 23.185 54.7227C23.1018 62.1169 24.82 66.4504 29.8234 71.4682C40.2356 81.9105 55.6455 82.0928 65.7622 71.8939C78.2091 59.3455 74.5871 38.5246 58.6574 31.0488C53.6801 28.7126 47.0315 28.0989 42.14 29.5245ZM58.2692 32.0366C63.019 34.4856 67.6405 39.0236 70.0044 43.5603C71.8566 47.1137 72.0028 47.86 72.0041 53.7668C72.0053 59.3487 71.7944 60.5913 70.3024 63.7834C67.9246 68.872 63.4619 73.4297 58.4236 75.9176C54.5938 77.8084 53.7284 77.983 48.1899 77.983C42.7074 77.983 41.739 77.7925 37.8667 75.9527C32.7413 73.5177 28.5875 69.436 26.1321 64.4207C24.5207 61.1298 24.3478 60.1287 24.3478 54.0855C24.3478 48.213 24.5493 46.9653 25.9936 43.8892C28.9083 37.6828 33.472 33.5406 40.125 31.0654C45.1246 29.2046 53.6629 29.6615 58.2692 32.0366ZM122.689 33.9178C121.661 35.0929 120.366 36.7033 119.812 37.4967L118.804 38.9389L114.993 35.9972C112.896 34.3792 110.875 33.0556 110.501 33.0556C110.128 33.0556 108.939 34.2747 107.859 35.764L105.896 38.4724L108.649 40.9392C112.808 44.666 118.628 48.459 119.832 48.227C120.42 48.113 123.165 45.3198 125.932 42.0188L130.963 36.017L128.658 33.8993C127.39 32.7344 125.95 31.7811 125.457 31.7811C124.964 31.7811 123.719 32.7427 122.689 33.9178ZM127.737 34.2626L129.796 36.1068L125.007 41.7505C122.373 44.8546 119.881 47.3941 119.468 47.3941C119.055 47.3941 116.023 45.4282 112.731 43.0257L106.744 38.6565L108.438 36.1986C109.369 34.847 110.296 33.7305 110.497 33.7171C110.698 33.7037 112.557 34.9757 114.628 36.5434C116.698 38.1117 118.59 39.4021 118.831 39.4111C119.073 39.4206 120.499 37.851 122 35.9233C123.501 33.9956 124.943 32.4183 125.204 32.4183C125.466 32.4183 126.606 33.2481 127.737 34.2626ZM48.2649 35.9188C47.4871 38.076 47.409 38.1181 45.7543 37.2743C41.8528 35.2848 41.2319 35.3402 40.221 37.7676C38.9444 40.8309 38.999 41.0686 41.1868 41.9774C42.2353 42.4126 43.0931 42.8651 43.0931 42.9817C43.0931 43.0989 41.9926 45.7168 40.648 48.7993C39.3028 51.8818 38.0128 55.1841 37.7809 56.1381C37.4028 57.6937 37.1925 57.8084 35.7367 57.2533C33.2661 56.3114 32.5608 56.4892 31.7576 58.2576C30.5592 60.8953 30.8668 61.544 33.9048 62.7848C36.2908 63.7592 36.7216 64.1836 36.3957 65.2377C35.304 68.7624 35.3535 69.1231 37.0362 69.8916C39.407 70.975 39.5576 70.9132 40.7789 68.345C41.3825 67.0749 42.0307 66.1904 42.2188 66.379C42.4069 66.5676 42.2518 67.3011 41.8737 68.0091C40.6334 70.3333 41.0496 71.7563 43.1878 72.5038C45.8058 73.4189 45.5637 73.5304 46.656 70.9087C47.5767 68.6974 47.6968 68.6317 49.9596 69.1084C55.2617 70.2256 58.8925 68.8369 60.8789 64.9311C62.4516 61.8397 62.4713 60.6716 60.9939 58.2309C59.8476 56.3388 59.8514 56.3127 61.3917 55.0968C62.2463 54.4232 63.3526 52.8938 63.8508 51.6989C64.6616 49.7533 64.6369 49.2824 63.6151 47.1857C62.9873 45.8985 61.5448 44.2715 60.41 43.5705C58.9967 42.6981 58.4458 41.9442 58.6625 41.1808C58.8366 40.5671 59.1499 39.5137 59.3583 38.8394C59.643 37.9192 59.2541 37.3623 57.8009 36.609C56.7365 36.0565 55.6963 35.6047 55.4898 35.6047C55.2833 35.6047 54.5494 36.8231 53.8586 38.3131C52.706 40.7984 52.6259 40.0891 53.6439 36.4127C53.9584 35.2777 53.6941 34.8591 52.3368 34.3416C49.6718 33.3252 49.1234 33.538 48.2649 35.9188ZM52.1296 35.1605C53.1266 35.5161 53.1431 35.7774 52.3164 38.1263C51.8183 39.5436 51.5171 40.7028 51.648 40.7028C51.7782 40.7028 52.3088 40.866 52.8267 41.0654C53.4856 41.3191 53.9927 40.7449 54.5163 39.1536C55.2642 36.8811 56.4785 36.319 58.2317 37.4336C58.923 37.8733 58.9008 38.3825 58.1052 40.2918C57.1381 42.6127 57.1394 42.6165 59.045 43.6049C62.1301 45.2045 63.427 46.8779 63.427 49.2569C63.427 51.632 60.8414 55.36 59.1944 55.36C58.4554 55.36 58.5361 55.7232 59.568 57.0392C62.1104 60.2797 60.7582 65.8756 56.9564 67.8466C55.0132 68.8548 51.8615 68.8261 48.3977 67.7695C47.2527 67.4203 46.8956 67.7249 46.2048 69.6405C45.3788 71.9309 44.2522 72.4433 42.4939 71.3274C41.746 70.8533 41.7168 70.4378 42.3351 69.0772C43.3568 66.8276 43.2895 65.5563 42.1482 65.5563C41.6291 65.5563 40.7859 66.56 40.2743 67.7867C39.2589 70.2249 38.8116 70.4269 37.1404 69.2015C36.2235 68.5291 36.1466 68.0741 36.7013 66.611C37.7199 63.9242 37.6004 63.6967 34.4709 62.3508C31.9464 61.2662 31.6242 60.9151 32.0004 59.6654C32.6885 57.382 33.3697 56.9799 35.1629 57.7988C36.0627 58.2099 37.033 58.5463 37.3189 58.5463C37.6049 58.5463 38.485 56.7543 39.2748 54.5634C40.064 52.3731 41.5147 48.7866 42.499 46.5944L44.2877 42.6076L42.2607 41.574C41.1455 41.0055 40.1517 40.4709 40.0513 40.3855C39.9503 40.3001 40.2108 39.4761 40.6295 38.5546C41.4804 36.6817 42.6509 36.4886 44.9994 37.8351C47.3442 39.1791 47.8322 39.0204 49.0179 36.5268C49.6101 35.2809 50.3066 34.3767 50.5652 34.5168C50.8244 34.6564 51.5279 34.9464 52.1296 35.1605ZM48.5515 46.4803C47.9834 47.9052 47.6663 49.3123 47.8481 49.6067C48.4187 50.5327 53.7652 52.0883 55.1384 51.7282C56.5166 51.3669 57.459 49.0039 56.8547 47.4241C56.4639 46.4038 51.9403 43.8892 50.4947 43.8892C49.9946 43.8892 49.1202 45.0554 48.5515 46.4803ZM54.5309 46.4C56.8198 48.0301 56.6908 50.5148 54.3041 50.7889C52.0591 51.0463 48.812 49.7648 48.812 48.6215C48.812 48.1544 49.1456 47.0379 49.5536 46.1406C50.379 44.3238 51.7134 44.3932 54.5309 46.4ZM159.186 53.4667C151.317 55.4626 142.922 62.3566 139.2 69.8776C129.871 88.7293 141.252 111.046 162.028 114.643C174.096 116.732 188.448 109.658 194.235 98.7694C197.91 91.8544 198.906 84.5157 197.172 77.1386C194.631 66.328 187.474 58.2137 177.328 54.6418C173.133 53.1652 162.969 52.5069 159.186 53.4667ZM44.6925 55.5544C42.7163 60.2976 42.7786 60.8316 45.429 61.8856C50.3765 63.8529 51.8036 63.8879 53.5994 62.0876C55.2445 60.4377 55.3042 58.7579 53.7856 56.8486C53.018 55.8845 47.8436 53.4482 46.5626 53.4482C46.0168 53.4482 45.1748 54.3958 44.6925 55.5544ZM172.722 54.4035C180.696 55.476 189.945 62.7453 193.773 70.9489C203.17 91.0891 188.678 113.989 166.534 113.989C152.372 113.989 139.191 102.403 137.184 88.1914C134.813 71.3975 145.967 56.5523 162.81 54.0855C166.013 53.6164 167.137 53.6527 172.722 54.4035ZM50.7647 55.7175C53.1476 56.9315 54.0143 58.236 53.7824 60.2606C53.6083 61.783 53.2531 62.0825 51.4116 62.2584C50.2201 62.3725 48.0184 61.9959 46.5181 61.4211C44.0043 60.4581 43.8379 60.2555 44.3951 58.8242C44.7275 57.9702 45.2854 56.5358 45.6355 55.6359C46.3141 53.8898 47.2069 53.9045 50.7647 55.7175ZM160.487 59.2384C148.301 62.1182 139.568 75.1918 141.581 87.5421C144.887 107.826 168.882 116.013 183.735 101.925C191.663 94.4061 193.716 83.201 189.042 72.9626C184.226 62.412 171.974 56.523 160.487 59.2384ZM177.691 62.3489C182.342 64.8483 185.954 68.6846 188.442 73.7637C190.003 76.9513 190.196 78.0493 190.196 83.7318C190.196 89.6584 190.046 90.4231 188.116 94.3564C183.256 104.255 172.539 109.737 162.186 107.619C154.187 105.983 147.899 101.077 144.314 93.6751C142.783 90.5149 142.575 89.3372 142.558 83.7184C142.542 78.445 142.783 76.8149 143.955 74.2677C146.819 68.0442 150.828 64.3264 157.894 61.3439C161.125 59.9795 162.377 59.8049 167.638 59.984C173.079 60.1695 174.071 60.4033 177.691 62.3489ZM167.639 65.1198C165.752 66.6919 161.831 70.6493 158.926 73.9153L153.645 79.8534L158.576 84.8572C161.289 87.609 163.963 90.1134 164.519 90.4225C165.194 90.7966 167.738 90.2893 172.145 88.9013L178.758 86.8181L178.634 84.631C178.485 82.0042 173.128 65.0828 171.922 63.4291C171.123 62.3323 170.864 62.4349 167.639 65.1198ZM169.527 69.4156C168.838 72.3751 168.136 75.4008 167.967 76.1388C167.7 77.3043 166.902 77.5841 161.886 78.2717C158.71 78.707 156.005 78.9548 155.873 78.8229C155.741 78.691 158.9 75.1676 162.893 70.9935C166.885 66.8187 170.293 63.5451 170.466 63.719C170.639 63.8924 170.216 66.4555 169.527 69.4156ZM175.119 74.6374C176.828 79.9821 178.128 84.4781 178.009 84.6278C177.889 84.7776 177.008 84.1747 176.051 83.2877C175.094 82.4012 172.932 80.7456 171.247 79.6087C169.563 78.4718 168.301 77.2107 168.444 76.8066C168.587 76.402 169.243 73.5623 169.903 70.4951C170.562 67.4286 171.306 64.919 171.557 64.919C171.808 64.919 173.41 69.292 175.119 74.6374ZM85.0317 76.2713C73.7776 79.2219 64.8046 89.2576 62.6619 101.292C62.261 103.543 61.8734 105.472 61.8003 105.577C61.7278 105.683 59.1327 105.33 56.0344 104.794C47.9192 103.388 32.2812 102.302 27.5212 102.814C25.0011 103.084 22.6411 103.782 21.3518 104.637C16.3693 107.944 9.30841 128.03 4.73456 151.906C2.34724 164.365 -0.31523 187.442 0.0304461 192.676C0.670963 202.381 4.53313 206.999 17.5544 213.629C39.2246 224.661 68.1432 234.65 93.3279 239.8C106.328 242.459 110.182 242.632 114.102 240.729C116.009 239.803 117.565 239.488 119.043 239.728C121.872 240.189 125.377 239.18 127.036 237.428C127.767 236.657 129.053 234.482 129.895 232.594C131.484 229.026 136.645 213.364 137.43 209.724C137.768 208.16 138.413 207.416 140.013 206.746C142.604 205.66 143.994 203.09 146.238 195.24C149.484 183.882 150.096 176.466 148.006 173.803C146.821 172.291 146.826 172.104 148.377 161.768C150.172 149.803 150.561 139.646 149.355 136.24C148.311 133.292 145.259 130.187 141.615 128.367C140.026 127.573 134.72 125.536 129.823 123.84L120.922 120.755L122.403 116.326C124.396 110.366 124.442 102.511 122.518 96.7378C118.928 85.9635 110.422 78.4412 99.1148 76.0374C93.6475 74.8751 90.1355 74.9337 85.0317 76.2713ZM100.6 77.2572C110.406 79.8885 117.833 86.7875 121.331 96.5154C123.298 101.984 123.303 110.311 121.343 116.06C119.601 121.172 115.487 127.011 111.456 130.099L108.545 132.328L104.637 131.341L100.73 130.353L104.16 128.614C108.341 126.494 113.844 120.807 115.528 116.867C117.755 111.655 118.283 106.624 117.164 101.245C115.381 92.6676 109.694 85.8227 101.772 82.7179C97.1011 80.8877 88.7693 80.7163 84.3963 82.3598C77.3957 84.9911 71.5046 90.9272 69.0245 97.848C66.505 104.877 67.6628 114.693 71.6781 120.348C73.2451 122.555 72.9953 122.643 69.0201 121.284C66.2636 120.342 66.0647 120.107 64.8377 116.345C62.8678 110.306 62.5545 106.064 63.6799 100.684C66.0304 89.4462 72.954 81.5281 83.616 77.8842C88.587 76.1853 95.6339 75.9253 100.6 77.2572ZM166.361 83.7465C165.751 86.741 165.145 89.2933 165.016 89.4175C164.885 89.5418 162.556 87.5363 159.839 84.9605L154.9 80.2766L156.98 79.891C160.621 79.2155 165.379 78.454 166.442 78.3769C167.383 78.308 167.376 78.7662 166.361 83.7465ZM173.804 82.4369C176.696 84.5545 178.24 86.0566 177.716 86.2433C174.159 87.5134 166.205 89.8228 166.021 89.638C165.818 89.4341 167.343 81.72 167.979 79.7355C168.364 78.5311 168.656 78.6662 173.804 82.4369ZM102.956 84.3481C107.712 86.6843 111.945 91.0113 114.435 96.0834C116.31 99.9032 116.486 100.779 116.486 106.328C116.486 111.577 116.256 112.887 114.783 116.039C112.464 121.001 107.93 125.693 103.208 128.018L99.329 129.927L87.5734 126.647C80.1713 124.581 75.2785 122.877 74.3609 122.046C73.5596 121.319 71.9869 118.857 70.866 116.573C68.9832 112.739 68.8282 111.935 68.8282 106.036C68.8282 100.447 69.0398 99.1971 70.5248 96.0203C73.4268 89.8114 79.9311 84.5112 86.7766 82.7766C88.0888 82.4439 91.4674 82.2699 94.2855 82.3891C98.2805 82.5586 100.191 82.9901 102.956 84.3481ZM153.047 82.1648C152.937 83.7955 161.021 104.43 161.77 104.43C162.905 104.43 176.76 91.7111 177.864 89.6552C178.33 88.7866 177.207 88.9988 171.961 90.7705C168.397 91.9743 165.097 92.9588 164.627 92.9588C164.157 92.9588 161.364 90.4499 158.422 87.3827C155.479 84.3162 153.061 81.9679 153.047 82.1648ZM162.759 98.2482C162.215 100.632 161.687 102.496 161.584 102.39C161.263 102.062 154.929 85.9533 154.929 85.4658C154.929 85.2116 156.913 87.0087 159.337 89.4596L163.746 93.9147L162.759 98.2482ZM87.4159 88.1099C86.9298 88.5974 85.8883 91.7123 85.1016 95.0325L83.6712 101.069L81.1804 101.817C78.57 102.601 78.1862 103.276 77.8812 107.616C77.716 109.961 77.6493 109.931 81.5165 109.308C82.1125 109.212 82.1106 111.995 81.5127 115.263C81.3526 116.139 81.4485 117.209 81.7256 117.639C82.4334 118.737 91.7876 119.351 99.2489 118.791C106.141 118.272 106.141 118.272 107.034 112.677L107.435 110.165H99.728C95.3715 110.165 92.0215 109.906 92.0215 109.569C92.0215 107.502 93.3819 105.879 95.6981 105.183C98.8734 104.229 99.3792 103.578 99.9352 99.7292L100.384 96.6225L97.4157 97.0686C94.7392 97.4713 94.4787 97.4006 94.7678 96.3523C96.3297 90.6774 96.6004 88.3355 95.7559 87.7989C94.3408 86.8997 88.4014 87.1215 87.4159 88.1099ZM95.578 89.6132C95.3899 90.2269 94.818 92.5491 94.3059 94.7751L93.3756 98.8211L94.7634 98.4342C99.2051 97.1954 99.0138 97.1654 98.9668 99.1034C98.8911 102.179 98.0918 103.291 95.1802 104.369C92.9568 105.193 92.2617 105.823 91.8016 107.431C90.7246 111.199 91.1103 111.38 99.362 110.973L106.781 110.606L106.31 112.775C105.133 118.199 106.113 117.812 93.551 117.812H82.3407L82.795 112.95L83.2493 108.088L80.963 108.518C78.7568 108.933 78.6774 108.883 78.6774 107.06C78.6774 104.061 79.2772 103.214 81.9003 102.505C84.083 101.916 84.4319 101.541 85.0203 99.1531C85.385 97.674 86.1399 94.6718 86.6991 92.4809L87.7145 88.498H91.8169C95.4306 88.498 95.8792 88.6311 95.578 89.6132ZM174.906 91.7442C171.746 95.0828 163.165 102.705 162.884 102.423C162.738 102.276 163.043 100.287 163.562 98.0028L164.507 93.8491L170.362 91.8672C173.582 90.7768 176.342 89.8592 176.494 89.8286C176.647 89.798 175.932 90.6602 174.906 91.7442ZM42.14 104.434C45.6349 104.769 51.5685 105.512 55.3252 106.087L62.1561 107.13V108.966C62.1561 109.976 61.9413 110.797 61.6795 110.789C61.4177 110.782 57.7716 110.188 53.5778 109.47C44.9569 107.993 26.7962 107.164 25.3175 108.18C23.6228 109.344 26.8896 111.788 35.0651 115.471C56.3241 125.05 89.3902 135.188 117.565 140.767C130.911 143.41 133.35 144.188 135.566 146.507C137.295 148.318 137.473 148.924 137.667 153.7C137.874 158.782 135.735 174.954 134.732 175.89C134.137 176.445 124.03 174.906 115.219 172.918C102.744 170.105 101.792 170.492 99.0608 179.497C96.0584 189.396 95.5786 192.577 96.7466 194.843C97.2892 195.896 98.3784 197.213 99.1663 197.772C101.159 199.184 113.211 202.945 120.993 204.582L127.481 205.947L126.536 209.197C123.831 218.503 119.123 231.942 117.591 234.731C115.302 238.895 112.44 240.805 108.491 240.805C104.686 240.805 86.0484 237.024 75.4513 234.1C57.0708 229.032 37.0546 221.483 20.4787 213.369C3.93836 205.273 1.43412 202.163 1.51736 189.824C1.55294 184.61 4.02097 161.414 4.61891 160.675C4.68754 160.59 7.08566 161.311 9.94892 162.276L15.155 164.03L18.9454 171.871C21.0296 176.184 24.337 182.442 26.2948 185.779C30.305 192.612 31.072 193.151 40.2546 195.595L45.3584 196.953L46.7577 202.382C48.1556 207.805 48.1556 207.811 46.8962 209.418C45.2835 211.473 45.2981 213.065 46.9445 214.716C48.6779 216.454 51.1962 216.105 52.8311 213.899C53.919 212.431 54.0016 211.913 53.3687 210.52C52.9576 209.615 51.8151 208.592 50.8295 208.248C49.2022 207.679 48.9251 207.113 47.8131 202.08L46.588 196.539L38.776 193.978L30.964 191.417L28.3803 186.956C24.9401 181.016 17.0404 165.947 17.0404 165.326C17.0404 164.846 17.9439 164.996 22.9232 166.306C25.0494 166.865 25.5615 167.433 27.6013 171.494C28.8607 174.002 30.61 177.197 31.4895 178.594C32.7737 180.634 32.9472 181.359 32.3715 182.283C30.7797 184.84 32.6129 188.549 35.4679 188.549C36.1669 188.549 37.3107 187.976 38.0097 187.275C40.519 184.758 39.0352 181.244 35.2728 180.796C33.7205 180.611 33.0469 179.735 30.0839 174.051C28.2113 170.459 26.7263 167.524 26.7841 167.53C29.1136 167.772 36.4808 170.266 36.8563 170.939C38.4958 173.877 45.2066 182.284 46.6916 183.26C47.6511 183.891 50.9744 185.267 54.0772 186.319L59.7173 188.23L61.4908 192.404C63.2376 196.514 63.2465 196.6 62.0748 198.051C58.4954 202.484 64.1285 208.167 68.546 204.58C71.5103 202.173 69.6237 196.838 65.7285 196.612C64.3465 196.532 63.8966 196.023 63.1067 193.647C61.1839 187.865 60.4049 187.16 53.2499 184.725L46.6941 182.495L41.7562 175.773L36.8182 169.049L27.0885 166.293C21.7368 164.777 14.6416 162.641 11.3215 161.546C5.45196 159.609 5.27913 159.496 5.08595 157.482C4.97602 156.343 5.03766 155.411 5.22257 155.411C5.40748 155.411 9.78625 156.819 14.953 158.539C20.1203 160.26 28.1833 162.626 32.8709 163.797L41.394 165.926L45.7855 171.878C50.6446 178.463 50.203 178.181 62.871 182.768C69.7489 185.259 70.2579 185.559 70.2579 187.12C70.2579 189.176 73.0252 191.735 75.2467 191.735C77.2623 191.735 79.9482 189.071 79.9482 187.071C79.9482 186.226 79.3554 184.779 78.631 183.856C77.0418 181.828 73.8265 181.586 71.6781 183.331C70.2897 184.458 70.1232 184.43 64.3929 182.118C61.1674 180.816 56.9081 179.239 54.9281 178.613C51.5469 177.544 51.0589 177.116 46.9013 171.568C42.0828 165.139 41.746 164.873 37.0565 163.769C35.3091 163.358 27.5167 161.11 19.741 158.773C5.38715 154.46 4.65259 154.077 6.16301 151.688C6.59956 150.997 8.03754 151.261 13.6198 153.056C25.083 156.744 27.3465 157.097 30.5363 155.696C32.0258 155.042 34.3108 153.85 35.6153 153.047L37.9861 151.586L43.2405 153.104C46.1299 153.938 49.3521 154.814 50.4006 155.049C51.979 155.404 52.9493 156.556 56.0388 161.746L59.7707 168.015L66.5895 170.121C72.6039 171.979 73.4872 172.437 74.0762 174.002C75.4456 177.64 80.3918 177.983 82.1564 174.56C84.5977 169.825 78.8502 165.964 74.8997 169.686L73.2762 171.215L67.2358 169.208C63.9137 168.104 60.8846 166.997 60.5046 166.747C59.7008 166.219 53.8955 156.35 53.8955 155.512C53.8955 155.201 56.1614 153.626 58.9313 152.011L63.9677 149.077L70.2102 150.904C73.6441 151.91 77.24 152.911 78.2008 153.128C79.1718 153.348 79.9482 153.956 79.9482 154.497C79.9482 155.906 82.8477 158.597 84.3677 158.597C86.1933 158.597 88.2089 156.366 88.2089 154.346C88.2089 150.685 84.2349 149.045 81.5324 151.592L80.1751 152.871L73.2304 150.648C69.4115 149.425 65.5951 148.42 64.75 148.413C63.9048 148.406 60.8338 149.692 57.9254 151.269C55.0164 152.846 52.1334 154.13 51.519 154.123C50.9039 154.115 47.6841 153.301 44.364 152.313L38.3274 150.518L32.8283 153.259L27.3293 156L16.9425 152.899C8.04263 150.242 6.58621 149.629 6.76795 148.622C6.88423 147.975 7.17017 147.273 7.40338 147.061C7.63595 146.849 11.8514 147.79 16.7703 149.151L25.7147 151.625L30.9176 148.738C33.7796 147.151 36.4744 145.852 36.9065 145.853C37.3386 145.853 40.6187 146.578 44.1956 147.464L50.6986 149.074L53.3096 147.738C54.7457 147.004 57.7602 145.273 60.0084 143.893C63.9652 141.465 64.1476 141.418 65.6942 142.434C68.9057 144.544 72.9604 140.567 70.8654 137.36C68.851 134.277 64.5447 135.036 64.1857 138.538C64.0148 140.205 63.2249 140.881 57.6858 144.1C54.2177 146.115 50.9255 147.764 50.3701 147.764C49.8147 147.764 46.5003 147.037 43.0054 146.148L36.6505 144.533L31.0351 147.542L25.4205 150.551L19.8007 148.843C16.7099 147.904 12.68 146.798 10.8449 146.385C8.74986 145.913 7.50886 145.298 7.50886 144.734C7.50886 141.848 12.8668 123.657 16.4863 114.253C19.1379 107.364 20.8129 105.214 24.1477 104.423C27.1234 103.717 34.6997 103.721 42.14 104.434ZM57.5499 116.262C63.5274 117.879 65.3155 118.68 64.5854 119.412C64.1177 119.881 50.5862 115.402 49.7747 114.509C49.3153 114.005 49.4506 113.914 50.2424 114.194C50.8537 114.409 54.142 115.34 57.5499 116.262ZM141.14 129.358C149.922 133.778 150.708 138.687 146.59 163.377C144.414 176.428 144.222 177.078 142.563 177.078C141.109 177.078 141.107 177.066 141.934 173.095C145.012 158.311 145.731 143.452 143.602 138.626C141.582 134.046 135.858 130.638 124.111 127.021C120.965 126.053 118.298 125.187 118.182 125.097C118.067 125.006 118.444 124.211 119.021 123.329L120.069 121.725L129.27 124.869C134.331 126.6 139.672 128.619 141.14 129.358ZM121.244 134.21C125.966 135.518 129.267 136.698 128.578 136.833C127.019 137.138 110.449 133.029 110.449 132.338C110.449 131.435 112.515 131.793 121.244 134.21ZM69.4185 137.294C70.6074 138.487 70.7097 140.205 69.6542 141.264C68.0923 142.83 64.6979 141.39 64.6979 139.161C64.6979 138.685 65.1471 137.845 65.6961 137.294C66.2458 136.744 67.0833 136.293 67.5573 136.293C68.0313 136.293 68.8688 136.744 69.4185 137.294ZM86.8116 153.872C87.0454 156.278 85.6563 157.619 83.494 157.074C81.6258 156.603 80.883 154.682 81.8615 152.849C82.3998 151.841 83.0708 151.561 84.5971 151.71C86.3413 151.879 86.647 152.178 86.8116 153.872ZM80.5837 170.068C81.2827 170.769 81.8545 171.709 81.8545 172.157C81.8545 173.724 79.8669 175.804 78.3692 175.804C75.0707 175.804 73.6263 171.648 76.2774 169.786C78.1436 168.475 79.0542 168.534 80.5837 170.068ZM116.602 174.508C125.796 176.463 139.22 178.353 143.909 178.353H146.589L146.232 175.963C145.884 173.642 145.908 173.606 147.066 174.714C148.832 176.404 148.404 181.937 145.714 192.192C142.242 205.43 141.609 206.189 134.652 205.489C125.278 204.545 107.553 200.339 101.345 197.585C97.7766 196.002 96.8368 194.347 97.354 190.56C98.0714 185.313 101.059 175.255 102.295 173.924C103.928 172.167 105.981 172.251 116.602 174.508ZM109.444 180.245C108.717 180.54 107.358 181.691 106.425 182.802C101.906 188.19 106.765 196.945 113.754 196.005C118.335 195.389 121.251 192.038 121.251 187.389C121.251 185.151 118.921 181.527 116.784 180.442C115.008 179.541 111.417 179.444 109.444 180.245ZM117.638 182.441C121.811 186.319 120.01 193.293 114.476 194.686C110.591 195.664 106.001 192.171 106.001 188.237C106.001 183.613 108.579 180.938 113.057 180.916C115.282 180.905 116.379 181.27 117.638 182.441ZM37.3424 182.457C37.7599 182.961 38.009 184.18 37.8965 185.165C37.7256 186.659 37.3564 186.988 35.6687 187.152C34.1348 187.301 33.4714 187.022 32.923 185.994C31.4456 183.225 35.3751 180.079 37.3424 182.457ZM77.8831 184.593C78.9449 185.948 78.8839 187.332 77.688 189.044C76.4534 190.813 74.0095 190.878 72.3231 189.186C70.5858 187.444 70.7288 185.71 72.7405 184.123C74.5738 182.677 76.5207 182.855 77.8831 184.593ZM110.767 184.213C107.928 185.827 107.691 189.06 110.263 191.088C113.229 193.428 117.015 191.609 117.015 187.843C117.015 184.446 113.721 182.533 110.767 184.213ZM115.109 186.041C117.005 188.757 114.08 192.069 111.165 190.504C109.655 189.694 109.31 186.76 110.576 185.49C111.759 184.304 114.093 184.587 115.109 186.041ZM67.875 198.745C70.1829 201.06 68.9 204.64 65.7622 204.64C63.4651 204.64 62.1561 203.413 62.1561 201.262C62.1561 197.779 65.461 196.324 67.875 198.745ZM136.096 208.782C135.098 212.86 129.575 229.917 128.27 232.953C127.491 234.768 126.358 236.702 125.753 237.252C124.438 238.445 119.38 239.187 118.168 238.364C116.739 237.395 118.397 235.07 120.517 235.07C121.487 235.07 122.764 234.712 123.355 234.273C124.933 233.105 128.359 224.77 131.15 215.313C133.368 207.795 133.729 207.03 135.059 207.03C136.34 207.03 136.471 207.252 136.096 208.782ZM51.6264 209.943C52.1754 210.494 52.6246 211.477 52.6246 212.128C52.6246 213.393 51.0399 215.314 49.9958 215.314C48.2992 215.314 46.9057 213.881 46.9057 212.138C46.9057 209.319 49.7054 208.017 51.6264 209.943Z" fill="#121A17"/>
</svg>
