<svg width="333" height="295" viewBox="0 0 333 295" fill="none" xmlns="http://www.w3.org/2000/svg">
<mask id="mask0_495_10942" style="mask-type:alpha" maskUnits="userSpaceOnUse" x="0" y="0" width="333" height="295">
<rect width="333" height="295" fill="#D9D9D9"/>
</mask>
<g mask="url(#mask0_495_10942)">
<path fill-rule="evenodd" clip-rule="evenodd" d="M147.79 11.9954C146.025 13.1254 143.801 15.8184 142.848 17.9784C141.126 21.8814 141.08 21.9054 135.454 21.9054C130.854 21.9054 129.303 22.3584 127.186 24.3204C123.79 27.4684 122.79 31.5294 124.596 34.8364C126.352 38.0494 135.864 42.9044 140.765 43.0894C144.001 43.2104 144.584 43.6314 145.542 46.5334C148.164 54.4784 156.795 57.2304 163.923 52.3924C167.324 50.0854 167.802 50.0034 169.785 51.3924C174.233 54.5074 180.842 52.3234 184.403 46.5614C187.071 42.2464 187.061 38.8884 184.371 35.4694C182.79 33.4594 182.533 32.4724 183.371 31.6344C185.507 29.4984 184.635 24.8864 181.504 21.7554C178.805 19.0564 177.959 18.7854 172.956 19.0174C167.689 19.2614 167.304 19.1124 165.496 16.1384C161.78 10.0284 153.783 8.15638 147.79 11.9954ZM161.172 13.6094C162.602 14.5474 164.376 16.7584 165.114 18.5234C166.401 21.6054 166.589 21.6904 169.871 20.6834C173.966 19.4274 177.838 20.2434 180.525 22.9304C183.128 25.5334 183.114 30.5044 180.5 32.1374C178.015 33.6894 177.927 34.9054 180.3 34.9054C183.03 34.9054 184.5 36.9354 184.5 40.7054C184.5 48.3014 173.638 54.0304 168.985 48.8894C167.165 46.8774 167.154 46.8794 164.325 49.7734C160.879 53.2974 157.061 54.1664 152.817 52.3934C149.708 51.0944 146.5 46.5554 146.5 43.4554C146.5 42.3354 145.461 41.8994 142.75 41.8834C138.477 41.8584 131.077 38.7924 127.75 35.6694C121.617 29.9114 129.37 21.6944 139.345 23.3794C143.091 24.0124 143.167 23.9614 144.348 20.0174C145.008 17.8144 146.723 15.0884 148.159 13.9594C151.387 11.4204 157.576 11.2544 161.172 13.6094ZM36.21 31.5204C35.775 31.9594 28.8 32.3844 20.71 32.4644C9.12 32.5784 4.322 33.0654 -1.91 34.7574C-17.359 38.9524 -26.551 44.8294 -28.47 51.7374C-29.03 53.7554 -29.491 58.2664 -29.494 61.7624C-29.499 67.4314 -29.311 68.0394 -27.75 67.3844C-15.175 62.1034 -4.826 59.9054 7.458 59.9054H16.5V46.7544V33.6034L26.25 34.2344C39.36 35.0834 41.701 35.8244 42.666 39.4334C43.095 41.0364 43.754 55.5234 44.131 71.6264C44.508 87.7294 45.068 100.905 45.374 100.905C45.681 100.905 48.01 98.8574 50.551 96.3544L55.171 91.8044L60.233 96.3544C63.016 98.8574 65.744 100.905 66.294 100.905C67.923 100.905 68.803 75.6544 67.707 60.4054C67.153 52.7054 66.844 46.2544 67.019 46.0694C67.331 45.7414 93.929 51.9264 135.75 62.0494L156.5 67.0724V82.3674V97.6624L153.697 98.8234C146.684 101.728 141.5 109.811 141.5 117.839C141.5 122.399 141.772 122.994 144.5 124.405C146.152 125.259 147.5 126.767 147.5 127.761C147.5 128.754 148.572 131.683 149.882 134.271L152.264 138.976L149.632 140.34C141.089 144.768 131.271 161.206 127.45 177.479C124.234 191.176 125.287 190.788 103.387 186.351C85.893 182.807 73.233 181.709 71.472 183.582C71.047 184.035 75.233 193.76 80.774 205.194C89.445 223.085 90.651 226.175 89.425 227.356C88.641 228.111 82.825 229.46 76.5 230.354C70.175 231.248 62.743 232.62 59.985 233.402C49.565 236.357 44.629 246.156 50.443 252.345C51.762 253.749 52.652 255.039 52.421 255.213C52.189 255.387 49.66 257.21 46.8 259.266C38.345 265.341 33.684 277.636 34.798 290.925L35.352 297.529L27.426 300.127L19.5 302.726V292.565L19.499 282.405L5.75 282.366C-7.075 282.329 -8.626 282.11 -17.307 279.116C-22.426 277.35 -26.813 275.905 -27.057 275.905C-27.301 275.905 -27.5 279.501 -27.5 283.895V291.886L-22.75 295.343C-17.303 299.308 -8.11 302.483 2 303.891C13.439 305.484 18.505 305.114 27.655 302.022L36.186 299.138L38.887 302.524C42.838 307.475 47.259 309.289 64.25 312.929C72.637 314.725 79.5 316.503 79.5 316.878C79.5 317.253 78.348 320.394 76.941 323.858C75.534 327.321 74.628 330.796 74.928 331.578C75.51 333.094 68.015 348.899 66.124 350.145C64.598 351.151 57.6 353.639 54.369 354.325C52.898 354.637 51.513 355.749 51.225 356.848C50.215 360.709 52.475 361.782 64.358 363.085C75.155 364.268 75.785 364.236 77.108 362.426C77.874 361.379 78.5 359.564 78.5 358.393C78.5 355.551 90.817 345.554 93.334 346.352C94.649 346.77 97.639 344.077 105.029 335.822L114.957 324.732L120.479 325.418C123.515 325.796 126.297 326.287 126.661 326.509C127.024 326.731 128.599 328.939 130.161 331.415C131.722 333.891 133.533 335.715 134.185 335.468C134.836 335.22 136.265 336.537 137.36 338.393C139.404 341.857 139.201 344.219 135.963 354.66C135.154 357.269 136.91 359.905 139.457 359.905C141.508 359.905 154.858 344.613 155.334 341.718C155.52 340.586 154.591 338.522 153.23 337.047C150.263 333.83 149.095 330.903 150.781 330.91C151.452 330.913 167.975 334.462 187.5 338.796L223 346.677L230.5 342.587C251.376 331.2 314.914 294.163 315.238 293.192C315.443 292.577 314.678 291.779 313.538 291.417C310.667 290.506 307.501 283.841 307.495 278.695C307.488 272.827 310.282 265.52 314.348 260.77C316.212 258.591 317.572 256.67 317.369 256.5C317.166 256.329 312.725 255.171 307.5 253.927C302.275 252.682 297.043 251.069 295.873 250.342C292.936 248.517 292.096 244.421 293.912 240.782C295.022 238.555 295.095 237.698 294.199 237.387C292.86 236.923 232.134 226.933 215 224.358L204 222.705L204.16 215.055C204.276 209.492 204.94 206.041 206.593 202.405C208.42 198.386 208.952 195.101 209.306 185.655C209.693 175.321 209.956 173.905 211.488 173.905C215.904 173.905 221.225 166.765 219.906 162.61C219.332 160.8 219.162 160.758 218.338 162.23C214.951 168.283 209.5 165.03 209.5 156.954C209.5 150.592 207.753 142.393 205.411 137.762C202.925 132.846 196.248 127.314 190.494 125.403C185.861 123.864 185.759 123.74 185.189 118.923C183.79 107.11 175.275 98.6134 163.432 97.2104L158.5 96.6264V81.8884C158.5 70.5264 158.182 66.8864 157.11 65.9964C156.345 65.3624 135.666 60.0494 111.156 54.1914C67.091 43.6594 66.578 43.5074 65.408 40.6844C63.986 37.2504 62.303 36.2774 53.639 33.8774C45.298 31.5674 37.242 30.4784 36.21 31.5204ZM52.807 35.4974C61.081 37.5394 63.29 39.2044 64.626 44.4054C65.943 49.5354 66.961 92.6934 65.834 95.6224C64.987 97.8214 64.946 97.8114 60.599 94.3724C58.19 92.4654 55.825 90.9054 55.345 90.9054C54.864 90.9054 52.79 92.4474 50.735 94.3324L47 97.7594L45.954 67.5824C45.225 46.5794 44.515 36.6924 43.618 35.0604C42.458 32.9524 42.513 32.7714 44.164 33.2674C45.174 33.5704 49.063 34.5744 52.807 35.4974ZM238.031 48.4644C235.319 50.9784 235.206 50.9944 231.753 49.3554C224.791 46.0514 216.006 50.2464 212.289 58.6494C209.927 63.9894 210.47 68.5274 213.967 72.6844C215.632 74.6624 216.079 75.9584 215.443 76.9634C214.941 77.7564 214.524 80.3244 214.515 82.6704C214.503 86.1444 215.135 87.6274 217.925 90.6704C221.235 94.2794 221.58 94.4064 228.175 94.4234C233.112 94.4364 235.755 94.9484 237.73 96.2754C241.719 98.9544 247.812 100.07 252.595 98.9954C256.864 98.0364 261.5 94.5144 261.5 92.2314C261.5 91.5024 262.197 90.9054 263.05 90.9054C266.014 90.9054 270.475 87.8534 271.089 85.4044C271.43 84.0494 271.209 81.5084 270.598 79.7584C269.716 77.2264 269.781 76.2504 270.917 74.9904C276.579 68.7044 269.581 57.9054 259.845 57.9054C257.128 57.9054 256.563 57.4694 256.009 54.9474C255.652 53.3204 253.8 50.6204 251.895 48.9474C247.353 44.9594 242.013 44.7734 238.031 48.4644ZM251.065 50.3794C252.426 51.7404 253.796 54.1344 254.109 55.6984C254.618 58.2444 255.288 58.6684 260.521 59.7484C270.296 61.7674 274.44 69.0564 268.94 74.5564C266.6 76.8964 266.514 77.2634 267.94 78.8394C271.459 82.7284 268.426 88.9054 262.997 88.9054C261.625 88.9054 260.558 89.9124 259.799 91.9224C257.245 98.6904 243.877 99.8484 237 93.8974C235.42 92.5304 233.73 92.2664 228.952 92.6414C223.498 93.0704 222.594 92.8554 219.736 90.4504C215.794 87.1334 214.698 82.3564 216.902 78.0944C218.441 75.1184 218.405 74.9644 215.491 72.0504C205.681 62.2404 222.075 43.4904 232.969 52.0594L235.708 54.2144L238.176 51.0594C241.423 46.9114 247.287 46.6024 251.065 50.3794ZM-55 58.2194C-57.75 59.5514 -61.125 61.8614 -62.5 63.3534L-65 66.0664V170.392V274.718L-61.947 278.491C-56.02 285.815 -44.616 288.97 -37.659 285.21L-34.317 283.405L-34.433 170.93C-34.501 105.447 -34.927 58.0784 -35.453 57.5524C-35.95 57.0554 -39.427 56.4574 -43.178 56.2234C-48.904 55.8654 -50.803 56.1864 -55 58.2194ZM163.828 65.4924C162.934 67.8224 166.23 70.0694 170 69.6994C172.455 69.4584 173 68.9514 173 66.9054C173 64.6784 172.535 64.3714 168.741 64.0974C165.465 63.8604 164.331 64.1824 163.828 65.4924ZM171.378 65.8094C173.085 66.8894 171.978 68.9104 169.691 68.8904C167.202 68.8674 165.142 67.2934 165.931 66.0174C166.749 64.6944 169.455 64.5904 171.378 65.8094ZM-8 67.4024C-15.388 68.7934 -21.236 70.6834 -26.386 73.3464C-29.238 74.8214 -29.5 75.3754 -29.5 79.9314C-29.5 82.6674 -29.345 84.9054 -29.157 84.9054C-28.968 84.9054 -26.324 84.0494 -23.281 83.0024C-14.496 79.9794 -6.846 78.6514 5.5 78.0064L17 77.4054V72.4154C17 67.6794 16.847 67.3924 14 66.7834C9.071 65.7294 -0.544998 66.0004 -8 67.4024ZM197.5 80.5994C195.215 81.4164 193.5 84.0204 193.5 86.6734C193.5 89.8244 198.654 94.9054 201.852 94.9054C208.135 94.9054 209.089 87.7594 203.487 82.6554C200.37 79.8154 200.025 79.6974 197.5 80.5994ZM202.461 82.8844C204.568 84.0124 206.676 89.2824 205.865 91.3954C204.906 93.8964 201.456 94.2624 198.63 92.1624C196.06 90.2524 194.798 86.1764 195.894 83.3214C196.522 81.6844 199.809 81.4654 202.461 82.8844ZM-1.5 84.5534C-9.295 85.7244 -16.554 87.2964 -22.159 89.0274L-28.5 90.9854L-28.386 160.695C-28.323 199.036 -27.986 236.211 -27.636 243.308L-27 256.211L-23 257.631C-15.381 260.335 2.039 263.919 10.648 264.553L19.296 265.19L18.889 238.297C18.665 223.507 18.207 182.718 17.871 147.655L17.26 83.9054L9.13 84.0414C4.658 84.1164 -0.125 84.3464 -1.5 84.5534ZM-43.434 96.9404C-41.548 97.9504 -41.5 99.8674 -41.5 174.564V251.153L-47.035 250.694C-50.08 250.441 -53.005 249.8 -53.537 249.268C-54.13 248.675 -54.759 219.102 -55.165 172.708C-55.812 98.7994 -55.784 97.1044 -53.914 96.6264C-50.437 95.7384 -45.399 95.8894 -43.434 96.9404ZM181.5 98.3484C181.5 100.273 185.384 102.905 188.223 102.905C191.108 102.905 191.348 99.4294 188.566 97.9404C185.695 96.4044 181.5 96.6464 181.5 98.3484ZM7.5 109.846C7.5 116.863 7.081 122.046 6.483 122.416C4.43 123.684 -20.749 125.056 -21.846 123.959C-24.072 121.733 -20.371 120.565 -8.786 119.838C-2.304 119.43 3.112 119.054 3.25 119.001C3.388 118.948 3.5 114.18 3.5 108.405C3.5 98.5724 3.627 97.9054 5.5 97.9054C7.388 97.9054 7.5 98.5724 7.5 109.846ZM187.96 99.2524C189.212 100.168 189.44 100.824 188.672 101.299C187.362 102.108 183.5 100.295 183.5 98.8704C183.5 97.4844 185.813 97.6824 187.96 99.2524ZM239.484 111.75C237.202 112.959 235.667 114.695 235.034 116.783C234.192 119.561 233.73 119.895 231.425 119.389C227.937 118.623 221.025 121.454 219.059 124.455C216.659 128.119 217.065 133.561 219.955 136.45C221.305 137.8 223.116 138.905 223.98 138.905C225.363 138.905 225.386 139.234 224.166 141.655C221.518 146.911 221.353 149.784 223.43 154.479C225.699 159.609 230.722 162.455 235.996 161.599C238.736 161.155 239.31 161.51 241.044 164.72C244.963 171.978 253.017 174.977 263.015 172.902C269.647 171.525 274.834 167.454 276.539 162.286C277.436 159.569 278.076 158.934 279.35 159.498C280.258 159.9 282.663 160.426 284.696 160.667C291.563 161.481 296.303 153.908 293.113 147.22C291.494 143.825 291.514 143.677 293.978 140.749C301.095 132.291 291.512 122.399 281.333 127.696L277.666 129.605L277.049 126.315C276.157 121.561 271.416 117.901 266.173 117.92C263.878 117.929 261.347 118.349 260.549 118.854C259.475 119.533 258.632 119.006 257.308 116.829C255.023 113.072 249.855 109.914 245.984 109.909C244.326 109.907 241.401 110.735 239.484 111.75ZM253.423 114.494C255.115 115.918 256.507 117.605 256.515 118.244C256.557 121.437 258.17 122.127 261.53 120.39C268.124 116.98 275.5 121.743 275.5 129.412V132.989L279.838 130.447C282.224 129.049 285.599 127.905 287.338 127.905C294.306 127.905 296.897 135.662 291.673 140.886C288.899 143.66 288.88 143.756 290.651 146.059C293.268 149.461 292.999 154.087 290.023 156.884C287.082 159.646 282.193 159.842 279.393 157.308C277.155 155.282 277.326 155.132 275.141 161.033C273.127 166.473 271.023 168.599 265.816 170.456C255.201 174.242 242.935 169.725 241.362 161.451C241.041 159.761 240.276 159.534 235.721 159.776C230.869 160.034 230.175 159.78 226.975 156.58C222.882 152.487 222.49 148.726 225.473 142.155C227.008 138.774 227.117 137.905 226.007 137.905C225.239 137.905 223.386 136.851 221.889 135.563C217.931 132.159 218.15 127.501 222.448 123.66C225.299 121.113 226.372 120.772 230.616 121.066C234.804 121.357 235.501 121.144 235.501 119.578C235.5 118.573 236.815 116.436 238.423 114.828C242.399 110.852 248.923 110.707 253.423 114.494ZM40.583 116.305C41.203 116.901 71.755 120.682 89.5 122.359C108.07 124.114 138.256 125.457 137.363 124.489C137.013 124.109 117.213 122.023 93.363 119.855C53.289 116.211 39.521 115.285 40.583 116.305ZM200.084 118.546C198.646 122.294 205.036 127.365 208.048 124.865C210.186 123.091 209.828 121.308 206.865 118.978C203.696 116.485 200.942 116.31 200.084 118.546ZM205.277 119.462C207.953 121.336 208.198 123.905 205.7 123.905C203.396 123.905 201.5 122.009 201.5 119.705C201.5 117.497 202.391 117.44 205.277 119.462ZM154.5 124.405C155.185 125.23 156.844 125.905 158.188 125.905C159.532 125.905 161.57 126.407 162.717 127.021C164.451 127.949 164.704 127.879 164.215 126.604C163.87 125.705 164.291 124.815 165.233 124.454C166.868 123.827 168.457 125.391 168.485 127.655C168.508 129.527 169.858 129.163 171.268 126.905C172.606 124.763 174.986 124.265 176.006 125.914C177.035 127.58 175.601 130.554 173.267 131.596L171.077 132.573L173.743 135.239C175.209 136.705 177.105 137.905 177.955 137.905C180.048 137.905 179.891 140.792 177.61 144.252C175.763 147.054 162.178 157.905 160.517 157.905C159.547 157.905 157.5 149.189 157.5 145.057C157.5 142.521 157.764 142.337 160.882 142.701C162.742 142.919 164.528 142.668 164.852 142.145C165.179 141.616 164.455 141.367 163.22 141.585C159.513 142.239 154.311 138.791 151.822 134.031C150.564 131.625 149.846 129.155 150.225 128.541C150.632 127.882 151.167 128.445 151.53 129.915C152.109 132.255 152.177 132.205 152.661 129.081C153.103 126.224 152.917 125.824 151.338 126.237C149.231 126.788 148.951 125.854 150.7 124.105C152.271 122.534 152.995 122.591 154.5 124.405ZM160.658 129.905C160.658 131.28 160.885 131.843 161.162 131.155C161.44 130.468 161.44 129.343 161.162 128.655C160.885 127.968 160.658 128.53 160.658 129.905ZM155.107 131.487C154.068 134.196 154.436 135.905 156.059 135.905C157.058 135.905 157.336 135.456 156.834 134.655C156.403 133.968 156.179 132.618 156.338 131.655C156.697 129.474 155.92 129.367 155.107 131.487ZM-50.3 132.105C-50.96 132.765 -51.5 134.142 -51.5 135.164C-51.5 136.197 -51.962 136.737 -52.541 136.38C-53.113 136.026 -53.29 134.818 -52.934 133.696C-52.502 132.335 -52.655 131.883 -53.393 132.339C-54.002 132.715 -54.5 134.121 -54.5 135.464C-54.5 138.889 -50.773 138.841 -49.911 135.405C-48.933 131.511 -46.5 132.267 -46.5 136.464C-46.5 138.582 -46.095 139.773 -45.5 139.405C-43.707 138.297 -44.364 133.048 -46.434 131.94C-48.845 130.65 -48.845 130.65 -50.3 132.105ZM56 133.804C57.733 134.622 73.004 136.003 108 138.505C122.644 139.552 116.931 137.294 100.439 135.517C82.534 133.587 53.142 132.454 56 133.804ZM163.041 135.395L160.082 137.813L163.041 137.503C165.175 137.279 166.089 136.595 166.32 135.049C166.712 132.414 166.686 132.417 163.041 135.395ZM8.316 136.655C8.048 138.077 5.941 138.691 -2.931 139.934L-13.848 141.464L-7.174 145.648C1.354 150.995 1.51 152.723 -6.25 155.865C-9.412 157.146 -12.361 158.512 -12.803 158.902C-13.245 159.292 -9.532 160.438 -4.553 161.449C5.445 163.479 7.085 164.149 6.069 165.793C5.056 167.432 2.243 167.146 -10.49 164.107C-24.999 160.645 -25.482 159.547 -14.534 154.919C-10.115 153.051 -6.505 151.272 -6.511 150.964C-6.516 150.657 -9.891 148.484 -14.011 146.137C-24.928 139.914 -24.46 138.551 -10.75 136.638C4.791 134.47 8.728 134.473 8.316 136.655ZM184.5 140.87C184.5 141.95 183.6 143.316 182.5 143.905C181.228 144.585 180.5 145.999 180.5 147.785C180.5 151.012 178.211 153.447 174.25 154.435C172.604 154.846 171.5 155.801 171.5 156.813C171.5 159.056 169.554 160.905 167.194 160.905C166.146 160.905 164.403 162.03 163.321 163.405C159.169 168.684 151.82 164.194 154.218 157.842C155.063 155.603 154.993 154.729 153.899 153.821C152.035 152.274 152.132 149.969 154.155 147.734C155.145 146.64 155.346 145.905 154.655 145.905C153.269 145.905 153.101 142.269 154.449 141.436C154.972 141.113 155.648 142.549 155.952 144.627C157.025 151.954 158.46 159.199 158.932 159.671C159.625 160.363 167.382 155.647 173.486 150.822C176.659 148.313 179.399 145.12 180.377 142.791C182.096 138.695 184.5 137.575 184.5 140.87ZM152.504 141.4C151.822 142.222 151.501 143.802 151.791 144.91C152.081 146.019 151.824 148.235 151.22 149.835C150.362 152.109 150.427 153.112 151.516 154.424C152.307 155.377 152.792 157.739 152.638 159.879C152.415 162.967 152.857 164.04 155.067 165.779C158.489 168.47 159.678 168.446 163.173 165.616C164.728 164.357 167.244 162.789 168.765 162.131C170.285 161.473 172.035 159.825 172.653 158.469C173.316 157.014 174.949 155.746 176.637 155.375C179.878 154.663 182.5 151.502 182.5 148.305C182.5 147.12 183.175 145.59 184 144.905C184.825 144.22 185.5 142.815 185.5 141.783C185.5 139.293 186.99 139.415 191.912 142.307C197.727 145.725 202.894 153.38 205.307 162.155L206.339 165.905H203.059C201.199 165.905 198.165 167.001 196.048 168.437C192.652 170.742 192.01 170.857 188.884 169.727C186.298 168.792 184.723 168.76 182.502 169.598C179.668 170.668 179.534 170.589 179.037 167.558C178.752 165.824 178.362 162.83 178.17 160.905C177.977 158.98 177.744 160.33 177.65 163.905C177.557 167.48 178.029 174.83 178.698 180.239C180.304 193.213 179.93 193.856 166.975 200.381C158.565 204.617 156.715 205.987 155.186 209.117C153.558 212.448 153.067 212.768 150.409 212.237C148.347 211.824 146.858 212.176 145.513 213.393C142.401 216.21 138.814 214.684 137.392 209.938C135.674 204.204 138.606 186.149 143.141 174.545C146.644 165.579 147.279 161.634 144.074 168.74C142.561 172.095 141.99 172.53 139.673 172.087C138.209 171.807 135.764 170.82 134.238 169.892L131.465 168.206L135.619 159.908C137.903 155.344 141.398 149.804 143.386 147.598C147.623 142.894 155.977 137.216 152.504 141.4ZM-54.116 144.347C-55.763 148.639 -52.225 151.589 -50.354 147.484C-48.66 143.765 -46.151 144.074 -46.717 147.932C-46.995 149.823 -46.756 150.826 -46.081 150.605C-44.354 150.039 -44.252 145.355 -45.937 143.958C-47.887 142.339 -50.534 143.319 -51.212 145.91C-51.499 147.007 -52.18 147.905 -52.725 147.905C-53.284 147.905 -53.443 146.813 -53.089 145.405C-52.419 142.736 -53.192 141.939 -54.116 144.347ZM70.5 149.807C73.871 151.697 109.948 155.216 108.374 153.502C107.745 152.816 76.173 148.919 71.5 148.949C69.622 148.962 69.373 149.175 70.5 149.807ZM-45.764 157.558C-45.141 161.808 -47.774 163.872 -50.58 161.332C-51.733 160.289 -52.419 158.704 -52.155 157.694C-51.898 156.71 -52.095 155.905 -52.594 155.905C-53.092 155.905 -53.5 156.96 -53.5 158.25C-53.5 163.068 -46.645 165.913 -44.535 161.971C-43.183 159.445 -43.228 158.659 -44.849 156.442C-46.077 154.763 -46.16 154.864 -45.764 157.558ZM206.514 168.655C206.521 169.618 206.799 171.417 207.13 172.655C207.681 174.71 207.391 174.905 203.791 174.905C200.847 174.905 199.235 175.558 197.427 177.482C195.469 179.566 194.432 179.934 192.003 179.402C190.351 179.04 187.2 178.668 185 178.575C180.639 178.39 179.539 177.527 179.515 174.276C179.505 172.83 180.497 171.735 182.611 170.859C185.303 169.744 186.175 169.814 189.073 171.375L192.424 173.179L195.997 170.042C200.162 166.385 206.489 165.55 206.514 168.655ZM134.5 171.405C135.185 172.23 136.74 172.905 137.956 172.905C141.037 172.905 141.485 173.649 140.355 176.89C139.083 180.539 135.493 181.612 133.628 178.9C132.873 177.803 131.636 176.905 130.878 176.905C129.247 176.905 129.158 175.934 130.475 172.47C131.587 169.546 132.711 169.249 134.5 171.405ZM201.194 171.544C200.395 172.343 201.298 173.905 202.559 173.905C203.077 173.905 203.5 173.23 203.5 172.405C203.5 170.859 202.32 170.418 201.194 171.544ZM-17.5 181.464C-17.5 189.529 -17.4 189.908 -15.25 189.98C-14.013 190.021 -7.606 190.583 -1.014 191.23C9.048 192.216 11.027 192.686 11.31 194.155C11.605 195.688 10.799 195.898 4.823 195.852C1.07 195.823 -5.472 195.23 -9.716 194.534L-17.432 193.27L-17.958 197.337C-18.248 199.575 -18.6 202.755 -18.742 204.405C-18.904 206.29 -19.557 207.405 -20.5 207.405C-21.789 207.405 -21.949 205.01 -21.64 190.405C-21.299 174.312 -20.689 171.052 -18.298 172.53C-17.859 172.801 -17.5 176.821 -17.5 181.464ZM184.692 173.98C184.889 174.571 185.478 175.055 186 175.055C186.522 175.055 187.111 174.571 187.308 173.98C187.505 173.389 186.917 172.905 186 172.905C185.083 172.905 184.495 173.389 184.692 173.98ZM134.969 174.955C134.019 176.493 135.32 177.485 136.604 176.201C137.322 175.483 137.339 174.924 136.656 174.502C136.096 174.156 135.337 174.36 134.969 174.955ZM-52.749 177.405C-50.136 181.199 -44.5 186.596 -44.5 185.304C-44.5 184.768 -46.821 182.097 -49.658 179.367C-53.205 175.954 -54.17 175.342 -52.749 177.405ZM193.692 175.98C193.889 176.571 194.478 177.055 195 177.055C195.522 177.055 196.111 176.571 196.308 175.98C196.505 175.389 195.917 174.905 195 174.905C194.083 174.905 193.495 175.389 193.692 175.98ZM207.288 187.405C206.776 200.216 205.094 204.528 198.364 210.29C191.242 216.385 184.749 218.374 171.944 218.382C163.054 218.388 160.36 218.043 158.194 216.624C155.121 214.611 154.874 213.016 156.998 208.909C158.1 206.778 160.938 204.845 167.748 201.588C179.665 195.889 180.974 194.418 181.09 186.603C181.199 179.249 182.669 177.733 187.725 179.762C193.724 182.17 194.213 182.134 197.637 179.034C200.161 176.75 201.839 176.042 204.364 176.197L207.727 176.405L207.288 187.405ZM132.268 179.905C132.974 181.036 134.6 181.905 136.008 181.905C137.379 181.905 138.484 182.018 138.464 182.155C138.445 182.292 137.626 187.088 136.646 192.812L134.863 203.218L132.921 197.812C131.332 193.388 130.414 192.222 127.874 191.398L124.77 190.391L126.635 186.914C127.661 185.001 128.5 182.492 128.5 181.337C128.5 177.563 130.363 176.855 132.268 179.905ZM105.61 188.405C117.84 190.88 128.083 192.905 128.373 192.905C128.663 192.905 128.472 193.32 127.95 193.827C127.367 194.392 117.137 192.684 101.5 189.41C87.475 186.474 77.659 184.035 79.687 183.989C81.715 183.943 93.38 185.93 105.61 188.405ZM101.371 190.997C123.131 195.583 126.861 196.633 127.576 198.374C128.034 199.491 131.144 207.596 134.486 216.386C137.828 225.175 140.885 232.676 141.281 233.053C141.676 233.431 147.035 232.61 153.189 231.229L164.378 228.719L171.189 231.5C176.55 233.689 179.65 234.292 185.75 234.33C190.012 234.357 193.5 234.52 193.5 234.693C193.5 234.866 191.979 235.643 190.119 236.42C186.33 238.003 177.742 237.092 170.158 234.302C167.871 233.461 165.206 232.523 164.237 232.219C163.267 231.914 158.153 232.663 152.873 233.883C144.56 235.804 142.691 235.938 138.927 234.885C134.858 233.745 134.275 233.846 129.79 236.466C114.764 245.245 102.767 262.632 88.019 297.004C81.28 312.71 80.331 314.379 78.276 314.139C77.024 313.992 69.317 312.251 61.15 310.27C44.347 306.194 40.895 304.124 37.922 296.339C34.825 288.231 38.033 271.048 43.92 264.203L46.159 261.6L64.58 264.465C80.909 267.004 83.227 267.601 85 269.72C86.1 271.035 88.171 273.494 89.602 275.184L92.204 278.257L97.034 269.331C107.24 250.471 114.724 241.266 124.298 235.797C126.601 234.481 128.488 233.133 128.492 232.8C128.497 232.467 120.784 230.892 111.353 229.3C101.922 227.708 93.652 225.955 92.976 225.405C91.866 224.503 73.5 186.654 73.5 185.27C73.5 184.952 74.063 184.907 74.75 185.171C75.438 185.434 87.417 188.056 101.371 190.997ZM143.24 229.045C143.864 229.669 166.967 224.734 174.75 222.314C175.809 221.985 176.5 222.293 176.5 223.094C176.5 223.991 170.994 225.652 159.42 228.248C150.026 230.355 142.205 231.927 142.04 231.742C140.633 230.163 128.51 195.697 129.053 194.819C129.442 194.189 132.617 201.456 136.108 210.968C139.6 220.479 142.809 228.614 143.24 229.045ZM-52.3 196.105C-54.014 197.819 -53.782 200.351 -51.75 202.108C-49.574 203.99 -43.5 206.097 -43.5 204.97C-43.5 204.512 -44.459 203.887 -45.632 203.581C-47.173 203.178 -47.619 202.47 -47.243 201.029C-46.735 199.089 -48.863 194.905 -50.357 194.905C-50.766 194.905 -51.64 195.445 -52.3 196.105ZM-48.68 199.733C-48.505 200.928 -48.787 201.905 -49.308 201.905C-50.842 201.905 -52.73 199.087 -51.994 197.896C-50.963 196.227 -49.04 197.293 -48.68 199.733ZM98.546 200.349C95.845 203.604 100.315 207.519 103.311 204.523C104.584 203.249 104.715 202.468 103.876 201.136C102.416 198.818 100.101 198.476 98.546 200.349ZM-53.5 208.947C-53.5 209.453 -52.375 210.149 -51 210.494C-49.038 210.987 -48.5 211.759 -48.5 214.081C-48.5 216.661 -48.788 216.963 -50.75 216.438C-52.084 216.081 -51.574 216.648 -49.5 217.829C-45.391 220.168 -41.909 220.669 -44.75 218.513C-46.568 217.133 -47.284 211.303 -45.5 212.405C-44.95 212.745 -44.5 212.589 -44.5 212.058C-44.5 211.527 -46.525 210.403 -49 209.56C-51.475 208.716 -53.5 208.441 -53.5 208.947ZM200.301 225.099C197.313 230.432 192.612 232.905 185.46 232.905C180.409 232.905 166.77 229.301 167.826 228.246C168.067 228.005 170.454 227.267 173.132 226.606C177.229 225.595 178.047 225 178.298 222.845C178.561 220.588 179.292 220.142 184.487 219.069C188.203 218.301 192.522 216.408 196.189 213.94L202 210.027L202.301 215.509C202.535 219.761 202.086 221.913 200.301 225.099ZM155.283 216.327C156.239 218.426 156.065 218.96 153.978 220.327C150.818 222.398 149.116 222.349 149.936 220.211C150.547 218.619 150.473 218.619 148.714 220.211C147.685 221.143 146.492 221.905 146.064 221.905C145.636 221.905 145.579 221.143 145.936 220.211C146.506 218.726 146.334 218.746 144.543 220.366C141.808 222.841 141.899 220.636 144.688 216.865C146.418 214.525 147.641 213.905 150.528 213.905C153.421 213.905 154.408 214.408 155.283 216.327ZM-3.317 218.004C9.292 219.3 11.111 219.871 10.198 222.25C9.754 223.408 8.71301 223.651 6.052 223.22L2.5 222.643V229.666V236.689L7.238 237.554C10.509 238.152 12.079 238.959 12.311 240.162C12.759 242.486 9.822 242.44 -4.262 239.904C-16.784 237.649 -20.5 236.479 -20.5 234.79C-20.5 233.634 -18.539 233.731 -6.25 235.495L-1.5 236.177V229.224V222.271L-11.146 221.142C-16.451 220.521 -21.227 219.578 -21.759 219.046C-23.502 217.303 -21.414 215.701 -18.135 216.265C-16.411 216.561 -9.742 217.344 -3.317 218.004ZM142.5 217.405C141.815 218.23 141.133 218.905 140.985 218.905C140.836 218.905 140.455 218.23 140.138 217.405C139.74 216.366 140.206 215.905 141.654 215.905C143.399 215.905 143.539 216.153 142.5 217.405ZM169.313 220.839C170.931 221.265 167.532 222.454 158.012 224.792C150.524 226.631 144.251 227.971 144.073 227.77C143.894 227.569 143.433 226.38 143.048 225.128C142.38 222.955 142.553 222.871 146.856 223.273C150.398 223.603 152.076 223.198 154.682 221.38C158.006 219.063 162.015 218.914 169.313 220.839ZM-52.25 222.567C-54.106 223.316 -53.763 227.357 -51.684 229.238C-50.686 230.142 -48.323 231.123 -46.434 231.418C-43.269 231.912 -43.181 231.86 -45.313 230.749C-47.032 229.853 -47.481 228.966 -47.062 227.296C-46.721 225.937 -47.119 224.429 -48.071 223.477C-49.711 221.837 -50.184 221.734 -52.25 222.567ZM-48.836 225.472C-47.948 227.787 -49.913 229.317 -51.428 227.491C-52.71 225.948 -52.129 223.905 -50.41 223.905C-49.875 223.905 -49.167 224.61 -48.836 225.472ZM247.5 231.446C269.775 235.022 288.45 238.099 289 238.284C289.55 238.47 286.625 239.617 282.5 240.832C253.477 249.385 236.297 254.565 225.306 258.076L212.612 262.131L194.92 258.805C181.252 256.236 177.624 255.243 178.971 254.442C185.004 250.853 189.812 246.222 192.01 241.885C193.38 239.182 194.5 236.292 194.5 235.462C194.5 234.633 196.065 232.53 197.977 230.79C199.889 229.049 201.699 226.853 201.999 225.908C202.355 224.786 203.317 224.322 204.772 224.568C205.997 224.776 225.225 227.871 247.5 231.446ZM83.399 235.352C81.718 238.201 80.732 238.937 79.108 238.557C77.949 238.285 73.501 237.514 69.225 236.843C64.948 236.172 61.659 235.413 61.915 235.157C62.417 234.654 84.81 231.097 85.291 231.443C85.45 231.559 84.599 233.317 83.399 235.352ZM69.5 238.437L80 240.225V249.564C80 254.701 79.664 258.904 79.254 258.904C76.13 258.907 54.78 253.663 52.9 252.431C49.869 250.445 48.935 246.683 50.522 242.852C51.909 239.503 56.277 235.606 57.932 236.24C58.519 236.465 63.725 237.454 69.5 238.437ZM290.986 243.103C290.569 244.765 289.047 246.076 286.188 247.237C282.713 248.648 282.511 248.861 285 248.491C286.65 248.246 288.707 247.771 289.572 247.436C290.632 247.026 291.528 247.67 292.322 249.413C292.97 250.836 293.5 252.167 293.5 252.373C293.5 253.063 210.366 280.104 209.845 279.584C208.266 278.004 208.534 271.129 210.301 267.905L212.219 264.405L251.61 252.284C273.274 245.617 291.134 240.276 291.299 240.416C291.463 240.555 291.322 241.764 290.986 243.103ZM241 260.389C228.9 264.408 219.368 267.744 219.819 267.801C220.912 267.94 263.586 254.858 265.5 253.797C269.9 251.359 260.87 253.789 241 260.389ZM304.294 254.543C307.983 255.443 311.329 256.47 311.732 256.825C312.49 257.491 225.163 289.927 222.5 289.968C219.229 290.019 144.5 277.424 144.5 276.822C144.5 275.237 149.961 270.915 151.405 271.358C152.282 271.627 165.687 274.137 181.193 276.936L209.385 282.023L252.693 267.553C276.512 259.594 296.358 253.042 296.794 252.994C297.231 252.945 300.606 253.642 304.294 254.543ZM68.969 258.456C75.552 259.853 81.283 261.538 81.704 262.201C83.069 264.348 82.58 266.062 80.75 265.546C79.787 265.274 72.925 264.09 65.5 262.915C48.204 260.177 48.418 260.257 52.047 257.865C55.704 255.454 54.653 255.417 68.969 258.456ZM193.75 259.991C209.319 262.905 212.039 263.836 209.527 265.388C207.67 266.536 206.308 273.915 207.384 277.001C208.114 279.097 208.08 279.905 207.259 279.905C205.79 279.905 163.699 272.17 156.515 270.58L151.03 269.366L154.755 266.524C160.038 262.494 173.235 256.037 175.279 256.481C176.226 256.687 184.538 258.266 193.75 259.991ZM246.771 263.818C240.595 265.791 235.533 267.7 235.521 268.061C235.498 268.783 257.204 262.534 258.209 261.53C259.768 259.97 257.224 260.479 246.771 263.818ZM310.531 262.862C309.373 264.488 307.846 267.526 307.137 269.612C306.087 272.706 304.758 273.999 299.925 276.627C293.132 280.321 293.275 280.753 300.366 277.958L305.307 276.01L305.668 280.546C305.977 284.44 305.673 285.354 303.514 287.01L301 288.938L303.658 287.803C306.069 286.773 306.594 286.979 309.306 290.014C311.991 293.019 312.128 293.476 310.648 294.504C306.89 297.113 225.96 343.233 224.443 343.63C222.462 344.148 217.387 338.077 214.519 331.757C210.506 322.913 212.893 308.795 220.354 297.252L224.238 291.244L261.119 277.928C281.403 270.605 300.7 263.585 304 262.328C312.202 259.206 313.083 259.278 310.531 262.862ZM-27.5 265.192V269.692L-21.187 272.22C-9.321 276.97 3.737 278.794 14.913 277.262C19.446 276.641 19.595 276.513 19.303 273.512L19 270.405L11 269.687C-1.363 268.579 -17.106 265.038 -25.75 261.423C-27.266 260.789 -27.5 261.293 -27.5 265.192ZM284.271 278.725C278.37 281.299 273.532 283.705 273.521 284.072C273.496 284.864 295.573 276.147 296.95 274.82C298.977 272.867 294.638 274.204 284.271 278.725ZM179.905 284.964C200.307 288.297 217.992 291.226 219.204 291.472C221.367 291.912 221.335 292.059 217.538 299.163C208.46 316.145 208.326 328.78 217.108 339.573C218.974 341.866 220.5 343.956 220.5 344.219C220.5 345.585 150.399 329.34 149.332 327.726C148.851 327 148.699 325.017 148.993 323.321C149.287 321.625 148.858 318.336 148.038 316.012C147.218 313.688 145.883 306.405 145.071 299.827C144.258 293.248 143.301 287.392 142.943 286.812C142.037 285.346 140.822 287.272 131.464 305.018C124.662 317.917 123.535 320.704 124.494 322.252C125.979 324.649 125.784 324.724 120.794 323.683L116.589 322.805L119.913 317.605C121.741 314.745 125.83 307.23 129 300.905C134.994 288.945 140.992 278.905 142.143 278.905C142.51 278.905 159.503 281.632 179.905 284.964ZM247.631 305.856C233.678 312.944 221.753 319.274 221.131 319.922C220.509 320.571 231.776 315.224 246.168 308.041C260.56 300.857 272.624 294.513 272.977 293.942C273.33 293.372 273.479 292.92 273.309 292.938C273.139 292.955 261.584 298.769 247.631 305.856ZM272.447 304.236C259.699 309.77 251.193 313.955 255.5 312.575C257.629 311.893 286.914 299.667 287.417 299.25C287.646 299.06 287.622 298.694 287.364 298.435C287.105 298.177 280.393 300.787 272.447 304.236ZM147.969 330.545C148.75 335.753 147.184 338.247 142.401 339.413C140.172 339.956 139.617 339.601 138.506 336.921C137.308 334.027 137.389 333.672 139.606 332.127C140.923 331.209 142.9 329.482 144 328.288C146.861 325.182 147.193 325.37 147.969 330.545ZM85.941 342.443C87.905 343.501 89.397 344.663 89.256 345.025C89.115 345.387 86.367 347.82 83.149 350.432L77.298 355.179L73.868 353.544C71.982 352.644 70.214 351.324 69.94 350.61C69.666 349.896 71.044 345.845 73.001 341.608L76.561 333.905L79.465 337.212C81.062 339.031 83.976 341.385 85.941 342.443Z" fill="black"/>
<path d="M148.08 24.1539L149.051 24.425L147.599 30.0933C148.072 29.291 148.524 28.5639 148.955 27.9119C149.402 27.2515 149.83 26.6985 150.241 26.2526C150.652 25.8068 151.048 25.4814 151.43 25.2764C151.811 25.0714 152.186 25.0205 152.556 25.1238C152.984 25.2433 153.302 25.5752 153.512 26.1195C153.732 26.6671 153.854 27.3678 153.878 28.2215C153.901 29.0752 153.826 30.0573 153.653 31.1676C153.48 32.278 153.219 33.4573 152.87 34.7055C152.731 35.2025 152.579 35.702 152.414 36.2041C152.261 36.7094 152.086 37.2214 151.892 37.7401L150.383 37.3188C150.675 36.5407 150.938 35.7793 151.171 35.0345C151.419 34.2814 151.639 33.5581 151.833 32.8647C152.101 31.9054 152.319 31.0131 152.487 30.188C152.659 29.3512 152.763 28.6204 152.801 27.9955C152.853 27.3622 152.839 26.8537 152.76 26.4701C152.68 26.0865 152.53 25.8641 152.311 25.8027C152.045 25.7285 151.699 25.8748 151.272 26.2416C150.857 26.6116 150.396 27.1492 149.887 27.8544C149.379 28.5597 148.849 29.4084 148.298 30.4007C147.75 31.3814 147.219 32.4543 146.707 33.6194L146.067 36.1131L144.541 35.6869L148.08 24.1539ZM158.069 26.944L163.027 28.3289L162.683 29.5598L158.805 28.1215L157.411 33.5817L160.393 34.4146L160.175 35.1947L157.21 34.3667L156.055 38.9032L154.53 38.477L158.069 26.944ZM166.275 30.2454L163.236 29.2843L163.468 28.4521L170.628 30.4521L170.333 31.5096L167.288 30.5658L164.558 41.2781L163.032 40.852L166.275 30.2454Z" fill="black"/>
<path d="M222.497 72.9574C222.748 72.9815 222.975 72.7597 223.18 72.2919C223.395 71.8156 223.593 71.1736 223.774 70.366C223.956 69.549 224.118 68.5988 224.26 67.5155C224.411 66.433 224.544 65.2925 224.66 64.0941L225.872 64.211C225.757 65.4095 225.665 66.554 225.597 67.6445C225.539 68.7359 225.521 69.7 225.543 70.5367C225.567 71.3641 225.634 72.0316 225.744 72.5392C225.865 73.0384 226.05 73.3001 226.301 73.3243C226.552 73.3485 226.803 73.1289 227.054 72.6656C227.315 72.1938 227.56 71.5563 227.787 70.7531C228.025 69.9415 228.238 68.9963 228.426 67.9174C228.624 66.8394 228.781 65.7012 228.896 64.5027L230.123 64.621C229.99 65.9022 229.788 67.1158 229.518 68.2618C229.258 69.3995 228.952 70.3919 228.598 71.2392C228.254 72.0874 227.876 72.7495 227.464 73.2255C227.062 73.7024 226.656 73.9212 226.248 73.8817C225.987 73.8566 225.765 73.7274 225.582 73.494C225.399 73.2513 225.247 72.9273 225.127 72.5219C225.008 72.1071 224.919 71.6203 224.86 71.0615C224.801 70.5026 224.772 69.8856 224.771 69.2104C224.632 69.8721 224.481 70.4717 224.316 71.009C224.161 71.5473 223.986 72.0086 223.789 72.3928C223.603 72.7687 223.397 73.0582 223.171 73.2615C222.946 73.4554 222.703 73.5399 222.443 73.5148C222.034 73.4753 221.674 73.1827 221.36 72.6368C221.057 72.0917 220.812 71.3696 220.627 70.4703C220.451 69.572 220.34 68.5392 220.293 67.3719C220.256 66.1963 220.295 64.967 220.41 63.6841L221.636 63.8024C221.52 65.0008 221.452 66.1476 221.431 67.2426C221.419 68.3385 221.447 69.307 221.516 70.1482C221.595 70.981 221.713 71.6534 221.87 72.1655C222.037 72.6692 222.246 72.9332 222.497 72.9574ZM236.211 69.2028C236.184 69.4815 236.106 69.7506 235.978 70.0102C235.86 70.2613 235.689 70.4839 235.464 70.6778C235.248 70.8727 234.981 71.0204 234.662 71.1209C234.342 71.2213 233.974 71.2514 233.556 71.2111C233.389 71.195 233.213 71.1687 233.029 71.1322C232.846 71.0864 232.659 71.0308 232.468 70.9656C232.476 71.3695 232.5 71.7516 232.541 72.1118C232.59 72.4729 232.653 72.7884 232.731 73.0584C232.808 73.3284 232.899 73.5482 233.005 73.7178C233.111 73.8781 233.229 73.9645 233.359 73.977C233.527 73.9931 233.695 73.85 233.865 73.5476C234.045 73.2368 234.217 72.8127 234.381 72.2753L235.353 72.5519C235.075 73.2002 234.745 73.7075 234.363 74.0738C233.991 74.4317 233.637 74.5946 233.303 74.5623C232.968 74.53 232.667 74.3509 232.398 74.025C232.14 73.6906 231.922 73.2711 231.746 72.7665C231.58 72.2535 231.466 71.6846 231.404 71.0598C231.344 70.4257 231.344 69.7928 231.405 69.1611C231.456 68.6315 231.557 68.2147 231.708 67.9105C231.869 67.6071 232.064 67.3775 232.295 67.2216C232.535 67.0666 232.802 66.9751 233.095 66.9472C233.398 66.9201 233.712 66.9223 234.037 66.9536C234.362 66.985 234.665 67.0471 234.947 67.1399C235.229 67.2327 235.469 67.3684 235.667 67.5469C235.866 67.7255 236.013 67.9506 236.109 68.2224C236.214 68.4858 236.248 68.8126 236.211 69.2028ZM232.533 69.27C232.497 69.6509 232.476 70.0145 232.47 70.361C232.626 70.4041 232.772 70.437 232.911 70.4597C233.049 70.4824 233.184 70.5001 233.314 70.5126C233.639 70.544 233.912 70.5328 234.133 70.4791C234.354 70.4161 234.532 70.3208 234.667 70.1931C234.801 70.0654 234.901 69.9062 234.966 69.7156C235.031 69.525 235.075 69.3182 235.096 69.0952C235.147 68.5657 235.062 68.1824 234.841 67.9454C234.621 67.6992 234.335 67.559 233.982 67.525C233.805 67.5079 233.636 67.515 233.473 67.5462C233.321 67.5691 233.178 67.6443 233.044 67.772C232.92 67.8913 232.813 68.0733 232.724 68.3178C232.635 68.5531 232.572 68.8705 232.533 69.27ZM238.716 64.3248L239.427 64.3933L239.054 69.1394C239.259 68.6623 239.492 68.2862 239.753 68.0114C240.024 67.7281 240.332 67.603 240.675 67.6362C241.01 67.6684 241.307 67.8471 241.566 68.1722C241.835 68.4981 242.053 68.913 242.22 69.4167C242.396 69.9213 242.515 70.486 242.577 71.1108C242.638 71.7356 242.639 72.3639 242.578 72.9956C242.527 73.5251 242.421 73.9416 242.26 74.2449C242.109 74.5491 241.913 74.7787 241.673 74.9337C241.443 75.0896 241.176 75.1811 240.873 75.2082C240.58 75.2361 240.271 75.2344 239.946 75.2031C239.62 75.1717 239.312 75.1138 239.02 75.0294C238.737 74.9459 238.493 74.8051 238.287 74.6071C238.09 74.4099 237.942 74.1472 237.843 73.8188C237.752 73.4912 237.733 73.0627 237.784 72.5332L238.716 64.3248ZM240.62 68.2075C240.434 68.1896 240.25 68.3031 240.067 68.548C239.884 68.7929 239.707 69.1227 239.536 69.5375C239.374 69.9532 239.229 70.4316 239.102 70.9725C238.984 71.5144 238.898 72.0686 238.843 72.6353C238.804 73.0441 238.809 73.3728 238.86 73.6216C238.911 73.8703 238.991 74.0701 239.098 74.2211C239.215 74.3637 239.351 74.4659 239.504 74.5276C239.659 74.58 239.824 74.6147 240.001 74.6317C240.177 74.6487 240.342 74.6458 240.494 74.623C240.656 74.5918 240.799 74.5165 240.923 74.3972C241.058 74.2695 241.169 74.088 241.257 73.8528C241.346 73.6175 241.409 73.2955 241.449 72.8867C241.504 72.32 241.525 71.7595 241.513 71.2051C241.5 70.6507 241.459 70.1544 241.389 69.7163C241.319 69.2782 241.217 68.9215 241.084 68.6461C240.951 68.3708 240.797 68.2246 240.62 68.2075ZM254.232 69.0704C254.194 69.4606 254.073 69.8427 253.868 70.2168C253.663 70.5909 253.374 70.9146 253.001 71.188C252.627 71.4614 252.176 71.6711 251.646 71.8169C251.117 71.9534 250.504 71.988 249.808 71.9208L249.861 71.3634C250.335 71.4091 250.744 71.4016 251.087 71.341C251.431 71.2804 251.721 71.1865 251.958 71.0593C252.196 70.9322 252.384 70.7769 252.524 70.5935C252.672 70.4109 252.784 70.2248 252.859 70.0351C252.943 69.8462 252.998 69.6594 253.025 69.4745C253.063 69.2812 253.089 69.1102 253.103 68.9615C253.145 68.5249 253.034 68.2142 252.771 68.0294C252.518 67.8362 252.196 67.7207 251.806 67.6831C251.416 67.6454 251.073 67.6968 250.778 67.8371C250.494 67.9691 250.33 68.2534 250.288 68.69C250.266 68.9223 250.265 69.1707 250.286 69.4353L249.228 69.4738C249.155 69.1574 249.132 68.8598 249.159 68.5811C249.192 68.2467 249.283 67.9743 249.435 67.7638C249.596 67.5543 249.799 67.3911 250.045 67.2741C250.291 67.1572 250.569 67.0856 250.881 67.0594C251.193 67.0333 251.521 67.0368 251.865 67.0699C252.209 67.1031 252.531 67.1623 252.832 67.2476C253.133 67.333 253.394 67.4565 253.612 67.6182C253.831 67.78 253.995 67.9786 254.103 68.2141C254.221 68.4506 254.264 68.736 254.232 69.0704ZM251.761 71.5044C252.169 71.6469 252.508 71.8296 252.777 72.0525C253.046 72.2754 253.257 72.5161 253.41 72.7747C253.574 73.0249 253.686 73.2747 253.746 73.5244C253.806 73.774 253.827 73.9963 253.808 74.1914C253.764 74.6466 253.654 75.0157 253.476 75.2987C253.308 75.5825 253.09 75.8006 252.822 75.9529C252.555 76.1052 252.25 76.2024 251.908 76.2445C251.567 76.2865 251.21 76.2896 250.838 76.2538C250.467 76.218 250.117 76.1467 249.79 76.0402C249.462 75.9429 249.18 75.8078 248.943 75.635C248.707 75.4621 248.526 75.2478 248.4 74.9919C248.284 74.7369 248.243 74.4329 248.277 74.0799C248.304 73.8011 248.371 73.5404 248.479 73.2976L249.524 73.5531C249.469 73.7353 249.429 73.9472 249.406 74.1887C249.384 74.421 249.407 74.6201 249.475 74.7861C249.543 74.9521 249.647 75.0887 249.787 75.196C249.927 75.3032 250.092 75.3848 250.284 75.4408C250.475 75.4968 250.683 75.5355 250.906 75.557C251.129 75.5785 251.339 75.5801 251.538 75.5618C251.738 75.5342 251.918 75.4671 252.078 75.3607C252.238 75.2543 252.37 75.0982 252.475 74.8926C252.579 74.687 252.647 74.417 252.679 74.0825C252.695 73.9153 252.685 73.7315 252.648 73.531C252.621 73.3221 252.552 73.1139 252.441 72.9062C252.33 72.6986 252.171 72.5004 251.964 72.3117C251.767 72.1238 251.51 71.9631 251.195 71.8296L251.761 71.5044ZM255.89 76.7411C255.788 76.7313 255.695 76.6801 255.61 76.5875C255.524 76.5042 255.455 76.3944 255.402 76.258C255.351 76.1124 255.315 75.9542 255.294 75.7834C255.273 75.6126 255.271 75.4389 255.288 75.2624C255.313 75.0023 255.398 74.8464 255.544 74.7948C255.699 74.7441 255.878 74.7287 256.083 74.7484C256.287 74.7681 256.456 74.8172 256.589 74.8957C256.722 74.9741 256.776 75.1434 256.751 75.4036C256.734 75.5801 256.699 75.7501 256.645 75.9138C256.592 76.0774 256.526 76.2258 256.448 76.3589C256.37 76.4827 256.281 76.5772 256.181 76.6426C256.089 76.7181 255.993 76.751 255.89 76.7411ZM261.764 68.6437C261.532 68.6213 261.302 68.7632 261.076 69.0696C260.85 69.3759 260.636 69.7867 260.437 70.3019C260.246 70.818 260.077 71.4111 259.928 72.0812C259.779 72.7421 259.672 73.4162 259.606 74.1037C259.558 74.5961 259.562 74.9949 259.617 75.3003C259.672 75.6056 259.766 75.8491 259.898 76.0307C260.032 76.2029 260.193 76.3263 260.383 76.4009C260.573 76.4662 260.78 76.5096 261.003 76.5311C261.226 76.5526 261.437 76.5495 261.637 76.5219C261.838 76.485 262.02 76.3947 262.184 76.2511C262.348 76.0982 262.487 75.8772 262.599 75.5879C262.711 75.2987 262.791 74.9079 262.839 74.4155C262.905 73.7281 262.929 73.0458 262.91 72.3689C262.891 71.6826 262.834 71.0676 262.736 70.5237C262.648 69.9807 262.522 69.5372 262.358 69.1933C262.194 68.8493 261.996 68.6661 261.764 68.6437ZM261.823 68.0305C262.213 68.0682 262.558 68.2843 262.858 68.6789C263.157 69.0734 263.4 69.575 263.585 70.1836C263.779 70.7931 263.91 71.4761 263.978 72.2328C264.045 72.9895 264.042 73.7533 263.968 74.5244C263.906 75.1654 263.782 75.6739 263.595 76.0497C263.418 76.4265 263.194 76.7096 262.923 76.8991C262.652 77.0793 262.347 77.1857 262.006 77.2185C261.664 77.2606 261.308 77.2637 260.936 77.2278C260.564 77.192 260.215 77.1208 259.888 77.0142C259.56 76.9169 259.28 76.754 259.049 76.5254C258.819 76.2875 258.648 75.9663 258.537 75.5618C258.435 75.1582 258.415 74.6358 258.477 73.9948C258.551 73.2237 258.694 72.4733 258.905 71.7435C259.116 71.0137 259.371 70.3679 259.669 69.8059C259.976 69.2448 260.314 68.7992 260.684 68.4692C261.053 68.1391 261.433 67.9929 261.823 68.0305Z" fill="black"/>
<path d="M242.604 147.365C242.567 147.776 242.508 148.159 242.429 148.513C242.347 148.859 242.238 149.167 242.1 149.439C241.972 149.709 241.818 149.932 241.639 150.109C241.47 150.283 241.276 150.396 241.058 150.447C240.676 150.537 240.273 150.435 239.849 150.142C239.426 149.849 239.019 149.427 238.631 148.876C238.242 148.325 237.884 147.68 237.557 146.943C237.227 146.195 236.966 145.413 236.774 144.596C236.618 143.932 236.565 143.384 236.616 142.95C236.667 142.516 236.791 142.165 236.987 141.899C237.19 141.621 237.452 141.41 237.773 141.268C238.092 141.116 238.438 140.996 238.811 140.908C239.165 140.825 239.504 140.779 239.828 140.769C240.159 140.749 240.468 140.801 240.756 140.925C241.042 141.039 241.301 141.242 241.532 141.533C241.764 141.824 241.967 142.236 242.14 142.77L241.045 143.374C240.919 142.876 240.775 142.488 240.613 142.21C240.459 141.92 240.29 141.715 240.109 141.595C239.934 141.464 239.746 141.398 239.544 141.397C239.35 141.385 239.148 141.404 238.939 141.453C238.73 141.503 238.537 141.577 238.359 141.676C238.181 141.776 238.039 141.929 237.935 142.136C237.839 142.341 237.789 142.616 237.784 142.962C237.78 143.309 237.842 143.759 237.973 144.313C238.151 145.067 238.36 145.794 238.602 146.495C238.851 147.184 239.109 147.795 239.378 148.326C239.654 148.846 239.927 149.251 240.197 149.542C240.467 149.834 240.711 149.954 240.929 149.902C241.184 149.842 241.363 149.584 241.466 149.128C241.577 148.661 241.627 148.084 241.619 147.395L242.604 147.365ZM245.22 145.468C245.148 144.919 245.105 144.412 245.091 143.945C245.075 143.47 245.098 143.057 245.159 142.707C245.218 142.348 245.323 142.059 245.473 141.842C245.621 141.615 245.822 141.472 246.077 141.412C246.231 141.375 246.402 141.369 246.59 141.392C246.786 141.412 246.977 141.487 247.161 141.617C247.351 141.735 247.524 141.919 247.679 142.171C247.843 142.42 247.975 142.753 248.073 143.171L247.037 143.717C246.908 143.172 246.75 142.744 246.562 142.434C246.374 142.123 246.193 141.988 246.021 142.029C245.839 142.072 245.714 142.293 245.645 142.693C245.585 143.091 245.574 143.611 245.61 144.255C245.644 144.889 245.725 145.618 245.852 146.441C245.977 147.256 246.143 148.104 246.35 148.985L245.246 149.245L243.726 142.181L244.217 142.066L245.22 145.468ZM252.241 150.531C252.416 149.934 252.563 149.334 252.68 148.731C252.808 148.135 252.904 147.547 252.969 146.966C252.819 147.308 252.599 147.513 252.308 147.581C251.981 147.658 251.628 147.545 251.25 147.241C250.881 146.935 250.512 146.489 250.144 145.905C249.785 145.318 249.446 144.612 249.127 143.786C248.808 142.959 248.535 142.065 248.308 141.102L249.412 140.842C249.619 141.723 249.847 142.547 250.095 143.313C250.342 144.08 250.59 144.745 250.838 145.31C251.084 145.866 251.321 146.299 251.547 146.61C251.783 146.919 251.992 147.052 252.173 147.009C252.41 146.953 252.579 146.779 252.683 146.486C252.787 146.193 252.836 145.813 252.831 145.344C252.826 144.875 252.77 144.332 252.663 143.715C252.565 143.096 252.433 142.432 252.266 141.723C252.21 141.487 252.149 141.247 252.082 141.004C252.024 140.759 251.961 140.51 251.892 140.258L252.996 139.998C253.235 141.015 253.406 142.006 253.509 142.969C253.611 143.933 253.664 144.87 253.667 145.78C253.669 146.681 253.627 147.544 253.544 148.369C253.462 149.203 253.36 149.99 253.236 150.728L252.241 150.531ZM257.134 149.609C256.799 148.307 256.516 147.209 256.286 146.314C256.065 145.416 255.882 144.678 255.736 144.099C255.59 143.52 255.475 143.072 255.391 142.756C255.316 142.438 255.256 142.203 255.21 142.051C255.174 141.896 255.152 141.805 255.146 141.778C255.14 141.751 255.135 141.733 255.133 141.724C255.018 141.233 254.988 140.823 255.045 140.493C255.101 140.163 255.216 139.897 255.388 139.693C255.568 139.478 255.792 139.31 256.061 139.189C256.33 139.069 256.623 138.971 256.941 138.896C257.259 138.821 257.565 138.778 257.86 138.766C258.163 138.752 258.44 138.807 258.689 138.93C258.948 139.051 259.173 139.252 259.364 139.533C259.564 139.812 259.725 140.211 259.846 140.729C259.992 141.346 260.076 141.969 260.099 142.596C260.123 143.224 260.081 143.799 259.974 144.323C259.876 144.845 259.716 145.285 259.494 145.644C259.281 146.001 259.011 146.218 258.684 146.295C258.348 146.375 258.027 146.297 257.723 146.062C257.418 145.826 257.131 145.482 256.861 145.028L257.829 149.445L257.134 149.609ZM258.552 145.737C258.725 145.696 258.858 145.53 258.953 145.24C259.047 144.949 259.1 144.582 259.111 144.138C259.121 143.694 259.095 143.197 259.032 142.646C258.97 142.095 258.873 141.543 258.743 140.989C258.651 140.598 258.545 140.292 258.426 140.071C258.304 139.84 258.17 139.676 258.022 139.576C257.881 139.466 257.729 139.41 257.566 139.41C257.409 139.399 257.245 139.414 257.073 139.455C256.9 139.495 256.742 139.556 256.598 139.638C256.452 139.711 256.332 139.83 256.237 139.997C256.148 140.152 256.097 140.36 256.082 140.623C256.065 140.876 256.102 141.198 256.194 141.589C256.325 142.143 256.485 142.681 256.675 143.202C256.874 143.72 257.082 144.175 257.298 144.565C257.524 144.953 257.744 145.256 257.958 145.474C258.173 145.692 258.371 145.779 258.552 145.737ZM264.705 144.877C264.424 144.943 264.179 144.943 263.972 144.877C263.766 144.82 263.582 144.686 263.417 144.476C263.261 144.263 263.116 143.971 262.981 143.6C262.854 143.227 262.726 142.764 262.595 142.21C262.561 142.064 262.523 141.901 262.48 141.719C262.437 141.537 262.393 141.351 262.348 141.16C262.301 140.961 262.255 140.765 262.21 140.574C262.174 140.382 262.141 140.198 262.109 140.023L261.846 138.661L260.566 138.905L260.412 138.251L261.693 137.949L261.317 136.11L262.066 135.934L262.524 137.753L264.036 137.397L264.223 138.187L262.711 138.486C262.977 139.574 263.206 140.488 263.4 141.229C263.594 141.97 263.763 142.567 263.909 143.022C264.061 143.466 264.198 143.783 264.32 143.975C264.449 144.156 264.582 144.23 264.718 144.198C264.845 144.168 264.911 143.999 264.915 143.691C264.928 143.381 264.881 142.956 264.773 142.416L265.809 142.359C265.872 143.034 265.805 143.602 265.606 144.061C265.414 144.509 265.114 144.781 264.705 144.877ZM269.405 143.18C269.578 143.14 269.711 142.974 269.806 142.683C269.9 142.392 269.953 142.025 269.963 141.582C269.974 141.138 269.948 140.641 269.885 140.09C269.822 139.539 269.726 138.986 269.595 138.432C269.503 138.042 269.398 137.736 269.278 137.514C269.157 137.284 269.022 137.119 268.874 137.02C268.733 136.909 268.581 136.854 268.418 136.854C268.262 136.843 268.098 136.858 267.925 136.898C267.753 136.939 267.594 137 267.451 137.082C267.314 137.153 267.202 137.27 267.116 137.434C267.037 137.587 266.995 137.793 266.989 138.054C266.981 138.305 267.023 138.626 267.115 139.016C267.246 139.571 267.406 140.108 267.596 140.629C267.786 141.15 267.984 141.607 268.192 141.999C268.399 142.391 268.606 142.697 268.811 142.918C269.025 143.136 269.223 143.223 269.405 143.18ZM269.537 143.739C269.209 143.816 268.866 143.743 268.507 143.521C268.157 143.297 267.817 142.974 267.488 142.553C267.168 142.13 266.878 141.632 266.619 141.061C266.359 140.489 266.157 139.894 266.011 139.276C265.889 138.759 265.851 138.331 265.897 137.995C265.951 137.656 266.062 137.375 266.231 137.154C266.408 136.93 266.631 136.757 266.9 136.636C267.178 136.513 267.476 136.414 267.794 136.34C268.112 136.265 268.418 136.221 268.712 136.209C269.016 136.195 269.292 136.25 269.542 136.374C269.801 136.495 270.025 136.696 270.216 136.977C270.416 137.256 270.577 137.654 270.699 138.172C270.845 138.79 270.929 139.413 270.952 140.04C270.975 140.667 270.933 141.243 270.827 141.767C270.729 142.288 270.569 142.729 270.347 143.088C270.134 143.445 269.864 143.662 269.537 143.739Z" fill="black"/>
</g>
</svg>
