<svg width="193" height="188" viewBox="0 0 193 188" fill="none" xmlns="http://www.w3.org/2000/svg">
<path fill-rule="evenodd" clip-rule="evenodd" d="M88.0429 1.02784C87.9146 1.39166 87.7447 2.59648 87.6648 3.70506C87.5315 5.55891 87.3854 5.74082 85.8462 5.97261C83.6353 6.30518 83.7208 7.19154 85.9826 7.38857C87.734 7.54175 87.7742 7.59466 87.7742 9.74128C87.7742 14.3908 89.1821 14.9707 89.4035 10.412C89.5541 7.31802 89.5699 7.2888 91.336 6.80757L93.117 6.32232L91.2088 5.84512C89.3709 5.38607 89.3007 5.28831 89.3007 3.18101C89.3007 1.05102 88.5105 -0.301445 88.0429 1.02784ZM47.5762 13.7382C42.1189 16.0652 31.7005 20.6245 24.4241 23.8701C17.1478 27.1152 10.3355 30.119 9.28626 30.5453C7.95768 31.085 7.37812 31.6337 7.37812 32.3518C7.37812 32.9186 10.6835 40.6505 14.7237 49.5337C25.1772 72.5181 26.1323 74.503 26.7403 74.503C27.3983 74.503 36.0744 70.9812 43.8204 67.5698L49.4782 65.0785L49.7957 68.4048C49.9702 70.2344 50.1147 72.7887 50.1168 74.0807C50.1203 76.4097 50.1041 76.4324 48.2122 76.7141C47.163 76.8703 36.916 77.4725 25.4418 78.0524C13.9675 78.6324 3.54913 79.2694 2.28976 79.4679L0 79.8282L0.107365 89.3851C0.273754 104.231 3.90175 160.376 4.83598 162.559C5.28324 163.606 5.64757 163.693 9.53813 163.693C11.8579 163.693 17.8734 163.358 22.9063 162.948C39.7676 161.576 102.503 157.956 102.884 158.333C103.005 158.453 102.518 160.672 101.8 163.264C101.083 165.855 100.496 168.483 100.496 169.104C100.495 170.51 101.407 170.907 113.725 174.851C118.902 176.508 129.857 180.155 138.069 182.953C150.29 187.118 153.082 187.913 153.455 187.331C154.33 185.966 156.874 178.915 163.595 159.215C168.406 145.115 170.228 139.15 169.888 138.616C169.1 137.379 146.341 129.387 127.77 123.826C119.464 121.339 117.534 120.914 117.024 121.458C116.682 121.823 115.761 123.772 114.977 125.79C114.193 127.807 113.396 129.281 113.205 129.065C112.865 128.682 111.543 107.737 111.84 107.444C111.922 107.362 122.953 107.049 136.352 106.748C149.752 106.446 160.905 106.084 161.136 105.942C161.367 105.801 161.555 103.076 161.555 99.8864C161.555 94.6025 161.635 94.1097 162.446 94.341C162.935 94.4806 168.118 95.4209 173.963 96.4307C182.788 97.9555 184.701 98.153 185.244 97.5967C185.855 96.9703 189.572 76.6682 192.176 59.7352C193.149 53.4138 193.215 52.2074 192.612 51.8381C191.935 51.4244 176.072 48.272 165.57 46.4645L160.679 45.623L160.354 41.0894C160.175 38.5956 160.029 34.0111 160.029 30.901C160.029 24.5191 159.707 22.2763 158.74 21.9084C158.373 21.7694 139.336 22.0903 116.436 22.6225C93.5352 23.1541 72.8073 23.594 70.3725 23.5995L65.9467 23.6091L62.5329 16.5545C60.2518 11.84 58.8509 9.50092 58.309 9.50343C57.8633 9.50545 53.0334 11.4107 47.5762 13.7382ZM60.7235 17.3683C62.197 20.5872 63.2575 23.3652 63.0804 23.5411C62.9028 23.7169 59.9327 23.9744 56.4793 24.113C53.0263 24.2516 50.0196 24.5453 49.7977 24.7661C49.5759 24.9868 49.3861 31.0018 49.3759 38.1325L49.3571 51.0973L46.6002 49.4536C43.0394 47.3312 40.8427 46.9215 38.6288 47.9671C36.2541 49.0883 34.3495 51.8658 29.8493 60.7717C27.7132 64.9979 25.8478 68.4491 25.7038 68.4406C25.5598 68.432 22.7689 62.5928 19.5016 55.4651C16.2344 48.3375 12.5367 40.328 11.2845 37.6669L9.00792 32.8284L17.9879 28.9519C22.9271 26.8199 33.6086 22.047 41.7245 18.3454C49.8405 14.6437 56.8329 11.5926 57.2629 11.5654C57.7854 11.5321 58.9324 13.455 60.7235 17.3683ZM138.34 24.6799C138.755 26.7373 138.658 34.0897 138.194 35.7027C137.865 36.8481 137.8 36.7795 137.487 34.9468C136.986 32.0182 137.054 23.1052 137.577 23.1052C137.821 23.1052 138.165 23.8137 138.34 24.6799ZM151.572 25.9134C151.984 29.3898 151.389 37.3686 150.824 35.937C150.281 34.5634 150.26 23.1052 150.8 23.1052C151.041 23.1052 151.388 24.369 151.572 25.9134ZM112.169 31.5042C112.201 36.0111 111.842 37.7591 111.118 36.6268C110.585 35.7949 110.528 24.4244 111.053 23.9014C111.621 23.337 112.136 26.8441 112.169 31.5042ZM124.912 30.5377C124.906 35.1973 124.742 37.2189 124.41 36.7105C123.745 35.6916 123.745 23.6091 124.41 23.6091C124.725 23.6091 124.916 26.2495 124.912 30.5377ZM86.2121 31.7975C86.2314 35.0542 86.0513 37.7183 85.8111 37.7183C84.9639 37.7183 84.4113 28.7978 85.0601 25.5854C85.6605 22.6114 86.1729 25.3753 86.2121 31.7975ZM99.4057 30.9156C99.4057 36.8445 98.8129 39.2703 98.2888 35.4845C97.8385 32.2318 97.8573 24.8779 98.3168 24.4229C99.0317 23.7149 99.4057 25.9457 99.4057 30.9156ZM73.4668 31.7345C73.538 36.2842 73.0831 39.1337 72.445 38.137C71.9133 37.3061 71.8568 25.9356 72.3819 25.4115C72.9549 24.8396 73.3991 27.4282 73.4668 31.7345ZM60.2614 33.0275C60.2971 38.653 59.69 40.8929 59.0957 37.3303C58.6739 34.8032 58.6861 27.4372 59.114 26.3327C59.7836 24.6048 60.2243 27.1772 60.2614 33.0275ZM173.924 27.1304C172.275 27.8046 171.051 29.9164 171.434 31.4286C172.251 34.6516 175.817 35.7344 178.115 33.4578C181.174 30.4299 177.909 25.5023 173.924 27.1304ZM177.228 28.7489C177.563 29.0814 177.838 29.9431 177.838 30.6637C177.838 31.3843 177.563 32.2459 177.228 32.5785C175.789 34.0035 172.75 32.704 172.75 30.6637C172.75 28.6234 175.789 27.3238 177.228 28.7489ZM24.3809 30.3442C20.9874 31.8675 19.1277 35.8715 20.0782 39.6079C21.5787 45.5106 26.5902 47.8643 31.8226 45.1241C37.4076 42.1995 37.8564 34.8158 32.6825 30.9902C30.9698 29.7239 26.5322 29.3782 24.3809 30.3442ZM30.7647 31.9134C33.2214 33.1711 34.3464 35.035 34.3464 37.8458C34.3464 40.0901 34.1373 40.5638 32.3711 42.3128C30.6141 44.0523 30.1195 44.269 27.9046 44.269C23.8985 44.269 21.6255 41.8891 21.6255 37.6951C21.6255 32.7599 26.4534 29.7053 30.7647 31.9134ZM158.963 57.4112C159.27 67.5048 159.521 78.9579 159.52 82.8627V89.9626L142.092 90.3083C124.412 90.659 91.5905 91.6844 66.7267 92.6625C59.2087 92.9583 52.9932 93.1316 52.9149 93.048C52.836 92.9638 52.5195 83.2582 52.2106 71.4796C51.9018 59.7009 51.5334 47.8527 51.3909 45.1508L51.1329 40.2378L55.8422 40.2015C58.4322 40.1814 82.4187 39.556 109.145 38.8118C153.406 37.5797 157.769 37.5303 158.072 38.2595C158.256 38.6994 158.657 47.3181 158.963 57.4112ZM92.6071 46.4751C91.3523 47.3836 90.6766 54.0079 91.0201 62.0284C91.3208 69.0483 92.5221 78.5901 93.3902 80.8506C93.9774 82.3799 95.8001 83.1388 97.1877 82.4313C99.9455 81.0254 124.362 65.3128 125.181 64.4174C127.105 62.3111 125.934 61.204 116.434 56.1494C108.371 51.8592 98.3158 47.2551 94.874 46.2775C93.9489 46.015 93.146 46.085 92.6071 46.4751ZM108.51 54.355C116.354 58.2401 123.055 61.7548 123.4 62.1655C124.349 63.2993 123.639 63.8843 115.072 69.0301C110.833 71.5768 104.851 75.3208 101.779 77.351C97.1999 80.3774 96.0753 80.9242 95.5334 80.3875C94.4878 79.352 93.351 69.5854 93.0208 58.8025C92.7262 49.1704 92.8519 47.2924 93.7927 47.2924C94.042 47.2924 100.665 50.4705 108.51 54.355ZM176.299 50.3314C184.253 51.7257 190.85 52.9547 190.958 53.063C191.255 53.3568 186.922 79.7299 186.501 80.1945C186.301 80.4147 184.498 78.4344 182.494 75.794C180.226 72.8063 178.392 70.8794 177.636 70.6915C175.495 70.1599 171.974 72.4657 165.018 78.9539C161.821 81.9355 161.58 82.068 161.353 80.9695C161.22 80.323 160.976 72.5947 160.811 63.7951C160.568 50.8222 160.637 47.7963 161.175 47.7963C161.54 47.7963 168.346 48.9371 176.299 50.3314ZM46.2048 51.9524L49.6115 54.0925V58.4009V62.7092L38.552 67.5623C31.0135 70.8704 27.3779 72.2319 27.1332 71.8394C26.689 71.1284 34.2167 56.4024 36.9705 52.5939C38.7957 50.0694 39.1585 49.8119 40.8901 49.8119C42.2603 49.8119 43.7573 50.4145 46.2048 51.9524ZM165.349 55.0802C161.614 58.7778 166.552 61.5054 179.619 62.9632C185.522 63.6218 187.506 63.194 187.506 61.263C187.506 59.5719 186.652 58.9551 183.383 58.2865C180.852 57.769 180.381 57.4807 179.678 56.0199C178.804 54.2059 177.425 53.8663 175.134 54.8998C174.177 55.3316 173.564 55.2767 172.337 54.6478C169.917 53.4087 166.845 53.5982 165.349 55.0802ZM171.938 56.1106C174.187 57.6218 174.06 57.6122 175.628 56.3908C177.165 55.1935 178.116 55.4868 178.776 57.3613C179.136 58.3827 179.719 58.868 180.847 59.0846C181.711 59.2504 183.089 59.514 183.909 59.6702C184.729 59.8269 185.67 60.2764 186 60.6699C187.64 62.6271 181.308 62.495 172.333 60.3837C167.965 59.3567 165.626 58.3016 165.626 57.3588C165.626 56.4286 167.662 54.8509 168.862 54.8509C169.523 54.8509 170.907 55.4178 171.938 56.1106ZM179.418 75.1328C180.579 76.5876 182.526 79.161 183.744 80.8506L185.958 83.9224L185.103 90.0468C184.628 93.4526 184.011 96.1691 183.715 96.1671C183.421 96.1651 178.412 95.2581 172.582 94.1515C166.753 93.045 161.887 92.1395 161.769 92.1395C161.652 92.1395 161.555 90.3254 161.555 88.1083C161.555 85.7646 161.768 84.0771 162.063 84.0771C162.342 84.0771 164.231 82.5271 166.261 80.6329C170.694 76.4954 175.821 72.4879 176.682 72.4879C177.025 72.4874 178.256 73.6781 179.418 75.1328ZM51.0347 97.4747C51.282 103.042 51.6713 107.895 51.8987 108.261C52.3399 108.967 54.0048 108.946 92.541 107.744C102.019 107.449 109.87 107.302 109.988 107.419C110.348 107.775 111.747 128.416 111.586 130.979L111.435 133.376L107.619 130.113C102.231 125.508 92.5349 118.286 88.9918 116.239C82.1984 112.315 78.7932 111.818 74.5129 114.125C69.1961 116.99 58.6861 126.387 40.5252 144.513C23.0503 161.954 23.9234 159.892 42.0415 140.934L49.1047 133.542L46.1779 131.22C41.547 127.546 37.2549 125.649 33.574 125.649C30.9576 125.649 30.0386 125.916 27.5061 127.412C23.8822 129.554 15.5648 137.533 10.1732 144.041C7.99178 146.674 6.04955 148.892 5.85772 148.969C5.66538 149.046 5.23745 145.305 4.9062 140.654C4.12768 129.725 1.28685 83.744 1.2787 81.9355L1.27209 80.5498L8.523 80.514C12.5113 80.4943 23.4446 79.9844 32.8199 79.3802L49.8659 78.2822L50.2252 82.8173C50.4231 85.3116 50.7869 91.9072 51.0347 97.4747ZM27.4771 89.951C23.3724 92.0871 20.1133 97.0379 20.1041 101.151C20.0965 104.575 21.1096 107.14 23.5169 109.791C26.3587 112.921 29.0978 113.999 33.5074 113.721C37.8976 113.444 41.1078 111.514 43.3574 107.799C45.4533 104.338 45.8746 101.592 44.8452 98.1092C43.2002 92.5416 38.4024 89.0994 32.3386 89.1362C30.3236 89.1483 28.3992 89.4708 27.4771 89.951ZM36.7797 91.4103C44.2072 94.4826 45.8359 104.364 39.7828 109.627C35.361 113.472 29.3751 113.124 25.1146 108.776C21.5538 105.141 20.873 100.724 23.1714 96.1707C24.3035 93.9278 25.4057 92.9517 28.2496 91.6744C30.9871 90.4448 34.205 90.3451 36.7797 91.4103ZM152.603 95.4345C153.003 99.8058 152.477 106.08 151.844 104.476C151.3 103.096 151.276 91.6356 151.817 91.6356C152.058 91.6356 152.413 93.3453 152.603 95.4345ZM125.994 96.1707C126.24 101.62 125.985 105.833 125.428 105.493C125.13 105.311 124.919 102.431 124.919 98.5596C124.919 94.5622 125.103 92.1274 125.383 92.4166C125.638 92.6796 125.913 94.3692 125.994 96.1707ZM139.357 93.7141C139.823 96.0185 139.731 103.87 139.229 104.654C138.513 105.773 138.164 103.463 138.156 97.5564C138.149 92.2987 138.71 90.5063 139.357 93.7141ZM100.444 100.58C100.493 106.037 99.9501 107.958 99.2866 104.674C98.8546 102.535 98.8831 94.4579 99.3268 93.3146C99.9628 91.6749 100.389 94.4478 100.444 100.58ZM113.16 98.6902C113.217 103.489 112.711 106.89 112.15 105.471C111.644 104.189 111.574 93.4294 112.069 92.9397C112.678 92.337 113.111 94.6222 113.16 98.6902ZM87.2654 99.9796C87.2654 103.428 87.0608 106.249 86.8105 106.249C86.1882 106.249 85.5541 97.7368 85.9872 95.1976C86.6425 91.3584 87.2654 93.689 87.2654 99.9796ZM74.2208 95.9893C74.634 98.9739 74.6259 102.923 74.201 105.471C73.6326 108.879 73.0933 106.104 73.0536 99.572C73.0174 93.5786 73.628 91.7046 74.2208 95.9893ZM61.2638 101.84C61.3132 107.08 60.7596 108.917 60.1062 105.682C59.6747 103.545 59.7027 95.9696 60.1464 94.8263C60.7748 93.2072 61.2089 95.9313 61.2638 101.84ZM124.33 126.507C124.066 127.671 123.423 129.542 122.901 130.664C122.02 132.556 121.949 132.605 121.909 131.337C121.859 129.75 123.776 124.389 124.393 124.389C124.623 124.389 124.595 125.342 124.33 126.507ZM133.559 131.285C132.426 134.718 131.781 135.888 131.29 135.401C130.921 135.035 132.486 129.916 133.399 128.502C134.682 126.517 134.748 127.68 133.559 131.285ZM143.512 134.348C142.488 137.327 141.245 139.559 141.22 138.464C141.196 137.434 142.677 132.487 143.397 131.192C144.369 129.441 144.449 131.622 143.512 134.348ZM140.184 139.575C153.757 144.047 164.948 147.779 165.053 147.868C165.157 147.956 163.412 153.197 161.173 159.514C158.935 165.831 156.703 172.247 156.214 173.771C155.725 175.296 155.164 176.717 154.969 176.932C154.773 177.146 149.363 175.42 142.946 173.097C131.321 168.888 115.773 163.698 108.764 161.686C106.734 161.104 105.078 160.353 105.082 160.019C105.103 158.396 106.103 157.918 109.866 157.729C111.97 157.624 113.912 157.275 114.181 156.954C114.491 156.584 114.505 153.872 114.22 149.575C113.452 137.978 113.443 134.834 114.179 133.081C114.557 132.18 115.01 131.444 115.186 131.444C115.362 131.444 126.611 135.103 140.184 139.575ZM152.905 134.414C152.905 134.662 152.441 136.353 151.874 138.172C150.845 141.468 149.852 142.93 149.852 141.145C149.852 139.7 151.922 133.963 152.443 133.963C152.697 133.963 152.905 134.166 152.905 134.414ZM162.868 138.267C162.689 138.971 162.041 140.842 161.427 142.424C160.548 144.69 160.272 145.049 160.128 144.115C159.91 142.708 161.968 136.987 162.69 136.987C162.974 136.987 163.051 137.544 162.868 138.267ZM132.138 141.66C131.842 142.013 130.43 145.697 129 149.848C124.456 163.036 124.435 162.934 131.377 161.866C136.068 161.144 141.678 160.007 144.901 159.126C147.29 158.473 147.305 157.708 144.989 154.515C141.582 149.819 133.977 141.018 133.326 141.018C132.969 141.018 132.434 141.306 132.138 141.66ZM140.057 151.479C142.646 154.601 144.764 157.256 144.764 157.378C144.764 157.501 143.905 157.748 142.856 157.928C141.806 158.108 138.003 158.811 134.404 159.492C130.805 160.171 127.766 160.633 127.649 160.518C127.532 160.402 128.344 157.725 129.453 154.568C130.562 151.411 131.856 147.482 132.328 145.836L133.188 142.844L134.27 144.324C134.864 145.137 137.469 148.358 140.057 151.479ZM111.689 163.892C111.689 164.002 111.225 165.579 110.658 167.398C109.48 171.177 108.274 172.568 108.86 169.472C109.344 166.917 110.669 163.693 111.236 163.693C111.485 163.693 111.689 163.783 111.689 163.892ZM120.342 170.354C118.844 174.64 118.176 175.592 118.475 173.015C118.75 170.653 120.864 165.674 121.205 166.587C121.334 166.931 120.945 168.626 120.342 170.354ZM61.3147 172.205V175.174L58.9395 175.606C55.5603 176.222 55.4255 177.299 58.7283 177.299H61.3147L61.3656 179.44C61.4302 182.181 61.9396 183.972 62.7283 184.232C63.1786 184.38 63.3501 183.469 63.3501 180.928V177.418L65.6765 176.838C68.5682 176.117 68.445 175.013 65.4795 175.073L63.3872 175.115L63.0763 172.806C62.6723 169.806 62.4749 169.236 61.8393 169.236C61.5386 169.236 61.3147 170.501 61.3147 172.205ZM130.282 173.652C129.287 176.548 128.013 178.86 127.996 177.802C127.981 176.939 129.092 173.24 130.038 171C131.055 168.592 131.259 170.809 130.282 173.652ZM138.667 177.266C138.079 179.224 137.378 180.826 137.11 180.826C136.386 180.826 136.51 179.794 137.616 176.612C138.817 173.154 139.275 172.33 139.546 173.133C139.652 173.448 139.257 175.308 138.667 177.266ZM148.837 180.063C147.581 183.801 146.47 185.046 146.938 182.193C147.321 179.854 149.385 175.343 149.697 176.163C149.828 176.509 149.442 178.264 148.837 180.063Z" fill="#121A17"/>
</svg>
