<svg width="171" height="188" viewBox="0 0 171 188" fill="none" xmlns="http://www.w3.org/2000/svg">
<path fill-rule="evenodd" clip-rule="evenodd" d="M101.825 7.14319C97.947 14.8333 96.3674 19.3014 97.2267 20.1541C97.6035 20.5281 97.8584 20.4056 98.1023 19.7342C99.5205 15.8298 102.989 7.09131 104.274 4.18738C106.969 -1.90753 105.487 -0.119123 101.825 7.14319ZM52.0319 4.22443C54.8405 12.7742 58.3052 20.8546 59.6264 21.9351C61.1497 23.181 60.5847 21.4692 56.4623 12.3414C52.6238 3.84205 50.8222 0.541896 52.0319 4.22443ZM74.6288 24.9502C67.9905 25.8844 61.0636 28.0982 54.7534 31.302C45.3737 36.0645 36.7711 47.1383 32.8723 59.4679C30.0458 68.4075 29.2742 78.1508 30.0682 94.8685C30.9438 113.301 32.271 124.651 36.0697 146.193C36.8792 150.782 37.8897 157.229 38.3153 160.52C38.741 163.811 39.1989 166.866 39.3328 167.308C39.5414 167.998 38.8833 168.161 34.7082 168.452C23.4021 169.241 12.0242 170.712 9.31268 171.735C7.12183 172.562 8.43604 172.759 12.4892 172.213C17.9994 171.47 33.2317 170.223 36.8841 170.215L39.9461 170.209L40.5231 172.597C41.4226 176.318 42.6238 177.85 45.8178 179.349C49.7639 181.202 58.355 183.258 66.6778 184.342C75.3994 185.477 97.7255 185.532 105.435 184.437C109.834 183.813 110.37 183.82 110.612 184.509C111.115 185.939 112.893 187.5 114.018 187.5C114.634 187.5 115.797 186.95 116.603 186.277C118.057 185.062 118.074 185.06 118.958 186.03C120.676 187.914 124.674 186.883 125.663 184.301C125.997 183.431 126.379 183.231 127.357 183.417C128.302 183.596 129.014 183.267 130.176 182.114C131.552 180.748 131.711 180.304 131.561 178.231C131.409 176.125 131.504 175.874 132.503 175.734C134.285 175.482 135.763 173.226 135.44 171.25L135.165 169.573L145.724 169.895C170.935 170.663 172.225 170.68 170.47 170.219C168.534 169.71 144.159 168.228 137.763 168.231L133.679 168.233L133.962 165.867C134.206 163.824 134.072 163.299 132.978 162.008C131.762 160.575 131.73 160.37 132.167 156.914C132.417 154.934 133.508 148.055 134.59 141.629C138.337 119.387 139.536 102.666 138.614 85.4818C137.467 64.098 134.41 52.588 127.43 43.3722C121.649 35.7409 109.011 28.191 98.1441 25.8775C92.961 24.7738 79.6193 24.2482 74.6288 24.9502ZM99.533 27.4263C107.743 29.6524 118.158 35.7033 123.339 41.2558C136.02 54.8492 139.9 82.3175 135.098 124.511C133.574 137.901 131.542 152.136 131.082 152.639C130.827 152.919 130.212 152.696 129.532 152.078C126.948 149.727 119.772 147.196 111.599 145.753C107.393 145.01 106.711 144.753 106.525 143.842C106.046 141.498 104.414 130.924 104.512 130.798C104.569 130.724 109.283 130.109 114.985 129.431C120.688 128.753 125.463 128.089 125.597 127.956C126.11 127.447 126.697 105.339 126.409 97.3386C125.841 81.5359 123.398 55.0912 122.379 53.7075C121.844 52.9812 120.637 52.8755 112.89 52.8755C108.008 52.8755 101.549 52.9867 98.5374 53.1225L93.0615 53.3695L91.71 46.5242C90.1737 38.7451 89.6396 37.6508 87.9107 38.7387C87.3542 39.0885 87.4239 40.366 88.3164 46.2159C89.5246 54.1333 89.5375 54.0898 86.038 54.1032L83.9925 54.1106L83.7247 49.8481C83.4524 45.5208 82.8187 44.224 81.5045 45.3069C81.0719 45.6626 80.8653 47.2519 80.8653 50.2186V54.6046H79.0896C77.6375 54.6046 77.3577 54.447 77.5569 53.7401C78.1443 51.6493 79.45 40.6985 79.1911 40.0296C78.9636 39.4402 76.9804 38.918 76.8505 39.413C76.8326 39.4812 76.3168 42.9795 75.704 47.1877L74.5894 54.8388L64.1624 55.6772C58.4272 56.1381 52.0548 56.6969 50.0013 56.9187L46.2678 57.3218L46.3046 74.86C46.3514 96.9953 47.9295 123.082 49.6374 129.95L50.2502 132.415L57.2195 132.725C61.0526 132.896 64.253 133.063 64.3312 133.096C64.5089 133.171 63.9707 141.758 63.6591 143.817C63.4336 145.307 63.349 145.35 59.4357 145.945C50.415 147.315 42.4063 150.035 39.8122 152.61C39.1188 153.298 38.5518 153.734 38.5518 153.58C38.5518 153.425 38.0022 150.045 37.3302 146.068C33.3203 122.329 30.67 93.2836 31.238 79.3064C31.701 67.9253 33.4976 59.6517 37.0464 52.5623C43.6553 39.3582 52.3769 32.0944 66.2791 28.2153C73.4639 26.211 75.4959 25.999 85.8433 26.1783C93.9157 26.3182 96.2211 26.5286 99.533 27.4263ZM11.6703 33.8878C20.6597 41.8289 31.3441 49.8688 32.2058 49.3402C32.5468 49.1312 32.4806 48.8308 32.0156 48.4771C31.6228 48.1792 26.7817 44.5377 21.257 40.3858C15.7324 36.2334 11.0779 32.6211 10.9141 32.3577C10.7498 32.0944 10.3491 31.8854 10.023 31.8938C9.69698 31.9017 10.4382 32.7989 11.6703 33.8878ZM149.811 35.7824C139.777 39.6057 134.94 42.2671 136.041 43.3594C136.378 43.6939 137.044 43.5032 138.069 42.7784C139.326 41.8906 150.243 36.5397 155.038 34.4613C158.194 33.0934 154.257 34.0888 149.811 35.7824ZM121.692 55.2222C121.695 55.8333 122.029 60.1882 122.433 64.8993C123.37 75.8239 124.047 91.1553 124.478 111.219L124.817 127.075L122.131 127.388C116.32 128.065 98.74 129.657 93.4996 129.982L87.964 130.324L87.7201 127.17C87.5857 125.436 87.5155 123.965 87.5637 123.901C87.612 123.838 89.9891 123.657 92.8455 123.5C100.115 123.098 100.28 123.049 100.28 121.29C100.28 119.983 100.448 119.817 101.773 119.817C103.148 119.817 103.267 119.68 103.267 118.088C103.267 116.447 103.354 116.359 104.979 116.359C105.922 116.359 106.782 116.192 106.891 115.988C107 115.785 106.921 113.506 106.716 110.925C106.511 108.343 105.989 101.229 105.556 95.1155C105.123 89.0018 104.66 83.0679 104.529 81.9292L104.289 79.8582L106.142 79.706C107.73 79.5751 108.018 79.3657 108.149 78.2447C108.271 77.1884 108.632 76.8742 110.015 76.6163C111.869 76.2715 111.884 76.2429 111.411 73.8991L111.093 72.3202L106.262 72.6601L101.43 73.0005L100.98 69.8545C100.562 66.9412 100.43 66.6971 99.1925 66.5553C98.1745 66.4387 97.7802 66.0578 97.5363 64.9551C97.3606 64.1598 97.0604 63.4128 96.8697 63.2962C96.4546 63.0413 80.2196 63.8253 76.5095 64.2793C73.9348 64.5945 73.896 64.6241 73.896 66.2713C73.896 67.5903 73.6944 67.9436 72.9412 67.9436C71.0371 67.9436 70.4114 68.5068 70.4114 70.2196C70.4114 71.7452 70.2799 71.8958 68.9473 71.8958C68.1419 71.8958 67.3837 72.0628 67.2622 72.2664C67.1408 72.4699 67.2244 74.9712 67.4484 77.8243C67.6724 80.6773 67.9452 84.8376 68.0547 87.0696L68.2534 91.1276L66.0969 91.4483L63.9399 91.7694L63.9454 94.8013C63.9483 96.4686 64.0897 98.6666 64.2595 99.6853C64.5596 101.489 64.6244 101.538 66.6903 101.538H68.8124L69.1181 105.861C69.2868 108.239 69.7692 114.823 70.1903 120.494C70.6115 126.165 70.8743 130.885 70.7747 130.984C70.6752 131.083 66.1198 131.312 60.6519 131.493L50.7107 131.823L49.8331 120.015C48.4417 101.302 47.5949 85.5381 47.2141 71.2783C46.906 59.7475 46.9557 58.0629 47.6024 58.0629C48.0101 58.0629 54.5971 57.6326 62.2399 57.1064C79.5615 55.9148 93.629 55.1313 106.502 54.6422C123.171 54.0083 121.684 53.9515 121.692 55.2222ZM93.9606 68.8081C94.2996 70.5224 93.8087 71.0278 92.0022 70.8228C90.8736 70.6948 90.5401 70.3826 90.4187 69.3402C90.2668 68.0379 90.5919 67.8191 93.1277 67.5167C93.4384 67.4797 93.8132 68.0611 93.9606 68.8081ZM97.7907 72.0851C97.7907 72.9768 97.4591 73.3256 96.4247 73.5217C94.6819 73.8527 94.306 73.6027 94.306 72.1137C94.306 71.0649 94.533 70.9078 96.0483 70.9078C97.5522 70.9078 97.7907 71.0688 97.7907 72.0851ZM1.12029 72.6443C4.41974 74.0666 19.7163 78.8123 21.0017 78.8123C23.5549 78.8123 21.3382 77.925 12.417 75.3758C7.48872 73.9673 2.80685 72.6082 2.01335 72.3553C-0.174007 71.6587 -0.740511 71.842 1.12029 72.6443ZM100.881 83.1351C100.988 84.6973 101.025 86.0519 100.964 86.1448C100.747 86.4728 72.9462 88.2993 72.5649 88.0103C72.5171 87.9742 72.4051 87.2791 72.316 86.4664C72.1681 85.1197 72.298 84.9739 73.7715 84.8331C75.1943 84.6968 75.3894 84.5031 75.3894 83.2275C75.3894 82.0665 75.6134 81.7667 76.5095 81.7281C77.1258 81.7014 81.4378 81.4006 86.0922 81.0602C90.7467 80.7198 95.9343 80.4081 97.6199 80.3676L100.685 80.2944L100.881 83.1351ZM145.829 81.6417C145.008 81.7578 144.111 82.0853 143.838 82.3694C143.288 82.94 156.507 82.4825 160.514 81.7924C162.89 81.3828 148.691 81.2371 145.829 81.6417ZM95.0343 93.3864L95.3808 96.5976H98.7559H102.131L102.461 103.638C102.642 107.51 102.923 111.845 103.086 113.271L103.381 115.865H101.301C99.2537 115.865 99.2229 115.891 99.3767 117.471L99.533 119.076L92.3148 119.653C88.3448 119.97 84.6829 120.249 84.1777 120.271C83.3214 120.308 83.2826 120.665 83.6147 125.499L83.9711 130.686H79.4834H74.9951L74.6905 126.857C74.5232 124.752 74.1633 118.804 73.891 113.642C73.6192 108.479 73.2668 102.866 73.1085 101.167C72.8297 98.1691 72.7799 98.0797 71.403 98.0797C70.0544 98.0797 69.9683 97.9443 69.6363 95.3077C69.2022 91.8588 69.4451 91.675 74.454 91.6646L78.2478 91.6572L78.5853 94.6214L78.9233 97.5857H83.1627C88.9546 97.5857 89.3026 97.351 88.9661 93.6704L88.6973 90.7284L91.1285 90.5407C92.4651 90.4375 93.8132 90.313 94.1238 90.2641C94.4668 90.2102 94.8237 91.4329 95.0343 93.3864ZM91.5681 100.01C89.0845 100.302 89.0796 100.307 89.219 102.006C89.2956 102.942 89.4076 103.756 89.4679 103.813C89.5276 103.871 91.0887 103.797 92.9371 103.648L96.2972 103.379V101.47C96.2972 99.3553 96.5267 99.4264 91.5681 100.01ZM89.4524 109.797L86.3411 109.983V111.936V113.889L88.7057 113.884C90.0065 113.882 92.2581 113.739 93.7097 113.566L96.3485 113.251L96.1987 111.471C96.0294 109.466 95.8243 109.415 89.4524 109.797ZM101.5 136.985C101.957 140.177 102.406 143.171 102.498 143.636C102.652 144.412 102.123 144.458 96.1215 144.19C92.5219 144.03 89.436 143.761 89.2642 143.591C89.0925 143.422 88.8008 140.79 88.6161 137.742C88.2134 131.088 87.1232 131.794 98.6076 131.273L100.669 131.18L101.5 136.985ZM84.5635 133.774C84.7058 134.657 84.8841 137.325 84.9592 139.702L85.0966 144.025L80.1186 144.056C77.3806 144.072 73.4923 144.25 71.4777 144.45L67.8143 144.814L68.1175 142.621C68.2837 141.415 68.4236 139.07 68.4276 137.41C68.4321 135.75 68.6471 134.058 68.9065 133.65C69.2749 133.071 70.9321 132.848 76.4906 132.63C80.4023 132.476 83.761 132.31 83.9542 132.259C84.1468 132.209 84.4211 132.89 84.5635 133.774ZM85.3455 147.937C85.3455 151.49 85.6318 151.929 87.9456 151.929H89.9418L89.5873 148.645L89.2329 145.361L95.778 145.625C99.3777 145.769 102.416 145.981 102.531 146.094C102.7 146.262 104.262 155.759 104.262 156.619C104.262 156.757 104.941 156.87 105.771 156.87C107.784 156.87 107.992 156.121 107.403 151.011C107.132 148.663 106.967 146.669 107.035 146.581C107.257 146.292 115.862 148.004 119.445 149.049C123.451 150.218 127.407 152.077 129.028 153.552C130.452 154.848 130.478 157.037 129.086 158.418L128.023 159.472L127.394 157.987C126.65 156.232 124.894 154.894 123.334 154.894C122.72 154.894 121.478 155.538 120.574 156.325C118.941 157.749 118.925 157.752 117.764 156.819C115.52 155.016 112.444 155.941 111.26 158.776C110.744 160.014 110.395 160.221 108.888 160.178C106.718 160.117 105.258 161.667 105.258 164.03C105.258 165.391 105.041 165.695 103.889 165.951C100.924 166.608 76.5598 166.873 70.4114 166.314C51.2568 164.575 39.5474 160.659 39.5474 155.991C39.5474 153.248 43.3596 151.046 51.7561 148.942C54.8086 148.176 58.6865 147.395 60.3741 147.206L63.4421 146.862V151.634C63.4421 156.803 63.7034 157.284 66.181 156.667C67.308 156.386 67.425 156.115 67.429 153.773C67.431 152.351 67.5734 150.031 67.7446 148.616L68.0557 146.045L71.1003 145.871C72.7749 145.776 76.6653 145.655 79.7452 145.602L85.3455 145.507V147.937ZM125.17 157.364C126.273 158.459 126.558 161.011 125.543 160.71C125.201 160.609 123.857 160.213 122.557 159.831C121.256 159.448 120.192 158.959 120.192 158.744C120.192 157.97 122.203 156.376 123.179 156.376C123.726 156.376 124.622 156.82 125.17 157.364ZM117.215 158.117C117.954 159.001 118.132 158.846 114.841 160.176C112.305 161.2 112.227 161.203 112.227 160.286C112.227 158.018 115.824 156.454 117.215 158.117ZM125.28 162.595C128.296 164.698 129.632 167.271 129.642 170.996C129.653 175.027 128.157 177.854 124.979 179.807C120.069 182.825 113.317 181.275 110.547 176.494C108.901 173.654 108.548 171.591 109.227 168.78C109.938 165.839 112.259 162.969 114.93 161.73C118.025 160.293 122.519 160.669 125.28 162.595ZM109.891 161.934C110.666 162.502 110.62 162.72 109.315 164.669C108.231 166.29 107.778 166.637 107.386 166.151C106.247 164.74 106.189 163.357 107.224 162.329C108.413 161.149 108.753 161.098 109.891 161.934ZM130.667 161.822C132.259 162.667 132.805 164.166 132.12 165.807C131.791 166.598 131.38 167.232 131.208 167.216C130.629 167.163 127.661 162.206 127.94 161.758C128.306 161.171 129.494 161.198 130.667 161.822ZM122.227 166.133C121.114 167.424 119.697 169.425 119.078 170.579C118.46 171.734 117.814 172.679 117.643 172.679C117.472 172.679 117.193 171.814 117.022 170.757C116.683 168.652 115.447 167.713 114.972 169.199C114.251 171.455 115.864 177.081 117.243 177.118C117.89 177.135 119.692 174.685 121.6 171.197C125.695 163.71 125.926 161.846 122.227 166.133ZM46.7039 167.615C46.8432 168.09 47.1041 169.51 47.2833 170.77C47.584 172.889 47.7612 173.12 49.6519 173.857C51.1672 174.448 51.5505 174.797 51.1343 175.21C50.5569 175.783 47.8264 175.489 46.6083 174.722C45.7725 174.196 45.1238 166.751 45.9133 166.751C46.2085 166.751 46.564 167.14 46.7039 167.615ZM55.2079 168.603C55.8301 170.211 56.1562 177.619 55.6046 177.619C54.7753 177.619 54.4029 176.17 54.1142 171.814C53.938 169.164 54.0236 167.739 54.3581 167.739C54.6414 167.739 55.0237 168.128 55.2079 168.603ZM62.8114 170.811C63.7676 169.568 63.907 169.527 64.6816 170.269C65.2735 170.835 65.6001 172.246 65.7962 175.085C66.1063 179.576 65.3785 180.575 64.4008 177.002C63.3823 173.28 63.4804 173.427 62.7118 174.456C62.1134 175.257 61.8571 175.304 60.9834 174.775C60.057 174.213 59.9574 174.269 59.9574 175.352C59.9574 176.011 59.8141 176.921 59.6393 177.373C58.9972 179.034 58.479 176.915 58.4924 172.679L58.5053 168.48L60.1416 170.316L61.7779 172.153L62.8114 170.811ZM107.435 175.085C107.358 175.186 106.74 175.129 106.061 174.96C104.452 174.56 104.02 173.094 104.973 171.266C106.259 168.798 106.968 169.066 107.287 172.14C107.446 173.659 107.512 174.985 107.435 175.085ZM133.348 169.997C134.471 171.111 134.315 172.989 133.024 173.886C131.334 175.061 131.163 174.869 131.282 171.942C131.398 169.1 131.935 168.594 133.348 169.997ZM79.6213 170.704C79.791 170.976 79.3559 171.415 78.655 171.68C77.4339 172.14 77.3806 172.326 77.3806 176.125C77.3806 180.133 76.7703 181.383 76.1983 178.546C76.0271 177.696 75.8872 175.918 75.8872 174.593C75.8872 172.247 75.8489 172.185 74.3938 172.185C72.7495 172.185 72.2746 170.937 73.7715 170.549C75.4561 170.112 79.3166 170.214 79.6213 170.704ZM96.1738 171.32C98.1929 173.467 98.2402 177.412 96.2719 179.509C95.2339 180.614 91.6716 181.055 91.1071 180.149C90.6631 179.436 90.559 171.495 90.9847 170.826C91.6642 169.759 95.0044 170.077 96.1738 171.32ZM70.1092 171.484C70.5622 172.656 70.4581 179.251 69.9753 180.007C69.6318 180.545 69.5019 180.531 69.2714 179.934C68.7935 178.699 68.2778 172.277 68.5914 171.467C68.9727 170.48 69.7244 170.488 70.1092 171.484ZM87.0724 171.172C87.4368 171.757 85.7697 172.679 84.3479 172.679C83.5305 172.679 83.3219 172.935 83.4439 173.791C83.5694 174.664 84.0054 174.955 85.4864 175.149C87.951 175.472 88.0969 176.342 85.7189 176.537C84.114 176.669 83.8521 176.86 83.8521 177.896C83.8521 178.977 84.0617 179.101 85.8846 179.101C87.2899 179.101 87.8535 179.292 87.7101 179.719C87.5817 180.101 86.5716 180.336 85.0598 180.336C82.749 180.336 82.6001 180.257 82.298 178.854C81.7414 176.27 81.8335 171.916 82.4583 171.296C83.1671 170.592 86.6533 170.499 87.0724 171.172ZM92.3148 175.396C92.3148 178.668 92.4223 179.101 93.2333 179.101C94.6256 179.101 95.7994 177.495 95.7994 175.591C95.7994 173.537 94.6077 171.691 93.282 171.691C92.4104 171.691 92.3148 172.056 92.3148 175.396ZM109.83 178.788C111.288 180.601 110.982 181.572 108.952 181.572C107.203 181.572 106.513 180.371 107.249 178.608C107.589 177.792 108.009 177.125 108.18 177.125C108.353 177.125 109.095 177.873 109.83 178.788ZM129.949 180.384C129.617 181.243 127.673 182.035 126.752 181.687C126.302 181.517 126.696 180.825 127.997 179.499C129.735 177.726 129.913 177.649 130.063 178.613C130.153 179.193 130.102 179.99 129.949 180.384ZM115.338 182.658C117.03 183.267 117.09 184.264 115.496 185.301C113.694 186.473 112.227 185.544 112.227 183.231C112.227 181.746 112.365 181.522 113.098 181.816C113.577 182.009 114.586 182.388 115.338 182.658ZM124.672 182.944C124.672 183.155 124.323 183.822 123.897 184.426C122.988 185.714 120.634 185.907 119.684 184.771C118.912 183.848 118.963 183.802 121.436 183.17C123.994 182.517 124.672 182.47 124.672 182.944Z" fill="#121A17"/>
</svg>
