<svg width="371" height="188" viewBox="0 0 371 188" fill="none" xmlns="http://www.w3.org/2000/svg">
<path fill-rule="evenodd" clip-rule="evenodd" d="M301.825 7.14319C297.947 14.8333 296.367 19.3014 297.227 20.1541C297.603 20.5281 297.858 20.4056 298.102 19.7342C299.521 15.8298 302.989 7.09131 304.274 4.18738C306.969 -1.90753 305.487 -0.119123 301.825 7.14319ZM252.032 4.22443C254.84 12.7742 258.305 20.8546 259.626 21.9351C261.15 23.181 260.585 21.4692 256.462 12.3414C252.624 3.84205 250.822 0.541896 252.032 4.22443ZM274.629 24.9502C267.991 25.8844 261.064 28.0982 254.753 31.302C245.374 36.0645 236.771 47.1383 232.872 59.4679C230.046 68.4075 229.274 78.1508 230.068 94.8685C230.944 113.301 232.271 124.651 236.07 146.193C236.879 150.782 237.89 157.229 238.315 160.52C238.741 163.811 239.199 166.866 239.333 167.308C239.541 167.998 238.883 168.161 234.708 168.452C223.402 169.241 212.024 170.712 209.313 171.735C207.122 172.562 208.436 172.759 212.489 172.213C217.999 171.47 233.232 170.223 236.884 170.215L239.946 170.209L240.523 172.597C241.423 176.318 242.624 177.85 245.818 179.349C249.764 181.202 258.355 183.258 266.678 184.342C275.399 185.477 297.725 185.532 305.435 184.437C309.834 183.813 310.37 183.82 310.612 184.509C311.115 185.939 312.893 187.5 314.018 187.5C314.634 187.5 315.797 186.95 316.603 186.277C318.057 185.062 318.074 185.06 318.958 186.03C320.676 187.914 324.674 186.883 325.663 184.301C325.997 183.431 326.379 183.231 327.357 183.417C328.302 183.596 329.014 183.267 330.176 182.114C331.552 180.748 331.711 180.304 331.561 178.231C331.409 176.125 331.504 175.874 332.503 175.734C334.285 175.482 335.763 173.226 335.44 171.25L335.165 169.573L345.724 169.895C370.935 170.663 372.225 170.68 370.47 170.219C368.534 169.71 344.159 168.228 337.763 168.231L333.679 168.233L333.962 165.867C334.206 163.824 334.072 163.299 332.978 162.008C331.762 160.575 331.73 160.37 332.167 156.914C332.417 154.934 333.508 148.055 334.59 141.629C338.337 119.387 339.536 102.666 338.614 85.4818C337.467 64.098 334.41 52.588 327.43 43.3722C321.649 35.7409 309.011 28.191 298.144 25.8775C292.961 24.7738 279.619 24.2482 274.629 24.9502ZM299.533 27.4263C307.743 29.6524 318.158 35.7033 323.339 41.2558C336.02 54.8492 339.9 82.3175 335.098 124.511C333.574 137.901 331.542 152.136 331.082 152.639C330.827 152.919 330.212 152.696 329.532 152.078C326.948 149.727 319.772 147.196 311.599 145.753C307.393 145.01 306.711 144.753 306.525 143.842C306.046 141.498 304.414 130.924 304.512 130.798C304.569 130.724 309.283 130.109 314.985 129.431C320.688 128.753 325.463 128.089 325.597 127.956C326.11 127.447 326.697 105.339 326.409 97.3386C325.841 81.5359 323.398 55.0912 322.379 53.7075C321.844 52.9812 320.637 52.8755 312.89 52.8755C308.008 52.8755 301.549 52.9867 298.537 53.1225L293.062 53.3695L291.71 46.5242C290.174 38.7451 289.64 37.6508 287.911 38.7387C287.354 39.0885 287.424 40.366 288.316 46.2159C289.525 54.1333 289.538 54.0898 286.038 54.1032L283.992 54.1106L283.725 49.8481C283.452 45.5208 282.819 44.224 281.504 45.3069C281.072 45.6626 280.865 47.2519 280.865 50.2186V54.6046H279.09C277.637 54.6046 277.358 54.447 277.557 53.7401C278.144 51.6493 279.45 40.6985 279.191 40.0296C278.964 39.4402 276.98 38.918 276.85 39.413C276.833 39.4812 276.317 42.9795 275.704 47.1877L274.589 54.8388L264.162 55.6772C258.427 56.1381 252.055 56.6969 250.001 56.9187L246.268 57.3218L246.305 74.86C246.351 96.9953 247.929 123.082 249.637 129.95L250.25 132.415L257.22 132.725C261.053 132.896 264.253 133.063 264.331 133.096C264.509 133.171 263.971 141.758 263.659 143.817C263.434 145.307 263.349 145.35 259.436 145.945C250.415 147.315 242.406 150.035 239.812 152.61C239.119 153.298 238.552 153.734 238.552 153.58C238.552 153.425 238.002 150.045 237.33 146.068C233.32 122.329 230.67 93.2836 231.238 79.3064C231.701 67.9253 233.498 59.6517 237.046 52.5623C243.655 39.3582 252.377 32.0944 266.279 28.2153C273.464 26.211 275.496 25.999 285.843 26.1783C293.916 26.3182 296.221 26.5286 299.533 27.4263ZM211.67 33.8878C220.66 41.8289 231.344 49.8688 232.206 49.3402C232.547 49.1312 232.481 48.8308 232.016 48.4771C231.623 48.1792 226.782 44.5377 221.257 40.3858C215.732 36.2334 211.078 32.6211 210.914 32.3577C210.75 32.0944 210.349 31.8854 210.023 31.8938C209.697 31.9017 210.438 32.7989 211.67 33.8878ZM349.811 35.7824C339.777 39.6057 334.94 42.2671 336.041 43.3594C336.378 43.6939 337.044 43.5032 338.069 42.7784C339.326 41.8906 350.243 36.5397 355.038 34.4613C358.194 33.0934 354.257 34.0888 349.811 35.7824ZM321.692 55.2222C321.695 55.8333 322.029 60.1882 322.433 64.8993C323.37 75.8239 324.047 91.1553 324.478 111.219L324.817 127.075L322.131 127.388C316.32 128.065 298.74 129.657 293.5 129.982L287.964 130.324L287.72 127.17C287.586 125.436 287.515 123.965 287.564 123.901C287.612 123.838 289.989 123.657 292.845 123.5C300.115 123.098 300.28 123.049 300.28 121.29C300.28 119.983 300.448 119.817 301.773 119.817C303.148 119.817 303.267 119.68 303.267 118.088C303.267 116.447 303.354 116.359 304.979 116.359C305.922 116.359 306.782 116.192 306.891 115.988C307 115.785 306.921 113.506 306.716 110.925C306.511 108.343 305.989 101.229 305.556 95.1155C305.123 89.0018 304.66 83.0679 304.529 81.9292L304.289 79.8582L306.142 79.706C307.73 79.5751 308.018 79.3657 308.149 78.2447C308.271 77.1884 308.632 76.8742 310.015 76.6163C311.869 76.2715 311.884 76.2429 311.411 73.8991L311.093 72.3202L306.262 72.6601L301.43 73.0005L300.98 69.8545C300.562 66.9412 300.43 66.6971 299.192 66.5553C298.174 66.4387 297.78 66.0578 297.536 64.9551C297.361 64.1598 297.06 63.4128 296.87 63.2962C296.455 63.0413 280.22 63.8253 276.509 64.2793C273.935 64.5945 273.896 64.6241 273.896 66.2713C273.896 67.5903 273.694 67.9436 272.941 67.9436C271.037 67.9436 270.411 68.5068 270.411 70.2196C270.411 71.7452 270.28 71.8958 268.947 71.8958C268.142 71.8958 267.384 72.0628 267.262 72.2664C267.141 72.4699 267.224 74.9712 267.448 77.8243C267.672 80.6773 267.945 84.8376 268.055 87.0696L268.253 91.1276L266.097 91.4483L263.94 91.7694L263.945 94.8013C263.948 96.4686 264.09 98.6666 264.259 99.6853C264.56 101.489 264.624 101.538 266.69 101.538H268.812L269.118 105.861C269.287 108.239 269.769 114.823 270.19 120.494C270.611 126.165 270.874 130.885 270.775 130.984C270.675 131.083 266.12 131.312 260.652 131.493L250.711 131.823L249.833 120.015C248.442 101.302 247.595 85.5381 247.214 71.2783C246.906 59.7475 246.956 58.0629 247.602 58.0629C248.01 58.0629 254.597 57.6326 262.24 57.1064C279.562 55.9148 293.629 55.1313 306.502 54.6422C323.171 54.0083 321.684 53.9515 321.692 55.2222ZM293.961 68.8081C294.3 70.5224 293.809 71.0278 292.002 70.8228C290.874 70.6948 290.54 70.3826 290.419 69.3402C290.267 68.0379 290.592 67.8191 293.128 67.5167C293.438 67.4797 293.813 68.0611 293.961 68.8081ZM297.791 72.0851C297.791 72.9768 297.459 73.3256 296.425 73.5217C294.682 73.8527 294.306 73.6027 294.306 72.1137C294.306 71.0649 294.533 70.9078 296.048 70.9078C297.552 70.9078 297.791 71.0688 297.791 72.0851ZM201.12 72.6443C204.42 74.0666 219.716 78.8123 221.002 78.8123C223.555 78.8123 221.338 77.925 212.417 75.3758C207.489 73.9673 202.807 72.6082 202.013 72.3553C199.826 71.6587 199.259 71.842 201.12 72.6443ZM300.881 83.1351C300.988 84.6973 301.025 86.0519 300.964 86.1448C300.747 86.4728 272.946 88.2993 272.565 88.0103C272.517 87.9742 272.405 87.2791 272.316 86.4664C272.168 85.1197 272.298 84.9739 273.772 84.8331C275.194 84.6968 275.389 84.5031 275.389 83.2275C275.389 82.0665 275.613 81.7667 276.509 81.7281C277.126 81.7014 281.438 81.4006 286.092 81.0602C290.747 80.7198 295.934 80.4081 297.62 80.3676L300.685 80.2944L300.881 83.1351ZM345.829 81.6417C345.008 81.7578 344.111 82.0853 343.838 82.3694C343.288 82.94 356.507 82.4825 360.514 81.7924C362.89 81.3828 348.691 81.2371 345.829 81.6417ZM295.034 93.3864L295.381 96.5976H298.756H302.131L302.461 103.638C302.642 107.51 302.923 111.845 303.086 113.271L303.381 115.865H301.301C299.254 115.865 299.223 115.891 299.377 117.471L299.533 119.076L292.315 119.653C288.345 119.97 284.683 120.249 284.178 120.271C283.321 120.308 283.283 120.665 283.615 125.499L283.971 130.686H279.483H274.995L274.69 126.857C274.523 124.752 274.163 118.804 273.891 113.642C273.619 108.479 273.267 102.866 273.108 101.167C272.83 98.1691 272.78 98.0797 271.403 98.0797C270.054 98.0797 269.968 97.9443 269.636 95.3077C269.202 91.8588 269.445 91.675 274.454 91.6646L278.248 91.6572L278.585 94.6214L278.923 97.5857H283.163C288.955 97.5857 289.303 97.351 288.966 93.6704L288.697 90.7284L291.129 90.5407C292.465 90.4375 293.813 90.313 294.124 90.2641C294.467 90.2102 294.824 91.4329 295.034 93.3864ZM291.568 100.01C289.085 100.302 289.08 100.307 289.219 102.006C289.296 102.942 289.408 103.756 289.468 103.813C289.528 103.871 291.089 103.797 292.937 103.648L296.297 103.379V101.47C296.297 99.3553 296.527 99.4264 291.568 100.01ZM289.452 109.797L286.341 109.983V111.936V113.889L288.706 113.884C290.006 113.882 292.258 113.739 293.71 113.566L296.349 113.251L296.199 111.471C296.029 109.466 295.824 109.415 289.452 109.797ZM301.5 136.985C301.957 140.177 302.406 143.171 302.498 143.636C302.652 144.412 302.123 144.458 296.122 144.19C292.522 144.03 289.436 143.761 289.264 143.591C289.092 143.422 288.801 140.79 288.616 137.742C288.213 131.088 287.123 131.794 298.608 131.273L300.669 131.18L301.5 136.985ZM284.563 133.774C284.706 134.657 284.884 137.325 284.959 139.702L285.097 144.025L280.119 144.056C277.381 144.072 273.492 144.25 271.478 144.45L267.814 144.814L268.117 142.621C268.284 141.415 268.424 139.07 268.428 137.41C268.432 135.75 268.647 134.058 268.906 133.65C269.275 133.071 270.932 132.848 276.491 132.63C280.402 132.476 283.761 132.31 283.954 132.259C284.147 132.209 284.421 132.89 284.563 133.774ZM285.346 147.937C285.346 151.49 285.632 151.929 287.946 151.929H289.942L289.587 148.645L289.233 145.361L295.778 145.625C299.378 145.769 302.416 145.981 302.531 146.094C302.7 146.262 304.262 155.759 304.262 156.619C304.262 156.757 304.941 156.87 305.771 156.87C307.784 156.87 307.992 156.121 307.403 151.011C307.132 148.663 306.967 146.669 307.035 146.581C307.257 146.292 315.862 148.004 319.445 149.049C323.451 150.218 327.407 152.077 329.028 153.552C330.452 154.848 330.478 157.037 329.086 158.418L328.023 159.472L327.394 157.987C326.65 156.232 324.894 154.894 323.334 154.894C322.72 154.894 321.478 155.538 320.574 156.325C318.941 157.749 318.925 157.752 317.764 156.819C315.52 155.016 312.444 155.941 311.26 158.776C310.744 160.014 310.395 160.221 308.888 160.178C306.718 160.117 305.258 161.667 305.258 164.03C305.258 165.391 305.041 165.695 303.889 165.951C300.924 166.608 276.56 166.873 270.411 166.314C251.257 164.575 239.547 160.659 239.547 155.991C239.547 153.248 243.36 151.046 251.756 148.942C254.809 148.176 258.687 147.395 260.374 147.206L263.442 146.862V151.634C263.442 156.803 263.703 157.284 266.181 156.667C267.308 156.386 267.425 156.115 267.429 153.773C267.431 152.351 267.573 150.031 267.745 148.616L268.056 146.045L271.1 145.871C272.775 145.776 276.665 145.655 279.745 145.602L285.346 145.507V147.937ZM325.17 157.364C326.273 158.459 326.558 161.011 325.543 160.71C325.201 160.609 323.857 160.213 322.557 159.831C321.256 159.448 320.192 158.959 320.192 158.744C320.192 157.97 322.203 156.376 323.179 156.376C323.726 156.376 324.622 156.82 325.17 157.364ZM317.215 158.117C317.954 159.001 318.132 158.846 314.841 160.176C312.305 161.2 312.227 161.203 312.227 160.286C312.227 158.018 315.824 156.454 317.215 158.117ZM325.28 162.595C328.296 164.698 329.632 167.271 329.642 170.996C329.653 175.027 328.157 177.854 324.979 179.807C320.069 182.825 313.317 181.275 310.547 176.494C308.901 173.654 308.548 171.591 309.227 168.78C309.938 165.839 312.259 162.969 314.93 161.73C318.025 160.293 322.519 160.669 325.28 162.595ZM309.891 161.934C310.666 162.502 310.62 162.72 309.315 164.669C308.231 166.29 307.778 166.637 307.386 166.151C306.247 164.74 306.189 163.357 307.224 162.329C308.413 161.149 308.753 161.098 309.891 161.934ZM330.667 161.822C332.259 162.667 332.805 164.166 332.12 165.807C331.791 166.598 331.38 167.232 331.208 167.216C330.629 167.163 327.661 162.206 327.94 161.758C328.306 161.171 329.494 161.198 330.667 161.822ZM322.227 166.133C321.114 167.424 319.697 169.425 319.078 170.579C318.46 171.734 317.814 172.679 317.643 172.679C317.472 172.679 317.193 171.814 317.022 170.757C316.683 168.652 315.447 167.713 314.972 169.199C314.251 171.455 315.864 177.081 317.243 177.118C317.89 177.135 319.692 174.685 321.6 171.197C325.695 163.71 325.926 161.846 322.227 166.133ZM246.704 167.615C246.843 168.09 247.104 169.51 247.283 170.77C247.584 172.889 247.761 173.12 249.652 173.857C251.167 174.448 251.55 174.797 251.134 175.21C250.557 175.783 247.826 175.489 246.608 174.722C245.772 174.196 245.124 166.751 245.913 166.751C246.209 166.751 246.564 167.14 246.704 167.615ZM255.208 168.603C255.83 170.211 256.156 177.619 255.605 177.619C254.775 177.619 254.403 176.17 254.114 171.814C253.938 169.164 254.024 167.739 254.358 167.739C254.641 167.739 255.024 168.128 255.208 168.603ZM262.811 170.811C263.768 169.568 263.907 169.527 264.682 170.269C265.273 170.835 265.6 172.246 265.796 175.085C266.106 179.576 265.379 180.575 264.401 177.002C263.382 173.28 263.48 173.427 262.712 174.456C262.113 175.257 261.857 175.304 260.983 174.775C260.057 174.213 259.957 174.269 259.957 175.352C259.957 176.011 259.814 176.921 259.639 177.373C258.997 179.034 258.479 176.915 258.492 172.679L258.505 168.48L260.142 170.316L261.778 172.153L262.811 170.811ZM307.435 175.085C307.358 175.186 306.74 175.129 306.061 174.96C304.452 174.56 304.02 173.094 304.973 171.266C306.259 168.798 306.968 169.066 307.287 172.14C307.446 173.659 307.512 174.985 307.435 175.085ZM333.348 169.997C334.471 171.111 334.315 172.989 333.024 173.886C331.334 175.061 331.163 174.869 331.282 171.942C331.398 169.1 331.935 168.594 333.348 169.997ZM279.621 170.704C279.791 170.976 279.356 171.415 278.655 171.68C277.434 172.14 277.381 172.326 277.381 176.125C277.381 180.133 276.77 181.383 276.198 178.546C276.027 177.696 275.887 175.918 275.887 174.593C275.887 172.247 275.849 172.185 274.394 172.185C272.75 172.185 272.275 170.937 273.772 170.549C275.456 170.112 279.317 170.214 279.621 170.704ZM296.174 171.32C298.193 173.467 298.24 177.412 296.272 179.509C295.234 180.614 291.672 181.055 291.107 180.149C290.663 179.436 290.559 171.495 290.985 170.826C291.664 169.759 295.004 170.077 296.174 171.32ZM270.109 171.484C270.562 172.656 270.458 179.251 269.975 180.007C269.632 180.545 269.502 180.531 269.271 179.934C268.793 178.699 268.278 172.277 268.591 171.467C268.973 170.48 269.724 170.488 270.109 171.484ZM287.072 171.172C287.437 171.757 285.77 172.679 284.348 172.679C283.531 172.679 283.322 172.935 283.444 173.791C283.569 174.664 284.005 174.955 285.486 175.149C287.951 175.472 288.097 176.342 285.719 176.537C284.114 176.669 283.852 176.86 283.852 177.896C283.852 178.977 284.062 179.101 285.885 179.101C287.29 179.101 287.853 179.292 287.71 179.719C287.582 180.101 286.572 180.336 285.06 180.336C282.749 180.336 282.6 180.257 282.298 178.854C281.741 176.27 281.834 171.916 282.458 171.296C283.167 170.592 286.653 170.499 287.072 171.172ZM292.315 175.396C292.315 178.668 292.422 179.101 293.233 179.101C294.626 179.101 295.799 177.495 295.799 175.591C295.799 173.537 294.608 171.691 293.282 171.691C292.41 171.691 292.315 172.056 292.315 175.396ZM309.83 178.788C311.288 180.601 310.982 181.572 308.952 181.572C307.203 181.572 306.513 180.371 307.249 178.608C307.589 177.792 308.009 177.125 308.18 177.125C308.353 177.125 309.095 177.873 309.83 178.788ZM329.949 180.384C329.617 181.243 327.673 182.035 326.752 181.687C326.302 181.517 326.696 180.825 327.997 179.499C329.735 177.726 329.913 177.649 330.063 178.613C330.153 179.193 330.102 179.99 329.949 180.384ZM315.338 182.658C317.03 183.267 317.09 184.264 315.496 185.301C313.694 186.473 312.227 185.544 312.227 183.231C312.227 181.746 312.365 181.522 313.098 181.816C313.577 182.009 314.586 182.388 315.338 182.658ZM324.672 182.944C324.672 183.155 324.323 183.822 323.897 184.426C322.988 185.714 320.634 185.907 319.684 184.771C318.912 183.848 318.963 183.802 321.436 183.17C323.994 182.517 324.672 182.47 324.672 182.944Z" fill="#121A17"/>
<line x1="232.002" y1="156" x2="0.00216089" y2="157" stroke="#121A17"/>
<circle r="3.5" transform="matrix(-1 0 0 1 234.5 156)" fill="#121A17"/>
</svg>
