<svg width="174" height="161" viewBox="0 0 174 161" fill="none" xmlns="http://www.w3.org/2000/svg">
<path fill-rule="evenodd" clip-rule="evenodd" d="M95.8703 1.04034C94.4443 1.7384 91.9042 2.05441 87.3392 2.1007C82.0612 2.15439 80.3152 2.42041 78.0452 3.51411C73.2592 5.82185 69.5492 10.3571 68.2852 15.4478C67.4482 18.8159 68.4332 24.4332 70.2522 26.657C71.1582 27.7655 71.6262 29.2999 71.6262 31.1607C71.6262 34.7004 72.8522 37.31 75.9062 40.2695C77.4892 41.8033 78.8962 42.584 80.0792 42.584C81.8522 42.584 81.8643 42.6149 81.8403 47.3674C81.8233 50.6423 81.3392 53.4117 80.3042 56.1484L78.7923 60.1461L71.9563 61.1478C62.4493 62.5403 55.3703 64.4925 47.3983 67.9186C27.6772 76.3941 11.2062 92.7304 4.81924 110.148C0.678241 121.441 -1.12476 136.593 0.726239 144.548C3.27124 155.495 11.4402 161.671 22.4082 160.942C33.6392 160.195 42.1552 152.56 49.9182 136.275C53.1842 129.425 57.4862 114.824 56.5412 113.795C56.0782 113.29 56.9382 112.974 59.5952 112.674L63.2942 112.256L63.7453 109.532C64.0603 107.63 64.7412 106.421 65.9982 105.526C68.0942 104.035 71.7592 104.068 71.9982 105.581C72.1522 106.55 97.2632 146.284 99.7942 149.563C100.535 150.523 101.366 151.078 101.641 150.797C101.916 150.517 105.311 142.51 109.186 133.005C113.934 121.354 116.854 115.066 118.147 113.706C119.201 112.597 120.254 111 120.488 110.157C120.865 108.801 121.275 108.626 124.081 108.63L127.249 108.635L127.358 112.179C127.577 119.246 135.268 136.205 141.422 143.189C146.644 149.116 152.16 151.766 159.326 151.789C169.378 151.823 174 146.801 174 135.847C174 129.925 172.661 124.675 168.865 115.709C163.017 101.9 149.298 84.9783 138.501 78.2569C135.563 76.4281 135.188 75.9251 134.8 73.2902L134.368 70.3584H129.999C126.138 70.3584 124.813 69.9974 118.621 67.2594C114.767 65.5547 110.407 63.8333 108.931 63.4334C107.182 62.9593 105.806 62.0508 104.978 60.8232C104.28 59.7875 103.707 58.7969 103.706 58.6222C103.705 58.4469 105.22 57.8168 107.074 57.2212C115.583 54.4882 118.724 46.407 117.124 31.357L116.555 25.9935L119.936 24.4437C124.055 22.5562 126.622 19.9146 127.631 16.523C129.849 9.07331 124.356 1.89825 116.017 1.35264C113.769 1.20513 111.45 1.40202 110.605 1.81123C109.38 2.40437 108.819 2.30993 107.346 1.26191C105.124 -0.318758 98.8943 -0.439115 95.8703 1.04034ZM104.109 21.6841C105.869 23.4697 109.246 24.685 112.451 24.685H115.101L115.886 32.5544C117.363 47.3298 114.256 54.4079 105.239 56.8175C101.939 57.6989 101.697 58.4729 103.77 61.5064C105.461 63.9808 105.275 64.3555 99.7142 69.7048C97.7942 71.5521 96.1403 73.2741 96.0393 73.5321C95.9373 73.7901 92.1343 71.0497 87.5863 67.4415L79.3172 60.8818L80.5792 58.3025C82.1742 55.0406 83.3662 47.5915 82.8032 44.4042C82.4202 42.239 82.1583 41.9668 80.4603 41.9668C76.9843 41.9668 75.4312 39.2369 77.1882 36.2169C78.6382 33.7265 81.1832 33.1951 83.3132 34.9381C84.4442 35.8639 84.5532 35.8318 84.8692 34.4752C85.0552 33.6734 85.3972 30.9132 85.6302 28.3407L86.0532 23.6647L89.6882 23.9375C93.6092 24.2313 99.5703 22.8192 101.004 21.2564C102.1 20.0621 102.576 20.1275 104.109 21.6841ZM93.8072 30.0627C93.0562 30.2263 92.1502 30.6102 91.7942 30.9169C90.7972 31.773 93.5092 31.5422 95.8552 30.5707C97.3772 29.9405 97.5522 29.7282 96.5372 29.7443C95.7862 29.756 94.5582 29.8992 93.8072 30.0627ZM107.855 29.8436C108.567 30.3973 113.253 30.7318 112.892 30.2034C112.674 29.8837 111.387 29.6227 110.033 29.6227C108.679 29.6227 107.699 29.722 107.855 29.8436ZM103.967 34.8689C105.23 41.6274 105.226 41.7119 103.572 42.4322C102.544 42.8797 102.366 43.1321 103.061 43.1593C103.646 43.1827 104.678 42.8359 105.354 42.389C106.453 41.6619 106.501 41.2243 105.807 38.2229C104.952 34.5196 103.359 31.6175 103.967 34.8689ZM96.1962 35.8312C96.1962 36.5298 96.5033 36.9304 96.8783 36.7206C97.2543 36.5107 97.5612 35.9392 97.5612 35.4497C97.5612 34.9603 97.2543 34.5603 96.8783 34.5603C96.5033 34.5603 96.1962 35.1325 96.1962 35.8312ZM109.846 35.7947C109.846 36.9471 110.028 37.1113 110.665 36.5354C111.301 35.9595 111.301 35.63 110.665 35.0541C110.028 34.4782 109.846 34.6424 109.846 35.7947ZM103.021 48.1692C100.063 49.2641 100.027 49.3073 102.062 49.34C103.344 49.3604 104.659 48.8882 105.409 48.1389C106.089 47.46 106.521 46.9335 106.368 46.9687C106.216 47.0039 104.71 47.5439 103.021 48.1692ZM73.1692 66.9144L72.6123 69.3339L61.3703 71.3447C48.9463 73.5673 46.3732 74.2691 46.3752 75.435C46.3752 75.8677 46.8282 78.5463 47.3812 81.3867C48.2672 85.9368 48.2672 86.7065 47.3802 87.8508C46.8262 88.5649 46.3742 89.5931 46.3742 90.1357C46.3742 90.6776 45.2752 92.2823 43.9322 93.7013C42.0482 95.6924 41.1482 96.2028 39.9892 95.9399C36.9062 95.24 28.6443 102.556 21.1053 112.659C15.9593 119.557 17.3752 118.914 22.8492 111.869C28.3902 104.736 36.6222 96.8984 38.5722 96.8984C39.3662 96.8984 40.4452 97.6749 41.1502 98.7544C42.4142 100.69 50.3602 109.396 53.8662 112.688L55.8932 114.59L53.8952 121.637C49.7582 136.227 42.8792 148.467 35.3662 154.606C26.9802 161.457 14.9952 161.815 7.70124 155.432C-1.94175 146.993 -1.09176 122.511 9.50924 103.379C21.5922 81.5731 41.3713 67.7649 67.3783 62.9797L73.3323 61.8842L73.5303 63.1896C73.6393 63.9074 73.4762 65.5837 73.1692 66.9144ZM79.0223 63.7235C79.6543 65.3745 79.7302 65.4288 79.4492 64.0321C79.2612 63.0988 79.2593 62.3347 79.4443 62.3347C79.7023 62.3347 87.5802 68.5247 94.3592 74.0543C94.6622 74.3018 92.9772 75.8035 90.6142 77.3915C88.2502 78.9802 86.2582 80.061 86.1872 79.7937C86.1152 79.5265 85.6962 76.878 85.2552 73.9074C84.4962 68.7994 84.3632 68.5068 82.7942 68.5068C81.7322 68.5068 80.8932 68.0081 80.4582 67.1181C79.8042 65.7825 79.7882 65.78 80.0572 67.0589C80.3002 68.2155 79.9403 68.4426 77.2843 68.8025C75.6053 69.0302 74.1213 69.1172 73.9863 68.9957C73.8523 68.8735 73.9232 67.1866 74.1452 65.2461C74.5252 61.9082 74.6483 61.7175 76.4003 61.7175C77.8783 61.7175 78.4093 62.1236 79.0223 63.7235ZM110.658 65.0721C112.428 65.7405 113.195 66.528 113.793 68.2871C114.776 71.1861 114.248 71.5706 109.261 71.5836C106.205 71.591 105.673 71.4324 106.019 70.6164C106.247 70.0795 106.433 68.413 106.433 66.9132C106.433 63.8617 106.908 63.6549 110.658 65.0721ZM105.469 70.0548C105.188 71.0676 104.401 71.5688 102.616 71.8712C101.261 72.1014 100.02 72.1712 99.8602 72.0261C99.7002 71.8811 100.883 70.3473 102.489 68.6179C105.291 65.601 105.418 65.538 105.633 67.065C105.757 67.9402 105.682 69.2851 105.469 70.0548ZM118.738 68.5155C120.979 69.5388 122.813 70.5109 122.813 70.6757C122.813 70.8405 121.154 70.9757 119.126 70.9757C115.605 70.9757 115.405 70.8886 114.69 69.0321C113.535 66.0361 113.356 66.059 118.738 68.5155ZM132.624 74.1389C132.859 75.1998 133.05 78.8401 133.05 82.2286C133.05 87.7261 132.928 88.347 131.913 87.9946C131.287 87.7773 128.992 87.4311 126.813 87.2255C123.023 86.8669 122.823 86.9194 122.186 88.4328C121.821 89.3024 121.588 90.7992 121.669 91.7589C121.798 93.2834 122.333 93.6828 125.898 94.9178C133.568 97.5755 133.05 97.1706 133.05 100.52C133.05 105.261 131.875 106.1 124.95 106.3L119.238 106.465L118.113 109.225C115.823 114.84 110.729 114.95 108.953 109.422L108.003 106.465L102.953 106.157L97.9022 105.848L97.7272 101.219L97.5532 96.5898L100.302 95.4523C103.435 94.1562 105.205 91.6096 105.205 88.3988C105.205 85.498 103.156 83.1859 99.6893 82.1731L96.8202 81.3343L97.0202 77.2354L97.2203 73.1359L107.457 72.802C113.088 72.6187 120.957 72.41 124.946 72.3391L132.197 72.2101L132.624 74.1389ZM97.6513 82.9347C100.702 83.4871 99.7082 84.8301 96.0892 85.0468L93.0173 85.2307L92.1083 81.8027C91.6073 79.9178 91.3253 78.2846 91.4793 78.1742C91.6333 78.0637 92.5273 77.5026 93.4663 76.9274L95.1723 75.8819L95.3743 79.2209C95.5673 82.3928 95.6813 82.5786 97.6513 82.9347ZM141.613 81.9947C156.451 93.4211 170.059 115.129 172.646 131.496C174.091 140.637 171.346 147.489 165.331 149.762C162.406 150.867 156.542 150.82 152.793 149.662C143.241 146.712 133.587 132.766 128.942 115.205L127.663 110.368L133.185 104.713C136.223 101.603 139.473 98.0174 140.406 96.7441C141.34 95.4714 142.298 94.4296 142.535 94.4296C142.772 94.4296 144.958 95.8374 147.392 97.5582L151.819 100.687L147.784 97.2496C145.565 95.3591 143.428 93.8124 143.035 93.8124C141.694 93.8124 137.145 89.2457 137.145 87.8989C137.145 87.1607 136.685 86.2115 136.122 85.7887C135.054 84.9875 134.593 77.765 135.61 77.765C135.891 77.765 138.593 79.6684 141.613 81.9947ZM91.3883 83.0736C91.4103 83.5673 90.7663 83.5679 89.0303 83.0767C86.2663 82.294 86.0103 81.3892 88.1773 80.0585C89.6233 79.1703 89.7593 79.2104 90.5353 80.7547C90.9873 81.6564 91.3713 82.6995 91.3883 83.0736ZM102.251 84.7672C103.722 86.3701 103.883 89.2407 102.624 91.4127L101.411 93.5038L100.596 89.4944C99.5652 84.4234 100.219 82.5539 102.251 84.7672ZM136.463 88.2217C136.463 88.7982 137.525 90.3918 138.822 91.7626L141.182 94.2555L138.677 97.4916L136.172 100.728L134.615 98.9673C133.758 97.9989 133.056 97.0212 133.054 96.7947C133.052 96.5676 131.131 95.7992 128.785 95.0875C122.801 93.2723 121.589 92.3835 125.787 92.8903C128.079 93.1674 128.961 93.0859 128.647 92.6255C128.397 92.2601 127.673 91.9509 127.038 91.9391C126.404 91.9268 125.116 91.4935 124.178 90.9757L122.472 90.0344L124.519 90.3653C125.645 90.5473 127.257 90.8745 128.102 91.0923C128.947 91.3096 129.638 91.2213 129.638 90.8961C129.638 90.5708 128.422 89.9752 126.937 89.5728C124.256 88.8463 122.595 87.6317 124.308 87.6502C124.8 87.6551 127.036 88.0501 129.279 88.5266C131.521 89.0037 133.594 89.2611 133.886 89.0981C134.177 88.9352 134.415 88.0896 134.415 87.22C134.415 85.8831 134.574 85.7566 135.439 86.4059C136.002 86.8287 136.463 87.6459 136.463 88.2217ZM99.2132 88.2575C100.483 94.2062 100.573 93.7112 98.1203 94.2845L95.8552 94.8141L95.6593 101.207C95.4433 108.255 95.6232 108.6 99.5182 108.616C101.578 108.624 101.768 108.769 101.36 110.014C101.109 110.778 100.71 118.069 100.472 126.216L100.04 141.029L98.5223 133.005C97.6873 128.592 95.7412 120.074 94.1992 114.076C91.0992 102.025 90.9962 98.3939 93.6102 93.3291C94.5782 91.4546 94.8452 90.0635 94.5312 88.5457C94.0932 86.4386 94.1223 86.4059 96.4523 86.4059C98.5373 86.4059 98.8642 86.625 99.2132 88.2575ZM49.1042 89.8814C49.1042 91.417 49.2432 91.4837 51.6632 91.1059C58.0043 90.1172 60.3522 89.961 59.6832 90.572C59.3072 90.914 57.8492 91.5275 56.4412 91.9342C53.1842 92.8755 53.0672 93.9167 56.3082 93.1069C57.6432 92.7736 59.2562 92.6131 59.8912 92.7508C60.5392 92.8903 59.6222 93.347 57.8062 93.7883C56.0232 94.2216 54.5643 94.8511 54.5643 95.1869C54.5643 95.7498 56.1172 95.5819 59.5972 94.6425C60.3702 94.4339 60.7072 94.5462 60.4482 94.9258C60.2122 95.2721 57.9893 96.2041 55.5103 96.9978C51.7383 98.2057 50.6612 98.8865 48.9182 101.167L46.8352 103.892L45.2052 102.093C44.3082 101.103 42.9902 99.574 42.2762 98.6957L40.9782 97.0984L43.9462 94.4635C45.5792 93.0149 47.0932 91.0257 47.3102 90.0437C47.8032 87.8119 49.1042 87.6946 49.1042 89.8814ZM90.6933 98.2871C90.6523 100.163 90.6083 100.2 90.0093 98.8476C89.6563 98.052 89.5412 97.1496 89.7512 96.8416C90.4502 95.8189 90.7373 96.259 90.6933 98.2871ZM96.5932 131.066C98.2872 139.165 99.5823 146.02 99.4703 146.3C99.3593 146.579 94.1052 138.743 87.7952 128.885C81.4852 119.027 76.4492 110.848 76.6022 110.71C76.7542 110.571 79.3063 109.997 82.2723 109.434C85.2383 108.87 88.0353 108.157 88.4863 107.848C89.0413 107.469 89.2112 105.945 89.0072 103.172C88.7262 99.3395 88.8702 99.6487 91.1092 107.7C92.4312 112.452 94.8992 122.967 96.5932 131.066ZM51.5572 104.901L52.2132 109.201L50.7622 107.968C49.9652 107.29 48.9222 106.076 48.4452 105.27C47.7052 104.019 47.7642 103.573 48.8532 102.222C49.5542 101.352 50.3012 100.632 50.5132 100.621C50.7262 100.61 51.1952 102.537 51.5572 104.901ZM152.843 102.762C153.724 103.611 154.599 104.305 154.787 104.305C154.975 104.305 154.407 103.611 153.525 102.762C152.643 101.913 151.768 101.219 151.581 101.219C151.393 101.219 151.961 101.913 152.843 102.762ZM154.89 105.155C154.89 105.283 155.427 105.77 156.084 106.236C157.167 107.003 157.191 106.981 156.342 106.002C155.45 104.974 154.89 104.647 154.89 105.155ZM158.985 110.168C160.147 111.696 161.252 112.946 161.439 112.946C161.627 112.946 160.83 111.696 159.668 110.168C158.505 108.641 157.401 107.391 157.213 107.391C157.026 107.391 157.823 108.641 158.985 110.168ZM106.433 109.304C106.433 109.676 106.947 110.961 107.574 112.157C108.711 114.323 112.592 116.477 113.971 115.707C114.33 115.506 114.623 115.621 114.623 115.963C114.623 116.305 111.689 123.612 108.103 132.201L101.581 147.818L101.936 129.611C102.131 119.596 102.491 110.778 102.735 110.014C103.036 109.075 103.707 108.625 104.807 108.625C105.701 108.625 106.433 108.93 106.433 109.304Z" fill="#121A17"/>
</svg>
