<svg width="485" height="492" viewBox="0 0 485 492" fill="none" xmlns="http://www.w3.org/2000/svg">
<path fill-rule="evenodd" clip-rule="evenodd" d="M401.232 4.24841C433.318 12.6629 458.153 33.1449 472.58 63.0944C481.654 81.9299 483.809 91.0951 484.589 114.158C485.359 136.93 483.838 144.614 474.718 164.021C459.406 196.599 432.824 218.751 398.584 227.465C367.445 235.391 332.342 229.27 305.903 211.307C282.684 195.531 267.37 174.483 259.197 147.115C255.289 134.024 254.193 105.487 257.076 91.8777C266.815 45.9039 302.244 11.5395 349.475 2.25279C362.465 -0.300385 387.571 0.667061 401.232 4.24841ZM362.543 9.55902C357.947 11.2552 355.704 14.3549 357.133 17.035C358.185 19.0072 360.067 19.6213 365.068 19.6213C371.977 19.6213 374.924 17.9031 374.924 13.8732C374.924 9.78812 368.238 7.45852 362.543 9.55902ZM372.512 13.4109C372.32 14.1699 370.463 14.8131 368.385 14.8407C366.307 14.8696 363.832 15.372 362.887 15.9585C359.817 17.8617 357.723 15.263 360.616 13.139C363.512 11.0109 373.063 11.2303 372.512 13.4109ZM408.011 27.1235C406.065 29.478 407.425 32.5777 412.495 37.3348C419.441 43.8517 431.323 45.3877 431.323 39.7707C431.323 36.6379 425.808 30.7118 420.243 27.8632C413.94 24.6366 410.252 24.4144 408.011 27.1235ZM421.965 31.3356C426.777 34.6161 429.763 39.5885 427.989 41.3675C427.531 41.8271 425.152 40.2979 422.705 37.9683C420.258 35.6373 416.244 32.7143 413.784 31.4708C411.325 30.2287 409.314 28.9163 409.314 28.5561C409.314 26.5604 417.644 28.3891 421.965 31.3356ZM127.903 47.5614C126.755 62.2953 126.044 62.2263 140.04 48.7276C151.189 37.9738 149.896 41.362 138.253 53.4102L128.557 63.4435L136.465 70.5138C146.286 79.2967 145.233 79.7742 134.817 71.2631C130.562 67.7853 126.822 65.2004 126.506 65.5178C126.188 65.8352 125.316 70.9554 124.565 76.8953C122.783 90.9958 121.561 92.0529 122.701 78.5073C123.192 72.6874 123.214 67.9247 122.752 67.9247C122.288 67.9247 119.721 69.8527 117.047 72.2085C114.237 74.683 112.184 75.7181 112.184 74.6609C112.184 73.6535 114.815 70.5331 118.031 67.726L123.877 62.6224L116.358 54.9228C107.568 45.9218 108.269 44.8329 117.735 52.7837C125.32 59.1556 125.145 59.3253 126.627 44.118C127.994 30.0921 129.044 32.9268 127.903 47.5614ZM285.723 49.3251C277.204 56.5168 272.953 71.7766 278.619 74.8183C284.642 78.0518 294.29 68.623 297.985 55.893C299.337 51.2338 299.326 49.6481 297.926 47.9575C295.34 44.8302 290.39 45.385 285.723 49.3251ZM290.294 54.771C286.154 58.9251 283.602 62.9812 282.479 67.1919C281.562 70.6311 280.322 73.4451 279.723 73.4451C278.083 73.4451 278.412 64.0328 280.172 60.5881C282.968 55.1188 290.11 48.6033 293.309 48.6033C296.12 48.6033 295.809 49.2382 290.294 54.771ZM336.671 55.7026C318.722 62.621 313.953 77.889 328.514 81.8223C338.769 84.5935 357.76 78.597 364.615 70.4227C368.958 65.2445 368.976 60.4515 364.669 56.1318C361.779 53.2308 360.047 52.7533 352.632 52.8154C347.38 52.8596 341.1 53.9954 336.671 55.7026ZM363.133 57.672C365.314 59.8608 366.175 66.586 364.263 66.4963C363.695 66.4687 361.684 65.5592 359.792 64.4744C352.368 60.2169 336.773 63.7264 328.071 71.6137C323.079 76.1376 322.651 76.2881 322.651 73.5155C322.651 67.2098 328.939 61.0146 339 57.4084C346.227 54.8165 360.441 54.9725 363.133 57.672ZM406.142 80.0502C401.078 85.6631 400.997 100.974 405.987 108.617C407.557 111.02 409.497 112.088 412.293 112.088C415.602 112.088 416.692 111.222 418.325 107.302C421.5 99.6793 420.303 87.1287 415.86 81.4565C413.054 77.871 408.678 77.239 406.142 80.0502ZM414.219 83.2065C418.167 87.5828 418.759 103.406 415.143 107.885L412.445 111.228L413.043 100.963C413.529 92.6312 413.132 89.7206 410.938 85.5209C407.901 79.7066 409.834 78.3444 414.219 83.2065ZM462.333 91.7935C456.655 100.487 456.345 110.779 461.619 115.567C467.462 120.872 475.342 111.943 475.342 100.019C475.342 89.94 466.991 84.6597 462.333 91.7935ZM471.756 93.5696C473.122 97.1386 472.707 106.182 471.006 109.927C469.55 113.134 464.959 115.933 463.522 114.489C463.186 114.154 463.849 112.078 464.992 109.878C467.484 105.084 467.742 95.3541 465.438 93.0424C464.155 91.7548 464.58 91.3863 467.354 91.3863C469.338 91.3863 471.291 92.3552 471.756 93.5696ZM367.062 108.643C362.666 110.523 359.931 115.865 361.807 118.91C363.506 121.668 370.8 120.491 374.4 116.879C378.236 113.03 378.181 111.134 374.16 108.502C371.984 107.078 370.659 107.104 367.062 108.643ZM374.58 111.743C374.925 112.782 373.921 113.468 372.051 113.468C370.346 113.468 367.819 114.496 366.435 115.752C364.162 117.815 363.919 117.822 363.919 115.831C363.919 111.144 373.2 107.586 374.58 111.743ZM294.296 118.859C287.861 122.795 283.661 132.567 284.426 141.823C285.108 150.067 287.804 154.171 294.392 156.986C301.454 160.006 309.799 154.846 314.549 144.52C322.721 126.753 309.264 109.702 294.296 118.859ZM306.511 118.436C306.965 118.892 305.342 121.265 302.904 123.711C295.722 130.916 293.15 143.422 297.235 151.281C299.755 156.128 299.339 156.735 294.708 154.969C287.257 152.127 284.438 138.056 289.433 128.627C293.283 121.357 303.402 115.319 306.511 118.436ZM157.127 138.448C159.439 149.818 164.541 160.427 171.169 167.641L176.751 173.716L171.636 178.535C157.045 192.28 138.831 204.72 116.969 215.871C100.332 224.357 103.111 225.49 90.8599 205.219C82.0272 190.603 73.8039 170.927 72.7309 161.836L71.9716 155.402L82.792 150.443C99.584 142.748 120.871 135.75 138.27 132.204C146.998 130.425 154.435 129.245 154.794 129.581C155.154 129.916 156.204 133.906 157.127 138.448ZM193.187 130.124C202.779 132.188 203.827 133.907 200.33 141.839C197.118 149.123 187.106 163.622 182.004 168.375L178.62 171.529L173.426 165.76C167.027 158.654 160.432 144.41 159.367 135.396L158.571 128.649H172.451C180.085 128.649 189.416 129.313 193.187 130.124ZM77.6638 142.62C80.9955 144.063 83.4716 145.482 83.1662 145.773C82.8594 146.063 77.3474 149.056 70.9165 152.424C64.4856 155.791 57.8909 159.384 56.2622 160.408C53.6637 162.04 52.2923 161.814 45.0855 158.569C40.5667 156.535 34.9363 154.871 32.5717 154.871C27.2646 154.871 27.1339 153.474 32.0985 149.792C47.0443 138.706 62.872 136.215 77.6638 142.62ZM440.197 145.877C437.713 148.521 435.263 152.583 434.755 154.904C433.559 160.368 436.989 165.912 441.566 165.912C446.343 165.912 453.03 159.654 454.883 153.452C456.231 148.934 456.123 147.545 454.188 144.582C450.866 139.497 445.75 139.97 440.197 145.877ZM111.04 146.714C105.267 149.657 97.0941 159.513 98.9154 161.339C99.4037 161.829 99.804 161.528 99.804 160.669C99.804 159.81 101.806 156.819 104.253 154.023C117.487 138.9 141.786 143.722 148.033 162.711C154.926 183.668 131.942 203.664 112.473 193.647C102.502 188.518 98.511 181.745 98.3101 169.617C98.2125 163.683 98.0006 163.1 97.068 166.201C95.6277 170.996 97.753 180.574 101.473 186.047C113.429 203.645 141.133 200.312 148.726 180.363C153.345 168.229 149.305 155.242 138.626 147.901C131.733 143.162 119.08 142.618 111.04 146.714ZM452.805 147.427C454.044 152.382 450.268 159.769 445.132 162.434C440.732 164.716 439.442 163.367 443.107 160.315C446.24 157.706 449.206 151.403 449.206 147.349C449.206 142.759 451.65 142.811 452.805 147.427ZM117.39 149.635C110.931 151.338 103.026 159.919 101.781 166.578C100.566 173.078 104.184 182.66 109.572 187.209C124.503 199.814 148.211 185.904 144.611 166.653C143.468 160.54 135.564 151.357 130.378 150.116C128.316 149.622 125.7 149.01 124.565 148.753C123.43 148.496 120.201 148.892 117.39 149.635ZM372.174 152.28C363.492 155.754 356.698 166.787 356.566 177.626C356.386 192.463 368.452 199.413 379.394 190.778C384.402 186.827 390.057 174.769 390.05 168.056C390.044 161.301 385.879 153.928 381.023 152.076C376.866 150.49 376.636 150.496 372.174 152.28ZM383.931 157.142C390.937 164.727 386.609 183.929 376.566 189.813L372.222 192.358L375.514 185.001C380.14 174.657 381.066 167.358 378.524 161.256C377.378 158.503 375.789 156.251 374.994 156.251C374.199 156.251 373.548 155.63 373.548 154.871C373.548 152.026 380.638 153.578 383.931 157.142ZM125.608 156.469C126.813 157.678 127.685 157.663 129.199 156.401C130.45 155.359 131.509 155.242 132.03 156.088C132.488 156.832 132.234 157.83 131.465 158.307C130.696 158.783 130.067 159.882 130.067 160.749C130.067 161.883 130.529 161.86 131.718 160.667C134.239 158.137 135.974 158.692 135.172 161.77C134.776 163.287 135.014 164.876 135.699 165.302C138.156 166.825 137.054 173.043 134.194 173.792C132.502 174.236 131.443 175.674 131.443 177.528C131.443 183.097 124.621 186.118 120.771 182.255C119.566 181.046 118.657 181.093 117.024 182.452C114.257 184.755 112.623 183.199 114.908 180.436C115.993 179.125 116.098 178.332 115.185 178.332C114.381 178.332 113.333 178.963 112.858 179.735C111.278 182.302 109.356 179.677 110.814 176.943C111.875 174.953 111.669 174.04 109.937 173.067C108.659 172.35 108.109 171.086 108.675 170.166C109.4 168.989 110.175 168.952 111.472 170.031C113.897 172.05 123.843 160.773 121.807 158.313C119.386 155.387 122.852 153.705 125.608 156.469ZM71.5039 169.362C74.3665 181.164 83.4317 200.598 92.0305 213.362C95.5493 218.587 98.4284 223.355 98.4284 223.96C98.4284 225.526 83.2061 231.037 81.1083 230.23C77.6046 228.88 67.8654 214.851 61.9338 202.608C55.9472 190.252 50.6773 171.847 52.0777 168.186C52.9869 165.808 67.1941 157.599 68.3193 158.801C68.7829 159.297 70.2163 164.048 71.5039 169.362ZM125.482 164.072C123.694 165.865 124.602 168.498 127.304 169.358C131.304 170.631 133.124 169.062 131.399 165.827C129.972 163.154 127.213 162.334 125.482 164.072ZM118.932 172.281C117.353 174.189 117.535 174.873 120.206 177.041C125.58 181.407 130.009 177.092 125.155 172.22C122.426 169.483 121.236 169.494 118.932 172.281ZM46.0415 185.797C45.7265 186.108 37.7302 191.079 28.2729 196.844C18.8157 202.608 13.0932 205.567 15.5555 203.418C20.5366 199.073 43.1418 185.233 45.2602 185.233C46.0058 185.233 46.3565 185.487 46.0415 185.797ZM312.075 188.864C310.865 192.029 315.201 199.48 319.858 202.24C328.611 207.428 331.336 199.191 323.476 191.305C318.464 186.276 313.473 185.208 312.075 188.864ZM319.963 191.142C322.465 193.122 326.778 199.182 326.778 200.722C326.778 203.449 323.036 201.292 320.231 196.947C318.521 194.299 316.51 192.133 315.761 192.133C315.011 192.133 314.397 191.512 314.397 190.753C314.397 188.881 317.365 189.088 319.963 191.142ZM406.562 198.004C401.664 200.57 401.898 205.984 406.981 207.684C412.6 209.564 419.973 207.82 421.069 204.353C422.858 198.7 413.255 194.497 406.562 198.004ZM418.526 201.206C418.83 202.138 416.445 202.65 412.099 202.586C405.418 202.487 403.348 201.423 406.906 199.916C409.762 198.705 418.009 199.62 418.526 201.206ZM51.4366 205.236C49.4833 207.196 18.121 223.812 17.5185 223.206C16.4744 222.159 16.6051 222.077 33.7753 212.981C47.6579 205.627 53.6802 202.985 51.4366 205.236ZM117.529 229.889C112.56 242.239 102.496 251.236 87.8363 256.439C79.95 259.238 77.4354 258.448 81.144 254.337C84.191 250.959 87.2765 242.387 87.3893 236.987C87.4704 233.086 88.2132 232.54 100.174 227.565C107.158 224.661 114.11 221.367 115.623 220.246C118.182 218.351 118.406 218.464 118.824 221.88C119.072 223.9 118.489 227.504 117.529 229.889ZM59.5499 227.435C54.0007 230.455 22.8833 240.705 21.0882 240.104C19.4498 239.556 57.8277 225.552 61.2873 225.437C62.4221 225.398 61.6408 226.296 59.5499 227.435ZM242.604 239.558C243.342 251.2 238.554 275.032 234.305 280.863C232.64 283.145 232.106 283.072 225.204 279.62C216.755 275.397 203.234 263.33 197.372 254.784C195.158 251.553 193.345 248.516 193.345 248.034C193.345 246.444 216.29 236.335 224.498 234.309C228.926 233.216 234.716 232.441 237.364 232.584C242.107 232.842 242.185 232.947 242.604 239.558ZM203.073 267.296C209.545 274.342 221.322 282.592 226.916 284.001C229.002 284.525 231.007 285.738 231.373 286.695C232.265 289.026 219.621 314.174 210.223 328.763C202.036 341.474 177.305 372.926 175.498 372.926C173.17 372.926 149.554 356.348 139.409 347.592C129.359 338.916 116.674 324.941 113.571 319.122C112.374 316.879 113.432 314.968 120.239 307.083C136.106 288.7 156.219 271.094 178.052 256.476L189.584 248.755L193.493 254.94C195.643 258.341 199.954 263.903 203.073 267.296ZM358.141 267.093C361.041 273.061 363.869 288.711 363.896 298.935L363.919 308.44L354.991 307.721C345.403 306.948 329.783 300.369 321.963 293.808L317.836 290.347L321.963 285.966C331.477 275.867 351.39 262.033 354.978 263.03C355.734 263.24 357.158 265.069 358.141 267.093ZM164.695 276.691C157.794 278.906 147.143 289.226 144.446 296.309C138.76 311.248 144.757 329.362 158.139 337.662C166.38 342.774 179.92 344.101 188.135 340.604C210.855 330.93 216.687 302.425 199.479 285.16C190.631 276.283 176.602 272.868 164.695 276.691ZM190.245 280.282C201.283 285.932 207.101 296.12 207.101 309.803C207.101 333.252 183.747 347.92 162.337 337.917C145.507 330.055 139.025 311.364 147.33 294.644C155.367 278.461 174.306 272.124 190.245 280.282ZM163.428 284.743C147.511 292.649 143.126 312.619 154.366 326.021C166.455 340.434 188.914 338.504 198.418 322.235C211.808 299.31 187.197 272.939 163.428 284.743ZM187.149 300.816C186.45 316.593 186.626 316.172 181.014 315.428C171.053 314.108 170.653 313.852 168.225 307.278L165.856 300.867L169.627 301.752C177.093 303.503 180.636 305.548 182.213 309.023C183.097 310.968 184.124 312.251 184.498 311.877C184.871 311.502 184.119 309.345 182.824 307.083C180.559 303.122 180.582 302.816 183.469 298.747C185.117 296.425 186.467 294.011 186.467 293.381C186.467 292.754 184.871 294.596 182.92 297.476C179.713 302.213 178.956 302.624 175.011 301.778C166.482 299.952 166.763 298.976 177.082 294.555C182.622 292.181 187.26 290.213 187.388 290.18C187.518 290.146 187.409 294.934 187.149 300.816ZM340.986 307.855C345.117 309.406 352.023 310.862 356.331 311.092L364.167 311.512L363.239 321.862C361.293 343.602 355.022 369.745 345.776 394.663C342.564 403.319 342.296 403.364 323.571 398.484C300.238 392.402 271.754 378.19 271.754 372.631C271.754 368.914 283.481 342.913 291.44 328.982C295.366 322.111 302.41 311.207 307.093 304.751L315.608 293.014L324.542 299.025C329.456 302.331 336.855 306.305 340.986 307.855ZM119.622 299.574C120.02 300.218 117.735 303.841 114.545 307.625C111.355 311.408 105.866 318.255 102.348 322.84L95.9496 331.174L86.524 330.498C79.8138 330.016 75.6224 330.44 71.9743 331.969C69.0209 333.207 66.5159 333.575 66.062 332.84C63.7634 329.107 81.3724 308.511 91.2423 303.391C99.3047 299.208 117.86 296.712 119.622 299.574ZM166.321 320.089C163.555 324.625 164.057 325.201 167.552 321.5C170.147 318.753 171.536 318.354 176.15 319.037L181.652 319.85L173.641 322.946C169.235 324.648 165.057 325.684 164.355 325.249C163.655 324.816 163.115 319.994 163.156 314.536L163.231 304.611L165.708 310.822C167.838 316.163 167.924 317.46 166.321 320.089ZM174.851 308.829C173.553 310.815 172.766 312.718 173.103 313.055C173.438 313.391 174.776 312.042 176.073 310.054C177.371 308.068 178.158 306.165 177.821 305.829C177.485 305.492 176.148 306.842 174.851 308.829ZM318.868 320.09C320.948 320.406 324.354 320.406 326.434 320.09C328.514 319.774 326.812 319.516 322.651 319.516C318.49 319.516 316.788 319.774 318.868 320.09ZM116.999 328.255C126.456 341.511 152.561 364.189 167.594 372.204C170.408 373.706 172.711 375.323 172.711 375.799C172.711 376.276 169.301 379.901 165.133 383.856C159.028 389.65 156.957 390.86 154.472 390.088C137.347 384.766 109.463 360.617 100.281 343.152L96.5989 336.148L102.493 328.316C105.736 324.007 109.088 320.496 109.942 320.513C110.798 320.528 113.973 324.013 116.999 328.255ZM308.207 323.065C290.488 334.105 288.858 356.873 304.805 370.567C311.399 376.229 316.752 377.72 326.952 376.738C352.57 374.267 361.121 338.301 339.378 324.467C335.935 322.275 332.464 320.51 331.667 320.543C330.869 320.578 332.445 321.787 335.169 323.23C354.078 333.258 355.664 359.532 338.088 371.615C331.347 376.249 318.248 377.014 310.846 373.206C289.804 362.383 289.868 333.93 310.958 322.776C313.228 321.575 314.466 320.571 313.71 320.543C312.953 320.516 310.477 321.65 308.207 323.065ZM311.894 326.867C296.777 334.595 294.916 356.638 308.5 367.033C323.047 378.165 346.117 366.587 346.006 348.213C345.963 341.206 341.641 332.502 336.313 328.697C330.358 324.442 318.387 323.545 311.894 326.867ZM333.499 338.011C336.525 344.263 336.549 344.569 334.117 346.379C331.837 348.076 331.393 347.781 329.529 343.335C328.24 340.261 326.772 338.676 325.618 339.115C319.936 341.271 317.48 341.282 316.666 339.152C316.03 337.489 317.308 336.247 321.637 334.316C324.844 332.887 328.116 331.674 328.911 331.621C329.706 331.567 331.77 334.443 333.499 338.011ZM20.2271 347.289C24.0485 345.346 26.7639 344.424 26.2618 345.24C25.7583 346.056 23.5299 347.668 21.3083 348.82C16.3245 351.405 16.2337 352.69 20.8846 354.815C22.8737 355.725 24.1695 356.801 23.7637 357.208C23.3579 357.615 21.1418 356.971 18.8405 355.777C13.2583 352.88 13.1579 352.92 13.0327 358.09L12.924 362.575L11.5539 358.816C10.2306 355.184 10.071 355.131 6.80534 357.277C1.71288 360.625 1.32084 358.515 6.36653 354.912L10.7533 351.777L4.72544 348.613C1.41025 346.873 -0.497707 345.421 0.485847 345.386C1.46802 345.352 4.02113 346.231 6.15744 347.339C11.0188 349.862 11.7025 349.158 12.0257 341.298C12.2651 335.495 12.327 335.628 12.7823 342.898L13.2775 350.821L20.2271 347.289ZM312.577 340.633C313.327 342.592 311.122 345.245 308.698 345.303C306.851 345.348 306.129 340.665 307.816 339.59C310.447 337.916 311.638 338.178 312.577 340.633ZM325.141 347.739C324.885 349.067 323.765 350.154 322.651 350.154C321.537 350.154 320.417 349.067 320.161 347.739C319.836 346.045 320.579 345.324 322.651 345.324C324.723 345.324 325.465 346.045 325.141 347.739ZM317.127 352.848C318.576 357.255 318.963 357.509 322.285 356.242C324.26 355.489 326.698 355.189 327.702 355.575C331.572 357.065 329.236 360.072 322.542 362.219L315.556 364.462L312.943 358.688C309.859 351.871 309.668 349.938 311.99 348.998C315.124 347.73 315.547 348.047 317.127 352.848ZM339.158 353.457C339.158 357.121 335.381 358.218 333.687 355.044C332.691 353.177 332.782 352.252 334.011 351.755C337.472 350.352 339.158 350.909 339.158 353.457ZM271.754 359.147C271.754 361.895 261.695 390.203 260.204 391.653C259.369 392.463 255.22 394.173 250.985 395.452C246.75 396.73 242.166 399.017 240.799 400.532C236.764 405.005 235.536 403.879 236.406 396.505C238.104 382.126 249.557 366.351 262.624 360.398C269.054 357.469 271.754 357.099 271.754 359.147ZM84.301 380.735C76.4175 392 67.6178 404.788 64.7455 409.154C58.9997 417.883 57.2472 419.453 60.6765 412.8C65.5351 403.372 88.7373 368.936 94.7432 362.236C101.624 354.56 97.4862 361.889 84.301 380.735ZM194.017 376.1C194.005 387.786 193.638 389.501 189.42 397.637C184.659 406.817 172.709 419.849 169.052 419.849C167.324 419.849 167.116 418.635 167.887 413.022C168.528 408.341 168.123 403.784 166.598 398.519L164.373 390.842L177.805 375.721C186.903 365.476 191.687 361.05 192.635 362.001C193.404 362.773 194.026 369.117 194.017 376.1ZM410.246 387.417C409.693 395.865 409.88 400.528 410.772 400.528C411.534 400.528 415.231 398.964 418.988 397.054C427.672 392.639 427.859 393.565 419.287 398.528C415.692 400.609 412.498 402.528 412.187 402.791C411.878 403.055 412.747 404.516 414.12 406.04C416.751 408.956 415.161 409.983 412.363 407.176C409.979 404.784 408.802 406.716 407.744 414.758L406.803 421.919L407.026 413.983C407.15 409.616 406.704 406.046 406.037 406.047C405.37 406.047 402.707 407.361 400.118 408.966C397.53 410.571 395.082 411.552 394.679 411.146C394.274 410.741 396.468 408.962 399.554 407.194C402.641 405.425 405.17 403.595 405.176 403.127C405.183 402.657 402.654 400.593 399.558 398.538C396.463 396.483 394.284 394.446 394.716 394.013C395.148 393.578 397.977 394.867 401.002 396.876C404.029 398.884 406.752 400.528 407.058 400.528C407.362 400.528 408.052 394.628 408.59 387.417C409.129 380.206 409.916 374.306 410.337 374.306C410.759 374.306 410.718 380.206 410.246 387.417ZM77.5661 423.834C57.642 448.795 41.1183 469.014 40.8473 468.764C39.5803 467.602 59.2707 442.061 110.098 378.935C111.598 377.07 113.043 376.2 113.308 376.999C113.574 377.796 97.4889 398.873 77.5661 423.834ZM280.508 384.581C292.067 391.804 310.185 399.025 327.466 403.298C334.275 404.98 340.041 406.536 340.279 406.754C340.519 406.972 338.807 410.938 336.477 415.57C332.28 423.911 332.185 423.99 326.329 423.99C318.107 423.99 300.581 419.162 288.544 413.584C277.633 408.526 265.628 400.346 264.398 397.13C263.636 395.139 268.617 378.446 269.974 378.446C270.369 378.446 275.109 381.207 280.508 384.581ZM356.814 393.517C363.785 405.963 363.409 420.931 355.709 437.44C351.587 446.278 348.811 448.485 348.757 442.966C348.717 438.911 343.863 428.24 340.349 424.485L337.584 421.53L340.916 414.824C342.749 411.135 345.987 403.617 348.111 398.113C350.234 392.609 352.38 388.107 352.878 388.107C353.376 388.107 355.147 390.542 356.814 393.517ZM134.194 394.831C134.194 395.493 124.755 404.728 113.216 415.352C86.2888 440.146 81.9213 443.898 81.9213 442.228C81.9213 440.696 131.54 393.639 133.162 393.632C133.729 393.629 134.194 394.17 134.194 394.831ZM266.854 436.544C263.932 447.269 261.334 455.421 261.081 454.658C260.065 451.603 269.926 414.794 271.37 416.245C271.809 416.685 269.777 425.82 266.854 436.544ZM36.5334 420.175C38.7894 422.604 39.3135 424.71 38.9943 430.072C38.7715 433.819 37.9668 437.09 37.2047 437.341C36.3752 437.614 35.9969 435.44 36.2624 431.928C36.7576 425.403 34.0436 420.301 30.7518 421.569C27.8094 422.701 23.633 432.19 23.7623 437.446C23.8875 442.512 22.2134 443.285 20.0193 439.171C19.2091 437.653 17.4263 436.41 16.0576 436.41C11.0105 436.41 6.013 445.893 9.09571 449.619C10.4713 451.282 10.3902 451.505 8.6569 450.838C5.52879 449.633 4.77634 444.87 6.90714 439.754C9.12873 434.42 13.206 431.888 17.7358 433.028C20.5187 433.729 21.1308 433.25 21.8104 429.844C22.6385 425.69 29.6513 417.089 32.2099 417.089C33.0119 417.089 34.957 418.478 36.5334 420.175ZM290.341 427.095C290.019 428.044 287.22 436.739 284.12 446.416C281.021 456.093 277.9 464.012 277.183 464.012C276.467 464.012 275.881 463.807 275.881 463.554C275.881 463.048 285.784 435.19 288.106 429.165C289.527 425.479 291.514 423.638 290.341 427.095ZM305.36 451.812C297.682 467.202 292.572 475.698 291.589 474.711C291.313 474.436 295.71 465.55 301.358 454.966C307.006 444.381 311.679 435.099 311.745 434.34C311.81 433.581 312.156 433.681 312.516 434.561C312.875 435.442 309.654 443.205 305.36 451.812ZM87.9986 455.189C91.4404 456.514 90.5504 460.557 85.7867 465.228C83.3739 467.597 81.0519 469.542 80.6282 469.554C80.2045 469.566 78.9995 470.121 77.9513 470.786C76.4546 471.737 77.0214 472.873 80.5883 476.07C83.7054 478.864 84.8513 480.877 84.2378 482.481C83.1854 485.231 70.2617 491.581 65.6768 491.601C60.8251 491.621 63.2998 489.322 70.8271 486.814C74.5425 485.575 78.386 483.592 79.3681 482.405C80.8799 480.578 80.5801 479.79 77.4107 477.253C75.3514 475.607 73.6677 473.536 73.6677 472.652C73.6677 471.769 76.379 469.174 79.6928 466.887C90.2491 459.6 88.8281 455.387 76.8343 458.416C73.3086 459.308 68.677 461.284 66.5434 462.809C62.1594 465.94 61.2556 464.338 65.3233 460.645C70.4639 455.978 82.5141 453.078 87.9986 455.189Z" fill="#121A17"/>
</svg>
