<svg width="324" height="316" viewBox="0 0 324 316" fill="none" xmlns="http://www.w3.org/2000/svg">
<mask id="mask0_495_11424" style="mask-type:alpha" maskUnits="userSpaceOnUse" x="0" y="0" width="324" height="316">
<rect width="324" height="316" fill="#D9D9D9"/>
</mask>
<g mask="url(#mask0_495_11424)">
<path fill-rule="evenodd" clip-rule="evenodd" d="M182.42 8.69826C171.888 9.39531 170.315 10.7317 169.758 19.4648C169.546 22.8085 169.673 29.1759 170.044 33.6132C170.64 40.7614 171.016 41.9805 173.342 44.3043C175.889 46.8487 176.26 46.9269 185.785 46.9269C193.637 46.9269 197.047 47.3847 202.818 49.2162C210.035 51.5056 211.888 51.5847 209.818 49.5168C209.211 48.9119 208.716 47.6621 208.716 46.7407C208.716 45.3178 209.539 45.0656 214.192 45.0656C222.063 45.0656 222.192 44.7901 222.039 28.3067C221.906 14.028 220.929 9.72382 217.524 8.41814C215.769 7.74529 194.235 7.91746 182.42 8.69826ZM218.438 11.4967C219.725 12.9187 220.16 15.584 220.526 24.2929C220.781 30.3439 220.62 36.9691 220.17 39.0165L219.352 42.739L213.103 43.0145C206.863 43.289 206.853 43.2937 206.853 46.039C206.853 47.5513 206.659 48.7881 206.421 48.7881C206.184 48.7881 203.863 47.9506 201.263 46.9269C197.613 45.49 194.34 45.0656 186.893 45.0656C173.062 45.0656 172.989 44.9865 172.372 29.5631C171.821 15.7497 172.482 11.7889 175.454 11.104C177.577 10.6144 187.312 10.2292 206.01 9.89506C215.64 9.72196 216.987 9.89599 218.438 11.4967ZM72.1333 14.7613C71.851 15.4965 71.0247 15.8707 70.2971 15.5915C69.5696 15.3123 67.8284 15.3718 66.4283 15.7227C64.1096 16.3043 64.036 16.4477 65.6076 17.3262C67.1698 18.2 67.0366 18.4346 64.1972 19.8017C59.6594 21.9859 53.633 28.3384 50.7983 33.9268C47.2508 40.9215 45.7239 49.5159 45.7053 62.6015C45.6829 78.9118 40.7689 101.02 31.2575 127.603C29.4604 132.624 27.9895 138.242 27.9895 140.085C27.9895 144.904 31.3348 149.305 37.4245 152.496L42.6423 155.231L43.1612 163.923C43.5748 170.846 44.1459 173.414 45.968 176.544C48.432 180.775 48.473 185.673 46.0686 188.427C44.3918 190.347 42.7457 198.508 38.7557 224.678C36.9224 236.706 34.9614 249.423 34.3978 252.937L33.374 259.326L25.3252 263.024C13.2696 268.563 -13 282.523 -13 283.392C-13 283.81 -3.42057 279.433 8.28751 273.665C19.9956 267.897 34.9894 261.039 41.6073 258.427C69.713 247.331 100.341 241.101 143.771 237.645C164.389 236.006 210.844 237.005 228.966 239.479C258.036 243.448 292.547 251.582 325.396 262.209C333.978 264.985 341 266.95 341 266.577C341 265.512 317.638 256.717 303.783 252.565C296.891 250.5 291.162 248.72 291.053 248.61C290.944 248.499 290.744 246.31 290.608 243.744C290.445 240.65 290.873 238.301 291.879 236.764C295.774 230.82 307.463 204.129 307.463 201.18C307.463 199.342 303.69 195.059 300.519 193.296C298.851 192.369 299.292 191.731 305.815 185.645C314.796 177.267 315.357 175.69 314.616 160.979C313.133 131.551 305.366 109.251 291.783 95.4176C288.879 92.46 285.286 89.7388 283.799 89.3694C280.833 88.6332 276.255 84.2881 276.255 82.2091C276.255 81.486 275.417 80.5265 274.392 80.077C272.696 79.3325 272.559 78.5405 272.866 71.2453C273.164 64.1911 273.475 62.9822 275.466 61.1376C277.228 59.5072 277.705 58.1661 277.62 55.0792C277.561 52.8987 277.805 48.36 278.163 44.993C278.701 39.9304 278.491 38.1426 276.947 34.6555C273.827 27.6097 266.723 23.6778 257.095 23.6666C252.432 23.6601 244.545 25.7103 242.006 27.5883C240.367 28.8 237.595 37.7387 237.595 41.8112C237.595 43.0433 236.547 45.0972 235.266 46.3769C232.428 49.2116 232.163 54.0592 234.669 57.2709C235.843 58.7766 236.55 61.6374 236.868 66.1677C237.349 73.0284 240.733 80.8364 243.723 81.982C244.451 82.2612 245.047 83.6236 245.047 85.0084C245.047 87.8543 241.719 91.4093 236.663 93.9621C226.549 99.0694 223.218 104.029 214.743 126.6C210.976 136.634 207.711 145.027 207.487 145.251C207.263 145.475 199.629 147.921 190.524 150.688C181.419 153.454 173.582 156.103 173.111 156.574C172.589 157.095 170.388 156.884 167.482 156.033C163.734 154.935 162.086 154.862 159.796 155.689C155.974 157.069 148.831 157.037 147.426 155.633C146.816 155.024 140.141 153.662 132.595 152.609L118.873 150.693L117.718 141.852C117.083 136.989 115.912 129.032 115.116 124.17C114.321 119.307 113.528 112.397 113.355 108.814C113.127 104.112 112.125 99.9684 109.753 93.9239C107.945 89.3173 106.616 85.3835 106.797 85.1825C106.98 84.9824 107.846 85.4012 108.723 86.1131C110.101 87.2336 110.238 87.2196 109.732 86.0135C103.465 71.0703 103.388 70.7167 103.18 56.1904C103.071 48.5359 103.296 42.2728 103.68 42.2728C104.869 42.2737 104.45 34.9375 103.072 31.644C102.354 29.926 100.244 26.8373 98.3852 24.7815C96.114 22.2716 95.3967 20.8961 96.1978 20.5946C98.6395 19.677 89.783 16.8776 84.1311 16.7808C78.8164 16.6896 78.3711 16.5268 78.8965 14.8656C79.4508 13.1113 79.3875 13.1039 77.0194 14.6543C74.9066 16.0382 74.5684 16.0633 74.5684 14.8414C74.5684 13.0453 72.8143 12.9876 72.1333 14.7613ZM202.384 22.5926C199.828 25.6609 196.771 29.8869 195.592 31.9837L193.446 35.7965L188.992 31.4132C186.542 29.0028 184.359 27.2142 184.141 27.4394C183.922 27.6646 185.959 30.3383 188.667 33.3805L193.592 38.9113L198.019 31.9846C200.455 28.1746 203.698 23.4674 205.228 21.5243C209.837 15.6687 207.384 16.591 202.384 22.5926ZM91.4831 37.1682C94.1008 38.9671 97.2151 40.6832 98.4038 40.981C101.158 41.6716 101.888 45.9683 101.442 58.8576C101.076 69.451 99.8058 72.1908 93.9033 75.1242C90.7471 76.6932 90.5934 76.9687 91.4738 79.4907C91.9899 80.9713 92.9671 82.6418 93.6434 83.203C94.561 83.9643 94.6365 84.8651 93.9397 86.7468C93.1916 88.7673 93.6574 91.4968 96.2742 100.438C98.619 108.449 99.2674 111.941 98.5677 112.792C97.4322 114.172 98.2044 115.334 99.6586 114.436C101.281 113.435 100.815 109.783 97.9156 100.777L95.1787 92.2748L98.1942 95.1942C100.35 97.2826 101.496 97.8279 102.214 97.1104C102.932 96.3929 104.415 98.3547 107.42 103.996C111.45 111.564 111.721 112.584 114.065 128.963C116.844 148.372 116.952 150.227 115.3 150.227C112.706 150.227 109.922 146.986 100.191 132.636C94.6169 124.418 89.905 117.845 89.7196 118.029C89.5352 118.214 93.2177 124.383 97.9054 131.737C106.571 145.335 112.288 152.046 115.289 152.143C116.205 152.172 123.453 153.138 131.395 154.29L145.834 156.383L145.666 162.237C145.573 165.456 145.286 168.302 145.027 168.561C144.283 169.303 113.238 171.573 103.397 171.604C95.556 171.628 93.894 171.332 89.4234 169.109C81.1137 164.976 66.3584 148.627 59.6902 136.163C58.1521 133.289 56.2657 127.635 55.4962 123.599L54.0979 116.259L54.4202 122.914C54.6615 127.885 55.4468 131.065 57.5224 135.478C63.1053 147.348 79.448 165.956 88.5421 170.796C92.3588 172.829 93.8381 173.028 105.078 173.028C116.805 173.028 117.421 173.121 117.409 174.889C117.378 179.252 116.254 180.707 111.06 183.104C103.425 186.627 98.5799 187.622 89.0601 187.621C78.8779 187.62 71.4281 186.396 59.597 182.781C44.7812 178.254 44.8529 178.459 44.7989 140.405L44.7579 111.506L47.2014 106.608C51.9981 96.9913 61.1928 94.0821 70.1732 99.3393C72.5162 100.711 75.5065 103.195 76.8191 104.858C79.1797 107.85 79.2058 107.858 79.2123 105.557C79.2161 104.277 78.3683 101.835 77.3278 100.131C75.2764 96.7689 75.7608 96.9224 81.8599 101.561C84.0761 103.247 86.4153 104.626 87.0572 104.626C87.7633 104.626 88.8682 101.636 89.8538 97.0546C91.7626 88.18 92.5749 89.5564 80.1886 80.6754L71.4094 74.3806L68.8513 66.9355C67.4446 62.8407 66.2597 58.8623 66.2187 58.0945C66.1777 57.3267 64.7906 56.0703 63.1361 55.3026C59.8662 53.7847 58.8611 51.3399 60.632 49.2088C62.2436 47.2684 64.8865 47.5429 67.0636 49.877C68.8616 51.8052 69.0283 51.8239 70.7415 50.2753C71.728 49.3837 73.2642 45.9618 74.1557 42.672C75.0472 39.3822 75.9406 36.6899 76.1409 36.6899C76.3421 36.6899 78.0805 37.4921 80.0051 38.4739C81.9307 39.4548 85.1186 40.5595 87.0898 40.9289C90.9819 41.6585 90.9838 41.6353 87.3944 36.4572C85.0748 33.1107 85.7483 33.2279 91.4831 37.1682ZM243.164 36.2004C244.988 38.3948 250.029 38.9122 253.272 37.238C257.773 34.9124 261.294 35.3367 263.983 38.5288C266.994 42.1043 267.772 45.8324 266.495 50.5712C265.648 53.7121 265.072 54.3719 263.177 54.3719C261.25 54.3719 260.884 53.9262 260.884 51.58C260.884 45.7617 253.689 42.8702 249.742 47.1028C248.697 48.2223 247.842 49.8975 247.842 50.8253C247.842 51.7522 247.423 52.5107 246.911 52.5107C246.398 52.5107 245.979 51.5959 245.979 50.4763C245.979 48.199 242.592 44.135 240.693 44.135C239.908 44.135 239.458 42.9754 239.458 40.9541C239.458 35.3163 240.896 33.4708 243.164 36.2004ZM95.9947 43.0954C95.9947 43.5477 96.8332 44.1368 97.8579 44.4048C100.058 44.979 100.386 43.6585 98.2473 42.8386C96.2919 42.0885 95.9947 42.1229 95.9947 43.0954ZM81.0708 44.6226C79.2738 46.7854 80.3684 47.0162 82.9666 45.0228C84.6919 43.6985 84.8959 43.2406 83.765 43.2248C82.9312 43.2136 81.7192 43.8427 81.0708 44.6226ZM242.597 47.1884C244.507 48.5834 244.859 53.1063 243.288 56.0396C241.792 58.8315 237.28 58.8241 235.319 56.0257C233.373 53.2515 233.492 51.3781 235.8 48.4485C237.918 45.758 240.088 45.356 242.597 47.1884ZM237.655 48.2493C236.754 49.3353 236.901 49.4824 238.473 49.072C239.527 48.7965 240.389 48.2009 240.389 47.7486C240.389 46.4941 238.886 46.7687 237.655 48.2493ZM257.885 48.0902C258.857 49.2758 259.321 51.6964 259.128 54.5832C259.069 55.4673 257.973 56.8763 256.692 57.7148C254.535 59.1266 254.192 59.1266 252.034 57.7148C250.231 56.5338 249.705 55.3975 249.705 52.6754C249.705 50.7425 250.208 48.6578 250.823 48.0436C252.288 46.5807 256.67 46.6104 257.885 48.0902ZM97.2635 50.1841C96.5965 51.9188 97.4741 54.3719 98.7606 54.3719C99.2888 54.3719 99.7211 53.1156 99.7211 51.58C99.7211 48.6578 98.1849 47.7849 97.2635 50.1841ZM254.882 50.1078C256.834 51.5335 257.718 51.3772 256.73 49.7811C256.393 49.2348 255.433 48.7881 254.596 48.7881C253.324 48.7881 253.371 49.004 254.882 50.1078ZM83.8842 52.5107C83.8842 55.257 85.0785 56.2053 86.2187 54.3636C86.9677 53.1519 85.8852 49.7188 84.7534 49.7188C84.2755 49.7188 83.8842 50.9751 83.8842 52.5107ZM238.214 52.6726C237.639 54.8726 238.134 56.2332 239.513 56.2332C239.995 56.2332 240.389 54.9769 240.389 53.4413C240.389 50.2046 238.989 49.7095 238.214 52.6726ZM253.121 52.2008C252.779 52.5414 252.5 53.8331 252.5 55.0699C252.5 58.1298 254.744 57.2727 255.123 54.0676C255.404 51.7085 254.478 50.8448 253.121 52.2008ZM92.7305 54.6046C93.105 55.7558 93.4049 57.6896 93.3975 58.9004C93.3854 60.8733 93.5307 60.9543 94.8042 59.6821C96.0339 58.4537 96.0544 57.8758 94.9514 55.3863C93.4888 52.0863 91.7095 51.4591 92.7305 54.6046ZM275.789 56.1671C275.789 59.3518 273.706 61.7723 270.833 61.925C269.256 62.0087 269.167 62.1278 270.433 62.4582C271.748 62.8016 272.063 63.923 272.063 68.2607C272.063 71.2183 271.603 74.9566 271.04 76.5685C270.132 79.1724 269.618 79.4991 266.424 79.4991C264.127 79.4991 261.592 80.3385 259.398 81.8257C257.151 83.3491 254.679 84.1522 252.237 84.1522C249.027 84.1522 247.893 83.5362 244.101 79.7317C240.594 76.2149 239.479 74.3033 238.644 70.3798C237.082 63.0389 237.261 59.9557 239.25 59.9557C240.161 59.9557 241.908 59.255 243.131 58.3988C245.493 56.7469 245.209 57.8869 242.464 61.0846C240.532 63.3349 241.691 65.5451 244.786 65.5116C247.188 65.4846 247.241 65.4074 245.513 64.4433C242.805 62.9319 242.804 62.9301 244.174 61.2819C244.865 60.4508 245.448 58.6957 245.471 57.3816C245.528 54.1588 247.271 53.7754 248.601 56.6929C250.696 61.2847 257.577 61.5974 259.928 57.2085C261.123 54.9806 265.088 54.64 265.879 56.6985C266.672 58.7636 268.668 58.3979 270.957 55.7679C273.74 52.5712 275.789 52.7405 275.789 56.1671ZM81.0895 65.9016C81.0895 66.6126 81.9633 68.1835 83.0309 69.3914C84.5782 71.1438 84.8596 71.2378 84.4171 69.8568C83.9522 68.4031 84.228 68.2161 86.1284 68.6925C88.557 69.3012 91.3368 68.6051 91.3368 67.3887C91.3368 66.9792 90.5226 66.8573 89.5268 67.117C88.5309 67.3776 86.3706 66.9197 84.7254 66.0998C81.0969 64.2906 81.0895 64.2906 81.0895 65.9016ZM254.283 68.8936C253.6 69.7144 251.977 70.8116 250.675 71.3309C249.373 71.8511 248.809 72.4625 249.421 72.6905C250.033 72.9185 251.458 72.6105 252.589 72.0065C254.353 71.0629 254.563 71.1206 254.068 72.4114C253.34 74.3061 253.827 74.3182 255.694 72.4532C257.256 70.8926 257.703 67.4008 256.34 67.4008C255.891 67.4008 254.965 68.0727 254.283 68.8936ZM73.6368 79.5856C73.6368 79.003 77.0958 80.9164 81.3224 83.8368C85.5489 86.758 89.1327 89.2298 89.2846 89.3303C90.0643 89.8459 87.1336 101.834 86.2271 101.834C85.643 101.834 82.5781 99.9135 79.4164 97.5664C73.9145 93.4818 73.566 92.9793 71.3228 85.8851C70.0335 81.808 68.9789 78.2753 68.9789 78.0333C68.9789 77.7923 70.027 78.2809 71.3079 79.1194C72.7751 80.0798 73.6368 80.252 73.6368 79.5856ZM100.576 87.2866C104.586 93.7666 102.232 97.331 97.2375 92.3428C94.2844 89.3926 94.1157 88.9283 95.1582 86.6417C96.6739 83.3184 98.237 83.5045 100.576 87.2866ZM277.46 87.1768C277.991 87.8171 280.08 92.7373 282.103 98.1118L285.78 107.883L282.881 108.526C281.286 108.879 278.41 109.421 276.488 109.731C272.644 110.351 271.944 112.161 274.469 114.949C275.83 116.451 275.519 117.35 270.415 126.654C267.375 132.198 262.66 141.026 259.938 146.274C257.215 151.521 254.859 155.686 254.702 155.529C253.988 154.815 257.355 128.347 258.956 122.096C260.63 115.56 268.643 98.3453 272.937 92.0626C273.987 90.5271 274.849 88.5383 274.851 87.6421C274.859 85.739 276.083 85.5203 277.46 87.1768ZM252.46 95.2984C254.388 96.3296 255.295 94.9727 255.295 91.0557C255.295 89.8179 255.714 88.8054 256.226 88.8054C256.739 88.8054 257.158 90.4554 257.158 92.473C257.158 96.6683 257.967 97.4808 261.307 96.6432C263.214 96.1649 263.682 95.4762 263.693 93.1254C263.701 91.5173 264.114 89.5732 264.611 88.8054C265.27 87.7864 265.518 88.503 265.528 91.4642C265.539 94.7782 265.811 95.4157 267.018 94.9532C267.953 94.5949 268.352 94.8136 268.109 95.5516C266.717 99.7664 254.92 99.9591 248.732 95.868C246.727 94.5428 244.884 93.4586 244.637 93.4586C243.07 93.4586 236.95 119.574 234.169 138.129L233.403 143.248L230.796 134.022L228.189 124.797L231.029 120.233C234.469 114.705 234.512 113.931 231.539 111.141C230.259 109.938 229.211 108.449 229.211 107.831C229.211 107.213 232.577 102.902 236.691 98.2504L244.172 89.7919L246.24 91.8579L248.308 93.9239L248.586 91.5973C249.128 87.08 250.108 86.4584 250.426 90.4294C250.64 93.0891 251.305 94.6805 252.46 95.2984ZM292.482 98.1108C304.579 112.863 309.939 128.79 312.971 158.993C314.325 172.495 313.309 176.248 306.493 182.91C295.877 193.288 277.057 206.065 272.388 206.065C269.891 206.065 262.744 192.843 264.145 190.813C264.657 190.071 270.003 183.489 276.022 176.187C282.042 168.886 286.968 162.087 286.968 161.079C286.968 160.072 285.878 156.945 284.544 154.129C283.211 151.313 281.241 145.451 280.166 141.102C279.091 136.754 278.039 133.714 277.827 134.349C277.134 136.427 279.618 146.839 282.389 153.467C283.883 157.04 285.105 160.47 285.105 161.09C285.105 162.207 274.189 176.285 273.323 176.285C273.073 176.285 268.71 173.877 263.628 170.934C255.365 166.15 254.385 165.303 254.375 162.938C254.368 161.32 258.885 151.817 266.005 138.472C277.412 117.09 277.616 116.603 276.126 114.332C275.29 113.057 274.873 111.746 275.199 111.421C275.525 111.095 278.131 110.634 280.99 110.398C284.254 110.127 286.374 109.484 286.687 108.669C286.961 107.955 285.879 103.634 284.283 99.0657C282.685 94.4972 281.379 90.5029 281.379 90.1883C281.379 88.6584 289.457 94.4227 292.482 98.1108ZM235.603 96.9485C234.861 97.8447 232.7 100.358 230.801 102.535C226.721 107.211 226.587 108.241 229.676 111.141C232.679 113.959 232.614 114.877 229.053 119.923L226.101 124.107L229.531 136.635L232.961 149.165L231.53 164.819C230.208 179.276 227.268 193.331 225.313 194.539C224.357 195.129 218.446 192.33 217.02 190.613C216.172 189.592 216.394 184.102 217.993 166.524C219.133 154.001 219.89 143.234 219.678 142.597C219.465 141.96 218.561 147.081 217.668 153.976C214.914 175.251 215.589 173.192 211.17 173.797C209.044 174.088 199.656 174.621 190.31 174.982L173.316 175.638V166.695V157.752L185.659 153.933C192.448 151.833 200.308 149.381 203.126 148.486L208.25 146.859L212.982 134.816C215.586 128.193 218.869 119.743 220.279 116.04C223.212 108.339 227.906 101.545 232.814 97.9014C236.793 94.9467 237.446 94.7233 235.603 96.9485ZM92.8637 100.619C91.8147 101.667 92.2256 102.765 93.6658 102.765C94.4343 102.765 95.0632 102.371 95.0632 101.889C95.0632 100.716 93.608 99.8753 92.8637 100.619ZM94.3104 108.419C94.494 108.969 95.0417 109.419 95.5289 109.419C96.0162 109.419 96.5639 108.969 96.7475 108.419C96.931 107.869 96.3832 107.418 95.5289 107.418C94.6747 107.418 94.1269 107.869 94.3104 108.419ZM167.851 157.819L171.453 158.898V165.73C171.453 171.05 171.156 172.563 170.114 172.563C169.114 172.563 168.904 171.769 169.283 169.433C169.878 165.77 168.579 162.927 165.341 160.807C163.195 159.402 162.894 159.402 161.341 160.807C158.018 163.811 155.771 161.373 158.942 158.204C160.685 156.463 162.987 156.364 167.851 157.819ZM155.616 160.958C155.616 163.9 157.942 164.899 160.149 162.903C162.234 161.019 164.356 160.977 165.863 162.791C166.791 163.908 166.785 164.187 165.832 164.187C164.996 164.187 165.099 164.691 166.185 165.889C168.017 167.912 168.411 170.827 166.608 169.026C164.798 167.218 163.567 167.749 165.253 169.611C167.176 171.733 167.259 173.612 165.397 172.899C164.629 172.604 164 171.77 164 171.044C164 170.318 162.847 169.316 161.438 168.817C160.03 168.317 158.137 167.482 157.232 166.962C156.046 166.279 154.826 166.408 152.854 167.427C148.131 169.867 147.232 169.373 147.232 164.342C147.232 161.868 147.511 159.564 147.853 159.224C148.194 158.882 150.08 158.603 152.045 158.603C155.245 158.603 155.616 158.848 155.616 160.958ZM258.153 169.657L272.124 177.918L266.969 184.2C264.135 187.655 261.816 191.011 261.816 191.659C261.816 193.027 259.762 193.967 256.771 193.967C253.986 193.967 253.306 194.786 254.399 196.825C254.894 197.75 254.939 198.73 254.498 199.002C252.839 200.026 231.146 185.359 231.097 183.178C231.062 181.689 234.338 172.443 236.204 168.759C238.249 164.721 241.28 161.395 242.914 161.395C243.611 161.395 250.468 165.113 258.153 169.657ZM155.616 168.807C155.616 169.838 151.948 172 151.3 171.353C150.738 170.792 153.628 167.909 154.75 167.909C155.226 167.909 155.616 168.313 155.616 168.807ZM157.253 171.35C155.871 172.73 154.459 173.579 154.115 173.234C153.432 172.553 157.378 168.921 158.855 168.871C159.356 168.854 158.635 169.97 157.253 171.35ZM149.529 171.531C150.511 174.622 158.713 176.212 161.355 173.823C162.934 172.395 163.199 172.392 164.733 173.779C165.785 174.73 167.2 175.074 168.577 174.714C170.108 174.315 171.031 174.634 171.677 175.789C172.522 177.296 173.882 177.382 188.095 176.829C196.618 176.496 206.184 175.983 209.35 175.688L215.108 175.152L214.572 182.243C214.122 188.191 214.298 189.625 215.666 191.135C217.196 192.823 217.224 194.285 216.112 214.378L214.925 235.82L200.875 235.339C193.146 235.076 184.826 234.682 182.385 234.465C177.354 234.016 137.097 235.575 132.733 236.387L129.881 236.918L128.224 227.459C126.594 218.157 126.597 217.966 128.398 215.988C131.331 212.766 132.416 210.003 131.764 207.408C131.417 206.027 131.677 204.02 132.372 202.723C133.429 200.749 133.325 199.99 131.559 196.852C130.444 194.87 129.532 192.447 129.532 191.467C129.532 190.488 128.334 185.874 126.873 181.215L124.213 172.741L126.989 172.187C128.515 171.881 131.913 171.608 134.539 171.578C137.165 171.549 140.99 171.178 143.039 170.754C148.644 169.597 148.924 169.63 149.529 171.531ZM162.137 170.648C162.137 171.714 158.235 174.559 157.619 173.943C157.062 173.387 160.296 169.771 161.35 169.771C161.783 169.771 162.137 170.165 162.137 170.648ZM125.307 181.538L128.007 190.513L125.87 192.24C123.209 194.393 122.182 194.416 121.432 192.339C121.109 191.442 120.096 189.628 119.181 188.308C117.753 186.245 117.64 185.063 118.382 179.932C118.858 176.646 119.255 173.644 119.266 173.26C119.276 172.877 120.032 172.563 120.946 172.563C122.239 172.563 123.206 174.553 125.307 181.538ZM56.2526 183.678C62.6992 185.894 76.794 188.914 84.3882 189.706C92.3541 190.537 102.86 188.823 109.874 185.55C113.153 184.02 115.934 182.88 116.054 183.016C116.175 183.153 115.931 184.167 115.512 185.269C115.065 186.449 112.309 188.475 108.819 190.192C101.469 193.807 93.649 194.76 79.3828 193.779C61.2068 192.529 49.4158 188.751 49.4158 184.177C49.4158 181.4 49.5863 181.388 56.2526 183.678ZM236.05 189.619C238.773 191.835 243.407 195.022 246.348 196.704L251.696 199.76L249.537 202.11C248.044 203.732 247.737 204.587 248.541 204.875C249.182 205.103 249.705 205.694 249.705 206.187C249.705 207.34 254.507 211.581 255.855 211.619C256.419 211.636 258.512 210.467 260.506 209.024L264.13 206.398L273.919 210.996C285.164 216.278 292.829 219.094 295.965 219.094C297.165 219.094 298.147 219.359 298.147 219.684C298.147 220.009 296.295 224.18 294.032 228.954C289.477 238.56 287.661 239.879 282.06 237.651C273.463 234.231 227.863 211.444 226.791 210.035C224.292 206.745 225.285 198.682 229.657 186.755C230.282 185.052 230.626 185.205 236.05 189.619ZM129.899 196.903C131.466 200.294 131.502 200.813 130.228 201.525C129.105 202.153 128.96 203.065 129.558 205.716C130.396 209.431 129.609 212.446 127.3 214.361C126.478 215.042 125.792 215.443 125.777 215.253C125.761 215.063 124.95 210.928 123.975 206.065L122.2 197.224L124.701 195.135C126.077 193.986 127.412 193.054 127.668 193.065C127.925 193.076 128.928 194.803 129.899 196.903ZM264.185 198.71L265.945 202.611L261.898 206.199C259.671 208.173 256.992 209.788 255.944 209.788C254.113 209.788 254.127 209.691 256.297 207.335C258.436 205.012 258.448 204.938 256.521 205.939C253.956 207.271 251.262 207.313 252.07 206.008C252.406 205.464 253.746 204.615 255.049 204.12C258.475 202.819 257.091 202.139 253.535 203.377C251.889 203.95 250.358 204.237 250.135 204.013C249.539 203.417 255.427 199.241 256.864 199.241C258.616 199.241 258.378 197.742 256.513 197.027C255.3 196.562 255.676 196.169 258.144 195.317C259.907 194.71 261.591 194.346 261.887 194.51C262.182 194.673 263.216 196.564 264.185 198.71ZM300.911 195.813C306.043 198.428 306.298 200.298 302.766 209.423L299.744 217.233H296.221C294.112 217.233 288.561 215.482 282.393 212.873L272.089 208.513L279.296 204.897C283.26 202.91 288.599 199.661 291.161 197.678C293.722 195.697 296.149 194.051 296.554 194.021C296.959 193.991 298.92 194.797 300.911 195.813ZM222.684 195.826C224.153 196.611 224.34 197.511 223.907 201.703C222.94 211.066 222.813 210.964 254.906 226.652C270.485 234.268 284.282 240.499 285.565 240.499C287.668 240.499 287.9 240.869 287.9 244.221C287.9 246.269 287.773 247.944 287.618 247.944C287.462 247.944 281.908 246.719 275.274 245.221C268.641 243.723 258.935 241.77 253.707 240.879L244.202 239.259L242.595 232.454C240.863 225.111 239.929 222.966 238.909 223.985C238.552 224.342 238.888 227.785 239.654 231.635C241.285 239.819 242.706 239.155 227.347 237.39L217.566 236.265V233.497C217.566 222.329 219.341 194.898 220.063 194.898C220.551 194.898 221.73 195.316 222.684 195.826ZM268.958 206.685C268.232 207.41 265.574 205.837 266.096 204.992C266.421 204.468 267.18 204.561 267.976 205.222C268.712 205.832 269.154 206.49 268.958 206.685ZM56.8489 206.763C56.8386 207.66 56.0347 213.208 55.064 219.094C54.0923 224.98 52.7862 234.904 52.1611 241.146C51.3712 249.039 50.638 252.644 49.7549 252.982C49.0562 253.25 48.4889 252.959 48.4945 252.336C48.5243 248.877 51.4373 224.342 52.6903 216.99C54.4566 206.627 54.873 205.135 55.9993 205.135C56.4772 205.135 56.86 205.867 56.8489 206.763ZM76.126 214.208C75.8111 218.688 75.2718 227.494 74.928 233.78C74.3765 243.839 73.5893 247.277 72.1649 245.853C71.6842 245.373 73.5223 208.977 74.1157 207.229C74.3327 206.589 75.0025 206.065 75.6043 206.065C76.4027 206.065 76.5443 208.267 76.126 214.208ZM95.0687 226.096C97.2943 235.748 97.8989 239.9 97.1825 240.615C95.9677 241.829 96.0264 242.006 92.3113 225.774C89.0004 211.31 89.1551 212.58 90.7127 212.58C91.5427 212.58 92.9783 217.033 95.0687 226.096ZM113.929 225.584C116.375 235.329 116.675 240.209 114.699 238.095C113.957 237.301 109.037 217.475 109.037 215.277C109.037 214.731 109.542 214.454 110.159 214.66C110.777 214.865 112.473 219.781 113.929 225.584ZM162.854 240.263L150.064 240.551L143.456 260.996L136.848 281.441L133.211 276.846L129.575 272.25L131.901 266.379C133.514 262.307 134.053 261.506 133.659 263.765C132.373 271.146 132.439 271.431 134.216 266.165C136.071 260.664 135.999 252.319 134.086 251.137C132.197 249.971 129.809 252.92 127.301 259.519C125.819 263.42 124.278 266.814 123.879 267.061C123.479 267.308 119.315 265.031 114.626 262.002L106.101 256.495L99.8831 260.019C82.4142 269.922 56.2433 285.436 55.0779 286.581C53.9367 287.702 54.2581 288.346 57.4069 291.239C61.9017 295.368 89.7951 316.635 91.6471 317.345C93.0789 317.894 112.354 308.506 123.942 301.615C127.785 299.331 131.02 297.544 131.132 297.645C131.244 297.746 130.513 300.529 129.509 303.83C128.505 307.13 127.68 310.145 127.676 310.529C127.671 310.913 129.764 311.227 132.326 311.227H136.984V315.017V318.807L153.52 318.224C175.877 317.435 205.037 315.994 212.473 315.309L218.56 314.749L224.366 319.596C227.561 322.262 230.72 324.234 231.388 323.978C232.277 323.637 252.343 307.209 263.58 297.623C263.942 297.315 255.967 288.634 235.914 267.505C224.452 255.427 225.438 255.699 216.859 262.244C214.421 264.104 212.274 265.626 212.089 265.626C211.905 265.626 210.799 260.705 209.632 254.691C208.466 248.677 207.348 243.567 207.149 243.335C206.95 243.104 205.334 243.012 203.559 243.132C200.864 243.313 200.332 243.037 200.332 241.458C200.332 239.39 200.923 239.409 162.854 240.263ZM199.713 263.532C200.049 275.689 200.597 290.514 200.931 296.477L201.538 307.32L194.647 307.851C182.195 308.809 129.315 309.539 129.777 308.746C130.025 308.319 134.082 295.825 138.793 280.981C143.503 266.138 148.193 251.401 149.214 248.234C150.355 244.697 151.679 242.314 152.645 242.06C153.51 241.832 164.318 241.597 176.66 241.537L199.103 241.429L199.713 263.532ZM156.314 244.888C154.906 245.101 153.753 245.712 153.753 246.245C153.753 246.844 154.734 246.961 156.314 246.551C159.373 245.758 180.51 245.825 186.125 246.646C188.445 246.985 190.084 246.853 190.084 246.327C190.084 244.754 164.431 243.659 156.314 244.888ZM206.792 249.107C207.344 251.794 210.449 267.245 213.691 283.443L219.587 312.894L212.055 313.479C201.25 314.32 150.623 316.811 144.353 316.811C139.324 316.811 139.04 316.685 138.573 314.252C138.301 312.844 138.223 311.547 138.398 311.369C138.573 311.193 153.091 310.647 170.66 310.158C188.229 309.668 202.747 309.124 202.924 308.947C203.23 308.643 201.703 266.241 200.873 251.954C200.508 245.681 200.61 245.237 202.504 244.868C203.614 244.652 204.809 244.418 205.156 244.348C205.505 244.278 206.241 246.42 206.792 249.107ZM155.849 251.814C154.184 252.274 152.821 252.743 152.82 252.857C152.817 253.517 192.563 252.325 193.259 251.644C194.37 250.553 159.846 250.712 155.849 251.814ZM134.189 254.07C134.189 255.714 132.184 255.428 131.608 253.703C131.405 253.094 131.903 252.597 132.715 252.597C133.525 252.597 134.189 253.26 134.189 254.07ZM132.984 257.603C132.774 258.177 129.968 266.289 126.747 275.63C123.526 284.972 120.424 292.608 119.854 292.6C116.205 292.55 116.449 291.022 122.607 275.324C126.005 266.664 129.149 258.642 129.594 257.501C130.133 256.118 130.898 255.614 131.884 255.992C132.699 256.305 133.194 257.03 132.984 257.603ZM114.402 263.407C118.881 266.282 122.724 268.798 122.942 269C123.16 269.201 120.911 275.455 117.944 282.899C112.598 296.312 112.432 297.216 114.202 303.375C114.679 305.041 113.407 305.992 104.555 310.588C98.946 313.499 93.8372 315.88 93.2009 315.88C91.0229 315.88 55.1962 288.388 56.1437 287.445C56.5331 287.058 105.739 258.189 106.018 258.185C106.151 258.183 109.924 260.533 114.402 263.407ZM163.534 260.042C150.587 260.544 151.169 260.589 171.453 260.668C183.493 260.714 192.087 260.433 190.55 260.042C187.447 259.253 183.9 259.253 163.534 260.042ZM236.379 270.512C242.461 276.782 250.684 285.304 254.652 289.45L261.866 296.987L246.364 309.717C236.398 317.9 230.483 322.167 229.803 321.662C223.667 317.117 220.884 314.679 221.217 314.141C221.437 313.786 221.029 310.701 220.313 307.287L219.01 301.078L224.343 296.091C240.443 281.039 242.268 278.346 227.181 291.901C222.734 295.898 218.898 298.844 218.655 298.449C218.412 298.056 217.923 295.795 217.568 293.427L216.923 289.12L224.697 281.449C232.202 274.043 231.638 274.37 219.424 284.511L216.294 287.111L215.403 283.115L214.51 279.12L220.211 273.769C226.713 267.664 226.424 266.55 219.788 272.14C217.357 274.188 214.973 275.863 214.49 275.863C213.493 275.863 212.137 268.732 212.9 267.499C213.363 266.753 224.423 259.112 225.043 259.112C225.194 259.112 230.296 264.241 236.379 270.512ZM102.516 267.283C102.516 268.451 116.379 280.006 117.016 279.37C117.371 279.015 113.868 275.823 104.146 267.64C103.187 266.833 102.516 266.686 102.516 267.283ZM158.876 268.462C173.505 269.51 189.348 269.487 188.687 268.418C188.328 267.838 180.851 267.545 168.836 267.641C152.149 267.774 150.812 267.884 158.876 268.462ZM95.9947 273.429C95.9947 274.179 113.691 288.277 114.102 287.854C114.509 287.435 98.4634 273.738 96.9915 273.248C96.4428 273.065 95.9947 273.147 95.9947 273.429ZM147.23 275.045C147.232 275.724 157.8 276.515 178.207 277.364C188.882 277.808 192.879 277.686 192.879 276.918C192.879 276.246 190.595 275.825 186.591 275.757C183.132 275.699 172.861 275.385 163.765 275.059C154.67 274.733 147.229 274.727 147.23 275.045ZM134.362 280.761C136.19 283.323 136.19 283.353 134.261 289.137C132.22 295.255 132.59 294.904 120.805 301.923C117.435 303.93 117.265 303.949 118.192 302.22C118.736 301.203 119.834 299.831 120.63 299.171C121.427 298.511 122.079 297.006 122.079 295.828C122.079 294.649 123.601 289.45 125.462 284.275C128.785 275.031 128.878 274.895 130.687 276.527C131.699 277.441 133.353 279.346 134.362 280.761ZM86.6789 280.301C86.6789 281.272 107.271 297.456 109.302 298.082C110.921 298.581 109.913 297.698 98.7895 288.883C85.7809 278.575 86.6789 279.211 86.6789 280.301ZM71.1346 282.331C65.4073 285.82 64.5353 291.063 69.0507 294.858C72.9233 298.113 78.0917 298.147 81.3047 294.938L83.6364 292.608L90.7872 298.311C94.7194 301.447 98.0964 303.855 98.2902 303.661C98.4839 303.467 95.3212 300.589 91.2632 297.266C84.8754 292.035 83.8842 290.827 83.8842 288.279C83.8842 286.133 83.1063 284.681 81.0177 282.926C77.597 280.05 75.1236 279.901 71.1346 282.331ZM79.7853 283.089C81.6792 284.353 83.0616 288.013 82.4281 290.09C81.3009 293.79 79.1369 295.406 75.3137 295.406C70.7257 295.406 66.6742 291.854 67.5993 288.643C68.9575 283.929 76.1381 280.657 79.7853 283.089ZM149.19 283.188C147.961 283.531 156.136 283.854 167.356 283.905C183.218 283.976 185.787 283.84 178.905 283.291C167.885 282.413 152.157 282.358 149.19 283.188ZM70.9073 288.139C71.0666 293.364 71.8948 293.716 76.6943 290.597C81.6922 287.349 82.0294 285.723 77.0697 288.786C73.1478 291.206 72.7053 291.223 72.7053 288.947C72.7053 287.953 72.286 286.882 71.7737 286.565C71.2501 286.242 70.871 286.931 70.9073 288.139ZM150.357 290.954C147.048 294.625 146.831 296.033 150.102 292.614C152.584 290.019 153.284 289.675 153.541 290.923C153.719 291.784 153.18 293.813 152.343 295.43C150.386 299.21 151.289 300.143 153.808 296.945C156.598 293.401 158.615 293.613 157.322 297.315C155.974 301.178 156.71 301.516 160.156 298.619L163.068 296.171V298.695C163.068 300.857 163.272 301.049 164.497 300.033C165.653 299.075 166.349 299.075 168.135 300.029C170.835 301.472 172.029 300.816 173.696 296.972C175.366 293.121 177.667 290.137 178.402 290.87C178.722 291.19 178.022 293.806 176.848 296.685L174.713 301.918L158.178 301.92C147.776 301.92 141.642 302.266 141.642 302.851C141.642 303.451 150.521 303.756 166.562 303.708C180.268 303.668 191.062 303.49 190.55 303.313C190.038 303.136 186.756 302.714 183.257 302.374C176.742 301.742 175.661 300.8 181.023 300.427C184.479 300.187 191.016 298.034 191.016 297.138C191.016 296.805 189.444 296.937 187.522 297.43C179.924 299.382 180.023 299.38 179.634 297.592C179.428 296.646 179.595 294.632 180.005 293.117C180.426 291.564 180.375 289.988 179.891 289.504C178.358 287.973 176.207 289.648 173.569 294.425C171.2 298.715 168.658 300.612 168.658 298.089C168.658 297.509 167.836 297.265 166.795 297.537C165.413 297.898 164.932 297.565 164.932 296.249C164.932 294.066 163.31 293.969 161.046 296.016C159.434 297.472 159.342 297.416 159.342 294.985C159.342 292.757 159.051 292.485 157.174 292.956C155.387 293.404 155.02 293.142 155.078 291.458C155.177 288.648 152.677 288.382 150.357 290.954ZM236.545 296.126C226.355 303.819 221.127 308.345 222.375 308.393C223.405 308.433 244.116 292.018 244.116 291.162C244.116 290.444 243.776 290.667 236.545 296.126ZM121.147 295.819C121.147 296.457 120.205 297.777 119.051 298.752L116.955 300.525L118.609 298.564C120.059 296.845 120.093 296.463 118.883 295.459C116.96 293.865 115.299 295.178 115.952 297.778C116.251 298.97 116.121 300.178 115.66 300.461C114.368 301.259 113.531 296.52 114.61 294.507C115.43 292.975 115.973 292.856 118.358 293.686C119.893 294.221 121.147 295.18 121.147 295.819ZM239.163 304.217C233.771 308.551 229.09 312.53 228.763 313.059C227.238 315.524 230.403 313.392 238.526 306.481C248.73 297.801 250.319 296.337 249.537 296.337C249.225 296.337 244.556 299.883 239.163 304.217Z" fill="black"/>
</g>
</svg>
