<svg width="209" height="218" viewBox="0 0 209 218" fill="none" xmlns="http://www.w3.org/2000/svg">
<path fill-rule="evenodd" clip-rule="evenodd" d="M109.103 77.2258C107.945 78.3769 107.755 78.8592 108.009 80.0084C108.312 81.3784 108.289 81.3988 106.383 81.3988C102.906 81.3988 101.189 82.9052 101.33 85.8326C101.399 87.2541 101.16 87.9757 100.355 88.7757C99.5267 89.5989 99.3266 90.2352 99.46 91.6224C99.6144 93.2354 99.5589 93.3439 98.8847 92.7373C97.9306 91.8793 96.879 91.8877 95.1696 92.7661C92.4184 94.1806 91.9616 97.6079 94.2244 99.8572L95.6026 101.227L93.2022 101.457C91.3444 101.634 90.5582 101.967 89.7245 102.931C89.132 103.616 88.6473 104.342 88.6473 104.545C88.6473 105.438 90.9282 108.164 92.5541 109.215L94.3322 110.364L92.9101 110.73C91.2203 111.166 90.0553 112.637 90.3912 113.912C90.7626 115.323 93.2073 116.31 96.9285 116.55C99.6881 116.728 100.311 116.91 100.311 117.542C100.311 118.786 101.302 119.429 103.219 119.429C105.179 119.429 107.971 118.425 109.275 117.252C109.733 116.84 110.109 116.714 110.109 116.973C110.109 117.878 114.047 121.881 115.555 122.507C116.392 122.855 117.755 123.139 118.585 123.139C120.993 123.139 119.674 123.811 113.141 125.913C101.721 129.588 96.6593 131.954 84.0424 139.511C79.3289 142.335 73.7825 145.322 71.7171 146.15L67.9623 147.655L64.6582 144.305C62.841 142.463 59.1497 139.411 56.4553 137.523C44.2635 128.979 40.5334 126.201 39.0148 124.529C37.5036 122.867 37.3851 122.517 37.3851 119.708C37.3851 116.085 36.2071 113.098 33.9817 111.077C33.1409 110.314 32.6151 109.689 32.8125 109.689C33.0098 109.689 41.822 111.04 52.395 112.691C73.6066 116.004 84.1469 117.574 85.1738 117.574C86.0546 117.574 86.14 113.006 85.2648 112.708C84.7558 112.535 33.6999 105.515 32.9483 105.515C32.7906 105.515 32.6613 104.929 32.6613 104.213C32.6613 101.519 32.2965 101.387 20.9827 99.9848C14.2877 99.1555 10.2054 98.8365 9.68378 99.1027C9.2219 99.3378 8.86732 100.044 8.86732 100.728C8.86732 101.925 8.84026 101.934 6.18466 101.644C4.70896 101.482 2.71447 101.217 1.75244 101.053L0.00288053 100.756V102.663C0.00288053 104.798 -0.302243 104.636 5.3682 105.518C8.57432 106.016 8.63591 106.052 8.73902 107.481C8.7964 108.282 9.11132 109.189 9.43884 109.498C9.76589 109.807 13.8538 110.69 18.523 111.461C26.3825 112.758 30.4186 113.811 27.6735 113.849C26.0093 113.872 25.93 114.774 27.4551 116.338C28.8478 117.767 28.8832 117.913 28.7908 121.821C28.7073 125.336 28.8188 125.972 29.6829 126.923C30.2259 127.52 31.6088 129.991 32.756 132.415C33.9033 134.838 35.728 138.252 36.8104 140.002C37.8932 141.752 38.6887 143.274 38.5776 143.384C38.4666 143.495 36.3163 143.236 33.7988 142.809C29.2289 142.035 29.221 142.035 28.4125 143.028C27.9674 143.574 27.5326 144.232 27.4462 144.489C27.3506 144.773 22.0599 143.991 13.914 142.489L0.538013 140.022L0.238021 141.612C0.0728628 142.486 0.10972 143.369 0.320134 143.574C0.611261 143.855 26.2225 149.111 27.3072 149.111C27.4294 149.111 27.5293 149.737 27.5293 150.502C27.5293 152.99 28.5053 153.422 38.9849 155.571L48.7573 157.575L52.1934 160.813C54.389 162.882 56.7469 164.577 58.7251 165.508C61.8197 166.966 61.823 166.966 69.752 166.962C75.6133 166.96 78.7032 166.741 81.5907 166.125C84.8514 165.429 91.2189 163.616 93.6295 162.696C94.1091 162.513 94.2458 163.3 94.2458 166.25C94.2458 168.495 94.6629 171.843 95.2695 174.468L96.2931 178.898L93.8833 188.236C92.5579 193.373 91.2198 198.44 90.91 199.497C90.367 201.352 90.3954 201.462 91.7134 202.607C93.2703 203.961 100.046 207.547 101.047 207.547C101.923 207.547 101.92 207.57 100.378 213.031C99.5374 216.008 99.237 217.75 99.564 217.75C99.8496 217.75 100.889 214.834 101.874 211.269L103.666 204.789L105.371 205.528C110.695 207.839 114.107 208.609 120.277 208.895C126.187 209.169 132.083 208.931 136.735 208.229L138.868 207.907L139.944 211.553C140.535 213.558 141.229 215.46 141.484 215.779C142.053 216.489 145.807 216.532 149.563 215.871C158.428 214.31 166.795 209.791 171.287 204.137C172.408 202.725 173.46 201.558 173.625 201.544C174.006 201.511 175.619 207.503 176.645 212.764C177.081 214.996 177.614 216.822 177.831 216.822C178.047 216.822 178.223 216.457 178.221 216.011C178.214 214.843 176.022 205.393 175.154 202.795C174.577 201.067 174.528 200.265 174.927 199.062C175.36 197.759 175.26 197.098 174.258 194.648C173.61 193.062 172.543 189.653 171.886 187.071L170.692 182.376L171.635 178.845C174.282 168.928 175.096 163.144 175.134 153.98C175.163 146.955 175.004 144.557 174.353 142.154C173.177 137.818 171.488 134.629 168.846 131.755C162.966 125.36 154.338 122.062 140.129 120.779C134.393 120.261 133.959 120.154 133.491 119.131C132.891 117.823 132.878 117.826 134.88 118.847C136.574 119.71 142.764 119.986 145.203 119.307C147.024 118.801 147.697 117.349 146.767 115.937C146.044 114.841 146.06 114.82 148.017 114.307C150.871 113.559 152.098 112.648 152.098 111.276C152.098 110.3 151.654 109.9 149.467 108.905L146.837 107.707L149.775 106.263C156.436 102.99 155.672 99.4862 148.296 99.4862C145.375 99.4862 144.962 99.0637 146.371 97.5161C147.138 96.6739 147.121 96.5913 146.021 95.7509C145.386 95.2658 144.499 94.8642 144.05 94.8586C143.052 94.8461 143.038 94.6485 143.944 93.2739C144.59 92.2935 144.578 92.101 143.809 91.1572C143.232 90.4481 142.276 90.0418 140.798 89.8763L138.632 89.6332L140.01 88.4807C142.278 86.5834 142.517 85.7463 141.173 84.4102C139.942 83.1867 137.805 82.8829 136.25 83.7099C135.472 84.1235 135.415 84.0016 135.632 82.3941C136.09 79.0048 133.581 76.2973 129.982 76.2973C127.592 76.2973 126.052 77.1696 125.432 78.8731L124.885 80.3762L123.39 78.8003C122.568 77.934 121.48 77.2248 120.973 77.2248C119.982 77.2248 118.506 78.5693 118.506 79.4723C118.506 79.7756 117.598 79.0809 116.487 77.9288C114.713 76.0881 114.227 75.8335 112.485 75.8335C110.905 75.8335 110.22 76.1155 109.103 77.2258ZM122.521 99.3002C123.001 99.1166 123.172 99.4742 123.172 100.66C123.172 102.141 123.284 102.269 124.582 102.269C125.935 102.269 125.965 102.311 125.312 103.312C124.939 103.886 124.566 104.981 124.485 105.744C124.372 106.817 124.577 107.236 125.388 107.593C126.019 107.87 126.438 108.462 126.438 109.077C126.438 110.412 128.23 111.719 129.089 111.011C129.834 110.396 129.876 108.927 129.203 107.009C128.25 104.291 130.413 102.549 132.244 104.559C133.744 106.207 133.103 110.017 131.15 111.056C130.401 111.454 130.339 111.802 130.689 113.663C131.232 116.554 133.411 121.284 134.2 121.284C135.097 121.284 135.057 121.416 132.908 125.52C129.77 131.517 125.827 135.197 122.54 135.197C118.512 135.197 117.03 131.369 119.068 126.224L119.591 124.903L120.149 125.939C120.909 127.351 121.298 126.52 120.98 124.162C120.719 122.229 120.699 122.211 118.795 122.209C116.464 122.206 113.878 120.751 112.211 118.505C110.714 116.488 109.175 111.643 109.175 108.945C109.175 106.959 109.867 106.205 110.406 107.602C110.703 108.371 111.772 108.536 112.182 107.876C112.668 107.095 111.905 106.034 110.754 105.89C109.317 105.71 109.208 104.975 110.519 104.309C112.213 103.449 112.285 103.049 110.692 103.35C109.248 103.623 109.175 103.569 109.175 102.215C109.175 101.432 109.595 100.261 110.109 99.6128L111.042 98.4334V99.6281C111.042 101.729 112.734 101.775 113.848 99.7042C114.392 98.6941 114.51 98.657 115.013 99.3406C115.668 100.231 117.107 99.8628 117.107 98.8049C117.107 98.4144 117.317 98.0949 117.573 98.0949C117.83 98.0949 118.04 98.3036 118.04 98.5587C118.04 99.3077 119.909 99.0897 120.212 98.3059C120.443 97.7067 120.602 97.7498 121.179 98.5689C121.559 99.1078 122.162 99.4366 122.521 99.3002ZM6.06802 102.632C8.29719 102.929 8.65457 103.119 8.79174 104.079C8.93777 105.1 8.83279 105.161 7.41682 104.879C6.57376 104.712 4.77055 104.444 3.41009 104.285C1.21078 104.028 0.935979 103.876 0.935979 102.912C0.935979 101.983 1.11887 101.861 2.21899 102.059C2.92441 102.186 4.65671 102.444 6.06802 102.632ZM117.107 102.69C117.107 103.089 122.227 103.657 122.692 103.31C122.813 103.22 122.603 102.952 122.225 102.715C121.34 102.158 117.107 102.138 117.107 102.69ZM119.912 106.52C121.066 107.667 121.475 107.849 121.783 107.352C122.402 106.357 121.566 105.392 119.929 105.214L118.435 105.052L119.912 106.52ZM58.601 109.921C72.5158 111.834 84.1292 113.4 84.4082 113.4C84.6867 113.4 84.9149 114.13 84.9149 115.023C84.9149 115.916 84.8062 116.646 84.6732 116.646C84.3363 116.646 36.041 109.268 34.1776 108.932C32.9669 108.714 32.6613 108.435 32.6613 107.551C32.6613 106.941 32.805 106.443 32.9809 106.443C33.1568 106.443 44.6857 108.008 58.601 109.921ZM113.783 109.11C112.28 112.566 112.149 114.139 113.311 114.757C114.346 115.308 116.64 114.976 116.64 114.275C116.64 114.047 115.958 113.913 115.124 113.977C113.777 114.082 113.612 113.966 113.649 112.936C113.671 112.298 114.14 110.681 114.691 109.342C115.94 106.307 115.095 106.092 113.783 109.11ZM35.3062 114.599C36.0877 116.297 36.438 117.825 36.3867 119.314C36.3452 120.525 36.3293 121.88 36.3522 122.326C36.4525 124.283 40.6281 127.716 54.5793 137.311C57.5251 139.337 61.6746 142.73 63.8002 144.852L67.6656 148.708L70.2265 147.756C73.8362 146.414 77.7347 144.403 83.3337 140.995C87.7767 138.291 88.2964 138.087 89.7282 138.479C92.1492 139.144 96.2175 142.214 97.3787 144.252C98.7555 146.668 98.7145 148.606 97.207 152.321C96.5259 153.999 95.6254 156.728 95.2051 158.386L94.4418 161.401L90.0282 162.876C82.3297 165.449 78.5474 166.038 69.752 166.038C61.949 166.038 61.7763 166.017 59.0718 164.697C55.4467 162.927 49.9134 157.773 50.7401 156.936C51.0611 156.611 51.3233 155.866 51.3233 155.279C51.3233 154.572 51.599 154.212 52.1398 154.212C52.5891 154.212 59.9227 155.596 68.4368 157.288C76.9513 158.981 84.2584 160.235 84.675 160.076C85.2568 159.854 85.3996 159.279 85.2904 157.605L85.1481 155.422L68.469 152.418C52.0329 149.457 51.7899 149.397 51.7899 148.304C51.7899 145.936 51.1847 145.578 45.6879 144.699L40.4807 143.866L38.4046 140.676C37.2629 138.921 35.2409 135.244 33.9117 132.504C32.582 129.764 31.0144 126.915 30.4275 126.173C29.444 124.93 29.3848 124.53 29.6689 121.046C29.9703 117.357 29.9488 117.245 28.7535 116.31C28.0803 115.784 27.5293 115.226 27.5293 115.072C27.5293 114.423 28.5356 114.883 30.0953 116.244C31.7278 117.669 31.7544 117.749 31.4632 120.309C31.2052 122.575 31.2999 123.071 32.1827 124.073L33.1988 125.226L32.8484 124.067C32.6557 123.429 32.5349 121.72 32.5792 120.27C32.624 118.819 32.4491 117.079 32.1906 116.403C31.4194 114.387 32.7392 115.231 33.9052 117.5C34.4608 118.581 35.0412 119.265 35.1947 119.018C35.5068 118.516 33.9289 114.263 32.8759 112.769C31.9181 111.41 32.0292 110.96 33.1722 111.568C33.7097 111.854 34.6698 113.218 35.3062 114.599ZM122.239 113.598C122.239 114.463 120.024 116.182 118.91 116.182C118.431 116.182 118.04 116.391 118.04 116.646C118.04 117.548 120.32 117.094 121.736 115.909C123.103 114.766 123.699 112.936 122.705 112.936C122.449 112.936 122.239 113.234 122.239 113.598ZM31.4749 113.831C31.9424 114.583 30.9267 114.812 30.3244 114.09C29.8555 113.529 29.884 113.4 30.4774 113.4C30.8782 113.4 31.3275 113.594 31.4749 113.831ZM138.418 121.646C138.807 121.892 138.504 122.727 137.38 124.498C129.493 136.932 127.91 162.589 133.645 185.015L134.822 189.615L131.953 192.204C130.375 193.628 127.612 195.966 125.813 197.399L122.543 200.005L120.014 197.958C118.056 196.372 117.344 196.028 116.858 196.429C116.512 196.714 116.341 197.236 116.477 197.589C116.677 198.107 116.427 198.145 115.177 197.789C113.158 197.214 111.82 197.633 112.114 198.75C112.244 199.244 112.043 199.715 111.637 199.87C110.688 200.232 111.729 201.518 112.972 201.518C113.457 201.518 114.639 202.242 115.597 203.128L117.34 204.739L114.891 204.752C113.544 204.758 112.441 204.952 112.441 205.182C112.441 205.412 113.124 206.035 113.958 206.566C116.071 207.911 114.648 207.839 110.272 206.379C107.386 205.416 103.365 203.683 102.728 203.129C102.646 203.057 102.942 201.317 103.387 199.261L104.195 195.523L102.24 191.339C99.9713 186.487 96.8142 177.344 95.8582 172.858C94.9923 168.797 95.0124 162.625 95.904 158.866C97.3171 152.904 101.653 145.08 108.587 135.979C111.847 131.7 117.473 125.668 117.853 126.045C117.942 126.134 117.791 127.009 117.519 127.991C116.337 132.245 118.502 136.125 122.056 136.125C124.133 136.125 126.78 135.017 128.484 133.433C130.291 131.755 134.102 125.952 135.095 123.369C135.895 121.284 136.967 120.729 138.418 121.646ZM154.197 124.144C164.286 127.032 171.268 133.688 173.381 142.434C174.213 145.878 174.509 158.536 173.854 162.662L173.506 164.851L172.061 163.215C169.769 160.621 167.385 159.64 162.829 159.418C158.068 159.186 154.803 160.2 151.634 162.898L149.611 164.619L149.917 157.24C150.158 151.435 150.102 149.982 149.654 150.427C148.983 151.094 148.831 164.67 149.454 168.31L149.843 170.582L147.945 169.194C142.288 165.059 139.699 158.615 139.782 148.879C139.855 140.183 141.865 133.17 146.329 126.037C148.7 122.247 148.086 122.395 154.197 124.144ZM109.276 129.516C107.01 132.377 104.65 136.265 101.983 141.528L99.4633 146.501L98.7728 144.858C97.8159 142.582 95.1649 140.077 92.0615 138.517L89.4432 137.201L94.7604 134.489C99.5794 132.03 109.301 127.831 110.264 127.792C110.478 127.784 110.034 128.56 109.276 129.516ZM14.5116 143.545C21.3848 144.821 27.1257 145.864 27.269 145.864C27.4122 145.864 27.5293 146.409 27.5293 147.074C27.5293 148.094 27.3651 148.244 26.4796 148.029C25.9024 147.89 20.4961 146.825 14.4659 145.663C0.383118 142.948 1.40253 143.223 1.40253 142.145C1.40253 141.64 1.54016 141.226 1.70858 141.226C1.87701 141.226 7.63796 142.27 14.5116 143.545ZM68.469 153.378L84.4483 156.276V157.536C84.4483 158.228 84.2491 158.918 84.0055 159.067C83.7615 159.217 76.4134 157.931 67.6763 156.209L51.7899 153.078V151.79C51.7899 151.082 51.9475 150.497 52.1398 150.491C52.332 150.484 59.6801 151.784 68.469 153.378ZM168.575 161.575C169.968 162.255 171.285 163.369 172.042 164.506L173.263 166.34L172.192 171.986C169.391 186.755 165.285 192.981 155.183 197.778C149.656 200.401 143.658 202.376 134.602 204.553C131.01 205.417 126.601 206.548 124.806 207.067C120.649 208.268 119.725 208.247 116.873 206.882L114.541 205.765L116.29 205.728C117.475 205.703 118.04 205.479 118.04 205.032C118.04 204.103 115.854 201.627 114.718 201.268C114.197 201.104 113.869 200.872 113.989 200.752C114.109 200.633 114.979 200.856 115.922 201.248C117.497 201.903 117.626 201.898 117.489 201.196C117.407 200.776 116.395 199.935 115.241 199.329C112.794 198.043 114.615 198.423 117.258 199.749C119.732 200.99 120.256 200.613 118.676 198.729L117.34 197.135L118.802 198.16C120.661 199.464 122.999 202.101 123.395 203.342C123.731 204.393 124.572 204.654 124.572 203.708C124.572 203.382 124.232 202.634 123.818 202.045C123.401 201.455 123.245 200.809 123.468 200.604C123.69 200.399 125.471 198.904 127.425 197.281C129.379 195.657 133.053 192.447 135.59 190.146C140.939 185.295 144.625 182.446 148.718 180.001C150.323 179.043 151.827 177.904 152.061 177.47C152.344 176.944 152.11 175.14 151.359 172.056C150.74 169.511 150.233 167.059 150.233 166.606C150.231 165.334 154.039 161.847 156.337 161.016C159.475 159.88 165.686 160.165 168.575 161.575ZM4.29653 179.287C3.60744 180.52 3.30278 180.678 2.00111 180.478C0.594932 180.262 0.480627 180.349 0.195099 181.86C-0.163211 183.759 -0.0587038 183.905 1.96192 184.312C3.32425 184.587 3.51833 184.816 3.64383 186.296C3.72175 187.216 4.14164 188.272 4.57693 188.641C5.33414 189.284 23.3854 193.191 25.5301 193.177C26.6466 193.169 27.5293 191.951 27.5293 190.418C27.5293 189.891 27.6081 189.459 27.7042 189.459C27.8004 189.459 40.5232 191.978 55.9767 195.057C71.4297 198.135 84.3793 200.538 84.7534 200.395C85.247 200.206 85.394 199.531 85.2904 197.928L85.1481 195.72L56.6886 190.529C41.0359 187.674 28.0714 185.326 27.8792 185.312C27.687 185.297 27.5293 184.58 27.5293 183.719C27.5293 182.857 27.2596 181.93 26.9298 181.658C26.4525 181.264 7.28571 177.865 5.54222 177.865C5.29448 177.865 4.73369 178.504 4.29653 179.287ZM3.73528 182.695C3.73528 183.66 3.57572 183.772 2.57777 183.506C1.94093 183.337 1.41606 183.042 1.41139 182.85C1.40673 182.659 1.40253 182.294 1.40253 182.039C1.40253 181.784 1.9274 181.575 2.5689 181.575C3.4908 181.575 3.73528 181.81 3.73528 182.695ZM55.7555 191.322C69.8686 193.874 82.0983 196.087 82.932 196.241C84.2192 196.477 84.4483 196.717 84.4483 197.831C84.4483 198.554 84.265 199.257 84.0415 199.394C83.8175 199.532 71.0681 197.144 55.7093 194.088C40.351 191.032 27.7271 188.532 27.6571 188.532C27.5867 188.532 27.5293 187.993 27.5293 187.336C27.5293 186.274 27.6735 186.17 28.8123 186.411C29.5182 186.561 41.6424 188.771 55.7555 191.322ZM138.011 206.029C138.138 206.883 137.801 207.044 134.978 207.475C130.73 208.123 125.505 208.442 125.505 208.055C125.505 207.704 136.67 204.806 137.402 204.966C137.658 205.022 137.933 205.501 138.011 206.029Z" fill="#121A17"/>
<path fill-rule="evenodd" clip-rule="evenodd" d="M132.622 19.6998C133.014 19.9232 133.704 20.108 134.155 20.1106C134.606 20.1137 134.285 19.931 133.442 19.705C132.599 19.4791 132.23 19.4768 132.622 19.6998ZM127.936 19.9664C121.932 21.5568 116.843 27.0285 115.012 33.8599C113.955 37.8068 114.089 40.3296 115.508 43.195C116.907 46.0172 120.066 48.5071 123.415 49.425C133.68 52.2395 145.808 36.9745 141.595 26.5441C140.908 24.8456 136.964 20.9984 135.54 20.6384C135.177 20.5464 135.571 21.0468 136.416 21.7497C139.136 24.0144 140.07 26.9561 139.486 31.4256C138.133 41.7773 126.11 50.7801 119.074 46.7096C116.795 45.3915 115.069 42.2258 114.88 39.0153C114.65 35.1089 116.529 29.7727 119.291 26.4898C121.983 23.2911 126.119 20.6552 129.351 20.0789C130.707 19.837 131.521 19.5597 131.16 19.4629C130.798 19.366 129.348 19.5925 127.936 19.9664ZM130.624 21.6776C126.926 21.5257 121.45 24.9817 118.959 29.0406C117.505 31.4086 116.3 35.6115 116.323 38.2273C116.344 40.5574 117.932 43.3674 119.871 44.5066C125.626 47.8884 134.593 41.7692 136.952 32.8511C138.587 26.6691 135.882 21.8936 130.624 21.6776ZM135.133 24.1536C135.761 24.7941 136.437 26.3687 136.732 27.8779C137.186 30.1968 137.116 30.8804 136.114 33.9069C134.651 38.3282 131.855 41.6533 127.914 43.6572C124.992 45.1437 123.003 45.2713 120.474 44.134C116.754 42.4607 115.906 36.6742 118.596 31.3177C122.568 23.4074 130.874 19.809 135.133 24.1536ZM130.164 24.9306C130.076 25.2596 129.245 25.5933 128.317 25.6724C126.318 25.8433 124.55 27.5334 124.522 29.3006C124.511 29.9552 124.857 31.4895 125.29 32.7099C126.1 34.9931 125.905 37.2527 124.912 37.0848C123.812 36.8995 123.077 36.443 122.528 35.6048C122.027 34.8385 121.862 34.8516 120.872 35.7353C119.787 36.7046 119.785 36.7318 120.704 37.9777C121.216 38.6712 121.546 39.5722 121.436 39.9805C121.325 40.3962 121.665 40.9596 122.211 41.2631C122.982 41.6929 123.71 41.5104 125.734 40.3803C129.039 38.534 129.607 36.856 128.314 32.755C127.829 31.2166 127.522 29.6054 127.63 29.1749C127.966 27.8451 129.267 28.1209 130.242 29.7281L131.148 31.2231L132.431 30.6505L133.715 30.0779L132.942 28.6342C132.516 27.8403 132.279 26.7551 132.414 26.2227C132.598 25.4981 132.366 25.1395 131.492 24.7939C130.723 24.4896 130.27 24.5364 130.164 24.9306ZM181.904 61.6934C174.654 61.3057 167.662 68.6638 166.682 77.712C165.614 87.5746 169.921 95.5909 177.342 97.5531C181.107 98.5486 186.611 97.8103 189.425 95.9326C193.19 93.4202 196.734 86.1616 197.07 80.2781C197.4 74.4982 195.202 68.1712 191.864 65.2865C189.946 63.6289 185.046 61.8609 181.904 61.6934ZM187.849 64.8924C196.096 71.8048 195.014 87.7836 185.819 94.8819C184.952 95.5507 183.032 96.3352 181.551 96.6248C179.224 97.0803 178.483 97.0184 176.103 96.1718C168.309 93.3978 165.012 83.2468 168.598 73.0666C170.628 67.3073 174.369 63.4734 178.847 62.5629C182.225 61.8769 185.156 62.635 187.849 64.8924ZM180.072 64.9602C174.624 65.7333 169.859 71.6859 169.264 78.4608C168.436 87.9078 173.863 95.0671 180.957 93.8887C190.87 92.2427 194.744 74.6755 186.794 67.43C185.349 66.1132 181.615 64.7413 180.072 64.9602ZM187.082 68.6682C192.285 74.3226 191.517 85.5877 185.576 90.7688C180.737 94.9881 175.551 94.249 172.196 88.8621C168.25 82.5252 169.627 73.1004 175.237 68.0541C178.754 64.8903 183.849 65.1543 187.082 68.6682ZM180.267 68.6385C179.174 68.5114 178.972 68.6553 178.957 69.5707C178.944 70.3809 178.624 70.7574 177.681 71.0677C176.905 71.3232 176.145 72.06 175.7 72.9882C174.607 75.2667 175.203 77.4236 177.559 79.7189C180.806 82.8822 181.204 83.5202 180.709 84.7702C180.292 85.8233 180.126 85.8581 178.24 85.2851C176.506 84.7587 176.144 84.7959 175.711 85.5465C174.791 87.1382 174.893 87.4693 176.625 88.5211C177.569 89.0942 178.43 89.8617 178.539 90.2265C178.648 90.5914 179.417 91.0721 180.248 91.2948C181.601 91.6574 181.794 91.5744 182.096 90.4989C182.281 89.8386 182.825 88.9926 183.304 88.6201C184.597 87.6138 185.126 84.9992 184.439 83.0137C184.111 82.0672 182.681 80.1129 181.26 78.6706C179.47 76.8544 178.713 75.7383 178.796 75.0399C178.956 73.6898 180.199 73.6115 181.962 74.8408C183.267 75.7506 183.449 75.765 184.448 75.0391C185.894 73.9881 185.775 73.4177 183.831 72.088C182.758 71.3533 182.226 70.6555 182.294 70.0693C182.409 69.0608 182.116 68.8535 180.267 68.6385ZM69.0334 43.205C62.1662 42.365 55.3546 44.7729 51.5455 49.3863C44.3363 58.1193 45.6145 71.8787 54.3148 79.1993C60.0587 84.032 67.225 84.6615 75.1067 81.0253C80.6039 78.4887 84.0284 74.4568 85.5691 68.707C88.059 59.4146 83.1609 48.4347 74.9973 45.0087C73.9624 44.5746 72.7367 44.057 72.2734 43.8586C71.8101 43.6603 70.3522 43.3664 69.0334 43.205ZM78.5934 47.9832C88.2439 56.1068 87.8244 72.3715 77.7961 78.8942C74.5481 81.0071 72.1891 81.7666 68.6446 81.8413C57.6802 82.073 48.5598 71.2002 49.9716 59.5814C50.6787 53.7603 53.7377 48.8849 58.4482 46.0708C63.1771 43.2462 66.4005 42.9 72.0727 44.6077C75.4132 45.6136 76.363 46.1057 78.5934 47.9832ZM68.638 46.8762C59.9761 45.6938 52.5084 53.1467 52.8535 62.6297C53.374 76.9354 69.5828 83.8575 78.9635 73.7805C80.518 72.1105 80.8436 71.4142 81.8924 67.5157C82.9898 63.4378 83.0267 62.8969 82.4173 59.8166C81.0343 52.8265 75.7295 47.8444 68.638 46.8762ZM76.4651 51.0285C78.9803 53.2204 81.2511 57.4421 81.869 61.0759C82.5005 64.787 81.2216 69.9544 78.9927 72.6972C75.4141 77.1005 70.0892 78.8663 64.6724 77.4458C55.615 75.0706 50.9377 64.5019 54.9436 55.4636C55.5263 54.1493 56.7017 52.3839 57.5558 51.5409C59.6958 49.4278 63.7377 47.5215 66.3544 47.3911C69.4988 47.2346 73.9489 48.8355 76.4651 51.0285ZM67.1075 50.2489C65.725 50.2743 65.5127 50.4324 65.435 51.4952C65.3754 52.3149 64.905 53.0612 63.9948 53.7826C62.1021 55.2812 61.391 56.8015 61.6574 58.7791C61.9144 60.6846 63.0412 61.8518 66.2862 63.5749C69.4729 65.2668 69.9219 65.7759 69.527 67.2499C69.117 68.78 68.7431 68.9207 65.9759 68.5877C63.8958 68.3379 63.827 68.372 63.4288 69.8583L63.0194 71.3863L65.4578 72.1791C67.4337 72.8212 67.8948 73.1415 67.8906 73.8685C67.8851 74.7249 67.9742 74.7553 69.8637 74.5423C71.5738 74.3489 71.8446 74.1688 71.8597 73.2137C71.8696 72.5844 72.3843 71.5133 73.056 70.7238C75.7872 67.5132 74.4096 63.7463 69.4677 60.9127C66.8884 59.4333 65.4225 58.0372 65.6314 57.2574C65.6813 57.0713 66.1415 56.6767 66.6536 56.3811C67.3751 55.9645 68.0256 56.0266 69.5424 56.6565C71.4684 57.4566 71.5193 57.4472 72.6854 56.0812C73.3373 55.3178 73.7955 54.5631 73.7037 54.4043C73.6117 54.2448 72.5871 53.76 71.4267 53.3265C69.6424 52.6597 69.3199 52.3667 69.3347 51.425C69.3543 50.2007 69.367 50.2074 67.1075 50.2489Z" fill="black"/>
</svg>
