<svg width="410" height="218" viewBox="0 0 410 218" fill="none" xmlns="http://www.w3.org/2000/svg">
<path fill-rule="evenodd" clip-rule="evenodd" d="M109.103 76.9758C107.945 78.1269 107.755 78.6092 108.009 79.7584C108.312 81.1284 108.289 81.1488 106.383 81.1488C102.906 81.1488 101.189 82.6552 101.33 85.5826C101.399 87.0041 101.16 87.7257 100.355 88.5257C99.5267 89.3489 99.3266 89.9852 99.46 91.3724C99.6144 92.9854 99.5589 93.0939 98.8847 92.4873C97.9306 91.6293 96.879 91.6377 95.1696 92.5161C92.4184 93.9306 91.9616 97.3579 94.2244 99.6072L95.6026 100.977L93.2022 101.207C91.3444 101.384 90.5582 101.717 89.7245 102.681C89.132 103.366 88.6473 104.092 88.6473 104.295C88.6473 105.188 90.9282 107.914 92.5541 108.965L94.3322 110.114L92.9101 110.48C91.2203 110.916 90.0553 112.387 90.3912 113.662C90.7626 115.073 93.2073 116.06 96.9285 116.3C99.6881 116.478 100.311 116.66 100.311 117.292C100.311 118.536 101.302 119.179 103.219 119.179C105.179 119.179 107.971 118.175 109.275 117.002C109.733 116.59 110.109 116.464 110.109 116.723C110.109 117.628 114.047 121.631 115.555 122.257C116.392 122.605 117.755 122.889 118.585 122.889C120.993 122.889 119.674 123.561 113.141 125.663C101.721 129.338 96.6593 131.704 84.0424 139.261C79.3289 142.085 73.7825 145.072 71.7171 145.9L67.9623 147.405L64.6582 144.055C62.841 142.213 59.1497 139.161 56.4553 137.273C44.2635 128.729 40.5334 125.951 39.0148 124.279C37.5036 122.617 37.3851 122.267 37.3851 119.458C37.3851 115.835 36.2071 112.848 33.9817 110.827C33.1409 110.064 32.6151 109.439 32.8125 109.439C33.0098 109.439 41.822 110.79 52.395 112.441C73.6066 115.754 84.1469 117.324 85.1738 117.324C86.0546 117.324 86.14 112.756 85.2648 112.458C84.7558 112.285 33.6999 105.265 32.9483 105.265C32.7906 105.265 32.6613 104.679 32.6613 103.963C32.6613 101.269 32.2965 101.137 20.9827 99.7348C14.2877 98.9055 10.2054 98.5865 9.68378 98.8527C9.2219 99.0878 8.86732 99.7941 8.86732 100.478C8.86732 101.675 8.84026 101.684 6.18466 101.394C4.70896 101.232 2.71447 100.967 1.75244 100.803L0.00288053 100.506V102.413C0.00288053 104.548 -0.302243 104.386 5.3682 105.268C8.57432 105.766 8.63591 105.802 8.73902 107.231C8.7964 108.032 9.11132 108.939 9.43884 109.248C9.76589 109.557 13.8538 110.44 18.523 111.211C26.3825 112.508 30.4186 113.561 27.6735 113.599C26.0093 113.622 25.93 114.524 27.4551 116.088C28.8478 117.517 28.8832 117.663 28.7908 121.571C28.7073 125.086 28.8188 125.722 29.6829 126.673C30.2259 127.27 31.6088 129.741 32.756 132.165C33.9033 134.588 35.728 138.002 36.8104 139.752C37.8932 141.502 38.6887 143.024 38.5776 143.134C38.4666 143.245 36.3163 142.986 33.7988 142.559C29.2289 141.785 29.221 141.785 28.4125 142.778C27.9674 143.324 27.5326 143.982 27.4462 144.239C27.3506 144.523 22.0599 143.741 13.914 142.239L0.538013 139.772L0.238021 141.362C0.0728628 142.236 0.10972 143.119 0.320134 143.324C0.611261 143.605 26.2225 148.861 27.3072 148.861C27.4294 148.861 27.5293 149.487 27.5293 150.252C27.5293 152.74 28.5053 153.172 38.9849 155.321L48.7573 157.325L52.1934 160.563C54.389 162.632 56.7469 164.327 58.7251 165.258C61.8197 166.716 61.823 166.716 69.752 166.712C75.6133 166.71 78.7032 166.491 81.5907 165.875C84.8514 165.179 91.2189 163.366 93.6295 162.446C94.1091 162.263 94.2458 163.05 94.2458 166C94.2458 168.245 94.6629 171.593 95.2695 174.218L96.2931 178.648L93.8833 187.986C92.5579 193.123 91.2198 198.19 90.91 199.247C90.367 201.102 90.3954 201.212 91.7134 202.357C93.2703 203.711 100.046 207.297 101.047 207.297C101.923 207.297 101.92 207.32 100.378 212.781C99.5374 215.758 99.237 217.5 99.564 217.5C99.8496 217.5 100.889 214.584 101.874 211.019L103.666 204.539L105.371 205.278C110.695 207.589 114.107 208.359 120.277 208.645C126.187 208.919 132.083 208.681 136.735 207.979L138.868 207.657L139.944 211.303C140.535 213.308 141.229 215.21 141.484 215.529C142.053 216.239 145.807 216.282 149.563 215.621C158.428 214.06 166.795 209.541 171.287 203.887C172.408 202.475 173.46 201.308 173.625 201.294C174.006 201.261 175.619 207.253 176.645 212.514C177.081 214.746 177.614 216.572 177.831 216.572C178.047 216.572 178.223 216.207 178.221 215.761C178.214 214.593 176.022 205.143 175.154 202.545C174.577 200.817 174.528 200.015 174.927 198.812C175.36 197.509 175.26 196.848 174.258 194.398C173.61 192.812 172.543 189.403 171.886 186.821L170.692 182.126L171.635 178.595C174.282 168.678 175.096 162.894 175.134 153.73C175.163 146.705 175.004 144.307 174.353 141.904C173.177 137.568 171.488 134.379 168.846 131.505C162.966 125.11 154.338 121.812 140.129 120.529C134.393 120.011 133.959 119.904 133.491 118.881C132.891 117.573 132.878 117.576 134.88 118.597C136.574 119.46 142.764 119.736 145.203 119.057C147.024 118.551 147.697 117.099 146.767 115.687C146.044 114.591 146.06 114.57 148.017 114.057C150.871 113.309 152.098 112.398 152.098 111.026C152.098 110.05 151.654 109.65 149.467 108.655L146.837 107.457L149.775 106.013C156.436 102.74 155.672 99.2362 148.296 99.2362C145.375 99.2362 144.962 98.8137 146.371 97.2661C147.138 96.4239 147.121 96.3413 146.021 95.5009C145.386 95.0158 144.499 94.6142 144.05 94.6086C143.052 94.5961 143.038 94.3985 143.944 93.0239C144.59 92.0435 144.578 91.851 143.809 90.9072C143.232 90.1981 142.276 89.7918 140.798 89.6263L138.632 89.3832L140.01 88.2307C142.278 86.3334 142.517 85.4963 141.173 84.1602C139.942 82.9367 137.805 82.6329 136.25 83.4599C135.472 83.8735 135.415 83.7516 135.632 82.1441C136.09 78.7548 133.581 76.0473 129.982 76.0473C127.592 76.0473 126.052 76.9196 125.432 78.6231L124.885 80.1262L123.39 78.5503C122.568 77.684 121.48 76.9748 120.973 76.9748C119.982 76.9748 118.506 78.3193 118.506 79.2223C118.506 79.5256 117.598 78.8309 116.487 77.6788C114.713 75.8381 114.227 75.5835 112.485 75.5835C110.905 75.5835 110.22 75.8655 109.103 76.9758ZM122.521 99.0502C123.001 98.8666 123.172 99.2242 123.172 100.41C123.172 101.891 123.284 102.019 124.582 102.019C125.935 102.019 125.965 102.061 125.312 103.062C124.939 103.636 124.566 104.731 124.485 105.494C124.372 106.567 124.577 106.986 125.388 107.343C126.019 107.62 126.438 108.212 126.438 108.827C126.438 110.162 128.23 111.469 129.089 110.761C129.834 110.146 129.876 108.677 129.203 106.759C128.25 104.041 130.413 102.299 132.244 104.309C133.744 105.957 133.103 109.767 131.15 110.806C130.401 111.204 130.339 111.552 130.689 113.413C131.232 116.304 133.411 121.034 134.2 121.034C135.097 121.034 135.057 121.166 132.908 125.27C129.77 131.267 125.827 134.947 122.54 134.947C118.512 134.947 117.03 131.119 119.068 125.974L119.591 124.653L120.149 125.689C120.909 127.101 121.298 126.27 120.98 123.912C120.719 121.979 120.699 121.961 118.795 121.959C116.464 121.956 113.878 120.501 112.211 118.255C110.714 116.238 109.175 111.393 109.175 108.695C109.175 106.709 109.867 105.955 110.406 107.352C110.703 108.121 111.772 108.286 112.182 107.626C112.668 106.845 111.905 105.784 110.754 105.64C109.317 105.46 109.208 104.725 110.519 104.059C112.213 103.199 112.285 102.799 110.692 103.1C109.248 103.373 109.175 103.319 109.175 101.965C109.175 101.182 109.595 100.011 110.109 99.3628L111.042 98.1834V99.3781C111.042 101.479 112.734 101.525 113.848 99.4542C114.392 98.4441 114.51 98.407 115.013 99.0906C115.668 99.9806 117.107 99.6128 117.107 98.5549C117.107 98.1644 117.317 97.8449 117.573 97.8449C117.83 97.8449 118.04 98.0536 118.04 98.3087C118.04 99.0577 119.909 98.8397 120.212 98.0559C120.443 97.4567 120.602 97.4998 121.179 98.3189C121.559 98.8578 122.162 99.1866 122.521 99.0502ZM6.06802 102.382C8.29719 102.679 8.65457 102.869 8.79174 103.829C8.93777 104.85 8.83279 104.911 7.41682 104.629C6.57376 104.462 4.77055 104.194 3.41009 104.035C1.21078 103.778 0.935979 103.626 0.935979 102.662C0.935979 101.733 1.11887 101.611 2.21899 101.809C2.92441 101.936 4.65671 102.194 6.06802 102.382ZM117.107 102.44C117.107 102.839 122.227 103.407 122.692 103.06C122.813 102.97 122.603 102.702 122.225 102.465C121.34 101.908 117.107 101.888 117.107 102.44ZM119.912 106.27C121.066 107.417 121.475 107.599 121.783 107.102C122.402 106.107 121.566 105.142 119.929 104.964L118.435 104.802L119.912 106.27ZM58.601 109.671C72.5158 111.584 84.1292 113.15 84.4082 113.15C84.6867 113.15 84.9149 113.88 84.9149 114.773C84.9149 115.666 84.8062 116.396 84.6732 116.396C84.3363 116.396 36.041 109.018 34.1776 108.682C32.9669 108.464 32.6613 108.185 32.6613 107.301C32.6613 106.691 32.805 106.193 32.9809 106.193C33.1568 106.193 44.6857 107.758 58.601 109.671ZM113.783 108.86C112.28 112.316 112.149 113.889 113.311 114.507C114.346 115.058 116.64 114.726 116.64 114.025C116.64 113.797 115.958 113.663 115.124 113.727C113.777 113.832 113.612 113.716 113.649 112.686C113.671 112.048 114.14 110.431 114.691 109.092C115.94 106.057 115.095 105.842 113.783 108.86ZM35.3062 114.349C36.0877 116.047 36.438 117.575 36.3867 119.064C36.3452 120.275 36.3293 121.63 36.3522 122.076C36.4525 124.033 40.6281 127.466 54.5793 137.061C57.5251 139.087 61.6746 142.48 63.8002 144.602L67.6656 148.458L70.2265 147.506C73.8362 146.164 77.7347 144.153 83.3337 140.745C87.7767 138.041 88.2964 137.837 89.7282 138.229C92.1492 138.894 96.2175 141.964 97.3787 144.002C98.7555 146.418 98.7145 148.356 97.207 152.071C96.5259 153.749 95.6254 156.478 95.2051 158.136L94.4418 161.151L90.0282 162.626C82.3297 165.199 78.5474 165.788 69.752 165.788C61.949 165.788 61.7763 165.767 59.0718 164.447C55.4467 162.677 49.9134 157.523 50.7401 156.686C51.0611 156.361 51.3233 155.616 51.3233 155.029C51.3233 154.322 51.599 153.962 52.1398 153.962C52.5891 153.962 59.9227 155.346 68.4368 157.038C76.9513 158.731 84.2584 159.985 84.675 159.826C85.2568 159.604 85.3996 159.029 85.2904 157.355L85.1481 155.172L68.469 152.168C52.0329 149.207 51.7899 149.147 51.7899 148.054C51.7899 145.686 51.1847 145.328 45.6879 144.449L40.4807 143.616L38.4046 140.426C37.2629 138.671 35.2409 134.994 33.9117 132.254C32.582 129.514 31.0144 126.665 30.4275 125.923C29.444 124.68 29.3848 124.28 29.6689 120.796C29.9703 117.107 29.9488 116.995 28.7535 116.06C28.0803 115.534 27.5293 114.976 27.5293 114.822C27.5293 114.173 28.5356 114.633 30.0953 115.994C31.7278 117.419 31.7544 117.499 31.4632 120.059C31.2052 122.325 31.2999 122.821 32.1827 123.823L33.1988 124.976L32.8484 123.817C32.6557 123.179 32.5349 121.47 32.5792 120.02C32.624 118.569 32.4491 116.829 32.1906 116.153C31.4194 114.137 32.7392 114.981 33.9052 117.25C34.4608 118.331 35.0412 119.015 35.1947 118.768C35.5068 118.266 33.9289 114.013 32.8759 112.519C31.9181 111.16 32.0292 110.71 33.1722 111.318C33.7097 111.604 34.6698 112.968 35.3062 114.349ZM122.239 113.348C122.239 114.213 120.024 115.932 118.91 115.932C118.431 115.932 118.04 116.141 118.04 116.396C118.04 117.298 120.32 116.844 121.736 115.659C123.103 114.516 123.699 112.686 122.705 112.686C122.449 112.686 122.239 112.984 122.239 113.348ZM31.4749 113.581C31.9424 114.333 30.9267 114.562 30.3244 113.84C29.8555 113.279 29.884 113.15 30.4774 113.15C30.8782 113.15 31.3275 113.344 31.4749 113.581ZM138.418 121.396C138.807 121.642 138.504 122.477 137.38 124.248C129.493 136.682 127.91 162.339 133.645 184.765L134.822 189.365L131.953 191.954C130.375 193.378 127.612 195.716 125.813 197.149L122.543 199.755L120.014 197.708C118.056 196.122 117.344 195.778 116.858 196.179C116.512 196.464 116.341 196.986 116.477 197.339C116.677 197.857 116.427 197.895 115.177 197.539C113.158 196.964 111.82 197.383 112.114 198.5C112.244 198.994 112.043 199.465 111.637 199.62C110.688 199.982 111.729 201.268 112.972 201.268C113.457 201.268 114.639 201.992 115.597 202.878L117.34 204.489L114.891 204.502C113.544 204.508 112.441 204.702 112.441 204.932C112.441 205.162 113.124 205.785 113.958 206.316C116.071 207.661 114.648 207.589 110.272 206.129C107.386 205.166 103.365 203.433 102.728 202.879C102.646 202.807 102.942 201.067 103.387 199.011L104.195 195.273L102.24 191.089C99.9713 186.237 96.8142 177.094 95.8582 172.608C94.9923 168.547 95.0124 162.375 95.904 158.616C97.3171 152.654 101.653 144.83 108.587 135.729C111.847 131.45 117.473 125.418 117.853 125.795C117.942 125.884 117.791 126.759 117.519 127.741C116.337 131.995 118.502 135.875 122.056 135.875C124.133 135.875 126.78 134.767 128.484 133.183C130.291 131.505 134.102 125.702 135.095 123.119C135.895 121.034 136.967 120.479 138.418 121.396ZM154.197 123.894C164.286 126.782 171.268 133.438 173.381 142.184C174.213 145.628 174.509 158.286 173.854 162.412L173.506 164.601L172.061 162.965C169.769 160.371 167.385 159.39 162.829 159.168C158.068 158.936 154.803 159.95 151.634 162.648L149.611 164.369L149.917 156.99C150.158 151.185 150.102 149.732 149.654 150.177C148.983 150.844 148.831 164.42 149.454 168.06L149.843 170.332L147.945 168.944C142.288 164.809 139.699 158.365 139.782 148.629C139.855 139.933 141.865 132.92 146.329 125.787C148.7 121.997 148.086 122.145 154.197 123.894ZM109.276 129.266C107.01 132.127 104.65 136.015 101.983 141.278L99.4633 146.251L98.7728 144.608C97.8159 142.332 95.1649 139.827 92.0615 138.267L89.4432 136.951L94.7604 134.239C99.5794 131.78 109.301 127.581 110.264 127.542C110.478 127.534 110.034 128.31 109.276 129.266ZM14.5116 143.295C21.3848 144.571 27.1257 145.614 27.269 145.614C27.4122 145.614 27.5293 146.159 27.5293 146.824C27.5293 147.844 27.3651 147.994 26.4796 147.779C25.9024 147.64 20.4961 146.575 14.4659 145.413C0.383118 142.698 1.40253 142.973 1.40253 141.895C1.40253 141.39 1.54016 140.976 1.70858 140.976C1.87701 140.976 7.63796 142.02 14.5116 143.295ZM68.469 153.128L84.4483 156.026V157.286C84.4483 157.978 84.2491 158.668 84.0055 158.817C83.7615 158.967 76.4134 157.681 67.6763 155.959L51.7899 152.828V151.54C51.7899 150.832 51.9475 150.247 52.1398 150.241C52.332 150.234 59.6801 151.534 68.469 153.128ZM168.575 161.325C169.968 162.005 171.285 163.119 172.042 164.256L173.263 166.09L172.192 171.736C169.391 186.505 165.285 192.731 155.183 197.528C149.656 200.151 143.658 202.126 134.602 204.303C131.01 205.167 126.601 206.298 124.806 206.817C120.649 208.018 119.725 207.997 116.873 206.632L114.541 205.515L116.29 205.478C117.475 205.453 118.04 205.229 118.04 204.782C118.04 203.853 115.854 201.377 114.718 201.018C114.197 200.854 113.869 200.622 113.989 200.502C114.109 200.383 114.979 200.606 115.922 200.998C117.497 201.653 117.626 201.648 117.489 200.946C117.407 200.526 116.395 199.685 115.241 199.079C112.794 197.793 114.615 198.173 117.258 199.499C119.732 200.74 120.256 200.363 118.676 198.479L117.34 196.885L118.802 197.91C120.661 199.214 122.999 201.851 123.395 203.092C123.731 204.143 124.572 204.404 124.572 203.458C124.572 203.132 124.232 202.384 123.818 201.795C123.401 201.205 123.245 200.559 123.468 200.354C123.69 200.149 125.471 198.654 127.425 197.031C129.379 195.407 133.053 192.197 135.59 189.896C140.939 185.045 144.625 182.196 148.718 179.751C150.323 178.793 151.827 177.654 152.061 177.22C152.344 176.694 152.11 174.89 151.359 171.806C150.74 169.261 150.233 166.809 150.233 166.356C150.231 165.084 154.039 161.597 156.337 160.766C159.475 159.63 165.686 159.915 168.575 161.325ZM4.29653 179.037C3.60744 180.27 3.30278 180.428 2.00111 180.228C0.594932 180.012 0.480627 180.099 0.195099 181.61C-0.163211 183.509 -0.0587038 183.655 1.96192 184.062C3.32425 184.337 3.51833 184.566 3.64383 186.046C3.72175 186.966 4.14164 188.022 4.57693 188.391C5.33414 189.034 23.3854 192.941 25.5301 192.927C26.6466 192.919 27.5293 191.701 27.5293 190.168C27.5293 189.641 27.6081 189.209 27.7042 189.209C27.8004 189.209 40.5232 191.728 55.9767 194.807C71.4297 197.885 84.3793 200.288 84.7534 200.145C85.247 199.956 85.394 199.281 85.2904 197.678L85.1481 195.47L56.6886 190.279C41.0359 187.424 28.0714 185.076 27.8792 185.062C27.687 185.047 27.5293 184.33 27.5293 183.469C27.5293 182.607 27.2596 181.68 26.9298 181.408C26.4525 181.014 7.28571 177.615 5.54222 177.615C5.29448 177.615 4.73369 178.254 4.29653 179.037ZM3.73528 182.445C3.73528 183.41 3.57572 183.522 2.57777 183.256C1.94093 183.087 1.41606 182.792 1.41139 182.6C1.40673 182.409 1.40253 182.044 1.40253 181.789C1.40253 181.534 1.9274 181.325 2.5689 181.325C3.4908 181.325 3.73528 181.56 3.73528 182.445ZM55.7555 191.072C69.8686 193.624 82.0983 195.837 82.932 195.991C84.2192 196.227 84.4483 196.467 84.4483 197.581C84.4483 198.304 84.265 199.007 84.0415 199.144C83.8175 199.282 71.0681 196.894 55.7093 193.838C40.351 190.782 27.7271 188.282 27.6571 188.282C27.5867 188.282 27.5293 187.743 27.5293 187.086C27.5293 186.024 27.6735 185.92 28.8123 186.161C29.5182 186.311 41.6424 188.521 55.7555 191.072ZM138.011 205.779C138.138 206.633 137.801 206.794 134.978 207.225C130.73 207.873 125.505 208.192 125.505 207.805C125.505 207.454 136.67 204.556 137.402 204.716C137.658 204.772 137.933 205.251 138.011 205.779Z" fill="#121A17"/>
<path fill-rule="evenodd" clip-rule="evenodd" d="M132.622 19.4498C133.014 19.6732 133.704 19.858 134.155 19.8606C134.606 19.8637 134.285 19.681 133.442 19.455C132.599 19.2291 132.23 19.2268 132.622 19.4498ZM127.936 19.7164C121.932 21.3068 116.843 26.7785 115.012 33.6099C113.955 37.5568 114.089 40.0796 115.508 42.945C116.907 45.7672 120.066 48.2571 123.415 49.175C133.68 51.9895 145.808 36.7245 141.595 26.2941C140.908 24.5956 136.964 20.7484 135.54 20.3884C135.177 20.2964 135.571 20.7968 136.416 21.4997C139.136 23.7644 140.07 26.7061 139.486 31.1756C138.133 41.5273 126.11 50.5301 119.074 46.4596C116.795 45.1415 115.069 41.9758 114.88 38.7653C114.65 34.8589 116.529 29.5227 119.291 26.2398C121.983 23.0411 126.119 20.4052 129.351 19.8289C130.707 19.587 131.521 19.3097 131.16 19.2129C130.798 19.116 129.348 19.3425 127.936 19.7164ZM130.624 21.4276C126.926 21.2757 121.45 24.7317 118.959 28.7906C117.505 31.1586 116.3 35.3615 116.323 37.9773C116.344 40.3074 117.932 43.1174 119.871 44.2566C125.626 47.6384 134.593 41.5192 136.952 32.6011C138.587 26.4191 135.882 21.6436 130.624 21.4276ZM135.133 23.9036C135.761 24.5441 136.437 26.1187 136.732 27.6279C137.186 29.9468 137.116 30.6304 136.114 33.6569C134.651 38.0782 131.855 41.4033 127.914 43.4072C124.992 44.8937 123.003 45.0213 120.474 43.884C116.754 42.2107 115.906 36.4242 118.596 31.0677C122.568 23.1574 130.874 19.559 135.133 23.9036ZM130.164 24.6806C130.076 25.0096 129.245 25.3433 128.317 25.4224C126.318 25.5933 124.55 27.2834 124.522 29.0506C124.511 29.7052 124.857 31.2395 125.29 32.4599C126.1 34.7431 125.905 37.0027 124.912 36.8348C123.812 36.6495 123.077 36.193 122.528 35.3548C122.027 34.5885 121.862 34.6016 120.872 35.4853C119.787 36.4546 119.785 36.4818 120.704 37.7277C121.216 38.4212 121.546 39.3222 121.436 39.7305C121.325 40.1462 121.665 40.7096 122.211 41.0131C122.982 41.4429 123.71 41.2604 125.734 40.1303C129.039 38.284 129.607 36.606 128.314 32.505C127.829 30.9666 127.522 29.3554 127.63 28.9249C127.966 27.5951 129.267 27.8709 130.242 29.4781L131.148 30.9731L132.431 30.4005L133.715 29.8279L132.942 28.3842C132.516 27.5903 132.279 26.5051 132.414 25.9727C132.597 25.2481 132.366 24.8895 131.492 24.5439C130.723 24.2396 130.27 24.2864 130.164 24.6806ZM181.904 61.4434C174.654 61.0557 167.662 68.4138 166.682 77.462C165.614 87.3246 169.921 95.3409 177.342 97.3031C181.107 98.2986 186.611 97.5603 189.425 95.6826C193.19 93.1702 196.734 85.9116 197.07 80.0281C197.4 74.2482 195.202 67.9212 191.864 65.0365C189.946 63.3789 185.046 61.6109 181.904 61.4434ZM187.849 64.6424C196.096 71.5548 195.014 87.5336 185.819 94.6319C184.952 95.3007 183.032 96.0852 181.551 96.3748C179.224 96.8303 178.483 96.7684 176.103 95.9218C168.309 93.1478 165.012 82.9968 168.598 72.8166C170.628 67.0573 174.369 63.2234 178.847 62.3129C182.225 61.6269 185.156 62.385 187.849 64.6424ZM180.072 64.7102C174.624 65.4833 169.859 71.4359 169.264 78.2108C168.436 87.6578 173.863 94.8171 180.957 93.6387C190.87 91.9927 194.744 74.4255 186.794 67.18C185.349 65.8632 181.615 64.4913 180.072 64.7102ZM187.082 68.4182C192.285 74.0726 191.517 85.3377 185.576 90.5188C180.737 94.7381 175.551 93.999 172.196 88.6121C168.25 82.2752 169.627 72.8504 175.237 67.8041C178.754 64.6403 183.849 64.9043 187.082 68.4182ZM180.267 68.3885C179.174 68.2614 178.972 68.4053 178.957 69.3207C178.944 70.1308 178.624 70.5074 177.681 70.8177C176.905 71.0732 176.145 71.81 175.7 72.7382C174.607 75.0167 175.203 77.1736 177.559 79.4689C180.806 82.6322 181.204 83.2702 180.709 84.5202C180.292 85.5733 180.126 85.6081 178.24 85.0351C176.506 84.5087 176.144 84.5459 175.711 85.2965C174.791 86.8882 174.893 87.2193 176.625 88.2711C177.569 88.8442 178.43 89.6117 178.539 89.9765C178.648 90.3414 179.417 90.8221 180.248 91.0448C181.601 91.4074 181.794 91.3244 182.096 90.2489C182.281 89.5886 182.825 88.7426 183.304 88.3701C184.597 87.3638 185.126 84.7492 184.439 82.7637C184.111 81.8172 182.681 79.8629 181.26 78.4206C179.47 76.6044 178.713 75.4883 178.796 74.7899C178.956 73.4398 180.199 73.3615 181.962 74.5908C183.267 75.5006 183.449 75.515 184.448 74.7891C185.894 73.7381 185.775 73.1677 183.831 71.838C182.758 71.1033 182.226 70.4055 182.294 69.8193C182.409 68.8108 182.116 68.6035 180.267 68.3885ZM69.0334 42.955C62.1662 42.115 55.3546 44.5229 51.5455 49.1363C44.3363 57.8693 45.6145 71.6287 54.3148 78.9493C60.0587 83.7819 67.225 84.4115 75.1067 80.7753C80.6039 78.2387 84.0284 74.2068 85.5691 68.457C88.059 59.1646 83.1609 48.1847 74.9973 44.7587C73.9624 44.3246 72.7367 43.807 72.2734 43.6086C71.8101 43.4103 70.3522 43.1164 69.0334 42.955ZM78.5934 47.7332C88.2439 55.8568 87.8244 72.1215 77.7961 78.6442C74.5481 80.7571 72.1891 81.5166 68.6446 81.5913C57.6802 81.823 48.5598 70.9502 49.9716 59.3314C50.6787 53.5103 53.7377 48.6349 58.4482 45.8208C63.1771 42.9962 66.4005 42.65 72.0727 44.3577C75.4132 45.3636 76.363 45.8557 78.5934 47.7332ZM68.638 46.6262C59.9761 45.4438 52.5084 52.8967 52.8535 62.3797C53.374 76.6854 69.5828 83.6075 78.9635 73.5305C80.518 71.8605 80.8436 71.1642 81.8924 67.2657C82.9898 63.1878 83.0267 62.6469 82.4173 59.5666C81.0343 52.5765 75.7295 47.5944 68.638 46.6262ZM76.4651 50.7785C78.9803 52.9704 81.2511 57.1921 81.869 60.8259C82.5005 64.537 81.2216 69.7044 78.9927 72.4472C75.4141 76.8505 70.0892 78.6163 64.6724 77.1958C55.615 74.8206 50.9377 64.2519 54.9436 55.2136C55.5263 53.8993 56.7017 52.1339 57.5558 51.2909C59.6958 49.1778 63.7377 47.2715 66.3544 47.1411C69.4988 46.9846 73.9489 48.5855 76.4651 50.7785ZM67.1075 49.9989C65.725 50.0243 65.5127 50.1824 65.435 51.2452C65.3754 52.0649 64.905 52.8112 63.9948 53.5326C62.1021 55.0312 61.391 56.5515 61.6574 58.5291C61.9144 60.4346 63.0412 61.6018 66.2862 63.3249C69.4729 65.0168 69.9219 65.5259 69.527 66.9999C69.117 68.53 68.7431 68.6707 65.9759 68.3377C63.8958 68.0879 63.827 68.122 63.4288 69.6083L63.0194 71.1363L65.4578 71.9291C67.4337 72.5712 67.8948 72.8915 67.8906 73.6185C67.8851 74.4749 67.9742 74.5053 69.8637 74.2923C71.5738 74.0989 71.8446 73.9188 71.8597 72.9637C71.8696 72.3344 72.3843 71.2633 73.056 70.4738C75.7872 67.2632 74.4096 63.4963 69.4677 60.6627C66.8884 59.1833 65.4225 57.7872 65.6314 57.0074C65.6813 56.8213 66.1415 56.4267 66.6536 56.1311C67.3751 55.7145 68.0256 55.7766 69.5424 56.4065C71.4684 57.2066 71.5193 57.1972 72.6854 55.8312C73.3373 55.0678 73.7955 54.3131 73.7037 54.1543C73.6117 53.9948 72.5871 53.51 71.4267 53.0765C69.6424 52.4097 69.3199 52.1167 69.3347 51.175C69.3543 49.9507 69.367 49.9574 67.1075 49.9989Z" fill="black"/>
<line x1="193" y1="72" x2="410" y2="72" stroke="#121A17"/>
<circle cx="192.5" cy="72" r="3.5" fill="#121A17"/>
</svg>
