<svg width="404" height="222" viewBox="0 0 404 222" fill="none" xmlns="http://www.w3.org/2000/svg">
<path fill-rule="evenodd" clip-rule="evenodd" d="M346.823 19.3049C343.378 20.6955 335.05 26.2416 329.919 30.5629C326.299 33.6097 325.794 33.8733 324.539 33.3709C321.575 32.1853 321.077 32.124 322.885 33.167C325.183 34.493 326.298 34.564 327.228 33.443C328.668 31.7081 340.03 23.532 343.902 21.4448C346.1 20.2598 348.881 19.1333 350.082 18.9418C353.195 18.4453 355.121 20.2415 358.11 26.4277C360.335 31.0325 363.726 41.1538 364.594 45.7773C365.076 48.3444 365.573 48.5434 373.451 49.3272C384.562 50.4332 393.512 52.7183 396.178 55.1304C397.669 56.4796 397.396 60.5953 395.501 65.327C393.892 69.347 388.738 78.7195 385.702 83.1494L384.112 85.4689L387.291 89.0667C395.388 98.2283 400.367 105.503 401.538 109.884C402.053 111.81 402.015 112.406 401.308 113.485C399.393 116.408 388.502 120.503 375.345 123.246L369.439 124.478L369.072 126.323C368.87 127.338 368.445 130.644 368.126 133.671C366.955 144.81 364.327 153.345 361.625 154.791C359.084 156.151 349.232 152.79 346.263 149.55C345.346 148.549 344.027 147.444 343.331 147.094C342.636 146.744 341.847 145.732 341.578 144.844C341.31 143.957 340.625 142.096 340.057 140.71C339.281 138.819 339.021 136.871 339.015 132.91C339.011 130.006 338.864 127.093 338.688 126.438C338.312 125.034 336.583 124.333 335.569 125.174C335.012 125.637 334.786 125.41 334.53 124.129C334.157 122.263 332.927 121.552 331.754 122.526C331.188 122.995 330.954 124.271 330.954 126.889V130.589H329.154C326.203 130.589 324.34 133.656 326.567 134.848C327.277 135.228 327.877 135.157 328.675 134.598C330.096 133.603 331.492 134.124 331.492 135.649C331.492 137.677 330.383 138.278 329.015 136.991C327.34 135.418 325.843 135.827 325.843 137.859C325.843 139.217 326.192 139.631 328.11 140.541C329.357 141.132 330.386 141.795 330.396 142.012C330.442 142.942 314.685 154.258 313.346 154.258C313.037 154.258 311.368 152.503 309.637 150.358C305.373 145.076 300.428 140.338 297.143 138.389L294.424 136.775L293.179 131.396L291.936 126.016L287.372 125.384C284.862 125.037 282.726 124.735 282.626 124.712C282.526 124.69 283.064 123.934 283.823 123.033C284.582 122.13 285.579 120.134 286.04 118.595C287.352 114.208 288.046 105.577 287.499 100.424C286.911 94.8678 287.074 94.162 289.054 93.7274C291.723 93.141 292.48 90.5014 290.536 88.5573C289.504 87.5255 289.477 87.3593 290.267 86.9171C292.257 85.803 290.728 82.9245 287.84 82.3473C286.615 82.102 286.346 81.8169 286.596 81.0288C287.316 78.7587 285.315 76.7953 282.281 76.7953C281.28 76.7953 280.959 76.4687 280.827 75.3159C280.722 74.4031 280.195 73.6338 279.45 73.3073C278.631 72.9479 278.34 72.4724 278.545 71.828C278.711 71.3056 278.685 70.3702 278.488 69.7494C278.197 68.8311 277.789 68.6606 276.3 68.8343C274.732 69.0178 274.47 68.8865 274.47 67.9188C274.47 65.4486 271.161 64.5846 269.352 66.5831C268.386 67.6509 268.355 67.652 267.252 66.6396C264.23 63.8654 259.537 62.371 258.601 63.8848C258.054 64.7702 257.256 64.4943 257.256 63.4195C257.256 59.7029 264.762 56.23 280.027 52.8829C283.232 52.1804 285.933 51.5241 286.03 51.4246C286.126 51.3245 286.475 48.4595 286.804 45.057C288.042 32.2601 290.042 25.1781 292.959 23.2674C294.125 22.5035 294.749 22.4551 297.063 22.9511C300.609 23.7117 308.742 26.7683 315.222 29.7759C318.048 31.0874 320.448 32.0729 320.555 31.9658C320.83 31.6909 310.592 26.9759 305.133 24.864C302.618 23.8908 299.071 22.7881 297.251 22.4137C294.315 21.809 293.786 21.8354 292.551 22.6439C289.823 24.432 287.891 30.0707 286.545 40.1747C286.129 43.3039 285.783 46.9968 285.778 48.3809L285.767 50.8979L282.674 51.4988C275.312 52.9281 266.62 55.394 263.023 57.074C258.034 59.4043 256.463 61.0692 256.576 63.9058L256.661 66.0365L253.866 66.0376C248.688 66.0387 245.277 69.0468 248.161 71.0673C249.339 71.8925 249.332 71.9049 247.123 72.7887C245.899 73.2782 244.156 74.5241 243.249 75.5569C241.688 77.3348 241.644 77.5037 242.436 78.7119C243.234 79.9298 243.196 80.0455 241.623 81.2085C238.209 83.7325 236.648 88.4055 239.012 89.0242C239.962 89.2722 240.082 89.5944 239.797 91.1178C239.428 93.084 240.203 95.0851 241.333 95.0851C241.765 95.0851 242.175 95.9899 242.37 97.3713C243.049 102.193 244.355 105.296 246.763 107.809C248.924 110.065 249.065 110.375 248.403 111.423C246.56 114.339 247.036 119.216 249.28 120.418C251.994 121.87 254.546 119.209 254.59 114.881L254.614 112.568L255.317 114.535C256.321 117.348 258.694 121.245 260.862 123.645C262.426 125.376 262.681 125.999 262.433 127.478L262.137 129.244L262.725 127.523C263.276 125.912 263.172 125.642 261.084 123.269C259.857 121.876 258.104 119.141 257.188 117.19C253.361 109.046 252.811 108.02 252.404 108.271C252.17 108.416 252.114 109.079 252.281 109.744C252.577 110.927 252.56 110.933 251.473 109.974C249.995 108.67 249.064 106.314 249.28 104.422C249.429 103.119 249.727 102.859 251.24 102.714C252.221 102.62 253.36 102.822 253.772 103.164C254.975 104.163 255.472 103.39 255.775 100.048C256.07 96.7925 258.365 90.5654 258.776 91.9027C259.167 93.1733 260.598 94.5472 261.53 94.5472C262.013 94.5472 263.294 94.0953 264.377 93.5434C266.336 92.5444 266.346 92.5455 266.508 93.6779C266.728 95.2217 269.058 95.4514 270.734 94.0937L272.024 93.049L272.971 94.6053C274.038 96.3611 275.268 96.5795 276.714 95.2707C277.636 94.4369 277.698 94.4471 277.698 95.4321C277.698 97.6209 279.823 98.4526 281.511 96.9248C282.254 96.253 282.687 96.2019 283.581 96.6812C284.204 97.0141 284.943 97.1443 285.224 96.9706C285.506 96.7968 285.893 97.2815 286.085 98.0475C286.603 100.111 285.974 115.488 285.28 117.742C284.403 120.586 282.518 123.143 280.176 124.666C278.156 125.979 278.122 126.055 278.426 128.623C278.755 131.396 279.505 132.741 280.722 132.741C281.757 132.741 281.659 133.678 280.122 138.546C278.304 144.3 276.835 146.409 274.487 146.634C271.733 146.899 268.482 145.786 265.564 143.582C263.003 141.646 257.256 133.967 257.256 132.48C257.256 131.978 258.019 131.671 259.538 131.561C261.336 131.431 261.855 131.168 261.988 130.32C262.091 129.658 261.989 129.481 261.723 129.859C261.486 130.198 259.354 130.635 256.987 130.831C242.115 132.061 234.999 134.229 226.838 140.016C218.146 146.179 208.742 159.521 204.287 172.01C200.984 181.271 200.038 186.259 200.001 194.603C199.954 205.237 201.363 210.566 205.408 215.043C209.46 219.528 216.012 221.696 225.518 221.699C232.486 221.7 237.764 220.593 245.776 217.447C250.044 215.772 251.123 215.579 258.026 215.262C273.144 214.569 296.061 217.49 304.752 221.219C305.662 221.609 305.699 221.217 305.4 214.439C305.226 210.482 304.976 206.561 304.844 205.725L304.605 204.204L307.155 206.472C308.558 207.719 311.279 209.493 313.202 210.413C316.419 211.952 317.129 212.084 322.078 212.051C326.38 212.023 328.098 211.765 330.657 210.762C334.87 209.111 338.627 205.558 340.581 201.375C343.641 194.825 344.422 188.772 344.436 171.483C344.445 159.516 344.503 158.792 345.544 157.685C346.148 157.041 346.774 155.534 346.935 154.334L347.227 152.154L349.183 153.152C352.75 154.971 358.821 156.549 360.814 156.175C363.163 155.735 364.916 153.491 366.424 148.993C367.674 145.266 369.377 135.805 369.936 129.487L370.295 125.426L375.235 124.443C387.717 121.96 399.602 117.597 401.924 114.645C402.536 113.867 403.037 112.448 403.037 111.492C403.037 107.855 397.194 98.6263 389.108 89.4916C387.301 87.4507 385.823 85.5771 385.823 85.328C385.823 85.0789 386.913 83.1747 388.246 81.0966C396.307 68.5207 399.792 58.9191 397.589 55.3564C395.618 52.1675 385.35 49.4444 369.877 48.006L366.034 47.6488L365.136 44.3356C361.705 31.6667 357.437 21.8203 354.362 19.4744C352.292 17.8955 350.417 17.8536 346.823 19.3049ZM337.766 72.8952C330.594 79.6264 324.206 85.5803 323.571 86.1268C322.426 87.1118 322.383 87.0903 318.75 83.6911C316.734 81.8045 314.17 79.5689 313.053 78.7222L311.02 77.1831L308.945 78.1191C306.521 79.2122 302.198 83.4388 301.442 85.456C300.828 87.0914 301.269 87.8794 305.504 92.7144C308.636 96.289 316.23 103.035 319.757 105.375C322.965 107.503 324.327 107.352 328.339 104.418C334.403 99.983 361.616 71.3874 361.616 69.4497C361.616 67.7881 353.476 60.6572 351.579 60.6572C351.153 60.6572 344.937 66.164 337.766 72.8952ZM255.118 92.8306C256.135 93.7785 256.139 93.9027 255.23 97.6683L254.298 101.533L252.114 101.537C248.827 101.542 247.946 102.439 248.192 105.532L248.397 108.103L246.918 106.332C245.36 104.466 244.06 101.099 243.508 97.5058C243.221 95.6359 243.363 95.1932 244.591 94.1276C245.86 93.027 246.089 92.9855 246.827 93.7241C247.942 94.8387 248.619 94.7672 251.389 93.2421C252.693 92.5245 253.83 91.9193 253.917 91.8973C254.003 91.8752 254.544 92.2954 255.118 92.8306ZM265.977 101.137C265.543 101.663 266.176 101.809 268.881 101.809C271.781 101.809 272.192 101.701 271.42 101.137C270.914 100.767 269.607 100.464 268.516 100.464C267.426 100.464 266.283 100.767 265.977 101.137ZM282.001 101.809C282.001 102.549 282.244 103.154 282.539 103.154C282.835 103.154 283.077 102.549 283.077 101.809C283.077 101.07 282.835 100.464 282.539 100.464C282.244 100.464 282.001 101.07 282.001 101.809ZM277.926 102.616C278.054 103.356 278.448 105.465 278.801 107.302C279.58 111.354 279.339 112.107 277.051 112.767L275.277 113.278L276.923 113.327C277.828 113.353 279.031 113.037 279.596 112.623C280.539 111.934 280.575 111.585 280.033 108.454C279.707 106.574 279.047 104.19 278.566 103.154C277.902 101.724 277.749 101.595 277.926 102.616ZM252.646 111.53C254.356 113.241 253.36 118.919 251.232 119.595C248.767 120.377 247.469 116.615 248.937 112.946C249.912 110.51 251.152 110.037 252.646 111.53ZM272.043 116.603C273.279 118.893 274.691 119.83 276.85 119.794L279.043 119.758L276.699 119.027C275.41 118.625 273.737 117.733 272.981 117.046C272.226 116.358 271.803 116.159 272.043 116.603ZM320.316 118.515C319.216 119.285 319.182 119.465 319.882 120.801C320.913 122.77 324.451 126.823 325.138 126.823C325.766 126.823 325.441 124.615 324.192 120.411C323.311 117.443 322.448 117.021 320.316 118.515ZM323.383 121.241C323.727 122.608 323.911 123.824 323.791 123.944C323.672 124.064 322.666 123.157 321.556 121.93C319.989 120.195 319.703 119.594 320.271 119.234C321.912 118.194 322.752 118.736 323.383 121.241ZM333.508 124.32C333.825 125.015 334.254 126.951 334.463 128.624C334.909 132.187 335.791 132.684 335.803 129.379C335.808 128.121 336.05 126.729 336.341 126.285C337.367 124.723 337.93 126.915 337.939 132.503C337.946 137.156 338.172 138.531 339.554 142.316L341.16 146.718L339.286 147.502C338.255 147.933 337.144 148.873 336.816 149.592C336.259 150.813 335.989 150.886 332.646 150.721L329.071 150.545L332.379 151.097C335.615 151.636 335.691 151.688 335.902 153.491C336.104 155.224 336.022 155.334 334.521 155.334C332.488 155.334 326.112 154.233 326.112 153.883C326.112 153.371 327.962 150.493 328.29 150.493C328.473 150.493 328.645 150.19 328.673 149.82C328.701 149.451 329.327 147.557 330.064 145.612C330.801 143.668 331.243 141.819 331.045 141.504C330.847 141.188 329.777 140.553 328.667 140.09C327.265 139.507 326.65 138.915 326.65 138.147C326.65 136.854 328.002 136.661 328.472 137.887C328.683 138.435 329.31 138.67 330.268 138.56C332.027 138.356 333.166 135.967 332.224 134.46C331.522 133.34 329.012 132.972 327.969 133.838C327.359 134.345 327.126 134.281 326.838 133.53C326.288 132.098 328.049 131.08 330.422 131.459L332.396 131.775L332.144 127.416C331.888 123.002 332.389 121.865 333.508 124.32ZM285.992 126.362L290.996 126.977L291.878 131.082C292.986 136.234 292.993 136.131 291.574 135.371C290.921 135.021 288.081 133.953 285.262 132.996C280.182 131.272 280.134 131.239 279.71 129.197C279.244 126.954 279.486 125.747 280.402 125.747C280.724 125.747 283.24 126.024 285.992 126.362ZM311.288 128.143C311.086 129.22 311.091 130.272 311.298 130.48C311.885 131.069 319.898 130.924 320.154 130.32C320.395 129.752 315.554 127.163 313.101 126.548C311.77 126.214 311.626 126.341 311.288 128.143ZM315.891 128.706L318.312 130.003L314.95 130.027C311.615 130.051 311.285 129.854 311.915 128.212C312.348 127.082 313.012 127.164 315.891 128.706ZM257.226 133.682C259.445 139.871 265.726 146.243 270.808 147.461L272.256 147.808L271.151 150.305C269.29 154.514 270.687 159.19 274.178 160.434C278.143 161.845 280.088 153.386 276.874 148.709C276.309 147.886 276.393 147.543 277.412 146.524C278.763 145.173 280.673 140.449 281.551 136.289C281.869 134.781 282.211 133.457 282.311 133.346C282.412 133.235 284.111 133.715 286.086 134.413L289.678 135.681L289.359 140.532C288.584 152.289 285.324 160.964 280.351 164.505C278.253 165.999 273.847 166.503 271.027 165.572C268.115 164.611 264.25 161.305 261.183 157.15C257.672 152.393 247.821 132.808 248.775 132.479C249.529 132.219 252.334 131.884 254.862 131.751C256.3 131.676 256.592 131.914 257.226 133.682ZM249.694 137.448C250.873 139.888 251.666 141.896 251.454 141.909C251.243 141.922 248.165 142.264 244.615 142.668C241.065 143.073 238.019 143.244 237.847 143.048C237.439 142.585 235.201 137.027 235.201 136.478C235.201 135.733 245.608 132.65 247.158 132.937C247.373 132.977 248.514 135.007 249.694 137.448ZM296.414 139.223L300.829 141.941V144.37C300.829 146.651 300.756 146.775 299.619 146.393C298.953 146.169 296.593 145.487 294.374 144.878L290.339 143.768L290.499 140.137C290.606 137.682 290.875 136.506 291.328 136.506C291.697 136.506 293.985 137.729 296.414 139.223ZM235.121 139.913C241.226 156.23 239.183 175.173 229.385 193.088C228.304 195.065 227.536 196.792 227.679 196.924C227.822 197.056 229.875 196.82 232.242 196.399C234.687 195.964 241.775 195.523 248.649 195.378C259.589 195.148 260.769 195.033 260.922 194.191C261.434 191.378 262.25 189.762 263.158 189.762C264.255 189.762 264.784 190.775 264.796 192.899C264.809 195.209 265.41 195.611 269.105 195.785C272.221 195.931 272.605 196.072 272.755 197.129C272.925 198.319 271.753 198.869 267.477 199.605C266.738 199.732 267.653 199.869 269.511 199.91C272.105 199.965 272.969 200.188 273.23 200.868C273.726 202.161 271.977 203.196 269.123 203.296C267.026 203.37 266.943 203.41 268.553 203.576C271.952 203.926 272.857 204.281 272.857 205.265C272.857 205.792 272.554 206.543 272.184 206.936C271.641 207.511 271.667 207.601 272.319 207.405C273.555 207.032 273.691 203.9 272.484 203.587C269.759 202.881 276.698 203.357 282.808 204.296C291.285 205.598 297.984 207.223 301.771 208.896L304.595 210.144V212.927C304.595 215.556 304.529 215.689 303.384 215.358C294.661 212.835 286.507 211.509 273.459 210.493C268.541 210.11 264.983 209.767 265.55 209.731C266.117 209.695 266.449 209.534 266.289 209.374C265.646 208.731 258.284 211.094 252.694 213.737C244.853 217.444 239.852 219.189 234.276 220.161C222.953 222.135 212.244 220.166 207.048 215.153C202.531 210.796 201.014 205.547 201.111 194.603C201.171 187.797 201.387 186.005 202.809 180.537C207.665 161.852 218.635 145.452 231.012 138.376C232.28 137.65 233.482 137.054 233.683 137.051C233.884 137.047 234.531 138.335 235.121 139.913ZM306.274 147.13C308.178 149.423 310.585 152.389 311.623 153.72C312.662 155.052 314.759 157.732 316.285 159.675L319.058 163.209L317.479 165.592C315.772 168.169 312.99 174.667 313.414 175.091C313.556 175.234 314.924 172.844 316.453 169.78C319.4 163.875 324.975 154.796 325.654 154.796C325.877 154.796 327.454 155.159 329.158 155.603C330.862 156.047 333.294 156.41 334.563 156.41C335.833 156.41 336.871 156.645 336.871 156.934C336.871 157.691 339.812 159.1 341.392 159.1C343.348 159.1 343.527 160.867 343.161 176.53C342.8 191.948 342.145 196.072 339.156 201.775C335.725 208.321 330.675 211.009 321.809 211.01C317.382 211.01 316.285 210.816 313.604 209.56C311.902 208.762 309.15 206.826 307.487 205.257L304.465 202.403L304.792 198.638C304.971 196.567 305.748 191.725 306.518 187.879C308.506 177.945 308.219 173.989 304.841 164.748C302.353 157.939 302.279 157.56 302.034 150.358C301.88 145.831 301.983 142.961 302.298 142.961C302.581 142.961 304.37 144.838 306.274 147.13ZM327.693 148.959C326.749 150.838 324.506 154.651 322.709 157.432L319.441 162.489L317.617 160.391C316.613 159.237 315.333 157.653 314.771 156.872L313.749 155.451L317.376 153.284C319.37 152.093 322.798 149.768 324.994 148.118C327.189 146.468 329.081 145.213 329.198 145.33C329.315 145.447 328.638 147.08 327.693 148.959ZM256.217 150.993L258.137 154.713L255.141 155.009C253.494 155.171 249.528 155.578 246.329 155.913C243.13 156.247 240.363 156.372 240.181 156.189C239.85 155.858 238.866 148.8 239.116 148.551C239.252 148.414 249.873 147.47 252.684 147.345C254.159 147.279 254.463 147.593 256.217 150.993ZM294.374 149.992C300.085 151.285 300.635 151.694 300.976 154.905C301.142 156.472 301.432 158.144 301.62 158.62C301.917 159.372 301.373 159.327 297.444 158.278C294.96 157.614 291.663 156.898 290.117 156.685C287.993 156.393 287.38 156.111 287.604 155.528C287.767 155.103 288.288 153.424 288.761 151.795C289.427 149.505 289.825 148.89 290.519 149.079C291.012 149.213 292.747 149.624 294.374 149.992ZM344.066 151.09C344.761 153.078 344.062 155.267 342.506 155.976C339.916 157.156 337.975 153.455 339.596 150.426C340.469 148.795 343.418 149.233 344.066 151.09ZM273.37 156.364C273.711 157.002 274.708 157.668 275.584 157.843C276.859 158.098 277.055 158.309 276.565 158.899C275.771 159.857 273.7 159.847 272.9 158.883C271.798 157.555 271.205 154.592 271.598 152.375L271.979 150.224L272.364 152.713C272.575 154.083 273.028 155.726 273.37 156.364ZM264.876 162.627C266.317 163.975 268.521 165.543 269.773 166.112C274.502 168.258 280.337 166.942 283.591 162.994L285.179 161.067L290.987 162.013C294.181 162.534 298.473 163.604 300.525 164.392C304.178 165.794 304.275 165.882 305.22 168.618C305.752 170.154 306.35 172.433 306.55 173.683C306.883 175.767 306.828 175.921 305.888 175.55C300.091 173.264 284.769 170.511 270.974 169.277C264.283 168.679 243.138 168.964 240.13 169.694C238.89 169.994 238.877 169.952 239.232 166.836C239.874 161.207 239.176 161.592 250.263 160.755C262.018 159.868 261.912 159.854 264.876 162.627ZM283.346 175.706C296.092 177.656 306.747 180.41 306.747 181.754C306.747 182.384 305.085 190.519 304.922 190.687C304.859 190.751 303.047 190.192 300.895 189.443C293.291 186.799 282.941 185.079 267 183.809C261.099 183.339 256.432 183.348 247.365 183.842C240.822 184.199 235.288 184.602 235.067 184.738C234.425 185.129 234.588 184.402 236.231 179.541L237.776 174.969L243.078 174.631C253.598 173.962 275.831 174.555 283.346 175.706ZM261.678 189.358C261.375 189.729 260.857 191.039 260.528 192.272L259.929 194.514L253.886 194.223C248.547 193.966 239.631 194.479 231.792 195.494L229.189 195.83L230.577 193.09C232.276 189.739 231.891 189.832 246.229 189.273C263.233 188.609 262.297 188.604 261.678 189.358ZM279.043 190.092C288.048 191.138 295.57 192.658 300.164 194.361L303.817 195.715L303.802 200.006C303.79 203.611 303.659 204.243 302.981 203.956C298.594 202.097 285.828 199.258 279.043 198.63C274.063 198.17 273.395 197.946 273.395 196.738C273.395 195.29 271.626 194.526 268.703 194.712L266.189 194.872L265.704 192.452C265.437 191.12 264.967 189.724 264.659 189.348C264.015 188.561 267.342 188.733 279.043 190.092ZM267.746 208.59C267.068 208.881 266.969 209.052 267.477 209.052C267.921 209.052 268.768 208.844 269.36 208.59C270.038 208.298 270.137 208.128 269.629 208.128C269.185 208.128 268.338 208.335 267.746 208.59Z" fill="black"/>
<ellipse cx="301.249" cy="28.3155" rx="27.0151" ry="27.8155" fill="white"/>
<path fill-rule="evenodd" clip-rule="evenodd" d="M296.423 0.916919C290.519 2.15561 286.182 4.48172 281.689 9.35923C276.237 15.2765 274.234 20.9477 274.234 28.5652C274.234 37.3937 277.742 44.9455 284.517 50.7023C289.25 54.7246 294.935 56.7809 301.32 56.7809C320.675 56.7809 333.647 38.0829 327.402 19.1875C324.677 10.9417 317.725 4.12111 309.431 1.55447C305.884 0.456261 299.994 0.168101 296.423 0.916919ZM306.683 2.14801C316.733 4.07108 324.568 11.7121 327.253 22.2072C329.847 32.3493 325.874 43.9205 317.685 50.0764C312.652 53.8601 308.122 55.3513 301.627 55.3633C296.287 55.3733 291.729 54.009 287.375 51.0965C271.74 40.6399 271.403 16.4008 286.75 6.19827C292.855 2.1396 299.54 0.781243 306.683 2.14801ZM300.626 10.5447C298.865 10.8252 296.254 11.3575 294.823 11.7274C291.334 12.6295 284.639 15.9669 282.425 17.9084L280.633 19.4797L281.103 21.7217C281.733 24.7246 283.875 29.8943 286.011 33.5691C287.947 36.9014 292.157 41.4908 295.824 44.2667C298.58 46.3539 304.148 49.1767 305.508 49.1767C306.411 49.1767 310.469 45.3005 312.154 42.8303C315.494 37.9308 318.458 29.023 319.189 21.6861C319.563 17.9324 319.214 13.4931 318.474 12.6018C317.886 11.893 314.354 10.7984 311.172 10.3382C307.828 9.85471 304.55 9.91874 300.626 10.5447ZM313.943 11.791C318.654 12.7639 318.436 12.487 318.436 17.5206C318.436 28.5043 314.747 38.7324 308.211 45.8732L305.769 48.5411L303.613 47.645C295.667 44.3428 289.765 38.7408 285.47 30.4246C283.794 27.1796 281.616 21.3615 281.616 20.1296C281.616 19.3812 286.251 16.165 289.366 14.7526C296.502 11.5172 306.68 10.291 313.943 11.791ZM302.867 14.7807C297.594 15.435 290.034 17.7179 286.618 19.6878C285.168 20.5247 285.026 20.7492 285.106 22.0871C285.323 25.7344 290.163 33.8285 294.972 38.5887C297.68 41.2694 304.241 45.9749 305.271 45.9749C305.647 45.9749 310.068 39.0902 311.439 36.3695C313.176 32.9224 314.401 28.9554 315.252 24.023C316.154 18.7905 316.249 15.8332 315.535 15.2413C314.823 14.6514 306.383 14.344 302.867 14.7807ZM313.377 15.4122L315.234 15.6668L315.231 17.7135C315.225 22.1616 313.563 29.5485 311.574 33.9682C310.122 37.1968 305.592 45.1744 305.212 45.1744C305.058 45.1744 303.546 44.2699 301.852 43.1641C295.469 38.9974 288.899 31.0806 286.327 24.4577L285.137 21.3935L285.994 20.7C288.079 19.0114 297.192 16.2343 302.828 15.5695C306.247 15.1665 311.06 15.0944 313.377 15.4122ZM299.707 18.0609C299.478 18.337 299.231 19.1787 299.158 19.9311C298.977 21.8046 298.137 21.9627 297.803 20.1861C297.376 17.9124 295.624 18.5776 295.624 21.0129C295.624 22.0491 295.445 22.3313 294.723 22.4337C294.132 22.5178 293.823 22.8368 293.823 23.3622C293.823 23.9998 294.046 24.1367 294.923 24.0338C295.8 23.9314 296.024 24.0678 296.024 24.7074C296.024 25.4886 298.101 33.8877 298.632 35.2521C298.831 35.7616 298.634 36.0021 297.861 36.1962C296.779 36.4676 296.664 36.6889 297.066 37.7347C297.236 38.1769 297.601 38.2914 298.291 38.1181C298.993 37.942 299.496 38.1101 300.053 38.7076C301.057 39.785 302.079 39.4216 301.935 38.0388C301.808 36.813 303.125 36.2859 303.709 37.3288C303.907 37.6818 304.442 37.9704 304.899 37.9704C305.607 37.9704 305.694 37.7947 305.49 36.7745C305.284 35.7452 305.413 35.4942 306.416 34.9755C307.973 34.1707 308.831 32.8672 308.831 31.3067C308.831 29.8022 307.464 28.5203 305.459 28.1441L304.171 27.9024L305.5 26.5728C306.795 25.2781 307.089 24.3024 306.581 22.98C306.263 22.1496 304.357 21.161 303.074 21.161C302.084 21.161 301.976 20.9945 301.456 18.6596C301.197 17.4958 300.402 17.2236 299.707 18.0609ZM303.654 23.1761C304.922 23.8549 304.584 25.0552 302.808 26.1762C301.917 26.7385 300.764 27.3601 300.246 27.557C299.385 27.8844 299.283 27.7895 299.038 26.4388C298.891 25.6271 298.676 24.5705 298.562 24.0907C298.383 23.347 298.55 23.1942 299.689 23.0541C302.224 22.7431 302.883 22.7631 303.654 23.1761ZM306.316 30.481C306.851 31.0161 306.916 31.3451 306.592 31.8746C306.069 32.7283 301.52 35.2269 301.182 34.8451C301.048 34.693 300.658 33.4239 300.316 32.0251L299.694 29.4817L302.655 29.6313C304.793 29.739 305.81 29.9755 306.316 30.481Z" fill="black"/>
<line x1="198.003" y1="183" x2="0.00251791" y2="184" stroke="#121A17"/>
<circle r="3.5" transform="matrix(-1 0 0 1 198.5 183)" fill="#121A17"/>
</svg>
