<svg width="183" height="225" viewBox="0 0 183 225" fill="none" xmlns="http://www.w3.org/2000/svg">
<path fill-rule="evenodd" clip-rule="evenodd" d="M140.546 1.06909C121.483 1.91445 108.117 3.18574 107.07 4.25291C106.368 4.96907 106.844 18.2766 108.137 34.0582C108.815 42.3318 109.491 49.3667 109.638 49.6911C109.947 50.3684 109.68 45.5345 108.397 27.2617C107.896 20.1165 107.564 12.1709 107.66 9.60469C107.828 5.09945 107.889 4.92365 109.417 4.5166C114.167 3.25004 154.993 1.3847 170.563 1.72273L179.068 1.90737L179.545 3.67714C181.029 9.18407 181.575 52.8378 180.176 54.1981C179.093 55.2506 159.842 56.8782 129.053 58.5193C119.976 59.0031 110.693 59.7983 108.424 60.2867C106.155 60.7746 103.945 61.1787 103.514 61.1846C103.082 61.1899 104.474 59.2803 106.608 56.9407C108.929 54.3952 110.459 52.2042 110.418 51.4839C110.352 50.3117 110.342 50.3111 110.054 51.4503C109.891 52.0939 108.027 54.5556 105.912 56.9212C103.797 59.2868 102.228 61.384 102.425 61.5816C102.624 61.7798 105.247 61.4866 108.257 60.9303C111.266 60.374 119.298 59.6768 126.106 59.3806C154.466 58.1477 176.734 56.4393 179.836 55.2588C180.575 54.9774 181.387 54.0076 181.639 53.1038C181.892 52.2001 182.068 42.966 182.032 32.5834C181.968 13.9996 181.221 2.74742 179.948 1.21304C179.213 0.326971 158.959 0.252641 140.546 1.06909ZM157.319 8.73101C157.105 9.07671 157.399 9.70262 157.972 10.1221C159.051 10.912 158.014 11.6505 148.354 16.9693L145.848 18.3485L144.136 16.7074C142.99 15.6083 142.065 15.1871 141.338 15.4331C139.258 16.1357 123.762 27.877 123.565 28.8993C123.456 29.4656 123.652 29.9287 124.001 29.9287C124.35 29.9287 128.509 26.9862 133.244 23.39L141.851 16.8513L143.545 18.4754C145.594 20.4404 145.735 20.3938 154.465 14.8426C157.745 12.7572 160.596 11.0512 160.801 11.0512C161.006 11.0512 161.174 11.4653 161.174 11.9709C161.174 13.3826 162.175 12.4428 162.504 10.7226C162.736 9.50794 162.502 9.08438 161.357 8.64901C159.449 7.92282 157.797 7.95585 157.319 8.73101ZM53.9049 16.4537C52.4461 16.7487 48.733 17.1946 45.6534 17.4454C38.5807 18.0211 35.6054 19.5354 33.4689 23.646C32.1745 26.1379 32.3743 33.7579 33.8502 38.1416C34.5068 40.0931 35.0443 42.6079 35.0443 43.7305C35.0443 45.2042 35.4533 46.0932 36.5178 46.9309C37.3282 47.5692 37.9913 48.4806 37.9913 48.9561C37.9913 49.4322 38.6543 50.7996 39.4647 51.9948C40.5775 53.6359 40.9382 54.9326 40.9382 57.2923V60.4171L36.7129 62.1196C29.56 65.002 20.9201 71.2363 15.8224 77.1945C14.5888 78.6369 12.9609 79.6704 10.8161 80.3736C6.44518 81.8059 2.56107 83.8205 1.15419 85.3844C0.152814 86.4982 -0.0133942 87.4615 0.0484921 91.7898C0.136901 97.961 3.69978 123.239 6.18231 135.315C9.06562 149.339 15.0456 170.908 16.0564 170.929C17.9873 170.97 17.9065 172.069 15.0574 184.523C10.5279 204.321 7.78663 218.063 8.16856 219.059C8.77682 220.647 10.436 219.677 11.2988 217.229C12.8825 212.736 23.326 176.102 23.0902 175.867C22.96 175.736 19.9883 185.123 16.4861 196.725C10.7047 215.878 9.08035 220.593 9.12691 218.085C9.15108 216.769 18.3769 172.658 18.6939 172.341C18.8478 172.187 20.0372 172.231 21.338 172.439C23.3525 172.762 23.6667 173.004 23.4627 174.081L23.2234 175.345L23.7769 174.108C24.2843 172.974 24.6162 172.909 27.7718 173.328C32.6413 173.974 46.9406 174.979 60.3016 175.613C66.5751 175.91 71.8324 176.279 71.9851 176.432C72.1377 176.584 73.9584 186.888 76.0307 199.329C78.1036 211.77 80.0763 222.565 80.4146 223.318C80.793 224.16 81.4248 224.607 82.0549 224.478C82.9366 224.298 83.0568 223.654 82.9142 219.864C82.7486 215.448 79.5712 182.594 78.9087 178.442C78.5686 176.309 78.6175 176.23 80.2814 176.23C81.9989 176.23 82.0396 176.313 88.3761 192.895C95.9681 212.76 96.0659 212.972 97.4546 212.53C98.2815 212.268 98.6575 212.701 99.2127 214.556C100.238 217.98 101.225 218.289 110.129 217.966C118.414 217.666 121.867 216.843 121.561 215.244C121.341 214.097 116.295 211.218 113.574 210.686L111.651 210.311L111.806 188.19L111.96 166.069L116.308 164.342C118.7 163.392 120.726 162.692 120.812 162.786C120.896 162.88 122.631 172.988 124.666 185.248C126.701 197.509 128.681 207.972 129.066 208.499C129.503 209.097 130.156 209.307 130.804 209.058C131.721 208.707 131.796 208.127 131.448 204.096C130.7 195.446 127.551 164.134 127.339 163.251C126.695 160.568 127.199 168.72 128.762 186.258C129.731 197.128 130.516 206.552 130.507 207.201C130.475 209.437 129.523 206.805 128.8 202.481C128.42 200.21 126.651 190.29 124.869 180.436C123.087 170.582 121.708 162.453 121.805 162.369C121.901 162.286 123.467 162.1 125.286 161.955L128.593 161.693L135.828 180.022C144.781 202.705 146.212 205.936 147.07 205.405C147.459 205.165 149.126 206.533 151.082 208.695C154.292 212.242 154.518 212.379 156.558 211.995C159.563 211.431 170.332 206.053 172.2 204.182C173.7 202.681 173.718 202.587 172.66 201.813C171.926 201.275 169.829 201.006 166.378 201.006C160.425 201.006 161.206 201.967 159.668 192.747C156.768 175.367 151.588 152.997 148.969 146.543C145.655 138.375 143.461 135.452 137.978 131.9C130.738 127.208 121.595 124.631 109.695 123.926L103.119 123.536L101.853 120.922L100.586 118.307L102.442 117.553C103.463 117.138 108.733 115.14 114.153 113.113C119.574 111.086 124.479 109.084 125.055 108.663C126.052 107.932 126.054 107.675 125.078 102.981C124.107 98.3126 124.107 98.0288 125.081 97.3475C127.224 95.8473 127.579 95.3122 127.579 93.5826C127.579 92.5449 127.825 91.9532 128.168 92.1656C128.493 92.3662 128.758 93.3106 128.758 94.2651C128.758 96.2673 129.302 96.38 132.884 95.1152C134.262 94.6285 135.769 94.2303 136.234 94.2303C137.81 94.2303 136.437 95.2857 133.475 96.3517C131.853 96.9351 130.526 97.7586 130.526 98.1816C130.526 99.1438 130.296 99.1686 134.357 97.7699C136.241 97.1209 138.206 96.6018 138.723 96.616C139.982 96.6508 136.16 98.6335 133.031 99.5679C128.582 100.897 130.3 101.939 134.854 100.673C136.1 100.327 137.255 100.179 137.419 100.343C137.794 100.718 131.614 103.838 128.463 104.864C127.166 105.286 126.411 105.734 126.784 105.86C127.158 105.986 129.642 105.247 132.306 104.219C137.03 102.395 139.712 100.577 139.112 99.6039C138.948 99.3384 139.465 98.5084 140.262 97.7598C141.368 96.7192 141.555 96.2119 141.055 95.609C140.696 95.1754 140.036 94.8202 139.59 94.8202C139.143 94.8202 138.777 94.4138 138.777 93.9171C138.777 93.4198 138.44 92.8835 138.027 92.7248C137.357 92.4676 133.614 93.4127 131.048 94.4869C130.324 94.7901 130.009 94.445 129.729 93.041C129.43 91.545 129.108 91.2329 128.028 91.3863C126.968 91.5367 126.635 92.0458 126.4 93.8711C126.186 95.5429 125.754 96.2962 124.809 96.6431C123.796 97.0153 123.434 96.8684 123.149 95.97C122.659 94.425 121.474 94.4887 111.569 96.59C106.981 97.5634 102.806 98.3592 102.289 98.3586C101.773 98.358 100.629 97.2136 99.7461 95.8148L98.1412 93.2717L98.5096 82.6324C98.875 72.0811 98.8667 71.9814 97.5211 70.6346C96.1832 69.2954 96.0318 69.2819 86.8296 69.6618L77.4948 70.0464L74.747 67.9469C73.2352 66.7924 70.9112 65.2987 69.5821 64.6286C66.4 63.0228 66.4731 63.1703 68.0373 61.5032C69.3104 60.1469 69.3776 59.7298 69.0075 55.4588C68.7888 52.9357 68.3609 47.6659 68.0568 43.7488C67.7527 39.8312 67.333 36.1813 67.1244 35.6374C66.8126 34.8227 67.1261 34.6481 68.8979 34.6481C71.246 34.6481 73.9442 32.5627 73.9442 30.7487C73.9442 30.1965 74.6497 28.8191 75.5126 27.6876C76.5217 26.3626 77.1753 24.6424 77.3462 22.8597C77.5849 20.3726 77.4435 19.9567 75.9588 18.7874C74.6586 17.7639 73.6065 17.5055 71.0303 17.5775C69.2291 17.6276 66.1643 17.246 64.2193 16.7286C60.3505 15.7004 57.9511 15.6367 53.9049 16.4537ZM155.281 16.9374C154.534 17.4094 154.369 20.2103 154.224 34.9796L154.051 52.4626L160.412 52.0461C163.911 51.8166 167.015 51.4031 167.309 51.127C167.932 50.543 166.932 18.1615 166.257 17.069C165.727 16.2106 156.603 16.1015 155.281 16.9374ZM164.645 17.4872C165.527 18.0459 166.391 30.8148 166.449 44.147L166.479 50.9919L160.799 51.3913C157.675 51.6113 155.038 51.7098 154.939 51.6107C154.84 51.5116 154.943 43.8833 155.167 34.6587L155.575 17.8866L157.049 17.4772C159.198 16.8802 163.697 16.8861 164.645 17.4872ZM137.368 24.3445C136.551 25.1627 136.42 27.2003 136.42 39.1144V52.9357L140.988 52.9292C143.5 52.9257 146.576 52.754 147.824 52.5475L150.093 52.1723L149.664 39.8671C149.429 33.099 149.061 26.7007 148.847 25.6482L148.457 23.7345L143.387 23.5652C139.352 23.4301 138.123 23.5894 137.368 24.3445ZM147.014 24.5976C147.706 25.0359 147.996 27.7796 148.442 38.1528C148.749 45.3056 148.876 51.2839 148.723 51.4367C148.57 51.5901 145.882 51.8957 142.75 52.1163L137.055 52.5169L137.376 39.3055C137.552 32.0395 137.791 25.7816 137.908 25.3993C138.261 24.2371 145.445 23.6042 147.014 24.5976ZM124.362 31.6035C122.537 31.9085 121.939 32.3155 121.62 33.4683C120.923 35.9943 121.023 53.4106 121.737 53.8524C122.09 54.0707 125.14 54.0613 128.515 53.8306L134.652 53.4124L134.636 48.3072C134.62 43.2486 133.755 32.3745 133.336 31.9545C132.864 31.482 126.563 31.2354 124.362 31.6035ZM132.506 33.6423C132.693 34.3868 133.027 39.0324 133.25 43.9659L133.654 52.9357H131.292C129.994 52.9357 127.319 53.1044 125.349 53.3103L121.768 53.6849L122.057 44.6089C122.216 39.617 122.463 34.9549 122.606 34.2487C122.914 32.719 123.769 32.4471 128.547 32.3568C131.857 32.2943 132.195 32.404 132.506 33.6423ZM66.3859 37.5977C66.6051 39.0578 66.8037 42.4097 66.8279 45.0473C66.8792 50.6952 66.2556 51.6969 63.5621 50.2911C61.0418 48.9756 57.4613 49.1885 54.1854 50.8486C52.0919 51.9092 51.1153 52.1316 50.563 51.6727C48.8891 50.2822 46.6907 44.6042 46.3942 40.9066C46.1119 37.3895 46.1874 37.0768 47.4929 36.3506C48.8927 35.5713 57.4654 34.7608 63.0405 34.8799L65.9874 34.9431L66.3859 37.5977ZM60.9776 38.1876C60.3381 38.6012 60.8267 38.7504 62.7458 38.7268C64.7644 38.7026 65.1163 38.5734 64.2193 38.1876C62.6415 37.5092 62.0267 37.5092 60.9776 38.1876ZM49.2369 39.6052C48.6552 40.3072 48.9333 40.3473 51.0634 39.8677C54.3098 39.138 54.6233 38.7776 52.0123 38.7776C50.8636 38.7776 49.6147 39.1498 49.2369 39.6052ZM40.4638 41.2847C40.9754 41.6906 41.9726 43.8804 42.6805 46.1516C43.3877 48.4228 44.4475 51.2102 45.0351 52.3458C45.6227 53.4814 46.2834 55.67 46.5033 57.2097C46.9801 60.5457 49.007 63.1986 51.8709 64.2351C53.1339 64.6923 53.9049 65.3624 53.9049 66.0025C53.9049 66.9647 53.7564 66.9717 51.6947 66.1128C48.9817 64.9831 44.5394 62.4807 43.1485 61.2985C42.2903 60.5687 42.117 59.4066 42.117 54.3674C42.117 46.8282 41.985 46.4466 39.5213 46.8465C38.1946 47.0618 37.304 46.8542 36.6203 46.1699C33.8437 43.3908 37.4078 38.8607 40.4638 41.2847ZM62.5401 41.4133C62.124 42.4976 63.2291 43.2492 64.0424 42.4351C64.6713 41.8056 64.2193 40.5473 63.3635 40.5473C63.0929 40.5473 62.7222 40.9373 62.5401 41.4133ZM52.7261 42.3171C52.7261 43.0775 53.0243 43.4958 53.4628 43.3495C53.8683 43.2144 54.1996 42.7495 54.1996 42.3171C54.1996 41.8847 53.8683 41.4198 53.4628 41.2847C53.0243 41.1384 52.7261 41.5567 52.7261 42.3171ZM59.5548 44.4762C59.82 46.4507 59.6744 47.0518 58.8104 47.555C57.6505 48.2305 58.521 48.444 60.0452 47.8582C61.1862 47.4199 61.1957 46.1268 60.0746 43.7919L59.2253 42.0221L59.5548 44.4762ZM60.9776 54.4105C60.1589 55.398 58.2835 55.5921 57.7595 54.7438C57.5721 54.44 58.2858 54.0843 59.3456 53.9533C60.4053 53.8218 61.3713 53.6719 61.4915 53.62C61.6124 53.5681 61.3813 53.9238 60.9776 54.4105ZM42.6156 62.3001C43.4762 62.9084 46.1691 64.3997 48.6003 65.6143C51.0316 66.8284 53.1051 67.8979 53.2088 67.9899C53.3119 68.0826 52.7721 69.3881 52.0088 70.8912L50.6214 73.6243L47.695 72.0805C44.1899 70.2317 36.2231 64.2475 36.2231 63.4635C36.2231 62.9432 39.4512 61.269 40.5528 61.2176C40.8268 61.2052 41.7551 61.6925 42.6156 62.3001ZM37.4514 65.9777C40.6182 68.9262 46.1738 72.7778 48.9115 73.9228C50.8182 74.7204 50.9756 74.6938 51.7848 73.4373C52.2552 72.7064 52.9677 71.3779 53.3674 70.4859C53.767 69.5934 54.2503 68.8642 54.4418 68.8648C55.02 68.866 64.514 95.2574 64.514 96.8649C64.514 97.9386 64.1992 98.3598 63.3982 98.3598C61.9884 98.3598 61.5411 99.5119 61.956 102.073C62.3733 104.647 61.4957 105.018 57.0021 104.169C53.6844 103.543 41.7581 103.809 36.3215 104.631L33.7683 105.018L34.2586 102.131C35.6584 93.8994 34.4313 81.4939 31.8728 78.0074C31.2427 77.1491 31.3123 77.7355 32.1286 80.1595C33.8054 85.1431 34.4861 92.6481 33.8331 98.965C33.5254 101.941 33.1388 104.595 32.9732 104.862C32.8081 105.13 31.3329 105.794 29.6944 106.338C28.0565 106.884 26.8246 107.438 26.9572 107.57C27.0898 107.702 28.2568 107.438 29.5506 106.98C30.8443 106.524 33.7877 105.857 36.0911 105.5C40.7685 104.773 56.7693 104.627 57.8261 105.3C58.5063 105.734 59.7988 111.511 59.7988 114.116C59.7988 116.881 48.628 122.519 31.2156 128.542C26.5936 130.141 21.9291 131.39 20.6065 131.382C15.5201 131.355 10.179 127.321 7.41355 121.417C5.95303 118.302 5.87229 117.641 5.91826 109.273C5.96187 101.415 6.14694 99.8334 7.57092 95.1441C11.5399 82.0744 18.5507 73.1429 30.3168 66.1677C32.7415 64.73 34.7526 63.5543 34.7867 63.5543C34.8203 63.5543 36.0197 64.6451 37.4514 65.9777ZM69.8987 65.5146C73.8594 67.9015 76.2588 69.6276 76.2835 70.1072C76.2936 70.3042 74.7122 70.6316 72.769 70.8351C70.8258 71.0381 68.3462 71.5767 67.2576 72.0321C64.824 73.0497 64.5411 74.3576 64.4933 84.7915L64.4597 92.1656L61.5988 84.3833C60.0251 80.1028 58.0477 75.0932 57.2055 73.2509C55.2198 68.9102 55.2911 68.1103 57.4501 70.4859C58.4084 71.5401 59.4522 72.4032 59.7693 72.4032C60.0858 72.4032 60.845 70.7738 61.4562 68.7822C62.3497 65.868 62.9002 65.0144 64.277 64.4056C66.591 63.3838 66.2521 63.3166 69.8987 65.5146ZM60.9776 66.1211C60.9776 67.1416 59.7687 70.6334 59.4151 70.6334C58.5428 70.6334 55.0837 67.2177 55.0837 66.3565C55.0837 65.5111 55.6171 65.3241 58.0306 65.3241C60.1124 65.3241 60.9776 65.5583 60.9776 66.1211ZM97.283 72.5589C97.7404 73.0173 96.5669 102.998 95.9404 106.863C95.5402 109.334 95.1942 109.467 84.535 111.289C75.9553 112.756 68.6315 113.428 68.6662 112.747C68.681 112.459 70.0737 111.559 71.7605 110.748C73.5358 109.895 74.8325 108.879 74.8378 108.337C74.8431 107.822 75.2957 106.951 75.8444 106.403C76.7881 105.458 76.7056 103.669 75.7183 103.669C75.4666 103.669 75.1219 103.138 74.9521 102.489C74.5749 101.045 72.4519 100.932 69.433 102.194C68.269 102.681 67.2169 103.079 67.0943 103.079C66.5986 103.079 66.9116 77.0936 67.4238 75.7457C67.8941 74.5068 68.5696 74.193 71.9916 73.6225C81.2781 72.074 96.1738 71.4481 97.283 72.5589ZM58.6289 74.6154C58.6342 74.8584 58.8847 75.4483 59.1864 75.9256C59.8654 77.0004 60.6623 76.3279 60.1849 75.0832C59.8324 74.1641 58.6124 73.7971 58.6289 74.6154ZM91.9048 74.7888C91.6956 75.1274 91.8476 75.794 92.2431 76.2707C93.1225 77.332 94.6814 76.3214 94.1805 75.0147C93.8038 74.0325 92.4541 73.8986 91.9048 74.7888ZM61.2764 80.0657C61.0348 80.4568 61.2664 81.2042 61.7921 81.7298C62.5872 82.5262 62.744 82.541 62.7369 81.8207C62.7216 80.3636 61.7862 79.2398 61.2764 80.0657ZM12.5448 81.1045C12.4346 81.3476 11.5151 83.1398 10.502 85.0865C6.40745 92.9543 3.97503 104.315 4.57208 112.782C5.1715 121.283 8.21453 126.87 14.1998 130.462C16.8433 132.047 17.1733 132.509 18.4175 136.361C20.2717 142.102 26.3077 154.013 29.3531 157.94C33.4777 163.261 37.8162 165.451 47.6102 167.159C54.397 168.342 69.1201 168.005 73.6496 166.563C77.5814 165.31 77.8608 165.348 78.5356 167.233C78.8551 168.125 79.6897 170.291 80.3898 172.046L81.6629 175.238L69.11 174.836C46.8274 174.124 23.0154 172.18 18.5767 170.713C16.6529 170.076 16.4265 169.715 14.8293 164.726C12.3309 156.92 8.23457 140.507 6.51237 131.395C4.22022 119.273 0.863032 95.0179 0.861264 90.5687C0.859496 86.756 0.93435 86.5519 2.91412 84.9709C5.52278 82.8873 13.1195 79.838 12.5448 81.1045ZM100.467 98.4335C101.329 99.519 101.605 99.4966 111.371 97.5498C117.886 96.2514 121.635 95.7488 122.089 96.1122C122.875 96.741 124.632 103.893 124.632 106.464C124.632 108.108 124.382 108.235 112.232 112.766C105.413 115.308 99.7526 117.289 99.6547 117.166C98.3622 115.54 96.0282 110.118 96.4432 109.702C96.7373 109.408 97.2282 106.138 97.5341 102.436C97.84 98.7344 98.11 95.5724 98.1347 95.4102C98.1589 95.2479 98.4948 95.6113 98.8809 96.2178C99.2669 96.8236 99.9807 97.8212 100.467 98.4335ZM93.1396 101.256L92.7329 105.921L89.2325 106.328C86.9339 106.595 85.7321 107.002 85.7321 107.512C85.7321 107.94 86.0557 108.398 86.4512 108.53C87.4891 108.876 92.9669 107.804 93.8363 107.084C94.685 106.382 94.8936 96.59 94.0596 96.59C93.7773 96.59 93.3636 98.6895 93.1396 101.256ZM64.1868 101.99C64.3843 103.175 64.9283 104.292 65.3957 104.471C65.8631 104.651 67.7562 104.278 69.6022 103.642C73.8859 102.167 74.5242 102.686 70.5128 104.382C68.8342 105.093 67.4609 106.047 67.4609 106.504C67.4609 107.065 67.7951 107.196 68.4924 106.906C71.1588 105.797 74.5336 104.955 74.5336 105.399C74.5336 105.67 73.0702 106.486 71.282 107.213C67.3012 108.83 66.3853 109.902 69.4802 109.321C70.6849 109.094 72.1159 108.742 72.66 108.538C73.5217 108.216 73.5452 108.296 72.8421 109.161C72.0918 110.084 67.2941 111.837 62.9444 112.776C60.8809 113.222 60.7925 113.091 60.0864 108.546C59.731 106.259 59.8271 105.99 61.2222 105.354C62.5065 104.769 62.7458 104.273 62.7458 102.198C62.7458 100.844 62.9391 99.5426 63.1754 99.306C63.6487 98.8323 63.6711 98.8907 64.1868 101.99ZM98.9935 117.922C100.938 121.83 102.632 125.307 102.757 125.651C102.916 126.084 100.402 126.132 94.5058 125.808C89.8425 125.551 84.8333 125.31 83.3745 125.271L80.7223 125.201L78.314 120.659C76.9896 118.161 75.5592 115.699 75.136 115.188C74.7122 114.677 74.47 114.184 74.5967 114.094C74.724 114.002 78.192 113.459 82.303 112.888C86.414 112.316 90.5251 111.623 91.4386 111.349C95.0893 110.252 95.2414 110.384 98.9935 117.922ZM70.7026 114.061L73.6496 114.415L76.4492 119.364C77.9893 122.086 79.2488 124.544 79.2488 124.824C79.2488 125.105 77.8 125.504 76.0295 125.713C61.1568 127.462 39.3728 140.867 31.5097 153.108L29.4993 156.237L28.4543 154.877C25.7519 151.36 18.5413 135.285 18.5413 132.778C18.5413 132.25 19.3093 131.985 20.8423 131.985C23.6319 131.985 37.4089 127.616 46.0671 123.985C53.9585 120.676 60.9776 116.388 60.9776 114.877C60.9776 113.608 62.6521 113.107 65.6927 113.465C66.8273 113.599 69.0817 113.867 70.7026 114.061ZM77.8566 116.352C78.0435 116.839 78.4331 117.237 78.7225 117.237C79.0118 117.237 79.2488 116.839 79.2488 116.352C79.2488 115.866 78.8592 115.468 78.383 115.468C77.856 115.468 77.6504 115.813 77.8566 116.352ZM81.1278 120.814C81.2692 121.239 81.7337 121.704 82.1592 121.846C82.6012 121.994 82.8223 121.773 82.6749 121.33C82.5329 120.904 82.0684 120.439 81.6435 120.298C81.2014 120.15 80.9804 120.372 81.1278 120.814ZM100.649 130.263C104.567 132.861 108.47 137.446 109.798 141.01C110.951 144.103 112.255 153.729 112.255 159.145V162.071L115.349 162.12L118.443 162.168L115.273 163.616C113.529 164.413 112.05 164.989 111.987 164.895C111.922 164.802 111.554 160.744 111.167 155.877C110.78 151.01 110.094 145.631 109.642 143.923C108.17 138.358 104.642 133.71 99.0583 129.978C97.7976 129.135 97.0231 128.446 97.3367 128.446C97.6502 128.446 99.1408 129.264 100.649 130.263ZM21.378 166.604C21.803 166.774 22.3116 166.753 22.5073 166.557C22.703 166.361 22.3553 166.222 21.734 166.248C21.0474 166.276 20.9077 166.416 21.378 166.604ZM23.2564 166.952C23.7674 167.508 36.051 169.117 48.9333 170.315C62.5442 171.58 77.9474 172.453 77.4765 171.931C77.3126 171.75 70.1515 171.039 61.5629 170.352C47.1428 169.198 33.0958 167.875 25.9087 166.993C24.2879 166.794 23.0944 166.775 23.2564 166.952ZM78.3164 178.737C79.1763 185.508 82.2417 222.985 81.9588 223.268C81.4301 223.796 81.2474 222.905 77.203 200.121C75.0718 188.117 73.1839 177.829 73.0071 177.262C72.7342 176.384 73.0831 176.23 75.3417 176.23H77.9975L78.3164 178.737ZM170.457 201.968C171.187 202.164 171.784 202.627 171.784 202.997C171.784 204.312 160.714 209.977 156.49 210.823C154.903 211.14 154.396 210.853 152.075 208.323C150.633 206.75 149.568 205.348 149.709 205.206C149.85 205.064 152.687 204.225 156.013 203.34C161.852 201.786 167.706 201.23 170.457 201.968ZM116.568 212.713C120.729 214.602 121.349 215.405 119.18 216.101C117.197 216.737 107.663 217.271 104.298 216.934C101.639 216.668 101.251 216.438 100.321 214.575C99.755 213.439 99.5298 212.43 99.8204 212.333C101.85 211.653 109.34 210.558 110.821 210.724C111.816 210.835 114.402 211.731 116.568 212.713Z" fill="black"/>
</svg>
