<svg width="416" height="224" viewBox="0 0 416 224" fill="none" xmlns="http://www.w3.org/2000/svg">
<path fill-rule="evenodd" clip-rule="evenodd" d="M254.494 1.78527C251.63 3.20417 248.799 7.05802 248.175 10.3871C247.367 14.6974 250.293 20.1922 254.555 22.3686C256.465 23.3439 257.751 23.5536 260.677 23.3675C265.114 23.0848 268.063 21.101 270.162 16.988C275.175 7.16522 264.513 -3.17944 254.494 1.78527ZM263.7 2.0085C270.758 4.95999 272.726 13.0817 267.827 19.0313C264.644 22.8963 259.964 23.9117 255.237 21.7631C248.712 18.7968 247.063 9.94001 252.078 4.80449C255.587 1.21217 259.529 0.263284 263.7 2.0085ZM254.485 7.28125C254.582 7.92915 254.463 9.21377 254.222 10.1356C253.95 11.1746 254.044 12.1258 254.469 12.6388C255.304 13.6454 254.352 13.7491 253.363 12.759C252.814 12.2094 252.657 12.3302 252.657 13.3026C252.657 15.1609 255.386 18.0635 257.746 18.7161C261.663 19.7981 263.919 17.9292 265.151 12.5823L265.965 9.04826L264.366 7.723C262.391 6.08498 260.814 6.03845 259.424 7.57575C258.063 9.08065 257.471 9.05709 255.727 7.4285C254.373 6.1645 254.316 6.15743 254.485 7.28125ZM305.025 7.86436C301.128 9.13896 296.886 12.6795 294.786 16.4108C293.102 19.4041 292.963 20.0762 292.966 25.2458C292.968 30.174 293.156 31.1989 294.546 33.8394C298.537 41.424 307.449 45.1093 315.872 42.6579C323.936 40.3113 328.253 34.9538 328.955 26.4238C329.54 19.3317 325.476 12.2677 318.876 8.90336C315.204 7.03151 308.996 6.56561 305.025 7.86436ZM263.248 8.75376C263.248 9.07771 262.984 9.34276 262.66 9.34276C262.336 9.34276 262.072 9.07771 262.072 8.75376C262.072 8.4298 262.336 8.16475 262.66 8.16475C262.984 8.16475 263.248 8.4298 263.248 8.75376ZM273.84 12.2878C274.325 12.6017 275.914 12.8444 277.37 12.8261C279.385 12.802 279.737 12.673 278.841 12.2878C277.128 11.5509 272.7 11.5509 273.84 12.2878ZM285.902 13.4658C286.102 13.7897 287.772 14.0283 289.614 13.9959C292.178 13.9511 292.618 13.8268 291.492 13.4658C289.314 12.7678 285.471 12.7678 285.902 13.4658ZM315.305 14.2639C317.093 15.5726 316.055 17.1353 313.693 16.6917C311.153 16.2152 309.699 17.7737 309.29 21.4132L308.986 24.1067L311.345 23.7291C312.73 23.5077 313.856 23.599 314.073 23.9512C314.818 25.1581 313.721 26.2943 311.461 26.6559L309.144 27.027V31.7319C309.144 36.0081 309.039 36.4369 307.994 36.4369C306.414 36.4369 306.055 34.0873 306.298 25.3636C306.468 19.261 306.67 18.0252 307.729 16.5987C309.901 13.6761 313.139 12.6783 315.305 14.2639ZM371.925 21.7684C363.405 23.7751 353.315 32.1819 349.68 40.3025C344.026 52.9372 346.707 67.0102 356.657 76.9161C363.876 84.1019 373.015 87.6294 382.575 86.9185C397.994 85.7723 411.212 73.5847 413.386 58.5086C415.617 43.0402 404.546 26.749 388.618 22.0629C385.122 21.0345 375.743 20.8684 371.925 21.7684ZM390.638 23.9653C395.472 25.7259 401.671 30.0857 404.791 33.9189C413.622 44.7707 414.72 60.1148 407.443 70.9819C406.173 72.8767 404.096 75.4371 402.827 76.6716L400.519 78.9152L400.196 72.5734C399.974 68.2218 400.134 64.9758 400.705 62.2305C401.656 57.6681 401.176 55.7461 398.329 52.7122C396.945 51.2379 396.454 51.0695 394.469 51.3869C391.703 51.8299 391.244 50.7779 392.836 47.6509C394.678 44.0321 393.912 40.696 390.8 38.7935C389.736 38.1432 387.949 37.6461 386.813 37.6844C385.68 37.7227 383.43 37.5654 381.812 37.3357C379.278 36.9764 378.686 37.0924 377.546 38.1733C376.817 38.863 376.222 40.0445 376.222 40.7979C376.222 41.5512 376.817 42.9253 377.546 43.8507C378.465 45.0192 378.96 46.6201 379.164 49.0839C379.351 51.3428 379.722 52.6344 380.182 52.6344C380.581 52.6344 381.303 53.2005 381.786 53.8926C382.271 54.584 383.335 55.3179 384.152 55.5235C385.983 55.9835 385.999 56.8511 384.214 59.0357L382.833 60.725L381.559 59.3302C378.618 56.1101 377.699 55.3079 376.264 54.7042C375.432 54.3543 373.888 52.7511 372.834 51.1425C371.077 48.4602 370.726 48.2169 368.616 48.2169C364.624 48.2169 364.191 48.6451 365.908 50.8975C366.726 51.9718 367.396 53.3418 367.396 53.9432C367.396 54.544 367.947 56.086 368.62 57.3694C369.301 58.667 369.919 61.1067 370.013 62.8666C370.14 65.245 370.861 67.3731 372.914 71.4325L375.647 76.8342L374.661 80.9319C374.119 83.1854 373.631 85.0967 373.575 85.1786C373.333 85.5308 366.394 82.8373 364.147 81.5191C353.272 75.1396 347.361 64.4463 348.181 52.6344C349.154 38.6121 358.406 26.9062 371.515 23.1119C375.673 21.9085 386.29 22.3821 390.638 23.9653ZM225.375 26.18C218.237 27.9099 210.035 33.6132 205.832 39.7706C194.579 56.255 200.131 77.9769 218.002 87.3768C229.293 93.3163 242.245 92.5629 252.474 85.373C267.805 74.5948 271.269 55.9046 260.83 40.2813C252.98 28.5331 238.854 22.9146 225.375 26.18ZM239.83 27.0664C245.395 28.2132 251.366 31.5817 255.893 36.1288C268.772 49.0633 268.699 69.1218 255.729 81.2676C252.192 84.579 243.817 89.4471 241.656 89.4471C241.117 89.4471 240.889 88.4676 240.889 86.1552V82.8632L242.7 84.3882C245.238 86.5262 247.068 86.3478 249.694 83.7043C252.259 81.1221 254.139 76.4849 255.073 70.4382C255.706 66.3405 257.287 62.2458 258.533 61.4748C259.269 61.0195 259.328 56.655 258.604 56.2073C258.314 56.0283 258.551 54.3573 259.13 52.4913C260.176 49.1169 260.175 49.0981 258.942 48.6316C258.261 48.3736 256.538 48.2411 255.115 48.3371L252.526 48.5114L250.529 54.107C249.431 57.1845 248.384 60.166 248.201 60.7332C247.935 61.5631 248.223 61.764 249.676 61.764C252.096 61.764 252.072 63.3354 249.596 67.1604L247.712 70.0713L246.761 66.6539C245.01 60.3645 242.723 57.1097 237.947 54.1123L235.888 52.82L237.653 53.1969C238.624 53.4043 239.887 53.7135 240.46 53.8843C242.172 54.3932 244.638 48.3029 244.68 43.4643C244.783 31.6071 232.505 24.1026 226.177 32.1548C223.042 36.1447 222.347 41.7803 224.427 46.3669C225.908 49.6347 225.888 49.9839 224.224 49.9839C223.473 49.9839 221.553 50.4216 219.958 50.957C215.844 52.3376 209.065 59.3249 205.781 65.5713L203.329 70.2338L202.296 66.7352C200.272 59.8815 201.216 50.9676 204.693 44.1192C208.873 35.8862 217.439 29.2434 226.716 27.0429C229.788 26.3143 236.237 26.3261 239.83 27.0664ZM330.326 32.2709C330.326 32.5283 331.806 33.3063 333.615 33.999C337.376 35.4397 337.387 35.4421 337.387 34.7241C337.387 34.4296 335.799 33.6521 333.857 32.9953C331.915 32.3392 330.326 32.0129 330.326 32.2709ZM286.932 34.065C285.556 34.6899 284.431 35.4792 284.431 35.819C284.431 36.6613 284.416 36.666 288.014 34.6805C291.562 32.7232 290.817 32.2997 286.932 34.065ZM341.212 36.8969C342.157 37.9147 347.901 39.9838 348.243 39.4296C348.415 39.1522 347.285 38.509 345.734 38.0007C344.182 37.493 342.397 36.8939 341.768 36.6701C340.966 36.385 340.799 36.4534 341.212 36.8969ZM276.635 39.1804C275.421 39.6846 274.428 40.3373 274.428 40.6306C274.428 41.206 278.477 39.684 279.4 38.7623C280.206 37.9571 279.224 38.1055 276.635 39.1804ZM243.108 39.8607C243.246 40.2754 242.986 40.4244 242.47 40.2259C241.796 39.9674 241.504 40.5994 241.178 43.0237C240.489 48.1433 238.399 50.5729 234.683 50.5729C232.257 50.5729 232.928 52.7222 235.74 53.9591C237.75 54.8426 237.773 55.4622 235.851 56.9754C233.406 58.9008 230.697 59.5611 228.109 58.8631C225.857 58.2565 222.807 55.5842 221.537 53.1051C220.927 51.9141 221.052 51.7592 223.085 51.1943C224.301 50.8562 225.734 50.5782 226.267 50.5765C227.733 50.5712 228.946 45.084 227.909 43.1456C227.296 41.9977 227.29 41.5706 227.882 40.9899C228.469 40.4144 228.888 40.5982 229.922 41.8852C231.708 44.1057 233.479 43.9508 237.988 41.1783C241.82 38.8218 242.688 38.5985 243.108 39.8607ZM267.808 43.545C266.595 44.1864 265.602 44.9774 265.602 45.3037C265.602 45.6294 266.659 45.2919 267.951 44.5533C269.243 43.8147 270.302 43.0113 270.304 42.7687C270.31 42.2038 270.398 42.1761 267.808 43.545ZM235.051 44.4373C235.08 45.1235 235.219 45.2631 235.407 44.7936C235.577 44.3684 235.556 43.8601 235.36 43.6645C235.165 43.469 235.026 43.8165 235.051 44.4373ZM385.636 44.9774C385.636 45.5376 386.199 45.8609 387.176 45.8609C388.501 45.8609 388.677 46.0665 388.434 47.3334C388.264 48.2258 388.425 48.8059 388.842 48.8059C389.904 48.8059 391.363 50.1477 391.758 51.4882C392.039 52.4413 391.56 53.0892 389.503 54.5405C387.286 56.1049 386.785 56.2562 386.192 55.54C385.807 55.0759 385.054 54.696 384.518 54.696C382.717 54.696 380.517 51.437 380.218 48.3259L379.941 45.4339L382.053 44.8384C385.122 43.9732 385.636 43.9932 385.636 44.9774ZM239.124 45.5664C239.124 46.0523 239.228 46.4499 239.355 46.4499C239.482 46.4499 239.739 46.0523 239.925 45.5664C240.111 45.0805 240.007 44.6829 239.694 44.6829C239.38 44.6829 239.124 45.0805 239.124 45.5664ZM317.97 44.9945C317.97 45.3338 321.5 52.4813 321.865 52.8801C321.988 53.0149 322.252 52.9625 322.451 52.7628C322.649 52.5638 321.842 50.6642 320.657 48.5421C318.715 45.0664 317.97 44.0827 317.97 44.9945ZM237.188 46.4499C237.019 47.0978 237.12 47.6279 237.414 47.6279C237.707 47.6279 237.947 47.0978 237.947 46.4499C237.947 45.802 237.845 45.2719 237.722 45.2719C237.597 45.2719 237.357 45.802 237.188 46.4499ZM380.929 46.0924C380.929 46.2196 381.326 46.4764 381.812 46.6631C382.297 46.8493 382.694 46.745 382.694 46.4317C382.694 46.1177 382.297 45.8609 381.812 45.8609C381.326 45.8609 380.929 45.9652 380.929 46.0924ZM232.651 47.6415C232.651 47.9784 233.06 48.4107 233.559 48.6027C234.94 49.1328 235.101 48.5603 233.802 47.7481C233.073 47.2928 232.651 47.2539 232.651 47.6415ZM381.261 47.8005C381.482 48.3813 381.811 48.7082 381.992 48.5267C382.174 48.3459 381.993 47.8706 381.59 47.4707C381.009 46.8934 380.942 46.9612 381.261 47.8005ZM259.023 49.7106C259.127 49.7978 258.894 50.9287 258.506 52.2239C257.947 54.0922 257.459 54.6477 256.144 54.9109C255.232 55.0935 254.176 55.8239 253.796 56.5336C253.205 57.6386 253.298 57.9702 254.437 58.8302C255.176 59.3879 255.584 60.133 255.355 60.5053C254.921 61.2074 249.127 61.4642 249.127 60.7809C249.127 60.5636 250.07 57.8153 251.223 54.673L253.32 48.9591L256.077 49.2553C257.594 49.4185 258.92 49.6229 259.023 49.7106ZM372.939 52.7817C375.129 56.1531 375.373 56.8128 374.547 57.1209C374.004 57.3241 373.366 57.1291 373.103 56.6791C372.844 56.2362 372.315 55.8751 371.927 55.8763C371.538 55.8775 369.972 54.4857 368.447 52.784C366.104 50.1683 365.831 49.6276 366.682 49.2889C369.379 48.2181 370.314 48.74 372.939 52.7817ZM384.455 51.7592C383.968 52.671 383.997 52.9095 384.581 52.7899C385.907 52.519 386.851 50.5729 385.657 50.5729C385.345 50.5729 384.804 51.1066 384.455 51.7592ZM396.802 52.3323C399.612 53.8378 401.428 60.3557 399.758 62.942C399.251 63.7271 399.187 63.7271 399.186 62.942C399.183 61.5036 395.988 54.7289 395.305 54.7119C394.055 54.6801 388.595 56.5148 388.716 56.9253C388.784 57.1568 388.139 58.5392 387.283 59.997C386.427 61.4548 385.327 64.1972 384.84 66.0914C384.352 67.9856 383.823 69.6655 383.665 69.8239C383.506 69.9823 382.923 69.4181 382.367 68.5693C381.393 67.0827 381.415 66.8924 382.941 63.296C384.676 59.2107 385.951 57.7971 391.177 54.1682C394.955 51.5442 395.188 51.4682 396.802 52.3323ZM219.395 54.0528C220.002 55.9658 224.761 59.8862 227.311 60.5742C230.567 61.4518 233.347 60.8304 236.911 58.4291L239.889 56.4235L241.329 57.7688C243.15 59.4692 245.175 63.3726 244.665 64.1989C243.749 65.6832 237.016 69.4134 234.058 70.076C227.919 71.4513 219.889 68.8656 214.315 63.7195C211.706 61.3105 211.444 61.1738 212.587 62.8165C217.107 69.3144 229.665 72.9904 237.352 70.0666L240.301 68.9451V72.3501V75.7551L237.211 77.0993C232.99 78.9369 225.011 78.9564 220.295 77.1405C215.08 75.1332 215.125 75.1932 216.624 72.1022C218.059 69.1471 217.927 68.3679 216.47 71.188C215.968 72.1599 215.219 72.955 214.806 72.955C213.433 72.955 209.348 69.5088 208.207 67.3884C207.097 65.3251 207.098 65.2703 208.246 63.1322C208.886 61.9413 210.469 59.7967 211.763 58.3672L214.117 55.7685L216.531 58.0721C220.601 61.9542 223.859 63.1988 230.004 63.2188C234.579 63.2341 235.771 63.015 238.772 61.6085C240.682 60.7126 242.129 59.8639 241.987 59.7219C241.845 59.58 240.283 60.1802 238.515 61.0554C235.832 62.3848 234.525 62.6475 230.593 62.6469C225.012 62.6463 220.697 60.9488 217.083 57.3323L214.857 55.103L216.252 54.0292C218.049 52.6462 218.951 52.6527 219.395 54.0528ZM372.056 56.7869C372.578 56.463 372.723 56.8688 372.586 58.2712C372.308 61.112 371.421 60.9429 369.602 57.701C367.513 53.9768 367.552 52.6633 369.676 55.2278C370.713 56.4783 371.607 57.0643 372.056 56.7869ZM257.836 58.0545C257.975 59.9298 257.622 61.0177 256.177 63.1611C254.599 65.5012 254.18 65.7987 253.205 65.2762C251.934 64.5953 251.929 64.5818 252.426 63.2848C252.622 62.7724 253.374 62.353 254.096 62.353C254.915 62.353 255.654 61.8158 256.058 60.9294C256.609 59.7184 256.513 59.362 255.417 58.5474C254.138 57.5962 254.142 57.5915 255.893 57.886C256.864 58.0497 257.298 58.0291 256.857 57.8406C256.179 57.5514 256.179 57.4118 256.857 56.9418C257.407 56.5602 257.216 56.5113 256.249 56.7857C255.001 57.1397 254.934 57.0796 255.66 56.2592C256.92 54.8385 257.641 55.4334 257.836 58.0545ZM378.35 56.8493C380.435 58.442 380.886 60.5112 379.263 61.0466C378.728 61.2233 378.541 60.8663 378.674 59.921C378.79 59.1046 378.568 58.5345 378.134 58.531C377.73 58.5274 377.465 58.3537 377.546 58.1446C377.626 57.9355 377.189 57.2069 376.572 56.5248C375.025 54.8138 375.891 54.9722 378.35 56.8493ZM397.106 59.6978C398.767 63.0268 398.879 63.7012 399.082 71.5632L399.297 79.8988L396.634 81.4608C391.357 84.5566 387.599 85.5426 380.929 85.5821L374.751 85.6186L374.938 83.8516C375.04 82.8797 375.384 81.0809 375.702 79.854L376.279 77.6241L378.7 79.6985C385.372 85.4154 393.773 81.2187 396.799 70.6568C397.117 69.5494 397.107 68.832 396.775 68.832C396.474 68.832 396.228 69.3103 396.228 69.8946C396.228 71.9043 393.178 77.0786 390.784 79.1295C387.557 81.8943 385.235 82.2707 381.769 80.5915C377.413 78.4805 372.124 70.7192 371.064 64.8804C370.538 61.9801 370.573 61.8453 372.046 61.1679C373.509 60.4947 373.791 60.6932 378.663 65.8263C381.462 68.7755 383.882 71.188 384.042 71.188C384.202 71.188 384.784 69.3439 385.336 67.0903C386.578 62.0184 389.501 56.9589 391.52 56.387C394.471 55.5512 395.275 56.0283 397.106 59.6978ZM375.991 58.4838C375.71 59.6018 375.986 60.169 377.25 61.0719C378.141 61.708 379.19 63.0834 379.58 64.1277C380.268 65.9648 380.179 65.9235 376.852 62.8642C374.96 61.1255 373.383 59.4115 373.346 59.0563C373.31 58.7006 373.875 58.1222 374.604 57.7705C376.422 56.8929 376.393 56.8782 375.991 58.4838ZM377.693 59.997C377.893 60.3209 377.792 60.586 377.468 60.586C377.144 60.586 376.716 60.3209 376.516 59.997C376.316 59.673 376.417 59.408 376.741 59.408C377.064 59.408 377.493 59.673 377.693 59.997ZM326.767 63.9551C327.695 66.1314 328.737 68.0068 329.082 68.1223C329.427 68.2377 328.882 66.4566 327.871 64.1642C326.86 61.8724 325.818 59.997 325.556 59.997C325.294 59.997 325.839 61.7781 326.767 63.9551ZM382.38 61.1426C382.569 61.4489 382.356 62.5756 381.906 63.6458L381.089 65.5925L380.334 63.9904C379.724 62.6946 379.722 62.2152 380.326 61.4872C381.18 60.4564 381.883 60.3386 382.38 61.1426ZM244.326 72.8013C242.921 74.2597 242.304 75.1803 242.955 74.8475C243.606 74.5147 244.64 73.6878 245.253 73.0098C246.612 71.5067 247.339 71.4389 247.43 72.8078C247.494 73.7896 247.511 73.7896 247.767 72.8078C248.131 71.4148 248.67 71.509 250.303 73.2495C251.064 74.0594 251.956 74.722 252.286 74.722C252.617 74.722 252.042 73.848 251.007 72.7795C249.157 70.8694 248.622 69.2137 249.649 68.5787C249.935 68.4015 250.509 68.6653 250.924 69.1654C251.338 69.6655 252.229 70.3593 252.903 70.7074C253.832 71.1874 253.712 70.8965 252.406 69.5035C250.437 67.4037 250.623 66.6992 252.875 67.7265C254.662 68.5416 254.711 69.0052 253.533 74.0041C252.558 78.1447 250.898 81.7406 249.379 83.0028C248.475 83.7544 248.402 83.7191 248.693 82.6689C249.569 79.5024 249.724 78.0187 249.376 76.1592C248.977 74.03 247.95 73.3556 247.95 75.2227C247.95 77.5628 242.704 83.2096 241.574 82.0858C241.359 81.8719 241.051 78.7361 240.889 75.1173L240.595 68.5375L242.948 66.7204L245.302 64.9028L246.092 67.5262L246.881 70.1496L244.326 72.8013ZM292.928 65.5737C292.3 66.0496 291.203 66.4471 290.491 66.4572C289.779 66.4678 288.985 66.8335 288.726 67.2706C288.104 68.3208 285.524 68.9186 284.458 68.2595C283.411 67.6122 281.489 68.5505 281.489 69.7085C281.489 70.1679 280.43 71.3954 279.135 72.4367C277.841 73.4781 276.915 74.4629 277.078 74.6254C277.24 74.788 276.943 75.3965 276.417 75.9778C275.892 76.5586 275.621 77.4474 275.814 77.9527C276.014 78.4728 275.661 79.3781 275.003 80.0366C274.363 80.6769 273.84 81.644 273.84 82.1853C273.84 82.7266 273.399 83.6578 272.86 84.2539C271.999 85.2057 271.966 85.7476 272.591 88.7173C272.982 90.5768 273.462 92.8928 273.659 93.8646C274.081 95.9585 277.799 99.5874 279.106 99.1815C279.607 99.0255 280.406 99.1421 280.88 99.4401C281.435 99.7882 282.043 99.7329 282.582 99.2858C283.481 98.5384 286.785 98.1638 286.785 98.8093C286.785 99.0231 286.386 99.7676 285.899 100.464C285.412 101.16 284.892 103.381 284.743 105.399C284.466 109.173 285.106 111.118 287.52 113.837C288.087 114.474 288.55 115.194 288.55 115.434C288.55 115.675 289.079 116.041 289.727 116.247C290.817 116.593 290.903 117.138 290.903 123.689V130.756L288.897 132.65C287.794 133.692 284.286 135.833 281.101 137.41C276.253 139.809 274.488 141.1 270.256 145.342C267.221 148.384 264.354 151.939 263.08 154.237C260.35 159.166 257.055 169.096 256.093 175.294C255.625 178.313 255.067 180.153 254.621 180.153C253.601 180.153 253.414 180.624 252.95 184.365C252.584 187.306 252.664 187.733 253.638 188.043C254.438 188.297 254.923 189.355 255.406 191.897C256.9 199.768 261.639 206.227 267.304 208.11L270.166 209.062L269.886 215.37C269.723 219.058 269.859 222.29 270.214 223.151C270.68 224.276 270.832 222.806 270.861 216.915L270.898 209.208L273.261 209.115C276.657 208.982 279.285 207.705 282.651 204.554C288.753 198.84 296.084 187.461 300.887 176.245C302.83 171.711 303.029 171.47 305.44 170.757C306.828 170.347 308.607 170.173 309.395 170.371C311.216 170.829 313.851 169.848 313.851 168.712C313.851 168.234 314.314 167.579 314.881 167.257C315.75 166.763 315.796 166.484 315.175 165.469C314.152 163.796 314.22 163.661 316.092 163.661C318.344 163.661 320.037 162.353 319.522 161.01C319.153 160.047 318.526 159.992 312.277 160.366C308.514 160.591 304.615 161.131 303.612 161.566C302.609 162.002 296.014 167.191 288.956 173.1L276.122 183.842L266.303 182.145L256.485 180.448L256.686 178.092C257.097 173.27 260.26 162.462 262.705 157.522C267.142 148.56 273.335 142.237 281.76 138.07C284.086 136.92 286.168 135.978 286.387 135.978C286.606 135.978 286.785 136.654 286.785 137.48C286.785 139.739 288.121 141.895 291.459 145.021C297.209 150.404 303.134 151.559 306.828 148.016C307.771 147.113 308.695 145.889 308.883 145.299C309.198 144.304 309.365 144.333 311.148 145.694C312.207 146.503 313.926 147.462 314.968 147.826C316.638 148.409 317.031 148.329 318.275 147.159C320.203 145.346 320.691 141.645 319.527 137.671C319.025 135.954 318.678 134.483 318.758 134.404C319.047 134.115 325.658 136.037 328.355 137.194C332.915 139.151 338.906 143.472 342.367 147.301C344.159 149.283 345.625 151.124 345.625 151.393C345.625 151.662 344.896 151.885 344.007 151.89C341.533 151.904 341.049 152.47 339.226 157.475C337.453 162.344 337.274 162.333 336.489 157.29C336.272 155.891 335.955 154.885 335.786 155.055C335.617 155.224 335.786 157.464 336.161 160.033C336.742 164.01 336.706 165.046 335.923 167.006C334.858 169.672 328.561 189.58 328.561 190.283C328.561 190.543 331.443 190.756 334.965 190.756C341.031 190.756 341.386 190.823 341.701 192.027C341.884 192.727 342.329 199.154 342.69 206.311C343.56 223.563 344.372 227.321 344.299 213.753L344.242 203.471L345.963 203.02C348.997 202.226 352.113 199.065 354.234 194.629C355.624 191.723 356.622 190.365 357.531 190.144C358.557 189.894 359.215 188.732 360.614 184.697C361.594 181.877 362.705 179.568 363.085 179.567C363.465 179.566 364.626 178.848 365.665 177.972C369.203 174.993 370.22 169.88 367.869 166.889L366.579 165.246L368.76 159.005C369.959 155.573 370.937 152.566 370.933 152.323C370.93 152.08 365.498 151.881 358.864 151.881C352.23 151.881 346.802 151.655 346.802 151.378C346.802 151.1 345.175 149.097 343.187 146.924C337.35 140.548 329.418 135.821 321.795 134.175C319.853 133.756 317.341 132.93 316.214 132.339C315.086 131.749 313.828 131.266 313.419 131.266C312.968 131.266 312.681 130.511 312.69 129.352C312.703 127.763 313.104 127.192 315.047 125.992C316.335 125.197 318.115 123.497 319.003 122.214C320.354 120.262 320.647 119.152 320.799 115.414C320.898 112.956 320.75 108.43 320.468 105.355C320.006 100.312 320.06 99.6775 321.018 98.8759C321.983 98.0689 322.006 97.7738 321.267 95.6599C320.819 94.3794 319.953 92.9216 319.344 92.4204C318.734 91.9192 318.324 91.0639 318.432 90.5203C318.69 89.2221 311.803 84.559 310.322 85.029C309.715 85.2222 309.149 85.0084 308.96 84.5148C308.56 83.4717 309.109 81.2011 309.761 81.2011C310.735 81.2011 310.958 78.8097 310.13 77.2324C309.66 76.3377 308.991 74.884 308.642 74.0023C308.254 73.0234 307.426 72.2777 306.516 72.088C305.696 71.9166 304.337 71.6327 303.497 71.4566C302.221 71.1898 302.028 70.9012 302.327 69.7079C302.602 68.61 302.35 68.0592 301.236 67.3289C300.439 66.8058 299.314 66.4695 298.736 66.5814C298.157 66.6928 297.217 66.317 296.647 65.7462C295.384 64.4822 294.428 64.4381 292.928 65.5737ZM208.115 68.7596C208.945 70.0153 210.635 71.6516 211.871 72.3955C213.106 73.14 214.211 73.8191 214.327 73.9057C214.443 73.9923 213.684 75.5567 212.64 77.382L210.743 80.701L209.184 79.2055C208.326 78.3833 206.751 76.267 205.683 74.5029L203.741 71.2952L204.969 68.8856C205.644 67.5604 206.289 66.476 206.401 66.476C206.513 66.476 207.285 67.5038 208.115 68.7596ZM216.462 76.2322C218.473 77.7542 224.966 79.4341 228.836 79.4341C230.877 79.4341 234.214 78.9146 236.251 78.2796C238.289 77.6453 240.009 77.1811 240.075 77.2489C240.14 77.3172 240.049 80.1898 239.872 83.6325L239.55 89.893L236.542 90.2411C232.743 90.6811 226.632 89.8205 222.461 88.2585C219.227 87.0469 212.531 83.0335 211.818 81.8784C211.458 81.2965 214.367 75.3163 214.999 75.3381C215.161 75.344 215.819 75.7463 216.462 76.2322ZM333.268 77.1994C333.268 78.5617 335.596 83.5571 336.23 83.5571C336.535 83.5571 336.116 82.0463 335.301 80.1998C333.636 76.4302 333.268 75.8883 333.268 77.1994ZM248.281 80.8636C248.072 82.2577 247.551 83.8781 247.122 84.4653C246.432 85.4101 246.131 85.4448 244.498 84.7681C242.222 83.8239 242.209 83.5188 244.379 81.9132C245.327 81.2111 246.582 79.8263 247.167 78.8356C248.427 76.6993 248.802 77.3826 248.281 80.8636ZM356.216 81.6664C354.389 84.3805 354.229 84.7369 354.843 84.728C355.501 84.718 358.098 80.6621 357.868 80.0024C357.769 79.7162 357.025 80.4648 356.216 81.6664ZM302.563 81.816C305.57 82.5104 308.231 84.1178 307.532 84.8175C307.259 85.0908 306.187 84.9937 305.15 84.602C303.543 83.9953 302.997 84.0477 301.458 84.9571C300.465 85.545 298.996 86.0974 298.194 86.1858C297.392 86.2736 296.134 86.9109 295.399 87.6018C294.665 88.2927 293.76 88.8581 293.389 88.8581C293.018 88.8581 291.848 90.1834 290.789 91.8031C288.662 95.0562 288.218 95.3071 287.667 93.5701C286.378 89.5048 293.934 81.6045 299.435 81.2659C299.759 81.2464 301.166 81.4938 302.563 81.816ZM216.764 82.9834C217.25 83.3056 219.462 84.1308 221.681 84.8175C226.282 86.2412 230.717 86.111 234.882 84.4288C238.187 83.0947 237.773 82.7814 234.148 83.8734C230.175 85.0702 224.205 84.9342 220.295 83.5571C216.722 82.299 215.413 82.0863 216.764 82.9834ZM341.212 83.8922C336.576 86.3012 334.088 90.8201 334.579 95.9385C335.092 101.286 340.256 105.91 345.734 105.93C349.374 105.942 351.344 105.138 354 102.554C361.383 95.3742 356.414 82.9598 346.161 82.9716C344.41 82.974 342.183 83.388 341.212 83.8922ZM350.183 84.463C352.978 85.6321 354.314 86.8714 355.69 89.5708C360.106 98.2309 351.121 108.157 342.231 104.438C337.73 102.557 335.454 99.1439 335.454 94.2811C335.454 86.8154 343.301 81.5845 350.183 84.463ZM395.351 91.8031C395.963 95.6599 396.972 96.9463 396.505 93.2756C396.299 91.6559 395.86 90.0656 395.53 89.7416C395.123 89.3417 395.065 90.0031 395.351 91.8031ZM342.38 90.6392C341.66 91.8055 343.747 100.638 344.743 100.638C345.637 100.638 352.686 95.4496 352.686 94.7911C352.686 94.3747 343.969 90.0361 343.133 90.0361C342.924 90.0361 342.585 90.3076 342.38 90.6392ZM372.748 96.0734C370.736 103.05 370.667 103.382 371.384 102.7C372.148 101.972 375.119 91.2141 374.556 91.2141C374.332 91.2141 373.519 93.4011 372.748 96.0734ZM226.583 94.6009C225.59 99.31 225.524 100.049 226.096 100.049C226.771 100.049 227.598 95.4738 227.227 93.7863C227.058 93.0153 226.865 93.2585 226.583 94.6009ZM315.5 96.1606C318.984 97.9641 319.153 98.5048 319.55 109.078L319.918 118.858L318.379 121.186C316.642 123.812 313.823 126.105 311.203 127.021C310.2 127.372 309.882 127.659 310.468 127.686C311.18 127.718 311.497 128.218 311.497 129.309C311.497 130.363 312.122 131.408 313.382 132.461C314.909 133.737 315.254 134.445 315.205 136.2C315.134 138.692 313.906 140.831 311.72 142.264C308.557 144.339 299.195 142.825 294.264 139.441C290.327 136.739 289.425 134.352 291.273 131.529C292.057 130.33 292.183 128.899 291.965 123.616L291.699 117.166L293.655 116.237C294.73 115.726 295.611 115.006 295.611 114.638C295.611 114.268 296.186 113.354 296.889 112.604C298.101 111.313 298.225 111.294 299.277 112.247C300.1 112.992 300.635 113.096 301.347 112.646C302.652 111.822 303.034 110.549 301.838 111.008C301.245 111.236 300.906 111.047 300.906 110.487C300.906 110.003 300.511 108.849 300.027 107.921C299.544 106.993 299.147 104.948 299.145 103.378C299.142 100.956 299.412 100.269 300.921 98.857C304.277 95.7194 311.918 94.3058 315.5 96.1606ZM254.128 99.8501C249.923 102.069 247.397 106.039 247.374 110.466C247.358 113.593 248.193 115.802 250.194 117.921C255.506 123.545 264.225 123.024 268.466 116.829C271.362 112.597 271.395 108.472 268.567 104.008C265.678 99.449 258.698 97.4387 254.128 99.8501ZM263.099 100.366C265.894 101.535 267.23 102.774 268.606 105.474C271.901 111.936 267.414 120.436 260.35 121.116C256.49 121.487 253.724 120.455 251.257 117.72C246.198 112.115 247.75 104.079 254.542 100.714C257.535 99.2304 260.132 99.125 263.099 100.366ZM315.698 102.355C316.462 102.975 317.191 103.378 317.319 103.252C317.749 102.825 316.066 101.227 315.185 101.227C314.588 101.227 314.752 101.586 315.698 102.355ZM305.761 102.206C305.356 102.37 305.025 102.92 305.025 103.429C305.025 104.26 305.13 104.263 306.055 103.457C306.621 102.963 307.482 102.413 307.967 102.234C308.583 102.008 308.494 101.909 307.673 101.909C307.026 101.909 306.165 102.043 305.761 102.206ZM258.563 104.614C258.575 105.504 258.927 108.004 259.345 110.167C260.204 114.606 259.801 115.952 257.617 115.952C256.618 115.952 255.942 115.468 255.46 114.408C254.827 113.018 254.916 112.736 256.355 111.588C258.091 110.202 258.456 108.884 257.103 108.884C255.382 108.884 253.05 111.561 253.05 113.536C253.05 117.417 257.985 119.464 260.934 116.806C262.073 115.78 262.171 115.255 261.858 111.871C261.589 108.963 261.668 108.245 262.202 108.779C263.044 109.622 265.014 109.7 265.014 108.889C265.014 108.568 264.469 107.972 263.803 107.564C263.138 107.156 262.057 105.961 261.402 104.908C259.923 102.532 258.533 102.389 258.563 104.614ZM398.169 104.761C398.349 105.571 398.679 107.496 398.901 109.039C399.278 111.656 400.346 113.559 400.346 111.614C400.346 109.953 398.97 104.464 398.406 103.878C398.041 103.497 397.957 103.81 398.169 104.761ZM306.79 105.904C306.79 106.895 307.055 107.706 307.379 107.706C307.702 107.706 307.967 107.059 307.967 106.268C307.967 105.477 307.702 104.667 307.379 104.467C307.036 104.254 306.79 104.853 306.79 105.904ZM315.969 104.666C315.37 105.636 316.175 107.971 316.87 107.276C317.192 106.953 317.207 106.16 316.908 105.35C316.572 104.44 316.252 104.207 315.969 104.666ZM225.416 106.133C224.686 108.039 224.303 112.418 224.867 112.418C225.19 112.418 225.64 110.938 225.865 109.129C226.267 105.91 226.052 104.474 225.416 106.133ZM345.693 111.24C345.665 112.698 345.9 114.288 346.213 114.774C346.926 115.877 346.926 112.289 346.213 110.062C345.823 108.841 345.734 109.043 345.693 111.24ZM312.869 111.404C313.436 112.304 313.741 113.298 313.547 113.613C313.352 113.928 313.474 114.185 313.816 114.185C314.92 114.185 314.48 112.047 313.139 110.89L311.838 109.768L312.869 111.404ZM367.569 113.889C366.886 115.994 366.555 117.858 366.834 118.03C367.318 118.33 368.122 115.998 368.932 111.945C369.546 108.871 368.9 109.793 367.569 113.889ZM244.125 117.839C242.831 118.525 242.069 119.186 242.432 119.31C243.047 119.519 247.361 117.302 247.361 116.777C247.361 116.312 246.441 116.613 244.125 117.839ZM219.805 118.361C213.585 121.524 211.786 130.588 216.347 135.789C222.12 142.371 232.074 141.102 235.658 133.328C237.879 128.51 236.354 122.804 231.894 119.252C228.848 116.827 223.587 116.439 219.805 118.361ZM305.025 117.643C305.025 119.319 309.768 120.859 310.63 119.463C310.871 119.072 310.502 118.977 309.609 119.201C308.668 119.438 307.689 119.142 306.618 118.299C305.742 117.609 305.025 117.314 305.025 117.643ZM271.486 118.252C271.486 118.818 276.312 122.431 277.069 122.431C277.851 122.431 276.616 121.196 274.104 119.466C272.664 118.474 271.486 117.928 271.486 118.252ZM237.653 121.253C235.347 122.782 236.753 122.783 239.257 121.256C240.317 120.609 240.786 120.081 240.301 120.081C239.815 120.082 238.624 120.609 237.653 121.253ZM232.651 122.266C233.089 122.658 232.93 131.898 232.453 133.77L232.041 135.389H225.359H218.677L218.309 133.549C218.107 132.536 217.941 129.503 217.941 126.808V121.907L220.736 121.714C223.955 121.494 232.215 121.876 232.651 122.266ZM401.89 125.671C402.086 127.614 402.511 129.47 402.836 129.794C403.23 130.187 403.29 129.429 403.015 127.507C402.369 122.981 401.472 121.517 401.89 125.671ZM227.462 124.346C227.585 125.215 228.054 125.671 228.827 125.671C229.599 125.671 230.068 125.215 230.192 124.346C230.346 123.258 230.101 123.02 228.827 123.02C227.553 123.02 227.307 123.258 227.462 124.346ZM282.077 125.822C282.077 126.392 287.425 129.644 287.779 129.29C288.044 129.023 283.043 125.376 282.413 125.376C282.228 125.376 282.077 125.577 282.077 125.822ZM347.416 127.143C347.402 129.175 348.014 131.266 348.621 131.266C349.181 131.266 348.683 127.939 347.916 126.554C347.55 125.893 347.424 126.042 347.416 127.143ZM362.706 127.391C361.999 129.254 361.201 134.051 361.67 133.622C362.148 133.185 363.859 126.351 363.564 126.056C363.424 125.916 363.038 126.517 362.706 127.391ZM220.973 127.562C219.056 127.809 219.013 127.874 219.386 129.983C220.168 134.404 219.896 134.211 225.35 134.211C230.212 134.211 230.341 134.175 230.93 132.625C231.261 131.752 231.453 130.228 231.356 129.238L231.18 127.438L227.062 127.374C224.796 127.338 222.056 127.423 220.973 127.562ZM227.569 129.794C228.117 131.225 227.332 132.444 225.861 132.444C224.463 132.444 223.403 130.66 224.116 129.505C224.681 128.59 227.187 128.801 227.569 129.794ZM404.065 139.421C404.429 141.244 404.393 141.279 402.212 141.279C399.24 141.279 394.206 143.867 392.292 146.38C387.499 152.669 389.279 161.843 396.068 165.838C401.396 168.973 409.001 167.72 412.918 163.059C414.964 160.625 416.417 155.541 415.892 152.649C414.992 147.689 412.485 144.515 407.842 142.459C405.636 141.482 405.054 140.929 405.054 139.814C405.054 139.038 404.748 138.215 404.373 137.983C403.887 137.682 403.799 138.092 404.065 139.421ZM349.173 143.709C349.146 146.063 349.827 148.936 350.413 148.936C351.001 148.936 350.439 144.405 349.683 143.046C349.319 142.392 349.186 142.564 349.173 143.709ZM356.872 145.255C355.787 147.9 355.092 150.703 355.522 150.703C355.742 150.703 356.479 149.113 357.159 147.169C358.383 143.671 358.152 142.132 356.872 145.255ZM402.406 148.936C402.406 150.769 402.602 151.031 404.171 151.292C405.446 151.505 405.936 151.914 405.936 152.765C405.936 153.663 405.483 153.986 404.024 154.127C402.24 154.3 402.112 154.459 402.112 156.518C402.112 157.731 402.509 159.239 402.995 159.868C403.862 160.99 403.899 160.986 405.038 159.64C406.235 158.226 408.006 158.095 408.436 159.388C408.571 159.792 407.857 160.945 406.852 161.952C405.38 163.425 404.712 163.708 403.421 163.402C400.867 162.797 399.758 161.003 399.758 157.475C399.758 155.252 399.506 154.266 398.875 154.024C398.39 153.838 397.993 153.271 397.993 152.765C397.993 152.258 398.39 151.692 398.875 151.506C399.454 151.283 399.758 150.364 399.758 148.832C399.758 146.749 399.9 146.519 401.082 146.686C402.167 146.841 402.406 147.247 402.406 148.936ZM310.531 148.347C310.7 149.157 311.02 151.477 311.243 153.501C311.467 155.526 311.898 157.182 312.202 157.182C312.505 157.182 312.625 156.718 312.468 156.152C312.311 155.585 312.017 153.661 311.815 151.876C311.613 150.092 311.173 148.237 310.837 147.753C310.364 147.073 310.294 147.207 310.531 148.347ZM364.748 154.78C365.434 155.048 361.629 155.417 355.628 155.665C348.376 155.964 345.094 156.32 344.531 156.868C344.091 157.297 341.254 164.368 338.226 172.582C335.199 180.796 332.712 187.081 332.701 186.551C332.67 185.122 341.398 160.215 342.881 157.502C343.636 156.119 344.752 155.005 345.625 154.763C347.653 154.2 363.299 154.214 364.748 154.78ZM383.718 158.336C381.249 158.816 380.121 159.542 381.861 159.532C384.129 159.519 387.402 158.782 387.402 158.283C387.402 157.711 386.905 157.718 383.718 158.336ZM357.099 160.414C357.099 161.713 355.269 162.36 354.31 161.4C353.321 160.41 354.297 158.846 355.772 159.055C356.64 159.179 357.099 159.649 357.099 160.414ZM373.663 160.196C372.095 160.438 370.639 160.822 370.427 161.05C370.023 161.487 376.31 160.825 376.751 160.384C377.303 159.831 376.396 159.775 373.663 160.196ZM318.235 161.851C317.928 162.151 315.69 162.783 313.263 163.254C310.691 163.753 309.6 164.139 310.65 164.18C312.634 164.257 314.986 165.667 314.291 166.363C314.048 166.605 312.857 166.513 311.644 166.158C309.922 165.654 309.675 165.665 310.519 166.207C313.044 167.829 313.421 168.23 313.024 168.873C312.793 169.246 311.495 169.525 310.139 169.493C308.033 169.442 307.888 169.365 309.144 168.962L310.615 168.491L309.109 168.432C308.281 168.4 307.09 168.763 306.461 169.238C305.049 170.307 303.158 170.38 302.135 169.404C301.505 168.803 301.436 168.912 301.763 169.994C302.207 171.466 295.865 185.275 291.817 191.655C288.546 196.808 283.381 202.973 280.476 205.194C271.282 212.221 259.68 206.054 256.512 192.456L255.667 188.833L259.311 189.229C261.315 189.447 264.654 189.837 266.732 190.094L270.51 190.563L275.264 186.164C280.646 181.185 299.968 164.893 302.327 163.346C303.18 162.786 304.731 162.125 305.775 161.877C308.566 161.214 318.91 161.192 318.235 161.851ZM366.916 166.999C368.25 168.208 368.352 172.432 367.105 174.846C366.283 176.439 364.127 178.386 363.187 178.386C362.593 178.386 363.721 174.717 364.454 174.263C364.8 174.049 364.437 173.549 363.614 173.108C362.201 172.351 361.206 170.839 361.758 170.287C361.909 170.136 362.776 170.527 363.684 171.158C366.701 173.25 367.13 173.229 364.748 171.105C363.454 169.951 362.196 168.997 361.953 168.985C361.446 168.959 361.34 167.195 361.845 167.195C362.028 167.195 363.046 167.858 364.107 168.668C367.146 170.988 367.373 170.383 364.454 167.744L361.806 165.351L363.827 165.691C364.938 165.878 366.328 166.467 366.916 166.999ZM315.028 177.405C315.028 178.513 315.594 178.947 316.557 178.577C317.808 178.097 317.543 176.619 316.205 176.619C315.557 176.619 315.028 176.973 315.028 177.405ZM311.944 196.204C311.775 204.059 311.862 210.885 312.138 211.371C312.424 211.874 312.646 205.737 312.657 197.087C312.666 188.745 312.579 181.921 312.462 181.921C312.346 181.921 312.113 188.348 311.944 196.204ZM315.91 187.222C315.367 188.101 316.123 188.989 317.416 188.989C318.166 188.989 318.558 188.584 318.558 187.811C318.558 186.561 316.589 186.123 315.91 187.222ZM355.039 190.478C355.039 191.383 351.421 197.758 350.1 199.179C348.862 200.512 345.334 202.536 344.249 202.536C344.119 202.536 343.831 200.879 343.61 198.854C343.39 196.83 343.058 194.191 342.875 192.989L342.54 190.806L347.466 190.606C350.175 190.496 352.987 190.352 353.715 190.287C354.444 190.221 355.039 190.307 355.039 190.478ZM316.572 199.472C316.107 200.225 317.186 201.548 317.904 201.104C318.849 200.519 318.709 199.002 317.71 199.002C317.244 199.002 316.732 199.213 316.572 199.472Z" fill="#121A17"/>
<line x1="250.002" y1="179" x2="0.00199785" y2="180" stroke="#121A17"/>
<circle r="3.5" transform="matrix(-1 0 0 1 252.5 179)" fill="#121A17"/>
</svg>
