<svg width="300" height="244" viewBox="0 0 300 244" fill="none" xmlns="http://www.w3.org/2000/svg">
<rect x="0.5" y="0.5" width="299" height="119" rx="1.5" fill="white" stroke="#7D8180"/>
<rect y="124" width="300" height="120" rx="2" fill="#3FB488"/>
<circle cx="25.0201" cy="130.237" r="4.00249" fill="#FAF8F4" stroke="#B4B4B4" stroke-width="0.5"/>
<circle cx="277.02" cy="130.237" r="4.00249" fill="#FAF8F4" stroke="#B4B4B4" stroke-width="0.5"/>
<circle cx="25.2525" cy="113.252" r="4.00249" fill="#FAF8F4" stroke="#B4B4B4" stroke-width="0.5"/>
<circle cx="277.253" cy="113.252" r="4.00249" fill="#FAF8F4" stroke="#B4B4B4" stroke-width="0.5"/>
<path fill-rule="evenodd" clip-rule="evenodd" d="M18.0007 120.5C18.0007 123.585 18.483 126.333 19.2286 128.273C19.6027 129.246 20.0236 129.965 20.4401 130.424C20.8563 130.882 21.189 131 21.4203 131C21.6515 131 21.9842 130.882 22.4005 130.424C22.8169 129.965 23.2379 129.246 23.6119 128.273C23.8081 127.763 23.986 127.196 24.1417 126.583C24.2631 126.558 24.7948 126.456 25.1954 126.479C25.1957 126.479 25.1961 126.479 25.1964 126.479C24.4205 129.79 23.0196 132 21.4203 132C18.9794 132 17.0007 126.851 17.0007 120.5C17.0007 114.149 18.9794 109 21.4203 109C23.3904 109 25.0594 112.354 25.6299 116.988C25.4184 117.008 25.0537 117.022 24.6183 116.959C24.4074 115.327 24.0565 113.884 23.6119 112.727C23.2379 111.754 22.8169 111.035 22.4005 110.576C21.9842 110.118 21.6515 110 21.4203 110C21.189 110 20.8563 110.118 20.4401 110.576C20.0236 111.035 19.6027 111.754 19.2286 112.727C18.483 114.667 18.0007 117.415 18.0007 120.5ZM24.8013 119C24.8267 119.489 24.8398 119.99 24.8398 120.5C24.8398 122.132 24.7048 123.67 24.4673 125.044L24.5 125H25.4887C25.7148 123.618 25.8398 122.097 25.8398 120.5C25.8398 119.992 25.8272 119.491 25.8026 119H24.8013Z" fill="black"/>
<path fill-rule="evenodd" clip-rule="evenodd" d="M270 120.5C270 123.585 270.482 126.333 271.228 128.273C271.602 129.246 272.023 129.965 272.44 130.424C272.856 130.882 273.188 131 273.42 131C273.651 131 273.984 130.882 274.4 130.424C274.816 129.965 275.237 129.246 275.611 128.273C275.816 127.74 276.001 127.146 276.162 126.5H277.191C276.414 129.799 275.016 132 273.42 132C270.979 132 269 126.851 269 120.5C269 114.149 270.979 109 273.42 109C275.392 109 277.062 112.36 277.631 117H276.623C276.413 115.352 276.06 113.893 275.611 112.727C275.237 111.754 274.816 111.035 274.4 110.576C273.984 110.118 273.651 110 273.42 110C273.188 110 272.856 110.118 272.44 110.576C272.023 111.035 271.602 111.754 271.228 112.727C270.482 114.667 270 117.415 270 120.5Z" fill="black"/>
</svg>
