<svg width="363" height="399" viewBox="0 0 363 399" fill="none" xmlns="http://www.w3.org/2000/svg">
<path fill-rule="evenodd" clip-rule="evenodd" d="M216.377 14.1745C208.162 30.5829 204.816 40.1163 206.636 41.9357C207.434 42.7337 207.974 42.4723 208.491 41.0397C211.495 32.709 218.843 14.0638 221.564 7.86772C227.274 -5.13692 224.135 -1.32102 216.377 14.1745ZM110.894 7.94678C116.844 26.1893 124.183 43.4305 126.982 45.7358C130.209 48.3943 129.012 44.7418 120.279 25.2659C112.148 7.13089 108.331 0.0893919 110.894 7.94678ZM158.764 52.1691C144.701 54.1624 130.027 58.8859 116.659 65.7219C96.789 75.8836 78.565 99.5116 70.3057 125.819C64.3178 144.893 62.6833 165.683 64.3653 201.353C66.2203 240.683 69.0318 264.899 77.0792 310.864C78.7939 320.656 80.9346 334.412 81.8363 341.434C82.738 348.455 83.7082 354.973 83.9918 355.917C84.4337 357.39 83.0396 357.738 74.1949 358.358C50.2436 360.042 26.1404 363.18 20.3962 365.363C15.7551 367.127 18.5391 367.548 27.1254 366.382C38.7984 364.797 71.0671 362.135 78.8044 362.12L85.2911 362.106L86.5133 367.202C88.4189 375.141 90.9636 378.41 97.7297 381.609C106.089 385.562 124.289 389.949 141.92 392.261C160.396 394.684 207.692 394.801 224.025 392.466C233.343 391.133 234.478 391.149 234.991 392.617C236.057 395.669 239.823 399 242.207 399C243.512 399 245.975 397.826 247.683 396.39C250.764 393.798 250.799 393.794 252.672 395.863C256.312 399.883 264.78 397.683 266.877 392.173C267.583 390.317 268.392 389.891 270.466 390.288C272.467 390.67 273.975 389.968 276.436 387.508C279.352 384.593 279.688 383.646 279.371 379.223C279.05 374.73 279.25 374.195 281.366 373.894C285.142 373.358 288.272 368.544 287.587 364.327L287.006 360.75L309.375 361.436C362.781 363.075 365.514 363.112 361.797 362.127C357.695 361.041 306.059 357.88 292.509 357.885L283.858 357.889L284.456 352.842C284.973 348.484 284.689 347.362 282.372 344.609C279.796 341.55 279.728 341.112 280.654 333.739C281.184 329.514 283.495 314.837 285.788 301.126C293.726 253.669 296.264 217.99 294.312 181.325C291.883 135.698 285.407 111.14 270.618 91.4761C258.373 75.1931 231.601 59.0841 208.579 54.1477C197.599 51.7928 169.336 50.6712 158.764 52.1691ZM211.522 57.4523C228.913 62.2022 250.978 75.113 261.952 86.9602C288.816 115.964 297.035 174.573 286.863 264.6C283.635 293.171 279.33 323.545 278.356 324.618C277.815 325.214 276.513 324.738 275.073 323.42C269.598 318.403 254.396 313.004 237.083 309.924C228.173 308.339 226.728 307.791 226.334 305.848C225.32 300.847 221.862 278.284 222.068 278.016C222.191 277.858 232.175 276.545 244.256 275.098C256.336 273.652 266.453 272.236 266.737 271.953C267.824 270.866 269.066 223.694 268.457 206.624C267.252 172.906 262.077 116.481 259.919 113.528C258.786 111.979 256.229 111.753 239.817 111.753C229.475 111.753 215.793 111.99 209.412 112.28L197.812 112.807L194.949 98.2013C191.695 81.6032 190.563 79.2683 186.901 81.5895C185.722 82.3358 185.869 85.0618 187.76 97.5436C190.32 114.437 190.347 114.344 182.933 114.373L178.6 114.388L178.033 105.293C177.456 96.0604 176.113 93.2934 173.329 95.604C172.413 96.363 171.975 99.7541 171.975 106.084V115.442H168.214C165.138 115.442 164.545 115.106 164.967 113.598C166.211 109.137 168.977 85.7712 168.429 84.3439C167.947 83.0864 163.746 81.9722 163.47 83.0284C163.432 83.1738 162.34 90.638 161.042 99.617L158.68 115.942L136.591 117.731C124.442 118.714 110.942 119.907 106.592 120.38L98.683 121.24L98.761 158.661C98.8602 205.891 102.203 261.553 105.821 276.206L107.12 281.466L121.883 282.128C130.004 282.492 136.783 282.848 136.949 282.918C137.325 283.08 136.185 301.4 135.525 305.794C135.048 308.974 134.868 309.066 126.578 310.334C107.469 313.258 90.5027 319.062 85.0074 324.556C83.5384 326.023 82.3372 326.954 82.3372 326.625C82.3372 326.295 81.173 319.083 79.7493 310.598C71.2548 259.946 65.6403 197.971 66.8435 168.148C67.8243 143.865 71.6302 126.211 79.1482 111.085C93.1486 82.9114 111.625 67.4127 141.076 59.1358C156.296 54.8592 160.601 54.407 182.521 54.7896C199.622 55.0879 204.506 55.537 211.522 57.4523ZM25.3906 71.2391C44.434 88.183 67.0682 105.338 68.8936 104.21C69.616 103.764 69.4757 103.123 68.4908 102.368C67.6587 101.733 57.4031 93.9627 45.6995 85.1039C33.9959 76.2441 24.1357 68.5364 23.7888 67.9745C23.4407 67.4127 22.5918 66.9668 21.9011 66.9847C21.2103 67.0016 22.7806 68.9159 25.3906 71.2391ZM318.033 75.2817C296.776 83.4395 286.53 89.118 288.861 91.4487C289.575 92.1623 290.986 91.7554 293.158 90.209C295.819 88.3148 318.947 76.8976 329.106 72.463C335.792 69.5441 327.45 71.6682 318.033 75.2817ZM258.464 116.76C258.471 118.064 259.177 127.356 260.034 137.408C262.02 160.718 263.454 193.43 264.365 236.239L265.084 270.071L259.395 270.739C247.084 272.183 209.842 275.582 198.74 276.274L187.013 277.005L186.497 270.275C186.212 266.574 186.063 263.435 186.166 263.3C186.268 263.165 191.303 262.78 197.355 262.443C212.754 261.586 213.103 261.482 213.103 257.728C213.103 254.939 213.46 254.586 216.267 254.586C219.18 254.586 219.431 254.293 219.431 250.897C219.431 247.395 219.615 247.207 223.06 247.207C225.056 247.207 226.877 246.851 227.109 246.417C227.34 245.982 227.173 241.12 226.739 235.612C226.304 230.104 225.198 214.925 224.281 201.88C223.363 188.835 222.384 176.174 222.105 173.745L221.597 169.326L225.523 169.001C228.886 168.722 229.496 168.275 229.773 165.883C230.033 163.629 230.797 162.959 233.728 162.409C237.655 161.673 237.685 161.612 236.685 156.611L236.011 153.242L225.776 153.967L215.541 154.694L214.586 147.981C213.701 141.765 213.422 141.244 210.8 140.942C208.644 140.693 207.808 139.88 207.292 137.527C206.919 135.83 206.284 134.236 205.88 133.988C205 133.444 170.608 135.117 162.748 136.085C157.294 136.758 157.211 136.821 157.211 140.335C157.211 143.15 156.784 143.904 155.189 143.904C151.155 143.904 149.829 145.105 149.829 148.76C149.829 152.015 149.551 152.337 146.728 152.337C145.022 152.337 143.416 152.693 143.158 153.127C142.901 153.561 143.078 158.898 143.553 164.986C144.027 171.074 144.605 179.95 144.837 184.713L145.258 193.371L140.69 194.055L136.12 194.741L136.132 201.21C136.138 204.767 136.438 209.457 136.797 211.631C137.433 215.478 137.57 215.584 141.947 215.584H146.442L147.09 224.807C147.447 229.881 148.469 243.93 149.361 256.03C150.253 268.129 150.81 278.201 150.599 278.412C150.388 278.623 140.738 279.112 129.155 279.499L108.095 280.203L106.236 255.009C103.288 215.08 101.494 181.445 100.688 151.019C100.035 126.416 100.14 122.821 101.51 122.821C102.374 122.821 116.328 121.903 132.519 120.781C169.213 118.238 199.014 116.566 226.286 115.523C261.597 114.17 258.448 114.049 258.464 116.76ZM199.717 145.748C200.435 149.406 199.395 150.484 195.568 150.047C193.177 149.774 192.471 149.108 192.214 146.884C191.892 144.105 192.581 143.638 197.952 142.993C198.611 142.914 199.405 144.155 199.717 145.748ZM207.831 152.74C207.831 154.643 207.128 155.387 204.937 155.806C201.245 156.512 200.449 155.979 200.449 152.801C200.449 150.564 200.93 150.228 204.14 150.228C207.325 150.228 207.831 150.572 207.831 152.74ZM3.04122 153.934C10.0309 156.968 42.4356 167.094 45.1585 167.094C50.5674 167.094 45.8714 165.201 26.9725 159.762C16.5323 156.757 6.61409 153.857 4.93311 153.317C0.299348 151.831 -0.900751 152.222 3.04122 153.934ZM214.376 176.318C214.604 179.651 214.683 182.541 214.553 182.739C214.093 183.439 155.199 187.336 154.392 186.72C154.29 186.643 154.053 185.16 153.864 183.426C153.551 180.552 153.826 180.241 156.948 179.941C159.962 179.65 160.375 179.237 160.375 176.515C160.375 174.038 160.85 173.398 162.748 173.316C164.053 173.259 173.188 172.617 183.048 171.89C192.908 171.164 203.898 170.499 207.469 170.413L213.963 170.257L214.376 176.318ZM309.596 173.131C307.856 173.379 305.958 174.078 305.378 174.684C304.214 175.901 332.218 174.925 340.706 173.453C345.739 172.579 315.659 172.268 309.596 173.131ZM201.991 198.191L202.725 205.042H209.875H217.025L217.723 220.064C218.107 228.326 218.703 237.576 219.048 240.619L219.673 246.153H215.266C210.93 246.153 210.865 246.208 211.19 249.579L211.522 253.005L196.23 254.236C187.82 254.913 180.063 255.506 178.992 255.554C177.179 255.634 177.096 256.396 177.8 266.708L178.555 277.777H169.048H159.54L158.895 269.607C158.54 265.114 157.778 252.425 157.201 241.409C156.625 230.394 155.878 218.417 155.543 214.793C154.953 208.396 154.847 208.205 151.93 208.205C149.073 208.205 148.891 207.916 148.188 202.29C147.268 194.931 147.783 194.539 158.394 194.517L166.43 194.501L167.145 200.826L167.861 207.151H176.842C189.112 207.151 189.849 206.65 189.136 198.797L188.567 192.52L193.717 192.119C196.549 191.899 199.405 191.633 200.063 191.529C200.789 191.414 201.545 194.023 201.991 198.191ZM194.649 212.323C189.387 212.947 189.377 212.957 189.672 216.582C189.834 218.58 190.072 220.317 190.199 220.439C190.326 220.561 193.633 220.403 197.549 220.087L204.667 219.511V215.439C204.667 210.927 205.153 211.078 194.649 212.323ZM190.167 233.206L183.576 233.604V237.771V241.937L188.585 241.927C191.34 241.923 196.11 241.616 199.185 241.247L204.776 240.576L204.458 236.777C204.1 232.5 203.665 232.392 190.167 233.206ZM215.689 291.217C216.657 298.028 217.609 304.415 217.804 305.407C218.128 307.063 217.008 307.161 204.295 306.591C196.669 306.248 190.132 305.674 189.768 305.312C189.404 304.952 188.786 299.335 188.395 292.831C187.542 278.634 185.232 280.14 209.561 279.03L213.929 278.831L215.689 291.217ZM179.81 284.365C180.111 286.25 180.489 291.942 180.648 297.014L180.939 306.238L170.394 306.303C164.593 306.339 156.356 306.717 152.088 307.144L144.328 307.921L144.97 303.243C145.322 300.67 145.619 295.666 145.627 292.123C145.637 288.581 146.092 284.971 146.642 284.101C147.422 282.866 150.933 282.39 162.708 281.924C170.995 281.597 178.11 281.241 178.519 281.134C178.927 281.026 179.508 282.48 179.81 284.365ZM181.466 314.584C181.466 322.165 182.073 323.104 186.974 323.104H191.203L190.452 316.096L189.702 309.089L203.567 309.651C211.193 309.96 217.63 310.411 217.872 310.652C218.231 311.011 221.54 331.274 221.54 333.11C221.54 333.404 222.978 333.645 224.736 333.645C229 333.645 229.442 332.047 228.194 321.143C227.621 316.134 227.27 311.88 227.415 311.691C227.885 311.075 246.113 314.728 253.704 316.958C262.19 319.451 270.571 323.418 274.005 326.566C277.021 329.331 277.076 334.001 274.127 336.948L271.877 339.198L270.544 336.029C268.968 332.284 265.248 329.428 261.943 329.428C260.642 329.428 258.011 330.803 256.096 332.483C252.636 335.521 252.601 335.527 250.143 333.537C245.388 329.689 238.872 331.663 236.365 337.713C235.27 340.354 234.531 340.795 231.34 340.704C226.743 340.573 223.649 343.88 223.649 348.923C223.649 351.827 223.19 352.475 220.749 353.02C214.468 354.422 162.854 354.987 149.829 353.796C109.252 350.086 84.4464 341.73 84.4464 331.77C84.4464 325.916 92.5222 321.219 110.31 316.728C116.776 315.095 124.991 313.429 128.566 313.025L135.066 312.29V322.473C135.066 333.502 135.619 334.528 140.868 333.211C143.255 332.613 143.503 332.034 143.512 327.036C143.516 324.004 143.817 319.053 144.18 316.035L144.839 310.547L151.289 310.177C154.837 309.973 163.078 309.715 169.603 309.603L181.466 309.4V314.584ZM265.832 334.699C268.169 337.035 268.772 342.48 266.623 341.838C265.898 341.622 263.051 340.778 260.295 339.962C257.54 339.146 255.286 338.103 255.286 337.643C255.286 335.992 259.547 332.591 261.613 332.591C262.773 332.591 264.672 333.539 265.832 334.699ZM248.98 336.305C250.546 338.191 250.922 337.862 243.949 340.699C238.578 342.883 238.413 342.89 238.413 340.933C238.413 336.094 246.033 332.757 248.98 336.305ZM266.065 345.86C272.454 350.348 275.284 355.838 275.306 363.785C275.329 372.386 272.159 378.418 265.428 382.585C255.027 389.025 240.721 385.718 234.854 375.517C231.366 369.456 230.619 365.054 232.058 359.056C233.564 352.782 238.482 346.659 244.138 344.015C250.697 340.95 260.216 341.751 266.065 345.86ZM233.465 344.449C235.106 345.662 235.009 346.127 232.245 350.285C229.947 353.744 228.988 354.485 228.157 353.447C225.746 350.437 225.621 347.485 227.814 345.294C230.334 342.774 231.053 342.667 233.465 344.449ZM277.477 344.21C280.849 346.014 282.007 349.213 280.556 352.715C279.857 354.401 278.986 355.754 278.623 355.72C277.397 355.606 271.11 345.03 271.7 344.075C272.476 342.822 274.992 342.88 277.477 344.21ZM259.598 353.409C257.239 356.164 254.238 360.433 252.927 362.896C251.616 365.36 250.248 367.376 249.887 367.376C249.524 367.376 248.933 365.531 248.572 363.275C247.854 358.784 245.235 356.78 244.228 359.951C242.7 364.764 246.118 376.77 249.039 376.848C250.409 376.884 254.227 371.656 258.269 364.214C266.943 348.24 267.433 344.263 259.598 353.409ZM99.6068 356.572C99.9021 357.586 100.455 360.615 100.834 363.303C101.471 367.824 101.847 368.318 105.852 369.891C109.062 371.151 109.874 371.897 108.992 372.778C107.769 374.001 101.985 373.372 99.4043 371.736C97.6337 370.613 96.2596 354.727 97.9321 354.727C98.5575 354.727 99.3105 355.558 99.6068 356.572ZM117.622 358.68C118.94 362.11 119.631 377.918 118.462 377.918C116.706 377.918 115.917 374.826 115.305 365.532C114.932 359.877 115.113 356.835 115.822 356.835C116.422 356.835 117.232 357.666 117.622 358.68ZM133.729 363.39C135.755 360.738 136.051 360.652 137.691 362.233C138.945 363.443 139.637 366.453 140.053 372.511C140.71 382.092 139.168 384.223 137.097 376.6C134.939 368.658 135.147 368.973 133.518 371.168C132.251 372.877 131.708 372.977 129.857 371.848C127.894 370.65 127.684 370.77 127.684 373.079C127.684 374.485 127.38 376.427 127.01 377.393C125.649 380.937 124.552 376.414 124.58 367.376L124.607 358.416L128.074 362.336L131.54 366.255L133.729 363.39ZM228.262 372.51C228.098 372.725 226.789 372.605 225.35 372.244C221.943 371.389 221.027 368.262 223.045 364.362C225.77 359.096 227.272 359.668 227.949 366.227C228.284 369.468 228.424 372.296 228.262 372.51ZM283.157 361.654C285.535 364.032 285.204 368.038 282.47 369.952C278.89 372.458 278.527 372.049 278.78 365.804C279.025 359.74 280.162 358.661 283.157 361.654ZM169.34 363.162C169.7 363.743 168.778 364.68 167.293 365.244C164.706 366.227 164.593 366.623 164.593 374.729C164.593 383.281 163.3 385.948 162.089 379.894C161.726 378.082 161.43 374.287 161.43 371.461C161.43 366.454 161.348 366.322 158.266 366.322C154.783 366.322 153.777 363.661 156.948 362.832C160.516 361.9 168.695 362.117 169.34 363.162ZM204.405 364.478C208.683 369.059 208.783 377.475 204.613 381.95C202.414 384.308 194.868 385.249 193.672 383.315C192.731 381.794 192.511 364.851 193.413 363.424C194.852 361.147 201.928 361.826 204.405 364.478ZM149.189 364.828C150.149 367.327 149.929 381.399 148.906 383.013C148.178 384.16 147.903 384.131 147.415 382.857C146.402 380.222 145.31 366.519 145.974 364.79C146.782 362.685 148.374 362.703 149.189 364.828ZM185.125 364.161C185.897 365.409 182.365 367.376 179.353 367.376C177.622 367.376 177.18 367.924 177.438 369.748C177.704 371.613 178.628 372.233 181.765 372.647C186.986 373.336 187.295 375.193 182.257 375.609C178.857 375.891 178.303 376.297 178.303 378.508C178.303 380.814 178.747 381.08 182.609 381.08C185.586 381.08 186.779 381.487 186.476 382.398C186.204 383.214 184.064 383.715 180.861 383.715C175.966 383.715 175.651 383.546 175.01 380.553C173.831 375.039 174.026 365.748 175.35 364.425C176.852 362.924 184.237 362.725 185.125 364.161ZM196.23 373.174C196.23 380.156 196.458 381.08 198.176 381.08C201.126 381.08 203.612 377.653 203.612 373.589C203.612 369.207 201.088 365.268 198.279 365.268C196.433 365.268 196.23 366.048 196.23 373.174ZM233.335 380.411C236.423 384.279 235.775 386.351 231.476 386.351C227.769 386.351 226.308 383.789 227.867 380.027C228.588 378.287 229.477 376.864 229.84 376.864C230.205 376.864 231.778 378.459 233.335 380.411ZM275.957 383.818C275.253 385.65 271.135 387.34 269.183 386.597C268.231 386.235 269.064 384.758 271.82 381.927C275.503 378.145 275.88 377.982 276.197 380.037C276.388 381.275 276.28 382.976 275.957 383.818ZM245.004 388.67C248.589 389.967 248.715 392.096 245.338 394.307C241.52 396.808 238.413 394.827 238.413 389.89C238.413 386.723 238.706 386.244 240.259 386.872C241.273 387.283 243.41 388.093 245.004 388.67ZM264.777 389.278C264.777 389.729 264.038 391.152 263.135 392.44C261.21 395.189 256.223 395.6 254.21 393.177C252.575 391.208 252.682 391.109 257.923 389.762C263.34 388.368 264.777 388.267 264.777 389.278Z" fill="#121A17"/>
</svg>
