<svg width="362" height="161" viewBox="0 0 362 161" fill="none" xmlns="http://www.w3.org/2000/svg">
<path fill-rule="evenodd" clip-rule="evenodd" d="M283.044 1.04034C281.618 1.7384 279.078 2.05441 274.513 2.1007C269.235 2.15439 267.489 2.42041 265.219 3.51411C260.433 5.82185 256.723 10.3571 255.459 15.4478C254.622 18.8159 255.607 24.4332 257.426 26.657C258.332 27.7655 258.8 29.2999 258.8 31.1607C258.8 34.7004 260.026 37.31 263.08 40.2695C264.663 41.8033 266.07 42.584 267.253 42.584C269.026 42.584 269.038 42.6149 269.014 47.3674C268.997 50.6423 268.513 53.4117 267.478 56.1484L265.966 60.1461L259.13 61.1478C249.623 62.5403 242.544 64.4925 234.572 67.9186C214.851 76.3941 198.38 92.7304 191.993 110.148C187.852 121.441 186.049 136.593 187.9 144.548C190.445 155.495 198.614 161.671 209.582 160.942C220.813 160.195 229.329 152.56 237.092 136.275C240.358 129.425 244.66 114.824 243.715 113.795C243.252 113.29 244.112 112.974 246.769 112.674L250.468 112.256L250.919 109.532C251.234 107.63 251.915 106.421 253.172 105.526C255.268 104.035 258.933 104.068 259.172 105.581C259.326 106.55 284.437 146.284 286.968 149.563C287.709 150.523 288.54 151.078 288.815 150.797C289.09 150.517 292.485 142.51 296.36 133.005C301.108 121.354 304.028 115.066 305.321 113.706C306.375 112.597 307.428 111 307.662 110.157C308.039 108.801 308.449 108.626 311.255 108.63L314.423 108.635L314.532 112.179C314.751 119.246 322.442 136.205 328.596 143.189C333.818 149.116 339.334 151.766 346.5 151.789C356.552 151.823 361.174 146.801 361.174 135.847C361.174 129.925 359.835 124.675 356.039 115.709C350.191 101.9 336.472 84.9783 325.675 78.2569C322.737 76.4281 322.362 75.9251 321.974 73.2902L321.542 70.3584H317.173C313.312 70.3584 311.987 69.9974 305.795 67.2594C301.941 65.5547 297.581 63.8333 296.105 63.4334C294.356 62.9593 292.98 62.0508 292.152 60.8232C291.454 59.7875 290.881 58.7969 290.88 58.6222C290.879 58.4469 292.394 57.8168 294.248 57.2212C302.757 54.4882 305.898 46.407 304.298 31.357L303.729 25.9935L307.11 24.4437C311.229 22.5562 313.796 19.9146 314.805 16.523C317.023 9.07331 311.53 1.89825 303.191 1.35264C300.943 1.20513 298.624 1.40202 297.779 1.81123C296.554 2.40437 295.993 2.30993 294.52 1.26191C292.298 -0.318758 286.068 -0.439115 283.044 1.04034ZM291.283 21.6841C293.043 23.4697 296.42 24.685 299.625 24.685H302.275L303.06 32.5544C304.537 47.3298 301.43 54.4079 292.413 56.8175C289.113 57.6989 288.871 58.4729 290.944 61.5064C292.635 63.9808 292.449 64.3555 286.888 69.7048C284.968 71.5521 283.314 73.2741 283.213 73.5321C283.111 73.7901 279.308 71.0497 274.76 67.4415L266.491 60.8818L267.753 58.3025C269.348 55.0406 270.54 47.5915 269.977 44.4042C269.594 42.239 269.332 41.9668 267.634 41.9668C264.158 41.9668 262.605 39.2369 264.362 36.2169C265.812 33.7265 268.357 33.1951 270.487 34.9381C271.618 35.8639 271.727 35.8318 272.043 34.4752C272.229 33.6734 272.571 30.9132 272.804 28.3407L273.227 23.6647L276.862 23.9375C280.783 24.2313 286.744 22.8192 288.178 21.2564C289.274 20.0621 289.75 20.1275 291.283 21.6841ZM280.981 30.0627C280.23 30.2263 279.324 30.6102 278.968 30.9169C277.971 31.773 280.683 31.5422 283.029 30.5707C284.551 29.9405 284.726 29.7282 283.711 29.7443C282.96 29.756 281.732 29.8992 280.981 30.0627ZM295.029 29.8436C295.741 30.3973 300.427 30.7318 300.066 30.2034C299.848 29.8837 298.561 29.6227 297.207 29.6227C295.853 29.6227 294.873 29.722 295.029 29.8436ZM291.141 34.8689C292.404 41.6274 292.4 41.7119 290.746 42.4322C289.718 42.8797 289.54 43.1321 290.235 43.1593C290.82 43.1827 291.852 42.8359 292.528 42.389C293.627 41.6619 293.675 41.2243 292.981 38.2229C292.126 34.5196 290.533 31.6175 291.141 34.8689ZM283.37 35.8312C283.37 36.5298 283.677 36.9304 284.052 36.7206C284.428 36.5107 284.735 35.9392 284.735 35.4497C284.735 34.9603 284.428 34.5603 284.052 34.5603C283.677 34.5603 283.37 35.1325 283.37 35.8312ZM297.02 35.7947C297.02 36.9471 297.202 37.1113 297.839 36.5354C298.475 35.9595 298.475 35.63 297.839 35.0541C297.202 34.4782 297.02 34.6424 297.02 35.7947ZM290.195 48.1692C287.237 49.2641 287.201 49.3073 289.236 49.34C290.518 49.3604 291.833 48.8882 292.583 48.1389C293.263 47.46 293.695 46.9335 293.542 46.9687C293.39 47.0039 291.884 47.5439 290.195 48.1692ZM260.343 66.9144L259.786 69.3339L248.544 71.3447C236.12 73.5673 233.547 74.2691 233.549 75.435C233.549 75.8677 234.002 78.5463 234.555 81.3867C235.441 85.9368 235.441 86.7065 234.554 87.8508C234 88.5649 233.548 89.5931 233.548 90.1357C233.548 90.6776 232.449 92.2823 231.106 93.7013C229.222 95.6924 228.322 96.2028 227.163 95.9399C224.08 95.24 215.818 102.556 208.279 112.659C203.133 119.557 204.549 118.914 210.023 111.869C215.564 104.736 223.796 96.8984 225.746 96.8984C226.54 96.8984 227.619 97.6749 228.324 98.7544C229.588 100.69 237.534 109.396 241.04 112.688L243.067 114.59L241.069 121.637C236.932 136.227 230.053 148.467 222.54 154.606C214.154 161.457 202.169 161.815 194.875 155.432C185.232 146.993 186.082 122.511 196.683 103.379C208.766 81.5731 228.545 67.7649 254.552 62.9797L260.506 61.8842L260.704 63.1896C260.813 63.9074 260.65 65.5837 260.343 66.9144ZM266.196 63.7235C266.828 65.3745 266.904 65.4288 266.623 64.0321C266.435 63.0988 266.433 62.3347 266.618 62.3347C266.876 62.3347 274.754 68.5247 281.533 74.0543C281.836 74.3018 280.151 75.8035 277.788 77.3915C275.424 78.9802 273.432 80.061 273.361 79.7937C273.289 79.5265 272.87 76.878 272.429 73.9074C271.67 68.7994 271.537 68.5068 269.968 68.5068C268.906 68.5068 268.067 68.0081 267.632 67.1181C266.978 65.7825 266.962 65.78 267.231 67.0589C267.474 68.2155 267.114 68.4426 264.458 68.8025C262.779 69.0302 261.295 69.1172 261.16 68.9957C261.026 68.8735 261.097 67.1866 261.319 65.2461C261.699 61.9082 261.822 61.7175 263.574 61.7175C265.052 61.7175 265.583 62.1236 266.196 63.7235ZM297.832 65.0721C299.602 65.7405 300.369 66.528 300.967 68.2871C301.95 71.1861 301.422 71.5706 296.435 71.5836C293.379 71.591 292.847 71.4324 293.193 70.6164C293.421 70.0795 293.607 68.413 293.607 66.9132C293.607 63.8617 294.082 63.6549 297.832 65.0721ZM292.643 70.0548C292.362 71.0676 291.575 71.5688 289.79 71.8712C288.435 72.1014 287.194 72.1712 287.034 72.0261C286.874 71.8811 288.057 70.3473 289.663 68.6179C292.465 65.601 292.592 65.538 292.807 67.065C292.931 67.9402 292.856 69.2851 292.643 70.0548ZM305.912 68.5155C308.153 69.5388 309.987 70.5109 309.987 70.6757C309.987 70.8405 308.328 70.9757 306.3 70.9757C302.779 70.9757 302.579 70.8886 301.864 69.0321C300.709 66.0361 300.53 66.059 305.912 68.5155ZM319.798 74.1389C320.033 75.1998 320.224 78.8401 320.224 82.2286C320.224 87.7261 320.102 88.347 319.087 87.9946C318.461 87.7773 316.166 87.4311 313.987 87.2255C310.197 86.8669 309.997 86.9194 309.36 88.4328C308.995 89.3024 308.762 90.7992 308.843 91.7589C308.972 93.2834 309.507 93.6828 313.072 94.9178C320.742 97.5755 320.224 97.1706 320.224 100.52C320.224 105.261 319.049 106.1 312.124 106.3L306.412 106.465L305.287 109.225C302.997 114.84 297.903 114.95 296.127 109.422L295.177 106.465L290.127 106.157L285.076 105.848L284.901 101.219L284.727 96.5898L287.476 95.4523C290.609 94.1562 292.379 91.6096 292.379 88.3988C292.379 85.498 290.33 83.1859 286.863 82.1731L283.994 81.3343L284.194 77.2354L284.394 73.1359L294.631 72.802C300.262 72.6187 308.131 72.41 312.12 72.3391L319.371 72.2101L319.798 74.1389ZM284.825 82.9347C287.876 83.4871 286.882 84.8301 283.263 85.0468L280.191 85.2307L279.282 81.8027C278.781 79.9178 278.499 78.2846 278.653 78.1742C278.807 78.0637 279.701 77.5026 280.64 76.9274L282.346 75.8819L282.548 79.2209C282.741 82.3928 282.855 82.5786 284.825 82.9347ZM328.787 81.9947C343.625 93.4211 357.233 115.129 359.82 131.496C361.265 140.637 358.52 147.489 352.505 149.762C349.58 150.867 343.716 150.82 339.967 149.662C330.415 146.712 320.761 132.766 316.116 115.205L314.837 110.368L320.359 104.713C323.397 101.603 326.647 98.0174 327.58 96.7441C328.514 95.4714 329.472 94.4296 329.709 94.4296C329.946 94.4296 332.132 95.8374 334.566 97.5582L338.993 100.687L334.958 97.2496C332.739 95.3591 330.602 93.8124 330.209 93.8124C328.868 93.8124 324.319 89.2457 324.319 87.8989C324.319 87.1607 323.859 86.2115 323.296 85.7887C322.228 84.9875 321.767 77.765 322.784 77.765C323.065 77.765 325.767 79.6684 328.787 81.9947ZM278.562 83.0736C278.584 83.5673 277.94 83.5679 276.204 83.0767C273.44 82.294 273.184 81.3892 275.351 80.0585C276.797 79.1703 276.933 79.2104 277.709 80.7547C278.161 81.6564 278.545 82.6995 278.562 83.0736ZM289.425 84.7672C290.896 86.3701 291.057 89.2407 289.798 91.4127L288.585 93.5038L287.77 89.4944C286.739 84.4234 287.393 82.5539 289.425 84.7672ZM323.637 88.2217C323.637 88.7982 324.699 90.3918 325.996 91.7626L328.356 94.2555L325.851 97.4916L323.346 100.728L321.789 98.9673C320.932 97.9989 320.23 97.0212 320.228 96.7947C320.226 96.5676 318.305 95.7992 315.959 95.0875C309.975 93.2723 308.763 92.3835 312.961 92.8903C315.253 93.1674 316.135 93.0859 315.821 92.6255C315.571 92.2601 314.847 91.9509 314.212 91.9391C313.578 91.9268 312.29 91.4935 311.352 90.9757L309.646 90.0344L311.693 90.3653C312.819 90.5473 314.431 90.8745 315.276 91.0923C316.121 91.3096 316.812 91.2213 316.812 90.8961C316.812 90.5708 315.596 89.9752 314.111 89.5728C311.43 88.8463 309.769 87.6317 311.482 87.6502C311.974 87.6551 314.21 88.0501 316.453 88.5266C318.695 89.0037 320.768 89.2611 321.06 89.0981C321.351 88.9352 321.589 88.0896 321.589 87.22C321.589 85.8831 321.748 85.7566 322.613 86.4059C323.176 86.8287 323.637 87.6459 323.637 88.2217ZM286.387 88.2575C287.657 94.2062 287.747 93.7112 285.294 94.2845L283.029 94.8141L282.833 101.207C282.617 108.255 282.797 108.6 286.692 108.616C288.752 108.624 288.942 108.769 288.534 110.014C288.283 110.778 287.884 118.069 287.646 126.216L287.214 141.029L285.696 133.005C284.861 128.592 282.915 120.074 281.373 114.076C278.273 102.025 278.17 98.3939 280.784 93.3291C281.752 91.4546 282.019 90.0635 281.705 88.5457C281.267 86.4386 281.296 86.4059 283.626 86.4059C285.711 86.4059 286.038 86.625 286.387 88.2575ZM236.278 89.8814C236.278 91.417 236.417 91.4837 238.837 91.1059C245.178 90.1172 247.526 89.961 246.857 90.572C246.481 90.914 245.023 91.5275 243.615 91.9342C240.358 92.8755 240.241 93.9167 243.482 93.1069C244.817 92.7736 246.43 92.6131 247.065 92.7508C247.713 92.8903 246.796 93.347 244.98 93.7883C243.197 94.2216 241.738 94.8511 241.738 95.1869C241.738 95.7498 243.291 95.5819 246.771 94.6425C247.544 94.4339 247.881 94.5462 247.622 94.9258C247.386 95.2721 245.163 96.2041 242.684 96.9978C238.912 98.2057 237.835 98.8865 236.092 101.167L234.009 103.892L232.379 102.093C231.482 101.103 230.164 99.574 229.45 98.6957L228.152 97.0984L231.12 94.4635C232.753 93.0149 234.267 91.0257 234.484 90.0437C234.977 87.8119 236.278 87.6946 236.278 89.8814ZM277.867 98.2871C277.826 100.163 277.782 100.2 277.183 98.8476C276.83 98.052 276.715 97.1496 276.925 96.8416C277.624 95.8189 277.911 96.259 277.867 98.2871ZM283.767 131.066C285.461 139.165 286.756 146.02 286.644 146.3C286.533 146.579 281.279 138.743 274.969 128.885C268.659 119.027 263.623 110.848 263.776 110.71C263.928 110.571 266.48 109.997 269.446 109.434C272.412 108.87 275.209 108.157 275.66 107.848C276.215 107.469 276.385 105.945 276.181 103.172C275.9 99.3395 276.044 99.6487 278.283 107.7C279.605 112.452 282.073 122.967 283.767 131.066ZM238.731 104.901L239.387 109.201L237.936 107.968C237.139 107.29 236.096 106.076 235.619 105.27C234.879 104.019 234.938 103.573 236.027 102.222C236.728 101.352 237.475 100.632 237.687 100.621C237.9 100.61 238.369 102.537 238.731 104.901ZM340.017 102.762C340.898 103.611 341.773 104.305 341.961 104.305C342.149 104.305 341.581 103.611 340.699 102.762C339.817 101.913 338.942 101.219 338.755 101.219C338.567 101.219 339.135 101.913 340.017 102.762ZM342.064 105.155C342.064 105.283 342.601 105.77 343.258 106.236C344.341 107.003 344.365 106.981 343.516 106.002C342.624 104.974 342.064 104.647 342.064 105.155ZM346.159 110.168C347.321 111.696 348.426 112.946 348.613 112.946C348.801 112.946 348.004 111.696 346.842 110.168C345.679 108.641 344.575 107.391 344.387 107.391C344.2 107.391 344.997 108.641 346.159 110.168ZM293.607 109.304C293.607 109.676 294.121 110.961 294.748 112.157C295.885 114.323 299.766 116.477 301.145 115.707C301.504 115.506 301.797 115.621 301.797 115.963C301.797 116.305 298.863 123.612 295.277 132.201L288.755 147.818L289.11 129.611C289.305 119.596 289.665 110.778 289.909 110.014C290.21 109.075 290.881 108.625 291.981 108.625C292.875 108.625 293.607 108.93 293.607 109.304Z" fill="#121A17"/>
<line x1="198.003" y1="123.5" x2="0.00251791" y2="124.5" stroke="#121A17"/>
<circle r="3.5" transform="matrix(-1 0 0 1 192.5 123.5)" fill="#121A17"/>
</svg>
