<svg width="413" height="333" viewBox="0 0 413 333" fill="none" xmlns="http://www.w3.org/2000/svg">
<mask id="mask0_1093_463" style="mask-type:alpha" maskUnits="userSpaceOnUse" x="0" y="0" width="413" height="333">
<rect width="413" height="333" fill="#D9D9D9"/>
</mask>
<g mask="url(#mask0_1093_463)">
<path fill-rule="evenodd" clip-rule="evenodd" d="M184.433 -94.1735C181.567 -92.8723 178.292 -90.3871 177.154 -88.65C175.629 -86.3198 171.017 -55.067 159.591 30.4043C151.068 94.1475 144.089 146.722 144.081 147.237C144.073 147.752 137.657 148.174 129.824 148.174H115.582L114.71 141.838C113.322 131.744 106.231 119.159 95.8932 108.445C90.8549 103.223 87.0028 98.6794 87.3337 98.3485C87.6646 98.0175 90.75 97.8964 94.19 98.0787C99.1022 98.3397 101.661 97.6978 106.108 95.0916L111.771 91.7722L109.62 95.9333C108.437 98.2223 106.331 101.633 104.941 103.514C103.551 105.393 102.706 107.224 103.063 107.581C104.347 108.865 112.259 102.41 116.867 96.3179C140.255 65.3998 137.684 33.851 110.69 20.5599C103.571 17.0545 101.101 16.4863 92.9626 16.4775C85.5881 16.4688 82.359 17.0745 78.2959 19.2312C73.4112 21.8237 72.8031 21.8787 68.5726 20.1103C57.095 15.3149 42.9253 27.3147 42.9253 41.8322C42.9253 45.149 46.6113 54.5126 47.9162 54.5126C48.4518 54.5126 49.256 52.562 49.7042 50.178C50.5071 45.8921 57.5683 37.0293 60.1779 37.0293C61.0345 37.0293 60.8085 38.7389 59.5586 41.7123C58.476 44.2886 57.5208 50.0906 57.4371 54.6075C57.3048 61.7208 57.7331 63.4079 60.6287 67.2068L63.9726 71.5939L59.5324 76.0347L55.0922 80.4754L43.7019 75.0069C27.9464 67.4428 18.8475 65.3423 4.89751 66.0467C-8.50554 66.7235 -17.2336 69.5146 -35.7399 79.0418C-51.9125 87.3677 -62.5073 95.2189 -73.6703 107.15C-78.394 112.199 -86.1169 120.441 -90.8331 125.468C-112.068 148.095 -116.351 176.228 -102.645 203.049C-100.344 207.553 -97.9604 212.925 -97.351 214.985C-96.0874 219.249 -85.6249 226.849 -81.0174 226.849C-77.6273 226.849 -77.6648 226.167 -80.5891 234.666C-83.4697 243.041 -84.134 247.327 -82.6294 247.82C-82.0151 248.021 -80.5841 244.496 -79.4491 239.985C-76.963 230.107 -75.7406 228.567 -71.9871 230.577C-68.0364 232.691 -58.5678 235.256 -51.2307 236.201C-39.4085 237.724 -21.1931 232.833 -9.58313 225.019L-3.441 220.886L1.15905 224.013C13.6443 232.497 35.7031 239.313 50.7294 239.328L59.1578 239.337V254.947C59.1578 264.522 59.641 270.557 60.4065 270.557C61.1681 270.557 61.6551 264.84 61.6551 255.904C61.6551 242.428 61.9248 240.736 65.0065 234.849L68.3566 228.447L81.5512 227.726C97.2742 226.866 113.027 222.625 126.259 215.691C131.245 213.078 135.326 211.2 135.326 211.517C135.326 211.836 133.349 226.593 130.934 244.312C127.912 266.484 126.897 277.447 127.68 279.475C130.58 286.987 130.807 287.059 214.337 307.51L293.795 326.964L300.495 325.016C307.802 322.89 315.611 316.415 316.731 311.551C317.099 309.954 328.51 226.658 342.088 126.451L366.776 -55.7451L364.366 -60.247C362.977 -62.8433 360.106 -65.6257 357.586 -66.8183C351.776 -69.5682 205.302 -96.6325 196.51 -96.58C192.519 -96.5563 187.461 -95.5485 184.433 -94.1735ZM280.29 -79.7997C356.887 -65.517 356.966 -65.4995 360.396 -61.6719C362.284 -59.5652 363.824 -56.8665 363.818 -55.6751C363.812 -54.4838 352.633 28.6859 338.976 129.148C321.014 261.279 313.591 312.652 312.141 314.865C311.039 316.547 308.929 318.572 307.45 319.362C305.151 320.594 304.878 320.505 305.551 318.748C305.984 317.62 317.679 233.675 331.539 132.205C356.199 -48.3321 356.693 -52.382 354.644 -56.6992C353.493 -59.1269 351.015 -62.0179 349.138 -63.1255C347.177 -64.2807 313.815 -71.058 270.805 -79.0392C229.599 -86.6844 195.324 -93.1558 194.637 -93.4193C193.95 -93.6828 195.689 -93.9438 198.503 -93.9975C201.316 -94.0512 238.12 -87.6622 280.29 -79.7997ZM267.135 -77.2409C309.672 -69.3434 345.813 -62.1852 347.447 -61.3323C349.082 -60.4806 351.232 -58.0766 352.226 -55.9923C353.893 -52.4969 352.082 -37.9183 328.882 131.968C311.949 255.959 303.125 317.076 301.875 319.005C297.716 325.423 298.827 325.599 216.638 305.537C174.32 295.206 138.19 286.149 136.35 285.409C134.509 284.669 132.167 282.289 131.145 280.121C129.441 276.504 129.667 273.378 133.872 242.459L138.459 208.741L145.632 202.004C149.578 198.298 152.804 195.77 152.802 196.384C152.799 196.998 151.391 207.847 149.672 220.492C147.952 233.137 146.697 243.634 146.883 243.819C147.322 244.259 292.2 276.801 293.714 276.801C294.348 276.801 295.491 272.446 296.255 267.123C300.566 237.058 337.494 -43.4255 337.181 -43.7377C336.195 -44.723 189.851 -72.8675 189.173 -72.2019C188.744 -71.7811 181.909 -22.4467 173.984 37.4314L159.573 146.3L152.999 146.68L146.425 147.06L147.15 142.934C147.55 140.665 154.314 90.4785 162.182 31.4096C170.05 -27.6593 176.842 -78.1862 177.277 -80.8712C178.202 -86.5895 182.673 -91.5985 186.851 -91.5985C188.47 -91.5985 224.597 -85.1371 267.135 -77.2409ZM260.97 -69.6968C260.543 -68.5841 261.048 -67.4639 262.169 -67.0331C264.5 -66.1389 267.052 -68.3581 265.878 -70.26C264.653 -72.2431 261.822 -71.9184 260.97 -69.6968ZM265.81 -55.4866L334.486 -42.0056L334.063 -38.3916C332.415 -24.3224 292.634 273.492 292.368 273.751C292.052 274.059 155.64 243.733 151.5 242.433C149.788 241.896 149.94 239.036 152.844 217.167C155.574 196.614 156.623 191.728 159.145 187.836C161.469 184.251 162.896 183.235 165.293 183.465C167.831 183.709 168.532 184.584 169.039 188.136C169.642 192.359 169.875 192.528 175.907 193.131C181.999 193.74 182.159 193.861 182.529 198.126C183.424 208.463 189.706 218.313 198.204 222.709C202.336 224.846 220.069 229.907 232.633 232.536C246.947 235.532 258.931 230.583 265.816 218.834C268.698 213.916 269.826 208.239 274.837 173.445C278.033 151.244 280.2 132.228 279.74 130.397C278.882 126.981 276.514 124.07 272.977 122.092C271.058 121.017 271.121 119.349 273.823 99.6984C275.603 86.742 276.424 76.3506 275.928 73.04C274.17 61.3162 264.455 49.9332 252.825 45.9695C246.977 43.9751 236.015 44.1562 230.808 46.3317C216.903 52.1424 212.518 60.1985 209.021 86.3574C207.644 96.6601 206.513 105.793 206.508 106.651C206.503 107.605 204.776 108.212 202.073 108.212C194.171 108.212 192.116 111.739 190.247 128.515C189.356 136.502 188.295 143.551 187.887 144.179C187.478 144.807 181.667 145.716 174.97 146.198C165.33 146.892 162.785 146.735 162.745 145.439C162.716 144.54 169.023 95.6535 176.759 36.8045L190.823 -70.1951L193.979 -69.5807C195.714 -69.2435 228.038 -62.9008 265.81 -55.4866ZM247.191 -19.0712C245.413 -16.9582 243.959 -14.1209 243.959 -12.7659C243.959 -9.46156 247.223 -3.32738 249.724 -1.92622C251.512 -0.925919 251.584 0.394073 250.348 9.5741C248.315 24.6872 248.044 23.8768 255.846 26.0484C259.637 27.1037 263.018 27.517 263.358 26.9651C264.166 25.6588 263.119 25.0769 257.006 23.4372C252.121 22.1272 251.966 21.9261 252.474 17.5653C252.969 13.3368 253.23 13.0957 256.596 13.7689C261.036 14.6568 261.409 12.4064 257.005 11.3012C254.146 10.5831 253.858 9.97122 254.195 5.34562C254.53 0.777458 254.959 0.14431 257.961 -0.201614C262.112 -0.679909 267.683 -6.98766 267.683 -11.2074C267.683 -15.1986 264.595 -21.1454 262.008 -22.1383C260.897 -22.5641 257.835 -22.9138 255.205 -22.9138C251.399 -22.9138 249.765 -22.1308 247.191 -19.0712ZM262.64 -17.6825C265.448 -14.6691 265.855 -11.5134 263.908 -7.87432C260.628 -1.7439 251.498 -1.80009 248.308 -7.97047C245.912 -12.6048 245.959 -13.2042 249.044 -17.1255C252.387 -21.3765 258.949 -21.645 262.64 -17.6825ZM71.6443 51.232C71.6443 54.2229 66.5523 64.5905 65.4261 63.8937C63.5406 62.7286 62.7527 56.3209 64.07 52.8567C64.9828 50.454 66.2239 49.5174 68.4915 49.5174C70.332 49.5174 71.6443 50.2317 71.6443 51.232ZM90.4179 51.9326C88.661 55.2157 88.7784 55.7614 91.237 55.7614C93.0787 55.7614 93.0388 55.9962 90.9248 57.5947C89.5925 58.6037 88.7821 59.4729 89.1255 59.5266C89.4689 59.5816 92.5593 59.7576 95.9931 59.9187C100.523 60.131 104.27 61.4086 109.647 64.5768C118.295 69.6707 120.203 73.6632 117.013 79.9797C110.908 92.0632 102.582 97.7303 92.6629 96.5564C87.4898 95.9433 86.4259 96.2142 84.7827 98.5608C83.7376 100.053 82.891 102.132 82.901 103.183C82.9172 104.81 83.087 104.826 84.0547 103.296C84.9949 101.81 85.5256 101.784 87.1576 103.138C91.418 106.674 87.7208 116.103 80.9668 118.925C71.4059 122.92 61.4116 119.346 55.3319 109.758C50.7057 102.462 49.1848 97.0647 49.176 87.9184C49.1685 80.7452 49.914 79.4851 52.5836 82.1551C53.6413 83.2128 55.2632 82.5747 58.9693 79.6387L63.9377 75.7037L65.2874 82.0028C66.6697 88.4454 69.8113 94.4747 71.7879 94.4747C72.396 94.4747 72.893 91.4863 72.893 87.8335C72.893 76.267 77.9576 63.0558 86.1038 53.3737C89.7411 49.0503 92.4432 48.1474 90.4179 51.9326ZM249.792 63.1769C252.658 64.4782 255.908 66.9258 257.016 68.6167C261.093 74.8383 261.315 78.7583 258.716 98.4783C257.332 108.983 256.043 117.743 255.852 117.944C255.661 118.145 247.71 116.692 238.182 114.717L220.859 111.125L220.943 104.985C220.99 101.608 221.758 93.0722 222.648 86.0164C224.477 71.5352 226.964 66.4763 233.994 62.9446C239.526 60.1648 243.279 60.2197 249.792 63.1769ZM91.8725 63.5041C90.1294 65.2474 89.8747 68.2496 91.4705 68.2496C92.0723 68.2496 93.2848 67.3829 94.1638 66.3239C96.1917 63.88 94.0864 61.2899 91.8725 63.5041ZM103.714 70.3101C103.245 70.7797 102.861 72.7553 102.861 74.7022C102.861 77.527 102.294 78.2476 100.051 78.28C97.3004 78.3188 97.293 78.3575 99.6891 80.1695C103.134 82.7758 104.51 81.8979 105.66 76.3644C106.612 71.7862 105.548 68.4769 103.714 70.3101ZM110.393 74.4175C109.531 76.0284 109.516 77.0987 110.349 77.6132C112.218 78.7683 114.099 77.1661 114.099 74.42C114.099 71.3029 112.061 71.3017 110.393 74.4175ZM88.2727 80.2594C87.2575 82.9057 89.2716 88.4916 91.5092 89.2359C92.7291 89.6405 93.0163 89.1934 92.4457 87.776C90.0245 81.7642 89.9534 81.3134 91.689 82.9231C92.6142 83.7823 94.1988 84.4841 95.2114 84.4841C96.5425 84.4841 96.2403 83.62 94.1201 81.3621C90.7026 77.7243 89.3428 77.4683 88.2727 80.2594ZM237.343 116.998C271.706 123.977 275.983 125.377 277.149 130.027C278.159 134.048 268.18 205.716 265.618 212.848C262.022 222.858 255.892 228.06 244.758 230.557C239.786 231.671 236.926 231.282 222.366 227.518C213.186 225.144 204.236 222.655 202.48 221.987C197.374 220.045 190.067 212.932 187.601 207.503C184.767 201.264 184.516 192.439 187.145 191.43C188.32 190.979 189.018 189.07 189.018 186.301C189.018 182.255 189.32 181.892 192.688 181.892C196.587 181.892 197.079 183.263 198.066 196.877L198.383 201.248L205.875 201.604C209.995 201.799 216.457 201.498 220.234 200.935C225.874 200.093 227.032 199.507 226.71 197.659C226.408 195.924 226.882 195.589 228.785 196.193C230.757 196.819 231.393 196.275 231.954 193.492C232.52 190.687 236.913 157.691 238.063 147.613C238.292 145.592 237.13 144.934 231.204 143.737C227.278 142.944 223.907 142.69 223.712 143.172C223.516 143.655 216.191 144.426 207.436 144.883L191.515 145.716L191.559 141.637C191.645 133.674 194.877 114.551 196.457 112.645C198.921 109.678 203.914 110.208 237.343 116.998ZM3.91232 114.768C3.25928 116.751 -5.93706 121.995 -7.2931 121.157C-8.89886 120.164 -7.2369 118.378 -2.25727 115.748C3.17812 112.876 4.60908 112.649 3.91232 114.768ZM0.569687 131.652C3.46407 134.901 7.73196 141.632 10.057 146.613C12.3807 151.593 14.6857 155.661 15.1802 155.655C15.6747 155.648 29.0028 154.809 44.7983 153.79C60.5938 152.77 85.879 151.64 100.988 151.277C116.096 150.914 149.153 149.738 174.449 148.664C199.744 147.592 220.685 146.96 220.986 147.259C221.89 148.165 224.412 196.861 223.597 197.677C223.181 198.094 217.759 198.723 211.549 199.078L200.256 199.721V193.461C200.256 190.016 199.899 185.416 199.463 183.237C198.685 179.341 198.564 179.282 192.283 179.646C185.981 180.013 185.891 180.077 185.483 184.378C184.981 189.668 183.704 190.59 176.843 190.615C172.057 190.631 171.537 190.336 171.537 187.614C171.537 182.431 170.221 180.643 166.408 180.643C163.363 180.643 162.796 180.139 162.796 177.438C162.796 172.925 160.63 169.355 158.407 170.208C157.387 170.6 156.553 171.765 156.553 172.798C156.553 174.119 155.871 173.833 154.25 171.831C151.426 168.343 147.67 169.212 148.691 173.119C149.324 175.539 149.127 175.624 146.092 174.241C141.969 172.362 140.754 173.49 142.582 177.501C143.842 180.268 143.692 180.674 141.223 181.172C138.452 181.73 27.4857 186.949 19.2009 186.911C14.9479 186.891 14.7157 187.149 10.5252 196.566C5.25588 208.411 -7.54782 222.053 -18.2887 227.265C-36.4055 236.056 -58.7976 235.76 -74.9527 226.517C-81.4569 222.794 -82.8329 220.435 -80.9312 216.26C-79.1844 212.428 -76.9455 213.156 -76.9455 217.556C-76.9455 219.401 -76.2238 220.605 -75.1163 220.605C-71.4115 220.605 -69.124 211.443 -72.0883 208.479C-74.442 206.125 -70.0005 194.788 -66.3682 193.876C-61.9617 192.77 -55.9794 186.176 -54.3024 180.577C-52.648 175.056 -54.3262 166.875 -57.946 162.805C-59.7628 160.762 -59.7016 159.872 -57.2081 152.129C-55.7109 147.482 -53.7805 142.796 -52.9177 141.716C-52.0549 140.637 -44.8863 136.842 -36.9886 133.282C-29.0909 129.722 -20.1043 125.494 -17.0176 123.887C-11.4474 120.983 -11.3837 120.979 -8.04853 123.355C-6.20177 124.67 -2.32345 128.404 0.569687 131.652ZM-92.957 137.247C-95.4081 144.443 -96.1636 149.646 -96.6368 162.607C-97.2399 179.079 -95.498 198.452 -93.1618 201.268C-92.2703 202.342 -92.5737 203.641 -94.1832 205.629L-96.4757 208.459L-99.3564 203.605C-109.652 186.262 -110.618 164.502 -101.921 145.913C-98.8881 139.432 -91.4362 128.193 -90.1713 128.193C-90.0065 128.193 -91.2601 132.266 -92.957 137.247ZM98.5229 142.774C97.8036 147.572 95.1902 150.91 93.4883 149.206C92.8303 148.548 95.9669 136.491 97.3829 134.236C98.9537 131.732 99.5305 136.053 98.5229 142.774ZM-56.2441 172.614C-55.1702 178.335 -59.4069 187.396 -64.3491 189.953C-66.4706 191.049 -68.205 191.701 -68.205 191.401C-68.205 190.157 -61.6358 166.19 -61.0115 165.156C-60.0013 163.482 -57.1069 168.009 -56.2441 172.614ZM154.396 180.61C154.396 187.341 156.788 186.528 158.263 179.297C158.884 176.259 159.628 174.435 159.918 175.243C160.854 177.853 157.886 186.422 155.204 188.85C151.874 191.865 143.675 191.796 140.282 188.725C136.911 185.674 137.199 184.393 141.257 184.37C146.692 184.339 148.34 182.764 146.624 179.24C145.25 176.421 145.274 176.393 147.119 178.696C148.187 180.03 149.061 181.855 149.061 182.754C149.061 183.654 149.562 184.389 150.175 184.389C151.789 184.389 153.045 178.389 152.093 175.229C151.45 173.095 151.606 172.838 152.837 174.007C153.695 174.822 154.396 177.793 154.396 180.61ZM87.8768 187.446C87.8768 187.755 86.4059 192.671 84.6079 198.373C80.9381 210.012 73.5061 225.6 71.6281 225.6C69.9037 225.6 69.9137 225.56 74.6112 214.063C76.9312 208.389 80.0665 199.952 81.5811 195.316C83.2631 190.165 85.0237 186.887 86.1063 186.887C87.0802 186.887 87.8768 187.139 87.8768 187.446ZM-76.2438 208.189C-74.4719 209.854 -73.232 212.394 -73.2782 214.266C-73.3569 217.455 -73.3681 217.458 -74.4969 214.645C-77.1528 208.033 -82.8816 210.521 -84.4287 218.959C-85.299 223.708 -85.5612 223.563 -87.6477 217.171C-88.3108 215.141 -88.4893 215.159 -90.1451 217.409C-91.8282 219.697 -91.9294 219.614 -91.9294 215.952C-91.9294 213.817 -92.5774 211.856 -93.3691 211.591C-94.3455 211.266 -94.0696 209.982 -92.5125 207.605C-90.4397 204.44 -89.6818 204.158 -84.7509 204.714C-81.4294 205.088 -78.0943 206.451 -76.2438 208.189ZM203.706 267.516C194.174 272.689 194.33 288.658 203.961 293.639C215.039 299.369 226.477 292.052 226.477 279.237C226.477 275.008 225.696 273.272 222.232 269.808C218.678 266.254 217.101 265.571 212.555 265.612C209.567 265.639 205.585 266.496 203.706 267.516ZM220.33 271.71C228.373 279.755 222.87 293.036 211.494 293.036C207.426 293.036 205.52 292.248 202.657 289.386C199.795 286.522 199.007 284.616 199.007 280.548C199.007 276.479 199.795 274.573 202.657 271.71C205.52 268.848 207.426 268.06 211.494 268.06C215.562 268.06 217.467 268.848 220.33 271.71Z" fill="black"/>
</g>
</svg>
