<svg width="204" height="222" viewBox="0 0 204 222" fill="none" xmlns="http://www.w3.org/2000/svg">
<path fill-rule="evenodd" clip-rule="evenodd" d="M146.823 19.0549C143.378 20.4455 135.05 25.9916 129.919 30.3129C126.299 33.3597 125.794 33.6233 124.539 33.1209C121.575 31.9353 121.077 31.874 122.885 32.917C125.183 34.243 126.298 34.314 127.228 33.193C128.668 31.4581 140.03 23.282 143.902 21.1948C146.1 20.0098 148.881 18.8833 150.082 18.6918C153.195 18.1953 155.121 19.9915 158.11 26.1777C160.335 30.7825 163.726 40.9038 164.594 45.5273C165.076 48.0944 165.573 48.2934 173.451 49.0772C184.562 50.1832 193.512 52.4683 196.178 54.8804C197.669 56.2296 197.396 60.3453 195.501 65.077C193.892 69.097 188.738 78.4695 185.702 82.8994L184.112 85.2189L187.291 88.8167C195.388 97.9783 200.367 105.253 201.538 109.634C202.053 111.56 202.015 112.156 201.308 113.235C199.393 116.158 188.502 120.253 175.345 122.996L169.439 124.228L169.072 126.073C168.87 127.088 168.445 130.394 168.126 133.421C166.955 144.56 164.327 153.095 161.625 154.541C159.084 155.901 149.232 152.54 146.263 149.3C145.346 148.299 144.027 147.194 143.331 146.844C142.636 146.494 141.847 145.482 141.578 144.594C141.31 143.707 140.625 141.846 140.057 140.46C139.281 138.569 139.021 136.621 139.015 132.66C139.011 129.756 138.864 126.843 138.688 126.188C138.312 124.784 136.583 124.083 135.569 124.924C135.012 125.387 134.786 125.16 134.53 123.879C134.157 122.013 132.927 121.302 131.754 122.276C131.188 122.745 130.954 124.021 130.954 126.639V130.339H129.154C126.203 130.339 124.34 133.406 126.567 134.598C127.277 134.978 127.877 134.907 128.675 134.348C130.096 133.353 131.492 133.874 131.492 135.399C131.492 137.427 130.383 138.028 129.015 136.741C127.34 135.168 125.843 135.577 125.843 137.609C125.843 138.967 126.192 139.381 128.11 140.291C129.357 140.882 130.386 141.545 130.396 141.762C130.442 142.692 114.685 154.008 113.346 154.008C113.037 154.008 111.368 152.253 109.637 150.108C105.373 144.826 100.428 140.088 97.1433 138.139L94.4235 136.525L93.1793 131.146L91.9355 125.766L87.3717 125.134C84.8622 124.787 82.7261 124.485 82.626 124.462C82.526 124.44 83.0644 123.684 83.8229 122.783C84.582 121.88 85.5793 119.884 86.0398 118.345C87.3523 113.958 88.0457 105.327 87.4992 100.174C86.9107 94.6178 87.0742 93.912 89.0538 93.4774C91.7231 92.891 92.4799 90.2514 90.5358 88.3073C89.5041 87.2755 89.4766 87.1093 90.2669 86.6671C92.2567 85.553 90.7279 82.6745 87.8397 82.0973C86.6148 81.852 86.3459 81.5669 86.596 80.7788C87.3163 78.5087 85.3146 76.5453 82.2807 76.5453C81.2801 76.5453 80.9595 76.2187 80.8266 75.0659C80.7217 74.1531 80.1946 73.3838 79.4501 73.0573C78.6313 72.6979 78.3403 72.2224 78.5447 71.578C78.7109 71.0556 78.6851 70.1202 78.4882 69.4994C78.1967 68.5811 77.7889 68.4106 76.3004 68.5843C74.7323 68.7678 74.4704 68.6365 74.4704 67.6688C74.4704 65.1986 71.161 64.3346 69.3524 66.3331C68.3858 67.4009 68.3546 67.402 67.2518 66.3896C64.2302 63.6154 59.5367 62.121 58.6012 63.6348C58.0542 64.5202 57.2564 64.2443 57.2564 63.1695C57.2564 59.4529 64.7622 55.98 80.0273 52.6329C83.2317 51.9304 85.9327 51.2741 86.0296 51.1746C86.1264 51.0745 86.475 48.2095 86.8042 44.807C88.042 32.0101 90.042 24.9281 92.9587 23.0174C94.125 22.2535 94.7495 22.2051 97.0632 22.7011C100.609 23.4617 108.742 26.5183 115.222 29.5259C118.048 30.8374 120.448 31.8229 120.555 31.7158C120.83 31.4409 110.592 26.7259 105.133 24.614C102.618 23.6408 99.0713 22.5381 97.2514 22.1637C94.3154 21.559 93.7855 21.5854 92.5515 22.3939C89.8225 24.182 87.8908 29.8207 86.5454 39.9247C86.1291 43.0539 85.7832 46.7468 85.7778 48.1309L85.767 50.6479L82.6739 51.2488C75.3117 52.6781 66.6203 55.144 63.0231 56.824C58.0343 59.1543 56.4635 60.8192 56.5765 63.6558L56.6614 65.7865L53.8658 65.7876C48.6882 65.7887 45.2766 68.7968 48.161 70.8173C49.3391 71.6425 49.3315 71.6549 47.1228 72.5387C45.899 73.0282 44.1555 74.2741 43.2485 75.3069C41.688 77.0848 41.6444 77.2537 42.4363 78.4619C43.234 79.6798 43.1964 79.7955 41.6229 80.9585C38.2086 83.4825 36.6475 88.1555 39.0123 88.7742C39.9618 89.0222 40.0822 89.3444 39.7966 90.8678C39.4276 92.834 40.2027 94.8351 41.333 94.8351C41.7649 94.8351 42.1754 95.7399 42.3701 97.1213C43.049 101.943 44.3551 105.046 46.7629 107.559C48.9243 109.815 49.0653 110.125 48.403 111.173C46.5595 114.089 47.0356 118.966 49.2804 120.168C51.9938 121.62 54.5463 118.959 54.5904 114.631L54.6141 112.318L55.3166 114.285C56.3215 117.098 58.6938 120.995 60.8617 123.395C62.426 125.126 62.681 125.749 62.433 127.228L62.1371 128.994L62.7251 127.273C63.2765 125.662 63.1721 125.392 61.0838 123.019C59.8573 121.626 58.1042 118.891 57.1876 116.94C53.3612 108.796 52.8109 107.77 52.4042 108.021C52.1697 108.166 52.1143 108.829 52.281 109.494C52.5774 110.677 52.5597 110.683 51.4725 109.724C49.9948 108.42 49.0642 106.064 49.2804 104.172C49.4294 102.869 49.7269 102.609 51.2396 102.464C52.2208 102.37 53.3601 102.572 53.7717 102.914C54.975 103.913 55.4715 103.14 55.7749 99.7981C56.0703 96.5425 58.3646 90.3154 58.7761 91.6527C59.1672 92.9233 60.5981 94.2972 61.5298 94.2972C62.0128 94.2972 63.2942 93.8453 64.3771 93.2934C66.3362 92.2944 66.3465 92.2955 66.5078 93.4279C66.7284 94.9717 69.0577 95.2014 70.7339 93.8437L72.0244 92.799L72.9706 94.3553C74.0384 96.1111 75.2681 96.3295 76.7141 95.0207C77.6356 94.1869 77.698 94.1971 77.698 95.1821C77.698 97.3709 79.8228 98.2026 81.5109 96.6748C82.2538 96.003 82.6868 95.9519 83.5814 96.4312C84.2043 96.7641 84.9435 96.8943 85.2243 96.7206C85.5056 96.5468 85.8929 97.0315 86.085 97.7975C86.603 99.8605 85.9741 115.238 85.2797 117.492C84.4034 120.336 82.5184 122.893 80.1763 124.416C78.1558 125.729 78.1224 125.805 78.4264 128.373C78.755 131.146 79.5049 132.491 80.7223 132.491C81.7567 132.491 81.6594 133.428 80.1219 138.296C78.3042 144.05 76.8351 146.159 74.4865 146.384C71.7328 146.649 68.4815 145.536 65.5643 143.332C63.0032 141.396 57.2564 133.717 57.2564 132.23C57.2564 131.728 58.0192 131.421 59.5378 131.311C61.3356 131.181 61.8552 130.918 61.9876 130.07C62.0908 129.408 61.9892 129.231 61.7234 129.609C61.4857 129.948 59.3544 130.385 56.9874 130.581C42.1146 131.811 34.9988 133.979 26.8377 139.766C18.1457 145.929 8.74154 159.271 4.28743 171.76C0.984497 181.021 0.0382663 186.009 0.00114873 194.353C-0.0461897 204.987 1.3632 210.316 5.40849 214.793C9.45968 219.278 16.0123 221.446 25.5182 221.449C32.4861 221.45 37.7643 220.343 45.7763 217.197C50.0438 215.522 51.1234 215.329 58.0257 215.012C73.1438 214.319 96.061 217.24 104.752 220.969C105.662 221.359 105.699 220.967 105.4 214.189C105.226 210.232 104.976 206.311 104.844 205.475L104.605 203.954L107.155 206.222C108.558 207.469 111.279 209.243 113.202 210.163C116.419 211.702 117.129 211.834 122.078 211.801C126.38 211.773 128.098 211.515 130.657 210.512C134.87 208.861 138.627 205.308 140.581 201.125C143.641 194.575 144.422 188.522 144.436 171.233C144.445 159.266 144.503 158.542 145.544 157.435C146.148 156.791 146.774 155.284 146.935 154.084L147.227 151.904L149.183 152.902C152.75 154.721 158.821 156.299 160.814 155.925C163.163 155.485 164.916 153.241 166.424 148.743C167.674 145.016 169.377 135.555 169.936 129.237L170.295 125.176L175.235 124.193C187.717 121.71 199.602 117.347 201.924 114.395C202.536 113.617 203.037 112.198 203.037 111.242C203.037 107.605 197.194 98.3763 189.108 89.2416C187.301 87.2007 185.823 85.3271 185.823 85.078C185.823 84.8289 186.913 82.9247 188.246 80.8466C196.307 68.2707 199.792 58.6691 197.589 55.1064C195.618 51.9175 185.35 49.1944 169.877 47.756L166.034 47.3988L165.136 44.0856C161.705 31.4167 157.437 21.5703 154.362 19.2244C152.292 17.6455 150.417 17.6036 146.823 19.0549ZM137.766 72.6452C130.594 79.3764 124.206 85.3303 123.571 85.8768C122.426 86.8618 122.383 86.8403 118.75 83.4411C116.734 81.5545 114.17 79.3189 113.053 78.4722L111.02 76.9331L108.945 77.8691C106.521 78.9622 102.198 83.1888 101.442 85.206C100.828 86.8414 101.269 87.6294 105.504 92.4644C108.636 96.039 116.23 102.785 119.757 105.125C122.965 107.253 124.327 107.102 128.339 104.168C134.403 99.733 161.616 71.1374 161.616 69.1997C161.616 67.5381 153.476 60.4072 151.579 60.4072C151.153 60.4072 144.937 65.914 137.766 72.6452ZM55.1181 92.5806C56.1353 93.5285 56.1386 93.6527 55.23 97.4183L54.2978 101.283L52.1143 101.287C48.8269 101.292 47.9463 102.189 48.1922 105.282L48.3966 107.853L46.9183 106.082C45.3599 104.216 44.0598 100.849 43.5084 97.2558C43.2211 95.3859 43.3631 94.9432 44.5912 93.8776C45.8597 92.777 46.0888 92.7355 46.8274 93.4741C47.942 94.5887 48.6188 94.5172 51.3891 92.9921C52.6931 92.2745 53.8303 91.6693 53.9169 91.6473C54.003 91.6252 54.5436 92.0454 55.1181 92.5806ZM65.9774 100.887C65.5428 101.413 66.1759 101.559 68.8812 101.559C71.7807 101.559 72.1917 101.451 71.4197 100.887C70.9135 100.517 69.6069 100.214 68.516 100.214C67.4256 100.214 66.283 100.517 65.9774 100.887ZM82.0015 101.559C82.0015 102.299 82.2436 102.904 82.5394 102.904C82.8353 102.904 83.0774 102.299 83.0774 101.559C83.0774 100.82 82.8353 100.214 82.5394 100.214C82.2436 100.214 82.0015 100.82 82.0015 101.559ZM77.9255 102.366C78.0536 103.106 78.4479 105.215 78.8008 107.052C79.5802 111.104 79.3392 111.857 77.0508 112.517L75.2773 113.028L76.9228 113.077C77.8276 113.103 79.031 112.787 79.5964 112.373C80.5388 111.684 80.5754 111.335 80.0326 108.204C79.7072 106.324 79.0471 103.94 78.5662 102.904C77.9024 101.474 77.7486 101.345 77.9255 102.366ZM52.6458 111.28C54.3559 112.991 53.3601 118.669 51.2315 119.345C48.7672 120.127 47.4692 116.365 48.9372 112.696C49.912 110.26 51.1519 109.787 52.6458 111.28ZM72.0432 116.353C73.2794 118.643 74.6909 119.58 76.8502 119.544L79.0428 119.508L76.699 118.777C75.4101 118.375 73.7372 117.483 72.9814 116.796C72.2256 116.108 71.8033 115.909 72.0432 116.353ZM120.316 118.265C119.216 119.035 119.182 119.215 119.882 120.551C120.913 122.52 124.451 126.573 125.138 126.573C125.766 126.573 125.441 124.365 124.192 120.161C123.311 117.193 122.448 116.771 120.316 118.265ZM123.383 120.991C123.727 122.358 123.911 123.574 123.791 123.694C123.672 123.814 122.666 122.907 121.556 121.68C119.989 119.945 119.703 119.344 120.271 118.984C121.912 117.944 122.752 118.486 123.383 120.991ZM133.508 124.07C133.825 124.765 134.254 126.701 134.463 128.374C134.909 131.937 135.791 132.434 135.803 129.129C135.808 127.871 136.05 126.479 136.341 126.035C137.367 124.473 137.93 126.665 137.939 132.253C137.946 136.906 138.172 138.281 139.554 142.066L141.16 146.468L139.286 147.252C138.255 147.683 137.144 148.623 136.816 149.342C136.259 150.563 135.989 150.636 132.646 150.471L129.071 150.295L132.379 150.847C135.615 151.386 135.691 151.438 135.902 153.241C136.104 154.974 136.022 155.084 134.521 155.084C132.488 155.084 126.112 153.983 126.112 153.633C126.112 153.121 127.962 150.243 128.29 150.243C128.473 150.243 128.645 149.94 128.673 149.57C128.701 149.201 129.327 147.307 130.064 145.362C130.801 143.418 131.243 141.569 131.045 141.254C130.847 140.938 129.777 140.303 128.667 139.84C127.265 139.257 126.65 138.665 126.65 137.897C126.65 136.604 128.002 136.411 128.472 137.637C128.683 138.185 129.31 138.42 130.268 138.31C132.027 138.106 133.166 135.717 132.224 134.21C131.522 133.09 129.012 132.722 127.969 133.588C127.359 134.095 127.126 134.031 126.838 133.28C126.288 131.848 128.049 130.83 130.422 131.209L132.396 131.525L132.144 127.166C131.888 122.752 132.389 121.615 133.508 124.07ZM85.9924 126.112L90.9963 126.727L91.878 130.832C92.9856 135.984 92.9926 135.881 91.5735 135.121C90.921 134.771 88.0807 133.703 85.2625 132.746C80.1822 131.022 80.1343 130.989 79.7099 128.947C79.244 126.704 79.4861 125.497 80.4022 125.497C80.7244 125.497 83.2403 125.774 85.9924 126.112ZM111.288 127.893C111.086 128.97 111.091 130.022 111.298 130.23C111.885 130.819 119.898 130.674 120.154 130.07C120.395 129.502 115.554 126.913 113.101 126.298C111.77 125.964 111.626 126.091 111.288 127.893ZM115.891 128.456L118.312 129.753L114.95 129.777C111.615 129.801 111.285 129.604 111.915 127.962C112.348 126.832 113.012 126.914 115.891 128.456ZM57.2257 133.432C59.4447 139.621 65.7262 145.993 70.8081 147.211L72.2562 147.558L71.1513 150.055C69.2895 154.264 70.6871 158.94 74.1777 160.184C78.1429 161.595 80.088 153.136 76.8739 148.459C76.3085 147.636 76.393 147.293 77.4118 146.274C78.7631 144.923 80.6733 140.199 81.5507 136.039C81.8686 134.531 82.2107 133.207 82.3113 133.096C82.4119 132.985 84.1107 133.465 86.086 134.163L89.6784 135.431L89.3588 140.282C88.5837 152.039 85.3238 160.714 80.3506 164.255C78.2531 165.749 73.8469 166.253 71.0265 165.322C68.1147 164.361 64.2501 161.055 61.1833 156.9C57.6717 152.143 47.821 132.558 48.7748 132.229C49.529 131.969 52.3343 131.634 54.8621 131.501C56.3 131.426 56.5915 131.664 57.2257 133.432ZM49.6936 137.198C50.8733 139.638 51.6656 141.646 51.4542 141.659C51.2428 141.672 48.1653 142.014 44.6149 142.418C41.0645 142.823 38.0187 142.994 37.8466 142.798C37.4388 142.335 35.201 136.777 35.201 136.228C35.201 135.483 45.6079 132.4 47.1577 132.687C47.3729 132.727 48.5144 134.757 49.6936 137.198ZM96.4139 138.973L100.829 141.691V144.12C100.829 146.401 100.756 146.525 99.6189 146.143C98.9529 145.919 96.593 145.237 94.374 144.628L90.3395 143.518L90.4987 139.887C90.6063 137.432 90.8747 136.256 91.3277 136.256C91.6967 136.256 93.9851 137.479 96.4139 138.973ZM35.1214 139.663C41.2259 155.98 39.1828 174.923 29.3854 192.838C28.3036 194.815 27.536 196.542 27.6791 196.674C27.8221 196.806 29.8754 196.57 32.2424 196.149C34.6868 195.714 41.7746 195.273 48.6494 195.128C59.5894 194.898 60.7691 194.783 60.9224 193.941C61.434 191.128 62.2495 189.512 63.1581 189.512C64.255 189.512 64.7838 190.525 64.7956 192.649C64.809 194.959 65.4104 195.361 69.105 195.535C72.2213 195.681 72.6053 195.822 72.7554 196.879C72.9249 198.069 71.7533 198.619 67.4772 199.355C66.7375 199.482 67.6531 199.619 69.5111 199.66C72.1051 199.715 72.969 199.938 73.2299 200.618C73.7264 201.911 71.977 202.946 69.1227 203.046C67.0259 203.12 66.943 203.16 68.5531 203.326C71.9518 203.676 72.8566 204.031 72.8566 205.015C72.8566 205.542 72.5542 206.293 72.1841 206.686C71.6414 207.261 71.6672 207.351 72.3186 207.155C73.5553 206.782 73.6909 203.65 72.4838 203.337C69.7586 202.631 76.698 203.107 82.8084 204.046C91.2847 205.348 97.9841 206.973 101.771 208.646L104.595 209.894V212.677C104.595 215.306 104.529 215.439 103.384 215.108C94.6607 212.585 86.5072 211.259 73.4585 210.243C68.5412 209.86 64.9828 209.517 65.5498 209.481C66.1168 209.445 66.4492 209.284 66.2889 209.124C65.6461 208.481 58.2839 210.844 52.6936 213.487C44.8527 217.194 39.852 218.939 34.2763 219.911C22.9527 221.885 12.244 219.916 7.04758 214.903C2.53053 210.546 1.01408 205.297 1.11091 194.353C1.17116 187.547 1.38741 185.755 2.80864 180.287C7.66513 161.602 18.6353 145.202 31.0116 138.126C32.28 137.4 33.4823 136.804 33.683 136.801C33.8836 136.797 34.5307 138.085 35.1214 139.663ZM106.274 146.88C108.178 149.173 110.585 152.139 111.623 153.47C112.662 154.802 114.759 157.482 116.285 159.425L119.058 162.959L117.479 165.342C115.772 167.919 112.99 174.417 113.414 174.841C113.556 174.984 114.924 172.594 116.453 169.53C119.4 163.625 124.975 154.546 125.654 154.546C125.877 154.546 127.454 154.909 129.158 155.353C130.862 155.797 133.294 156.16 134.563 156.16C135.833 156.16 136.871 156.395 136.871 156.684C136.871 157.441 139.812 158.85 141.392 158.85C143.348 158.85 143.527 160.617 143.161 176.28C142.8 191.698 142.145 195.822 139.156 201.525C135.725 208.071 130.675 210.759 121.809 210.76C117.382 210.76 116.285 210.566 113.604 209.31C111.902 208.512 109.15 206.576 107.487 205.007L104.465 202.153L104.792 198.388C104.971 196.317 105.748 191.475 106.518 187.629C108.506 177.695 108.219 173.739 104.841 164.498C102.353 157.689 102.279 157.31 102.034 150.108C101.88 145.581 101.983 142.711 102.298 142.711C102.581 142.711 104.37 144.588 106.274 146.88ZM127.693 148.709C126.749 150.588 124.506 154.401 122.709 157.182L119.441 162.239L117.617 160.141C116.613 158.987 115.333 157.403 114.771 156.622L113.749 155.201L117.376 153.034C119.37 151.843 122.798 149.518 124.994 147.868C127.189 146.218 129.081 144.963 129.198 145.08C129.315 145.197 128.638 146.83 127.693 148.709ZM56.2171 150.743L58.137 154.463L55.1412 154.759C53.4941 154.921 49.5284 155.328 46.3293 155.663C43.1302 155.997 40.3631 156.122 40.1807 155.939C39.8499 155.608 38.866 148.55 39.1156 148.301C39.2522 148.164 49.8732 147.22 52.6839 147.095C54.159 147.029 54.4629 147.343 56.2171 150.743ZM94.374 149.742C100.085 151.035 100.635 151.444 100.976 154.655C101.142 156.222 101.432 157.894 101.62 158.37C101.917 159.122 101.373 159.077 97.444 158.028C94.9598 157.364 91.6628 156.648 90.1173 156.435C87.993 156.143 87.3803 155.861 87.6041 155.278C87.7671 154.853 88.2878 153.174 88.7612 151.545C89.4266 149.255 89.8252 148.64 90.5186 148.829C91.0119 148.963 92.7468 149.374 94.374 149.742ZM144.066 150.84C144.761 152.828 144.062 155.017 142.506 155.726C139.916 156.906 137.975 153.205 139.596 150.176C140.469 148.545 143.418 148.983 144.066 150.84ZM73.3698 156.114C73.7113 156.752 74.7081 157.418 75.5839 157.593C76.8594 157.848 77.0552 158.059 76.5651 158.649C75.7706 159.607 73.7001 159.597 72.8996 158.633C71.7979 157.305 71.2051 154.342 71.5978 152.125L71.9786 149.974L72.3638 152.463C72.5752 153.833 73.0282 155.476 73.3698 156.114ZM64.8757 162.377C66.3174 163.725 68.5213 165.293 69.7731 165.862C74.5021 168.008 80.3366 166.692 83.5911 162.744L85.1791 160.817L90.9866 161.763C94.1809 162.284 98.4731 163.354 100.525 164.142C104.178 165.544 104.275 165.632 105.22 168.368C105.752 169.904 106.35 172.183 106.55 173.433C106.883 175.517 106.828 175.671 105.888 175.3C100.091 173.014 84.7686 170.261 70.9738 169.027C64.2829 168.429 43.1383 168.714 40.1296 169.444C38.8902 169.744 38.8767 169.702 39.2323 166.586C39.8735 160.957 39.1758 161.342 50.2632 160.505C62.0182 159.618 61.9117 159.604 64.8757 162.377ZM83.3463 175.456C96.0922 177.406 106.747 180.16 106.747 181.504C106.747 182.134 105.085 190.269 104.922 190.437C104.859 190.501 103.047 189.942 100.895 189.193C93.2906 186.549 82.9413 184.829 66.9995 183.559C61.0989 183.089 56.4323 183.098 47.3648 183.592C40.8225 183.949 35.2882 184.352 35.0665 184.488C34.4253 184.879 34.5883 184.152 36.2312 179.291L37.7761 174.719L43.078 174.381C53.5984 173.712 75.8308 174.305 83.3463 175.456ZM61.6782 189.108C61.3754 189.479 60.8574 190.789 60.5281 192.022L59.9289 194.264L53.8857 193.973C48.5472 193.716 39.6315 194.229 31.7916 195.244L29.189 195.58L30.5775 192.84C32.2757 189.489 31.8911 189.582 46.2287 189.023C63.2329 188.359 62.2974 188.354 61.6782 189.108ZM79.0428 189.842C88.0484 190.888 95.5699 192.408 100.164 194.111L103.817 195.465L103.802 199.756C103.79 203.361 103.659 203.993 102.981 203.706C98.5936 201.847 85.8284 199.008 79.0428 198.38C74.0632 197.92 73.3945 197.696 73.3945 196.488C73.3945 195.04 71.6258 194.276 68.7032 194.462L66.1888 194.622L65.7036 192.202C65.4368 190.87 64.9666 189.474 64.6595 189.098C64.015 188.311 67.3416 188.483 79.0428 189.842ZM67.7462 208.34C67.0678 208.631 66.9688 208.802 67.4772 208.802C67.921 208.802 68.7682 208.594 69.36 208.34C70.0383 208.048 70.1373 207.878 69.6289 207.878C69.1852 207.878 68.3379 208.085 67.7462 208.34Z" fill="black"/>
<ellipse cx="101.249" cy="28.0655" rx="27.0151" ry="27.8155" fill="white"/>
<path fill-rule="evenodd" clip-rule="evenodd" d="M96.4232 0.666919C90.5191 1.90561 86.1819 4.23172 81.6885 9.10923C76.2373 15.0265 74.2344 20.6977 74.2344 28.3152C74.2344 37.1437 77.7419 44.6955 84.5169 50.4523C89.25 54.4746 94.9347 56.5309 101.32 56.5309C120.675 56.5309 133.647 37.8329 127.402 18.9375C124.677 10.6917 117.725 3.87111 109.431 1.30447C105.884 0.206261 99.9944 -0.0818992 96.4232 0.666919ZM106.683 1.89801C116.733 3.82108 124.568 11.4621 127.253 21.9572C129.847 32.0993 125.874 43.6705 117.685 49.8264C112.652 53.6101 108.122 55.1013 101.627 55.1133C96.2871 55.1233 91.7285 53.759 87.3745 50.8465C71.7402 40.3899 71.4032 16.1508 86.7502 5.94827C92.8552 1.8896 99.5397 0.531243 106.683 1.89801ZM100.626 10.2947C98.8653 10.5752 96.2539 11.1075 94.8231 11.4774C91.3335 12.3795 84.6394 15.7169 82.4249 17.6584L80.6331 19.2297L81.1034 21.4717C81.7334 24.4746 83.8746 29.6443 86.0105 33.3191C87.9472 36.6514 92.1572 41.2408 95.8236 44.0167C98.58 46.1039 104.148 48.9267 105.508 48.9267C106.411 48.9267 110.469 45.0505 112.154 42.5803C115.494 37.6808 118.458 28.773 119.189 21.4361C119.563 17.6824 119.214 13.2431 118.474 12.3518C117.886 11.643 114.354 10.5484 111.172 10.0882C107.828 9.60471 104.55 9.66874 100.626 10.2947ZM113.943 11.541C118.654 12.5139 118.436 12.237 118.436 17.2706C118.436 28.2543 114.747 38.4824 108.211 45.6232L105.769 48.2911L103.613 47.395C95.6667 44.0928 89.765 38.4908 85.4698 30.1746C83.7937 26.9296 81.6157 21.1115 81.6157 19.8796C81.6157 19.1312 86.2515 15.915 89.366 14.5026C96.502 11.2672 106.68 10.041 113.943 11.541ZM102.867 14.5307C97.5938 15.185 90.034 17.4679 86.6185 19.4378C85.1677 20.2747 85.026 20.4992 85.1056 21.8371C85.3234 25.4844 90.1633 33.5785 94.9719 38.3387C97.6803 41.0194 104.241 45.7249 105.271 45.7249C105.647 45.7249 110.068 38.8402 111.439 36.1195C113.176 32.6724 114.401 28.7054 115.252 23.773C116.154 18.5405 116.249 15.5832 115.535 14.9913C114.823 14.4014 106.383 14.094 102.867 14.5307ZM113.377 15.1622L115.234 15.4168L115.231 17.4635C115.225 21.9116 113.563 29.2985 111.574 33.7182C110.122 36.9468 105.592 44.9244 105.212 44.9244C105.058 44.9244 103.546 44.0199 101.852 42.9141C95.469 38.7474 88.8986 30.8306 86.3271 24.2077L85.1373 21.1435L85.9941 20.45C88.0789 18.7614 97.1916 15.9843 102.828 15.3195C106.247 14.9165 111.06 14.8444 113.377 15.1622ZM99.7074 17.8109C99.4785 18.087 99.2311 18.9287 99.1583 19.6811C98.9766 21.5546 98.1365 21.7127 97.8031 19.9361C97.3765 17.6624 95.6235 18.3276 95.6235 20.7629C95.6235 21.7991 95.4446 22.0813 94.723 22.1837C94.1319 22.2678 93.8225 22.5868 93.8225 23.1122C93.8225 23.7498 94.0462 23.8867 94.9231 23.7838C95.8004 23.6814 96.0237 23.8178 96.0237 24.4574C96.0237 25.2386 98.1013 33.6377 98.632 35.0021C98.8305 35.5116 98.634 35.7521 97.8612 35.9462C96.779 36.2176 96.6645 36.4389 97.0659 37.4847C97.2356 37.9269 97.6014 38.0414 98.291 37.8681C98.9934 37.692 99.4961 37.8601 100.053 38.4576C101.057 39.535 102.079 39.1716 101.935 37.7888C101.808 36.563 103.125 36.0359 103.709 37.0788C103.907 37.4318 104.442 37.7204 104.899 37.7204C105.607 37.7204 105.694 37.5447 105.49 36.5245C105.284 35.4952 105.413 35.2442 106.416 34.7255C107.973 33.9207 108.831 32.6172 108.831 31.0567C108.831 29.5522 107.464 28.2703 105.459 27.8941L104.171 27.6524L105.5 26.3228C106.795 25.0281 107.089 24.0524 106.581 22.73C106.263 21.8996 104.357 20.911 103.074 20.911C102.084 20.911 101.976 20.7445 101.456 18.4096C101.197 17.2458 100.402 16.9736 99.7074 17.8109ZM103.654 22.9261C104.922 23.6049 104.584 24.8052 102.808 25.9262C101.917 26.4885 100.764 27.1101 100.246 27.307C99.3848 27.6344 99.2828 27.5395 99.0378 26.1888C98.8909 25.3771 98.6764 24.3205 98.5616 23.8407C98.3835 23.097 98.5499 22.9442 99.6894 22.8041C102.224 22.4931 102.883 22.5131 103.654 22.9261ZM106.316 30.231C106.851 30.7661 106.916 31.0951 106.592 31.6246C106.069 32.4783 101.52 34.9769 101.182 34.5951C101.048 34.443 100.658 33.1739 100.316 31.7751L99.6938 29.2317L102.655 29.3813C104.793 29.489 105.81 29.7255 106.316 30.231Z" fill="black"/>
</svg>
