<svg width="409" height="383" viewBox="0 0 409 383" fill="none" xmlns="http://www.w3.org/2000/svg">
<path fill-rule="evenodd" clip-rule="evenodd" d="M276.219 0.661987C276.219 1.01351 279.876 4.71581 284.346 8.89004C297.616 21.2837 306.871 36.094 310.206 50.2786C311.88 57.393 311.771 72.3032 309.991 79.8411C308.902 84.4539 311.452 83.4198 312.642 78.7661C315.902 66.0177 314.882 53.8616 309.388 39.9758C304.772 28.3078 299.707 21.0472 288.448 9.96611C279.431 1.09091 276.219 -1.35364 276.219 0.661987ZM213.05 2.88831C211.196 3.63544 202.632 15.8184 200.708 20.4474C199.847 22.5167 196.845 26.8705 194.038 30.1224C178.927 47.6223 165.499 74.2264 161.21 95.1599C160.484 98.7074 159.675 102.316 159.414 103.18C159.152 104.044 157.3 99.8716 155.301 93.9096C153.3 87.9466 150.269 79.983 148.565 76.2141C145.679 69.8264 145.499 68.6471 145.933 58.8937C146.345 49.6315 146.182 48.3436 144.504 47.7008C143.296 47.2374 142.114 47.6492 141.247 48.8349C139.991 50.5517 139.828 50.5033 139.14 48.2028C138.731 46.8322 137.688 44.5886 136.823 43.2191C135.56 41.2185 134.947 40.9799 133.71 42.0076C132.862 42.7106 132.169 44.4629 132.169 45.9023C132.169 48.3769 132.042 48.4296 129.823 46.8762C128.134 45.6927 127.094 45.5529 126.103 46.3753C124.997 47.2923 125.141 48.607 126.835 53.0639C129.499 60.0708 129.518 59.9343 125.927 59.4075C124.107 59.1398 122.386 59.5956 121.59 60.5545C120.024 62.4412 121.298 64.0182 127.465 67.8291L131.417 70.2725L130.73 87.6865C129.642 115.281 124.09 152.073 117.895 172.749L116.549 177.239L113.201 170.852C111.358 167.34 110.277 164.202 110.798 163.88C112.89 162.587 111.581 158.987 108.25 156.873C104.918 154.759 105.45 154.688 111.527 156.438C114.24 157.22 117.119 155.462 117.119 153.024C117.119 151.188 110.868 148.385 106.672 148.34C103.875 148.309 103.82 148.225 105.832 147.045C107.014 146.35 109.91 145.519 112.268 145.197C117.619 144.464 118.762 141.418 114.319 139.729C111.502 138.659 106.161 139.29 100.457 141.368C99.2741 141.799 99.8256 141.171 101.683 139.973C106.111 137.118 106.697 136.008 104.662 134.319C103.297 133.186 102.029 133.175 97.968 134.261C95.2138 134.997 92.1898 136.297 91.2482 137.149C88.0952 140.002 87.6555 138.735 90.6977 135.559C93.8894 132.228 93.6605 130.097 90.1097 130.097C86.7224 130.097 83.9984 131.994 80.3777 136.872C78.5352 139.354 77.4032 140.417 77.8623 139.235C79.7177 134.45 79.7424 132.275 77.9493 131.587C75.4242 130.619 71.4746 134.671 69.9341 139.811L68.6581 144.072L65.5987 141.812C60.271 137.872 54.8067 142.418 57.907 148.21C58.9906 150.234 58.7359 150.423 54.5047 150.729C50.4584 151.022 49.894 151.388 49.6016 153.906C49.3361 156.204 49.8542 156.949 52.2891 157.768L55.3066 158.783L51.0066 160.998C46.4852 163.328 42.6205 167.033 41.5552 170.063C40.7328 172.404 43.401 174.585 46.1938 173.854L48.3804 173.282L46.1992 176.81C42.1701 183.331 44.2653 190.525 49.2823 187.392C50.8034 186.442 50.9851 186.821 50.6572 190.255C50.2208 194.832 52.8169 201.854 55.298 202.805C57.477 203.641 61.1836 200.315 61.3374 197.387C61.4019 196.149 61.8706 197.254 62.3801 199.843C63.6153 206.134 66.0501 209.647 69.1752 209.647C72.6818 209.647 74.3653 207.268 73.4762 203.569L72.741 200.51L75.8488 203.187C79.5672 206.389 81.6441 208.723 81.6441 209.7C81.6441 210.093 77.3452 212.198 72.0917 214.376C43.6267 226.174 27.9253 243.115 18.8835 271.785C13.9438 287.446 15.379 297.738 23.5522 305.284L27.7651 309.173L13.8793 327.941C6.24253 338.264 -0.00322375 347.436 1.24836e-06 348.322C0.00322625 349.209 2.10055 357.191 4.65905 366.06L9.31273 382.185H192.947H376.582L382.541 364.904L388.499 347.623L365.741 320.292L342.983 292.96L337.711 293.321L332.439 293.683L331.841 284.949L331.242 276.214L340.314 262.757C354.804 241.264 367.272 213.672 371.294 194.195C373.919 181.489 373.513 163.692 370.311 151.066C367.03 138.135 359.953 123.022 356.694 121.986C354.464 121.279 354.406 120.861 355.065 110.088C355.635 100.791 355.491 98.9224 354.207 98.9224C353.36 98.9224 351.93 99.9737 351.031 101.258C349.323 103.695 348.798 103.195 348.026 98.3967C347.424 94.66 344.153 95.1405 343.097 99.1212C342.22 102.43 342.096 102.512 341.364 100.266C340.445 97.4507 336.68 96.9906 335.689 99.5727C335.071 101.185 336.424 108.91 338.071 113.166C338.691 114.766 338.155 115.047 334.499 115.047C331.519 115.047 329.993 115.585 329.528 116.796C328.617 119.171 330.506 121.188 336.475 124.213C342.457 127.244 342.876 128.574 342.855 144.475C342.835 160.273 337.842 182.549 335.658 176.591C335.387 175.852 334.48 175.247 333.642 175.247C332.804 175.247 332.119 174.764 332.119 174.172C332.119 173.581 331.152 173.097 329.969 173.097C328.787 173.097 327.819 172.671 327.819 172.15C327.819 169.624 303.864 166.682 302.413 169.03C302.127 169.493 300.979 169.872 299.862 169.872C297.598 169.872 292.344 174.279 292.344 176.177C292.344 176.848 291.86 177.397 291.269 177.397C290.678 177.397 290.194 178.123 290.194 179.01C290.194 179.897 289.71 180.622 289.119 180.622C288.528 180.622 288.044 181.348 288.044 182.235C288.044 183.122 287.56 183.847 286.969 183.847C286.378 183.847 285.894 184.532 285.894 185.371C285.894 186.208 285.425 187.054 284.852 187.252C284.279 187.449 283.514 189.486 283.152 191.778C282.327 196.995 281.975 198.568 280.658 202.915C280 205.083 279.984 206.629 280.616 207.02C281.173 207.364 281.351 208.096 281.01 208.647C280.671 209.197 280.752 210.23 281.193 210.943C281.633 211.654 282.153 213.711 282.35 215.511C282.546 217.312 283.111 218.922 283.607 219.091C285.595 219.767 281.734 230.072 279.49 230.072C279.061 230.072 278.109 228.067 277.375 225.618C275.636 219.816 264.983 198.994 259.72 191.113C254.506 183.307 242.734 172.357 235.23 168.337C232.055 166.636 229.302 165.122 229.114 164.975C228.924 164.827 229.354 162.756 230.069 160.37C231.03 157.163 232.215 155.683 234.622 154.687C239.71 152.579 248.969 142.411 252.698 134.835C254.563 131.047 256.464 127.947 256.921 127.947C258.358 127.947 263.289 134.439 263.997 137.263C264.37 138.749 264.416 142.823 264.1 146.318C263.782 149.813 263.794 152.672 264.125 152.672C265.778 152.672 272.131 146.781 273.652 143.839C276.095 139.114 275.177 130.883 271.805 127.272C268.238 123.455 264.105 121.497 259.61 121.497C256.377 121.497 255.791 121.129 255.77 119.079C255.698 111.702 247.125 101.751 236.976 97.2626C230.132 94.2343 219.32 92.1423 215.489 93.1045C213.871 93.5097 210.207 93.0281 206.819 91.9628C202.292 90.5384 200.22 90.3729 197.737 91.2393C194.598 92.3326 194.52 92.2756 194.543 88.9227C194.573 84.3421 198.045 68.9062 200.997 60.2224C204.265 50.6097 213.826 32.4164 215.916 31.8327C216.86 31.5704 219.66 31.0393 222.138 30.6545C224.617 30.2696 227.263 29.2108 228.016 28.3024C229.16 26.9242 228.973 26.3158 226.884 24.6237C225.507 23.509 223.709 22.5974 222.887 22.5974C220.1 22.5974 221.379 20.5613 226.291 17.1815C231.796 13.3943 232 11.2271 226.828 11.4786L223.353 11.6474L225.653 9.50494C227.47 7.81289 227.688 7.04211 226.692 5.84241C225.029 3.83754 222.448 3.92031 219.371 6.07461C216.967 7.75806 216.915 7.74194 218.019 5.67901C219.689 2.55721 217.26 1.19304 213.05 2.88831ZM253.644 2.97861C253.644 3.42259 257.15 5.46724 261.435 7.52371C279.754 16.3172 292.344 36.3294 292.344 56.6555C292.344 64.9878 293.777 67.2088 294.857 60.5502C295.726 55.1967 293.946 43.3631 291.239 36.495C286.087 23.423 274.894 11.1776 262.841 5.42531C255.933 2.12829 253.644 1.51984 253.644 2.97861ZM213.133 9.21576C211.629 11.9076 210.674 14.3854 211.012 14.723C211.349 15.0605 213.892 13.3427 216.661 10.9046C223.487 4.89641 226.461 5.05229 220.519 11.1067C218.018 13.6555 216.267 16.0377 216.631 16.4011C216.994 16.7644 219.545 16.1388 222.299 15.0122C226.629 13.2395 226.949 13.2137 224.663 14.823C219.846 18.2167 216.019 21.6997 216.019 22.693C216.019 23.2316 217.378 23.6724 219.039 23.6724C222.799 23.6724 227.092 26.4534 224.619 27.2887C217.193 29.7956 212.76 29.8106 207.445 27.3489C204.475 25.9718 202.044 24.5657 202.044 24.2238C202.044 22.8683 207.405 13.204 210.551 8.89111C214.96 2.84424 216.58 3.04849 213.133 9.21576ZM107.898 30.0482C97.6197 35.9446 90.5451 47.1256 89.4497 59.2108C88.6811 67.6872 90.8031 67.7065 91.762 59.2312C92.6618 51.2762 97.6476 41.0702 102.876 36.4799C105.039 34.5804 109.371 31.8542 112.501 30.4212C115.632 28.9872 118.194 27.6079 118.194 27.3564C118.194 25.8901 112.594 27.3553 107.898 30.0482ZM86.8686 33.0786C77.5892 42.8912 73.9019 52.0298 73.7493 65.5974C73.6708 72.5193 74.2459 76.4946 76.1208 81.9911C77.4806 85.9826 79.0383 89.2474 79.5823 89.2474C81.0303 89.2474 80.8196 87.7703 78.3095 80.3442C74.9092 70.2854 75.6929 56.8576 80.2477 47.1289C82.0977 43.1804 85.5872 37.8043 88.0027 35.1845C90.4183 32.5637 92.3941 30.1105 92.3941 29.7332C92.3941 28.1229 90.4301 29.3118 86.8686 33.0786ZM138.048 56.1911C138.952 60.5567 140.329 59.7988 141.957 54.0411L143.4 48.9349L143.773 54.3099C143.978 57.2661 143.84 61.7403 143.466 64.2536L142.787 68.8224H137.992C134.614 68.8224 131.936 67.9871 128.922 65.9919C126.568 64.4353 124.644 62.7422 124.644 62.2294C124.644 61.0888 124.46 61.0867 128.601 62.2745C130.475 62.811 132.26 62.998 132.57 62.6884C132.88 62.3788 131.947 58.9152 130.496 54.9925C128.155 48.6586 128.096 48.1609 129.974 50.5474C131.137 52.0255 132.386 54.5646 132.752 56.1911C133.116 57.8176 134.068 59.1474 134.864 59.1474C135.964 59.1474 136.207 57.6531 135.872 52.9661C135.517 47.9878 135.626 47.4127 136.434 50.0099C136.985 51.7836 137.712 54.5646 138.048 56.1911ZM148.055 81.4536C165.709 124.205 168.328 178.199 154.925 223.085L152.999 229.535L148.869 221.68C144.024 212.466 137.817 206.597 125.856 199.914L117.607 195.307L118.003 187.696C118.221 183.51 119.779 174.522 121.464 167.722C128.416 139.686 132.002 115.056 132.931 88.9786L133.572 70.9724H138.65H143.728L148.055 81.4536ZM189.311 96.0575C186.882 98.6429 183.769 105.396 183.769 108.08C183.769 109.41 184.591 109.154 187.532 106.912C190.899 104.344 191.294 104.253 191.293 106.051C191.292 107.156 188.873 110.432 185.918 113.333L180.544 118.607L180.568 112.258C180.595 105.036 183.176 98.3429 187.665 93.8538C191.198 90.3202 192.749 92.3971 189.311 96.0575ZM201.714 100.843C198.689 104.186 196.669 110.48 196.669 116.562C196.669 125.017 194.947 124.879 194.142 116.36C192.886 103.069 193.036 102.22 196.938 100.525C202.051 98.3032 203.902 98.4268 201.714 100.843ZM341.257 105.653C342.439 108.751 343.861 111.159 344.418 111.005C344.974 110.852 345.295 108.191 345.132 105.093C344.77 98.2505 345.959 98.8783 346.987 106.073C347.869 112.231 349.371 112.494 351.118 106.797C352.31 102.912 352.384 103.2 352.461 112.019C352.552 122.157 352.841 121.698 345.557 122.979C342.033 123.598 333.156 119.856 332.361 117.415C332.007 116.332 333.143 116.184 337.429 116.752L342.951 117.485L340.893 112.235C338.285 105.58 337.062 99.9941 338.215 100.009C338.706 100.016 340.074 102.556 341.257 105.653ZM370.282 112.897C370.647 113.489 371.82 113.972 372.888 113.972C373.956 113.972 378.216 115.667 382.354 117.736C395.525 124.326 404.334 136.368 406.053 150.133C406.934 157.177 409.076 158.328 408.583 151.492C407.508 136.612 396.89 121.869 382.262 114.95C375.818 111.9 368.937 110.722 370.282 112.897ZM218.454 115.856C214.831 119.241 211.975 126.483 213.616 128.125C214.307 128.815 215.482 127.869 217.012 125.393C218.975 122.217 225.111 117.197 227.031 117.197C227.332 117.197 226.8 119.359 225.85 122.002C224.537 125.652 224.422 127.106 225.373 128.056C226.322 129.005 227 128.4 228.199 125.533C229.065 123.457 230.382 121.384 231.125 120.925C232.031 120.365 232.208 120.526 231.659 121.412C231.209 122.14 230.899 126.818 230.969 131.808C231.113 142.083 229.247 147.172 223.587 151.934C219.521 155.354 221.119 156.639 226.351 154.156C228.837 152.977 231.589 150.22 233.921 146.575C238.151 139.963 241.819 138.723 241.819 143.906C241.819 147.375 239.629 149.739 234.368 151.951C231.36 153.216 230.316 154.616 228.219 160.192C225.465 167.518 225.144 169.264 226.733 168.282C227.834 167.602 235.879 171.313 236.906 172.976C237.752 174.344 226.497 184.42 219.941 188.165C216.961 189.866 212.236 191.808 209.442 192.477C205.019 193.54 203.733 193.419 199.508 191.55C188.62 186.734 187.132 172.304 196.064 158.155L198.865 153.716L202.146 155.413C205.304 157.045 205.364 157.206 203.735 159.69C201.772 162.686 201.645 163.422 203.091 163.422C203.969 163.422 207.419 158.023 207.419 156.649C207.419 156.412 205.041 154.741 202.135 152.934C195.285 148.676 193.227 145.431 193.277 138.965C193.325 132.871 194.576 129.216 198.96 122.366C201.557 118.309 203.173 117.008 207.222 115.716C213.466 113.724 215.859 113.181 219.089 113.022C221.579 112.9 221.568 112.948 218.454 115.856ZM202.281 124.686C202.169 128.601 203.686 129.831 205.181 127.038C206.022 125.466 205.823 124.584 204.323 123.227C202.481 121.56 202.368 121.64 202.281 124.686ZM369.308 122.409C368.981 122.937 371.574 125.134 375.069 127.292C386.738 134.494 394.971 146.751 397.754 161.065C399.401 169.535 398.486 192.353 396.112 202.009C395.182 205.79 394.7 209.163 395.041 209.503C397.406 211.867 401.432 190.939 401.423 176.322C401.414 157.876 396.817 144.753 386.439 133.544C380.626 127.265 370.411 120.626 369.308 122.409ZM360.745 132.247C368.922 148.518 372.422 170.107 369.823 188.229C368.009 200.868 362.336 217.252 353.658 234.91C347.052 248.351 336.671 265.517 332.554 269.809C331.242 271.177 331.044 270.989 331.044 268.376C331.044 266.599 330.542 265.536 329.816 265.777C328.535 266.204 328.375 283.172 329.587 290.004L330.209 293.497H312.772H295.336L295.928 291.079C297.602 284.244 298.963 268.67 298.631 260.137C298.425 254.834 298.585 250.496 298.984 250.496C299.385 250.497 301.213 252.312 303.046 254.529C307.381 259.77 308.648 258.152 308.728 247.272C308.73 246.977 308.405 244.899 308.005 242.654C307.33 238.863 307.454 238.589 309.755 238.79C316.727 239.4 318.582 238.65 324.051 233.003C328.401 228.513 330.058 225.73 332.019 219.634C334.128 213.073 335.012 211.69 337.996 210.274C341.332 208.691 345.041 205.347 343.461 205.347C343.051 205.347 343.475 204.587 344.405 203.659C345.334 202.729 346.155 201.157 346.232 200.165C346.307 199.171 346.488 197.169 346.633 195.712C347.018 191.86 345.055 186.901 342.011 184.033L339.355 181.533L342.111 170.058C345.45 156.152 346.422 145.089 345.228 134.56C344.388 127.15 344.471 126.601 346.557 125.733C347.781 125.224 350.683 124.909 353.009 125.033C357.068 125.251 357.373 125.536 360.745 132.247ZM206.457 130.169C200.851 133.179 200.319 134.047 202.559 136.522C203.642 137.718 205.011 138.697 205.602 138.697C206.194 138.697 205.876 137.813 204.898 136.731C202.513 134.096 202.608 133.795 206.309 132.262C209.372 130.993 212.979 127.808 211.044 128.08C210.529 128.152 208.464 129.092 206.457 130.169ZM217.625 131.513C217.786 133.573 218.483 134.935 219.375 134.935C221.687 134.935 221.711 130.789 219.41 129.363C217.537 128.205 217.379 128.396 217.625 131.513ZM200.534 142.088C200.843 142.588 204.453 142.997 208.558 142.997C212.662 142.997 216.019 143.438 216.019 143.977C216.019 145.308 209.721 150.522 208.114 150.522C207.403 150.522 205.747 149.769 204.434 148.849C203.119 147.928 202.044 147.669 202.044 148.273C202.044 149.9 205.766 151.597 209.332 151.597C212.707 151.597 214.775 149.778 217.483 144.43L219.206 141.027L209.59 141.102C204.299 141.144 200.224 141.587 200.534 142.088ZM105.798 164.096C108.392 165.092 115 178.954 115.701 184.871C116.71 193.388 113.811 198.995 105.949 203.735C104.407 204.665 104.347 205.283 105.504 208.304C106.239 210.225 107.449 211.797 108.194 211.797C109.263 211.797 109.279 211.207 108.27 208.992C107.172 206.584 107.281 205.975 109.036 204.692C110.161 203.87 111.431 203.197 111.86 203.197C113.45 203.197 116.3 212.78 115.573 215.677C113.577 223.631 102.112 228.114 89.7367 225.778C83.3996 224.582 71.9691 219.182 71.9691 217.382C71.9691 216.036 81.5463 212.902 83.4415 213.629C84.9207 214.197 85.054 213.816 84.3079 211.167C83.8231 209.444 83.5103 206.442 83.6124 204.494C83.7156 202.546 83.0524 199.507 82.1386 197.74C79.9897 193.585 78.5997 181.933 79.5543 176.071C80.0305 173.143 80.3487 172.506 80.4347 174.31C80.582 177.402 83.0685 180.122 84.7799 179.065C85.3744 178.697 86.1666 176.766 86.5407 174.773C87.2094 171.209 87.2545 171.183 89.2702 173.198C90.3968 174.325 91.7749 175.247 92.3328 175.247C94.0915 175.247 96.4802 170.897 95.9126 168.727C95.3493 166.575 97.1348 165.826 98.3066 167.722C98.6721 168.314 100.208 168.797 101.721 168.797C104.073 168.797 104.395 168.41 103.956 166.11C103.385 163.121 103.352 163.157 105.798 164.096ZM103.616 172.363C102.693 174.745 104.787 177.26 106.373 175.673C107.095 174.952 106.943 173.903 105.912 172.502C104.445 170.508 104.337 170.501 103.616 172.363ZM100.784 178.794C103.433 181.526 103.93 182.632 102.948 183.613C101.019 185.543 102.475 186.188 104.835 184.449C106.834 182.977 106.775 182.787 103.202 179.085C101.164 176.974 99.014 175.247 98.4227 175.247C97.8315 175.247 98.8936 176.843 100.784 178.794ZM170.153 196.095C167.57 203.283 165.493 215.742 165.505 223.986C165.513 229.992 166.34 234.044 169.265 242.417C171.537 248.919 173.685 258.026 174.717 265.529C175.653 272.338 177.121 280.954 177.978 284.676C178.836 288.397 179.252 291.904 178.903 292.47C178.553 293.035 175.899 293.497 173.004 293.497C167.018 293.497 167.782 295.134 165.48 277.372C164.012 266.039 160.933 252.562 157.304 241.579L154.534 233.198L157.392 223.127C161.389 209.04 164.216 194.649 165.08 183.988L165.818 174.902L168.779 183.292C171.586 191.247 171.658 191.91 170.153 196.095ZM87.0191 178.879C87.0191 180.875 89.8668 183.178 90.6892 181.847C91.6438 180.303 90.2247 177.397 88.5166 177.397C87.6931 177.397 87.0191 178.064 87.0191 178.879ZM90.7719 190.483C91.9222 194.457 95.0666 198.276 98.0647 199.345C101.326 200.507 106.369 197.813 106.369 194.907C106.369 193.42 105.997 193.516 104.177 195.469C101.959 197.85 99.2472 198.443 97.1693 197C95.8287 196.069 92.3941 191.192 92.3941 190.22C92.3941 189.849 96.1426 189.776 100.725 190.057C111.77 190.735 110.432 189.705 99.0139 188.741L90.0474 187.983L90.7719 190.483ZM292.24 198.234C293.194 199.384 293.087 199.87 291.766 200.377C290.826 200.738 290.392 201.573 290.801 202.235C291.21 202.896 290.992 203.779 290.317 204.197C288.786 205.142 291.833 211.797 293.796 211.797C295.502 211.797 298.794 207.9 298.794 205.882C298.794 205.007 299.762 203.686 300.944 202.948C302.127 202.209 303.094 201.17 303.094 200.639C303.094 198.606 306.835 197.053 310.541 197.548C312.653 197.83 314.623 198.405 314.919 198.826C315.427 199.549 319.409 201.301 320.059 201.086C320.224 201.032 321.676 202.36 323.284 204.039C324.891 205.717 327.561 207.935 329.217 208.967C331.169 210.184 332.041 211.481 331.699 212.664C331.41 213.666 330.666 216.449 330.047 218.848C328.529 224.737 322.9 233.007 319.057 234.994C315.423 236.873 311.275 237.303 307.229 236.221C304.718 235.549 304.236 235.86 303.21 238.801C302.57 240.64 302.31 242.574 302.634 243.098C302.959 243.623 301.921 244.546 300.329 245.151C298.018 246.031 296.49 245.794 292.739 243.979C288.248 241.805 281.581 235.101 281.606 232.784C281.611 232.179 283.788 228.792 286.443 225.256C289.098 221.72 291.269 218.501 291.269 218.101C291.269 217.702 289.576 215.349 287.507 212.872C284.938 209.798 283.744 207.283 283.744 204.947C283.744 198.59 289.054 194.395 292.24 198.234ZM309.196 201.971C305.639 203.373 306.78 204.809 311.157 204.437C316.187 204.01 317.064 203.456 314.888 202.08C313.057 200.923 311.913 200.9 309.196 201.971ZM125.374 210.336C133.567 216.955 145.049 237.237 149.738 253.371C151.151 258.235 151.157 259.006 149.783 259.534C148.01 260.213 148.06 260.329 145.569 249.647C144.23 243.907 142.89 240.959 140.559 238.628C136.811 234.88 134.643 234.691 128.918 237.61C123.566 240.341 122.707 243.44 125.095 251.418C129.328 265.569 129.352 265.705 127.758 266.695C126.115 267.717 126.125 267.74 123.025 255.584C120.788 246.811 116.804 241.897 111.927 241.897C110.137 241.897 107.947 242.623 107.061 243.509C103.792 246.777 100.675 257.237 100.564 265.305C100.413 276.297 98.3066 275.252 94.5505 262.322C89.698 245.619 83.4845 231.907 78.1106 226.041C75.4048 223.087 75.4059 223.087 82.7191 225.885C95.3751 230.726 111.229 227.931 116.196 219.981C118.32 216.581 118.502 210.344 116.601 206.029C115.798 204.204 115.952 204.143 118.299 205.365C119.72 206.103 122.904 208.34 125.374 210.336ZM308.111 207.139C306.651 208.598 307.361 211.743 309.007 211.112C309.893 210.771 310.619 209.576 310.619 208.457C310.619 206.415 309.449 205.8 308.111 207.139ZM326.526 211.791C328.257 214.833 329.969 216.024 329.969 214.187C329.969 212.825 326.703 208.572 325.658 208.572C325.128 208.572 325.519 210.02 326.526 211.791ZM316.437 215.26C316.523 219.436 316.309 219.829 314.113 219.523C311.089 219.103 310.918 221.081 313.896 222.026C317.365 223.127 319.371 220.656 319.004 215.736C318.559 209.783 316.314 209.366 316.437 215.26ZM322.805 215.632C321.767 218.338 324.191 219.935 325.532 217.429C326.653 215.334 326.195 213.947 324.381 213.947C323.87 213.947 323.161 214.705 322.805 215.632ZM302.019 219.777C302.019 221.666 306.895 227.579 309.683 229.072C313.318 231.017 314.195 228.865 310.646 226.707C308.788 225.577 306.45 223.214 305.451 221.456C303.497 218.026 302.019 217.301 302.019 219.777ZM239.96 224.647C244.482 230.703 244.939 231.644 243.432 231.788C242.308 231.894 234.294 221.736 234.294 220.203C234.294 218.139 236.242 219.666 239.96 224.647ZM62.8015 227.008C69.4848 234.951 77.4204 255.572 79.4189 270.194C80.9389 281.305 80.9217 293.497 79.3866 293.497C78.446 293.497 57.8673 282.455 55.8764 280.882C55.1378 280.299 59.9248 271.519 65.7868 262.707C68.5958 258.485 70.8941 254.736 70.8941 254.376C70.8941 250.794 61.9136 263.2 55.9409 275.03L52.6309 281.589L57.7307 284.488C78.8147 296.472 88.1059 302.651 87.39 304.212C86.975 305.118 86.6063 307.311 86.5708 309.085C86.5354 310.859 86.0172 312.666 85.4195 313.1C83.449 314.53 57.391 313.956 47.7139 312.268C22.3654 307.848 14.1212 296.532 20.3594 274.72C24.252 261.107 31.8963 247.024 40.7328 237.188C45.1629 232.256 56.5052 223.622 58.5542 223.622C59.3239 223.622 61.2352 225.146 62.8015 227.008ZM276.186 238.473C277.467 246.074 282.541 256.553 285.485 257.683C286.494 258.07 288.679 256.788 291.19 254.338L295.257 250.365L295.971 256.437C296.726 262.857 296.23 271.461 294.319 285.166L293.157 293.497H260.975C243.275 293.497 229.035 293.104 229.333 292.622C229.63 292.142 234.962 287.908 241.181 283.216C247.399 278.524 252.506 274.323 252.528 273.879C252.627 271.935 249.783 273.544 240.98 280.414C223.556 294.009 187.593 320.701 180.007 325.669C175.868 328.379 170.743 331.924 168.618 333.548C166.493 335.17 164.254 336.497 163.643 336.497C163.032 336.497 161.92 337.236 161.17 338.139C159.984 339.569 159.553 339.36 157.829 336.526C156.741 334.737 155.48 333.265 155.029 333.256C154.576 333.247 153.514 332.802 152.668 332.266C151.441 331.489 152.667 329.247 158.741 321.166C169.176 307.283 179.836 294.605 196.013 276.835C213.826 257.27 221.989 249.661 233.51 241.879C245.278 233.932 253.238 231.288 265.641 231.208L274.95 231.147L276.186 238.473ZM282.063 237.979C283.734 240.259 287.191 243.449 289.745 245.069L294.389 248.014L290.147 252.156C286.038 256.168 285.855 256.232 284.306 254.204C281.067 249.96 278.46 243.354 277.753 237.597C276.974 231.249 277.141 231.265 282.063 237.979ZM141.078 243.483C143.389 248.329 145.606 260.084 144.415 261.177C143.286 262.215 132.131 265.941 131.809 265.388C131.318 264.544 126.763 249.753 126.144 246.99C125.36 243.488 127.038 241.067 131.569 239.163C135.706 237.423 138.875 238.864 141.078 243.483ZM305.813 253.512C305.464 253.861 303.864 252.785 302.256 251.123C300.106 248.9 299.72 247.956 300.798 247.556C301.603 247.256 303.054 246.081 304.023 244.945C305.7 242.973 305.797 243.11 306.114 247.879C306.297 250.629 306.161 253.163 305.813 253.512ZM116.493 246.74C118.927 249.368 122.066 258.573 122.711 264.971C123.191 269.736 120.081 269.787 117.292 265.063C113.782 259.112 110.86 260.106 109.644 267.661C109.143 270.765 108.517 271.52 106.219 271.788C103.783 272.072 103.314 271.63 102.727 268.496C101.885 264.01 103.367 255.885 106.253 249.154C108.058 244.945 108.931 244.047 111.22 244.047C112.803 244.047 115.07 245.205 116.493 246.74ZM114.548 265.279C116.581 267.956 116.372 269.511 113.894 270.159C112.055 270.64 111.744 270.191 111.744 267.059C111.744 262.959 112.447 262.512 114.548 265.279ZM152.33 265.816C151.495 268.342 98.8441 283.607 98.8441 281.323C98.8441 280.608 103.914 278.723 110.4 277.024C116.756 275.36 128.487 271.91 136.469 269.358C153.298 263.977 152.908 264.064 152.33 265.816ZM301.15 268.853C301.362 269.488 301.995 270.009 302.557 270.009C303.118 270.009 303.751 269.488 303.963 268.853C304.174 268.218 303.542 267.697 302.557 267.697C301.571 267.697 300.939 268.218 301.15 268.853ZM299.54 287.734C298.681 288.593 299.652 290.272 301.008 290.272C301.564 290.272 302.019 289.547 302.019 288.66C302.019 286.998 300.751 286.524 299.54 287.734ZM173.834 297.844C172.92 299.328 171.785 299.842 170.332 299.428C169.149 299.093 165.882 298.52 163.072 298.158C158.444 297.56 157.407 297.866 152.061 301.416C148.814 303.571 142.974 308.037 139.081 311.338C135.19 314.641 131.879 317.176 131.724 316.975C131.57 316.774 129.958 313.385 128.142 309.443C126.326 305.501 123.673 301.512 122.248 300.576C118.583 298.176 105.126 297.268 96.004 298.808C88.9305 300.001 88.1242 299.933 84.7455 297.874L81.1066 295.655L128.146 295.652L175.187 295.647L173.834 297.844ZM361.727 318.963C372.345 331.786 381.664 343.154 382.437 344.226C383.789 346.1 380.261 346.172 286.429 346.172C218.365 346.172 189.228 345.831 189.718 345.038C190.104 344.414 197.268 337.813 205.638 330.37C214.008 322.926 220.857 316.328 220.857 315.709C220.857 315.089 217.834 313.615 214.138 312.432C210.443 311.251 207.419 309.944 207.419 309.528C207.419 309.112 211.377 305.819 216.216 302.209L225.013 295.647H283.717H342.422L361.727 318.963ZM120.132 302.245C121.674 302.817 123.562 305.293 125.134 308.811C126.524 311.918 129.085 317.604 130.824 321.447L133.988 328.435H118.835C104.625 328.435 103.297 328.616 97.5004 331.332C94.1012 332.925 91.2868 334.135 91.2482 334.02C91.2094 333.905 90.5773 329.578 89.8442 324.404C88.2736 313.326 88.1629 313.403 98.7527 318.146L105.65 321.235L100.096 323.623C97.0424 324.937 94.5441 326.436 94.5441 326.955C94.5441 328.169 94.1646 328.245 100.873 325.696C107.064 323.343 117.257 322.559 123.838 323.93C126.423 324.468 127.869 324.375 127.869 323.666C127.869 321.963 122.723 320.948 114.218 320.973C108.575 320.991 106.753 320.667 107.49 319.779C108.046 319.11 108.142 318.178 107.703 317.71C107.266 317.24 107.9 317.372 109.115 318.002C112.25 319.629 113.872 318.177 114.171 313.474C114.398 309.93 113.911 308.975 110.411 306.108C107.314 303.57 104.968 302.675 100.199 302.208L94.0066 301.603L99.3816 301.008C105.747 300.303 116.645 300.953 120.132 302.245ZM169.515 301.46C170.447 302.392 153.998 323.071 152.426 322.943C151.632 322.879 148.868 322.464 146.285 322.02C142.556 321.381 141.686 321.516 142.068 322.675C142.331 323.478 143.962 324.277 145.689 324.45C151.122 324.995 151.75 325.457 150.42 327.943C148.77 331.026 147.07 331.455 141.958 330.078C138.391 329.118 137.117 328.05 135.31 324.509L133.075 320.128L136.117 316.923C137.788 315.16 143.268 310.595 148.294 306.781C157.356 299.903 157.479 299.85 163.188 300.368C166.355 300.656 169.202 301.147 169.515 301.46ZM293.957 304.352C291.592 304.864 284.698 304.993 278.638 304.638C272.578 304.282 262.54 304.337 256.332 304.76L245.044 305.529L244.973 312.144C244.934 315.783 244.273 323.114 243.505 328.435C242.736 333.756 242.267 338.295 242.464 338.521C242.66 338.746 255.051 339.027 270 339.143C290.019 339.299 299.437 338.94 305.742 337.782C315.526 335.985 331.404 336.529 340.479 338.971C343.767 339.856 346.407 340.086 346.758 339.517C347.399 338.481 332.398 313.864 327.819 308.438C325.684 305.907 323.806 305.04 318.682 304.218C311.032 302.993 299.951 303.052 293.957 304.352ZM106.156 305.75C107.755 306.576 110.028 308.336 111.209 309.659L113.357 312.067L109.739 310.216C104.481 307.525 102.969 309.749 107.959 312.833C112.821 315.839 112.307 316.647 106.955 314.411C102.199 312.424 100.95 313.054 103.675 316.066C106.186 318.841 105.637 318.784 98.6818 315.546C95.5191 314.073 92.1178 312.864 91.1224 312.858C88.7681 312.844 87.6544 309.227 89.1476 306.438C90.128 304.606 91.3804 304.247 96.7855 304.247C100.342 304.247 104.559 304.924 106.156 305.75ZM322.534 307.303C324.976 308.23 336.956 324.998 341.746 334.189C343.06 336.713 343.053 336.717 338.397 335.802C332.451 334.633 309.323 334.61 303.476 335.766L299.021 336.648L296.273 328.241C291.657 314.117 290.192 307.397 291.623 306.921C296.859 305.18 317.627 305.436 322.534 307.303ZM280.716 307.092L287.901 307.77L289.197 313.264C289.909 316.287 291.876 322.712 293.569 327.543C295.26 332.373 296.644 336.484 296.644 336.68C296.644 336.875 285.035 337.035 270.845 337.035C249.567 337.035 245.046 336.774 245.045 335.544C245.044 333.999 246.982 317.06 247.852 311.017C248.341 307.615 248.429 307.568 255.028 307.192C268.16 306.444 273.634 306.422 280.716 307.092ZM40.5813 313.521C40.7597 313.606 38.2195 317.839 34.9375 322.927C31.6545 328.015 28.9691 332.72 28.9691 333.382C28.9691 334.158 30.2107 334.354 32.4629 333.932C54.2897 329.846 71.8874 330.435 84.0929 335.663L89.2293 337.863L96.8274 334.36C102.069 331.945 106.645 330.69 111.579 330.316L118.732 329.773L115.585 333.124C113.854 334.968 112.684 336.72 112.983 337.019C113.281 337.319 115.907 337.834 118.817 338.164C130.807 339.523 130.832 339.532 130.278 342.43C129.9 344.412 130.232 345.097 131.569 345.097C132.56 345.097 133.072 345.581 132.707 346.172C131.995 347.324 3.1691 347.769 3.1691 346.62C3.1691 346.273 9.21598 337.868 16.6066 327.939L30.043 309.889L35.1504 311.628C37.9583 312.585 40.4028 313.438 40.5813 313.521ZM303.363 311.806C302.032 312.341 300.944 312.931 300.944 313.117C300.944 313.304 305.54 313.441 311.157 313.421C316.773 313.401 321.369 313.079 321.369 312.704C321.369 310.719 307.757 310.039 303.363 311.806ZM212.257 313.83C215.213 314.869 217.54 316.076 217.428 316.51C217.318 316.943 211.271 322.531 203.991 328.927C191.756 339.677 183.993 348.276 182.354 352.891C181.488 355.334 180.336 355.264 174.857 352.438C172.369 351.154 166.978 349.07 162.879 347.805L155.426 345.507L159.454 342.435L163.483 339.362L171.207 341.168C180.123 343.254 180.544 343.289 180.544 341.95C180.544 341.4 177.861 340.351 174.582 339.617C171.303 338.884 168.405 337.935 168.142 337.508C167.878 337.081 168.947 335.891 170.518 334.862C173.191 333.11 173.726 333.103 178.934 334.744C185.406 336.784 187.94 337.013 186.34 335.414C185.745 334.818 183.108 333.702 180.482 332.936L175.707 331.541L180.252 328.518C184.401 325.756 185.335 325.559 191.002 326.249C197.694 327.065 197.991 325.588 191.47 323.927L187.885 323.015L195.663 317.394C199.941 314.302 204.216 311.81 205.162 311.856C206.108 311.901 209.3 312.789 212.257 313.83ZM257.675 313.63C255.459 313.862 253.644 314.4 253.644 314.823C253.644 315.248 260.417 315.581 268.693 315.565C276.971 315.548 283.743 315.233 283.743 314.863C283.745 313.09 269.349 312.41 257.675 313.63ZM57.4566 316.103C63.3691 316.729 72.1325 316.927 76.9302 316.542C85.4614 315.857 85.6668 315.898 86.2709 318.376C87.3954 322.993 88.3844 334.347 87.6619 334.347C87.2707 334.347 83.9435 333.334 80.266 332.095C71.4864 329.138 57.0954 328.435 43.1967 330.286C37.1273 331.094 32.2898 331.443 32.4467 331.06C32.6037 330.677 35.1504 326.676 38.1066 322.168C41.7111 316.671 44.0127 314.135 45.0941 314.468C45.981 314.74 51.5441 315.477 57.4566 316.103ZM309.007 317.615C308.415 317.846 306.601 318.328 304.975 318.687C298.807 320.047 302.459 320.91 314.383 320.91C326.229 320.91 329.561 320.237 324.28 318.913C320.694 318.012 310.262 317.126 309.007 317.615ZM45.6821 321.815C43.9976 323.047 45.3457 323.189 54.882 322.783C62.8198 322.444 68.1776 322.805 73.3795 324.027C81.8838 326.025 82.7191 326.09 82.7191 324.758C82.7191 321.356 49.8789 318.747 45.6821 321.815ZM264.125 323.263C260.71 324.156 262.058 326.054 265.603 325.344C267.451 324.974 270.354 324.672 272.053 324.672C273.753 324.672 275.144 324.189 275.144 323.597C275.144 322.535 267.769 322.312 264.125 323.263ZM307.046 327.308C299.305 330.068 300.099 331.837 307.982 329.392C313.249 327.758 325.179 327.845 330.775 329.558C332.237 330.005 333.194 329.843 333.194 329.149C333.194 325.941 314.557 324.629 307.046 327.308ZM261.169 329.917C250.467 331.126 255.524 332.394 270.844 332.344C279.122 332.317 286.233 332.273 286.647 332.246C287.06 332.219 286.939 331.766 286.378 331.24C285.004 329.952 268.524 329.087 261.169 329.917ZM136.469 331.495L143.457 332.843L138.907 335.219C134.405 337.571 128.556 337.744 119.269 335.799L116.582 335.235L119.807 332.647C123.442 329.729 126.289 329.532 136.469 331.495ZM153.074 335.012C156.788 336.437 157.06 339.361 153.953 344.504C151.046 349.316 148.148 351.538 150.494 347.155C152.26 343.855 150.929 343.376 146.399 345.683C140.317 348.78 140.07 348.819 142.286 346.323C145.26 342.971 143.645 342.324 138.934 344.98L134.857 347.28L138.551 344.061C142.83 340.334 142.37 338.954 137.425 340.678C132.245 342.483 132.408 341.27 137.709 338.546C144.421 335.097 149.969 333.821 153.074 335.012ZM385.607 349.666C385.336 350.406 382.799 357.662 379.97 365.791L374.823 380.572H192.927H11.0317L8.73115 372.241C7.46588 367.659 5.48465 360.63 4.32903 356.622L2.2274 349.335L68.8871 349.635C131.073 349.914 135.617 350.061 136.598 351.816C137.982 354.29 139.984 354.196 142.382 351.547C144.693 348.993 146.753 348.781 147.608 351.01C148.419 353.124 150.889 353.064 152.695 350.887C154.837 348.307 162.684 349.606 172.581 354.178C177.127 356.278 181.167 357.997 181.557 357.997C181.947 357.997 183.323 355.821 184.616 353.16L186.966 348.322H286.533C365.732 348.322 385.998 348.598 385.607 349.666Z" fill="black"/>
</svg>
