<svg width="371" height="330" viewBox="0 0 371 330" fill="none" xmlns="http://www.w3.org/2000/svg">
<mask id="mask0_1093_518" style="mask-type:alpha" maskUnits="userSpaceOnUse" x="0" y="0" width="371" height="330">
<rect width="371" height="330" fill="#D9D9D9"/>
</mask>
<g mask="url(#mask0_1093_518)">
<path fill-rule="evenodd" clip-rule="evenodd" d="M227.085 15.986C214.977 19.9395 207.044 30.5918 207.044 42.8995C207.044 47.3621 206.932 47.5736 204.127 48.3982C202.118 48.9888 201.119 49.8842 200.922 51.2725C200.643 53.2318 200.339 53.2892 190.174 53.2892H179.712L182.605 50.6505C185.755 47.7788 186.512 43.7617 184.078 42.8296C182.163 42.0955 175.794 45.6305 172.481 49.2667L169.788 52.2226L135.225 52.8473L100.663 53.472L100.477 47.5834C100.375 44.3452 100.678 41.4565 101.15 41.1652C101.623 40.8739 102.009 39.0652 102.009 37.1454C102.009 35.2255 102.471 32.6443 103.034 31.4092C104.375 28.4721 102.638 25.7429 96.936 21.8262C91.6744 18.2115 86.9918 17.6907 76.9542 19.6016C68.8799 21.1396 68.3098 21.4399 63.5285 26.6759C61.8147 28.5519 59.0991 30.6357 57.493 31.3052C53.7845 32.8522 52.2017 35.5733 53.5492 38.0865C54.0879 39.0912 54.2881 40.6696 53.9936 41.5954C53.4074 43.44 56.3843 46.1189 59.0201 46.1189C60.2347 46.1189 63.4064 51.6409 63.4064 53.7552C63.4064 53.9918 59.582 54.1854 54.9084 54.1854C48.8002 54.1854 45.5199 53.7615 43.245 52.6779C40.1792 51.2188 40.0132 51.2331 37.9942 53.126C36.8477 54.2016 35.6888 55.0817 35.4194 55.0817C35.1492 55.0817 34.6932 53.0929 34.405 50.6613C33.3223 41.5371 28.3058 35.5339 19.6704 33.027C8.51695 29.7905 -3.14465 35.4442 -6.71136 45.8178C-8.19712 50.1396 -8.17827 58.9411 -6.67366 63.4548C-5.10441 68.162 -6.36933 69.1318 -10.4621 66.3596C-12.2567 65.1433 -15.862 63.7335 -18.4744 63.2244C-21.0877 62.7162 -24.0619 62.0592 -25.0845 61.7653C-26.467 61.3673 -28.0218 62.2475 -31.1442 65.1917C-33.455 67.3706 -35.3447 69.484 -35.3447 69.8891C-35.3447 70.2943 -34.6759 71.3626 -33.8589 72.2643C-32.4648 73.8032 -32.489 73.9036 -34.2548 73.9036C-36.6509 73.9036 -37.4553 75.2157 -36.7586 77.9879C-36.4067 79.3879 -35.5673 80.1775 -34.4299 80.1775C-32.34 80.1775 -32.0599 81.5515 -33.9981 82.2945C-34.7387 82.5778 -35.3447 83.8155 -35.3447 85.0434C-35.3447 87.2626 -34.745 88.0639 -31.3049 90.4435C-29.5256 91.6732 -29.5292 91.7055 -31.6433 93.9524C-33.929 96.3814 -33.7144 98.9994 -31.2313 98.9994C-28.4142 98.9994 -22.7773 95.1678 -22.7476 93.2327C-22.7324 92.2146 -22.1264 90.5977 -21.401 89.6413C-20.1092 87.9366 -20.0832 87.9393 -20.0832 89.8125C-20.0832 92.3759 -18.4295 93.2516 -16.7517 91.5764C-15.5433 90.3691 -14.9508 90.3646 -11.5152 91.5334C-4.73544 93.8395 -3.47682 95.7091 -2.23973 105.314C-1.64005 109.974 -0.595081 115.401 0.0809135 117.373C0.996605 120.043 1.43111 129.424 1.78213 154.121C2.04068 172.36 2.70141 192.068 3.24993 197.917C3.79845 203.766 4.07674 208.723 3.86757 208.932C3.6584 209.14 -5.1484 209.719 -15.704 210.22C-36.2936 211.194 -37.5962 211.364 -36.6105 212.958C-36.1347 213.726 -30.6558 213.839 -15.6187 213.391L4.7285 212.786L5.75641 218.3L6.78342 223.815L2.1098 227.956C-10.7449 239.345 -23.9793 251.886 -26.1644 254.749C-28.1736 257.382 -28.6027 258.848 -28.5632 262.951C-28.486 270.889 -27.7337 272.645 -23.8914 273.855C-21.5186 274.603 -0.635479 275.111 47.2471 275.587C84.5257 275.957 133.609 276.75 156.322 277.351C196.7 278.417 283.474 278.108 289.341 276.878C294.317 275.833 295.92 273.528 295.92 267.42C295.92 264.457 295.35 260.932 294.653 259.586C293.356 257.082 277.832 241.711 266.923 232.132L260.839 226.788L261.099 220.032L261.357 213.275L282.679 213.625C301.107 213.929 304 213.796 304 212.644C304 211.564 301.824 211.2 292.554 210.728C286.259 210.408 277.674 210.138 273.477 210.129C261.061 210.104 261.486 210.454 262.2 200.819C262.533 196.332 263.435 190.967 264.205 188.899C265.153 186.351 265.395 184.037 264.953 181.729C264.146 177.509 264.114 174.748 264.342 127.947L264.526 90.12L266.508 88.7343C269.619 86.5581 269.795 87.0448 267.52 91.5325C262.787 100.865 266.787 106.241 272.989 98.8829C274.249 97.387 275.272 95.045 275.272 93.6549C275.272 91.6723 275.921 90.8298 278.326 89.6906C280.005 88.8947 282.126 88.2378 283.039 88.2306C283.952 88.2234 285.709 87.7054 286.943 87.0789C288.658 86.2095 289.119 85.3634 288.897 83.4965C288.625 81.202 288.742 81.1141 290.803 82.0517C293.63 83.3378 296.818 81.7828 296.818 79.1181C296.818 77.1445 291.693 68.8091 289.219 66.7593C287.657 65.4651 285.335 65.3378 278.21 66.1534C274.139 66.6195 273.392 66.4564 272.568 64.9193C271.928 63.7263 270.677 63.1429 268.732 63.1321C266.468 63.1195 265.2 62.3389 262.848 59.5111C259.877 55.9404 259.859 55.8633 260.94 51.3666C262.658 44.2134 262.322 36.3396 260.08 31.2649C257.758 26.01 251.974 19.8024 246.994 17.222C242.481 14.8845 232.381 14.2571 227.085 15.986ZM94.1162 23.1231C97.8427 25.4113 101.369 29.4302 100.452 30.3453C99.6176 31.1789 98.2772 40.2017 98.1093 46.1189C98.0312 48.8786 97.3373 52.0344 96.5329 53.2892C91.0863 61.7877 90.1078 65.1174 92.6394 66.5326C93.7733 67.1654 93.2993 67.799 90.1707 69.8282C84.3372 73.6132 82.2966 75.7212 79.8799 80.4608C77.7226 84.6939 76.288 85.3876 75.0168 82.8126C70.1529 72.9598 69.5209 71.1547 70.5156 69.9573C71.9008 68.292 70.0218 60.4594 68.2371 60.4594C67.4085 60.4594 66.9875 59.3462 66.9686 57.0983C66.93 52.634 62.6245 43.9652 60.2643 43.6013C56.4552 43.0151 55.9399 42.6118 57.1447 41.1616C58.0586 40.0637 57.9769 39.4909 56.7093 38.0918C54.8447 36.0349 55.3869 34.9316 59.1987 33.0198C60.7724 32.2311 63.9558 29.7511 66.272 27.5095C70.0757 23.8285 71.1216 23.3274 77.0448 22.3406C87.086 20.6691 90.3646 20.8197 94.1162 23.1231ZM42.3383 26.3094C41.8042 27.9908 41.5896 28.0499 40.3884 26.8516C38.3999 24.8664 33.1589 25.1075 32.017 27.2379C30.6767 29.7394 30.8751 33.1749 32.4345 34.4673C33.1751 35.0812 33.7811 36.5278 33.7811 37.6822C33.7811 38.8376 34.5361 40.1856 35.458 40.6776C36.6215 41.2996 37.0057 42.2488 36.7131 43.7761C36.3773 45.5337 36.8451 46.2641 39.0319 47.3934C40.5383 48.1714 42.5367 48.8078 43.4721 48.8078C45.6599 48.8078 48.5291 45.6726 47.6466 44.2466C47.2687 43.6362 47.5595 42.7256 48.3101 42.1735C50.8417 40.3101 51.989 37.1956 50.7097 35.6576C49.7411 34.4924 49.9439 33.9941 51.9944 32.5035C53.6803 31.2774 54.429 29.9285 54.429 28.119C54.429 25.7474 54.148 25.5045 51.3992 25.5045C49.733 25.5045 47.1475 25.2607 45.6545 24.9623C43.4219 24.5168 42.8321 24.7561 42.3383 26.3094ZM242.832 27.9343C250.413 33.4796 249.942 45.6815 241.958 50.5286C237.302 53.3555 233.477 53.6414 229.034 51.4939C218.903 46.5975 219.427 31.454 229.892 26.7163C233.428 25.1155 239.797 25.7151 242.832 27.9343ZM38.7186 29.0896C40.7143 31.2909 42.3922 31.3769 43.5359 29.3352C44.1329 28.2713 45.5468 27.782 48.0686 27.7667C52.6713 27.7398 52.8786 29.3729 48.5937 31.8977C44.9983 34.0156 44.5557 35.9865 47.4383 37.0513L49.4241 37.7844L46.9895 40.0377C45.6501 41.2772 44.5539 43.1791 44.5539 44.2645C44.5539 45.8886 44.1167 46.1879 42.0851 45.954C39.9297 45.7066 39.6325 45.3042 39.7456 42.7883C39.8399 40.6767 39.4198 39.7616 38.1746 39.3664C37.1619 39.0455 36.4743 38.0022 36.4743 36.7869C36.4743 35.6638 35.6933 34.0398 34.739 33.1775C33.0027 31.6082 33.1464 29.2922 35.0621 27.9827C36.5039 26.9977 36.9429 27.1304 38.7186 29.0896ZM19.5088 41.8948C28.04 47.6256 24.0469 61.4883 13.7992 61.7169C8.94696 61.8253 5.34794 59.5882 3.5812 55.3676C1.29825 49.912 3.74907 43.405 8.9362 41.1526C13.0649 39.3601 16.0481 39.5698 19.5088 41.8948ZM180.411 49.54C176.117 53.3286 173.828 57.404 173.828 61.258C173.828 62.7324 173.452 64.1709 172.991 64.455C171.881 65.1398 169.339 61.4354 169.343 59.1392C169.349 56.1402 174.386 49.4145 178.502 46.9076C183.981 43.5708 185.228 45.289 180.411 49.54ZM211.019 58.7439C216.403 71.4406 232.178 96.3106 234.847 96.3106C235.268 96.3106 236.6 95.1382 237.807 93.706C240.525 90.4829 251.782 71.6942 255.195 64.6898C258.047 58.8362 259.74 58.3791 261.743 62.9251C262.859 65.4552 263.464 65.8371 266.353 65.8371C268.941 65.8371 270.018 66.3524 271.202 68.1566C272.448 70.055 273.159 70.3624 275.121 69.8488C276.439 69.5028 279.624 69.0628 282.199 68.8701L286.881 68.5196L290.503 73.4142C294.422 78.7094 295.103 80.7933 292.554 79.6882C291.69 79.3135 289.973 78.9684 288.738 78.92C286.851 78.8466 286.423 79.3153 286.045 81.8751C285.639 84.6329 285.208 85.0147 281.421 85.9711C275.017 87.588 272.579 89.5374 272.579 93.0382C272.579 95.0369 271.85 96.6816 270.335 98.1031L268.091 100.208L268.095 97.5869C268.098 96.1456 269.095 93.3528 270.312 91.381C272.824 87.3083 273.259 83.7626 271.246 83.7626C270.513 83.7626 267.943 84.9726 265.536 86.4515C262.823 88.1186 259.944 89.1403 257.96 89.1403C255.803 89.1403 253.79 89.9371 251.776 91.5907C246.821 95.6554 246.539 96.4522 249.238 98.7592C250.226 99.6035 251.034 101.259 251.034 102.438C251.034 106.009 247.283 111.592 243.634 113.451C240.548 115.023 240.258 115.491 240.232 118.96L240.204 122.751L238.362 120.286C236.329 117.566 233.888 117.112 232.202 119.141C231.336 120.182 231.351 121.42 232.273 125.011C233.295 128.994 233.258 129.863 231.975 131.982C230.725 134.046 229.81 134.444 225.761 134.68C219.498 135.047 218.413 136.039 218.963 140.905C219.203 143.041 219.144 144.67 218.829 144.525C218.515 144.38 216.411 143.527 214.154 142.631C211.635 141.63 209.452 139.987 208.497 138.374C207.642 136.929 206.522 135.747 206.008 135.747C204.149 135.747 196.258 145.208 195.332 148.546C194.815 150.409 194.053 151.725 193.639 151.469C193.225 151.214 191.74 148.378 190.339 145.169C188.642 141.278 187.285 139.332 186.27 139.332C185.432 139.332 183.878 137.928 182.816 136.213C181.379 133.891 179.926 132.854 177.133 132.154C175.068 131.636 172.307 130.62 170.997 129.895C166.487 127.4 164.589 128.598 165.502 133.365C166.04 136.178 168.837 138.436 171.784 138.436C172.908 138.436 173.828 138.803 173.828 139.252C173.828 140.175 165.116 144.71 163.341 144.71C162.704 144.71 161.01 142.39 159.576 139.556C154.029 128.597 150.088 128.564 154.09 139.509C157.493 148.82 158.934 150.984 161.729 150.984C164.414 150.984 164.471 151.529 162.158 155.017C160.831 157.017 160.372 159.226 160.368 163.646C160.364 167.812 159.963 169.917 159.023 170.695C158.286 171.306 155.998 174.964 153.937 178.826C150.303 185.636 144.556 191.338 141.363 191.304C139.902 191.287 135.225 183.069 135.225 180.516C135.225 179.506 134.59 177.452 133.813 175.954C132.838 174.071 132.585 172.145 132.995 169.722C133.426 167.174 133.115 165.177 131.853 162.409C130.897 160.316 129.685 157.552 129.159 156.27C128.394 154.403 127.408 153.829 124.215 153.392C122.021 153.092 118.758 153.084 116.963 153.375C114.033 153.85 113.332 153.537 110.099 150.309C106.77 146.985 106.498 146.341 106.498 141.791C106.498 138.164 107.108 135.778 108.818 132.723C110.096 130.443 111.526 128.577 111.997 128.577C112.469 128.577 113.949 127.811 115.287 126.875C119.063 124.233 125.573 123.755 128.325 125.916C129.561 126.886 130.949 127.68 131.413 127.68C131.875 127.68 132.986 128.487 133.879 129.473C135.909 131.713 138.071 131.766 139.42 129.611C140.345 128.13 140.984 128.053 145.516 128.873C150.337 129.745 150.688 129.68 152.872 127.499C154.543 125.831 154.999 124.685 154.552 123.278C154.049 121.695 153.348 121.392 150.673 121.6C148.161 121.796 147.334 121.493 147.087 120.289C146.668 118.246 150.142 116.925 155.932 116.925C160.465 116.925 161.355 116.175 159.069 114.281C158.358 113.692 157.652 112.332 157.498 111.258C157.287 109.776 156.506 109.238 154.254 109.022C151.756 108.782 150.761 109.314 147.95 112.384C146.114 114.388 144.139 116.029 143.561 116.029C142.983 116.029 141.929 116.855 141.22 117.866C139.941 119.689 139.927 119.686 139.386 117.534C138.765 115.064 132.981 110.268 131.629 111.103C130.351 111.891 130.578 114.399 132.112 116.424C132.837 117.381 133.426 118.994 133.422 120.009C133.416 121.247 132.522 120.305 130.71 117.149C127.492 111.547 125.533 111.152 121.709 115.332C120.256 116.92 119.066 118.534 119.066 118.917C119.066 119.811 113.909 119.833 113.408 118.942C113.2 118.572 112.765 117.16 112.44 115.805C111.898 113.54 112.065 113.34 114.497 113.34C117.856 113.34 120.295 111.082 119.147 109.035C118.496 107.873 118.878 107.323 120.937 106.459C122.377 105.854 123.557 104.836 123.56 104.196C123.564 103.556 124.787 102.339 126.278 101.492C128.545 100.204 128.909 99.5425 128.496 97.4587C128.079 95.3515 128.132 95.2583 128.844 96.8555C129.821 99.0469 134.578 100.304 136.998 99.0119C137.892 98.5342 139.724 96.8376 141.07 95.2404C142.415 93.6441 144.378 91.9089 145.431 91.3846C148.357 89.9281 147.816 87.8416 144.427 87.5154C142.219 87.302 141.51 86.8055 141.51 85.4701C141.51 84.5003 142.084 83.4866 142.787 83.2168C145.704 82.0992 145.427 76.5924 142.453 76.5924C141.558 76.5924 139.767 77.9772 138.474 79.6693C136.681 82.0167 136.123 83.7833 136.123 87.1165C136.123 89.5203 135.573 92.2379 134.9 93.1565C133.741 94.7385 133.609 94.6883 132.392 92.2083C131.398 90.1827 130.556 89.627 128.677 89.757C127.341 89.8502 126.248 89.5804 126.248 89.1582C126.248 88.7361 126.013 87.7789 125.726 87.0314C125.409 86.2068 126.164 84.8543 127.643 83.5968C128.986 82.4559 130.996 79.4901 132.11 77.0074C134.3 72.128 140.141 66.2144 143.635 65.3387C146.182 64.7006 150.038 66.5039 154.515 70.4278C158.435 73.8641 158.492 74.8707 154.752 74.5794C152.345 74.3911 151.785 74.6968 151.553 76.3217C150.721 82.1493 156.676 84.0244 160.731 79.2122C162.009 77.6957 163.055 76.0824 163.055 75.6271C163.055 75.1718 164.612 74.7999 166.514 74.7999C168.417 74.7999 172.505 74.5355 175.598 74.2128L181.221 73.6257L183.351 69.0592C184.523 66.5478 185.485 63.2056 185.49 61.6326C185.506 56.4575 187.194 57.5357 187.473 62.8991C187.808 69.3245 189.826 70.0021 191.635 64.2973C192.811 60.5867 192.872 60.5427 194.962 61.9105C197.779 63.7532 199.153 62.8632 198.033 59.9207C196.742 56.531 196.947 55.978 199.492 55.978C201.248 55.978 202.062 55.3219 202.83 53.2892C203.509 51.4939 204.465 50.6003 205.706 50.6003C207.196 50.6003 208.25 52.2154 211.019 58.7439ZM45.7246 56.8546C48.0434 58.3227 49.9403 60.0614 49.9403 60.7193C49.9403 61.3772 51.1173 62.7834 52.5555 63.8455C53.9936 64.9067 55.4309 66.9574 55.7487 68.4022C56.0665 69.847 57.1115 71.7382 58.0712 72.6049C59.9851 74.3347 60.3999 76.5924 58.8028 76.5924C58.1187 76.5924 57.9832 77.7961 58.3854 80.3075L58.9806 84.0226L56.9292 82.515C55.8008 81.6851 53.7665 80.3165 52.4073 79.4722C50.8013 78.4737 50.1352 77.4672 50.5032 76.5924C51.62 73.9376 51.9288 71.2085 51.366 68.9678C50.8174 66.7862 48.7401 65.4956 40.7385 62.3613C38.7285 61.5735 38.2698 60.8358 38.2698 58.3872C38.2698 53.2856 39.6424 53.0032 45.7246 56.8546ZM-18.3532 65.5512C-16.1681 65.8568 -12.9488 67.0757 -11.2 68.2606C-9.13974 69.6561 -7.30746 70.236 -5.99587 69.9071C-4.30812 69.484 -3.64739 70.0352 -2.02069 73.2188C1.54512 80.1964 9.34915 92.2459 11.7668 94.5063L14.1512 96.7354L15.8874 94.5063C18.3427 91.355 26.9358 76.9572 29.3876 71.8869C30.5196 69.545 31.7378 67.6296 32.096 67.6296C32.4533 67.6296 34.0037 68.6863 35.5415 69.9788C38.1396 72.1612 38.452 72.2248 39.9458 70.875C42.236 68.8055 42.9182 69.0664 42.5933 71.8869C42.3994 73.5764 41.7269 74.4351 40.4566 74.6161C39.2241 74.7927 38.0561 76.2088 36.9636 78.8537C36.0613 81.038 34.6151 83.0501 33.7506 83.3244C32.886 83.5977 31.684 85.0156 31.0789 86.4739C30.1605 88.6859 30.226 89.6467 31.473 92.2701C32.2953 93.9991 33.4929 95.4143 34.1339 95.4143C36.9061 95.4143 41.0779 98.4347 42.2835 101.315C43.1508 103.389 44.1589 104.377 45.4059 104.377C46.4185 104.377 47.2471 103.934 47.2471 103.392C47.2471 102.851 47.9186 100.994 48.7401 99.2656C49.9691 96.6816 50.0481 95.6132 49.1889 93.2408C47.9608 89.8502 47.854 87.6328 48.8864 86.9955C50.5275 85.9836 53.4711 87.6776 54.3258 90.1262C55.2639 92.8124 56.94 93.4451 58.634 91.7539C59.3334 91.0557 60.0157 91.364 61.0579 92.8491C61.856 93.9865 62.5087 95.4161 62.5087 96.0255C62.5087 96.635 63.5186 98.0691 64.753 99.2118C66.8501 101.153 66.9058 101.42 65.5996 103.282C64.6327 104.659 63.2843 105.273 61.2213 105.273C57.9257 105.273 56.9445 106.148 55.5306 110.351C55.0054 111.911 52.1344 115.565 49.1503 118.471C46.1663 121.378 43.377 124.693 42.9524 125.838C42.1821 127.918 42.1758 127.916 39.0355 124.687C36.0128 121.58 35.7076 121.475 31.2144 122.007C27.4475 122.452 26.1871 123.052 24.7346 125.089C23.0827 127.405 23.0423 127.834 24.257 130.179C26.3756 134.271 28.0598 135.291 30.7081 134.086C33.8762 132.645 34.8808 132.803 34.2937 134.652C33.9418 135.758 35.0101 137.394 37.7868 140.002C42.4164 144.352 45.5513 145.41 49.425 143.928C51.6021 143.095 52.3292 143.114 52.8697 144.015C53.2458 144.643 55.8214 148.989 58.5936 153.672C64.3356 163.375 65.9847 165.501 67.1922 164.756C67.6608 164.466 69.4832 161.956 71.2428 159.176C73.0023 156.395 74.5087 154.028 74.5904 153.916C74.6712 153.804 76.7603 155.619 79.2308 157.949L83.724 162.187L82.4654 166.668C81.7732 169.133 80.6546 172.158 79.9795 173.391C79.3053 174.623 77.7495 177.483 76.5232 179.746C74.9154 182.714 72.6513 184.929 68.4014 187.693C65.1606 189.802 62.5087 191.814 62.5087 192.165C62.5087 192.516 60.2616 195.283 57.5145 198.313C51.8696 204.541 50.5876 207.819 51.401 213.946C51.7125 216.288 51.7556 218.205 51.4961 218.205C51.2376 218.205 49.7141 216.165 48.1108 213.67C45.317 209.324 45.22 208.87 45.7452 202.658C46.0478 199.095 46.9572 194.379 47.7678 192.179C48.609 189.894 49.3766 184.56 49.557 179.735C49.8721 171.31 49.8667 171.285 46.9886 168.084C45.4032 166.32 43.3177 163.12 42.3563 160.974C40.6793 157.233 40.6694 156.897 42.1318 152.788C44.0961 147.265 44.053 146.502 41.7718 146.502C40.7358 146.502 38.7554 145.292 37.372 143.813C34.905 141.176 26.4825 136.669 23.9904 136.652C21.9758 136.638 16.856 132.322 14.3253 128.504C11.7722 124.653 10.4399 124.045 10.4399 126.731C10.4399 130.572 8.75845 129.036 5.30215 122.041C1.93385 115.223 1.32159 112.895 -0.775524 98.9187C-1.37432 94.9285 -3.82693 92.5659 -10.3678 89.6781C-14.9598 87.6507 -15.5604 87.5718 -16.6278 88.8553C-17.6781 90.1182 -17.8631 90.0402 -18.311 88.1437C-18.5884 86.9713 -19.4036 85.9048 -20.1227 85.7721C-21.4773 85.522 -24.5718 90.1065 -24.5718 92.3633C-24.5718 93.6029 -29.5292 97.197 -31.2483 97.2032C-31.7107 97.205 -30.9521 96.021 -29.5606 94.5718C-26.5711 91.4563 -26.967 89.463 -30.8443 88.1141C-34.0313 87.0045 -34.3087 85.1124 -31.6038 82.9255C-29.1332 80.9277 -29.9556 78.385 -33.0725 78.385C-34.4936 78.385 -35.3447 77.8813 -35.3447 77.0406C-35.3447 76.1443 -34.447 75.6961 -32.6515 75.6961C-29.4932 75.6961 -29.1225 74.0407 -31.7484 71.6683C-33.5214 70.0657 -33.507 70.0227 -30.1773 67.047C-27.6538 64.792 -26.2569 64.1619 -24.5718 64.5204C-23.3375 64.783 -20.5392 65.2464 -18.3532 65.5512ZM131.007 75.2767C129.294 78.4961 126.877 81.7953 125.635 82.6082C123.634 83.9168 123.443 84.5003 123.961 87.7332C124.686 92.2665 125.542 93.1664 127.916 91.8973C129.54 91.0297 129.959 91.2546 131.206 93.662C133.869 98.8022 137.879 95.1042 137.905 87.4858C137.919 83.6874 140.577 78.385 142.468 78.385C143.943 78.385 143.363 80.7431 141.467 82.4568C138.94 84.7396 139.452 88.4251 142.407 89.2398C143.668 89.5867 143.994 89.8968 143.154 89.947C142.33 89.9963 140.779 91.4536 139.707 93.1852C136.738 97.9812 132.164 99.7442 131.018 96.5346C129.399 92.0021 126.258 92.0649 126.232 96.6305C126.219 98.7843 125.427 100.095 122.865 102.196C121.022 103.708 118.815 105.205 117.959 105.523C116.777 105.963 116.532 106.74 116.938 108.764C117.449 111.317 117.327 111.439 114.005 111.711C110.552 111.995 110.539 112.01 110.828 115.567C111.193 120.082 112.303 121.406 115.723 121.406C117.758 121.406 119.301 120.48 121.845 117.729C123.715 115.707 125.756 114.222 126.38 114.43C127.004 114.637 128.462 116.594 129.619 118.779C131.969 123.218 134.385 123.957 135.272 120.51C135.678 118.933 135.312 117.673 134.037 116.256C133.041 115.149 132.487 113.982 132.806 113.663C133.719 112.752 136.129 115.174 137.769 118.652C139.439 122.194 142.407 123.521 142.407 120.725C142.407 117.698 143.621 117.691 144.599 120.712C145.421 123.251 146.004 123.685 148.916 123.925C152.51 124.222 153.08 125.008 150.97 126.756C149.965 127.588 148.564 127.61 145.002 126.847C140.989 125.987 140.117 126.057 138.683 127.352C137.136 128.75 136.907 128.751 135.379 127.371C134.476 126.555 133.45 125.888 133.099 125.888C132.747 125.888 131.289 125.024 129.859 123.968C127.641 122.331 126.423 122.117 121.591 122.513C110.611 123.415 103.719 130.988 104.17 141.659C104.356 146.063 104.893 147.768 106.942 150.45C110.309 154.857 113.78 156.592 117.745 155.849C119.459 155.529 122.175 155.518 123.779 155.825C126.36 156.321 126.938 157.011 128.786 161.806C130.321 165.788 130.721 168.142 130.292 170.676C129.91 172.937 130.15 175.001 130.993 176.67C131.698 178.071 132.514 180.471 132.805 182.004C133.723 186.836 138.205 193.524 140.726 193.825C144.899 194.321 151.416 188.936 155.424 181.677C157.4 178.1 160.13 173.637 161.492 171.758C163.826 168.538 163.917 168.067 163.06 163.556C162.198 159.019 162.291 158.551 164.847 154.574C166.33 152.266 167.544 150.111 167.544 149.784C167.544 149.458 165.906 149.191 163.905 149.191C160.304 149.191 160.24 149.133 157.516 143.321C154.165 136.17 154.705 134.678 158.253 141.289C160.423 145.331 161.244 146.096 163.662 146.33C167.02 146.655 173.109 143.797 175.098 140.963C176.354 139.171 176.347 138.833 175.018 137.366C174.211 136.476 172.428 135.747 171.056 135.747C169.321 135.747 168.382 135.181 167.971 133.887C167.15 131.302 167.762 131.019 170.777 132.588C172.209 133.333 174.325 133.945 175.48 133.949C178.521 133.957 185.917 142.011 189.615 149.342C191.313 152.71 193.261 155.465 193.941 155.465C195.123 155.465 198.067 149.51 198.067 147.119C198.067 146.492 199.823 144.259 201.969 142.155L205.872 138.332L207.285 140.485C208.606 142.499 217.226 147.398 219.446 147.398C221.133 147.398 222.372 144.11 221.537 141.855C220.285 138.476 221.204 137.539 225.772 137.539C230.923 137.539 233.502 135.863 234.912 131.599C235.759 129.037 235.741 127.615 234.828 124.853C233.941 122.166 233.917 121.107 234.729 120.297C235.541 119.486 236.039 119.909 236.873 122.116C238.701 126.95 242.954 125.052 242.954 119.404C242.954 117.316 244.422 115.132 245.827 115.132C246.741 115.132 246.649 121.282 245.699 123.647C245.254 124.754 245.45 126.365 246.211 127.86C247.081 129.569 247.443 133.965 247.443 142.816V155.352L244.3 154.843C241.808 154.44 241.158 154.631 241.158 155.766C241.158 156.553 242.572 158.609 244.3 160.334C246.029 162.06 247.443 163.884 247.443 164.387C247.443 164.891 245.804 165.564 243.802 165.884C241.8 166.203 238.872 167.412 237.294 168.569C235.716 169.727 232.737 171.46 230.673 172.422C226.079 174.561 224.655 176.854 225.897 180.113C226.391 181.409 226.795 184.23 226.795 186.381C226.795 192.834 230.185 194.7 235.945 191.416C237.578 190.484 240.407 189.462 242.232 189.143C246.879 188.332 247.443 189.87 247.443 203.357V214.619H161.85C114.773 214.619 71.3451 214.356 65.3428 214.033L54.429 213.448V209.709C54.429 206.833 54.9695 205.467 56.7685 203.796C58.0559 202.601 60.3101 199.89 61.7788 197.771C63.2475 195.653 67.2577 191.88 70.6906 189.387C74.497 186.623 77.5943 183.558 78.632 181.528C79.5666 179.698 80.9572 177.683 81.7202 177.05C82.4842 176.417 83.3811 174.428 83.7123 172.629C84.0445 170.829 84.8695 167.777 85.5446 165.847C87.1094 161.376 86.5142 159.606 82.6395 157.215C80.9249 156.158 78.9355 154.159 78.2182 152.774C77.0053 150.433 77.0996 149.89 79.5657 145.019C83.1728 137.892 84.435 131.524 83.1701 126.833C81.9725 122.395 77.4919 117.092 73.549 115.447C67.4175 112.889 58.4347 114.694 54.2387 119.327C50.4287 123.533 48.8478 131.865 50.8578 137.143C51.9621 140.043 50.0867 141.947 46.0801 141.992C43.0655 142.026 37.372 136.931 37.372 134.197C37.372 131.186 35.186 130.016 31.78 131.207C29.1703 132.119 28.6685 132.018 27.2725 130.306C26.408 129.245 25.7014 128.068 25.7014 127.691C25.7014 126.376 27.9682 125.19 31.6346 124.587C35.1762 124.005 35.4661 124.143 38.9296 128.071C40.9127 130.321 42.947 132.162 43.4488 132.162C44.5045 132.162 45.4517 130.051 45.4517 127.701C45.4517 126.806 48.0291 123.463 51.1792 120.272C54.4317 116.976 57.3709 113.063 57.9814 111.216C58.933 108.337 59.4025 107.962 62.0643 107.962C64.244 107.962 65.5834 107.312 66.9318 105.6C69.3889 102.482 69.2803 100.408 66.5485 98.2635C65.3141 97.2938 64.2916 95.9538 64.2763 95.2852C64.2611 94.6166 63.3247 92.5704 62.1954 90.7375C60.2886 87.6426 60.0372 87.51 58.6637 88.8822C57.2892 90.2544 57.1303 90.2159 56.4364 88.3426C55.4857 85.7748 48.6359 82.5213 47.4105 84.0548C45.7596 86.1199 45.3727 89.1045 46.3072 92.5686C47.0335 95.2619 46.9688 96.7668 46.0298 98.9958L44.8035 101.907L44.2262 99.6107C43.842 98.0816 42.2144 96.5355 39.356 94.9823C36.995 93.6988 34.5531 91.8345 33.931 90.8388C32.5539 88.6375 33.3053 85.8268 35.4527 85.1465C36.3217 84.8713 37.767 82.9838 38.6639 80.9528C39.5616 78.9227 41.0527 77.063 41.9774 76.8219C42.929 76.5736 43.9731 75.1637 44.3833 73.5746C44.9381 71.4209 45.6698 70.7003 47.5236 70.4834C50.2608 70.1616 50.4709 70.9656 48.8343 75.4855C47.7696 78.4262 47.8441 78.6386 50.8542 81.2065C52.5734 82.6728 55.3465 84.4806 57.0163 85.2236C60.8281 86.9193 62.2106 85.8734 60.9457 82.2497C60.2778 80.3389 60.3622 79.4202 61.2824 78.5615C62.9468 77.0092 62.8265 73.9475 61.0229 71.9578C59.6072 70.3955 59.705 70.3185 63.0895 70.3185H66.641L70.1502 78.0184C73.4925 85.35 76.2315 88.7451 77.9507 87.6848C78.3825 87.4177 79.9957 84.9708 81.5362 82.247C83.2491 79.2167 86.2843 75.7669 89.3573 73.3586L94.3783 69.4231H114.25L134.12 69.4222L131.007 75.2767ZM180.112 70.2477C180.112 71.3949 176.258 72.1173 169.005 72.3279C163.502 72.4883 162.678 72.751 161.375 74.7595C158.005 79.9499 154.822 81.6143 153.725 78.7596C152.818 76.4006 153.064 76.1263 156.075 76.1353C159.534 76.1461 160.465 73.8041 158.058 71.1484C156.521 69.4527 156.702 69.4222 168.303 69.4222C174.897 69.4222 180.112 69.7861 180.112 70.2477ZM98.8177 74.2764C97.3858 75.3224 97.2843 75.8449 98.1722 77.6222C98.7503 78.7811 99.3455 80.5029 99.4937 81.4476C99.859 83.7671 104.214 85.1689 107.048 83.8801C108.241 83.3369 109.682 81.8742 110.25 80.6301C111.142 78.6754 110.991 78.0569 109.139 76.0887C107.566 74.4171 106.427 73.952 104.865 74.3436C103.693 74.6367 102.235 74.4629 101.625 73.9574C100.852 73.3165 100.001 73.4133 98.8177 74.2764ZM101.583 76.6292C101.9 77.1418 102.877 77.3345 103.753 77.0567C107.481 75.8754 109.933 79.4964 107.033 81.8993C105.209 83.4104 100.966 82.1601 101.297 80.2089C101.442 79.3574 101.005 77.9933 100.328 77.1786C99.6023 76.3047 99.4883 75.6961 100.051 75.6961C100.575 75.6961 101.265 76.1156 101.583 76.6292ZM39.9297 80.5647C39.1397 82.2963 39.1325 83.4212 39.9018 85.1071C41.2359 88.0298 41.9864 87.9339 44.5162 84.5182C46.8674 81.3427 46.2453 79.0446 42.9003 78.5481C41.5537 78.3473 40.6667 78.9496 39.9297 80.5647ZM44.0422 80.9725C44.6284 81.9199 42.0555 84.2556 41.279 83.4812C40.5312 82.7337 41.6129 80.1775 42.6777 80.1775C43.157 80.1775 43.772 80.5351 44.0422 80.9725ZM187.743 88.7576C181.298 92.1034 177.677 98.6848 178.58 105.408C179.436 111.779 190.883 132.162 193.606 132.162C196.1 132.162 207.634 110.457 208.503 104.128C210.04 92.9307 197.536 83.6721 187.743 88.7576ZM115.042 90.9149C113.573 92.5363 113.52 93.1117 114.552 96.2344C115.189 98.1605 115.447 100.78 115.127 102.057C114.511 104.506 115.121 104.808 118.732 103.841C120.836 103.277 123.241 99.0352 121.94 98.1847C120.704 97.3753 118.815 93.4613 118.71 91.493C118.58 89.0256 116.983 88.7746 115.042 90.9149ZM118.948 101.781C117.121 102.936 116.367 102.748 116.932 101.277C117.208 100.558 116.956 98.5244 116.373 96.7587C115.789 94.993 115.581 92.859 115.911 92.0165C116.34 90.9212 117.033 91.9833 118.343 95.7441C119.863 100.105 119.967 101.136 118.948 101.781ZM198.395 95.4797C200.916 97.4587 201.617 102.001 199.897 105.21C198.471 107.868 194.036 109.265 191.002 108.011C186.949 106.335 185.05 100.36 187.547 97.1414C190.476 93.3681 194.852 92.6968 198.395 95.4797ZM109.645 97.2006C107.847 99.1849 108.134 101.566 110.338 102.937C112.284 104.146 113.645 102.482 113.666 98.8712C113.683 95.8812 111.618 95.0235 109.645 97.2006ZM111.071 101.066C110.36 101.776 110.089 101.543 110.089 100.225C110.089 97.8548 111.344 96.5974 111.744 98.5665C111.914 99.4018 111.61 100.528 111.071 101.066ZM155.787 112.668C156.487 114.538 156.241 114.724 152.392 115.227C150.11 115.525 148.138 115.689 148.009 115.591C147.881 115.494 148.77 114.342 149.986 113.032C152.689 110.12 154.785 109.989 155.787 112.668ZM257.767 112.22C257.416 113.083 256.526 115.503 255.792 117.599C254.459 121.397 250.996 124.991 248.668 124.991C246.921 124.991 247.075 124.592 250.585 120.001C252.313 117.741 253.727 115.346 253.727 114.68C253.727 113.25 256.147 110.651 257.477 110.651C258.009 110.651 258.133 111.324 257.767 112.22ZM72.7106 123.769C79.4957 130.544 71.4474 141.236 62.383 137.487C59.1565 136.153 56.6958 131.292 57.5424 127.925C59.1386 121.574 68.0621 119.129 72.7106 123.769ZM24.1439 139.975C25.6718 139.434 33.1877 143.302 35.933 146.042C37.1727 147.281 38.8596 148.295 39.6801 148.295C41.2565 148.295 41.182 149.042 39.0849 154.246C38.1216 156.636 38.189 157.684 39.5338 161.199C40.4046 163.476 42.4541 166.936 44.0889 168.889C46.9868 172.353 47.0541 172.625 46.8234 179.862C46.6825 184.277 45.9777 188.725 45.0845 190.842C43.078 195.595 42.0735 210.475 43.6328 212.35C44.6482 213.573 43.3465 213.723 31.7639 213.723H18.7547L18.1982 210.362C17.892 208.514 17.6371 191.143 17.6317 171.761L17.6218 136.521L20.3285 138.445C21.8169 139.503 23.5334 140.192 24.1439 139.975ZM232.238 141.505C230.663 143.398 232.002 149.215 234.671 152.072C235.922 153.41 237.286 154.294 237.705 154.035C239.065 153.196 238.496 148.807 236.67 146.054C235.688 144.575 234.883 142.66 234.88 141.797C234.873 139.899 233.681 139.768 232.238 141.505ZM236.663 150.055C236.674 152.286 234.296 149.177 233.603 146.054L233.007 143.365L234.832 146.054C235.837 147.533 236.661 149.334 236.663 150.055ZM206.178 151.208C206.269 154.388 214.798 164.428 217.409 164.428C220.097 164.428 220.491 163.741 219.473 160.827C217.604 155.476 206.062 147.125 206.178 151.208ZM214.04 156.619C217.685 160.328 218.789 162.635 216.919 162.635C216.426 162.635 216.022 162.322 216.022 161.939C216.022 161.555 214.91 160.016 213.553 158.519C209.458 154.002 208.58 152.776 209.44 152.776C209.892 152.776 211.961 154.506 214.04 156.619ZM224.775 155.082C220.949 157.585 221.065 157.318 222.45 160.352C223.118 161.818 224.218 162.635 225.519 162.635C226.633 162.635 228.158 162.87 228.907 163.157C230.893 163.918 232.786 157.372 231.354 154.7C230.054 152.276 228.972 152.339 224.775 155.082ZM229.488 158.154C229.488 160.522 229.178 160.843 226.891 160.843C223.305 160.843 222.617 158.53 225.705 156.857C229.133 154.999 229.488 155.121 229.488 158.154ZM255.007 161.722C256.003 162.718 256.374 163.531 255.83 163.531C253.844 163.531 244.907 158.96 244.421 157.696C243.728 155.893 252.515 159.235 255.007 161.722ZM234.916 158.553C233.408 160.365 234.104 163.9 236.039 164.268C239.761 164.977 241.816 159.945 238.524 158.185C236.302 156.998 236.199 157.008 234.916 158.553ZM238.016 160.843C238.016 161.5 237.512 162.206 236.894 162.411C236.226 162.633 235.772 161.998 235.772 160.843C235.772 159.687 236.226 159.052 236.894 159.274C237.512 159.479 238.016 160.186 238.016 160.843ZM220.968 165.309C219.849 167.118 223.537 169.967 227.131 170.069C231.211 170.184 233.138 168.585 231.223 166.673C229.418 164.87 221.862 163.865 220.968 165.309ZM228.973 167.022C230.367 167.567 230.443 167.8 229.366 168.212C227.696 168.852 223.344 168.068 222.688 167.01C222.101 166.062 226.54 166.071 228.973 167.022ZM253.096 169.224C256.478 170.634 262.704 179.935 262.704 183.575C262.704 186.309 259.375 195.53 258.106 196.314C257.616 196.616 254.405 194.371 250.972 191.325L244.73 185.786L239.129 187.713C229.099 191.164 229.488 191.211 229.488 186.534C229.488 184.28 228.99 181.349 228.384 180.018C227.424 177.916 227.496 177.468 228.931 176.614C229.841 176.073 232.384 174.421 234.584 172.942C236.785 171.464 239.467 169.755 240.545 169.147C243.144 167.678 249.485 167.717 253.096 169.224ZM165.912 172.686C163.847 174.271 162.158 176.313 162.158 177.227C162.158 178.139 161.714 179.713 161.172 180.724C160.41 182.146 160.488 182.863 161.518 183.892C162.696 185.068 163.262 184.851 166.392 182.028C170.954 177.912 173.579 169.805 170.348 169.805C169.972 169.805 167.977 171.101 165.912 172.686ZM168.705 174.959C167.765 177.512 165.723 180.379 164.517 180.84C162.286 181.695 164.046 176.439 166.5 174.919C169.476 173.076 169.4 173.074 168.705 174.959ZM275.259 190.644C275.245 192.697 274.32 194.64 271.383 198.772C269.496 201.427 270.073 204.767 272.415 204.75C273.246 204.743 275.652 203.137 277.763 201.181C281.034 198.147 281.514 197.258 281.022 195.141C280.209 191.645 278.16 188.627 276.598 188.627C275.825 188.627 275.267 189.469 275.259 190.644ZM278.85 195.3C278.863 197.019 274.729 202.071 273.309 202.071C272.03 202.071 272.523 200.265 274.33 198.328C275.293 197.296 276.347 195.243 276.672 193.765C277.109 191.777 277.467 191.4 278.049 192.317C278.482 192.999 278.842 194.341 278.85 195.3ZM159.913 227.661L258.664 228.166L269.447 238.646C275.378 244.41 283.155 251.816 286.728 255.104C290.303 258.392 293.227 261.704 293.227 262.464C293.227 265.867 289.227 265.969 182.357 265.293C29.6614 264.327 -21.9549 263.583 -24.2666 262.314C-25.633 261.564 -26.0594 260.693 -25.7111 259.363C-25.44 258.326 -17.6997 250.448 -8.51133 241.856L8.19556 226.233L34.6788 226.695C49.2446 226.949 105.6 227.384 159.913 227.661ZM36.2876 231.516L20.3913 232.097L16.2896 236.116C14.0344 238.326 11.1042 241.697 9.77827 243.607C5.42155 249.883 1.50203 249.573 85.348 249.581C126.359 249.584 183.309 250.002 211.905 250.509C249.697 251.179 264.163 251.162 264.871 250.444C266.387 248.908 251.391 234.776 247.388 233.966C245.69 233.623 216.022 233.002 181.459 232.586C146.896 232.17 103.67 231.628 85.401 231.382C67.132 231.136 45.0315 231.196 36.2876 231.516ZM36.4743 233.847C36.4743 234.07 36.0057 235.28 35.432 236.536C34.537 238.497 33.8107 238.82 30.27 238.827C23.6806 238.84 16.7241 239.888 16.7241 240.869C16.7241 241.449 19.6444 241.584 24.8791 241.246C31.9497 240.788 32.965 240.9 32.5099 242.082C32.2217 242.833 31.9856 243.981 31.9856 244.634C31.9856 245.49 29.6658 245.995 23.6815 246.439C19.1138 246.779 14.223 246.917 12.8117 246.747L10.246 246.437L14.9124 240.611L19.5798 234.786L26.0067 234.275C29.542 233.994 33.3439 233.691 34.4544 233.603C35.5649 233.514 36.4743 233.624 36.4743 233.847ZM56.3206 235.458C55.7388 237.036 54.6238 237.604 51.1873 238.068C45.9741 238.773 37.372 238.988 37.372 238.413C37.372 238.19 37.8406 236.98 38.4143 235.724C39.4269 233.504 39.6963 233.441 48.2598 233.441C57.0127 233.441 57.0603 233.453 56.3206 235.458ZM77.6086 235.458C77.3339 237.388 76.9066 237.485 67.6707 237.729C58.7561 237.964 58.02 237.855 58.02 236.309C58.02 235.39 58.2893 234.367 58.6188 234.039C58.9473 233.71 63.4199 233.441 68.5558 233.441C77.7271 233.441 77.8896 233.477 77.6086 235.458ZM98.4182 235.859C98.4182 237.882 98.2332 237.923 88.9919 237.923C83.8075 237.923 79.5657 237.552 79.5657 237.1C79.5657 234.057 80.5891 233.712 89.4848 233.753C98.2 233.793 98.4182 233.845 98.4182 235.859ZM112.441 234.018C118.97 234.526 119.686 234.76 119.294 236.254C118.905 237.74 117.882 237.923 109.984 237.923C105.105 237.923 101.111 237.552 101.111 237.1C101.111 236.647 100.866 235.639 100.566 234.859C99.9362 233.22 101.101 233.137 112.441 234.018ZM138.592 234.902C139.78 235.22 140.612 236.138 140.612 237.131C140.612 238.649 139.865 238.818 133.205 238.806C124.086 238.792 121.759 238.226 121.759 236.025C121.759 234.508 122.506 234.338 129.166 234.35C133.239 234.356 137.481 234.606 138.592 234.902ZM213.42 237.716C213.891 238.952 214.164 240.008 214.027 240.064C213.89 240.119 209.21 240.037 203.628 239.883C194.138 239.62 193.431 239.474 192.749 237.642C192.039 235.735 192.239 235.67 200.205 235.234C210.745 234.657 212.372 234.962 213.42 237.716ZM164.541 236.617C164.834 237.378 164.922 238.11 164.738 238.244C164.553 238.379 159.682 238.319 153.913 238.111C146.037 237.827 143.304 237.422 142.944 236.483C142.55 235.458 144.393 235.234 153.237 235.234C162.118 235.234 164.103 235.477 164.541 236.617ZM189.987 237.431V239.626L178.99 239.089C168.901 238.594 166.704 238.028 166.66 235.906C166.652 235.536 171.898 235.234 178.317 235.234H189.987V237.431ZM232.572 236.648C233.351 237.426 234.404 238.838 234.912 239.785C235.749 241.347 235.51 241.508 232.344 241.508C230.424 241.508 226.35 241.247 223.29 240.927C218.35 240.412 217.578 240.06 216.402 237.79L215.078 235.234H223.117C229.242 235.234 231.492 235.571 232.572 236.648ZM249.956 237.406C251.289 238.107 254.589 240.931 257.287 243.679L262.194 248.678H252.625C243.721 248.678 242.957 248.538 241.636 246.661L240.217 244.645L248.093 244.197C257.606 243.655 256.88 242.753 246.24 241.891C238.777 241.286 238.313 241.125 237.053 238.693L235.726 236.13H241.629C245 236.13 248.572 236.677 249.956 237.406ZM93.0596 240.603C97.7494 240.611 98.0806 240.761 99.0412 243.3L100.057 245.989H77.3213H54.5852L55.6015 243.3L56.6177 240.611H66.2962H75.9747V242.852C75.9747 246.028 77.4371 245.635 78.1096 242.279L78.6733 239.466L83.3838 240.031C85.9746 240.342 90.3287 240.6 93.0596 240.603ZM53.7225 243.3L53.3275 245.989H43.5547C38.1791 245.989 33.7811 245.675 33.7811 245.293C33.7811 244.909 34.4104 243.699 35.1788 242.604C36.4608 240.776 37.3011 240.611 45.3475 240.611H54.1184L53.7225 243.3ZM119.461 242.958C119.786 244.249 119.931 245.422 119.783 245.565C119.401 245.938 113.271 246.177 106.722 246.076L101.111 245.989V243.3V240.611H109.992C118.822 240.611 118.875 240.625 119.461 242.958ZM141.51 241.882C141.51 242.581 141.755 243.791 142.054 244.571C142.532 245.814 141.312 245.989 132.179 245.989H121.759V243.3V240.611H131.634C139.561 240.611 141.51 240.862 141.51 241.882ZM166.174 243.256C166.927 244.71 167.544 246.122 167.544 246.392C167.544 247.058 157.73 247.006 150.262 246.301C144.329 245.742 144.203 245.676 144.203 243.17V240.611H154.503H164.805L166.174 243.256ZM192.304 244.645L193.401 247.334L181.594 247.021C175.101 246.849 169.72 246.646 169.637 246.571C169.553 246.496 169.204 245.312 168.859 243.943L168.233 241.453L179.719 241.704L191.206 241.956L192.304 244.645ZM216.505 244.724C218.761 247.391 219.984 247.507 219.326 244.991C218.841 243.138 219.029 243.104 227.849 243.458C235.416 243.762 237.067 244.094 238.115 245.524C240.245 248.432 239.605 248.957 234.65 248.363C232.058 248.051 222.593 247.793 213.617 247.79C196.186 247.781 194.476 247.368 194.476 243.16C194.476 241.424 194.853 241.38 204.576 241.959C213.762 242.508 214.84 242.758 216.505 244.724Z" fill="black"/>
</g>
</svg>
