<svg width="343" height="333" viewBox="0 0 343 333" fill="none" xmlns="http://www.w3.org/2000/svg">
<mask id="mask0_1093_498" style="mask-type:alpha" maskUnits="userSpaceOnUse" x="0" y="0" width="343" height="333">
<rect width="343" height="333" fill="#D9D9D9"/>
</mask>
<g mask="url(#mask0_1093_498)">
<path fill-rule="evenodd" clip-rule="evenodd" d="M277.992 -31.0358C267.611 -29.0168 260.627 -25.7808 255.319 -20.5308C241.619 -6.98078 249.095 9.18922 270.033 11.2952C275.47 11.8412 275.465 11.8382 268.854 10.4412C260.502 8.67522 257.133 6.93422 253.032 2.26221C250.007 -1.18179 249.804 -1.85778 250.19 -7.19078C250.858 -16.4218 256.803 -22.6138 269.558 -27.3598C277.687 -30.3858 300.519 -30.6298 308.992 -27.7808C321.501 -23.5758 328.421 -16.4288 328.421 -7.71478C328.421 -0.519783 325.855 3.41422 318.492 7.50922C315.192 9.34521 312.942 10.8412 313.492 10.8352C314.042 10.8282 316.728 9.59622 319.46 8.09722C330.775 1.88722 333.097 -10.2458 324.784 -19.7148C316.635 -28.9948 294.739 -34.2928 277.992 -31.0358ZM21.4922 -23.7478C10.7662 -21.9818 2.98716 -19.6288 -5.61184 -15.5488C-13.2908 -11.9038 -22.1818 -4.62778 -24.5498 -0.0497818C-26.6428 3.99822 -26.3698 11.4912 -23.9478 16.4942C-21.3088 21.9462 -16.5898 24.2772 -4.19184 26.2512C0.932163 27.0672 5.81516 28.3082 6.65916 29.0092C7.50416 29.7102 9.66316 32.5532 11.4582 35.3272C13.2522 38.1002 15.9902 41.4952 17.5422 42.8702C19.5732 44.6702 19.2342 43.9692 16.3332 40.3702C14.1162 37.6202 11.3132 33.7112 10.1052 31.6842C7.62016 27.5152 5.19516 26.4792 -6.00784 24.8022C-19.2498 22.8192 -23.7068 19.1842 -24.7008 9.55822C-25.7128 -0.251785 -20.2678 -6.97378 -5.50784 -14.1318C14.0722 -23.6288 41.5752 -26.3828 54.4732 -20.1388C57.0152 -18.9078 59.7222 -16.9398 60.4882 -15.7658C62.9012 -12.0638 63.9462 -5.15978 62.9162 0.272217C61.1372 9.65121 56.1002 14.4322 43.8002 18.4142C39.7812 19.7162 37.1542 20.8012 37.9642 20.8252C41.4392 20.9312 53.0952 16.4102 56.4262 13.6642C63.2682 8.02422 66.4012 -2.02478 63.9962 -10.6168C62.4862 -16.0068 56.9362 -21.4728 51.3132 -23.1068C45.2692 -24.8628 30.2302 -25.1858 21.4922 -23.7478ZM148.476 -17.7528C135.657 -15.6518 127.05 -12.2878 121.653 -7.26978C114.166 -0.307783 113.197 12.2062 119.56 19.7682C124.436 25.5642 138.646 28.7492 160.492 28.9422C173.018 29.0532 178.988 30.5042 180.77 33.8702C181.717 35.6562 182.009 35.8292 181.793 34.4762C181.628 33.4342 180.305 31.6962 178.853 30.6142C176.6 28.9332 173.677 28.5142 158.853 27.7462C125.842 26.0342 117.006 21.8852 116.996 8.08821C116.991 1.37022 118.766 -2.84578 123.261 -6.79278C141.041 -22.4038 202.618 -20.5678 221.647 -3.85978C226.437 0.346218 227.992 3.84922 227.992 10.4342C227.992 21.4022 222.346 26.8282 206.424 31.1622C194.749 34.3402 191.522 36.0712 188.579 40.7322C187.258 42.8252 183.998 46.4742 181.335 48.8422C178.671 51.2102 177.392 52.6762 178.492 52.1012C181.391 50.5852 187.95 43.8192 189.605 40.6372C191.431 37.1252 195.268 35.1872 206.182 32.2662C220.836 28.3452 226.702 24.1762 228.948 16.0892C233.245 0.615219 221.356 -10.8278 194.992 -16.5918C184.824 -18.8148 158.904 -19.4618 148.476 -17.7528ZM283.625 -17.3448C283.358 -16.9138 282.848 -13.6508 282.491 -10.0948C282.021 -5.41578 282.134 -4.04378 282.901 -5.12978C283.484 -5.95478 283.968 -7.41778 283.977 -8.37978C283.985 -9.34178 284.667 -10.1298 285.492 -10.1298C286.317 -10.1298 286.992 -10.5798 286.992 -11.1298C286.992 -11.6798 286.395 -12.1298 285.665 -12.1298C284.76 -12.1298 284.478 -13.0828 284.779 -15.1298C285.199 -17.9938 284.663 -19.0238 283.625 -17.3448ZM309.095 -11.7978C308.488 -8.31578 308.006 -4.37778 308.022 -3.04778C308.048 -1.03878 308.214 -0.905785 309.004 -2.25879C310.059 -4.06379 311.596 -18.1298 310.738 -18.1298C310.441 -18.1298 309.701 -15.2808 309.095 -11.7978ZM270.563 -15.5588C267.388 -12.3828 269.214 -7.12978 273.492 -7.12978C276.366 -7.12978 277.992 -8.99678 277.992 -12.2948C277.992 -16.5288 273.505 -18.4998 270.563 -15.5588ZM50.1262 -11.1298C50.0692 -8.10478 50.4592 -4.95478 50.9922 -4.12978C52.1722 -2.30278 52.1722 -8.99078 50.9922 -13.6298C50.3542 -16.1358 50.2122 -15.7248 50.1262 -11.1298ZM276.294 -14.0158C277.794 -11.6338 276.408 -9.12978 273.591 -9.12978C270.68 -9.12978 269.182 -12.4488 271.067 -14.7208C272.568 -16.5288 274.911 -16.2128 276.294 -14.0158ZM290.475 -14.8798C290.226 -14.1918 289.902 -12.0548 289.757 -10.1298C289.512 -6.89278 289.717 -6.61178 292.492 -6.39578C295.318 -6.17478 295.356 -6.21878 293.154 -7.14578C291.071 -8.02278 290.89 -8.56678 291.492 -12.1298C292.127 -15.8858 291.478 -17.6408 290.475 -14.8798ZM301.694 -13.7968C301.332 -12.8538 300.234 -12.5518 298.422 -12.8988C296.531 -13.2598 295.912 -13.0688 296.402 -12.2748C296.792 -11.6448 297.983 -11.1298 299.051 -11.1298C302.08 -11.1298 301.329 -9.14678 298.242 -8.99378C295.884 -8.87678 295.813 -8.79578 297.742 -8.42378C298.98 -8.18578 299.992 -7.34678 299.992 -6.55978C299.992 -3.17478 301.825 -5.52778 302.453 -9.72178C303.14 -14.2958 302.73 -16.4948 301.694 -13.7968ZM41.9842 -10.1368C44.3532 -7.92478 44.9922 -6.48178 44.9922 -3.35078C44.9922 1.07322 43.1012 3.35722 40.2002 2.43622C36.5562 1.27922 34.3172 -6.93979 36.6772 -10.4958C37.1252 -11.1718 36.7052 -10.8658 35.7422 -9.81578C34.7792 -8.76678 33.9922 -6.81078 33.9922 -5.46978C33.9922 -0.693783 38.2622 4.87022 41.9262 4.87022C44.1542 4.87022 46.9922 0.805218 46.9882 -2.37978C46.9842 -6.41778 43.8942 -11.6608 41.0862 -12.3948C39.3142 -12.8588 39.4572 -12.4978 41.9842 -10.1368ZM23.0392 -7.23779C22.9972 -5.98178 26.8752 8.01222 27.4342 8.62422C27.5622 8.76422 29.4272 8.19622 31.5792 7.36422L35.4922 5.84922L31.8282 6.38922C28.4212 6.89122 28.1192 6.72422 27.5222 4.00722C26.6252 -0.0757828 23.0962 -8.92879 23.0392 -7.23779ZM269.742 -5.55779C268.169 -3.96078 269.036 -1.15878 271.242 -0.711784C276.826 0.419216 285.091 0.840218 284.551 -0.0347824C284.232 -0.550783 281.075 -1.28279 277.537 -1.66179C272.173 -2.23679 271.051 -2.68078 270.797 -4.33578C270.629 -5.42678 270.155 -5.97679 269.742 -5.55779ZM6.29116 -4.02378C4.53116 -3.51478 2.89416 -2.76778 2.65516 -2.36378C2.41516 -1.95979 3.18016 1.74522 4.35516 5.87022C6.45116 13.2272 6.54916 13.3632 9.49216 13.0222C11.1422 12.8302 13.1672 12.2392 13.9922 11.7082C15.0232 11.0452 14.1622 10.9232 11.2422 11.3182C7.95516 11.7632 6.99216 11.5702 6.99216 10.4642C6.99216 9.67722 6.71916 8.32222 6.38516 7.45222C5.99316 6.42922 6.32516 5.87022 7.32616 5.87022C8.17716 5.87022 9.19316 5.35422 9.58216 4.72422C10.0812 3.91822 9.50616 3.77522 7.64116 4.24322C5.82116 4.70022 4.98816 4.51122 4.97816 3.63922C4.97116 2.94122 4.69316 1.35722 4.36216 0.120216C3.88916 -1.64278 4.17516 -2.12978 5.68416 -2.12978C6.74316 -2.12978 8.48316 -2.79078 9.55116 -3.59778C11.7452 -5.25778 10.9282 -5.36478 6.29116 -4.02378ZM14.0062 1.43922C15.0932 5.25122 16.1952 8.93322 16.4562 9.62022C17.0672 11.2332 19.7162 11.1422 23.4922 9.38021L26.4922 7.98022L22.4022 8.52722L18.3122 9.07421L15.9972 2.72222C12.7682 -6.13578 11.6382 -6.86378 14.0062 1.43922ZM289.294 -2.47379C288.313 0.0812149 292.625 3.03222 296.813 2.67022C301.324 2.28122 303.344 -0.614782 300.551 -2.68878C297.782 -4.74378 290.109 -4.59779 289.294 -2.47379ZM298.41 -2.52279C301.229 -1.44078 300.218 0.870216 296.926 0.870216C293.288 0.870216 289.695 -0.840782 290.523 -2.17978C291.181 -3.24378 295.986 -3.45279 298.41 -2.52279ZM128.57 -0.255783C128.272 0.225216 127.731 3.82522 127.367 7.74422L126.705 14.8702H129.825C133.728 14.8702 136.997 10.7862 135.011 8.39322C134.039 7.22221 134.117 6.60322 135.393 5.32622C137.282 3.43722 137.298 3.31021 135.957 0.804214C134.888 -1.19179 129.616 -1.94778 128.57 -0.255783ZM140.065 1.50521C137.241 5.09422 137.239 11.8792 140.06 14.4322C141.943 16.1352 142.367 16.1702 144.779 14.8162C149.32 12.2682 150.234 4.25521 146.419 0.440216C144.177 -1.80178 142.436 -1.50978 140.065 1.50521ZM150.593 3.10122C149.456 12.3152 149.378 13.7492 150.041 13.3402C150.419 13.1062 151.052 10.5422 151.447 7.64222L152.166 2.37022L155.672 9.27822C159.793 17.3962 161.011 16.8312 160.868 6.87022L160.774 0.370216L159.633 6.28122L158.492 12.1922L155.521 5.95322C153.887 2.52222 152.228 -0.483784 151.835 -0.726784C151.442 -0.969784 150.883 0.753216 150.593 3.10122ZM-2.74684 3.36922C-1.52984 7.33522 -1.54084 7.35722 -5.18084 8.22922C-7.58684 8.80622 -7.97684 8.49622 -9.09384 5.12022C-9.77584 3.05722 -10.5228 1.93122 -10.7538 2.61722C-11.1858 3.90422 -7.20784 16.8702 -6.38084 16.8702C-6.12584 16.8702 -6.20084 15.3582 -6.54784 13.5092C-7.09784 10.5742 -6.88184 10.0682 -4.84284 9.52322C-1.34784 8.58722 -1.19184 8.64922 0.420162 11.6202C2.54416 15.5362 2.33216 13.2652 -0.0998383 6.06422C-2.27484 -0.375784 -4.63284 -2.77778 -2.74684 3.36922ZM50.5352 0.801216C49.8522 1.90622 51.4292 3.10022 52.3532 2.17622C53.3032 1.22522 53.1262 -0.129784 52.0512 -0.129784C51.5332 -0.129784 50.8512 0.289215 50.5352 0.801216ZM134.806 2.12522C135.016 3.22522 134.274 4.21222 132.816 4.77022C129.911 5.88422 128.884 5.00022 129.655 2.05022C130.371 -0.686783 134.281 -0.630783 134.806 2.12522ZM145.792 1.07022C146.452 1.73022 146.992 4.15022 146.992 6.44822C146.992 14.4732 140.787 15.1052 140.191 7.14122C139.781 1.67122 142.954 -1.76778 145.792 1.07022ZM166.768 0.595215L170.044 1.00122L169.376 6.18521C168.115 15.9692 166.291 18.1462 163.564 13.1202C162.5 11.1592 162.061 10.8722 162.032 12.1202C161.977 14.5182 165.608 17.9552 167.45 17.2482C169.191 16.5802 170.978 10.8852 170.986 5.98022C170.99 3.93022 171.683 2.06622 172.742 1.26221C174.26 0.110214 173.762 -0.0487823 168.992 0.0622177C165.476 0.144218 164.674 0.336216 166.768 0.595215ZM179.221 0.539215C177.353 1.29121 174.992 6.34822 174.992 9.59822C174.992 17.6722 183.683 19.4282 186.238 11.8702C186.562 10.9132 187.015 11.4562 187.489 13.3702C188.398 17.0402 190.452 18.8242 193.001 18.1572C195.789 17.4282 199.017 10.0662 198.856 4.80421C198.781 2.36522 198.545 1.49522 198.332 2.87022C197.393 8.93521 195.612 13.9042 193.786 15.5572C191.886 17.2762 191.755 17.2692 190.312 15.3572C189.173 13.8482 188.941 11.6862 189.348 6.37022C189.684 1.96622 189.558 0.112217 189.008 1.37022C188.526 2.47021 188.081 4.72021 188.018 6.37022C187.906 9.32822 187.885 9.31622 186.514 5.47021C184.722 0.441216 182.761 -0.884785 179.221 0.539215ZM202.347 1.10522C201.219 2.92922 199.208 17.8552 200.17 17.2602C200.622 16.9812 200.992 15.6542 200.992 14.3112C200.992 11.0782 202.062 11.2342 204.463 14.8182C205.548 16.4362 206.596 17.5992 206.793 17.4022C206.99 17.2052 206.353 15.8252 205.378 14.3362C203.626 11.6622 203.637 11.6042 206.298 9.66622C209.608 7.25422 209.82 3.56322 206.769 1.42722C204.086 -0.452784 203.343 -0.506783 202.347 1.10522ZM213.223 4.66922C211.53 11.9562 211.806 15.5792 213.618 9.87022C214.404 7.39522 214.913 4.02022 214.75 2.37022C214.498 -0.175783 214.267 0.171215 213.223 4.66922ZM183.792 2.07022C185.393 3.67122 185.324 11.0342 183.686 13.2742C182.883 14.3722 181.438 14.9272 179.936 14.7152C177.833 14.4182 177.449 13.7662 177.181 10.0382C176.701 3.36922 180.506 -1.21578 183.792 2.07022ZM206.939 3.30622C208.524 5.21622 206.627 8.87022 204.05 8.87022C202.228 8.87022 202.133 7.78322 203.55 3.12022C204.054 1.46022 205.471 1.53822 206.939 3.30622ZM306.184 2.94522C306.381 3.53622 306.97 4.02022 307.492 4.02022C308.014 4.02022 308.603 3.53622 308.8 2.94522C308.997 2.35422 308.409 1.87022 307.492 1.87022C306.575 1.87022 305.987 2.35422 306.184 2.94522ZM133.813 10.2222C134.004 11.1902 133.092 12.3232 131.559 13.0212C128.335 14.4902 127.819 13.9832 128.595 10.1032C129.125 7.45422 129.516 7.12822 131.352 7.80622C132.529 8.24022 133.637 9.32722 133.813 10.2222ZM307.242 12.8592C302.727 15.6122 303.149 16.2852 307.742 13.6562C312.362 11.0112 312.548 10.8692 311.409 10.8742C310.905 10.8762 309.03 11.7692 307.242 12.8592ZM276.742 12.5322C277.43 12.8102 278.555 12.8102 279.242 12.5322C279.93 12.2552 279.367 12.0282 277.992 12.0282C276.617 12.0282 276.055 12.2552 276.742 12.5322ZM283.715 14.8432C286.942 16.8102 287.64 18.3322 288.312 24.8702C288.599 27.6612 288.704 27.3922 288.832 23.5432C288.968 19.4282 288.561 18.2852 286.069 15.7932C284.461 14.1852 282.549 12.8722 281.819 12.8742C281.089 12.8762 281.942 13.7622 283.715 14.8432ZM210.535 16.8012C209.852 17.9062 211.429 19.1002 212.353 18.1762C213.303 17.2252 213.126 15.8702 212.051 15.8702C211.533 15.8702 210.851 16.2892 210.535 16.8012ZM299.492 20.8702C298.639 22.5202 298.166 23.8702 298.441 23.8702C298.716 23.8702 299.639 22.5202 300.492 20.8702C301.345 19.2202 301.818 17.8702 301.543 17.8702C301.268 17.8702 300.345 19.2202 299.492 20.8702ZM31.0132 21.9862C28.0722 23.1592 24.9922 25.7942 24.9922 27.1362C24.9922 27.6612 25.7792 27.1452 26.7422 25.9892C27.7052 24.8332 30.2922 23.2392 32.4922 22.4492C34.6922 21.6582 35.8172 21.0082 34.9922 21.0042C34.1672 21.0002 32.3762 21.4422 31.0132 21.9862ZM24.2442 32.3702C24.2552 34.5702 24.4602 35.3522 24.6992 34.1082C24.9382 32.8642 24.9292 31.0642 24.6792 30.1082C24.4292 29.1522 24.2332 30.1702 24.2442 32.3702ZM290.938 32.6202L287.492 36.3702L291.242 32.9242C293.305 31.0282 294.992 29.3412 294.992 29.1742C294.992 28.4102 294.146 29.1302 290.938 32.6202ZM285.616 33.4092C284.651 35.9232 284.935 36.5722 286.114 34.5452C286.698 33.5412 286.965 32.5092 286.707 32.2522C286.45 31.9942 285.958 32.5152 285.616 33.4092ZM180.752 39.4722C180.394 41.1782 178.434 44.7782 176.395 47.4722C174.357 50.1662 173.704 51.4712 174.944 50.3712C178.148 47.5312 182.218 40.2512 181.776 38.1482C181.531 36.9802 181.18 37.4342 180.752 39.4722ZM25.9922 40.2432C25.9922 41.3232 29.9642 48.8702 30.5332 48.8702C30.8082 48.8702 30.0682 46.9582 28.8892 44.6202C26.5712 40.0232 25.9922 39.1482 25.9922 40.2432ZM23.9922 47.4192C23.9922 48.1522 30.1142 50.9962 31.0142 50.6812C31.5012 50.5102 30.1202 49.6162 27.9462 48.6942C25.7712 47.7732 23.9922 47.1992 23.9922 47.4192ZM250.326 48.1552C247.072 49.9802 244.442 53.7722 240.634 62.1272C238.374 67.0872 236.477 69.8992 235.094 70.3372C233.938 70.7042 232.992 71.3702 232.992 71.8162C232.992 73.3102 238.97 75.1242 241.937 74.5312C244.642 73.9902 244.902 74.1952 245.271 77.1572C245.669 80.3502 245.673 80.3472 245.832 76.7092C245.947 74.0812 246.768 72.3792 248.742 70.6752C250.254 69.3702 252.842 65.7052 254.492 62.5302C257.566 56.6152 259.992 53.6232 259.992 55.7482C259.992 56.3652 260.892 56.8702 261.992 56.8702C263.772 56.8702 263.992 57.5372 263.992 62.9292C263.992 66.7142 263.617 68.7562 262.992 68.3702C262.442 68.0302 261.992 68.2292 261.992 68.8112C261.992 69.3932 262.442 69.8702 262.992 69.8702C263.542 69.8702 263.992 70.9702 263.992 72.3142C263.992 73.6592 265.028 75.9632 266.295 77.4352C268.275 79.7382 269.423 80.1302 274.51 80.2412C279.958 80.3602 280.524 80.1642 281.701 77.7482C283.672 73.7022 285.674 72.3622 287.492 73.8702C289.549 75.5772 289.454 75.9712 285.657 81.5082C283.822 84.1822 282.021 87.5762 281.655 89.0512C280.923 91.9942 282.469 97.2282 283.914 96.7012C285.31 96.1932 291.623 87.0372 294.983 80.6492C299.879 71.3402 298.661 63.2732 291.193 55.5352C284.21 48.3002 277.157 46.2002 266.925 48.3082C261.749 49.3752 260.246 49.3632 258.09 48.2382C254.925 46.5872 253.157 46.5682 250.326 48.1552ZM170.55 54.7772C170.241 55.2752 170.89 55.4482 171.991 55.1602C174.326 54.5492 174.621 53.8702 172.551 53.8702C171.758 53.8702 170.858 54.2782 170.55 54.7772ZM138.366 56.5592C134.815 57.2562 132.287 60.9212 128.495 70.8702C125.001 80.0392 121.039 85.8702 118.305 85.8702C117.583 85.8702 116.992 86.3202 116.992 86.8702C116.992 88.6862 118.638 87.9162 122.248 84.4102C124.699 82.0302 126.835 78.2362 129.09 72.2632C133.153 61.4982 136.004 57.8572 140.331 57.9052C142.07 57.9252 144.577 58.5422 145.904 59.2772C147.532 60.1792 150.376 60.4482 154.652 60.1052C168.994 58.9542 178.233 67.7442 176.658 81.0442C175.298 92.5212 164.423 104.709 160.143 99.5522C158.822 97.9612 161.274 93.8702 163.549 93.8702C165.667 93.8702 168.992 90.1852 168.992 87.8392C168.992 84.8862 166.382 84.3452 162.422 86.4772C157.539 89.1072 155.656 87.6772 154.905 80.7682L154.318 75.3702L154.155 80.4652C153.912 88.0492 158.317 91.1322 163.854 87.2542C165.414 86.1612 166.489 85.9672 167.176 86.6542C168.986 88.4642 167.018 91.7062 163.377 92.9082C158.946 94.3702 156.963 98.0622 159.236 100.616C160.68 102.238 160.294 102.922 154.113 109.693L147.429 117.015L144.527 110.943C141.443 104.49 140.503 103.829 138.384 106.62C136.309 109.353 136.728 111.371 140.355 116.123L143.719 120.529L141.009 123.849C138.388 127.061 138.13 127.146 133.061 126.474C127.315 125.711 118.477 122.684 115.432 120.436C113.611 119.091 113.855 118.842 119.408 116.376C122.662 114.93 127.837 113.138 130.908 112.392C133.979 111.647 135.574 110.999 134.452 110.953C131.28 110.824 121.37 113.636 116.819 115.958C107.655 120.633 99.1392 131.238 97.4902 140.029L96.8242 143.577L91.8492 138.731C83.4912 130.59 73.8172 124.789 60.9922 120.229C56.6462 118.684 54.5382 117.413 54.6312 116.394C54.8412 114.091 54.0592 114.564 52.9852 117.388C51.2982 121.824 43.6512 123.361 40.5132 119.894C39.5302 118.807 38.3752 118.133 37.9492 118.397C36.5292 119.274 33.9502 117.666 32.5022 115.001C31.5652 113.277 31.0582 112.931 31.0322 113.998C31.0102 114.893 31.6672 116.185 32.4922 116.87C34.4262 118.475 34.4262 120.87 32.4922 120.87C30.6282 120.87 30.5992 123.567 32.3802 131.136L33.7372 136.903L21.1152 146.737C5.78916 158.678 -15.0008 175.944 -17.0278 178.414C-17.8418 179.406 -13.7828 176.272 -8.00784 171.449C-2.23284 166.626 9.80516 157.007 18.7422 150.074C27.6802 143.14 34.9762 136.995 34.9562 136.419C34.9372 135.842 34.2692 132.67 33.4722 129.37C31.7512 122.241 31.7232 121.87 32.9092 121.87C33.4132 121.87 34.5322 123.782 35.3962 126.12L36.9662 130.37L36.4912 124.87L36.0152 119.37L37.9922 124.37L39.9702 129.37L39.4932 124.87L39.0172 120.37L40.9782 124.37C42.0572 126.57 42.9512 129.131 42.9662 130.061C43.0132 133.123 44.8782 132.991 46.5232 129.81C47.4122 128.091 48.3192 126.864 48.5392 127.083C49.4992 128.044 46.5852 135.605 44.3322 137.994C42.6172 139.814 40.5212 145.18 37.4972 155.494C25.7872 195.431 15.0332 208.845 -5.28984 208.864C-14.5568 208.873 -22.2438 204.543 -25.0698 197.72C-25.7338 196.117 -26.4748 195.003 -26.7158 195.245C-28.4118 196.941 -19.4968 206.997 -14.6928 208.809C-10.5138 210.384 0.978165 210.094 6.30816 208.278C19.7902 203.684 29.9742 186.731 39.0932 153.7C41.1322 146.312 43.0482 141.484 44.5972 139.825C47.8902 136.298 50.6322 128.103 49.0422 126.541C48.1282 125.643 47.4222 125.893 46.0162 127.613L44.1832 129.856L43.0872 126.714C42.4852 124.986 41.9922 123.414 41.9922 123.221C41.9922 123.028 43.5062 122.87 45.3572 122.87C47.2162 122.87 49.8682 121.968 51.2822 120.856C53.7372 118.926 54.0412 118.909 58.6672 120.459C78.7312 127.179 96.0491 141.301 103.744 157.218C109.815 169.778 110.05 173.145 104.842 173.007C96.7592 172.793 90.5652 172.049 90.3912 171.272C89.4972 167.281 84.7832 152.746 84.4802 153.048C84.2702 153.259 85.1992 157.219 86.5452 161.849C89.6562 172.552 89.6332 173.498 86.2422 174.319C81.7742 175.401 73.2172 181.576 69.9642 186.068C65.2752 192.54 63.6322 199.615 64.3332 210.31C64.6592 215.293 65.1912 220.495 65.5152 221.87C66.0402 224.099 65.5972 224.576 61.4242 226.27C54.2522 229.183 44.8742 238.542 41.3982 246.257C38.8062 252.009 38.1192 252.777 35.0342 253.372C28.3512 254.66 19.0972 259.669 14.0202 264.747C8.64616 270.121 7.51516 270.261 11.3372 265.08C15.6042 259.296 21.7472 255.542 31.2852 252.89C36.7452 251.372 37.2092 250.995 39.3732 246.325L41.6692 241.37L24.8762 241.72C2.34916 242.189 -12.6148 240.106 -25.0098 234.774C-28.5028 233.271 -30.0418 231.963 -30.5878 230.034C-31.0028 228.569 -31.6588 216.795 -32.0468 203.87L-32.7508 180.37L-32.6298 205.516C-32.4938 233.584 -32.5208 233.47 -25.2498 236.1L-21.7778 237.355L-22.4018 242.862C-22.7448 245.892 -23.2818 258.72 -23.5968 271.37L-24.1678 294.37L-21.7018 289.268C-18.5228 282.688 -12.9908 277.206 -6.59384 274.295C-1.07784 271.786 9.73316 269.861 8.67216 271.578C8.33016 272.132 5.78816 272.852 3.02216 273.18C-3.01284 273.895 -9.35184 276.577 -13.7068 280.258C-18.3448 284.179 -22.2688 292.793 -22.3628 299.261C-22.5818 314.469 -7.58984 317.629 11.1342 306.319C15.2792 303.815 15.7472 303.118 16.8402 297.826C19.4202 285.336 29.6022 270.249 41.4922 261.299C50.1142 254.81 63.9162 248.334 75.7072 245.248L85.9212 242.574L89.9322 246.196C92.1372 248.189 95.1051 250.111 96.5262 250.468C101.401 251.691 107.928 250.256 111.86 247.096L115.599 244.092L122.707 246.346C139.279 251.6 153.888 263.469 161.378 277.763L165.251 285.156L166.522 281.461C170.294 270.488 183.928 258.929 202.174 251.234C209.628 248.09 210.007 248.03 210.976 249.84C212.33 252.371 217.433 255.918 221.877 257.419C224.636 258.351 226.11 259.792 228.104 263.505C230.081 267.189 231.361 268.447 233.372 268.688C235.653 268.961 236.306 268.395 237.988 264.688C239.066 262.313 239.958 259.752 239.97 258.996C239.982 258.24 241.972 255.879 244.392 253.75C246.91 251.532 249.582 247.931 250.642 245.326L252.492 240.774L257.492 241.434C274.262 243.649 291.743 250.378 300.303 257.913C307.234 264.013 314.166 279.091 316.374 292.864C318.531 306.323 321.954 301.889 321.983 285.599C321.991 281.484 322.336 280.67 324.492 279.688C327.12 278.491 327.647 276.383 325.946 273.87C325.197 272.762 325.087 273.154 325.528 275.37L326.125 278.37L323.47 275.37C321.594 273.251 321.134 273.011 321.903 274.554C323.404 277.565 323.266 278.342 321.492 276.87C320.667 276.185 319.956 274.893 319.913 273.998C319.859 272.875 319.672 272.776 319.31 273.678C318.649 275.329 321.911 279.038 323.28 278.192C323.865 277.83 323.996 278.054 323.587 278.715C322.465 280.532 321.064 280.096 317.915 276.947C315.335 274.366 314.992 273.321 314.992 268.03C314.992 264.124 314.557 261.892 313.742 261.621C312.836 261.319 312.337 256.417 311.927 243.788C311.616 234.208 311.279 227.333 311.177 228.511C310.928 231.389 308.296 231.748 281.875 232.506L260.257 233.126L259.661 228.748C258.567 220.705 258.663 208.416 259.854 204.19C260.837 200.701 260.76 199.331 259.392 195.912C257.93 192.258 257.877 189.943 258.9 174.489C259.911 159.217 260.659 152.718 263.574 133.87C263.957 131.395 263.989 129.626 263.645 129.939C262.221 131.236 258.951 155.081 257.838 172.282L256.644 190.728L251.568 186.42C242.895 179.06 232.338 173.46 222.308 170.897C218.173 169.841 218.131 169.786 218.711 166.099C219.033 164.048 220.097 159.451 221.076 155.884C222.054 152.317 222.706 149.251 222.526 149.071C221.989 148.534 218.1 161.031 217.41 165.51C216.948 168.506 216.132 169.941 214.456 170.704C213.183 171.284 210.87 173.922 209.317 176.565L206.492 181.37L205.905 175.87L205.318 170.37L205.155 177.453C205.065 181.349 204.708 184.821 204.361 185.168C202.84 186.688 200.215 183.662 199.578 179.656C199.203 177.299 198.653 174.392 198.355 173.196C197.883 171.301 198.363 170.914 202.102 170.175L206.39 169.327L207.637 160.684C211.828 131.654 223.464 117.191 249.834 108.234C255.146 106.43 260.197 104.935 261.058 104.912C261.919 104.889 263.62 106.643 264.838 108.81L267.053 112.75L262.684 115.31C257.37 118.425 257.239 118.431 256.698 115.62C256.384 113.993 256.227 114.27 256.128 116.62C255.965 120.504 256.268 120.546 261.77 117.4C265.71 115.147 268.992 114.92 268.992 116.9C268.992 118.056 274.001 123.87 274.996 123.87C275.934 123.87 281.497 116.349 284.981 110.37C288.106 105.007 286.37 106.896 280.615 115.12C278.017 118.833 275.48 121.87 274.978 121.87C273.909 121.87 268.986 114.881 269.004 113.388C269.01 112.828 271.598 110.915 274.754 109.137C281.237 105.483 284.992 102.52 284.992 101.058C284.992 100.513 283.701 101.261 282.122 102.719C280.544 104.177 276.757 106.704 273.706 108.335L268.16 111.299L266.064 108.835C264.911 107.479 263.692 105.132 263.355 103.62C262.832 101.275 262.238 100.87 259.317 100.87C252.197 100.87 247.481 96.3372 245.931 88.0032L245.07 83.3702L245.421 88.2342C245.968 95.8172 251.344 101.637 258.24 102.112C260.301 102.254 261.985 102.595 261.982 102.87C261.979 103.145 258.277 104.401 253.755 105.661C236.994 110.33 224.53 118.086 217.586 128.169L213.716 133.789L210.922 129.932C205.663 122.672 194.47 116.245 182.295 113.496C171.999 111.17 171.052 111.624 180.683 114.266C185.189 115.502 190.749 117.359 193.04 118.391C196.579 119.987 196.925 120.393 195.348 121.09C193.915 121.724 194.055 121.801 195.961 121.427C199.279 120.776 206.955 125.766 210.496 130.876L213.23 134.82L210.25 144.053C207.775 151.723 206.867 153.391 204.882 153.911C197.124 155.941 133.641 155.614 121.304 153.48C116.137 152.587 110.175 152.157 107.683 152.499C103.332 153.095 103.196 153.027 100.281 148.738C97.4212 144.533 97.3572 144.193 98.5482 139.618C100.078 133.744 105.236 125.549 109.402 122.371L112.532 119.983L118.594 122.987C121.927 124.64 127.692 126.512 131.404 127.148L138.154 128.304L137.528 132.482C137.183 134.779 137.193 137.823 137.55 139.245C138.095 141.417 138.502 141.668 140.098 140.813C141.142 140.254 143.252 137.315 144.786 134.282L147.574 128.767L150.828 132.816C152.618 135.043 155.412 137.553 157.037 138.393C159.924 139.886 159.992 139.864 159.992 137.461C159.992 136.107 159.529 133.783 158.964 132.296C158.399 130.809 158.167 129.361 158.45 129.079C158.732 128.796 163.132 128.023 168.228 127.361C178.984 125.962 193.335 122.88 192.585 122.129C192.301 121.845 190.095 122.11 187.682 122.718C181.697 124.225 163.786 126.87 159.567 126.87C156.918 126.87 155.656 126.207 154.074 123.985L152.02 121.101L155.186 119.79C156.927 119.068 160.256 117.025 162.582 115.249C164.909 113.473 168.09 111.829 169.652 111.595C172.315 111.196 172.336 111.157 169.992 110.974C168.096 110.826 166.984 109.702 165.39 106.324C164.233 103.874 163.655 101.87 164.105 101.87C164.555 101.87 166.546 100.445 168.53 98.7032C173.486 94.3512 176.426 95.4072 180.492 102.998C182.142 106.078 184.134 109.364 184.919 110.3C186.725 112.453 191.992 115.221 191.992 114.017C191.992 113.52 190.728 112.589 189.183 111.949C186.528 110.849 184.521 108.255 181.014 101.39C180.177 99.7512 178.136 97.5012 176.478 96.3902L173.465 94.3702L175.698 88.8702C179.574 79.3222 178.184 68.9682 172.312 63.6582C168.648 60.3452 162.727 58.6262 155.271 58.7102C151.017 58.7582 146.612 58.1922 144.553 57.3312C142.63 56.5272 140.929 55.9312 140.774 56.0062C140.619 56.0812 139.535 56.3302 138.366 56.5592ZM36.2082 58.7612C29.6302 61.0332 26.3922 63.9612 23.3692 70.3702C20.7892 75.8432 20.1882 84.6062 22.0532 89.5552C23.2092 92.6202 27.8902 97.8902 32.2422 101.025L34.9922 103.006V100.473C34.9922 99.0702 33.6192 96.3762 31.9152 94.4352C28.6652 90.7332 28.5802 87.6262 31.6972 86.4302C33.7372 85.6472 35.1842 87.0502 36.5812 91.1642C37.6992 94.4572 40.7162 96.0542 41.3592 93.6942C43.9312 84.2492 43.9612 81.5452 41.5792 74.1202C40.8862 71.9602 41.0922 71.8702 46.7432 71.8702C49.9802 71.8702 55.0732 71.1142 58.0602 70.1892C61.0482 69.2652 63.8492 68.5962 64.2852 68.7032C65.6262 69.0332 63.3192 65.5172 60.3282 62.6732C54.1692 56.8162 45.7772 55.4552 36.2082 58.7612ZM139.833 63.3942C138.371 64.1882 136.225 66.3752 135.064 68.2532C132.474 72.4442 128.992 82.3492 128.992 85.5272C128.992 86.8152 128.43 87.8772 127.742 87.8852C126.968 87.8952 126.873 88.1802 127.492 88.6352C128.515 89.3872 128.583 89.6982 128.842 94.8542C128.93 96.6102 130.124 98.9972 131.742 100.652C133.254 102.2 133.62 102.426 132.555 101.154C126.122 93.4772 132.796 67.4672 142.254 63.3562C144.035 62.5822 144.817 61.9492 143.992 61.9492C143.167 61.9502 141.296 62.6002 139.833 63.3942ZM148.992 62.2482C148.992 62.4552 149.779 63.2432 150.742 63.9982C152.328 65.2412 152.363 65.2062 151.12 63.6202C149.813 61.9542 148.992 61.4252 148.992 62.2482ZM153.15 69.8702C153.15 71.2452 153.377 71.8082 153.654 71.1202C153.932 70.4332 153.932 69.3082 153.654 68.6202C153.377 67.9332 153.15 68.4952 153.15 69.8702ZM65.5692 71.3702C67.9602 78.1602 68.9912 84.3382 68.9862 91.8382C68.9772 105.75 66.7552 110.788 59.4922 113.364C56.4702 114.435 56.0742 114.793 57.8742 114.826C61.8642 114.9 66.6432 111.198 68.4942 106.601C72.2182 97.3502 71.2012 80.2752 66.4382 72.0782C65.5732 70.5892 65.1822 70.2702 65.5692 71.3702ZM248.438 74.9572C248.069 75.5552 248.267 76.5452 248.879 77.1572C249.696 77.9742 249.992 77.6852 249.992 76.0702C249.992 73.6552 249.473 73.2832 248.438 74.9572ZM262.071 76.4532C262.119 77.6182 262.356 77.8552 262.675 77.0582C262.964 76.3362 262.928 75.4732 262.596 75.1412C262.264 74.8092 262.028 75.3992 262.071 76.4532ZM253.492 78.8702C253.112 80.5992 253.01 82.2212 253.265 82.4762C253.52 82.7312 254.016 81.5022 254.367 79.7452C255.201 75.5772 254.393 74.7692 253.492 78.8702ZM133.575 77.7362C133.144 78.4332 133.062 79.2732 133.392 79.6032C134.287 80.4982 135.263 79.1822 134.779 77.7322C134.441 76.7162 134.205 76.7162 133.575 77.7362ZM51.4352 79.2882C50.3682 80.0682 49.7262 80.9372 50.0092 81.2202C50.2912 81.5022 51.6402 80.8742 53.0072 79.8242C55.8532 77.6372 54.3802 77.1352 51.4352 79.2882ZM64.5492 79.2882C65.6162 80.0682 66.7022 80.4942 66.9612 80.2342C67.5122 79.6842 64.9332 77.9082 63.5512 77.8852C63.0332 77.8772 63.4832 78.5082 64.5492 79.2882ZM136.59 82.0332C135.057 84.2222 135.281 85.8702 137.11 85.8702C137.66 85.8702 137.838 85.4292 137.505 84.8912C137.172 84.3522 137.386 83.0022 137.981 81.8912C139.415 79.2112 138.501 79.3052 136.59 82.0332ZM145.992 81.4292C145.992 82.2862 146.442 82.7102 146.992 82.3702C147.542 82.0302 147.992 81.3292 147.992 80.8112C147.992 80.2932 147.542 79.8702 146.992 79.8702C146.442 79.8702 145.992 80.5722 145.992 81.4292ZM53.0712 87.4532C53.1192 88.6182 53.3562 88.8552 53.6752 88.0582C53.9642 87.3362 53.9282 86.4732 53.5962 86.1412C53.2642 85.8092 53.0282 86.3992 53.0712 87.4532ZM62.6512 87.8702C63.0602 89.2452 63.4162 91.3402 63.4432 92.5252C63.4702 93.7092 63.8302 94.4702 64.2422 94.2152C65.4302 93.4812 65.0532 90.5902 63.4152 87.8702L61.9092 85.3702L62.6512 87.8702ZM65.9922 87.4292C65.9922 88.2862 66.4492 88.7052 67.0082 88.3602C67.5672 88.0142 67.7662 87.3132 67.4492 86.8012C66.5922 85.4142 65.9922 85.6722 65.9922 87.4292ZM257.492 88.9782C253.731 89.5502 253.686 89.5952 256.742 89.7282C259.988 89.8702 261.105 91.2542 258.742 92.2082C257.957 92.5252 257.911 92.7412 258.62 92.7912C259.984 92.8872 262.318 90.2482 261.837 89.1542C261.647 88.7232 259.692 88.6442 257.492 88.9782ZM140.492 91.8702C138.573 92.6952 138.582 92.7322 140.711 92.8002C142.358 92.8522 142.784 93.3212 142.366 94.6202C141.891 96.0972 141.972 96.1362 142.882 94.8702C144.129 93.1372 144.34 90.8372 143.242 90.9402C142.83 90.9792 141.592 91.3972 140.492 91.8702ZM51.9922 100.108C51.9922 101.689 55.0882 104.889 56.5712 104.84C57.0772 104.823 56.7052 104.351 55.7422 103.79C53.7002 102.601 53.3582 100.413 55.3332 101.17C56.0702 101.453 57.3082 101.283 58.0832 100.793C59.1612 100.11 58.9832 99.8972 57.3242 99.8852C56.1312 99.8772 54.4442 99.5972 53.5742 99.2632C52.5792 98.8812 51.9922 99.1952 51.9922 100.108ZM288.992 103.87C289.817 104.403 290.942 104.839 291.492 104.839C292.042 104.839 291.817 104.403 290.992 103.87C290.167 103.337 289.042 102.901 288.492 102.901C287.942 102.901 288.167 103.337 288.992 103.87ZM33.1082 106.968C32.4942 108.728 32.0242 110.664 32.0622 111.269C32.1012 111.875 32.7782 110.609 33.5662 108.457C34.3552 106.305 34.8252 104.37 34.6122 104.156C34.3982 103.943 33.7212 105.208 33.1082 106.968ZM296.992 107.37C299.467 108.695 301.942 109.78 302.492 109.78C303.042 109.78 301.467 108.695 298.992 107.37C296.517 106.045 294.042 104.96 293.492 104.96C292.942 104.96 294.517 106.045 296.992 107.37ZM257.15 109.87C257.15 111.245 257.377 111.808 257.654 111.12C257.932 110.433 257.932 109.308 257.654 108.62C257.377 107.933 257.15 108.495 257.15 109.87ZM303.992 110.324C303.992 110.602 305.68 111.697 307.742 112.758C309.805 113.819 313.482 116.137 315.915 117.91L320.338 121.133L317.415 122.616C312.568 125.076 307.25 130.853 304.852 136.263C301.759 143.239 301.18 160.025 303.425 177.561C305.616 194.678 310.787 226.927 310.901 224.189C310.951 222.99 309.342 210.84 307.325 197.189C304.402 177.406 303.641 169.225 303.575 156.87C303.501 143.138 303.731 140.857 305.584 136.87C308.431 130.744 312.474 126.175 317.162 123.783L321.081 121.784L326.455 127.288C337.563 138.666 342.436 156.158 342.357 184.37C342.311 200.71 340.998 210.987 336.883 227.236C335.787 231.562 335.079 235.29 335.309 235.52C335.844 236.056 340.389 217.681 342.148 207.87C342.971 203.278 343.464 193.39 343.419 182.37C343.337 162.481 341.27 149.525 336.522 139.154C332.451 130.262 318.95 117.506 307.242 111.489C305.454 110.57 303.992 110.046 303.992 110.324ZM20.8052 115.553C21.5262 115.842 22.3892 115.806 22.7212 115.474C23.0532 115.142 22.4632 114.906 21.4092 114.949C20.2442 114.997 20.0072 115.234 20.8052 115.553ZM14.4922 116.87C13.2312 117.412 13.0472 117.729 13.9922 117.729C14.8172 117.729 16.3922 117.343 17.4922 116.87C18.7532 116.328 18.9372 116.011 17.9922 116.011C17.1672 116.011 15.5922 116.397 14.4922 116.87ZM2.47016 121.212C-13.2758 127.699 -26.2948 138.441 -31.3428 149.112C-33.9428 154.609 -35.9868 164.264 -35.9998 171.12C-36.0068 174.605 -35.7998 174.87 -33.0678 174.87C-30.4078 174.87 -30.0908 175.226 -29.7358 178.62L-29.3438 182.37L-29.1758 178.664L-29.0078 174.958L-21.7578 174.613C-15.5318 174.316 -15.9558 174.239 -24.7578 174.069L-35.0078 173.87L-34.9908 170.12C-34.9618 163.868 -32.2588 153.102 -29.3988 147.848C-23.8638 137.677 -11.1708 127.661 3.66816 121.754C7.97116 120.041 11.6802 118.467 11.9092 118.255C13.0762 117.177 9.68516 118.239 2.47016 121.212ZM264.548 124.426C264.171 126.432 264.063 128.274 264.307 128.519C264.552 128.763 265.06 127.321 265.436 125.314C265.813 123.308 265.921 121.466 265.677 121.221C265.432 120.977 264.924 122.419 264.548 124.426ZM233.492 147.29C234.042 147.527 237.431 148.004 241.024 148.351C250.318 149.249 250.408 149.357 248.089 156.806C245.345 165.621 242.98 167.87 236.453 167.87C229.687 167.87 226.439 165.438 225.432 159.616C225.027 157.281 224.512 155.899 224.286 156.546C223.464 158.896 226.06 165.685 228.355 167.188C232.187 169.699 237.256 170.204 241.37 168.485C244.294 167.264 245.573 165.83 247.463 161.655C250.789 154.306 251.607 149.32 249.612 148.555C247.847 147.877 231.958 146.631 233.492 147.29ZM225.15 152.87C225.15 154.245 225.377 154.808 225.654 154.12C225.932 153.433 225.932 152.308 225.654 151.62C225.377 150.933 225.15 151.495 225.15 152.87ZM277.992 151.996C294.357 154.039 294.457 154.071 294.831 157.356C295.287 161.366 293.454 167.142 291.029 169.336C288.425 171.693 281.612 172.88 277.387 171.713C273.771 170.715 272.083 168.434 270.84 162.87C270.139 159.732 270.1 159.835 270.463 163.868C271.198 172.032 279.101 175.865 287.752 172.254C293.57 169.826 296.161 165.362 295.77 158.437C295.437 152.534 295.237 152.444 280.492 151.619C270.87 151.081 270.776 151.095 277.992 151.996ZM123.492 156.331C132.611 158.301 161.287 158.914 181.526 157.572L193.559 156.775L194.764 162.52C195.639 166.691 195.667 168.453 194.865 168.948C193.239 169.953 179.609 172.753 170.992 173.852C150.557 176.458 110.857 172.655 109.258 167.938C108.966 167.076 107.722 163.804 106.495 160.667C104.504 155.58 104.437 154.914 105.877 154.493C108.356 153.768 114.68 154.428 123.492 156.331ZM206.47 161.12C205.683 167.963 205.002 168.832 200.401 168.855C197.462 168.869 197.249 168.596 196.062 163.292C195.376 160.225 194.966 157.601 195.153 157.462C195.44 157.248 203.692 155.438 206.34 155.008C206.807 154.932 206.865 157.683 206.47 161.12ZM197.937 176.995C198.635 180.544 198.77 183.492 198.258 184.004C196.218 186.044 175.017 189.895 162.492 190.5C150.74 191.068 130.55 189.789 126.453 188.217C125.649 187.908 124.992 186.55 124.992 185.197C124.992 182.309 123.543 179.249 120.693 176.12C118.265 173.455 118.457 173.434 127.492 175.37C144.718 179.06 169.731 178.257 187.034 173.459C191.686 172.168 195.771 171.058 196.112 170.991C196.453 170.925 197.274 173.626 197.937 176.995ZM124.205 201.916C126.364 207.937 127.456 218.291 126.562 224.254C125.758 229.615 121.23 234.87 117.415 234.87C115.223 234.87 114.992 235.284 114.992 239.215C114.992 244.096 113.555 245.901 107.738 248.332C102.817 250.388 98.6972 250.27 94.1352 247.943C87.8502 244.736 87.4492 243.719 90.0242 237.505C92.7882 230.838 92.1652 227.401 87.7692 225.053C82.2662 222.114 79.9922 219.283 79.9922 215.369V211.778L84.2422 211.996C86.5802 212.115 89.4742 211.687 90.6742 211.043C96.0322 208.169 103.999 195.088 105.528 186.657L106.201 182.944L114.346 190.04C120.798 195.661 122.848 198.131 124.205 201.916ZM200.712 191.12C201.414 195.347 201.21 197.442 199.662 201.87C198.572 204.987 197.426 211.92 197.017 217.87C196.619 223.645 196.226 227.309 196.143 226.013C196.033 224.302 195.558 223.823 194.409 224.263C193.539 224.597 187.351 225.59 180.659 226.469C167.137 228.245 141.144 227.919 132.742 225.868L127.992 224.708V217.507C127.992 213.546 127.257 207.845 126.358 204.838C124.923 200.033 124.27 191.258 125.274 190.255C125.47 190.058 129.2 190.637 133.562 191.54C138.969 192.661 146.423 193.177 156.992 193.162C173.202 193.14 182.732 191.786 192.992 188.048C196.017 186.945 198.795 186.005 199.166 185.957C199.536 185.909 200.232 188.233 200.712 191.12ZM-28.8498 188.87C-28.8498 190.245 -28.6228 190.808 -28.3458 190.12C-28.0678 189.433 -28.0678 188.308 -28.3458 187.62C-28.6228 186.933 -28.8498 187.495 -28.8498 188.87ZM202.992 189.823C202.992 192.765 203.01 192.774 207.825 192.203C218.067 190.99 229.983 197.007 243.733 210.335L251.492 217.855L247.472 221.684C245.261 223.79 242.561 226.02 241.472 226.639C239.549 227.733 239.59 227.948 242.921 234.178C246.108 240.139 246.257 240.816 245.035 243.765C244.312 245.511 241.757 248.667 239.356 250.78C236.956 252.893 234.992 255.316 234.992 256.164C234.992 258.334 233.922 260.87 233.006 260.87C232.582 260.87 231.675 259.52 230.992 257.87C230.309 256.22 229.369 254.87 228.904 254.87C228.44 254.87 228.989 256.445 230.125 258.37C233.008 263.257 235.992 262.644 235.992 257.164C235.992 256.316 237.995 253.859 240.442 251.705C242.89 249.551 245.455 246.231 246.143 244.329C247.338 241.025 250.992 239.294 250.992 242.032C250.992 244.356 246.007 251.621 242.66 254.174C240.366 255.924 239.014 257.94 238.579 260.259C237.715 264.864 234.814 268.399 232.597 267.549C231.658 267.188 229.994 264.867 228.898 262.39C227.435 259.082 226.187 257.72 224.199 257.26C220.217 256.338 213.182 252.093 212.011 249.906C211.191 248.373 211.381 247.881 212.995 247.369C214.49 246.895 214.851 246.155 214.421 244.444C213.955 242.588 214.534 241.748 217.468 240.017C219.642 238.734 221.698 236.425 222.609 234.244C225.698 226.852 220.701 216.846 213.165 215.333C204.899 213.674 204.568 213.174 207.399 206.62C209.589 201.549 208.55 201.856 205.893 207.064C204.239 210.306 204.001 211.655 204.845 213.006C205.74 214.439 205.537 214.875 203.714 215.43C202.492 215.802 200.705 216.798 199.742 217.643C198.138 219.052 197.992 218.99 197.992 216.899C197.992 215.644 198.907 210.719 200.026 205.954C202.028 197.428 202.11 197.286 205.224 197.049C206.964 196.917 208.636 196.54 208.94 196.211C209.243 195.883 208.035 195.819 206.254 196.067C202.818 196.548 202.769 196.487 201.487 190.12C201.072 188.057 201.227 186.87 201.913 186.87C202.506 186.87 202.992 188.199 202.992 189.823ZM220.956 199.706C221.615 200.99 222.428 201.767 222.763 201.432C223.099 201.097 222.56 200.046 221.566 199.096C219.838 197.446 219.811 197.473 220.956 199.706ZM202.575 202.736C202.144 203.433 202.062 204.273 202.392 204.603C203.287 205.498 204.263 204.182 203.779 202.732C203.441 201.716 203.205 201.716 202.575 202.736ZM117.055 206.814C118.772 210.321 118.993 211.639 118.103 213.064C117.357 214.258 117.328 214.87 118.015 214.87C120.944 214.87 120.308 208.96 116.938 204.87C114.954 202.462 114.959 202.533 117.055 206.814ZM121.63 205.37C121.947 206.195 122.383 206.87 122.599 206.87C122.815 206.87 122.992 206.195 122.992 205.37C122.992 204.545 122.556 203.87 122.023 203.87C121.491 203.87 121.314 204.545 121.63 205.37ZM216.992 205.87C216.992 207.737 217.259 208.003 218.192 207.07C219.125 206.137 219.125 205.603 218.192 204.67C217.259 203.737 216.992 204.003 216.992 205.87ZM105.992 207.37C105.992 208.195 106.442 208.87 106.992 208.87C107.542 208.87 107.992 208.195 107.992 207.37C107.992 206.545 107.542 205.87 106.992 205.87C106.442 205.87 105.992 206.545 105.992 207.37ZM239.474 213.228C242.132 215.388 242.346 215.961 241.452 218.51C240.686 220.696 239.63 221.516 236.971 221.988L233.492 222.607L236.587 222.738C240.265 222.895 242.992 220.309 242.992 216.664C242.992 213.987 241.816 212.636 238.492 211.493C237.121 211.021 237.43 211.567 239.474 213.228ZM258.37 225.503L258.984 232.636L252.238 231.333C248.528 230.616 244.465 229.641 243.209 229.166C241.02 228.337 241.111 228.171 245.419 225.135C247.89 223.393 251.393 219.724 253.202 216.982L256.492 211.997L257.124 215.184C257.472 216.936 258.032 221.58 258.37 225.503ZM107.992 220.336C107.992 221.058 108.779 222.495 109.742 223.53C110.705 224.565 111.154 224.975 110.742 224.441C109.382 222.681 109.959 221.725 111.992 222.37C114.995 223.323 114.398 222.219 110.992 220.52C108.609 219.331 107.992 219.293 107.992 220.336ZM216.992 220.759C216.992 221.248 216.204 222.507 215.242 223.556C214.28 224.606 213.942 224.807 214.492 224.005C215.204 222.965 215.1 222.413 214.129 222.086C212.978 221.699 212.978 221.493 214.129 220.764C215.895 219.645 216.992 219.643 216.992 220.759ZM207.193 239.87C207.816 239.87 208.049 240.146 207.711 240.484C206.838 241.357 200.312 237.145 199.579 235.235C199.242 234.358 200.563 235.042 202.514 236.755C204.465 238.468 206.571 239.87 207.193 239.87ZM212.242 241.532C211.555 241.81 210.43 241.81 209.742 241.532C209.055 241.255 209.617 241.028 210.992 241.028C212.367 241.028 212.93 241.255 212.242 241.532ZM217.936 250.186C219.533 252.242 224.238 254.89 226.192 254.831C226.907 254.809 225.93 254.114 224.022 253.287C222.113 252.459 219.646 251.014 218.539 250.076C216.621 248.45 216.593 248.455 217.936 250.186ZM247.043 257.186C246.942 258.791 249.109 261.916 249.959 261.39C250.436 261.096 255.68 266.044 261.614 272.386C273.27 284.843 273.745 285.119 289.992 288.869C297.506 290.603 300.687 292.379 302.475 295.837C307.042 304.669 301.174 316.842 289.992 321.73C284.1 324.306 265.048 328.504 252.647 329.959C240.453 331.39 222.248 330.645 215.182 328.425C204.795 325.162 198.124 315.793 201.09 308.632C203.747 302.219 213.158 297.937 237.65 291.999C250.948 288.775 256.511 286.565 257.443 284.137C258.031 282.604 255.186 272.343 254.393 273.136C254.176 273.353 254.74 275.708 255.646 278.369C257.267 283.126 257.258 283.237 255.065 285.012C252.482 287.103 247.322 288.724 229.992 292.889C204.301 299.062 195.148 306.967 200.538 318.326C204.179 325.999 212.658 330.346 226.84 331.813C241.367 333.314 266.787 330.292 284.837 324.916C298.28 320.913 305.36 312.593 304.703 301.572C304.191 292.978 301.239 290.407 288.392 287.365C282.947 286.076 277.142 284.508 275.492 283.883C273.842 283.257 266.778 276.81 259.793 269.557C252.809 262.304 247.071 256.737 247.043 257.186ZM86.6592 258.537C86.2922 258.903 86.0062 259.916 86.0222 260.787C86.0472 262.087 86.2432 262.044 87.1142 260.545C88.1912 258.693 87.8792 257.317 86.6592 258.537ZM81.3972 265.12L79.4922 267.37L81.7422 265.465C82.9802 264.417 83.9922 263.405 83.9922 263.215C83.9922 262.415 83.1872 263.006 81.3972 265.12ZM84.6162 264.409C83.6512 266.923 83.9352 267.572 85.1142 265.545C85.6982 264.541 85.9652 263.509 85.7072 263.252C85.4502 262.994 84.9582 263.515 84.6162 264.409ZM250.063 263.37C250.063 263.92 250.706 265.495 251.492 266.87C252.278 268.245 252.921 268.92 252.921 268.37C252.921 267.82 252.278 266.245 251.492 264.87C250.706 263.495 250.063 262.82 250.063 263.37ZM72.9052 275.985C65.7422 285.393 63.0372 286.931 49.6002 289.227C38.5492 291.115 32.4312 294.17 28.5012 299.761C25.9252 303.427 25.4922 304.951 25.4922 310.363C25.4922 315.931 25.8602 317.143 28.5802 320.527C32.3882 325.265 41.7882 330.171 52.4922 333.008C62.3122 335.61 81.5542 336.111 89.9922 333.983C101.176 331.163 109.202 325.337 110.576 319.043C110.897 317.573 111.351 315.759 111.585 315.013C112.375 312.499 109.93 305.869 106.971 302.499C105.17 300.448 99.5792 296.946 92.5162 293.446C79.7622 287.125 79.0212 286.191 80.9832 278.903C81.6102 276.574 81.9092 274.454 81.6472 274.191C81.3852 273.929 80.6252 276.151 79.9582 279.129C79.0332 283.265 79.0222 285.057 79.9112 286.719C80.5802 287.968 85.6402 291.185 91.7842 294.267C106.617 301.708 109.992 305.375 109.992 314.049C109.992 326.478 96.4592 333.997 74.0102 334.039C49.4482 334.086 28.6252 325.094 26.4502 313.5C25.6192 309.07 27.4572 302.659 30.6442 298.872C34.3512 294.466 39.3912 292.217 49.5132 290.45C62.4262 288.196 66.3152 285.903 73.8142 276.12C77.2922 271.582 79.9002 267.87 79.6102 267.87C79.3192 267.87 76.3022 271.522 72.9052 275.985ZM284.078 300.87C284.116 305.418 284.391 306.769 284.992 305.37C286.167 302.635 286.167 297.689 284.992 295.87C284.314 294.821 284.039 296.325 284.078 300.87ZM270.617 298.155C267.75 300.251 267.393 306.851 269.969 310.12C271.162 311.632 272.935 312.87 273.91 312.87C278.789 312.87 280.713 304.327 276.919 299.505C274.606 296.564 273.203 296.264 270.617 298.155ZM264.306 303.622C264.408 307.06 264.165 309.873 263.765 309.872C263.365 309.871 262.301 308.745 261.4 307.37C259.238 304.071 258.073 304.215 257.342 307.87C256.512 312.022 255.554 311.631 253.522 306.309C251.017 299.749 250.609 301.443 253.012 308.429C255.694 316.222 256.421 316.721 257.901 311.78L259.145 307.626L262.569 310.944L265.992 314.262L265.934 309.816C265.903 307.371 265.481 303.57 264.998 301.37C264.19 297.69 264.135 297.871 264.306 303.622ZM276.595 301.463C279.193 307.68 275.612 313.347 271.613 309.349C269.714 307.449 269.442 300.82 271.192 299.07C273.284 296.978 275.048 297.759 276.595 301.463ZM43.5152 300.832C43.2922 301.193 42.8622 305.062 42.5592 309.429C41.9792 317.79 43.1632 315.989 44.4742 306.518L45.1452 301.666L49.8192 302.361C52.3892 302.744 54.1592 302.719 53.7522 302.306C52.7352 301.276 44.0172 300.02 43.5152 300.832ZM241.162 301.931C239.165 302.731 238.927 303.329 239.494 306.117C240.811 312.587 242.061 316.795 242.802 317.253C243.218 317.51 245.793 317.211 248.525 316.59C252.057 315.786 252.825 315.352 251.183 315.087C249.913 314.883 247.551 315.177 245.933 315.741C243.613 316.549 242.992 316.477 242.992 315.4C242.992 314.648 242.748 313.399 242.451 312.623C242.131 311.789 242.847 310.761 244.201 310.109L246.492 309.005L244.217 308.938C242.731 308.893 241.605 307.981 240.967 306.305C239.647 302.831 239.626 302.872 242.742 302.855C244.254 302.846 246.167 302.403 246.992 301.87C248.175 301.106 247.963 300.911 245.992 300.949C244.617 300.975 242.443 301.417 241.162 301.931ZM84.6542 303.488C83.0922 304.334 82.0222 305.233 82.2742 305.486C82.9422 306.153 87.9922 303.701 87.9922 302.709C87.9922 301.658 88.0602 301.642 84.6542 303.488ZM93.1222 309.116C92.4232 312.276 92.0191 315.876 92.2222 317.116C92.4622 318.576 93.0401 317.346 93.8622 313.624C94.5612 310.464 94.9652 306.864 94.7622 305.624C94.5222 304.164 93.9442 305.394 93.1222 309.116ZM226.097 308.62C226.563 311.233 227.2 314.832 227.513 316.62C228.249 320.82 231.073 320.942 235.069 316.947C240.79 311.226 237.368 303.87 228.986 303.87H225.25L226.097 308.62ZM222.525 307.62C222.782 309.408 223.262 312.332 223.591 314.12C224.19 317.368 224.187 317.366 218.212 311.521C214.923 308.303 212.034 306.053 211.791 306.521C211.548 306.988 211.915 310.52 212.607 314.37L213.866 321.37L213.597 315.62C213.449 312.457 213.576 309.87 213.881 309.87C214.185 309.87 217.089 312.457 220.335 315.62L226.236 321.37L225.633 317.37C225.301 315.17 224.361 311.345 223.544 308.87C222.387 305.366 222.161 305.089 222.525 307.62ZM233.769 306.427C236.598 308.408 236.71 313.152 233.992 315.87C230.818 319.044 229.438 318.316 228.164 312.794C227.519 310.002 226.992 307.077 226.992 306.294C226.992 304.391 230.975 304.469 233.769 306.427ZM55.3372 310.413C55.0112 311.262 55.0222 312.233 55.3602 312.571C55.6982 312.909 55.4782 313.784 54.8712 314.515C54.2652 315.246 54.0322 316.532 54.3542 317.372C54.9632 318.958 59.8912 321.304 60.7692 320.426C61.0442 320.151 60.0822 319.475 58.6312 318.923C54.3192 317.283 55.3382 315.319 60.2422 315.818C62.9292 316.091 62.3182 314.169 59.4922 313.459C58.1172 313.114 56.9922 312.13 56.9922 311.271C56.9922 310.046 57.6902 309.849 60.2422 310.351C62.6592 310.827 63.1082 310.724 61.9922 309.946C59.7602 308.391 56.0122 308.654 55.3372 310.413ZM68.7422 313.202C67.6442 315.885 67.8272 320.65 69.0592 321.411C70.5322 322.322 70.5862 322.039 70.0042 316.37C69.6442 312.853 69.2702 311.913 68.7422 313.202ZM76.9662 313.919C74.3852 318.741 77.8922 324.663 81.8602 322.184C82.9402 321.51 84.1082 321.387 84.6142 321.893C85.1182 322.399 85.3452 320.667 85.1462 317.822C84.9552 315.099 84.3922 313.122 83.8962 313.43C83.3992 313.737 82.9922 313.511 82.9922 312.929C82.9922 310.989 78.1042 311.792 76.9662 313.919ZM82.4922 316.884C82.4922 319.738 82.0842 320.428 80.2422 320.69C78.2872 320.967 77.9922 320.563 77.9922 317.606C77.9922 313.757 78.7052 312.668 80.9432 313.099C81.9882 313.3 82.4922 314.531 82.4922 316.884ZM90.9922 323.87C90.9922 324.42 91.4422 324.87 91.9922 324.87C92.5422 324.87 92.9922 324.42 92.9922 323.87C92.9922 323.32 92.5422 322.87 91.9922 322.87C91.4422 322.87 90.9922 323.32 90.9922 323.87Z" fill="black"/>
</g>
</svg>
