<svg width="321" height="330" viewBox="0 0 321 330" fill="none" xmlns="http://www.w3.org/2000/svg">
<mask id="mask0_1093_509" style="mask-type:alpha" maskUnits="userSpaceOnUse" x="0" y="0" width="321" height="330">
<rect width="321" height="330" rx="1" fill="#D9D9D9"/>
</mask>
<g mask="url(#mask0_1093_509)">
<path fill-rule="evenodd" clip-rule="evenodd" d="M205.141 8.51672C204.419 8.78101 202.941 9.80317 201.857 10.7886C198.328 13.9959 199.779 21.3514 204.274 23.0475L206.893 24.0346V45.1446C206.893 56.7541 207.152 72.8137 207.469 80.8326L208.044 95.4123H203.723C196.945 95.4123 185.19 97.0996 181.394 98.6171C179.493 99.3767 177.556 100.713 177.088 101.586C176.62 102.459 176.238 108.024 176.238 113.953V124.732L161.567 124.773C146.594 124.815 140.514 125.742 137.48 128.447C136.076 129.699 135.948 132.364 135.948 160.182V190.549L129.481 191.038C122.699 191.55 118.139 193.268 117.222 195.655C116.924 196.434 116.678 204.264 116.678 213.056V229.04L112.487 226.968C108.136 224.817 98.1705 222.779 95.4614 223.487C92.9363 224.146 93.7272 222.913 97.5039 220.303C102.762 216.667 101.688 215.753 92.0832 215.686L83.8333 215.63L91.4972 215.939C95.7128 216.11 99.1611 216.586 99.1611 216.999C99.1611 218.215 90.8324 223.198 84.4718 225.788C81.2303 227.108 77.0366 229.015 75.1535 230.026C71.2042 232.144 70.5271 231.918 68.8542 227.916C66.6952 222.753 67.1156 221.953 73.3404 219.399C76.4813 218.111 79.6572 217.056 80.399 217.056C81.14 217.056 81.5289 216.703 81.2618 216.272C80.9946 215.841 83.0634 211.016 85.8592 205.552C96.8575 184.05 99.6954 166.962 94.554 153.187C89.8147 140.487 70.6331 128.667 54.7623 128.667C50.6089 128.667 50.0922 128.455 49.6131 126.549C48.6654 122.774 49.5088 121.595 54.3121 119.973C69.5996 114.814 73.23 101.586 64.5633 82.6161C61.764 76.4893 54.8648 65.5002 53.4573 64.9288C52.5166 64.5455 52.5604 61.1709 53.5265 59.6473C53.995 58.907 56.2504 58.36 59.4246 58.2156C65.9192 57.9198 69.1354 56.6526 70.3922 53.8968C71.6955 51.0395 69.4191 47.2799 66.3877 47.2799C65.2447 47.2799 63.3818 46.3024 62.2475 45.107C59.4762 42.1884 57.9951 42.3232 57.9951 45.4955C57.9951 47.763 57.5721 48.2014 54.6204 48.9961C52.7636 49.4949 50.1036 49.9753 48.7083 50.0629C47.3122 50.1512 45.6173 50.644 44.9412 51.1577C44.265 51.6722 43.4767 52.003 43.1894 51.8936C42.9021 51.7843 41.2879 52.0774 39.6019 52.5447C35.3968 53.7122 34.6208 53.6317 33.9779 51.9575C33.6407 51.0806 34.1522 49.7312 35.2724 48.5401C36.6186 47.1084 37.0469 45.6916 36.8446 43.3445C36.5941 40.4425 36.8446 39.9997 39.3286 38.9565C44.3263 36.8571 45.0393 32.5462 41.1005 28.2458C38.9852 25.9363 35.6342 25.7157 31.1462 27.5894C27.0997 29.2784 27.3397 29.3904 27.3397 25.8173C27.3397 23.3362 26.9131 22.5705 25.1596 21.9045C21.1079 20.366 11.8919 19.9153 5.8712 20.9629C0.0773201 21.9719 -7.85807 25.2922 -9.04049 27.2026C-9.36632 27.7303 -9.11757 31.3376 -8.48607 35.2188C-7.85544 39.1 -7.19065 41.8305 -7.00935 41.2861C-6.82804 40.7427 -7.09168 37.6508 -7.59531 34.4172C-8.74007 27.0696 -8.01485 26.0807 0.391762 23.5297C5.25985 22.0516 8.08278 21.768 15.1125 22.0507C20.5237 22.2677 24.2277 22.8173 24.9179 23.506C25.9654 24.5527 27.1794 39.4037 26.2177 39.4037C25.9838 39.4037 19.8746 40.1922 12.6417 41.1566C5.40875 42.121 -2.12199 42.9734 -4.0927 43.0504C-7.37196 43.1782 -7.82391 43.495 -9.39697 46.7671C-10.342 48.7335 -11.542 52.2638 -12.0614 54.6109C-13.3182 60.2801 -14.2073 61.8737 -18.7136 66.5329C-21.9289 69.8575 -22.7181 71.4065 -23.7805 76.4762C-24.8386 81.5231 -25.6277 83.0791 -28.7274 86.2348C-31.687 89.2479 -32.5051 90.782 -32.8677 93.999C-33.7392 101.725 -30.3242 105.694 -22.0752 106.545C-16.4504 107.124 -15.4825 108.082 -15.0569 113.478C-14.8799 115.722 -14.0032 118.974 -13.1089 120.706C-11.6655 123.501 -5.86108 128.841 -3.36398 129.672C-2.74386 129.879 -3.17479 135.188 -4.66639 145.733C-7.49195 165.703 -8.44052 185.9 -7.56377 207.374C-6.71418 228.185 -5.14462 240.737 -0.227482 266.064C4.69929 291.435 4.83681 294.039 1.44981 297.784L-1.12613 300.631L1.78001 298.006L4.68615 295.381H17.7331C28.3714 295.381 31.0315 295.129 32.143 294.019C33.3771 292.786 33.3122 292.474 31.4571 290.733C30.329 289.674 26.3885 287.708 22.6984 286.364L15.9901 283.921L21.897 278.063C27.4754 272.533 27.8652 272.303 28.8935 273.949C29.4926 274.906 30.8659 275.68 31.945 275.669C35.5956 275.631 43.6116 271.672 53.7253 264.914C59.2625 261.214 64.6991 258.187 65.807 258.187C67.6429 258.187 67.7751 258.478 67.303 261.469C66.0943 269.122 65.6906 275.731 66.2502 278.711C67.049 282.967 71.0237 285.556 75.9855 285.055C82.8708 284.36 87.724 280.899 97.4461 269.751C100.702 266.017 101.938 265.188 104.247 265.188C107.55 265.188 109.235 267.456 112.76 276.641C115.984 285.047 121.539 289.57 127.03 288.261C131.84 287.114 133.059 284.842 134.174 274.945C135.048 267.178 136.209 265.571 138.686 268.689C144.841 276.436 147.062 278.625 151.112 280.946C153.61 282.379 156.049 283.543 156.531 283.535C157.012 283.526 155.063 282.25 152.198 280.698C148.237 278.554 145.956 276.463 142.674 271.971C136.344 263.304 134.221 264.026 132.859 275.309C131.662 285.229 129.439 287.847 123.208 286.68C119.247 285.937 115.442 281.183 113.043 273.98C110.807 267.265 107.431 263.438 103.745 263.438C101.638 263.438 99.8556 264.887 93.6098 271.672C84.7311 281.317 80.1932 284.025 74.063 283.334C71.8856 283.089 69.7143 282.499 69.2369 282.022C67.4983 280.285 67.0017 274.833 67.8837 267.156C68.3795 262.837 68.538 258.659 68.235 257.871C67.2303 255.255 64.2751 256.372 54.3988 263.103C38.606 273.865 29.9226 277.13 29.2683 272.553C29.0765 271.214 30.823 269.134 35.8374 264.726C39.594 261.424 46.0176 255.513 50.1123 251.589C63.8854 238.39 78.4572 229.01 89.6342 226.149C99.1996 223.7 109.624 225.727 117.213 231.51C122.085 235.223 158.136 280.829 158.136 283.279C158.136 283.918 158.564 284.456 159.086 284.475C160.181 284.513 164.101 290.061 173.9 305.445C177.733 311.461 180.635 315.716 180.351 314.9C180.066 314.084 177.43 309.605 174.493 304.948C171.556 300.29 169.269 296.38 169.411 296.258C169.553 296.138 171.836 296.354 174.486 296.74C184.283 298.165 200.8 297.039 207.061 294.517C208.309 294.015 208.595 294.59 208.874 298.15L209.206 302.382L209.363 297.379L209.521 292.376L212.479 294.12C221.611 299.504 249.604 299.964 261.023 294.917L264.801 293.247L264.32 299.565C263.967 304.192 264.059 305.204 264.666 303.346C265.121 301.951 265.935 289.349 266.473 275.342C267.011 261.334 267.622 248.692 267.83 247.248C268.208 244.635 268.239 244.622 274.557 244.378C282.109 244.086 289.619 242.706 292.948 241L295.356 239.765L295.454 245.694C295.55 251.5 295.567 251.542 296.266 247.686C297.019 243.533 298.454 213.656 299.423 181.985L300 163.105L297.273 161.166C295.745 160.078 291.55 158.65 287.726 157.917C280.535 156.537 258.778 156.035 253.095 157.116L249.811 157.742V153.254C249.811 148.997 249.656 148.693 246.777 147.322L243.743 145.876L244.285 124.738L244.827 103.601L242.263 101.777C240.853 100.773 237.541 99.3286 234.902 98.5663C230.627 97.3315 216.73 95.4675 211.492 95.4272L209.521 95.4123V77.5727V59.7331L214.119 59.2176C216.648 58.935 224.212 58.2497 230.928 57.6958L243.138 56.6894L244.751 58.6803C246.9 61.3328 249.644 61.1482 258.168 57.778C272.52 52.1037 283.79 45.0002 281.721 42.9323C281.268 42.4798 274.986 41.4918 267.763 40.7383C260.539 39.9839 253.981 39.1657 253.19 38.9189C252.398 38.6721 251.277 37.3279 250.698 35.9312C249.343 32.6617 248.31 32.337 226.93 28.4549C217.114 26.6731 208.886 25.006 208.645 24.7513C208.404 24.4958 208.714 24.1064 209.334 23.885C209.954 23.6644 211.629 22.5022 213.057 21.3016C219.534 15.8565 213.173 5.58327 205.141 8.51672ZM212.439 12.5371C216.431 17.163 209.645 25.462 204.616 22.1067C201.599 20.093 200.748 14.1955 203.171 12.0864C206.442 9.23958 209.733 9.39885 212.439 12.5371ZM226.225 29.7037C248.865 34.2632 247.747 33.9123 248.954 36.8256C249.529 38.2118 250.464 39.7319 251.034 40.2027C251.602 40.6744 258.31 41.7456 265.941 42.584L279.816 44.1067L277.732 45.7931C274.977 48.0229 263.026 53.9992 256.141 56.5896C249.327 59.1538 246.61 59.2369 245.869 56.9064C245.191 54.7702 246.208 54.7676 226.436 56.9475C217.499 57.9329 210.001 58.5534 209.774 58.3259C209.226 57.778 208.263 26.2767 208.795 26.2767C209.022 26.2767 216.865 27.8187 226.225 29.7037ZM40.9919 30.2087C43.1605 33.5149 42.0254 36.3197 37.8405 37.993C35.8996 38.7684 32.94 39.4037 31.2636 39.4037H28.2155V34.7244C28.2155 29.3178 29.5171 28.188 35.8593 28.0865C38.8749 28.0383 39.827 28.4313 40.9919 30.2087ZM60.6096 46.186C60.5991 48.0614 60.4082 48.303 59.7469 47.2799C58.6398 45.5673 58.6398 43.7794 59.7469 43.7794C60.2286 43.7794 60.6166 44.8619 60.6096 46.186ZM63.9353 54.281C63.9502 57.0447 63.8828 57.1304 63.2504 55.1561C62.865 53.9528 62.5567 51.3931 62.5654 49.4678C62.5812 46.1379 62.6145 46.095 63.2504 48.5926C63.6182 50.0366 63.9265 52.5964 63.9353 54.281ZM68.3304 49.2052C69.9263 50.7997 69.5873 54.1095 67.7261 55.1045C66.3685 55.8309 65.9778 55.6392 65.5487 54.0412C64.2094 49.0486 65.6564 46.5334 68.3304 49.2052ZM61.122 51.1489C62.1371 55.1903 61.3182 56.4487 57.4907 56.7305C54.1089 56.9791 53.8899 56.8417 52.9922 53.9196L52.0489 50.847L55.6785 50.0322C57.6755 49.5842 59.5971 49.1755 59.9492 49.1238C60.3013 49.0722 60.8286 49.9832 61.122 51.1489ZM32.94 51.2924C34.118 54.3598 34.5481 61.9297 33.5776 62.5292C33.0372 62.8626 32.5949 64.4221 32.5949 65.9947C32.5949 69.2826 30.5427 71.5142 24.931 74.3277C22.8832 75.3551 21.2086 76.5812 21.2086 77.052C21.2086 77.5237 20.2232 77.9097 19.0189 77.9097C16.4272 77.9097 16.2748 76.7046 18.242 71.7916C19.8475 67.7817 19.2834 66.518 14.8682 64.2365C12.117 62.8153 11.934 60.757 14.418 59.194C15.5627 58.4738 16.4272 58.5315 17.8566 59.4233C19.5278 60.4656 19.9114 60.4166 20.9257 59.0312C21.5624 58.1596 22.0844 56.7349 22.0844 55.8641C22.0844 54.9067 22.7256 54.281 23.7066 54.281C24.5991 54.281 26.6679 53.3306 28.3049 52.1684C31.924 49.5982 32.2647 49.5343 32.94 51.2924ZM51.194 52.9149C52.1592 54.3073 51.9937 62.0303 50.9575 63.9653C49.6893 66.3325 44.8571 66.3334 44.8571 63.9661C44.8571 62.9816 44.0338 62.0137 42.8864 61.6496L40.9157 61.0239L42.9565 60.1129C45.0016 59.2001 45.1391 57.8113 43.5582 54.0526C43.0721 52.8965 43.2411 52.6375 44.2335 53.0182C44.9604 53.2974 45.7636 53.1888 46.0176 52.7775C46.678 51.7116 50.4285 51.8105 51.194 52.9149ZM42.3906 55.5972C43.6344 58.325 43.3304 58.6269 39.0807 58.886C35.9652 59.0759 35.6368 58.8868 35.3907 56.762C35.1989 55.1028 35.5781 54.3108 36.7045 54.0193C40.1432 53.1285 41.4272 53.4855 42.3906 55.5972ZM30.9123 56.5415C30.9544 57.561 31.162 57.7684 31.4414 57.0709C31.6945 56.4391 31.663 55.6839 31.3722 55.3933C31.0814 55.1028 30.8747 55.6191 30.9123 56.5415ZM36.8148 62.5948C36.2665 63.7981 35.4861 64.7826 35.0815 64.7826C34.0777 64.7826 34.1566 64.1875 35.4336 62.145C36.9848 59.6631 38.0008 59.993 36.8148 62.5948ZM43.9812 64.8465C43.9812 65.7742 43.6606 66.5329 43.2683 66.5329C42.8767 66.5329 43.0528 70.1638 43.6598 74.6008C44.2676 79.0386 44.6022 82.8314 44.4034 83.0301C44.2046 83.2287 41.2573 82.6695 37.8545 81.7874C32.9522 80.5176 31.7803 79.9023 32.2156 78.8277C33.0197 76.8446 38.726 61.0003 38.726 60.7518C38.726 60.6362 39.9084 61.1307 41.3536 61.8509C42.91 62.6272 43.9812 63.848 43.9812 64.8465ZM28.6622 67.422C28.9653 67.9112 29.5793 68.0854 30.0277 67.808C31.2426 67.058 31.0166 66.5329 29.4777 66.5329C28.7271 66.5329 28.3601 66.9328 28.6622 67.422ZM57.5686 73.0684C67.0569 88.2791 69.9604 101.219 65.7212 109.401C59.5936 121.231 39.7473 123.684 31.3012 113.655C28.6447 110.501 28.3145 111.692 30.9264 115.009C33.2947 118.018 38.1479 120.467 43.2639 121.232C47.0476 121.799 47.3612 122.048 47.8981 124.906C48.2143 126.592 48.266 128.178 48.012 128.432C47.758 128.686 41.3282 129.432 33.723 130.09C19.1293 131.354 6.34768 133.389 0.793785 135.334L-2.54066 136.502L-1.95557 132.366C-1.63413 130.091 -0.883507 125.572 -0.288792 122.323C0.306801 119.073 0.492485 116.416 0.125496 116.416C-0.580456 116.416 -2.43993 124.06 -2.43993 126.96C-2.43993 129.106 -2.85597 129.095 -6.50485 126.841C-10.0591 124.646 -13.8263 118.555 -13.8263 115.003C-13.8263 112.545 -13.6765 112.445 -10.4366 112.754C-6.36208 113.143 -3.38762 111.723 2.82493 106.424C6.26885 103.487 8.6556 102.235 12.2143 101.496C17.734 100.352 19.8624 98.5663 21.1157 94.0314C22.0599 90.614 20.9502 82.7701 19.3859 81.804C18.9436 81.531 18.581 80.9367 18.581 80.4834C18.581 77.3242 45.8389 84.495 53.5562 89.6846C55.9982 91.3255 57.9951 92.3039 57.9951 91.8584C57.9951 90.7444 51.1064 85.8489 48.6846 85.2415C46.5948 84.7173 46.2305 83.6514 45.2784 75.2842C44.9771 72.637 44.5444 69.8094 44.3167 69.0017C44.0136 67.9279 44.5619 67.4325 46.3504 67.1639C53.2444 66.126 53.2339 66.1207 57.5686 73.0684ZM32.7324 73.758C31.8863 76.4902 30.971 78.9484 30.6978 79.2215C29.962 79.9566 22.9603 78.6841 22.9603 77.816C22.9603 77.4056 24.4966 76.2872 26.3736 75.3298C28.2515 74.3732 30.7153 72.4479 31.8478 71.0521C32.9812 69.6563 33.9902 68.5763 34.09 68.6525C34.189 68.7286 33.5785 71.0258 32.7324 73.758ZM208.467 100.444L209.339 103.726L209.431 100.882L209.521 98.0378L216.747 98.0684C229.993 98.1244 241.819 101.21 243.27 104.99C244.107 107.17 240.055 109.885 233.946 111.238C225.318 113.15 201.359 112.892 192.137 110.791C184.354 109.017 179.513 106.44 179.005 103.801C178.329 100.301 185.087 98.653 205.712 97.2878C207.189 97.1897 207.783 97.8689 208.467 100.444ZM186.542 111.314C189.079 112.211 196.222 113.395 202.418 113.946C218.244 115.352 231.658 113.948 241.271 109.877C242.616 109.307 242.804 109.776 242.804 113.697C242.804 116.887 242.338 118.631 241.175 119.794C238.398 122.568 228.867 123.86 211.71 123.789C195.582 123.723 187.457 122.56 181.458 119.461C179.055 118.219 178.865 117.764 178.865 113.236C178.865 108.915 179.042 108.429 180.398 109.017C181.242 109.384 184.006 110.417 186.542 111.314ZM182.045 121.198C188.976 124.653 195.568 125.604 212.586 125.604C228.847 125.604 232.345 125.154 240.582 121.995C241.714 121.561 241.928 122.456 241.928 127.629V133.777L237.768 135.119C229.043 137.933 212.631 139.03 198.791 137.723L192.879 137.166V134.365C192.879 132.787 192.196 130.946 191.314 130.149C189.17 128.21 183.769 126.042 181.083 126.042C179.132 126.042 178.865 125.674 178.865 122.979C178.865 119.443 178.703 119.533 182.045 121.198ZM241.928 140.003V145.213L237.33 144.598C231.056 143.758 208.977 143.82 204.873 144.688C200.814 145.546 198.134 148.049 198.134 150.983C198.134 153.188 196.981 153.681 194.265 152.64C193.181 152.224 192.879 150.751 192.879 145.858V139.607L210.616 139.586C227.498 139.566 228.647 139.455 234.483 137.302C237.855 136.058 240.909 134.984 241.271 134.917C241.633 134.849 241.928 137.138 241.928 140.003ZM145.582 138.023C152.573 140.321 178.927 140.323 185.75 138.026C188.332 137.156 190.599 136.6 190.789 136.789C190.979 136.978 190.886 138.934 190.584 141.135C190.063 144.929 189.848 145.189 186.421 146.15C184.433 146.707 176.869 147.384 169.613 147.654C156.556 148.14 144.801 146.812 140.154 144.327C138.24 143.304 137.769 135.185 139.67 135.981C140.273 136.233 142.933 137.152 145.582 138.023ZM140.587 145.697C148.317 150.757 177.558 151.311 188.766 146.609C190.199 146.008 190.321 146.42 190.08 151.056L189.814 156.164L185.872 157.387C180.433 159.073 158.99 159.747 150.837 158.487C147.224 157.928 142.889 156.8 141.203 155.978C138.289 154.557 138.124 154.236 137.875 149.452C137.73 146.685 137.842 144.42 138.124 144.42C138.406 144.42 139.515 144.995 140.587 145.697ZM235.332 146.209C253.742 148.316 252.479 155.232 233.473 156.38C218.246 157.301 201.513 153.977 200.927 149.917C200.705 148.381 201.283 147.85 203.992 147.103C210.827 145.219 223.518 144.857 235.332 146.209ZM197.04 154.909C197.81 154.918 198.134 156.737 198.134 161.047C198.134 167.454 197.959 167.689 193.974 166.622C192.168 166.138 192.003 165.582 192.003 159.968C192.003 154.042 192.068 153.859 193.974 154.37C195.058 154.66 196.438 154.903 197.04 154.909ZM208.645 156.32C217.537 158.67 240.967 157.777 246.381 154.882C248.068 153.98 248.146 154.148 247.89 158.129L247.621 162.328L242.804 163.475C236.949 164.87 216.981 165.039 210.529 163.748C202.868 162.215 201.242 161.108 200.922 157.206C200.677 154.231 200.838 153.889 202.235 154.43C203.111 154.769 205.995 155.62 208.645 156.32ZM140.577 157.065C148.74 162.401 175.694 163.192 186.529 158.412L190.252 156.77V161.413V166.057L177.77 166.529C164.719 167.024 160.148 167.995 157.683 170.798C156.341 172.324 155.687 172.393 150.479 171.562C139.428 169.798 137.699 168.367 137.699 160.985C137.699 158.132 137.91 155.797 138.168 155.797C138.426 155.797 139.51 156.367 140.577 157.065ZM216.084 166.35C224.836 167.51 234.116 167.008 242.098 164.942C245.001 164.19 247.534 163.731 247.726 163.924C247.919 164.116 247.776 168.765 247.411 174.256L246.745 184.239L242.366 185.331C236.911 186.691 221.914 187.744 218.87 186.98C216.705 186.438 216.59 186.104 216.346 179.668C216.098 173.123 216.004 172.867 213.189 170.975C211.594 169.903 208.145 168.581 205.525 168.037C201.093 167.118 200.762 166.875 200.762 164.535V162.021L204.485 163.663C206.531 164.566 211.752 165.775 216.084 166.35ZM28.2155 167.411C39.2095 172.841 45.8959 174.477 55.1127 173.994C61.1544 173.677 62.4253 173.842 62.7713 174.988C64.17 179.616 65.2123 190.988 65.7484 207.442C66.2975 224.294 66.5594 226.648 68.2428 229.876L70.1242 233.482L66.0304 236.415C59.0996 241.38 44.6994 254.137 30.4709 267.917L16.8879 281.072L20.7654 272.78C26.2335 261.088 31.2049 245.658 33.7852 232.371C35.572 223.17 41.3536 179.184 41.3536 174.791C41.3536 174.17 39.4915 173.165 37.2151 172.556C32.1675 171.208 23.3089 166.977 20.3327 164.495C17.6035 162.218 17.995 162.363 28.2155 167.411ZM198.826 168.988C208.8 170.091 214.776 172.335 214.776 174.978C214.776 179.334 203.829 181.598 186.069 180.917C168.802 180.254 158.72 177.478 158.72 173.385C158.72 168.88 178.359 166.726 198.826 168.988ZM297.488 172.205C297.156 174.492 296.731 176.631 296.543 176.96C295.018 179.627 266.431 180.823 255.723 178.667L249.811 177.477V173.328V169.18L254.143 170.303C264.869 173.083 286.687 172.571 293.986 169.368C298.007 167.605 298.14 167.712 297.488 172.205ZM139.933 169.691C140.968 170.647 148.421 172.969 152.808 173.704L156.093 174.254V180.004V185.753L151.083 185.128C148.326 184.784 144.287 183.841 142.105 183.033L138.137 181.564L137.88 175.244C137.635 169.212 138.087 167.988 139.933 169.691ZM169.231 181.127C181.223 183.702 203.392 183.026 210.991 179.854L213.9 178.639V183.367C213.9 188.082 213.892 188.097 210.616 189.016C196.834 192.885 169.867 191.718 160.437 186.846C158.101 185.639 157.844 185.083 157.844 181.232V176.958L161.129 178.526C162.936 179.388 166.581 180.559 169.231 181.127ZM296.801 187.899C296.581 188.119 294.098 188.939 291.281 189.722C284.759 191.535 260.375 191.583 253.752 189.796C249.693 188.701 249.352 188.397 249.089 185.649C248.933 184.018 249.025 181.81 249.294 180.741C249.775 178.826 249.844 178.817 254.394 180.129C257.638 181.064 263.169 181.467 273.021 181.488C284.72 181.512 287.831 181.236 291.853 179.815L296.67 178.113L296.935 182.806C297.082 185.388 297.021 187.68 296.801 187.899ZM146.399 185.914C149.015 186.678 152.266 187.301 153.624 187.301C155.656 187.301 156.093 187.679 156.093 189.432V191.563L147.991 191.111C143.534 190.862 139.397 190.505 138.794 190.32C138.129 190.114 137.699 188.421 137.699 185.996C137.699 182.073 137.731 182.031 139.67 183.269C140.754 183.961 143.781 185.151 146.399 185.914ZM246.853 195.65C246.619 196.259 244.331 197.214 241.77 197.773C236.513 198.92 219.076 200.045 217.271 199.355C216.421 199.03 216.174 197.521 216.39 193.977L216.69 189.052H224.331C232.72 189.052 241.14 187.772 244.55 185.98L246.745 184.827L247.012 189.685C247.158 192.358 247.087 195.042 246.853 195.65ZM162.662 189.425C173.802 194.493 200.103 194.52 212.412 189.477C213.848 188.888 213.966 189.325 213.726 194.326L213.462 199.822L210.116 200.976C204.147 203.035 191.977 204.184 182.369 203.596C170.327 202.861 168.838 202.391 168.618 199.258C168.373 195.803 167.014 194.474 162.331 193.116C158.916 192.126 158.238 191.564 157.996 189.527C157.838 188.198 158.035 187.273 158.434 187.471C158.832 187.669 160.735 188.549 162.662 189.425ZM296.929 194.958L296.67 200.864L293.166 202.022C285.117 204.68 259.853 204.768 251.96 202.166L248.935 201.168V195.63V190.093L253.971 191.535C261.773 193.77 284.49 193.488 290.977 191.076C293.626 190.091 296.108 189.232 296.491 189.168C296.874 189.104 297.071 191.71 296.929 194.958ZM161.388 194.246C166.23 195.673 168.113 197.378 166.955 199.283C165.154 202.251 159.856 203.36 147.772 203.302C123.325 203.185 109.827 196.492 127.189 193.097C130.927 192.366 158.112 193.279 161.388 194.246ZM247.183 200.866V204.804L235.14 204.843C228.517 204.864 221.421 205.204 219.374 205.6C215.727 206.305 215.652 206.271 215.652 203.927V201.536L226.819 201.094C237.4 200.674 238.629 200.425 246.964 197.017C247.084 196.968 247.183 198.7 247.183 200.866ZM144.268 204.331C155.987 204.345 159.961 204.043 162.925 202.913L166.692 201.478L166.429 205.531L166.165 209.585L161.348 210.723C153.873 212.489 129.81 211.705 124.123 209.512C119.949 207.901 119.732 207.655 119.48 204.246L119.217 200.67L124.298 202.491C128.681 204.062 131.426 204.315 144.268 204.331ZM214.776 203.45C214.776 206.043 214.342 206.679 211.71 207.926C209.126 209.151 208.645 209.829 208.645 212.249C208.645 214.151 208.128 215.337 207.112 215.768C204.849 216.728 181.644 217.37 174.984 216.657L169.231 216.042V209.975V203.908L172.953 204.575C175.001 204.942 182.391 205.208 189.376 205.166C200.636 205.099 202.771 204.84 208.207 202.882C211.579 201.669 214.437 200.619 214.557 200.552C214.677 200.484 214.776 201.788 214.776 203.45ZM297.096 206.336C297.075 213.338 296.525 214.273 291.533 215.78C289.06 216.527 282.995 217.375 278.058 217.666L269.08 218.195V215.994C269.08 210.983 263.424 207.286 253.944 206.103C249.404 205.536 247.203 204.493 248.281 203.416C248.499 203.198 251.199 203.589 254.28 204.285C266.732 207.098 284.823 206.741 292.143 203.536C296.688 201.547 297.109 201.785 297.096 206.336ZM130.254 212.74C137.764 214.301 153.596 214.103 160.324 212.364C163.374 211.575 166.034 210.93 166.236 210.93C166.438 210.93 166.603 212.848 166.603 215.192V219.454L162.443 220.662C159.616 221.482 153.649 221.854 143.83 221.824C131.82 221.786 128.565 221.49 124.561 220.074L119.744 218.369L119.481 213.34L119.219 208.313L122.109 209.98C123.699 210.897 127.364 212.139 130.254 212.74ZM296.232 220.912V226.518L292.072 227.966C289.72 228.786 283.627 229.639 278.058 229.929L268.204 230.443V225.177V219.911L277.182 219.47C284.574 219.107 292.147 217.479 296.013 215.422C296.133 215.358 296.232 217.829 296.232 220.912ZM213.865 217.475C222.741 222.062 250.835 222.637 262.91 218.48L266.452 217.261V221.825C266.452 226.33 266.41 226.402 263.168 227.432C261.362 228.006 255.615 228.935 250.399 229.499C235.928 231.061 216.235 228.684 211.567 224.813C210.461 223.896 209.845 216.181 210.878 216.181C211.143 216.181 212.487 216.764 213.865 217.475ZM207.769 223.557V230.057L202.733 230.776C196.492 231.668 178.115 231.65 172.515 230.747L168.355 230.075V223.979V217.882L174.267 218.563C182.026 219.457 197.65 219.197 202.076 218.1C207.952 216.644 207.769 216.469 207.769 223.557ZM129.81 223.223C139.167 225.383 157.156 224.248 165.07 220.999C166.43 220.44 166.603 220.964 166.603 225.628C166.603 230.773 166.542 230.909 163.757 231.885C153.641 235.431 125.83 234.189 120.401 229.949C119.748 229.438 119.306 227.031 119.306 223.979V218.865L122.153 220.489C123.718 221.382 127.164 222.612 129.81 223.223ZM219.155 229.442C224.922 231.245 227.436 231.492 239.738 231.469C253.015 231.442 258.344 230.709 264.92 228.001C266.278 227.442 266.452 227.961 266.452 232.574C266.452 237.156 266.212 237.888 264.437 238.695C259.82 240.798 251.353 241.916 240.176 241.899C226.842 241.88 217.255 240.502 213.165 238.016C210.541 236.423 210.397 236.053 210.397 230.964C210.397 226.772 210.637 225.79 211.492 226.491C212.094 226.984 215.542 228.312 219.155 229.442ZM296.232 233.222V238.885L291.381 240.294C286.77 241.634 271.106 243.256 269.132 242.598C268.622 242.428 268.204 240.032 268.204 237.273V232.256L275.63 232.051C282.752 231.855 291.363 230.197 294.37 228.442C295.153 227.985 295.893 227.599 296.013 227.584C296.133 227.57 296.232 230.106 296.232 233.222ZM134.105 235.485C142.959 236.765 153.862 236.079 161.266 233.776L166.603 232.117V237.628C166.603 242.992 166.531 243.164 163.915 244.075C158.899 245.823 146.157 247.037 139.054 246.446C132.32 245.884 131.955 245.739 129.413 242.617C127.96 240.833 125.034 237.498 122.913 235.209L119.055 231.045L122.902 232.733C125.019 233.662 130.06 234.9 134.105 235.485ZM207.59 236.906C207.34 242.561 207.245 242.778 204.704 243.527C201.229 244.552 176.963 244.821 171.522 243.896L167.244 243.167L167.801 237.84C168.108 234.91 168.488 232.383 168.647 232.226C168.805 232.067 171.267 232.376 174.119 232.912C179.887 233.995 199.581 233.429 203.828 232.058C205.273 231.59 206.769 231.175 207.152 231.133C207.535 231.092 207.732 233.69 207.59 236.906ZM220.044 242.144C224.265 243.281 229.211 243.683 239.3 243.707C252.343 243.738 256.336 243.166 264.271 240.123C265.472 239.663 265.623 240.451 265.398 246.01L265.139 252.428L261.197 253.669C255.01 255.617 229.089 256.056 221.006 254.347C211.17 252.27 210.397 251.526 210.397 244.145V238.019L212.38 239.317C213.47 240.031 216.918 241.303 220.044 242.144ZM166.337 249.135C166.056 251.858 165.31 254.407 164.681 254.801C163.064 255.812 155.866 257.093 148.466 257.687C141.522 258.243 141.683 258.327 135.973 251.186L133.523 248.123L144.589 248.057C153.455 248.004 156.612 247.636 160.472 246.204C163.122 245.222 165.64 244.366 166.069 244.302C166.497 244.238 166.618 246.412 166.337 249.135ZM208.645 249.786V255.388L204.047 256.542C198.95 257.822 176.091 258.171 170.764 257.05L167.479 256.357V250.616C167.479 245.488 167.644 244.941 169.012 245.507C172.177 246.815 195.753 246.913 201.2 245.641C204.09 244.965 206.948 244.362 207.55 244.299C208.323 244.218 208.645 245.828 208.645 249.786ZM229.952 257.339C240.883 258.512 254.303 257.385 261.373 254.701L265.577 253.105V259.532C265.577 263.224 265.17 266.211 264.623 266.549C257.041 271.231 224.428 271.476 214.119 266.929L210.397 265.286V258.775V252.264L215.433 254.294C218.491 255.526 224.193 256.722 229.952 257.339ZM165.065 265.325C164.294 266.095 153.263 268.67 150.837 268.645C150.115 268.638 148.246 266.775 146.684 264.504L143.844 260.375L151.641 259.316C155.928 258.734 160.753 257.718 162.363 257.059L165.289 255.862L165.558 260.212C165.706 262.605 165.485 264.906 165.065 265.325ZM208.468 262.746L208.207 268.18L204.704 268.988C200.212 270.025 178.209 270.22 171.639 269.282L166.603 268.563L166.616 264.469C166.636 258.733 167.16 258.196 171.862 259.103C177.619 260.212 195.184 259.944 200.762 258.662C209.084 256.748 208.764 256.579 208.468 262.746ZM165.166 272.045L164.602 277.44L161.128 278.375C157.362 279.388 157.477 279.466 153.205 272.973L151.631 270.58L156.27 269.612C158.822 269.08 161.895 268.13 163.1 267.501C164.304 266.872 165.388 266.423 165.51 266.504C165.631 266.584 165.477 269.078 165.166 272.045ZM213.707 268.286C222.566 272.702 247.789 273.474 259.445 269.687C262.577 268.669 265.294 267.831 265.485 267.825C266.375 267.796 264.603 279.586 263.624 280.198C258.432 283.446 228.556 284.336 218.317 281.548C210.722 279.481 209.521 278.265 209.521 272.638C209.521 268.861 209.968 266.939 210.846 266.939C210.933 266.939 212.22 267.545 213.707 268.286ZM208.645 274.711V279.858L204.485 280.927C194.41 283.516 167.425 282.809 165.631 279.911C165.245 279.286 164.834 281.011 164.681 283.895L164.413 288.981L161.567 284.935C160.002 282.71 158.72 280.755 158.72 280.592C158.72 280.427 160.494 279.797 162.662 279.191C166.579 278.095 166.603 278.064 166.603 274.181V270.275L171.201 271.013C177.379 272.006 200.54 271.714 203.828 270.603C208.469 269.034 208.645 269.183 208.645 274.711ZM222.746 284.104C234.203 286.533 253.979 285.198 263.211 281.374C264.651 280.777 264.764 281.236 264.525 286.738L264.263 292.753L260.812 293.881C247.238 298.311 217.017 296.962 211.054 291.66C209.899 290.632 209.521 288.93 209.521 284.757V279.219L212.892 280.974C214.746 281.94 219.181 283.348 222.746 284.104ZM208.645 287.426V293.034L202.365 294.093C195.4 295.267 179.097 295.524 172.252 294.569C166.933 293.826 165.935 292.489 166.427 286.771C166.76 282.906 166.955 282.588 168.668 283.132C172.718 284.417 195.841 284.513 201.2 283.266C204.09 282.594 206.948 281.993 207.55 281.93C208.324 281.849 208.645 283.46 208.645 287.426ZM22.0538 287.492C25.1097 288.689 28.6184 290.328 29.8508 291.135C31.9739 292.525 32.0011 292.637 30.3728 293.273C28.3189 294.076 9.34842 294.269 6.53775 293.517C4.87447 293.071 4.56704 292.391 4.56704 289.152V285.317H10.5317C14.8121 285.317 18.0668 285.931 22.0538 287.492Z" fill="black"/>
</g>
</svg>
