<svg width="339" height="136" viewBox="0 0 339 136" fill="none" xmlns="http://www.w3.org/2000/svg">
<path d="M323.207 81.6696C322.615 88.4751 317.944 94.8344 309.47 100.465C301.012 106.085 288.976 110.828 274.164 114.431C244.557 121.632 204.202 124.195 160.136 120.363C116.07 116.531 76.7622 107.04 48.8427 94.8364C34.8756 88.7313 23.8382 81.9818 16.4774 74.9861C9.10268 67.9773 5.59975 60.9072 6.19156 54.1017C6.78337 47.2962 11.4541 40.9369 19.928 35.3063C28.3859 29.6863 40.4226 24.9432 55.2339 21.3408C84.8409 14.1396 125.197 11.5762 169.263 15.4082C213.328 19.2402 252.636 28.7312 280.556 40.9349C294.523 47.0399 305.56 53.7895 312.921 60.7851C320.296 67.794 323.798 74.8641 323.207 81.6696Z" stroke="#3FB488" stroke-width="3"/>
<path d="M334.317 61.2835C334.68 68.1051 330.941 75.0535 323.335 81.8104C315.743 88.5547 304.485 94.9295 290.321 100.562C262.007 111.82 222.402 119.984 178.233 122.333C134.063 124.682 93.816 120.764 64.4678 112.571C49.7859 108.473 37.9154 103.328 29.6512 97.427C21.3714 91.5148 16.917 85.002 16.5543 78.1805C16.1915 71.359 19.9301 64.4106 27.5363 57.6536C35.1281 50.9093 46.386 44.5345 60.5505 38.9024C88.8644 27.644 128.469 19.4796 172.639 17.1309C216.808 14.7822 257.055 18.7005 286.403 26.8927C301.085 30.991 312.956 36.1359 321.22 42.037C329.5 47.9493 333.954 54.462 334.317 61.2835Z" stroke="#3FB488" stroke-width="3"/>
</svg>
