<svg width="302" height="266" viewBox="0 0 302 266" fill="none" xmlns="http://www.w3.org/2000/svg">
<mask id="mask0_495_11399" style="mask-type:alpha" maskUnits="userSpaceOnUse" x="0" y="0" width="302" height="266">
<rect x="0.657227" width="301.343" height="266" fill="#D9D9D9"/>
</mask>
<g mask="url(#mask0_495_11399)">
<path fill-rule="evenodd" clip-rule="evenodd" d="M226.625 1.44187C226.297 1.97125 224.747 2.14465 223.101 1.83639C220.997 1.44279 219.517 1.77675 217.89 3.01441C216.64 3.96491 214.154 5.41634 212.366 6.24114C207.598 8.43664 203.469 13.9717 203.743 17.7976C203.865 19.4921 204.375 21.2885 204.877 21.7895C205.476 22.3877 205.482 23.6923 204.893 25.5896C203.46 30.1999 203.764 42.949 205.424 47.94C207.257 53.4503 211.416 58.145 215.121 58.8854C218.094 59.479 218.349 59.8616 217.093 61.8397C215.617 64.1673 195.822 49.8786 181.901 36.4368L172.989 27.8319L167.479 31.1733C154.68 38.9378 134.398 46.5473 118.233 49.6493C113.177 50.62 105.813 51.2172 99.2821 51.187L88.601 51.1374L86.8793 58.6157C84.4061 69.3638 84.5678 100.319 87.1733 114.721C88.9942 124.789 88.9942 124.818 87.1742 127.284C85.7024 129.276 85.4543 130.639 85.8917 134.324C86.5706 140.048 88.1067 142.571 91.4435 143.441L94.0545 144.121L89.595 147.006C83.8264 150.739 74.4673 160.491 71.9784 165.363C69.2002 170.801 65.5556 183.846 63.8266 194.54C60.804 213.23 62.2721 249.932 66.8455 270.059C67.5695 273.244 68.162 276.389 68.162 277.046C68.162 277.704 65.7054 279.137 62.7021 280.231C57.322 282.19 54.9241 284.903 56.8617 286.838C58.0891 288.063 71.7524 289.594 75.4861 288.923C79.8841 288.134 81.0325 287.031 80.9783 283.652C80.9535 282.073 84.5494 267.334 88.9703 250.898L97.0083 221.013L105.783 219.907C110.609 219.299 119.248 217.751 124.981 216.468C130.714 215.185 135.58 214.311 135.796 214.526C136.012 214.742 135.563 217.558 134.797 220.784C130.901 237.219 132.093 249.81 138.853 263.613C144.849 275.856 154.488 291.361 160.186 297.93C165.974 304.602 181.962 318.43 194.837 327.899C200.082 331.757 205.439 335.791 206.742 336.865L209.11 338.817L204.444 341.178C201.798 342.517 199.569 344.339 199.295 345.386C198.437 348.662 200.734 349.417 210.083 348.929C220.005 348.411 223.427 346.899 223.427 343.031C223.427 341.718 220.336 333.89 216.559 325.637C203.889 297.959 194.669 273.665 193.503 264.887C192.929 260.563 192.997 260.41 197.833 255.125C200.535 252.173 209.363 243.888 217.451 236.715C232.45 223.412 239.169 216.598 246.243 207.515C249.026 203.942 251.653 201.739 254.971 200.197C263.291 196.33 271.91 186.175 277.576 173.564C282.041 163.625 281.612 162.96 276.902 172.521C266.434 193.775 256.914 201.435 240.997 201.41C228.364 201.391 219.137 197.805 210.223 189.45C203.561 183.207 199.208 176.33 195.825 166.702C193.674 160.581 192.897 159.412 189.788 157.628C187.824 156.502 185.805 155.423 185.3 155.231C184.795 155.039 184.704 154.537 185.099 154.116C185.493 153.696 187.072 154.092 188.607 154.997C192.112 157.065 193.137 156.215 190.51 153.421C187.353 150.065 188.11 148.403 191.395 151.477L194.274 154.172L193.68 150.273C192.993 145.757 194.204 145.122 195.865 149.126C197.192 152.325 198.258 152.629 199.081 150.043C199.401 149.034 200.256 148.208 200.98 148.208C202.659 148.208 202.649 149.227 200.948 151.473C198.595 154.579 199.306 155.278 205.309 155.759C211.94 156.291 217.025 158.57 224.503 164.364L229.713 168.401L230.814 164.956C231.419 163.061 232.877 159.559 234.054 157.173C235.969 153.289 236.04 152.747 234.723 152.011C233.501 151.329 233.339 150.039 233.773 144.423C234.276 137.902 237.071 124.829 237.805 125.562C238.002 125.759 237.541 128.596 236.782 131.865C236.023 135.136 235.291 140.874 235.156 144.615L234.911 151.419L239.588 152.97C242.161 153.822 251.463 156.007 260.26 157.823C269.057 159.641 277.582 161.48 279.207 161.912C281.194 162.439 282.442 162.352 283.022 161.645C286.07 157.928 288.208 137.349 286.784 125.433C283.553 98.3852 269.571 78.7293 246.421 68.6913L239.505 65.6921L239.235 59.2185C238.973 52.965 239.067 52.643 241.991 49.7319C245.784 45.9546 248.233 42.6389 248.233 41.2792C248.233 40.7031 249.074 39.4709 250.102 38.5415C251.131 37.6121 251.779 36.3488 251.543 35.7331C251.306 35.1184 251.917 33.8881 252.9 33C254.4 31.644 254.593 30.6366 254.102 26.7209C253.78 24.1556 253.154 21.6638 252.712 21.1849C252.27 20.7059 251.908 19.7949 251.908 19.1609C251.908 16.4388 243.246 6.00077 240.987 6.00077C240.283 6.00077 239.207 5.31726 238.594 4.48144C237.982 3.64563 236.697 2.89789 235.737 2.81899C234.778 2.74101 233.089 2.18594 231.986 1.58683C229.517 0.245496 227.401 0.187696 226.625 1.44187ZM210.088 23.9648C211.671 24.9997 212.763 25.1575 213.913 24.5153C214.82 24.0079 216.376 23.94 217.484 24.3611C218.563 24.7703 220.029 24.7465 220.74 24.3079C221.452 23.8684 222.937 23.7354 224.042 24.0125C225.146 24.2896 226.755 24.1217 227.615 23.6409C230.928 21.7895 235.907 25.5511 235.446 29.5567C235.378 30.1494 235.746 30.8962 236.264 31.2164C236.783 31.5366 237.208 32.7816 237.208 33.9835C237.208 35.1854 237.632 36.4304 238.151 36.7506C238.67 37.0708 239.034 37.8176 238.961 38.4103C238.589 41.4196 239.078 41.9205 241.802 41.3233C244.289 40.7774 244.558 40.9416 244.558 43.0105C244.558 46.5914 243.702 48.0162 240.278 50.1282L237.1 52.0897L237.718 59.1533L238.334 66.216L235.404 68.6785C233.792 70.0327 232.056 71.141 231.545 71.141C231.034 71.141 227.925 69.6381 224.636 67.8014C219.036 64.6737 218.689 64.2921 219.186 61.8085C219.643 59.5313 219.363 59.0267 217.208 58.2487C211.914 56.3339 210.467 55.0669 208.131 50.3016C205.226 44.372 204.347 35.3753 205.928 27.7695C206.529 24.8795 207.212 22.5152 207.447 22.5152C207.681 22.5152 208.87 23.1675 210.088 23.9648ZM182.46 37.9296C197.283 52.3072 211.679 62.303 233.586 73.4273L245.249 79.3486L244.508 83.2726C241.691 98.1998 229.334 127.025 217.153 147.08C213.485 153.118 211.593 155.434 210.628 155.064C209.881 154.778 207.551 154.308 205.451 154.021L201.633 153.498L207.183 144.681C217.035 129.028 229.09 100.874 231.21 88.5728L231.763 85.3617L221.918 80.3156C210.21 74.3154 192.979 63.092 185.3 56.4661L179.787 51.7099L185.3 56.9266C192.245 63.5003 206.466 73.0456 220.177 80.3367C230.264 85.7002 230.747 86.0893 230.216 88.4187C226.816 103.342 218.097 124.019 208.036 141.024C204.28 147.37 203.698 147.955 202.109 146.987C200.675 146.114 200.125 146.213 199.153 147.52C197.616 149.586 197.107 149.543 196.519 147.295C196.256 146.289 195.339 145.196 194.482 144.868C192.776 144.214 191.182 145.99 191.87 147.779C192.16 148.535 191.547 148.749 189.958 148.445C188.259 148.121 187.44 148.467 186.964 149.709C186.603 150.65 185.498 152.075 184.51 152.876C182.17 154.772 183.119 156.214 188.175 158.447C190.946 159.671 192.19 160.778 192.19 162.019C192.19 164.463 182.105 174.226 174.488 179.157C165.312 185.098 159.316 187.003 149.469 187.111C142.086 187.19 140.757 186.94 137.054 184.766C121.87 175.852 109.011 149.973 102.93 116.097C100.622 103.238 100.145 79.5954 101.993 69.6271L103.209 63.0663L110.721 63.3783L118.233 63.6911L110.883 62.9058C106.84 62.4736 103.243 62.3957 102.888 62.7333C101.576 63.9801 99.3988 79.9138 99.3988 88.2701C99.3988 129.971 117.298 176.274 137.259 186.207C141.036 188.087 143.36 188.575 148.501 188.566C161.58 188.544 173.344 183.206 185.371 171.838L192.986 164.639L194.885 168.926C195.93 171.284 196.784 173.728 196.784 174.356C196.784 175.985 184.399 187.501 178.408 191.44C166.233 199.447 157.346 202.339 144.916 202.339C138.247 202.339 136.132 201.951 131.904 199.953C119.927 194.295 108.084 177.641 98.8466 153.471C95.2921 144.169 95.1239 142.885 97.2554 141.329C98.289 140.574 98.786 138.878 98.786 136.112C98.786 130.836 98.1107 129.859 94.4597 129.859H91.4674L89.9056 121.372C85.6427 98.2108 84.8654 75.6219 87.8118 60.48L89.4398 52.1127L97.4052 52.5402C115.898 53.5329 145.322 45.1473 165.562 33.1165C169.343 30.8687 172.607 29.009 172.813 28.9833C173.02 28.9586 177.361 32.9844 182.46 37.9296ZM207.349 31.6899C207.037 32.1945 207.657 32.6073 208.727 32.6073C209.798 32.6073 210.418 32.1945 210.105 31.6899C209.793 31.1852 209.173 30.7724 208.727 30.7724C208.282 30.7724 207.662 31.1852 207.349 31.6899ZM223.886 31.6899C224.897 32.1238 226.964 32.5009 228.48 32.5284C230.585 32.567 230.911 32.3688 229.858 31.6899C229.1 31.2008 227.033 30.8228 225.264 30.8513C222.637 30.8926 222.385 31.0458 223.886 31.6899ZM213.411 38.5424C212.351 41.371 211.484 44.2619 211.484 44.9656C211.484 46.3125 214.909 47.8419 215.84 46.9116C216.139 46.6134 215.694 46.3693 214.853 46.3693C212.959 46.3693 212.911 44.35 214.665 38.5305C216.535 32.3257 215.737 32.333 213.411 38.5424ZM208.727 37.5993C208.727 38.3855 209.141 39.0296 209.646 39.0296C210.151 39.0296 210.565 38.6415 210.565 38.1663C210.565 37.691 210.151 37.0479 209.646 36.7359C209.141 36.424 208.727 36.813 208.727 37.5993ZM221.17 37.1314C220.878 37.6011 221.061 38.2442 221.575 38.5617C222.088 38.8782 222.508 38.4938 222.508 37.7075C222.508 36.0955 221.957 35.8588 221.17 37.1314ZM173.356 45.4519C174.271 46.4611 175.226 47.2868 175.479 47.2868C175.731 47.2868 175.189 46.4611 174.275 45.4519C173.361 44.4427 172.405 43.6169 172.153 43.6169C171.9 43.6169 172.442 44.4427 173.356 45.4519ZM164.115 47.796C162.402 49.1667 162.413 49.1832 164.399 48.2226C165.536 47.6721 166.466 47.0299 166.466 46.796C166.466 46.0941 165.989 46.2969 164.115 47.796ZM217.815 52.7384C216.606 53.743 216.055 54.5788 216.591 54.5963C218.015 54.6403 221.222 52.1191 220.57 51.4677C220.263 51.1613 219.024 51.7329 217.815 52.7384ZM153.604 52.7916C152.846 53.2806 152.639 53.6806 153.144 53.6806C153.65 53.6806 154.683 53.2806 155.441 52.7916C156.199 52.3026 156.406 51.9026 155.901 51.9026C155.395 51.9026 154.362 52.3026 153.604 52.7916ZM147.173 55.544C146.415 56.033 146.208 56.433 146.713 56.433C147.219 56.433 148.252 56.033 149.01 55.544C149.768 55.055 149.975 54.655 149.469 54.655C148.964 54.655 147.931 55.055 147.173 55.544ZM135.689 59.2139C134.53 59.7111 134.361 60.002 135.229 60.002C135.987 60.002 137.434 59.6478 138.445 59.2139C139.603 58.7166 139.772 58.4258 138.904 58.4258C138.146 58.4258 136.699 58.7799 135.689 59.2139ZM124.204 61.5406C120.055 62.336 119.215 62.6892 121.448 62.6966C123.217 62.703 126.731 62.1773 129.257 61.5287C135.089 60.0313 132.033 60.0387 124.204 61.5406ZM189.591 94.9006C185.473 97.3723 175.589 103.905 167.624 109.417C159.661 114.929 152.617 119.75 151.973 120.13C151.209 120.581 147.74 117.927 141.993 112.495C137.148 107.916 132.788 104.17 132.305 104.17C131.158 104.17 124.702 108.657 120.156 112.615C117.246 115.147 116.674 116.165 117.133 117.982C117.79 120.581 128.998 133.53 139.605 143.944L146.943 151.148L151.272 149.236C163.265 143.937 209.053 110.346 210.926 105.471C211.223 104.699 210.91 102.749 210.232 101.137C208.713 97.5273 201.119 90.4078 198.789 90.4078C197.847 90.4078 193.708 92.4299 189.591 94.9006ZM282.704 113.933C284.558 119.997 284.544 121.837 282.622 124.205C282.483 124.376 280.58 123.472 278.394 122.197C276.206 120.922 272.226 119.591 269.549 119.24L264.682 118.602L264.955 113.914L265.229 109.228L271.66 108.189C275.197 107.619 278.678 107.203 279.397 107.266C280.179 107.335 281.503 110.005 282.704 113.933ZM277.852 123.311C282.342 125.67 282.956 125.787 283.864 124.458C284.64 123.32 284.886 124.63 284.928 130.123L284.982 137.267L276.484 137.004L267.985 136.74L267.023 128.712L266.062 120.684H269.456C271.416 120.684 274.967 121.795 277.852 123.311ZM90.2115 130.013C90.2115 131.623 90.6755 131.841 93.4271 131.519C96.6601 131.142 97.8324 132.213 95.2645 133.197C94.5066 133.487 93.8864 134.138 93.8864 134.643C93.8864 135.147 94.4404 135.347 95.1184 135.088C95.7955 134.829 96.9054 134.958 97.5834 135.377C98.4837 135.933 97.9647 136.531 95.6623 137.589C92.7472 138.931 92.6994 139.015 95.0348 138.706C98.2596 138.278 98.3818 140.201 95.2213 141.638C91.8478 143.174 90.5 142.967 88.8858 140.664C87.4627 138.636 86.8315 128.952 88.0424 127.743C89.0199 126.767 90.2115 128.014 90.2115 130.013ZM97.0615 152.566C103.399 170.628 114.889 189.393 124.028 196.608L128.541 200.171L117.874 202.134C104.891 204.524 91.223 208.393 89.1531 210.264C83.8245 215.08 77.2391 242.917 75.0213 270.002C74.4351 277.167 74.2863 277.571 72.2357 277.571C69.7432 277.571 69.124 275.828 66.8639 262.433C64.1601 246.404 63.3277 233.63 63.8257 215.804C64.6011 188.075 68.9163 169.86 77.1252 159.664C81.1308 154.687 91.9791 145.456 93.8203 145.456C94.2309 145.456 95.6899 148.656 97.0615 152.566ZM200.78 180.626C204.197 186.448 212.631 194.615 218.153 197.446C220.801 198.804 225.422 200.599 228.423 201.434L233.878 202.954L227.964 206.934C208.211 220.229 182.97 241.604 181.268 246.478C179.694 250.987 180.055 261.376 182.058 269.208C185.683 283.388 197.418 308.325 209.462 327.439C212.595 332.412 215.158 336.643 215.158 336.843C215.158 337.043 213.967 337.206 212.51 337.206C209.545 337.206 198.191 329.382 182.084 316.24C162.454 300.221 154.674 290.615 141.743 266.426C132.532 249.196 132.056 239.665 138.877 209.101L139.928 204.393L147.914 203.976C162.525 203.213 176.579 196.396 190.122 183.503C194.039 179.775 197.514 176.708 197.845 176.687C198.176 176.666 199.497 178.439 200.78 180.626ZM134.325 202.562C138.147 203.754 138.442 204.416 137.421 209.512C136.883 212.201 136.501 212.411 128.923 214.178C117.557 216.83 105.315 218.853 100.637 218.853C97.3261 218.853 96.446 219.223 95.7276 220.918C95.2461 222.053 91.9277 233.923 88.3538 247.295C80.0026 278.537 80.3269 277.571 78.1964 277.571C75.816 277.571 75.883 275.243 78.8028 256.533C81.604 238.582 85.594 222.485 88.8178 216.132C91.0917 211.65 91.2616 211.533 98.7107 209.275C104.923 207.392 115.515 204.726 127.42 202.048C130.432 201.37 130.522 201.376 134.325 202.562ZM238.557 207.28L242.202 210.36L239.759 214.046C238.416 216.073 232.435 221.998 226.467 227.213C196.078 253.771 191.817 258.306 192.035 263.861C192.322 271.169 201.106 295.018 213.467 322.05C216.924 329.609 219.752 335.906 219.752 336.041C219.752 336.178 219.004 336.289 218.091 336.289C216.19 336.289 209.351 324.985 199.931 306.27C185.717 278.036 180.112 256.871 184.243 247.036C185.394 244.298 193.218 236.738 206.328 225.701C212.611 220.411 233.775 204.244 234.452 204.219C234.704 204.209 236.552 205.587 238.557 207.28Z" fill="black"/>
</g>
</svg>
