<svg width="40" height="10" viewBox="0 0 40 10" fill="none" xmlns="http://www.w3.org/2000/svg">
<path d="M15.177 0.167076L9.94239 9.21283H6.51852L3.95062 1.981C3.78601 1.52752 3.65432 1.38431 3.19342 1.19338C2.17914 0.839463 1.10566 0.582723 0 0.429618L0.0658436 0.167076H5.56379C6.30694 0.169508 6.93632 0.564951 7.04527 1.09791L8.39506 6.32487L11.7531 0.167076H15.177ZM28.5761 6.25327C28.5761 3.86653 24.0329 3.72332 24.0658 2.67315C24.0658 2.33901 24.4938 2.00487 25.4486 1.9094C26.5439 1.83525 27.6467 1.97536 28.642 2.31514L29.2016 0.40575C28.235 0.136663 27.2083 -0.000885736 26.1728 4.29174e-06C22.9794 4.29174e-06 20.7407 1.24111 20.7078 2.98343C20.6749 4.29614 22.321 5.01216 23.5391 5.44177C24.7572 5.87139 25.2181 6.18166 25.2181 6.56354C25.2181 7.16023 24.1975 7.44664 23.2757 7.44664C22.1173 7.46985 20.9708 7.27234 19.9506 6.87382L19.358 8.85482C20.498 9.18654 21.7183 9.34886 22.9465 9.33216C26.3374 9.35603 28.5432 8.13879 28.5761 6.25327ZM37.0041 9.21283H40L37.3992 0.167076H34.6337C34.0268 0.161805 33.4777 0.427197 33.251 0.835364L28.3786 9.21283H31.7695L32.428 7.85238H36.5761L37.0041 9.21283ZM33.3827 6.01459L35.0947 2.62542L36.0823 6.01459H33.3827ZM19.786 0.167076L17.1193 9.21283H13.893L16.5597 0.167076H19.786Z" fill="#1A1F71"/>
</svg>
