<?xml version="1.0" encoding="utf-8"?>
<!-- Generator: Adobe Illustrator 16.0.0, SVG Export Plug-In . SVG Version: 6.00 Build 0)  -->
<!DOCTYPE svg PUBLIC "-//W3C//DTD SVG 1.1//EN" "http://www.w3.org/Graphics/SVG/1.1/DTD/svg11.dtd">
<svg version="1.1" id="Layer_1" xmlns="http://www.w3.org/2000/svg" xmlns:xlink="http://www.w3.org/1999/xlink" x="0px" y="0px"
	 width="139px" height="34px" viewBox="0 0 139 34" enable-background="new 0 0 139 34" xml:space="preserve">
<path fill="#5F5F5F" d="M6.789,30H0.856L9.895,3.818h7.133L26.054,30h-5.932L13.564,9.801h-0.205L6.789,30z M6.417,19.709h14.012
	v4.32H6.417V19.709z M35.425,30.319c-1.492,0-2.842-0.384-4.053-1.15c-1.202-0.775-2.156-1.913-2.864-3.413
	c-0.699-1.509-1.048-3.358-1.048-5.549c0-2.25,0.362-4.121,1.087-5.612c0.725-1.5,1.688-2.621,2.889-3.362
	c1.21-0.75,2.536-1.125,3.976-1.125c1.099,0,2.016,0.188,2.749,0.563c0.741,0.367,1.338,0.827,1.79,1.381
	c0.46,0.545,0.81,1.082,1.048,1.611h0.167V3.818h5.433V30h-5.37v-3.145h-0.23c-0.256,0.545-0.618,1.086-1.086,1.623
	c-0.46,0.528-1.061,0.967-1.803,1.316C37.376,30.145,36.481,30.319,35.425,30.319z M37.15,25.986c0.878,0,1.62-0.239,2.225-0.717
	c0.614-0.485,1.083-1.163,1.406-2.032c0.333-0.869,0.499-1.888,0.499-3.056S41.118,18,40.794,17.139s-0.792-1.525-1.406-1.994
	s-1.359-0.703-2.237-0.703c-0.895,0-1.649,0.243-2.263,0.729s-1.078,1.159-1.394,2.02c-0.315,0.86-0.473,1.858-0.473,2.991
	c0,1.143,0.158,2.152,0.473,3.029c0.324,0.87,0.789,1.552,1.394,2.046C35.501,25.743,36.256,25.986,37.15,25.986z"/>
<path fill="#FFFFFF" d="M51.275,3.818h6.827l7.21,17.591h0.307L72.83,3.818h6.826V30h-5.369V12.959H74.07l-6.776,16.913h-3.656
	l-6.775-16.977h-0.217V30h-5.37V3.818z M84.115,30V10.364h5.445V30H84.115z M86.851,7.833c-0.81,0-1.505-0.269-2.084-0.806
	C84.195,6.481,83.91,5.83,83.91,5.071c0-0.75,0.285-1.394,0.856-1.931c0.579-0.545,1.274-0.818,2.084-0.818s1.5,0.273,2.071,0.818
	c0.579,0.537,0.869,1.181,0.869,1.931c0,0.758-0.29,1.41-0.869,1.956C88.351,7.564,87.66,7.833,86.851,7.833z M99.369,18.647V30
	h-5.445V10.364h5.189v3.464h0.23c0.435-1.142,1.163-2.045,2.186-2.71c1.023-0.674,2.264-1.01,3.721-1.01
	c1.363,0,2.553,0.298,3.566,0.895c1.015,0.597,1.803,1.449,2.365,2.557c0.563,1.1,0.844,2.412,0.844,3.938V30h-5.445V18.469
	c0.008-1.202-0.299-2.139-0.921-2.813c-0.622-0.682-1.479-1.023-2.57-1.023c-0.731,0-1.38,0.158-1.942,0.473
	c-0.555,0.315-0.988,0.775-1.305,1.381C99.535,17.084,99.378,17.805,99.369,18.647z M126.762,10.364v4.091h-11.824v-4.091H126.762z
	 M117.622,5.659h5.446v18.307c0,0.503,0.076,0.896,0.229,1.177c0.153,0.272,0.366,0.464,0.64,0.574
	c0.28,0.111,0.604,0.166,0.972,0.166c0.255,0,0.511-0.021,0.767-0.063c0.256-0.051,0.451-0.089,0.588-0.114l0.856,4.052
	c-0.272,0.085-0.656,0.184-1.149,0.294c-0.496,0.119-1.096,0.192-1.804,0.218c-1.312,0.051-2.463-0.124-3.451-0.524
	c-0.981-0.4-1.743-1.022-2.289-1.866c-0.545-0.844-0.813-1.909-0.805-3.196V5.659z"/>
<path fill="#FFFFFF" d="M133.493,30.332c-0.843,0-1.568-0.298-2.173-0.895c-0.598-0.605-0.896-1.33-0.896-2.174
	c0-0.834,0.298-1.551,0.896-2.146c0.604-0.598,1.33-0.896,2.173-0.896c0.817,0,1.534,0.298,2.147,0.896
	c0.614,0.596,0.92,1.313,0.92,2.146c0,0.563-0.144,1.078-0.434,1.547c-0.281,0.461-0.652,0.832-1.111,1.113
	C134.555,30.195,134.047,30.332,133.493,30.332z"/>
</svg>
