<svg width="401" height="276" viewBox="0 0 401 276" fill="none" xmlns="http://www.w3.org/2000/svg">
<mask id="mask0_495_11758" style="mask-type:alpha" maskUnits="userSpaceOnUse" x="0" y="0" width="401" height="276">
<rect width="401" height="276" fill="#D9D9D9"/>
</mask>
<g mask="url(#mask0_495_11758)">
<path fill-rule="evenodd" clip-rule="evenodd" d="M270.529 20.1033C269.652 23.0248 268.672 27.2817 268.351 29.5649C267.823 33.3069 268.001 33.7794 270.158 34.356C271.474 34.709 273.058 35.0034 273.676 35.0105C274.951 35.0267 279.814 24.7446 280.753 20.0547C281.33 17.1645 281.125 16.9045 277.466 15.8878C272.031 14.3785 272.296 14.2176 270.529 20.1033ZM184.185 30.6008C181.364 32.5765 181.642 35.0317 185.642 43.4828C188.37 49.245 189.671 50.0442 193.229 48.1403C195.714 46.81 195.686 45.2956 193.018 36.2892C190.644 28.2771 189.006 27.222 184.185 30.6008ZM71.0453 39.2937C69.7943 39.8976 68.7789 41.1187 68.791 42.0079C68.8133 43.7165 73.3602 57.1508 74.2006 57.9915C74.4716 58.2626 76.1524 58.1635 77.9354 57.772L81.1777 57.0598L80.585 50.8474C79.4392 38.8304 77.3225 36.2659 71.0453 39.2937ZM282.22 52.8312C280.501 54.2788 277.264 58.5974 275.027 62.4295C270.396 70.3606 272.394 70.2442 258.452 63.3935C250.055 59.2671 241.98 58.1624 239.359 60.7835C237.01 63.1335 237.235 67.3186 239.859 70.1137L242.059 72.4546H239.05C233.833 72.4546 231.944 76.6994 235.133 81.2537C236.572 83.3083 236.489 83.457 233.551 84.1024C231.659 84.5182 230.015 85.7433 229.329 87.2465C227.817 90.5667 230.264 93.819 238.75 99.7684C245.078 104.204 245.237 104.424 244.917 108.358C244.516 113.289 245.247 112.813 246.047 107.624C246.626 103.875 246.571 103.804 239.096 98.6354C231.718 93.5327 229.622 90.5748 230.946 87.1251C231.941 84.5303 238.385 85.2931 244.363 88.7144C251.492 92.7943 251.424 91.0988 244.288 86.8297C239.187 83.7777 234.626 79.3488 234.626 77.449C234.626 77.0069 235.388 75.884 236.319 74.9523C238.418 72.8532 242.928 73.4308 249.306 76.6164C251.792 77.8597 254.1 78.6022 254.434 78.2684C254.768 77.9346 253.52 76.8815 251.66 75.9275C243.519 71.7515 239.683 68.395 239.683 65.4481C239.683 60.6095 241.842 59.7406 248.954 61.7183C252.342 62.6601 258.157 65.0061 261.875 66.9312C271.173 71.7445 272.439 71.5836 275.688 65.1699C280.817 55.0436 285.927 50.3446 290.297 51.7316C294.342 53.0163 293.769 60.3951 288.542 74.3514C285.893 81.4216 282.691 98.7345 281.689 111.402C281.337 115.853 280.814 121.138 280.527 123.146L280.006 126.797L275.308 125.919C272.724 125.436 264.585 124.931 257.221 124.797L243.832 124.553L243.437 121.518L243.041 118.483L242.879 121.771C242.734 124.705 242.394 125.059 239.718 125.059C237.872 125.059 236.348 125.755 235.751 126.871C232.93 132.142 224.531 186.456 215.931 255.039C211.342 291.64 209.924 308.285 213.557 282.908C214.629 275.416 215.6 269.195 215.714 269.081C215.827 268.968 218.28 269.488 221.167 270.237C229.332 272.355 250.831 274.802 267.241 275.481L282.158 276.098L282.337 288.336L282.516 300.575L283.218 285.401C283.605 277.055 283.979 257.82 284.051 242.657L284.181 215.087L287.466 216.428C289.915 217.428 291.188 218.909 292.468 222.248C293.411 224.712 294.209 226.167 294.24 225.482C294.27 224.799 293.601 222.522 292.756 220.424C291.415 217.1 290.335 216.253 284.346 213.826C273.673 209.5 268.855 203.109 273.081 198.883C274.867 197.096 275.93 196.85 279.35 197.428C281.615 197.811 284.98 198.755 286.827 199.527C290.613 201.109 294.223 201.425 292.727 200.043C292.198 199.556 289.303 198.356 286.294 197.379C283.285 196.401 279.234 194.145 277.293 192.366C274.379 189.695 273.881 188.662 274.437 186.447C274.857 184.774 276.016 183.537 277.516 183.159C279.7 182.611 288.106 184.328 292.524 186.224C293.593 186.684 294.294 186.546 294.294 185.878C294.294 185.271 291.678 183.452 288.479 181.835C281.186 178.15 278.875 175.66 279.301 171.955C279.813 167.514 283.506 166.744 293.967 168.897C298.728 169.878 302.837 170.466 303.098 170.206C303.358 169.945 304.491 165.485 305.616 160.294C308.064 148.988 310.648 143.537 314.198 142.187C319.936 140.005 322.012 145.457 323.66 167.041C324.805 182.03 328.089 206.47 329.725 212.179C331.246 217.485 331.089 217.718 324.381 220.117C311.154 224.846 295.703 231.831 293.036 234.288C290.526 236.6 290.161 237.854 289.203 247.465C288.621 253.307 288.277 264.005 288.439 271.238C288.719 283.797 288.825 284.38 290.802 284.185C292.774 283.99 292.934 284.825 294.172 301.874C294.887 311.715 295.776 320.261 296.147 320.863C296.608 321.612 310.583 319.305 340.17 313.599C364.011 309.001 383.721 305.033 383.972 304.783C384.48 304.275 378.056 291.191 365.761 267.697C361.249 259.073 357.681 251.254 357.832 250.323C358.587 245.694 348.077 221.399 343.611 217.452C342.322 216.312 342.727 217.291 344.667 219.998C346.4 222.417 349.6 229.018 351.779 234.667C358.393 251.819 360.895 248.306 331.453 263.22C317.412 270.333 302.511 277.64 298.34 279.458L290.755 282.765L290.043 279.53C289.297 276.143 290.818 239.677 291.813 237.084C292.778 234.569 322.522 221.167 335.22 217.526C340.095 216.128 340.135 216.089 336.181 216.576L332.054 217.086L330.932 212.229C329.151 204.51 326.811 185.715 325.239 166.488C323.653 147.116 322.083 141.659 317.783 140.579C311.484 138.998 307.438 144.421 304.245 158.73L302.032 168.641L298.922 167.956C297.211 167.578 293.536 166.991 290.755 166.65L285.698 166.029L285.079 148.054C284.59 133.827 284.131 129.714 282.882 128.327C281.465 126.754 281.452 125.24 282.756 113.425C284.942 93.6288 286.845 83.9901 290.838 72.4951C294.754 61.2196 295.592 54.4984 293.406 51.8651C291.286 49.3098 285.847 49.7791 282.22 52.8312ZM55.4436 66.2503L52.1983 69.1507L57.5462 76.3665C60.4871 80.3351 63.3896 83.5824 63.9963 83.5824C64.6031 83.5824 66.1312 82.6133 67.3914 81.4287L69.683 79.275L67.0738 74.0945C63.8467 67.6848 60.837 63.35 59.6153 63.35C59.1056 63.35 57.2286 64.655 55.4436 66.2503ZM140.018 85.3528C139.142 87.4398 137.893 91.1241 137.241 93.5398C136.176 97.4942 136.253 98.0769 138.004 99.3566C139.074 100.14 140.554 100.78 141.295 100.78C142.909 100.78 148.141 92.7841 149.783 87.811C150.804 84.7144 150.717 84.0832 149.11 82.9077C148.096 82.1662 145.994 81.5592 144.439 81.5592C142.13 81.5592 141.32 82.2542 140.018 85.3528ZM91.6499 86.6992C87.8827 89.6633 81.6611 103.176 77.4034 117.64C73.1357 132.139 66.467 161.142 67.0202 162.801C67.2316 163.438 67.9789 161.01 68.6788 157.406C73.4684 132.772 83.6129 100.854 89.4452 92.0669C92.6511 87.2374 93.4571 86.6173 96.5315 86.6173C98.4399 86.6173 100.369 87.1868 100.82 87.8818C101.27 88.5778 101.883 94.7184 102.184 101.529C102.535 109.494 103.186 114.365 104.007 115.185C104.899 116.075 109.111 116.46 117.929 116.46C130.223 116.46 130.626 116.53 132.516 118.989C133.586 120.38 134.471 122.944 134.483 124.687L134.506 127.855L124.645 129.601C119.223 130.561 114.352 131.753 113.824 132.249C112.414 133.574 115.407 133.381 126.186 131.455C136.535 129.606 137.49 129.904 137.524 134.989C137.563 140.831 133.979 143.162 121.611 145.337C117.579 146.047 114.279 147.058 114.279 147.585C114.279 148.112 114.866 148.317 115.583 148.042C118.484 146.928 135.308 144.994 136.872 145.595C139.329 146.538 139.031 152.5 136.358 155.899C133.71 159.268 129.658 161.081 118.326 163.967C111.502 165.706 109.677 166.56 109.467 168.116C109.322 169.194 108.73 172.417 108.153 175.279L107.103 180.482L97.7967 177.185C92.6784 175.372 83.7737 172.587 78.0082 170.997C70.0542 168.802 67.3246 167.611 66.6945 166.056C65.9907 164.319 65.8541 164.278 65.7995 165.789C65.7459 167.296 65.1108 167.471 61.6845 166.923L57.6341 166.275L54.2472 173.739C52.3844 177.845 50.5691 182.032 50.2131 183.044C49.7236 184.433 49.0056 184.7 47.2843 184.133C41.7726 182.319 41.3711 182.693 35.7856 194.861C29.3617 208.852 22.4473 225.798 17.0043 240.889C13.3292 251.077 0 296.016 0 298.217C0 298.735 2.55156 299.022 5.67148 298.855L11.342 298.552L16.1407 283.883C26.3944 252.54 51.5945 186.314 52.3763 188.659C52.8759 190.158 43.0216 218.325 26.9011 261.484C19.3455 281.714 13.4142 298.671 13.7206 299.167C14.027 299.664 17.329 300.069 21.0577 300.069H27.8366L29.7348 293.241C35.0099 274.264 66.5752 190.805 67.4662 193.479C67.6533 194.04 59.142 218.322 48.5535 247.439C37.964 276.555 29.4193 300.487 29.567 300.622C29.7136 300.755 32.9296 301.027 36.7119 301.225L43.5899 301.587L47.9548 288.436C59.7417 252.919 82.9283 192.949 82.9283 197.981C82.9283 199.885 69.8509 236.63 58.7132 266.019C51.367 285.405 45.5145 301.423 45.7066 301.616C45.8998 301.808 49.4849 302.277 53.6738 302.657L61.2901 303.347L65.6478 288.304C68.0447 280.03 74.4554 260.515 79.8943 244.936C94.1377 204.141 95.5354 200.39 95.862 202.085C96.3384 204.558 86.8633 234.646 74.5323 269.815C63.5281 301.203 63.1266 302.633 65.1098 303.405C66.2486 303.848 69.0024 304.075 71.2303 303.91L75.2796 303.61L79.4746 288.941C89.0811 255.346 105.395 206.599 107.459 205.323C108.009 204.983 108.185 205.543 107.866 206.621C102.651 224.232 83.1659 285.934 80.4546 293.421C77.6411 301.19 77.1081 303.652 78.1033 304.295C81.9938 306.808 83.4228 303.959 94.5888 271.437C102.751 247.666 115.291 207.315 115.291 204.82C115.291 203.714 114.292 202.741 112.762 202.358C111.372 202.009 110.234 201.099 110.234 200.338C110.234 199.577 111.372 195.93 112.762 192.235C114.153 188.539 115.291 185.199 115.291 184.811C115.291 184.425 113.698 183.347 111.751 182.419C109.804 181.49 108.241 180.382 108.276 179.955C108.312 179.53 108.914 176.449 109.614 173.111C110.855 167.188 110.982 167.02 114.858 166.163C130.272 162.754 137.589 158.858 139.511 153.035C140.641 149.609 139.776 145.156 137.734 143.893C137.178 143.55 137.4 141.46 138.279 138.793C139.609 134.749 139.596 133.933 138.147 131.028C137.256 129.243 136.528 126.693 136.528 125.359C136.528 122.128 133.94 117.275 131.527 115.985C130.457 115.411 124.41 114.943 118.088 114.943C110.496 114.943 106.182 114.531 105.38 113.729C104.579 112.928 104.166 108.615 104.166 101.038C104.166 90.2005 104.027 89.4215 101.683 87.0776C98.6472 84.0397 95.1956 83.9102 91.6499 86.6992ZM321.6 91.6258C317.291 92.3016 316.896 93.9131 318.587 103.94L319.779 111.006L323.471 110.698L327.162 110.39L327.451 101.155C327.77 90.9683 327.595 90.684 321.6 91.6258ZM340.012 110.118C337.117 113.585 334.747 117.174 334.747 118.095C334.747 119.015 335.825 120.474 337.142 121.338C339.444 122.846 339.768 122.712 345.449 117.908C353.606 111.007 353.953 110.162 350.049 106.674C348.291 105.102 346.497 103.815 346.064 103.815C345.631 103.815 342.907 106.651 340.012 110.118ZM243.925 115.448C243.946 117.118 244.172 117.678 244.429 116.694C244.686 115.709 244.669 114.344 244.392 113.659C244.115 112.974 243.905 113.779 243.925 115.448ZM246.762 127.033C246.762 127.562 246.339 130.179 245.824 132.849C244.064 141.955 243.744 145.68 244.817 144.606C245.377 144.047 246.371 139.648 247.027 134.83L248.221 126.07H253.606H258.991L258.425 136.44C258.051 143.288 258.182 146.122 258.813 144.785C259.338 143.673 259.799 139.006 259.839 134.416C259.916 125.183 259.978 125.124 267.715 126.671L270.717 127.271L270.395 137.546C270.183 144.295 270.376 146.952 270.958 145.291C271.445 143.9 271.888 139.234 271.944 134.922C272.054 126.364 272.032 126.387 278.366 128.147L282.158 129.2V144.457V159.712L262.69 159.055C251.984 158.694 240.551 158.13 237.285 157.801L231.349 157.204L231.969 152.512C232.309 149.932 233.556 143.179 234.739 137.506C236.583 128.66 237.196 127.131 239.045 126.769C243.188 125.956 246.762 126.079 246.762 127.033ZM156.219 139.666C153.026 142.859 152.346 148.79 153.718 161.477C156.194 184.386 156.357 181.919 151.296 198.173C148.736 206.393 146.641 213.382 146.641 213.705C146.641 214.027 145.032 212.879 143.066 211.152C135.691 204.673 130.208 207.705 125.42 220.907C118.993 238.628 104.055 290.912 104.247 295.011C104.286 295.846 105.658 291.521 107.295 285.401C110.724 272.583 121.381 237.056 121.993 236.405C122.218 236.163 122.942 236.505 123.601 237.164C125.889 239.453 131.421 238.567 134.583 235.403C136.21 233.777 137.54 231.699 137.54 230.784C137.54 226.778 132.676 221.229 129.128 221.185C127.035 221.16 127.419 218.791 130.363 213.576C131.696 211.215 132.89 210.472 135.74 210.231C139.004 209.956 140.008 210.525 144.907 215.426C147.933 218.453 150.734 222.233 151.132 223.827C152.248 228.301 154.586 230.267 158.786 230.267C163.37 230.267 167.879 226.528 167.879 222.729C167.879 218.206 169.985 219.525 178.147 229.163C180.716 232.196 181.133 232.324 188.002 232.182C192.455 232.09 195.752 232.514 196.697 233.298C198.96 235.177 198.545 236.337 195.613 236.337C192.43 236.337 187.094 241.389 187.094 244.403C187.094 247.096 189.837 252.523 191.197 252.523C193.409 252.523 193.113 255.59 190.096 263.929L186.944 272.642L182.131 272.073C177.755 271.554 177.12 271.755 175.127 274.288C171.426 278.995 172.534 285.583 177.462 288.165L179.915 289.451L177.925 293.899C176.829 296.345 176.106 298.52 176.318 298.731C177.768 300.182 200.241 242.531 200.241 237.361C200.241 233.489 197.064 230.267 193.246 230.267C191.624 230.267 190.068 229.699 189.786 229.003C189.379 227.991 189.261 227.991 189.197 229.003C189.052 231.288 181.244 230.563 179.246 228.077C178.279 226.873 176.04 224.255 174.271 222.26L171.055 218.634L161.529 218.92C153.492 219.162 151.643 218.914 149.694 217.334L147.382 215.462L152.632 198.457C157.846 181.568 157.874 181.404 156.78 174.351C156.174 170.446 155.418 162.423 155.098 156.524C154.295 141.724 156.412 137.072 162.472 140.316C165.593 141.986 167.434 145.423 170.832 155.913C172.975 162.529 173.864 164.065 175.703 164.327C177.953 164.648 177.953 164.648 175.998 167.362C172.981 171.549 172.532 174.918 174.643 177.52C176.686 180.037 178.68 180.398 184.442 179.289L188.362 178.535L186.211 181.271C183.485 184.737 183.412 189.914 186.057 192.308C187.615 193.72 188.978 193.968 192.264 193.442L196.473 192.77L194.818 195.297C192.916 198.2 192.706 201.222 194.209 204.032C194.994 205.498 196.325 205.982 199.518 205.966C203.328 205.946 212.377 202.828 212.377 201.535C212.377 201.257 210.444 201.908 208.079 202.981C192.125 210.225 189.707 196.771 205.51 188.687C210.891 185.935 213.775 186.239 216.838 189.88C221.374 195.271 220.549 198.933 213.136 206.314C209.66 209.776 204.995 214.105 202.77 215.934C200.545 217.763 201.455 217.237 204.792 214.764C213.192 208.542 218.434 203.227 220.097 199.247C221.301 196.363 221.301 195.383 220.099 192.502C218.485 188.638 214.015 184.744 211.194 184.744C209.607 184.744 209.455 184.404 210.319 182.788C210.895 181.712 211.365 180.232 211.364 179.5C211.364 178.768 210.567 179.762 209.594 181.71C208.26 184.381 206.212 186.039 201.253 188.466C192.431 192.781 189.843 193.244 187.075 191.002C182.432 187.241 187.021 179.636 197.594 173.57C200.441 171.937 203.373 170.597 204.112 170.591C204.85 170.586 206.784 171.912 208.41 173.539C210.107 175.236 211.366 175.914 211.366 175.13C211.366 173.562 206.649 169.57 204.796 169.57C204.024 169.57 203.702 168.521 203.943 166.788C204.269 164.45 204.185 164.329 203.416 166.029C202.1 168.943 199.545 170.96 192.553 174.601C185.466 178.292 178.773 179.571 176.486 177.671C172.178 174.095 177.171 165.488 186.211 160.907C192.523 157.707 197.136 157.712 200.599 160.923C202.071 162.288 203.275 163.004 203.275 162.514C203.275 162.024 202.076 160.68 200.611 159.528C197.028 156.709 191.645 156.848 184.91 159.932C175.202 164.379 175.12 164.34 171.786 153.706C167.565 140.246 161.293 134.59 156.219 139.666ZM249.796 161.6C256.193 162.2 266.092 162.422 271.792 162.093L282.158 161.496V164.016C282.158 165.401 281.736 166.535 281.219 166.535C279.342 166.535 277.102 169.781 277.102 172.501C277.102 174.165 278.12 176.244 279.63 177.663C283.009 180.839 282.818 181.71 278.742 181.71C276.817 181.71 274.729 182.43 273.957 183.362C272.731 184.839 270.286 184.936 250.832 184.28C238.867 183.878 228.683 183.304 228.199 183.006C227.306 182.453 227.768 177.245 229.735 165.664L230.828 159.229L234.497 159.869C236.514 160.221 243.4 161 249.796 161.6ZM76.021 172.14C91.4618 176.574 111.313 183.396 112.642 184.725C113.886 185.97 109.356 200.976 107.78 200.829C107.183 200.774 105.557 200.401 104.166 200.003L101.638 199.275L104.91 197.556C108.576 195.627 109.961 192.061 108.268 188.897C106.043 184.737 98.5218 184.721 96.2019 188.87C94.9185 191.164 94.9357 191.865 96.3424 194.687C97.2233 196.452 97.7057 197.896 97.4154 197.896C96.5063 197.896 52.1224 185.56 51.3387 185.089C50.9291 184.844 52.4137 181.024 54.6366 176.601C58.0063 169.897 59.0844 168.559 61.1151 168.559C62.4551 168.559 69.1632 170.17 76.021 172.14ZM240.119 186.825C244.607 187.341 253.611 187.767 260.127 187.771C271.39 187.779 272.031 187.892 273.139 190.055C273.781 191.308 275.275 193.118 276.462 194.08L278.619 195.828L276.17 195.85C270.735 195.9 268.242 201.984 271.658 206.862C272.557 208.146 274.718 210.066 276.462 211.13L279.63 213.063L275.487 213.066C268.418 213.073 224.028 210.889 223.65 210.517C223.454 210.322 224.096 204.413 225.079 197.386L226.864 184.608L229.411 185.247C230.812 185.598 235.631 186.308 240.119 186.825ZM105.611 188.357C107.923 190.671 107.559 193.567 104.721 195.427C100.136 198.433 96.0855 194.944 97.5206 189.224C97.9959 187.327 98.807 186.768 101.079 186.768C102.698 186.768 104.736 187.483 105.611 188.357ZM247.437 215.077C256.243 215.639 267.659 215.806 272.804 215.447L282.158 214.795V228.731V242.668L273.309 242.046C268.443 241.703 254.825 241.124 243.051 240.76C231.275 240.396 221.116 239.773 220.476 239.377C219.607 238.84 219.735 235.599 220.977 226.623C221.892 220.003 222.804 214.06 223.004 213.415C223.262 212.581 224.53 212.504 227.396 213.149C229.612 213.646 238.63 214.514 247.437 215.077ZM195.594 221.416L193.668 223.692L195.943 221.765C198.081 219.954 198.679 219.14 197.87 219.14C197.678 219.14 196.654 220.163 195.594 221.416ZM191.01 224.956C189.753 226.561 189.788 226.596 191.392 225.339C193.077 224.017 193.612 223.186 192.78 223.186C192.571 223.186 191.774 223.982 191.01 224.956ZM294.374 228.834C294.423 230.012 294.662 230.252 294.985 229.446C295.277 228.716 295.241 227.843 294.905 227.507C294.569 227.171 294.331 227.768 294.374 228.834ZM234.626 243.391C239.91 243.943 252.767 244.403 263.196 244.413L282.158 244.43V259.099C282.158 270.158 281.847 273.768 280.894 273.77C276.353 273.781 216.807 267.413 216.301 266.863C215.957 266.487 216.393 260.57 217.271 253.715L218.867 241.25L221.942 241.818C223.634 242.131 229.342 242.839 234.626 243.391ZM153.215 243.575C150.145 245.255 148.664 247.556 148.664 250.645C148.664 257.293 153.696 261.729 158.964 259.726C161.844 258.63 165.857 254.033 165.857 251.83C165.857 249.112 162.965 244.82 160.323 243.616C157.099 242.146 155.839 242.139 153.215 243.575ZM123.557 260.934C119.122 265.657 122.191 275.79 128.055 275.79C131.422 275.79 136.214 273.21 137.577 270.662C141.698 262.959 129.564 254.538 123.557 260.934ZM140.91 292.559C138.687 294.782 138.388 295.782 138.87 299.377C139.892 306.998 146.681 309.54 152.632 304.531C156.762 301.056 156.816 296.94 152.787 292.91C148.962 289.084 144.516 288.953 140.91 292.559ZM103.314 299.058C103.314 300.449 103.544 301.018 103.824 300.322C104.105 299.627 104.105 298.489 103.824 297.793C103.544 297.098 103.314 297.667 103.314 299.058ZM172.088 306.688C170.394 310.408 170.718 311.202 172.549 307.82C173.405 306.24 173.916 304.759 173.685 304.527C173.454 304.297 172.736 305.269 172.088 306.688Z" fill="white"/>
</g>
</svg>
